<svg xmlns="http://www.w3.org/2000/svg" xmlns:svg="http://www.w3.org/2000/svg" id="svg5082" width="600" height="200" version="1.1" viewBox="0 0 600 200"><defs id="defs5084"><clipPath id="clipPath8044" clipPathUnits="userSpaceOnUse"><circle id="circle8046" cx="160" cy="259.996" r="12" style="opacity:1;fill:#2095f2;fill-opacity:1;stroke:none;stroke-width:2;stroke-miterlimit:4;stroke-dasharray:none;stroke-opacity:1"/></clipPath></defs><metadata id="metadata5087"/><g id="layer1" transform="translate(0,184)"><text style="font-style:normal;font-weight:400;font-size:16px;line-height:125%;font-family:sans-serif;letter-spacing:0;word-spacing:0;fill:#000;fill-opacity:1;stroke:none;stroke-width:1px;stroke-linecap:butt;stroke-linejoin:miter;stroke-opacity:1" id="text6419" x="12" y="-208" xml:space="preserve"><tspan id="tspan6421" x="12" y="-208" style="font-style:normal;font-variant:normal;font-weight:400;font-stretch:normal;font-size:16px;font-family:Cantarell;-inkscape-font-specification:Cantarell;fill:#000">actions</tspan></text><g id="g1003" transform="translate(60,-20)"><rect id="rect989" width="16" height="16" x="12" y="-152" style="color:#bebebe;display:inline;overflow:visible;visibility:visible;opacity:.51464431;fill:none;stroke:none;stroke-width:3;marker:none;enable-background:accumulate"/><path style="opacity:1;fill:none;fill-opacity:1;stroke:#555;stroke-width:1.99999988;stroke-linecap:butt;stroke-linejoin:round;stroke-miterlimit:4;stroke-dasharray:none;stroke-dashoffset:0;stroke-opacity:1" id="path991" d="m 17.047663,-148 c -1.446073,1e-5 -2.782294,0.76241 -3.505331,2 -0.723044,1.2376 -0.723044,2.7624 0,4 0.723037,1.23759 2.059258,1.99999 3.505331,2 h 6.714213 L 27,-144 l -3.238124,-4 z"/><circle id="circle993" cx="17" cy="-144" r="2" class="error" style="opacity:1;fill:#f01111;fill-opacity:1;stroke:none;stroke-width:3;stroke-linecap:square;stroke-linejoin:round;stroke-miterlimit:4;stroke-dasharray:none;stroke-dashoffset:0;stroke-opacity:1"/></g><g id="g1011" transform="translate(60)"><rect style="color:#bebebe;display:inline;overflow:visible;visibility:visible;opacity:.51464431;fill:none;stroke:none;stroke-width:3;marker:none;enable-background:accumulate" id="rect1005" width="16" height="16" x="12" y="-152"/><path id="path1007" d="m 13,-147 v 6 c 0,1 1,1 1,1 h 9.761876 L 27,-144 23.761876,-148 H 14 c 0,0 -1,0 -1,1 z" style="opacity:1;fill:none;fill-opacity:1;stroke:#555;stroke-width:1.99999988;stroke-linecap:butt;stroke-linejoin:round;stroke-miterlimit:4;stroke-dasharray:none;stroke-dashoffset:0;stroke-opacity:1"/><circle style="opacity:1;fill:#f01111;fill-opacity:1;stroke:none;stroke-width:3;stroke-linecap:square;stroke-linejoin:round;stroke-miterlimit:4;stroke-dasharray:none;stroke-dashoffset:0;stroke-opacity:1" id="circle1009" cx="17" cy="-144" r="2" class="error"/></g><rect style="color:#bebebe;display:inline;overflow:visible;visibility:visible;opacity:.51464431;fill:none;stroke:none;stroke-width:3;marker:none;enable-background:accumulate" id="rect1013" width="16" height="16" x="72" y="-132"/><path id="path1015" d="m 73,-128 v 8 c 0,0 0,1 1,1 h 9.021419 L 87,-124 83.021419,-129 H 74 c 0,0 -1,0 -1,1 z" style="opacity:1;fill:none;fill-opacity:1;stroke:#555;stroke-width:1.99999988;stroke-linecap:butt;stroke-linejoin:round;stroke-miterlimit:4;stroke-dasharray:none;stroke-dashoffset:0;stroke-opacity:1"/><g id="g1035" transform="translate(80,-20)"><rect style="color:#bebebe;display:inline;overflow:visible;visibility:visible;opacity:.51464431;fill:none;stroke:none;stroke-width:3;marker:none;enable-background:accumulate" id="rect1029" width="16" height="16" x="12" y="-112"/><path id="path1031" d="m 13,-108 v 8 c 0,0 0,1 1,1 l 9.021419,10e-7 L 27,-104 23.021419,-109 H 14 c 0,0 -1,0 -1,1 z" style="opacity:1;fill:none;fill-opacity:1;stroke:#555;stroke-width:1.99999988;stroke-linecap:butt;stroke-linejoin:round;stroke-miterlimit:4;stroke-dasharray:none;stroke-dashoffset:0;stroke-opacity:1"/></g><g id="g1043" transform="translate(80)"><rect id="rect1037" width="16" height="16" x="12" y="-152" style="color:#bebebe;display:inline;overflow:visible;visibility:visible;opacity:.51464431;fill:none;stroke:none;stroke-width:3;marker:none;enable-background:accumulate"/><path style="opacity:1;fill:none;fill-opacity:1;stroke:#555;stroke-width:1.99999988;stroke-linecap:butt;stroke-linejoin:round;stroke-miterlimit:4;stroke-dasharray:none;stroke-dashoffset:0;stroke-opacity:1" id="path1039" d="m 13,-147 v 6 c 0,0 0,1 1,1 h 9.761876 L 27,-144 23.761876,-148 H 14 c 0,0 -1,0 -1,1 z"/></g><g id="g1049" transform="translate(100,-20)"><rect id="rect1045" width="16" height="16" x="12" y="-112" style="color:#bebebe;display:inline;overflow:visible;visibility:visible;opacity:.51464431;fill:none;stroke:none;stroke-width:3;marker:none;enable-background:accumulate"/><path style="opacity:1;fill:#555;fill-opacity:1;stroke:#555;stroke-width:1.99999988;stroke-linecap:butt;stroke-linejoin:round;stroke-miterlimit:4;stroke-dasharray:none;stroke-dashoffset:0;stroke-opacity:1" id="path1047" d="m 13,-108 v 8 c 0,0 0,1 1,1 l 9.021419,10e-7 L 27,-104 23.021419,-109 H 14 c 0,0 -1,0 -1,1 z"/></g><g id="g1055" transform="translate(0,-20)"><rect style="color:#bebebe;display:inline;overflow:visible;visibility:visible;opacity:.51464431;fill:none;stroke:none;stroke-width:3;marker:none;enable-background:accumulate" id="rect1051" width="16" height="16" x="12" y="-152"/><path id="path1053" d="m 14,-148 c -1,0 -1,1 -1,1 v 6 c 0,1 1,1 1,1 h 9.761876 L 27,-144 l -3.238124,-4 z" style="opacity:1;fill:#555;fill-opacity:1;stroke:#555;stroke-width:1.99999988;stroke-linecap:butt;stroke-linejoin:round;stroke-miterlimit:4;stroke-dasharray:none;stroke-dashoffset:0;stroke-opacity:1"/></g><g id="g1071" transform="translate(100,-20)"><rect style="color:#bebebe;display:inline;overflow:visible;visibility:visible;opacity:.51464431;fill:none;stroke:none;stroke-width:3;marker:none;enable-background:accumulate" id="rect1065" width="16" height="16" x="12" y="-152"/><path id="path1067" d="m 17.047663,-148 c -1.446073,1e-5 -2.782294,0.76241 -3.505331,2 -0.723044,1.2376 -0.723044,2.7624 0,4 0.723037,1.23759 2.059258,1.99999 3.505331,2 h 6.714213 L 27,-144 l -3.238124,-4 z" style="opacity:1;fill:#555;fill-opacity:1;stroke:#555;stroke-width:1.99999988;stroke-linecap:butt;stroke-linejoin:round;stroke-miterlimit:4;stroke-dasharray:none;stroke-dashoffset:0;stroke-opacity:1"/></g><g id="g1087" transform="translate(80,-20)"><rect style="color:#bebebe;display:inline;overflow:visible;visibility:visible;opacity:.51464431;fill:none;stroke:none;stroke-width:3;marker:none;enable-background:accumulate" id="rect1081" width="16" height="16" x="12" y="-152"/><path id="path1083" d="m 17.047663,-148 c -1.446073,1e-5 -2.782294,0.76241 -3.505331,2 -0.723044,1.2376 -0.723044,2.7624 0,4 0.723037,1.23759 2.059258,1.99999 3.505331,2 h 6.714213 L 27,-144 l -3.238124,-4 z" style="opacity:1;fill:none;fill-opacity:1;stroke:#555;stroke-width:1.99999988;stroke-linecap:butt;stroke-linejoin:round;stroke-miterlimit:4;stroke-dasharray:none;stroke-dashoffset:0;stroke-opacity:1"/></g><g id="g1126" transform="translate(40.000139,-20)"><rect style="color:#bebebe;display:inline;overflow:visible;visibility:visible;opacity:.51464431;fill:none;stroke:none;stroke-width:3;marker:none;enable-background:accumulate" id="rect1106" width="16" height="16" x="32" y="-92"/><path style="opacity:1;fill:none;fill-opacity:1;stroke:#555;stroke-width:2;stroke-linecap:round;stroke-linejoin:round;stroke-miterlimit:4;stroke-dasharray:none;stroke-dashoffset:0;stroke-opacity:1" id="path1091" d="m 44,-80 3,-4 -3,-3.977667"/><path id="path1108" d="m 33,-87 v 6 c 0,0 0,1 1,1 h 5 L 42,-84.000003 39,-88 h -5 c -1.39e-4,0 -1,0 -1,1 z" style="opacity:1;fill:#f01111;fill-opacity:1;stroke:#f01111;stroke-width:2;stroke-linecap:butt;stroke-linejoin:miter;stroke-miterlimit:4;stroke-dasharray:none;stroke-dashoffset:0;stroke-opacity:1"/></g><g id="g1145" transform="translate(60.000139,-20)"><rect id="rect1139" width="16" height="16" x="32" y="-92" style="color:#bebebe;display:inline;overflow:visible;visibility:visible;opacity:.51464431;fill:none;stroke:none;stroke-width:3;marker:none;enable-background:accumulate"/><path id="path1141" d="m 44,-80 3,-4 -3,-3.977667" style="opacity:1;fill:none;fill-opacity:1;stroke:#555;stroke-width:2;stroke-linecap:round;stroke-linejoin:round;stroke-miterlimit:4;stroke-dasharray:none;stroke-dashoffset:0;stroke-opacity:1"/><path style="opacity:1;fill:#f01111;fill-opacity:1;stroke:#f01111;stroke-width:2;stroke-linecap:butt;stroke-linejoin:miter;stroke-miterlimit:4;stroke-dasharray:none;stroke-dashoffset:0;stroke-opacity:1" id="path1143" d="m 33.999861,-86 v 4 c 0,0 0,1 1,1 l 5,-1.39e-4 2,-2.999861 -2,-3 h -5 c 0,0 -1,0 -1,1 z"/></g><g id="g1131" transform="translate(20)"><rect style="color:#bebebe;display:inline;overflow:visible;visibility:visible;opacity:.51464431;fill:none;stroke:none;stroke-width:3;marker:none;enable-background:accumulate" id="rect1111" width="16" height="16" x="52" y="-92"/><path style="opacity:1;fill:none;fill-opacity:1;stroke:#555;stroke-width:2;stroke-linecap:round;stroke-linejoin:round;stroke-miterlimit:4;stroke-dasharray:none;stroke-dashoffset:0;stroke-opacity:1" id="path1113" d="m 64.000139,-80 3,-4 -3,-3.977667"/><circle style="opacity:1;fill:#f01111;fill-opacity:1;stroke:none;stroke-width:4;stroke-linecap:square;stroke-linejoin:round;stroke-miterlimit:4;stroke-dasharray:none;stroke-dashoffset:0;stroke-opacity:1" id="circle1017" cx="58" cy="-84" r="4" class="error"/></g><g id="g1139" transform="translate(40)"><rect id="rect1133" width="16" height="16" x="52" y="-92" style="color:#bebebe;display:inline;overflow:visible;visibility:visible;opacity:.51464431;fill:none;stroke:none;stroke-width:3;marker:none;enable-background:accumulate"/><path id="path1135" d="m 64.000139,-80 3,-4 -3,-3.977667" style="opacity:1;fill:none;fill-opacity:1;stroke:#555;stroke-width:2;stroke-linecap:round;stroke-linejoin:round;stroke-miterlimit:4;stroke-dasharray:none;stroke-dashoffset:0;stroke-opacity:1"/><circle id="circle1137" cx="57" cy="-84" r="5" class="error" style="opacity:1;fill:#f01111;fill-opacity:1;stroke:none;stroke-width:5;stroke-linecap:square;stroke-linejoin:round;stroke-miterlimit:4;stroke-dasharray:none;stroke-dashoffset:0;stroke-opacity:1"/></g><g id="g1168" transform="translate(0,80)"><rect style="color:#bebebe;display:inline;overflow:visible;visibility:visible;opacity:.51464431;fill:none;stroke:none;stroke-width:3;marker:none;enable-background:accumulate" id="rect1141" width="16" height="16" x="72" y="-152"/><path id="path1144" d="m 81.047663,-148 v 8 h 2.714213 L 87,-144 l -3.238124,-4 z" style="opacity:1;fill:none;fill-opacity:1;stroke:#555;stroke-width:1.99999988;stroke-linecap:butt;stroke-linejoin:round;stroke-miterlimit:4;stroke-dasharray:none;stroke-dashoffset:0;stroke-opacity:1"/><circle id="circle1017-3" cx="75" cy="-144" r="3" class="error" style="opacity:1;fill:#f01111;fill-opacity:1;stroke:none;stroke-width:3;stroke-linecap:square;stroke-linejoin:round;stroke-miterlimit:4;stroke-dasharray:none;stroke-dashoffset:0;stroke-opacity:1"/></g><circle style="opacity:1;fill:#f01111;fill-opacity:1;stroke:none;stroke-width:3;stroke-linecap:square;stroke-linejoin:round;stroke-miterlimit:4;stroke-dasharray:none;stroke-dashoffset:0;stroke-opacity:1" id="circle1170" cx="78" cy="-124" r="3" class="error"/><g id="g1195" transform="translate(40,80)"><rect id="rect1189" width="16" height="16" x="72" y="-152" style="color:#bebebe;display:inline;overflow:visible;visibility:visible;opacity:.51464431;fill:none;stroke:none;stroke-width:3;marker:none;enable-background:accumulate"/><path style="opacity:1;fill:#555;fill-opacity:1;stroke:#555;stroke-width:1.99999988;stroke-linecap:butt;stroke-linejoin:round;stroke-miterlimit:4;stroke-dasharray:none;stroke-dashoffset:0;stroke-opacity:1" id="path1191" d="m 81.047663,-148 v 8 h 2.714213 L 87,-144 l -3.238124,-4 z"/><circle style="opacity:1;fill:#f01111;fill-opacity:1;stroke:none;stroke-width:3;stroke-linecap:square;stroke-linejoin:round;stroke-miterlimit:4;stroke-dasharray:none;stroke-dashoffset:0;stroke-opacity:1" id="circle1193" cx="75" cy="-144" r="3" class="error"/></g></g></svg>