<svg xmlns="http://www.w3.org/2000/svg" xmlns:svg="http://www.w3.org/2000/svg" id="svg5082" width="600" height="200" version="1.1" viewBox="0 0 600 200"><defs id="defs5084"><clipPath id="clipPath8044" clipPathUnits="userSpaceOnUse"><circle id="circle8046" cx="160" cy="259.996" r="12" style="opacity:1;fill:#2095f2;fill-opacity:1;stroke:none;stroke-width:2;stroke-miterlimit:4;stroke-dasharray:none;stroke-opacity:1"/></clipPath></defs><metadata id="metadata5087"/><g id="layer1" transform="translate(0,184)"><text style="font-style:normal;font-weight:400;font-size:16px;line-height:125%;font-family:sans-serif;letter-spacing:0;word-spacing:0;fill:#000;fill-opacity:1;stroke:none;stroke-width:1px;stroke-linecap:butt;stroke-linejoin:miter;stroke-opacity:1" id="text6419" x="12" y="-208" xml:space="preserve"><tspan id="tspan6421" x="12" y="-208" style="font-style:normal;font-variant:normal;font-weight:400;font-stretch:normal;font-size:16px;font-family:Cantarell;-inkscape-font-specification:Cantarell;fill:#000">actions</tspan></text><g id="g1055" transform="translate(0,-20)"><rect style="color:#bebebe;display:inline;overflow:visible;visibility:visible;opacity:.51464431;fill:none;stroke:none;stroke-width:3;marker:none;enable-background:accumulate" id="rect1051" width="16" height="16" x="12" y="-152"/><path style="color:#000;font-style:normal;font-variant:normal;font-weight:400;font-stretch:normal;font-size:medium;line-height:normal;font-family:sans-serif;font-variant-ligatures:normal;font-variant-position:normal;font-variant-caps:normal;font-variant-numeric:normal;font-variant-alternates:normal;font-feature-settings:normal;text-indent:0;text-align:start;text-decoration:none;text-decoration-line:none;text-decoration-style:solid;text-decoration-color:#000;letter-spacing:normal;word-spacing:normal;text-transform:none;writing-mode:lr-tb;direction:ltr;text-orientation:mixed;dominant-baseline:auto;baseline-shift:baseline;text-anchor:start;white-space:normal;shape-padding:0;clip-rule:nonzero;display:inline;overflow:visible;visibility:visible;opacity:1;isolation:auto;mix-blend-mode:normal;color-interpolation:sRGB;color-interpolation-filters:linearRGB;solid-color:#000;solid-opacity:1;vector-effect:none;fill:#555;fill-opacity:1;fill-rule:nonzero;stroke:none;stroke-width:1.99999988;stroke-linecap:butt;stroke-linejoin:round;stroke-miterlimit:4;stroke-dasharray:none;stroke-dashoffset:0;stroke-opacity:1;color-rendering:auto;image-rendering:auto;shape-rendering:auto;text-rendering:auto;enable-background:accumulate" id="path1053" d="m 14,-149 c -0.833333,0 -1.525274,0.56422 -1.769531,1.05273 C 11.986212,-147.45875 12,-147 12,-147 v 6 c 0,0.83333 0.56422,1.52527 1.052734,1.76953 C 13.541248,-138.98621 14,-139 14,-139 h 9.761719 c 0.301837,-6e-5 0.587504,-0.13643 0.777343,-0.37109 l 3.238282,-4 c 0.296658,-0.3668 0.296658,-0.89102 0,-1.25782 l -3.238282,-4 c -0.189839,-0.23466 -0.475506,-0.37103 -0.777343,-0.37109 z"/><path id="path4505" d="m 14,-149 c -0.833333,0 -1.525274,0.56422 -1.769531,1.05273 C 11.986212,-147.45875 12,-147 12,-147 v 6 c 0,0.83333 0.56422,1.52527 1.052734,1.76953 C 13.541248,-138.98621 14,-139 14,-139 h 9.761719 c 0.301837,-6e-5 0.587504,-0.13643 0.777343,-0.37109 l 3.238282,-4 c 0.296658,-0.3668 0.296658,-0.89102 0,-1.25782 l -3.238282,-4 c -0.189839,-0.23466 -0.475506,-0.37103 -0.777343,-0.37109 z" style="color:#000;font-style:normal;font-variant:normal;font-weight:400;font-stretch:normal;font-size:medium;line-height:normal;font-family:sans-serif;font-variant-ligatures:normal;font-variant-position:normal;font-variant-caps:normal;font-variant-numeric:normal;font-variant-alternates:normal;font-feature-settings:normal;text-indent:0;text-align:start;text-decoration:none;text-decoration-line:none;text-decoration-style:solid;text-decoration-color:#000;letter-spacing:normal;word-spacing:normal;text-transform:none;writing-mode:lr-tb;direction:ltr;text-orientation:mixed;dominant-baseline:auto;baseline-shift:baseline;text-anchor:start;white-space:normal;shape-padding:0;clip-rule:nonzero;display:inline;overflow:visible;visibility:visible;opacity:1;isolation:auto;mix-blend-mode:normal;color-interpolation:sRGB;color-interpolation-filters:linearRGB;solid-color:#000;solid-opacity:1;vector-effect:none;fill:#555;fill-opacity:1;fill-rule:nonzero;stroke:none;stroke-width:1.99999988;stroke-linecap:butt;stroke-linejoin:round;stroke-miterlimit:4;stroke-dasharray:none;stroke-dashoffset:0;stroke-opacity:1;color-rendering:auto;image-rendering:auto;shape-rendering:auto;text-rendering:auto;enable-background:accumulate"/></g></g></svg>