<svg xmlns="http://www.w3.org/2000/svg" xmlns:svg="http://www.w3.org/2000/svg" xmlns:xlink="http://www.w3.org/1999/xlink" id="svg7384" width="16" height="16" version="1.1"><metadata id="metadata90"/><title id="title9167">Gnome Symbolic Icon Theme</title><defs id="defs7386"><linearGradient id="linearGradient5408"><stop style="stop-color:#bebebe;stop-opacity:1" id="stop5410" offset="0"/><stop style="stop-color:#bebebe;stop-opacity:0" id="stop5412" offset="1"/></linearGradient><clipPath id="clipPath6279-6-1-4-5" clipPathUnits="userSpaceOnUse"><rect style="color:#bebebe;fill:#bebebe;fill-opacity:1;fill-rule:nonzero;stroke:none;stroke-width:2;marker:none;visibility:visible;display:inline;overflow:visible" id="rect6281-3-0-3-5" width="3.825" height="6.375" x="26.85" y="220.75"/></clipPath><clipPath id="clipPath6265-33-6-5-1-3" clipPathUnits="userSpaceOnUse"><rect style="color:#bebebe;fill:#bebebe;fill-opacity:1;fill-rule:nonzero;stroke:none;stroke-width:2;marker:none;visibility:visible;display:inline;overflow:visible" id="rect6267-6-9-1-4-8" width="2.898" height="5.216" x="26.966" y="221.33"/></clipPath><clipPath id="clipPath6259-6-8-2-1-6-6" clipPathUnits="userSpaceOnUse"><rect style="color:#bebebe;fill:#bebebe;fill-opacity:1;stroke:none;stroke-width:2;marker:none;visibility:visible;display:inline;overflow:visible" id="rect6261-4-9-2-0-9-0" width="1.876" height="4.873" x="26.999" y="221.502"/></clipPath><clipPath id="clipPath6279-2-3" clipPathUnits="userSpaceOnUse"><rect style="color:#bebebe;fill:#bebebe;fill-opacity:1;fill-rule:nonzero;stroke:none;stroke-width:2;marker:none;visibility:visible;display:inline;overflow:visible" id="rect6281-5-3" width="3.825" height="6.375" x="26.85" y="220.75"/></clipPath><clipPath id="clipPath6265-3-5-6" clipPathUnits="userSpaceOnUse"><rect style="color:#bebebe;fill:#bebebe;fill-opacity:1;fill-rule:nonzero;stroke:none;stroke-width:2;marker:none;visibility:visible;display:inline;overflow:visible" id="rect6267-1-8-1" width="2.898" height="5.216" x="26.966" y="221.33"/></clipPath><clipPath id="clipPath6259-8-8-8" clipPathUnits="userSpaceOnUse"><rect style="color:#bebebe;fill:#bebebe;fill-opacity:1;stroke:none;stroke-width:2;marker:none;visibility:visible;display:inline;overflow:visible" id="rect6261-6-0-7" width="1.876" height="4.873" x="26.999" y="221.502"/></clipPath><clipPath id="clipPath3157-7-0" clipPathUnits="userSpaceOnUse"><rect id="rect3159-5-5" width="1.739" height="5.216" x="28.125" y="221.33" style="color:#bebebe;fill:#bebebe;fill-opacity:1;fill-rule:nonzero;stroke:none;stroke-width:2;marker:none;visibility:visible;display:inline;overflow:visible"/></clipPath><clipPath id="clipPath6279-6-1" clipPathUnits="userSpaceOnUse"><rect style="color:#bebebe;fill:#bebebe;fill-opacity:1;fill-rule:nonzero;stroke:none;stroke-width:2;marker:none;visibility:visible;display:inline;overflow:visible" id="rect6281-3-1" width="3.825" height="6.375" x="26.85" y="220.75"/></clipPath><clipPath id="clipPath6265-33-6-4-0" clipPathUnits="userSpaceOnUse"><rect style="color:#bebebe;fill:#bebebe;fill-opacity:1;fill-rule:nonzero;stroke:none;stroke-width:2;marker:none;visibility:visible;display:inline;overflow:visible" id="rect6267-6-9-19-3" width="2.898" height="5.216" x="26.966" y="221.33"/></clipPath><clipPath id="clipPath6259-6-8-2-8-0" clipPathUnits="userSpaceOnUse"><rect style="color:#bebebe;fill:#bebebe;fill-opacity:1;stroke:none;stroke-width:2;marker:none;visibility:visible;display:inline;overflow:visible" id="rect6261-4-9-2-7-0" width="1.876" height="4.873" x="26.999" y="221.502"/></clipPath><clipPath id="clipPath6265-33-4" clipPathUnits="userSpaceOnUse"><rect style="color:#bebebe;fill:#bebebe;fill-opacity:1;fill-rule:nonzero;stroke:none;stroke-width:2;marker:none;visibility:visible;display:inline;overflow:visible" id="rect6267-6-5" width="2.898" height="5.216" x="26.966" y="221.33"/></clipPath><clipPath id="clipPath6259-6-8-25-4" clipPathUnits="userSpaceOnUse"><rect style="color:#bebebe;fill:#bebebe;fill-opacity:1;stroke:none;stroke-width:2;marker:none;visibility:visible;display:inline;overflow:visible" id="rect6261-4-9-24-2" width="1.876" height="4.873" x="26.999" y="221.502"/></clipPath><clipPath id="clipPath6259-6-4" clipPathUnits="userSpaceOnUse"><rect style="color:#bebebe;fill:#bebebe;fill-opacity:1;stroke:none;stroke-width:2;marker:none;visibility:visible;display:inline;overflow:visible" id="rect6261-4-9" width="1.876" height="4.873" x="26.999" y="221.502"/></clipPath><clipPath id="clipPath6279-7-9" clipPathUnits="userSpaceOnUse"><rect style="color:#bebebe;fill:#bebebe;fill-opacity:1;fill-rule:nonzero;stroke:none;stroke-width:2;marker:none;visibility:visible;display:inline;overflow:visible" id="rect6281-1-9" width="3.825" height="6.375" x="26.85" y="220.75"/></clipPath><clipPath id="clipPath6265-3-4" clipPathUnits="userSpaceOnUse"><rect style="color:#bebebe;fill:#bebebe;fill-opacity:1;fill-rule:nonzero;stroke:none;stroke-width:2;marker:none;visibility:visible;display:inline;overflow:visible" id="rect6267-1-9" width="2.898" height="5.216" x="26.966" y="221.33"/></clipPath><clipPath id="clipPath6259-8-81" clipPathUnits="userSpaceOnUse"><rect style="color:#bebebe;fill:#bebebe;fill-opacity:1;stroke:none;stroke-width:2;marker:none;visibility:visible;display:inline;overflow:visible" id="rect6261-6-6" width="1.876" height="4.873" x="26.999" y="221.502"/></clipPath><clipPath id="clipPath6279-3" clipPathUnits="userSpaceOnUse"><rect style="color:#bebebe;fill:#bebebe;fill-opacity:1;fill-rule:nonzero;stroke:none;stroke-width:2;marker:none;visibility:visible;display:inline;overflow:visible" id="rect6281-9" width="3.825" height="6.375" x="26.85" y="220.75"/></clipPath><clipPath id="clipPath6265-334" clipPathUnits="userSpaceOnUse"><rect style="color:#bebebe;fill:#bebebe;fill-opacity:1;fill-rule:nonzero;stroke:none;stroke-width:2;marker:none;visibility:visible;display:inline;overflow:visible" id="rect6267-61" width="2.898" height="5.216" x="26.966" y="221.33"/></clipPath><clipPath id="clipPath6259-5" clipPathUnits="userSpaceOnUse"><rect style="color:#bebebe;fill:#bebebe;fill-opacity:1;stroke:none;stroke-width:2;marker:none;visibility:visible;display:inline;overflow:visible" id="rect6261-61" width="1.876" height="4.873" x="26.999" y="221.502"/></clipPath><clipPath id="clipPath6810-7" clipPathUnits="userSpaceOnUse"><rect id="rect6812-2" width="14" height="11" x="21" y="281" style="color:#bebebe;fill:none;stroke:#fff;stroke-width:2;stroke-linecap:round;stroke-linejoin:round;stroke-miterlimit:4;stroke-opacity:1;stroke-dasharray:none;stroke-dashoffset:0;marker:none;visibility:visible;display:inline;overflow:visible"/></clipPath><clipPath id="clipPath3668" clipPathUnits="userSpaceOnUse"><rect id="rect3670" width="1.876" height="3.373" x="26.999" y="221.502" style="color:#bebebe;fill:#bebebe;fill-opacity:1;stroke:none;stroke-width:2;marker:none;visibility:visible;display:inline;overflow:visible"/></clipPath><clipPath id="clipPath3697" clipPathUnits="userSpaceOnUse"><path style="color:#bebebe;fill:#bebebe;fill-opacity:1;fill-rule:nonzero;stroke:none;stroke-width:2;marker:none;visibility:visible;display:inline;overflow:visible" id="path3699" d="m 26.965789,221.32959 0,5.21591 0.579546,0 0,-1.15909 2.318182,0 0,-4.05682 -2.897728,0 z"/></clipPath><clipPath id="clipPath6810-7-87" clipPathUnits="userSpaceOnUse"><rect id="rect6812-2-4" width="14" height="11" x="21" y="281" style="color:#bebebe;fill:none;stroke:#fff;stroke-width:2;stroke-linecap:round;stroke-linejoin:round;stroke-miterlimit:4;stroke-opacity:1;stroke-dasharray:none;stroke-dashoffset:0;marker:none;visibility:visible;display:inline;overflow:visible"/></clipPath><radialGradient id="radialGradient5414" cx="-196.786" cy="-28.513" r="1.607" fx="-196.786" fy="-28.513" gradientTransform="matrix(2.9445462,0,0,2.8235465,602.73629,270.04529)" gradientUnits="userSpaceOnUse" xlink:href="#linearGradient5408"/><radialGradient id="radialGradient5414-2" cx="-196.786" cy="-28.513" r="1.607" fx="-196.786" fy="-28.513" gradientTransform="matrix(2.9445462,0,0,2.8235465,602.73629,270.04529)" gradientUnits="userSpaceOnUse" xlink:href="#linearGradient5408-4"/><linearGradient id="linearGradient5408-4"><stop style="stop-color:#bebebe;stop-opacity:1" id="stop5410-7" offset="0"/><stop style="stop-color:#bebebe;stop-opacity:0" id="stop5412-9" offset="1"/></linearGradient><filter id="filter6015" color-interpolation-filters="sRGB"><feGaussianBlur id="feGaussianBlur6017" in="SourceGraphic" result="result6" stdDeviation="10"/><feComposite id="feComposite6019" in="result6" in2="SourceGraphic" operator="xor"/><feGaussianBlur id="feGaussianBlur6021" result="result2" stdDeviation="10"/><feComposite id="feComposite6023" in2="SourceGraphic" operator="atop" result="result91"/><feComposite id="feComposite6025" in="result2" in2="result91" operator="xor" result="result4"/><feGaussianBlur id="feGaussianBlur6027" in="result4" result="result3" stdDeviation="5"/><feSpecularLighting id="feSpecularLighting6029" in="result3" lighting-color="#fff" result="result5" specularConstant="3" specularExponent="35" surfaceScale="12"><feDistantLight id="feDistantLight6031" azimuth="235" elevation="45"/></feSpecularLighting><feComposite id="feComposite6033" in="SourceGraphic" in2="result5" k1="0" k2=".8" k3=".7" k4="0" operator="arithmetic" result="result7"/><feComposite id="feComposite6035" in="result7" in2="SourceGraphic" operator="in"/></filter><linearGradient id="linearGradient3210" x1="22.453" x2="23.615" y1="170.378" y2="164.955" gradientTransform="translate(268.69307,348.30684)" gradientUnits="userSpaceOnUse" xlink:href="#linearGradient5734"/><linearGradient id="linearGradient5734"><stop id="stop5736" offset="0" style="stop-color:#8ab3df;stop-opacity:1"/><stop id="stop5738" offset="1" style="stop-color:#fff;stop-opacity:1"/></linearGradient><linearGradient id="linearGradient3212" x1="19.576" x2="21.932" y1="167.067" y2="169.579" gradientTransform="translate(267.82967,349.0664)" gradientUnits="userSpaceOnUse" xlink:href="#linearGradient5704-54"/><linearGradient id="linearGradient5704-54"><stop id="stop5706-3" offset="0" style="stop-color:#5a5a5a;stop-opacity:1"/><stop id="stop5708-12" offset="1" style="stop-color:#000;stop-opacity:1"/></linearGradient><linearGradient id="linearGradient3204" x1="15" x2="13.849" y1="177.442" y2="175.947" gradientTransform="matrix(1,0,0,0.973548,268.32967,354.06823)" gradientUnits="userSpaceOnUse" xlink:href="#linearGradient5734"/><linearGradient id="linearGradient33956"><stop id="stop33958" offset="0" style="stop-color:#8ab3df;stop-opacity:1"/><stop id="stop33960" offset="1" style="stop-color:#fff;stop-opacity:1"/></linearGradient><linearGradient id="linearGradient3206" x1="14.02" x2="15.847" y1="174.942" y2="178.022" gradientTransform="matrix(1,0,0,0.973548,268.32967,354.06823)" gradientUnits="userSpaceOnUse" xlink:href="#linearGradient5704-54"/><linearGradient id="linearGradient33963"><stop id="stop33965" offset="0" style="stop-color:#5a5a5a;stop-opacity:1"/><stop id="stop33967" offset="1" style="stop-color:#000;stop-opacity:1"/></linearGradient><linearGradient id="linearGradient3199" x1="-13.06" x2="-10.528" y1="332.077" y2="335.031" gradientTransform="translate(308.69307,174.54724)" gradientUnits="userSpaceOnUse" xlink:href="#linearGradient4343"/><linearGradient id="linearGradient4343"><stop id="stop4345" offset="0" style="stop-color:#fff9f9;stop-opacity:1"/><stop id="stop4347" offset="1" style="stop-color:#fff9f9;stop-opacity:0"/></linearGradient><linearGradient id="linearGradient3116"><stop style="stop-color:#fff;stop-opacity:.79607844" id="stop3118" offset="0"/><stop style="stop-color:#fff;stop-opacity:.21568628" id="stop3120" offset="1"/></linearGradient><radialGradient id="radialGradient3210" cx="11" cy="22" r="8" fx="11" fy="22" gradientTransform="matrix(1,0,0,0.25,0,16.5)" gradientUnits="userSpaceOnUse" xlink:href="#linearGradient3204-1"/><linearGradient id="linearGradient3204-1"><stop style="stop-color:#000;stop-opacity:1" id="stop3206" offset="0"/><stop style="stop-color:#000;stop-opacity:0" id="stop3208" offset="1"/></linearGradient><linearGradient id="linearGradient3845"><stop style="stop-color:#f0f1ee;stop-opacity:1" id="stop3847" offset="0"/><stop style="stop-color:#d3d7cf;stop-opacity:1" id="stop3849" offset="1"/></linearGradient><radialGradient id="aigrd2" cx="25.053" cy="39.593" r="15.757" fx="25.053" fy="39.593" gradientTransform="matrix(0.348468,0,0,0.348468,15.64542,17.02404)" gradientUnits="userSpaceOnUse"><stop style="stop-color:#777;stop-opacity:1" id="stop8602" offset="0"/><stop style="stop-color:#000" id="stop8604" offset="1"/></radialGradient><linearGradient id="linearGradient5154" x1="83.032" x2="66.311" y1="40.924" y2="22.766" gradientTransform="matrix(0.318803,0,0,0.370189,-12.922,-1.498959)" gradientUnits="userSpaceOnUse" xlink:href="#linearGradient5148"/><linearGradient id="linearGradient5148"><stop style="stop-color:#d0d0d0;stop-opacity:1" id="stop5150" offset="0"/><stop style="stop-color:#ececec;stop-opacity:1" id="stop5152" offset="1"/></linearGradient><linearGradient id="linearGradient5260"><stop id="stop5264" offset="0" style="stop-color:#fff;stop-opacity:1"/><stop id="stop5262" offset="1" style="stop-color:#c9c9c3;stop-opacity:1"/></linearGradient><linearGradient id="linearGradient8940"><stop id="stop8942" offset="0" style="stop-color:#fff;stop-opacity:1"/><stop id="stop8944" offset="1" style="stop-color:#c9c9c3;stop-opacity:1"/></linearGradient><linearGradient id="linearGradient5238"><stop style="stop-color:#888a85;stop-opacity:1" id="stop5240" offset="0"/><stop style="stop-color:#70726d;stop-opacity:1" id="stop5242" offset="1"/></linearGradient><linearGradient id="linearGradient8951"><stop style="stop-color:#888a85;stop-opacity:1" id="stop8953" offset="0"/><stop style="stop-color:#70726d;stop-opacity:1" id="stop8955" offset="1"/></linearGradient><linearGradient id="linearGradient5274"><stop style="stop-color:#555753;stop-opacity:1" id="stop5276" offset="0"/><stop style="stop-color:#cacbc9;stop-opacity:1" id="stop5278" offset="1"/></linearGradient><linearGradient id="linearGradient6500"><stop style="stop-color:#857c63;stop-opacity:1" id="stop6502" offset="0"/><stop style="stop-color:#221f19;stop-opacity:1" id="stop6504" offset="1"/></linearGradient><linearGradient id="linearGradient8524"><stop style="stop-color:white;stop-opacity:1" id="stop8526" offset="0"/><stop style="stop-color:white;stop-opacity:0" id="stop8528" offset="1"/></linearGradient><linearGradient id="linearGradient6468"><stop style="stop-color:white;stop-opacity:1" id="stop6470" offset="0"/><stop style="stop-color:#b9b9b0;stop-opacity:1" id="stop6472" offset="1"/></linearGradient><linearGradient id="linearGradient8542"><stop style="stop-color:#5b676b;stop-opacity:1" id="stop8544" offset="0"/><stop style="stop-color:#141718;stop-opacity:1" id="stop8546" offset="1"/></linearGradient><linearGradient id="linearGradient6452"><stop style="stop-color:white;stop-opacity:1" id="stop6454" offset="0"/><stop style="stop-color:white;stop-opacity:0" id="stop6456" offset="1"/></linearGradient><linearGradient id="linearGradient8984"><stop style="stop-color:white;stop-opacity:1" id="stop8986" offset="0"/><stop style="stop-color:#b9b9b0;stop-opacity:1" id="stop8988" offset="1"/></linearGradient><radialGradient id="radialGradient4778" cx="23" cy="33.938" r="18.25" fx="23" fy="33.938" gradientTransform="matrix(1,0,0,0.434932,-1.6364745,1.8623189)" gradientUnits="userSpaceOnUse" xlink:href="#linearGradient6492"/><linearGradient id="linearGradient6492"><stop style="stop-color:black;stop-opacity:1" id="stop6494" offset="0"/><stop style="stop-color:black;stop-opacity:0" id="stop6496" offset="1"/></linearGradient></defs><g id="layer9" transform="translate(-241.0002,-217)" style="display:inline"><g style="display:inline" id="g3922" transform="translate(21.0002,-0.999999)"><rect style="color:#bebebe;fill:none;stroke:none;stroke-width:1;marker:none;visibility:visible;display:inline;overflow:visible" id="rect2941" width="16" height="16" x="-194" y="20" transform="matrix(0,-1,1,0,0,0)"/><path style="color:#000;fill:#bebebe;fill-opacity:1;fill-rule:nonzero;stroke:none;stroke-width:.5;marker:none;visibility:visible;display:inline;overflow:visible;enable-background:accumulate" id="rect10016" d="m -197,-39 c -1.108,0 -2,0.892001 -2,2 l 0,10 c 0,1.107999 0.892,2 2,2 l 10,0 c 1.108,0 2,-0.892001 2,-2 l 0,-10 c 0,-1.107999 -0.892,-2 -2,-2 z m 2,2 3.22244,-10e-7 c 2.37665,-1e-6 3.77756,1.197611 3.77756,3.437501 0,2.060204 -1.11795,3.562498 -3,3.562499 l -2,1e-6 0,3 -2,0 z m 2,1.999999 0,3.000001 1.32519,-10e-7 c 1.15778,-1e-6 1.67481,-0.587472 1.67481,-1.468749 0,-0.649775 -0.23971,-1.531251 -1.62211,-1.531251 z" transform="translate(220,218)"/></g><g id="g10887" transform="translate(41.0002,-0.999999)" style="display:inline"><rect id="rect10889" width="16" height="16" x="-194" y="20" transform="matrix(0,-1,1,0,0,0)" style="color:#bebebe;fill:none;stroke:none;stroke-width:1;marker:none;visibility:visible;display:inline;overflow:visible"/><path style="color:#000;fill:#bebebe;fill-opacity:1;fill-rule:nonzero;stroke:none;stroke-width:.5;marker:none;visibility:visible;display:inline;overflow:visible;enable-background:accumulate" id="path10893" d="m -166,-39 0,12.999999 c 0,0.618718 -0.32972,1.000001 -1,1.000001 -0.58189,0 -1,-0.40338 -1,-1.000001 l 0,-4.607456 C -172.08559,-34.208554 -168.96376,-39 -166,-39 z" transform="translate(200,218)"/><path style="font-size:medium;font-style:normal;font-variant:normal;font-weight:400;font-stretch:normal;text-indent:0;text-align:start;text-decoration:none;line-height:normal;letter-spacing:normal;word-spacing:normal;text-transform:none;direction:ltr;block-progression:tb;writing-mode:lr-tb;text-anchor:start;baseline-shift:baseline;color:#000;fill:#bebebe;fill-opacity:1;fill-rule:nonzero;stroke:none;stroke-width:.5;marker:none;visibility:visible;display:inline;overflow:visible;enable-background:accumulate;font-family:Sans;-inkscape-font-specification:Sans" id="path10895" d="m -179,-35 c 0,0.83333 0.40155,1.56113 0.9375,2.09375 0.52898,0.525689 1.23978,0.896688 2.0625,0.90625 l 0,6 c -0.007,0.528313 0.47163,1.014242 1,1.014242 0.52837,0 1.00747,-0.485929 1,-1.014242 l 0,-6 0.0312,0 c 0.8287,0 1.53642,-0.37492 2.0625,-0.90625 0.52613,-0.53133 0.9063,-1.26042 0.9063,-2.09375 0,-0.682593 -0.63368,-4 -2,-4 l 0,1 c -2.2e-4,0.01032 -1.5e-4,0.02089 0,0.03125 L -173,-35 c 0,0.16667 -0.12724,0.43758 -0.34375,0.65625 -0.21651,0.21867 -0.48333,0.34375 -0.625,0.34375 l -0.0312,0 -0.51563,-5 -0.99999,0 -0.48438,5 c -0.18267,-0.01018 -0.44675,-0.135567 -0.65625,-0.34375 C -176.875,-34.56114 -177,-34.83333 -177,-35 l 0,-2.96875 c 2.6e-4,-0.01059 1.4e-4,-0.02071 0,-0.03125 l 0,-1 c -1.62314,0 -2,3.404642 -2,4 z" transform="translate(200,218)"/></g><g style="display:inline" id="g10952" transform="translate(61.0002,-0.999999)"><path style="font-size:medium;font-style:normal;font-variant:normal;font-weight:400;font-stretch:normal;text-indent:0;text-align:start;text-decoration:none;line-height:normal;letter-spacing:normal;word-spacing:normal;text-transform:none;direction:ltr;block-progression:tb;writing-mode:lr-tb;text-anchor:start;baseline-shift:baseline;color:#000;fill:#bebebe;fill-opacity:1;stroke:none;stroke-width:1px;marker:none;visibility:visible;display:inline;overflow:visible;enable-background:accumulate;font-family:Sans;-inkscape-font-specification:Sans" id="path10973" d="m -148.65625,-39.59375 -0.6875,0.71875 2.4375,2.40625 0,2.5625 0,0.21875 0.15625,0.125 0.78125,0.78125 -0.0312,4.308057 c 0,0.962454 -0.30794,1.505255 -0.9949,1.505255 -0.61105,0 -1.00515,-0.479735 -1.00515,-1.479636 l 0.004,-2.083676 c 0,-0.903868 -0.57343,-1.46875 -1.55441,-1.46875 l -1.01167,0 0,1 0.98042,0 c 0.32421,0 0.58566,0.252678 0.58566,0.46875 l 0,2.083676 c 0,1.66609 0.9908,2.463063 1.996,2.463063 1.28725,0 2,-0.805782 2.00042,-2.463063 l 0.0625,-7.271176 0,-0.21875 -0.15625,-0.15625 z" transform="translate(180,218)"/><rect style="color:#bebebe;fill:none;stroke:none;stroke-width:1;marker:none;visibility:visible;display:inline;overflow:visible" id="rect10954" width="16" height="16" x="-194" y="20" transform="matrix(0,-1,1,0,0,0)"/><path style="color:#000;fill:#bebebe;fill-opacity:1;fill-rule:nonzero;stroke:none;stroke-width:.5;marker:none;visibility:visible;display:inline;overflow:visible;enable-background:accumulate" id="rect10960" d="m -157,-39 c -1.108,0 -2,0.892001 -2,2 l 0,11 c -0.554,0 -1,0.446 -1,1 l 11,0 c 0,-0.554 -0.446,-1 -1,-1 l 0,-11 c 0,-1.107999 -0.892,-2 -2,-2 z m 0,1 5,0 c 0.554,0 1,0.446001 1,1 l 0,2 c 0,0.553999 -0.446,1 -1,1 l -5,0 c -0.554,0 -1,-0.446001 -1,-1 l 0,-2 c 0,-0.553999 0.446,-1 1,-1 z" transform="translate(180,218)"/></g><g id="g10992" transform="translate(81.0002,-0.999999)" style="display:inline"><rect id="rect10996" width="16" height="16" x="-194" y="20" transform="matrix(0,-1,1,0,0,0)" style="color:#bebebe;fill:none;stroke:none;stroke-width:1;marker:none;visibility:visible;display:inline;overflow:visible"/><path style="font-size:medium;font-style:normal;font-variant:normal;font-weight:400;font-stretch:normal;text-indent:0;text-align:start;text-decoration:none;line-height:normal;letter-spacing:normal;word-spacing:normal;text-transform:none;direction:ltr;block-progression:tb;writing-mode:lr-tb;text-anchor:start;baseline-shift:baseline;color:#000;fill:#bebebe;fill-opacity:1;stroke:none;stroke-width:1px;marker:none;visibility:visible;display:inline;overflow:visible;enable-background:accumulate;font-family:Sans;-inkscape-font-specification:Sans" id="path11000" d="m -128.875,-38.750001 -0.84375,2.1875 -1.84375,-0.75 -0.75,1.875 1.875,0.75 -2.18658,5.75 C -134.91991,-28.459122 -136.16794,-26.972558 -137,-26 l -1.53125,0 0,1.0625 13,0 0,-1.0625 -0.71875,0 c -0.41281,-0.98773 -1.91376,-2.606121 -4.21783,-3.000001 l 1.90533,-4.96875 2.25,0.90625 0.75,-1.84375 -2.28125,-0.90625 0.84375,-2.1875 z" transform="translate(160,218)"/></g><g style="display:inline" id="g11022" transform="translate(101.0002,-0.999999)"><rect style="color:#bebebe;fill:none;stroke:none;stroke-width:1;marker:none;visibility:visible;display:inline;overflow:visible" id="rect11024" width="16" height="16" x="-194" y="20" transform="matrix(0,-1,1,0,0,0)"/><rect style="color:#000;fill:#bebebe;fill-opacity:1;fill-rule:nonzero;stroke:none;stroke-width:0;marker:none;visibility:visible;display:inline;overflow:visible;enable-background:accumulate" id="rect11028" width="14" height="2" x="21" y="187" rx="0" ry="0"/><rect id="rect11030" width="14" height="4" x="21" y="182" rx="0" ry="0" style="color:#000;fill:#bebebe;fill-opacity:1;fill-rule:nonzero;stroke:none;stroke-width:0;marker:none;visibility:visible;display:inline;overflow:visible;enable-background:accumulate"/><rect style="color:#000;fill:#bebebe;fill-opacity:1;fill-rule:nonzero;stroke:none;stroke-width:0;marker:none;visibility:visible;display:inline;overflow:visible;enable-background:accumulate" id="rect11032" width="2" height="12" x="22" y="181" rx="0" ry="0"/><rect id="rect11034" width="2" height="12" x="32" y="181" rx="0" ry="0" style="color:#000;fill:#bebebe;fill-opacity:1;fill-rule:nonzero;stroke:none;stroke-width:0;marker:none;visibility:visible;display:inline;overflow:visible;enable-background:accumulate"/></g><g id="g11063" transform="translate(121.0002,-0.999999)" style="display:inline"><rect id="rect11065" width="16" height="16" x="-194" y="20" transform="matrix(0,-1,1,0,0,0)" style="color:#bebebe;fill:none;stroke:none;stroke-width:1;marker:none;visibility:visible;display:inline;overflow:visible"/><path style="color:#000;fill:#bebebe;fill-opacity:1;fill-rule:nonzero;stroke:none;stroke-width:0;marker:none;visibility:visible;display:inline;overflow:visible;enable-background:accumulate" id="rect11069" d="M -92 -39 C -94.209139 -39 -96 -37.209139 -96 -35 L -96 -25 L -88 -25 L -88 -35 C -88 -37.209139 -89.790861 -39 -92 -39 z M -95 -35 L -89 -35 L -89 -34 L -95 -34 L -95 -35 z M -95 -32 L -94.6875 -32 L -89.5 -32 L -89 -32 L -89 -31 L -89 -28 L -95 -28 L -95 -28.4375 L -95 -31 L -95 -31.3125 L -95 -32 z M -92.8125 -31 L -92 -30.5625 L -91.25 -31 L -92.8125 -31 z M -90 -30.53125 L -92 -29.4375 L -94 -30.46875 L -94 -29 L -90 -29 L -90 -30.53125 z" transform="translate(120,218)"/></g><g style="display:inline" id="g13293" transform="translate(141.0002,-20.999999)"><rect style="color:#bebebe;fill:none;stroke:none;stroke-width:1;marker:none;visibility:visible;display:inline;overflow:visible" id="rect13295" width="16" height="16" x="-194" y="20" transform="matrix(0,-1,1,0,0,0)"/><path style="color:#bebebe;fill:#bebebe;fill-opacity:1;fill-rule:nonzero;stroke:none;stroke-width:2;marker:none;visibility:visible;display:inline;overflow:visible;enable-background:accumulate" id="path21200" d="m 52,342.5 c 0,1.38071 -1.119288,2.5 -2.5,2.5 -1.380712,0 -2.5,-1.11929 -2.5,-2.5 0,-1.38071 1.119288,-2.5 2.5,-2.5 1.380712,0 2.5,1.11929 2.5,2.5 z" transform="matrix(1.1867402,0,0,1.1867402,-30.790645,-222.42537)"/><path id="path21202" d="m 29.986136,188 -4,0 0,-1 c -2.260624,0.0761 -3,1.98067 -3,3.46568 l 0,2.53432 10,0 0,-2.53432 c 0,-1.4951 -0.4752,-3.42163 -3,-3.46568 z" style="color:#bebebe;fill:#bebebe;fill-opacity:1;fill-rule:nonzero;stroke:none;stroke-width:2;marker:none;visibility:visible;display:inline;overflow:visible;enable-background:accumulate"/><path style="color:#bebebe;fill:#bebebe;fill-opacity:1;fill-rule:nonzero;stroke:none;stroke-width:2;marker:none;visibility:visible;display:inline;overflow:visible;enable-background:accumulate" id="path13308" d="m 28.01087,184.12289 -5.301296,-3.05661 5.253537,-3.0566 5.444575,3.0566 z"/><path style="color:#000;fill:none;stroke:#bebebe;stroke-width:1px;stroke-linecap:butt;stroke-linejoin:miter;stroke-miterlimit:4;stroke-opacity:1;stroke-dasharray:none;stroke-dashoffset:0;marker:none;visibility:visible;display:inline;overflow:visible;enable-background:accumulate" id="path13327" d="m 31.51386,180.46967 c 0,1.52954 0.501716,2.6305 1.486136,3.53033"/><path style="color:#bebebe;fill:#bebebe;fill-opacity:1;fill-rule:nonzero;stroke:none;stroke-width:2;marker:none;visibility:visible;display:inline;overflow:visible;enable-background:accumulate" id="path13329" d="m -66,-32 c 0,0.552285 -0.447715,1 -1,1 -0.552285,0 -1,-0.447715 -1,-1 0,-0.552285 0.447715,-1 1,-1 0.552285,0 1,0.447715 1,1 z" transform="translate(100,216)"/><path id="path13331" d="m 34.493442,186 c 0.0469,-0.5657 -0.493446,-1.35472 -0.931258,-1.53125" style="fill:none;stroke:#bebebe;stroke-width:1px;stroke-linecap:butt;stroke-linejoin:miter;stroke-opacity:1"/></g><g id="g13350" transform="translate(121.0002,-20.999999)" style="display:inline"><rect id="rect13352" width="16" height="16" x="-194" y="20" transform="matrix(0,-1,1,0,0,0)" style="color:#bebebe;fill:none;stroke:none;stroke-width:1;marker:none;visibility:visible;display:inline;overflow:visible"/><path style="color:#000;fill:#bebebe;fill-opacity:1;stroke:none;stroke-width:.9499824px;marker:none;visibility:visible;display:inline;overflow:visible;enable-background:accumulate" id="path13375" d="M 23.031251,186.41984 C 23.02165,186.51337 23,186.59966 23,186.69524 23,188.5204 24.790861,190 26.999999,190 29.209139,190 31,188.5204 31,186.69524 c 0,-0.0722 -0.02574,-0.13556 -0.03125,-0.20655 L 27,189 z"/><path style="color:#bebebe;fill:#bebebe;fill-opacity:1;fill-rule:nonzero;stroke:none;stroke-width:2;marker:none;visibility:visible;display:inline;overflow:visible;enable-background:accumulate" id="path13358" d="m -73,-38 -6.53125,3.5 6.53125,4.03125 2.8125,-1.78125 c -0.07568,-0.757542 -1.030505,-1.530531 -2.09375,-1.90625 C -72.462214,-34.065768 -72.723858,-34 -73,-34 c -0.552285,0 -1,-0.223858 -1,-0.5 0,-0.276142 0.447715,-0.5 1,-0.5 0.552285,0 1,0.223858 1,0.5 0,0.08149 -0.05585,0.150779 -0.125,0.21875 1.19957,0.141511 2.333958,0.541901 2.90625,1.5 0.356194,0.59632 0.605792,1.23179 1.0625,1.75 -0.394784,1.02689 0.71238,1.88783 1.59375,1.40625 l 0,0.03125 c 0.786673,0.6015 0.754699,1.62461 0.21875,2.5 l 2.34375,0 c -0.231599,-1.36741 -0.593139,-2.78463 -1.84375,-3.46875 0.08584,-0.98413 -0.57538,-1.45188 -1.40625,-1.3125 -0.361849,-0.31821 -0.589817,-1.12349 -0.875,-1.5 l 1.75,-1.09375 L -73,-38 z" transform="translate(100,218)"/></g><g style="display:inline" id="g13431" transform="translate(141.0002,-0.999999)"><rect style="color:#bebebe;fill:none;stroke:none;stroke-width:1;marker:none;visibility:visible;display:inline;overflow:visible" id="rect13433" width="16" height="16" x="-194" y="20" transform="matrix(0,-1,1,0,0,0)"/><path id="path13435" d="M 23.031251,187.41984 C 23.02165,187.51337 23,187.59966 23,187.69524 23,189.5204 24.790861,191 26.999999,191 29.209139,191 31,189.5204 31,187.69524 c 0,-0.0722 -0.02574,-0.13556 -0.03125,-0.20655 L 27,190 z" style="color:#000;fill:#bebebe;fill-opacity:1;stroke:none;stroke-width:.9499824px;marker:none;visibility:visible;display:inline;overflow:visible;enable-background:accumulate"/><path style="fill:#bebebe;fill-opacity:1;stroke:none" id="path13439" d="m 26.96875,180.96875 -6.46875,3.5 6.5,4.09375 6.625,-4.03125 -6.65625,-3.5625 z M 27,184 c 0.552285,0 1,0.22386 1,0.5 0,0.27614 -0.447715,0.5 -1,0.5 -0.552285,0 -1,-0.22386 -1,-0.5 0,-0.27614 0.447715,-0.5 1,-0.5 z"/><path style="fill:none;stroke:#bebebe;stroke-width:1px;stroke-linecap:butt;stroke-linejoin:miter;stroke-opacity:1" id="path13444" d="m 34.767723,190.67481 c 0,0 -1.218485,-0.67481 -1.262675,-1.67481 l 0,-4.46967 -5.123843,0"/><path style="color:#000;fill:#bebebe;fill-opacity:1;fill-rule:nonzero;stroke:none;stroke-width:1px;marker:none;visibility:visible;display:inline;overflow:visible;enable-background:accumulate" id="path13446" d="m -45,-31.5 a 1.5,1.5 0 1 1 -3,0 1.5,1.5 0 1 1 3,0 z" transform="matrix(0.66854633,0,0,0.66854633,65.090224,209.06203)"/></g></g><g id="layer1"><g id="g10010"><g id="layer1-7" transform="matrix(0.96761344,0,0,0.96761344,160.37714,-39.95526)"><path style="color:#000;fill:#bebebe;fill-opacity:1;fill-rule:nonzero;stroke:none;stroke-width:2;marker:none;visibility:visible;display:inline;overflow:visible;enable-background:accumulate" id="rect7046" d="M 5.7191343,5.0308108 3.96875,7.03125 2.9333162,9.9135717 c -0.2635754,0.5111483 0.016909,1.2243873 0.5625,1.4062503 0.545591,0.181864 1.2166716,-0.214187 1.3125,-0.78125 L 5.71875,8.0625 6,7.75 6,13.25 4.375,15 5.875,16.375 8,14.03125 8,11.90625 10.09375,16 11.875,15.09375 9,9.40625 9,7.65625 11.34375,9.75 c 0.383224,0.3968 1.108768,0.37896 1.472028,-0.03619 C 13.179038,9.298651 13.100409,8.5771604 12.65625,8.25 L 9,5 z"/><path style="color:#000;fill:#bebebe;fill-opacity:1;fill-rule:nonzero;stroke:none;stroke-width:1;marker:none;visibility:visible;display:inline;overflow:visible;enable-background:accumulate" id="path6214" d="m 11.623068,5.4265437 c 0,1.3607331 -1.103092,2.4638252 -2.4638254,2.4638252 -1.3607331,0 -2.4638252,-1.1030921 -2.4638252,-2.4638252 0,-1.3607331 1.1030921,-2.4638252 2.4638252,-2.4638252 1.3607334,0 2.4638254,1.1030921 2.4638254,2.4638252 z" transform="matrix(0.81174588,0,0,0.8117459,0.5650225,-2.4049746)"/></g><rect id="rect2941-5" width="16" height="16" x="24" y="160" transform="matrix(0,-1,1,0,0,0)" style="color:#bebebe;fill:none;stroke:none;stroke-width:1;marker:none;visibility:visible;display:inline;overflow:visible"/></g><g id="g10793" transform="translate(20,0)"><rect style="color:#bebebe;fill:none;stroke:none;stroke-width:1;marker:none;visibility:visible;display:inline;overflow:visible" id="rect10801" width="16" height="16" x="24" y="160" transform="matrix(0,-1,1,0,0,0)"/><g id="layer1-2" transform="translate(160.0125,-40)"><path id="rect6086-1" d="m 0.94203714,0.01250085 c -0.519375,0 -0.9375,0.418125 -0.9375,0.9375 l 0,13.08335815 0,0.872891 c 0,0.605937 0.487812,1.09375 1.09374996,1.09375 l 0.8125,0 c 0.605938,0 1.09375,-0.487813 1.09375,-1.09375 l 0,-0.90625 9.9829619,0 0,0.90625 c 0,0.605937 0.487812,1.09375 1.09375,1.09375 l 0.8125,0 c 0.605938,0 1.09375,-0.487813 1.09375,-1.09375 l 0,-13.95624915 c 0,-0.519375 -0.418125,-0.9375 -0.9375,-0.9375 z m 1.17834706,0.99766735 11.7954618,0 c 0.605938,0 1.09375,0.4878125 1.09375,1.09375 l 0,5.8023318 C 15.009596,8.5121875 14.521784,9 13.915846,9 L 2.1203842,9 c -0.605938,0 -1.09375,-0.4878125 -1.09375,-1.09375 l 0,-5.8023318 c 0,-0.6059375 0.487812,-1.09375 1.09375,-1.09375 z M 2.5063769,10 c 0.828427,0 1.5,0.671573 1.5,1.5 0,0.828427 -0.671573,1.5 -1.5,1.5 -0.828427,0 -1.5,-0.671573 -1.5,-1.5 0,-0.828427 0.671573,-1.5 1.5,-1.5 z m 11.0288381,0 c 0.828427,0 1.5,0.671573 1.5,1.5 0,0.828427 -0.671573,1.5 -1.5,1.5 -0.828427,0 -1.5,-0.671573 -1.5,-1.5 0,-0.828427 0.671573,-1.5 1.5,-1.5 z" style="color:#000;fill:#bebebe;fill-opacity:1;fill-rule:nonzero;stroke:none;stroke-width:1.93522692000000007;marker:none;visibility:visible;display:inline;overflow:visible;enable-background:accumulate"/></g></g><g id="g10853" transform="translate(40,0)"><rect id="rect10855" width="16" height="16" x="24" y="160" transform="matrix(0,-1,1,0,0,0)" style="color:#bebebe;fill:none;stroke:none;stroke-width:1;marker:none;visibility:visible;display:inline;overflow:visible"/><g id="layer1-85" transform="matrix(0.99723786,0,0,0.99723786,160,-40.973717)"><path id="rect8273" d="M 3.03125,3.03125 C 2.46812,3.03125 2.09307,3.50712 2,4.0625 L 1.15625,8 1.03125,8 C 0.46812,8 0,8.46813 0,9.03125 l 0,3.9375 C 0,13.53187 0.46812,14 1.03125,14 L 2,14 2,15 c 0,0.554 0.446,1 1,1 0.554,0 1,-0.446 1,-1 l 0,-1 8,0 0,1 c 0,0.554 0.446,1 1,1 0.554,0 1,-0.446 1,-1 l 0,-1 0.96875,0 C 15.53187,14 16,13.53187 16,12.96875 l 0,-3.9375 C 16,8.46813 15.53187,8 14.96875,8 L 14.8125,8 13.9375,4.0625 C 13.8416,3.5076 13.46937,3.03125 12.90625,3.03125 z m 0.97476,1 7.94757,0 c 0.48425,0 0.79253,0.33383 0.875,0.75 l 0.46875,2.43019 c 0.0825,0.41617 -0.39075,0.75 -0.875,0.75 l -0.125,0 -8.63507,0 -0.15625,0 c -0.48426,0 -0.95504,-0.33347 -0.875,-0.75 l 0.5,-2.43019 c 0.08,-0.41653 0.39074,-0.75 0.875,-0.75 z M 3,10 c 0.55228,0 1,0.44771 1,1 0,0.55228 -0.44772,1 -1,1 -0.55229,0 -1,-0.44772 -1,-1 0,-0.55229 0.44771,-1 1,-1 z m 10,0 c 0.55228,0 1,0.44771 1,1 0,0.55228 -0.44772,1 -1,1 -0.55229,0 -1,-0.44772 -1,-1 0,-0.55229 0.44771,-1 1,-1 z" style="color:#000;fill:#bebebe;fill-opacity:1;fill-rule:nonzero;stroke:none;stroke-width:1.94058709;marker:none;visibility:visible;display:inline;overflow:visible;enable-background:accumulate"/></g></g></g><text style="font-size:40px;font-style:normal;font-variant:normal;font-weight:400;font-stretch:normal;text-align:start;line-height:125%;letter-spacing:0;word-spacing:0;writing-mode:lr-tb;text-anchor:start;fill:#eeeeec;fill-opacity:1;stroke:none;font-family:Cantarell;-inkscape-font-specification:Cantarell" id="text4574" x="-199" y="-128" xml:space="preserve"><tspan id="tspan4576" x="-199" y="-128">Maps</tspan></text></svg>