<svg xmlns="http://www.w3.org/2000/svg" xmlns:svg="http://www.w3.org/2000/svg" id="svg6558" width="16" height="16" version="1.1"><metadata id="metadata6563"/><g id="layer1"><path style="color:#000;fill:none;stroke:#000;stroke-width:1.26138616;stroke-linecap:round;stroke-linejoin:round;stroke-miterlimit:4;stroke-opacity:1;stroke-dasharray:none;stroke-dashoffset:0;marker:none;visibility:visible;display:inline;overflow:visible;enable-background:accumulate" id="path6026" d="m 7.3430691,11.382425 a 3.1534653,3.1534653 0 1 1 -6.3069306,0 3.1534653,3.1534653 0 1 1 6.3069306,0 z" transform="matrix(0.79277867,0,0,0.79277867,-0.321429,2.976256)"/><path style="color:#000;fill:none;stroke:#000;stroke-width:1.26138616;stroke-linecap:round;stroke-linejoin:round;stroke-miterlimit:4;stroke-opacity:1;stroke-dasharray:none;stroke-dashoffset:0;marker:none;visibility:visible;display:inline;overflow:visible;enable-background:accumulate" id="path6026-6" d="m 7.3430691,11.382425 a 3.1534653,3.1534653 0 1 1 -6.3069306,0 3.1534653,3.1534653 0 1 1 6.3069306,0 z" transform="matrix(0.79277867,0,0,0.79277867,9.678571,2.976256)"/><path style="color:#000;fill:#000;fill-opacity:1;fill-rule:nonzero;stroke:none;stroke-width:1;marker:none;visibility:visible;display:inline;overflow:visible;enable-background:accumulate" id="path6046" d="m 11.104703,4.5686879 a 1.0924505,1.0924505 0 1 1 -2.1849007,0 1.0924505,1.0924505 0 1 1 2.1849007,0 z" transform="matrix(1.3730599,0,0,1.3730599,-4.247423,-3.7730821)"/><path style="opacity:.5;color:#000;fill:none;stroke:#838383;stroke-width:1.26138616;stroke-linecap:round;stroke-linejoin:round;stroke-miterlimit:4;stroke-opacity:1;stroke-dasharray:none;stroke-dashoffset:0;marker:none;visibility:visible;display:inline;overflow:visible;enable-background:accumulate" id="path6026-2" d="m 7.3430691,11.382425 a 3.1534653,3.1534653 0 1 1 -6.3069306,0 3.1534653,3.1534653 0 1 1 6.3069306,0 z" transform="matrix(0.79277867,0,0,0.79277867,40.678571,2.9762561)"/><path style="opacity:.5;color:#000;fill:none;stroke:#838383;stroke-width:1.26138616;stroke-linecap:round;stroke-linejoin:round;stroke-miterlimit:4;stroke-opacity:1;stroke-dasharray:none;stroke-dashoffset:0;marker:none;visibility:visible;display:inline;overflow:visible;enable-background:accumulate" id="path6026-6-1" d="m 7.3430691,11.382425 a 3.1534653,3.1534653 0 1 1 -6.3069306,0 3.1534653,3.1534653 0 1 1 6.3069306,0 z" transform="matrix(0.79277867,0,0,0.79277867,49.678571,2.9762561)"/><path style="opacity:.5;color:#000;fill:#a4a4a4;fill-opacity:1;fill-rule:nonzero;stroke:none;stroke-width:1;marker:none;visibility:visible;display:inline;overflow:visible;enable-background:accumulate" id="path6046-9" d="m 11.104703,4.5686879 a 1.0924505,1.0924505 0 1 1 -2.1849007,0 1.0924505,1.0924505 0 1 1 2.1849007,0 z" transform="matrix(1.3730599,0,0,1.3730599,36.752577,-1.7730822)"/><path style="fill:none;stroke:#c1c1c1;stroke-width:1px;stroke-linecap:butt;stroke-linejoin:miter;stroke-opacity:1" id="path6818-9" d="M 53.041832,6.2918317 49.888366,8.4316832 47.757068,5.3614742 43.528402,8.3903411"/><path style="fill:none;stroke:#000;stroke-width:2;stroke-linecap:butt;stroke-linejoin:miter;stroke-miterlimit:4;stroke-opacity:1;stroke-dasharray:none" id="path6847" d="m 8,13.03125 0,-4 L 5.352013,7.5024342 7.708474,3.8227505"/><path style="fill:none;stroke:#000;stroke-width:2;stroke-linecap:butt;stroke-linejoin:miter;stroke-miterlimit:4;stroke-opacity:1;stroke-dasharray:none" id="path6851" d="m 7.240893,4.7101359 c 0,0 1.138752,1.6105639 1.964764,1.8561554 0.826012,0.2455915 2.824673,0.3093592 2.824673,0.3093592"/><path style="color:#000;fill:none;stroke:#000;stroke-width:1.26138616;stroke-linecap:round;stroke-linejoin:round;stroke-miterlimit:4;stroke-opacity:1;stroke-dasharray:none;stroke-dashoffset:0;marker:none;visibility:visible;display:inline;overflow:visible;enable-background:accumulate" id="path6026-63" d="m 7.3430691,11.382425 a 3.1534653,3.1534653 0 1 1 -6.3069306,0 3.1534653,3.1534653 0 1 1 6.3069306,0 z" transform="matrix(0.79277867,0,0,0.79277867,-40.321429,2.9762559)"/><path style="color:#000;fill:none;stroke:#000;stroke-width:1.26138616;stroke-linecap:round;stroke-linejoin:round;stroke-miterlimit:4;stroke-opacity:1;stroke-dasharray:none;stroke-dashoffset:0;marker:none;visibility:visible;display:inline;overflow:visible;enable-background:accumulate" id="path6026-6-0" d="m 7.3430691,11.382425 a 3.1534653,3.1534653 0 1 1 -6.3069306,0 3.1534653,3.1534653 0 1 1 6.3069306,0 z" transform="matrix(0.79277867,0,0,0.79277867,-30.321429,2.9762559)"/><path style="color:#000;fill:#000;fill-opacity:1;fill-rule:nonzero;stroke:none;stroke-width:1;marker:none;visibility:visible;display:inline;overflow:visible;enable-background:accumulate" id="path6046-0" d="m 11.104703,4.5686879 a 1.0924505,1.0924505 0 1 1 -2.1849007,0 1.0924505,1.0924505 0 1 1 2.1849007,0 z" transform="matrix(1.3730599,0,0,1.3730599,-44.247423,-3.7730822)"/><path style="fill:none;stroke:#000;stroke-width:2;stroke-linecap:butt;stroke-linejoin:miter;stroke-miterlimit:4;stroke-opacity:1;stroke-dasharray:none" id="path6847-6" d="m -32,13.03125 0,-4.0000001 -2.647987,-1.5288158 2.356461,-3.6796837"/><path style="fill:none;stroke:#000;stroke-width:2;stroke-linecap:butt;stroke-linejoin:miter;stroke-miterlimit:4;stroke-opacity:1;stroke-dasharray:none" id="path6851-2" d="m -32.73701,4.75433 1.412337,1.7456699 2.824673,0"/></g></svg>