<svg xmlns="http://www.w3.org/2000/svg" xmlns:svg="http://www.w3.org/2000/svg" id="svg6921" width="16" height="16" version="1.1"><metadata id="metadata6926"/><g id="layer1"><g id="g6904" transform="translate(-161.0007,-176.97847)" style="display:inline"><path id="rect3087-5" d="M -77.84375,-40 C -79.03812,-40 -80,-39.03812 -80,-37.84375 l 0,11.6875 c 0,1.19437 0.96188,2.15625 2.15625,2.15625 l 11.6875,0 C -64.96188,-24 -64,-24.96188 -64,-26.15625 l 0,-11.6875 C -64,-39.03812 -64.96188,-40 -66.15625,-40 l -11.6875,0 z m 2.34375,5 c 1.380711,0 2.5,1.119289 2.5,2.5 0,1.380711 -1.119289,2.5 -2.5,2.5 -1.380711,0 -2.5,-1.119289 -2.5,-2.5 0,-1.380711 1.119289,-2.5 2.5,-2.5 z m 7,0 c 1.380711,0 2.5,1.119289 2.5,2.5 0,1.380711 -1.119289,2.5 -2.5,2.5 -1.380711,0 -2.5,-1.119289 -2.5,-2.5 0,-1.380711 1.119289,-2.5 2.5,-2.5 z" transform="translate(241.0002,217)" style="color:#000;fill:#babdb6;fill-opacity:1;fill-rule:nonzero;stroke:none;stroke-width:2;marker:none;visibility:visible;display:inline;overflow:visible;enable-background:accumulate"/><path id="path6134" d="m -72.75,-32.234375 a 2.5625,2.359375 0 1 1 -5.125,0 2.5625,2.359375 0 1 1 5.125,0 z" transform="matrix(0.97560976,0,0,1.0596026,238.97581,218.65563)" style="opacity:.5;color:#000;fill:#babdb6;fill-opacity:1;fill-rule:nonzero;stroke:none;stroke-width:4;marker:none;visibility:visible;display:inline;overflow:visible;enable-background:accumulate"/></g></g></svg>