<svg xmlns="http://www.w3.org/2000/svg" xmlns:svg="http://www.w3.org/2000/svg" id="svg7384" width="16" height="16" version="1.1"><metadata id="metadata90"/><title id="title9167">Gnome Symbolic Icon Theme</title><g id="layer9" transform="translate(-41.0002,-177)" style="display:inline"><path id="rect14063" d="m 43.116932,177 c -1.170638,0 -2.116732,0.94979 -2.116732,2.125 l 0,11.75 c 0,1.17521 0.946094,2.125 2.116732,2.125 l 6.910506,0 0,-6 -0.99611,0 0,-2 0.99611,0 0,-1.0625 c 0,-1.84445 1.374066,-2.88912 3.175096,-2.9375 l 1.77432,0 0,2 -1.089494,0 c -0.625856,0 -0.902724,0.22291 -0.902724,0.90625 l 0,1.09375 1.712062,0 -0.217898,2 -1.494164,0 0,6 1.898832,0 c 1.170638,0 2.116732,-0.94979 2.116732,-2.125 l 0,-11.75 c 0,-1.17521 -0.946094,-2.125 -2.116732,-2.125 z" style="color:#000;fill:#babdb6;fill-opacity:1;fill-rule:nonzero;stroke:none;stroke-width:.5;marker:none;visibility:visible;display:inline;overflow:visible;enable-background:new"/></g></svg>