<svg xmlns="http://www.w3.org/2000/svg" xmlns:svg="http://www.w3.org/2000/svg" id="svg7384" width="16" height="16" version="1.1"><metadata id="metadata90"/><title id="title9167">Gnome Symbolic Icon Theme</title><g id="layer9" transform="translate(-81.0002,-177)" style="display:inline"><path id="path14652" d="m 83.1252,177 c -1.17064,0 -2.125,0.94979 -2.125,2.125 l 0,11.75 c 0,1.17521 0.95436,2.125 2.125,2.125 l 11.75,0 c 1.17064,0 2.125,-0.94979 2.125,-2.125 l 0,-11.75 c 0,-1.17521 -0.95436,-2.125 -2.125,-2.125 z m 0.59375,4 c 0.44271,-0.004 1.10825,0.016 1.9375,0.0312 1.15235,-0.0304 2.08497,-0.0291 2.84375,0.0312 l -0.0625,0.40625 -1.6875,0.1875 c 0.53394,0.8555 1.34138,2.06438 2.4375,3.5625 1.43347,-1.19274 2.19079,-2.08702 2.21875,-2.42298 l -1.46875,-0.25 -0.0937,-0.53125 2.4375,0 2.3125,0.0312 -0.34375,0.5 -1.3125,0.3125 c -0.1966,0.0606 -0.76003,0.59674 -1.6875,1.42298 -0.98382,0.85568 -1.12477,1.39022 -1.20895,1.6654 l -0.0625,0.78125 -0.0312,0.4375 0.125,1.15625 1.39645,0.0533 -0.0754,0.66004 -2.84375,0 -2.53125,0.0312 0.13794,-0.62879 0.8125,-0.0312 c 0.42182,-0.0304 0.66599,-0.0641 0.75,-0.15625 0.0564,-0.0606 0.0937,-0.45185 0.0937,-1.09375 l 0,-0.375 -0.0312,-0.8125 c -0.0564,-0.18307 -0.50387,-0.8382 -1.375,-2 -0.89951,-1.19219 -1.49997,-1.91143 -1.78125,-2.15625 l -1.625,-0.25 0,-0.5 c 0.0422,-0.0302 0.27604,-0.0588 0.71875,-0.0625 z m 10.57414,2.64082 -0.22882,3.49647 -1.05779,-0.12343 0.009,-2.90874 z m -0.74556,4.14736 c 0.37349,0 0.65625,0.31253 0.65625,0.71875 0,0.40622 -0.28276,0.75 -0.65625,0.75 -0.37349,0 -0.6875,-0.34378 -0.6875,-0.75 0,-0.40622 0.31401,-0.71875 0.6875,-0.71875 z" style="color:#000;fill:#babdb6;fill-opacity:1;fill-rule:nonzero;stroke:none;stroke-width:.5;marker:none;visibility:visible;display:inline;overflow:visible;enable-background:new"/></g></svg>