<svg xmlns="http://www.w3.org/2000/svg" xmlns:svg="http://www.w3.org/2000/svg" id="svg7384" width="16" height="16.003" version="1.1"><metadata id="metadata90"/><title id="title9167">Gnome Symbolic Icon Theme</title><g id="layer9" transform="translate(-101.0002,-176.99706)" style="display:inline"><path id="path14750" d="M 106.03145,177.00781 104.2502,177 c -1.25558,0.65413 -1.44341,2.28631 -1.03125,3.78125 0.54477,1.97578 1.6335,3.36168 3.09375,2.90625 2.03691,-0.63544 2.09652,-2.29893 1.46875,-4.25 -0.33202,-1.03192 -0.94785,-1.86336 -1.75,-2.42969 z m 4.96875,3.08594 c 0,0.87973 -0.35797,1.63064 -0.75,2.21875 l 0,0.0312 -0.0937,0.0625 c 0,0 -0.25477,0.29919 -0.5625,0.59375 -0.30732,0.29461 -0.78125,0.6875 -0.78125,0.6875 -0.38566,0.28984 -0.59375,0.67301 -0.59375,1.09375 0,0.42217 0.26827,0.80375 0.65625,1.09375 0,0 0.78679,0.48207 1.21875,0.84375 0.43176,0.3619 0.9375,0.84375 0.9375,0.84375 0.58482,0.54987 0.96875,1.42615 0.96875,2.40625 0,0.8441 -0.26766,1.60954 -0.71875,2.15625 l -0.6875,0.875 4.28125,0 c 1.17064,0 2.125,-0.94979 2.125,-2.125 l 0,-11.75 c 0,-1.17521 -0.95436,-2.125 -2.125,-2.125 -0.57387,-0.007 -1.8215,0.002 -1.8215,0.002 l -0.0155,0.98565 -2.56598,0.28779 c 0.37545,0.65205 0.5183,1.30287 0.52798,1.81861 z m -10,2.4375 0,5.625 c 1.73643,-1.16262 4.84375,-1.1875 4.84375,-1.1875 0,0 0.0135,-0.0187 0,-0.0312 -1.24578,-0.95762 -0.71875,-2.0625 -0.71875,-2.0625 -1.92621,0.1641 -2.8067,-0.55487 -4.125,-2.34375 z m 5.0625,5.53125 c -1.73056,0.0974 -3.95733,0.81369 -4,2.53125 0,1.02737 0.66882,1.9586 1.625,2.375 0,0 0.0344,0.0221 0.0625,0.0312 l 0.0312,0 4.53125,0 c 0,0 0.0106,-0.0447 0.0312,-0.0625 2.45123,-2.16941 0.60019,-3.4272 -1.5,-4.84375 -0.0379,-0.0252 -0.0937,-0.0312 -0.0937,-0.0312 -0.21899,-0.0104 -0.44028,-0.0139 -0.6875,0 z" style="color:#000;fill:#babdb6;fill-opacity:1;fill-rule:nonzero;stroke:none;stroke-width:.5;marker:none;visibility:visible;display:inline;overflow:visible;enable-background:new"/></g></svg>