<svg xmlns="http://www.w3.org/2000/svg" xmlns:svg="http://www.w3.org/2000/svg" id="svg6880" width="16" height="16" version="1.1"><metadata id="metadata6885"/><g id="layer1"><g id="g6921" transform="translate(-7,-10.418751)"><rect style="color:#bebebe;fill:#555753;stroke:none;stroke-width:1;marker:none;visibility:visible;display:inline;overflow:visible" id="rect3704-3-7" width="16" height="16" x="10.419" y="-23" transform="matrix(0,1,-1,0,0,0)"/><rect id="rect6812" width="2" height="5" x="17" y="17.419" rx="1" ry="1" style="color:#000;fill:#d3d7cf;fill-opacity:1;fill-rule:nonzero;stroke:none;stroke-width:1.70000005;marker:none;visibility:visible;display:inline;overflow:visible;enable-background:accumulate"/><rect style="color:#000;fill:#d3d7cf;fill-opacity:1;fill-rule:nonzero;stroke:none;stroke-width:1;marker:none;visibility:visible;display:inline;overflow:visible;enable-background:accumulate" id="rect6697" width="7.497" height="1" x="13" y="13.419" rx=".29" ry=".29"/><rect style="color:#000;fill:#d3d7cf;fill-opacity:1;fill-rule:nonzero;stroke:none;stroke-width:1;marker:none;visibility:visible;display:inline;overflow:visible;enable-background:accumulate" id="rect6697-4" width="7.63" height="1" x="13" y="11.419" rx=".29" ry=".29"/><path style="color:#000;fill:#555753;fill-opacity:1;fill-rule:nonzero;stroke:none;stroke-width:2.06060648;marker:none;visibility:visible;display:inline;overflow:visible;enable-background:accumulate" id="path5663-8-6-5" d="m -271,11 a 2,2 0 1 1 -4,0 2,2 0 1 1 4,0 z" transform="matrix(1.6687498,0,0,1.6687498,467.0687,-5.4374991)"/><path style="fill:#d3d7cf;fill-opacity:1;stroke:none;display:inline" id="path6508" d="m 9,20.418751 1.25,-7 2.5,0 1.25,7 z"/><path style="color:#000;fill:#d3d7cf;fill-opacity:1;fill-rule:nonzero;stroke:none;stroke-width:1.89999998;marker:none;visibility:visible;display:inline;overflow:visible;enable-background:accumulate" id="rect6433" d="m 8,24.418751 7,0 c 0.554,0 1,0.446 1,1 l 0,1 -9,0 0,-1 c 0,-0.554 0.446,-1 1,-1 z"/><path style="color:#000;fill:#555753;fill-opacity:1;fill-rule:nonzero;stroke:#d3d7cf;stroke-width:1.49019611;stroke-linecap:butt;stroke-linejoin:round;stroke-miterlimit:4;stroke-opacity:1;stroke-dasharray:none;stroke-dashoffset:0;marker:none;visibility:visible;display:inline;overflow:visible;enable-background:accumulate" id="path5663-8" d="m -271,11 a 2,2 0 1 1 -4,0 2,2 0 1 1 4,0 z" transform="matrix(1.275,0,0,1.275,359.575,5.8937507)"/><path style="color:#000;fill:#555753;fill-opacity:1;fill-rule:nonzero;stroke:#555753;stroke-width:1.00282216;stroke-linecap:butt;stroke-linejoin:round;stroke-miterlimit:4;stroke-opacity:1;stroke-dasharray:none;stroke-dashoffset:0;marker:none;visibility:visible;display:inline;overflow:visible;enable-background:accumulate" id="path5663-8-93-6-8" d="m -271,11 a 2,2 0 1 1 -4,0 2,2 0 1 1 4,0 z" transform="matrix(0.99718664,0,0,0.99718493,291.73758,1.9445107)"/><path style="color:#000;fill:#d3d7cf;fill-opacity:1;fill-rule:nonzero;stroke:none;stroke-width:1;marker:none;visibility:visible;display:inline;overflow:visible;enable-background:accumulate" id="path6608" d="m -268,2.5 a 1.5,1.5 0 1 1 -3,0 1.5,1.5 0 1 1 3,0 z" transform="matrix(1.3297413,0,0,1.3297413,378.35989,9.5577007)"/><rect id="rect6812-2" width="2" height="5" x="21" y="17.419" rx="1" ry="1" style="color:#000;fill:#d3d7cf;fill-opacity:1;fill-rule:nonzero;stroke:none;stroke-width:1.70000005;marker:none;visibility:visible;display:inline;overflow:visible;enable-background:accumulate"/><path style="color:#000;fill:#555753;fill-opacity:1;fill-rule:nonzero;stroke:#d3d7cf;stroke-width:2.06060648;stroke-linecap:butt;stroke-linejoin:round;stroke-miterlimit:4;stroke-opacity:1;stroke-dasharray:none;stroke-dashoffset:0;marker:none;visibility:visible;display:inline;overflow:visible;enable-background:accumulate" id="path5663-8-6" d="m -271,11 a 2,2 0 1 1 -4,0 2,2 0 1 1 4,0 z" transform="matrix(0.82499982,0,0,0.82499982,236.72495,3.8437507)"/><rect id="rect6832" width="2" height="1" x="19" y="15.419" rx="0" ry="0" style="color:#000;fill:#d3d7cf;fill-opacity:1;fill-rule:nonzero;stroke:none;stroke-width:1.70000005;marker:none;visibility:visible;display:inline;overflow:visible;enable-background:accumulate"/><rect style="color:#000;fill:#d3d7cf;fill-opacity:1;fill-rule:nonzero;stroke:none;stroke-width:1;marker:none;visibility:visible;display:inline;overflow:visible;enable-background:accumulate" id="rect6655" width="4" height="2" x="18" y="17.419" rx="0" ry="0"/></g></g></svg>