<svg xmlns="http://www.w3.org/2000/svg" xmlns:svg="http://www.w3.org/2000/svg" id="svg7384" width="16" height="16" version="1.1"><metadata id="metadata90"/><title id="title9167">Gnome Symbolic Icon Theme</title><defs id="defs7386"><filter id="filter12578-8" color-interpolation-filters="sRGB"><feGaussianBlur id="feGaussianBlur12580-4" stdDeviation=".015"/></filter><filter id="filter12586-1" color-interpolation-filters="sRGB"><feGaussianBlur id="feGaussianBlur12588-8" stdDeviation=".02"/></filter></defs><g id="layer1" transform="translate(80.000002,-402)"><rect id="rect17233" width="1" height="1" x="-77" y="412" style="fill:#bebebe;fill-opacity:1;stroke:none"/><rect id="rect17235" width="1" height="1" x="-69" y="414" style="fill:#bebebe;fill-opacity:1;stroke:none"/><rect id="rect17237" width="1" height="1" x="-71" y="414" style="fill:#bebebe;fill-opacity:1;stroke:none"/><rect id="rect17239" width="1" height="1" x="-73" y="414" style="fill:#bebebe;fill-opacity:1;stroke:none"/><rect id="rect17243" width="1" height="1" x="-75" y="414" style="fill:#bebebe;fill-opacity:1;stroke:none"/><rect id="rect17245" width="1" height="1" x="-77" y="414" style="fill:#bebebe;fill-opacity:1;stroke:none"/><rect id="rect17247" width="1" height="1" x="-77" y="410" style="fill:#bebebe;fill-opacity:1;stroke:none"/><rect id="rect17249" width="1" height="1" x="-67" y="414" style="fill:#bebebe;fill-opacity:1;stroke:none"/><rect id="rect17251" width="1" height="1" x="-67" y="410" style="fill:#bebebe;fill-opacity:1;stroke:none"/><rect id="rect17253" width="1" height="1" x="-67" y="412" style="fill:#bebebe;fill-opacity:1;stroke:none"/><rect id="rect17255" width="1" height="1" x="-67" y="408" style="fill:#bebebe;fill-opacity:1;stroke:none"/><rect id="rect17257" width="1" height="1" x="-77" y="408" style="fill:#bebebe;fill-opacity:1;stroke:none"/><rect id="rect17259" width="1" height="1" x="-77" y="406" style="fill:#bebebe;fill-opacity:1;stroke:none"/><rect id="rect17261" width="1" height="1" x="-67" y="406" style="fill:#bebebe;fill-opacity:1;stroke:none"/><rect id="rect17263" width="1" height="1" x="-69" y="406" style="fill:#bebebe;fill-opacity:1;stroke:none"/><rect id="rect17265" width="1" height="1" x="-71" y="406" style="fill:#bebebe;fill-opacity:1;stroke:none"/><rect id="rect17267" width="1" height="1" x="-73" y="406" style="fill:#bebebe;fill-opacity:1;stroke:none"/><rect id="rect17269" width="1" height="1" x="-75" y="406" style="fill:#bebebe;fill-opacity:1;stroke:none"/><rect id="rect17271" width="13" height="11" x="-78" y="405" style="opacity:.3;fill:#bebebe;fill-opacity:1;stroke:none"/></g></svg>