<svg xmlns="http://www.w3.org/2000/svg" xmlns:svg="http://www.w3.org/2000/svg" id="svg7384" width="16" height="16" version="1.1"><metadata id="metadata90"/><title id="title9167">Gnome Symbolic Icon Theme</title><defs id="defs7386"><filter id="filter12578-8" color-interpolation-filters="sRGB"><feGaussianBlur id="feGaussianBlur12580-4" stdDeviation=".015"/></filter><filter id="filter12586-1" color-interpolation-filters="sRGB"><feGaussianBlur id="feGaussianBlur12588-8" stdDeviation=".02"/></filter></defs><g id="layer1" transform="translate(180,-262)"><path id="path30301" d="m -168,267 -1.16666,0 -5.83334,5.83334 0,1.16666 1.16667,0 5.83333,-5.83335 z" style="fill:#bebebe;fill-opacity:1;stroke:none"/><path id="path30303" d="m -175,267 1.16667,0 5.83333,5.83334 0,1.16666 -1.16666,0 L -175,268.16665 z" style="fill:#bebebe;fill-opacity:1;stroke:none"/><rect id="rect30311" width="1" height="1" x="-178" y="264" style="fill:#bebebe;fill-opacity:1;stroke:none"/><rect id="rect30313" width="1" height="1" x="-176" y="264" style="fill:#bebebe;fill-opacity:1;stroke:none"/><rect id="rect30315" width="1" height="1" x="-174" y="264" style="fill:#bebebe;fill-opacity:1;stroke:none"/><rect id="rect30317" width="1" height="1" x="-172" y="264" style="fill:#bebebe;fill-opacity:1;stroke:none"/><rect id="rect30319" width="1" height="1" x="-170" y="264" style="fill:#bebebe;fill-opacity:1;stroke:none"/><rect id="rect30321" width="1" height="1" x="-168" y="264" style="fill:#bebebe;fill-opacity:1;stroke:none"/><rect id="rect30323" width="1" height="1" x="-166" y="264" style="fill:#bebebe;fill-opacity:1;stroke:none"/><rect id="rect30325" width="1" height="1" x="-178" y="266" style="fill:#bebebe;fill-opacity:1;stroke:none"/><rect id="rect30327" width="1" height="1" x="-178" y="268" style="fill:#bebebe;fill-opacity:1;stroke:none"/><rect id="rect30329" width="1" height="1" x="-178" y="270" style="fill:#bebebe;fill-opacity:1;stroke:none"/><rect id="rect30331" width="1" height="1" x="-178" y="272" style="fill:#bebebe;fill-opacity:1;stroke:none"/><rect id="rect30333" width="1" height="1" x="-178" y="274" style="fill:#bebebe;fill-opacity:1;stroke:none"/><rect id="rect30337" width="1" height="1" x="-166" y="266" style="fill:#bebebe;fill-opacity:1;stroke:none"/><rect id="rect30339" width="1" height="1" x="-166" y="268" style="fill:#bebebe;fill-opacity:1;stroke:none"/><rect id="rect30341" width="1" height="1" x="-166" y="270" style="fill:#bebebe;fill-opacity:1;stroke:none"/><rect id="rect30343" width="1" height="1" x="-166" y="272" style="fill:#bebebe;fill-opacity:1;stroke:none"/><rect id="rect30345" width="1" height="1" x="-166" y="274" style="fill:#bebebe;fill-opacity:1;stroke:none"/><rect id="rect30347" width="1" height="1" x="-166" y="276" style="fill:#bebebe;fill-opacity:1;stroke:none"/><rect id="rect30349" width="1" height="1" x="-178" y="276" style="fill:#bebebe;fill-opacity:1;stroke:none"/><rect id="rect30351" width="1" height="1" x="-176" y="276" style="fill:#bebebe;fill-opacity:1;stroke:none"/><rect id="rect30353" width="1" height="1" x="-174" y="276" style="fill:#bebebe;fill-opacity:1;stroke:none"/><rect id="rect30355" width="1" height="1" x="-172" y="276" style="fill:#bebebe;fill-opacity:1;stroke:none"/><rect id="rect30357" width="1" height="1" x="-170" y="276" style="fill:#bebebe;fill-opacity:1;stroke:none"/><rect id="rect30359" width="1" height="1" x="-168" y="276" style="fill:#bebebe;fill-opacity:1;stroke:none"/></g></svg>