<svg xmlns="http://www.w3.org/2000/svg" xmlns:svg="http://www.w3.org/2000/svg" id="svg7384" width="16" height="16" version="1.1"><metadata id="metadata90"/><title id="title9167">Gnome Symbolic Icon Theme</title><defs id="defs7386"><filter id="filter12578-8" color-interpolation-filters="sRGB"><feGaussianBlur id="feGaussianBlur12580-4" stdDeviation=".015"/></filter><filter id="filter12586-1" color-interpolation-filters="sRGB"><feGaussianBlur id="feGaussianBlur12588-8" stdDeviation=".02"/></filter></defs><g id="layer1" transform="translate(80.000002,-382)"><path id="rect5422-9" d="m -79,394 0,2 0,1 14,0 0,-1 0,-2 -1,0 0,2 -6,0 0,-2 -1,0 0,2 -5,0 0,-2 -1,0 z" style="fill:#bebebe;fill-opacity:1;stroke:none"/><path id="rect5444-3" d="m -79,384 0,8 14,0 0,-8 -14,0 z m 1,1 12,0 0,6 -12,0 0,-6 z" style="fill:#bebebe;fill-opacity:1;stroke:none"/><path id="path5449-8" d="m -78,391 0.625,-0.53125 L -77,390 l 1,0 0,0 1,-4 1,0 1,2 c 0,0 0,0 1,0 l 1,1 1,1 0,0 1,-1 0,-1 0,0 0,0 0,0 1,1 1,1 0,0 1,0.40625 0,0.59375 z" style="fill:#bebebe;fill-opacity:1;stroke:none"/></g></svg>