<svg xmlns="http://www.w3.org/2000/svg" xmlns:svg="http://www.w3.org/2000/svg" id="svg7384" width="16" height="16" version="1.1"><metadata id="metadata90"/><title id="title9167">Gnome Symbolic Icon Theme</title><defs id="defs7386"><filter id="filter12578-8" color-interpolation-filters="sRGB"><feGaussianBlur id="feGaussianBlur12580-4" stdDeviation=".015"/></filter><filter id="filter12586-1" color-interpolation-filters="sRGB"><feGaussianBlur id="feGaussianBlur12588-8" stdDeviation=".02"/></filter></defs><g id="layer1" transform="translate(180,-222)"><path id="path11995" d="m -169,230 0,2 -8.34375,0 -2.65625,4 12,0 4,-6 z" style="fill:#bebebe;fill-opacity:1;stroke:none"/><path id="path12001" d="m -180,223 0,8 10,0 0,-8 z m 1,1 8,0 0,5 -8,0 z" style="fill:#bebebe;fill-opacity:1;stroke:none"/><path id="path12003" d="m -178,225 0,3 3,0 0,-1 c 8e-5,-0.52852 -0.35118,-0.54508 -1.03351,-0.8606 0,0 0.0158,2e-4 0.13403,0 0.21878,0.0448 0.74105,0.18771 0.9383,0.31835 -0.0526,-0.19063 -0.0756,-0.47909 -0.23458,-0.72048 -0.15897,-0.24137 -0.83776,-0.72048 -0.83776,-0.72048 L -176,225 c 0.0299,-0.0215 0,0 0.67021,0.36862 0.33511,0.1675 0.31386,0.15688 0.33511,0.1675 0.0669,0.0307 -0.0167,-0.0227 0.56968,-0.31835 l 0,0.15085 c 0,0 -0.56968,0.16618 -0.40213,0.4859 0.11929,0.16392 0.21352,0.54167 0.40213,0.58644 0,0 0.45579,-0.65698 0.80425,-0.87127 0,0 -0.11755,-0.2728 -0.11728,-0.41888 2e-4,-0.11222 0,0 0,0 0.0125,0.21211 0.0822,0.12715 0.23458,0.3351 l 0.87446,-0.48591 0,0 c 0,0 -1.39435,1.11315 -1.25984,1.32367 0.21155,-0.0258 1.07234,-0.1843 1.07234,-0.1843 l 0,0.0335 C -173.3778,226.35992 -173.82366,226.565 -174,227 l 0,1 2,0 0,-3 z" style="opacity:.3;fill:#bebebe;fill-opacity:1;stroke:none"/></g></svg>