<svg xmlns="http://www.w3.org/2000/svg" xmlns:svg="http://www.w3.org/2000/svg" id="svg7384" width="16" height="16" version="1.1"><metadata id="metadata90"/><title id="title9167">Gnome Symbolic Icon Theme</title><defs id="defs7386"><filter id="filter12578-8" color-interpolation-filters="sRGB"><feGaussianBlur id="feGaussianBlur12580-4" stdDeviation=".015"/></filter><filter id="filter12586-1" color-interpolation-filters="sRGB"><feGaussianBlur id="feGaussianBlur12588-8" stdDeviation=".02"/></filter></defs><g id="layer1" transform="translate(200,-302)"><path id="path7187" d="m -55,295 a 1.5,2 0 1 1 -3,0 1.5,2 0 1 1 3,0 z" transform="matrix(0.9797799,0,0,0.73483496,-141.68663,98.22369)" style="fill:#bebebe;fill-opacity:1;stroke:none"/><path id="path7189" d="m -55,295 a 1.5,2 0 1 1 -3,0 1.5,2 0 1 1 3,0 z" transform="matrix(0.9797799,0,0,0.73483496,-131.65456,88.26353)" style="fill:#bebebe;fill-opacity:1;stroke:none"/><path id="path7197" d="m -187.5,306 0,1 c 0,0 -0.037,2.22636 -0.59375,3.5625 -0.13918,0.33404 -0.29669,0.58482 -0.46875,0.75 -0.17206,0.16518 -0.34427,0.25 -0.5625,0.25 -0.43646,0 -1.28936,-0.42223 -2.5,-1.875 -1.29373,-1.55247 -2.35206,-2.22598 -3.34375,-2.09375 -0.49585,0.0661 -0.88739,0.35861 -1.1875,0.71875 -0.30011,0.36014 -0.51857,0.80824 -0.6875,1.28125 C -197.51948,311.48579 -197.5,314 -197.5,314 l 1,0 c 0,0 0.0195,-2.48579 0.59375,-4.09375 0.14357,-0.40199 0.31183,-0.74295 0.5,-0.96875 0.18817,-0.2258 0.38647,-0.31611 0.59375,-0.34375 0.41456,-0.0553 1.23123,0.27122 2.4375,1.71875 1.28936,1.54723 2.28021,2.25 3.25,2.25 0.4849,0 0.93378,-0.19643 1.25,-0.5 0.31622,-0.30357 0.54543,-0.70904 0.71875,-1.125 C -186.46298,309.27364 -186.5,307 -186.5,307 l 0,-1 -1,0 z" style="font-size:medium;font-style:normal;font-variant:normal;font-weight:400;font-stretch:normal;text-indent:0;text-align:start;text-decoration:none;line-height:normal;letter-spacing:normal;word-spacing:normal;text-transform:none;direction:ltr;block-progression:tb;writing-mode:lr-tb;text-anchor:start;baseline-shift:baseline;color:#000;fill:#bebebe;fill-opacity:1;stroke:none;stroke-width:1px;marker:none;visibility:visible;display:inline;overflow:visible;enable-background:accumulate;font-family:Sans;-inkscape-font-specification:Sans"/></g></svg>