<svg xmlns="http://www.w3.org/2000/svg" xmlns:svg="http://www.w3.org/2000/svg" id="svg7384" width="16" height="16" version="1.1"><metadata id="metadata90"/><title id="title9167">Gnome Symbolic Icon Theme</title><defs id="defs7386"><filter id="filter12578-8" color-interpolation-filters="sRGB"><feGaussianBlur id="feGaussianBlur12580-4" stdDeviation=".015"/></filter><filter id="filter12586-1" color-interpolation-filters="sRGB"><feGaussianBlur id="feGaussianBlur12588-8" stdDeviation=".02"/></filter></defs><g id="layer1" transform="translate(160,-182)"><g id="g30041" transform="translate(-241.0002,-217)"><path id="rect30026" d="m -152,185 c -2.77,0 -5,1 -5,5 l 0,8 2,0 0,-8 c 0,-3 2,-3 3,-3 1,0 3,0 3,3 l 0,8 2,0 0,-8 c 0,-4 -2.23,-5 -5,-5 z" transform="translate(241.0002,217)" style="fill:#bebebe;fill-opacity:1;stroke:none"/><path id="rect30037" d="m 89.000198,406 c 0.554,0 1,0.446 1,1 l 2e-6,8 -2,0 -2e-6,-8 c 0,-0.554 0.446,-1 1,-1 z" style="opacity:.3;fill:#bebebe;fill-opacity:1;stroke:none"/></g></g></svg>