<svg xmlns="http://www.w3.org/2000/svg" xmlns:svg="http://www.w3.org/2000/svg" id="svg7384" width="16" height="16" version="1.1"><metadata id="metadata90"/><title id="title9167">Gnome Symbolic Icon Theme</title><defs id="defs7386"><filter id="filter12578-8" color-interpolation-filters="sRGB"><feGaussianBlur id="feGaussianBlur12580-4" stdDeviation=".015"/></filter><filter id="filter12586-1" color-interpolation-filters="sRGB"><feGaussianBlur id="feGaussianBlur12588-8" stdDeviation=".02"/></filter></defs><g id="layer1" transform="translate(80,-302)"><path id="path35543-6-4-0" d="m -72,303 c -0.22065,0 -0.44081,0.0113 -0.65625,0.0312 l -0.40625,2.09375 c -0.33446,0.0733 -0.66305,0.17589 -0.96875,0.3125 l -1.53125,-1.46875 c -0.38863,0.23011 -0.72695,0.51408 -1.0625,0.8125 l 0.90625,1.90625 c -0.22242,0.24899 -0.42425,0.5225 -0.59375,0.8125 l -2.09375,-0.28125 c -0.17772,0.40877 -0.30872,0.83637 -0.40625,1.28125 l 1.84375,1 C -76.98585,309.66809 -77,309.8274 -77,310 l 2,0 c 0,-1.65685 1.34315,-3 3,-3 1.65685,0 3,1.34315 3,3 l 2,0 c 0,-0.1726 -0.01425,-0.33191 -0.03125,-0.5 l 1.84375,-1 c -0.0975,-0.44488 -0.22853,-0.87248 -0.40625,-1.28125 L -67.6875,307.5 c -0.1695,-0.29 -0.37133,-0.56351 -0.59375,-0.8125 l 0.90625,-1.90625 c -0.33555,-0.29842 -0.67387,-0.58239 -1.0625,-0.8125 l -1.53125,1.46875 c -0.3057,-0.13661 -0.63429,-0.23916 -0.96875,-0.3125 l -0.40625,-2.09375 C -71.55919,303.01125 -71.77935,303 -72,303 z" style="color:#000;fill:#bebebe;fill-opacity:1;fill-rule:nonzero;stroke:none;marker:none;visibility:visible;display:inline;overflow:visible;enable-background:accumulate"/><path id="rect28071" d="m -79,311 0,7 14,0 0,-7 -14,0 z m 3,1 1,0 0,5 -1,0 0,-4 -1,1 0,-1 1,-1 z m 3.5,0 c 0.831,0 1.5,0.669 1.5,1.5 l 0,2 c 0,0.831 -0.669,1.5 -1.5,1.5 -0.831,0 -1.5,-0.669 -1.5,-1.5 l 0,-2 c 0,-0.831 0.669,-1.5 1.5,-1.5 z m 4.5,0 2,2 -4,0 2,-2 z m -4.5,1 c -0.277,0 -0.5,0.223 -0.5,0.5 l 0,2 c 0,0.277 0.223,0.5 0.5,0.5 0.277,0 0.5,-0.223 0.5,-0.5 l 0,-2 c 0,-0.277 -0.223,-0.5 -0.5,-0.5 z m 2.5,2 4,0 -2,2 -2,-2 z" style="fill:#bebebe;fill-opacity:1;stroke:none"/></g></svg>