<svg xmlns="http://www.w3.org/2000/svg" xmlns:svg="http://www.w3.org/2000/svg" id="svg7384" width="16" height="16" version="1.1"><metadata id="metadata90"/><title id="title9167">Gnome Symbolic Icon Theme</title><defs id="defs7386"><filter id="filter12578-8" color-interpolation-filters="sRGB"><feGaussianBlur id="feGaussianBlur12580-4" stdDeviation=".015"/></filter><filter id="filter12586-1" color-interpolation-filters="sRGB"><feGaussianBlur id="feGaussianBlur12588-8" stdDeviation=".02"/></filter></defs><g id="layer1" transform="translate(200,-382)"><g id="g3793" transform="matrix(0.99961017,0,0,1,-200,382)" style="display:inline"><path id="path3908-6" d="M 14.994756,0.59983185 C 14.711497,0.3597376 14.370713,0.18058703 14.02785,0.03853042 L 14.006105,2.270507 C 14.001605,2.7291761 13.554035,3 13,3 L 12,3 C 11.446025,2.9928881 10.996544,2.6906456 11.001004,2.2319765 L 11.022748,0 C 10.677203,0.13321562 10.333029,0.30360349 10.045161,0.53637778 8.6673482,1.6505005 8.6494855,3.4852564 10.005254,4.6344268 10.288513,4.8745211 10.629298,5.0536727 10.972148,5.1957409 11,5.2070547 11.00429,7 11.00429,7 c 1.490069,0.75 2.351848,1.75 3,2.75 L 14,5.2517311 c 0.345534,-0.1332193 0.666967,-0.3210668 0.954835,-0.5538409 1.377812,-1.1141229 1.39569,-2.9488892 0.03992,-4.09805835 z" style="font-size:medium;font-style:normal;font-variant:normal;font-weight:400;font-stretch:normal;text-indent:0;text-align:start;text-decoration:none;line-height:normal;letter-spacing:normal;word-spacing:normal;text-transform:none;direction:ltr;block-progression:tb;writing-mode:lr-tb;text-anchor:start;color:#000;fill:#bebebe;fill-opacity:1;fill-rule:nonzero;stroke:none;stroke-width:3;marker:none;visibility:visible;display:inline;overflow:visible;enable-background:accumulate;font-family:Sans;-inkscape-font-specification:Sans"/><rect id="rect2999-6" width="16.006" height="16" x="0" y="0" style="fill:none;stroke:none"/></g><path id="path35543-6-4-9" d="m -192,389 c -0.22065,0 -0.44081,0.0113 -0.65625,0.0312 l -0.40625,2.09375 c -0.33446,0.0733 -0.66305,0.17589 -0.96875,0.3125 l -1.53125,-1.46875 c -0.38863,0.23011 -0.72695,0.51408 -1.0625,0.8125 l 0.90625,1.90625 c -0.22242,0.24899 -0.42425,0.5225 -0.59375,0.8125 l -2.09375,-0.28125 c -0.17772,0.40877 -0.30872,0.83637 -0.40625,1.28125 l 1.84375,1 c -0.0171,0.16809 -0.0312,0.3274 -0.0312,0.5 0,0.1726 0.0143,0.33191 0.0312,0.5 l -1.84375,1 c 0.0374,0.17068 0.10823,0.3345 0.15625,0.5 l 4.4375,0 C -194.69824,397.46826 -195,396.77238 -195,396 c 0,-1.65685 1.34315,-3 3,-3 1.65685,0 3,1.34315 3,3 0,0.77238 -0.30176,1.46826 -0.78125,2 l 4.4375,0 c 0.048,-0.1655 0.11883,-0.32932 0.15625,-0.5 l -1.84375,-1 c 0.0171,-0.16809 0.0312,-0.3274 0.0312,-0.5 0,-0.1726 -0.0143,-0.33191 -0.0312,-0.5 l 1.84375,-1 c -0.0975,-0.44488 -0.22853,-0.87248 -0.40625,-1.28125 L -187.6875,393.5 c -0.1695,-0.29 -0.37133,-0.56351 -0.59375,-0.8125 l 0.90625,-1.90625 c -0.33555,-0.29842 -0.67387,-0.58239 -1.0625,-0.8125 l -1.53125,1.46875 c -0.3057,-0.13661 -0.63429,-0.23916 -0.96875,-0.3125 l -0.40625,-2.09375 C -191.55919,389.01125 -191.77935,389 -192,389 z" style="color:#000;fill:#bebebe;fill-opacity:1;fill-rule:nonzero;stroke:none;marker:none;visibility:visible;display:inline;overflow:visible;enable-background:accumulate"/><path id="path18112" d="m -190,396.5 a 2,1.5 0 1 1 -4,0 2,1.5 0 1 1 4,0 z" transform="matrix(0.75,0,0,0.99999994,-48,-0.50001)" style="fill:#bebebe;fill-opacity:1;stroke:none"/></g></svg>