<svg xmlns="http://www.w3.org/2000/svg" xmlns:svg="http://www.w3.org/2000/svg" id="svg7384" width="16" height="16" version="1.1"><metadata id="metadata90"/><title id="title9167">Gnome Symbolic Icon Theme</title><defs id="defs7386"><filter id="filter12578-8" color-interpolation-filters="sRGB"><feGaussianBlur id="feGaussianBlur12580-4" stdDeviation=".015"/></filter><filter id="filter12586-1" color-interpolation-filters="sRGB"><feGaussianBlur id="feGaussianBlur12588-8" stdDeviation=".02"/></filter></defs><g id="layer1" transform="translate(160,-422)"><path id="path7078" d="m -149,434.97692 0,-2 c -2.32729,-0.007 -4.67278,-0.0265 -7,0.006 l 0,2 c 2.32651,-0.10306 4.67222,-0.0197 7,-0.006 z" style="fill:#bebebe;fill-opacity:1;stroke:none"/><path id="path7080" d="m -148,434 -4.00001,-4.02308 0,8 z" style="fill:#bebebe;fill-opacity:1;stroke:none"/><path id="path7106" d="m -150.9375,422.90625 c 0,5.11459 7.5e-4,2.60737 0.0312,5.5625 l 0,0.4375 0.46875,0 2.28125,0 c 1.68089,0.0687 1.60511,-4.12511 -0.0312,-4 -0.0117,8.8e-4 -0.0195,-10e-4 -0.0312,0 l -1.71875,0 0,-2 -1,0 z m 0.9375,2.90625 1.8125,0 0.0312,0 0.0312,0 c 0.36781,-0.0382 0.43459,2.2053 0,2.1875 l -0.0312,0 -1.84375,0 c -0.006,-0.47556 0.004,-2.04053 0,-2.1875 z" style="fill:#bebebe;fill-opacity:1;stroke:none"/><path id="path7104" d="m -155.9375,423.90625 0,0.875 1.75,0 c 0.12685,0.013 0.1972,0.0616 0.25,0.125 0.0491,0.059 0.118,0.1867 0.125,0.375 5e-4,0.0143 0,0.0159 0,0.0312 l 0,0.6875 -1.84375,0 -0.0312,0 c -1.61055,-0.11692 -1.68715,2.97155 -0.0312,2.90625 l 2.3125,0 0.4375,0 0,-0.4375 0.0312,-3.15625 c 0,-0.37046 -0.10212,-0.716 -0.3125,-0.96875 -0.21038,-0.25275 -0.52914,-0.4054 -0.84375,-0.4375 l -0.0312,0 -1.8125,0 z m 0.1875,2.96875 0.0312,0 0.0312,0 1.84375,0 -0.0312,1.15625 -1.84375,0 -0.0312,0 c -0.46799,0.0185 -0.40144,-1.19655 0,-1.15625 z" style="fill:#bebebe;fill-opacity:1;stroke:none"/></g></svg>