<svg xmlns="http://www.w3.org/2000/svg" xmlns:svg="http://www.w3.org/2000/svg" id="svg7384" width="16" height="16" version="1.1"><metadata id="metadata90"/><title id="title9167">Gnome Symbolic Icon Theme</title><defs id="defs7386"><filter id="filter12578-8" color-interpolation-filters="sRGB"><feGaussianBlur id="feGaussianBlur12580-4" stdDeviation=".015"/></filter><filter id="filter12586-1" color-interpolation-filters="sRGB"><feGaussianBlur id="feGaussianBlur12588-8" stdDeviation=".02"/></filter></defs><g id="layer1" transform="translate(100,-342)"><g id="g13516" transform="translate(-161.0002,-97)"><path id="path13520" d="m -89,350 -4,2 -1,0 -2.5,-1.25 -0.84375,1.25 -2.65625,4 12,0 4,-6 -5,0 z" transform="translate(161.0002,97)" style="fill:#bebebe;fill-opacity:1;stroke:none"/></g><path id="path3826" d="m -98,342 0,4.84375 c 0,1.71931 2,3.15625 4.46875,4.1875 2.53125,-1.03125 4.5,-2.19533 4.5,-4.125 l 0,-4.90625 z m 1,2 3,0 0,1 0,1 -2,-1 z m 4,0 3,0 -1,1 -2,1 z m -3,3 5,0 c -2.474874,4.48943 -5,0 -5,0 z" style="color:#000;fill:#bebebe;fill-opacity:1;fill-rule:evenodd;stroke:none;stroke-width:1.00000024;marker:none;visibility:visible;display:inline;overflow:visible"/></g></svg>