<svg xmlns="http://www.w3.org/2000/svg" xmlns:svg="http://www.w3.org/2000/svg" id="svg7384" width="16" height="16" version="1.1"><metadata id="metadata90"/><title id="title9167">Gnome Symbolic Icon Theme</title><defs id="defs7386"><filter id="filter12578-8" color-interpolation-filters="sRGB"><feGaussianBlur id="feGaussianBlur12580-4" stdDeviation=".015"/></filter><filter id="filter12586-1" color-interpolation-filters="sRGB"><feGaussianBlur id="feGaussianBlur12588-8" stdDeviation=".02"/></filter></defs><g id="layer1" transform="translate(140,-342)"><g id="g13388" transform="translate(-221.0002,-217)"><path id="path13392" d="m 86.0002,561 -3,0 0,5 0,3 0,5 3,0 0,-10 2,0 1,0 6,0 0,-3 z m 3,6 0,7 3,0 0,-4 3,0 0,-3 z" style="fill:#bebebe;fill-opacity:1;stroke:none"/><rect id="rect13394" width="1" height="1" x="93" y="565" style="fill:#bebebe;fill-opacity:1;stroke:none"/><rect id="rect13396" width="1" height="1" x="91" y="565" style="fill:#bebebe;fill-opacity:1;stroke:none"/><rect id="rect13398" width="1" height="1" x="89" y="565" style="fill:#bebebe;fill-opacity:1;stroke:none"/><rect id="rect13400" width="1" height="1" x="87" y="565" style="fill:#bebebe;fill-opacity:1;stroke:none"/><rect id="rect13402" width="1" height="1" x="87" y="567" style="fill:#bebebe;fill-opacity:1;stroke:none"/><rect id="rect13404" width="1" height="1" x="87" y="569" style="fill:#bebebe;fill-opacity:1;stroke:none"/><rect id="rect13406" width="1" height="1" x="87" y="571" style="fill:#bebebe;fill-opacity:1;stroke:none"/><rect id="rect13408" width="1" height="1" x="87" y="573" style="fill:#bebebe;fill-opacity:1;stroke:none"/></g></g></svg>