<svg xmlns="http://www.w3.org/2000/svg" xmlns:svg="http://www.w3.org/2000/svg" id="svg7384" width="16" height="16" version="1.1"><metadata id="metadata90"/><title id="title9167">Gnome Symbolic Icon Theme</title><defs id="defs7386"><filter id="filter12578-8" color-interpolation-filters="sRGB"><feGaussianBlur id="feGaussianBlur12580-4" stdDeviation=".015"/></filter><filter id="filter12586-1" color-interpolation-filters="sRGB"><feGaussianBlur id="feGaussianBlur12588-8" stdDeviation=".02"/></filter></defs><g id="layer1" transform="translate(160,-342)"><path id="rect13325" d="m -155,344 -3,3 0,2 0,3 0,5 3,0 0,-10 2,0 1,0 6,0 0,-3 z m 3,6 0,7 3,0 0,-4 3,0 0,-3 z" style="fill:#bebebe;fill-opacity:1;stroke:none"/><rect id="rect13341" width="1" height="1" x="-148" y="348" style="fill:#bebebe;fill-opacity:1;stroke:none"/><rect id="rect13343" width="1" height="1" x="-150" y="348" style="fill:#bebebe;fill-opacity:1;stroke:none"/><rect id="rect13345" width="1" height="1" x="-152" y="348" style="fill:#bebebe;fill-opacity:1;stroke:none"/><rect id="rect13347" width="1" height="1" x="-154" y="348" style="fill:#bebebe;fill-opacity:1;stroke:none"/><rect id="rect13349" width="1" height="1" x="-154" y="350" style="fill:#bebebe;fill-opacity:1;stroke:none"/><rect id="rect13351" width="1" height="1" x="-154" y="352" style="fill:#bebebe;fill-opacity:1;stroke:none"/><rect id="rect13353" width="1" height="1" x="-154" y="354" style="fill:#bebebe;fill-opacity:1;stroke:none"/><rect id="rect13355" width="1" height="1" x="-154" y="356" style="fill:#bebebe;fill-opacity:1;stroke:none"/></g></svg>