<svg xmlns="http://www.w3.org/2000/svg" xmlns:svg="http://www.w3.org/2000/svg" id="svg7384" width="16" height="16" version="1.1"><metadata id="metadata90"/><title id="title9167">Gnome Symbolic Icon Theme</title><defs id="defs7386"><filter id="filter12578-8" color-interpolation-filters="sRGB"><feGaussianBlur id="feGaussianBlur12580-4" stdDeviation=".015"/></filter><filter id="filter12586-1" color-interpolation-filters="sRGB"><feGaussianBlur id="feGaussianBlur12588-8" stdDeviation=".02"/></filter></defs><g id="layer1" transform="translate(200,-182)"><path id="path5327" d="M -196.20946,192.04693 z" style="fill:none;stroke:#000;stroke-width:.99851286px;stroke-linecap:butt;stroke-linejoin:miter;stroke-opacity:1"/><path id="path5329" d="M -196.1783,192.10943 z" style="fill:none;stroke:#000;stroke-width:.99851286px;stroke-linecap:butt;stroke-linejoin:miter;stroke-opacity:1"/><path id="path4561" d="m -192.0002,182 c -2.74957,0 -5,2.25042 -5,5 0,1.58622 0.84459,2.90336 2,3.8125 l 0,2.1875 2e-4,0 1,0 4,0 1,0 -2e-4,0 0,-2.1875 c 1.15541,-0.90914 2,-2.22628 2,-3.8125 0,-2.74958 -2.25043,-5 -5,-5 z m 0,2 c 1.66868,0 3,1.33132 3,3 0,1.11585 -0.59507,2.03788 -1.5,2.5625 l -0.5,0.3125 0,0.5625 2e-4,0.5625 -2,0 -2e-4,-0.5625 0,-0.5625 -0.5,-0.3125 c -0.90493,-0.52462 -1.5,-1.44665 -1.5,-2.5625 0,-1.66868 1.33132,-3 3,-3 z" style="font-size:medium;font-style:normal;font-variant:normal;font-weight:400;font-stretch:normal;text-indent:0;text-align:start;text-decoration:none;line-height:normal;letter-spacing:normal;word-spacing:normal;text-transform:none;direction:ltr;block-progression:tb;writing-mode:lr-tb;text-anchor:start;baseline-shift:baseline;color:#000;fill:#bebebe;fill-opacity:1;stroke:none;stroke-width:2.00000024;marker:none;visibility:visible;display:inline;overflow:visible;enable-background:accumulate;font-family:Sans;-inkscape-font-specification:Sans"/><path id="path4488-4" d="m -194,197 0,1 4,0 0,-1 -4,0 z" style="font-size:medium;font-style:normal;font-variant:normal;font-weight:400;font-stretch:normal;text-indent:0;text-align:start;text-decoration:none;line-height:normal;letter-spacing:normal;word-spacing:normal;text-transform:none;direction:ltr;block-progression:tb;writing-mode:lr-tb;text-anchor:start;baseline-shift:baseline;color:#000;fill:#bebebe;fill-opacity:1;fill-rule:nonzero;stroke:none;stroke-width:1;marker:none;visibility:visible;display:inline;overflow:visible;enable-background:accumulate;font-family:Sans;-inkscape-font-specification:Sans"/><path id="path4488-4-7" d="m -195,194 0,2 6,0 0,-2 -6,0 z" style="font-size:medium;font-style:normal;font-variant:normal;font-weight:400;font-stretch:normal;text-indent:0;text-align:start;text-decoration:none;line-height:normal;letter-spacing:normal;word-spacing:normal;text-transform:none;direction:ltr;block-progression:tb;writing-mode:lr-tb;text-anchor:start;baseline-shift:baseline;color:#000;fill:#bebebe;fill-opacity:1;fill-rule:nonzero;stroke:none;stroke-width:1;marker:none;visibility:visible;display:inline;overflow:visible;enable-background:accumulate;font-family:Sans;-inkscape-font-specification:Sans"/><rect id="rect29445" width="2" height="1" x="-193" y="187" style="opacity:.3;fill:#bebebe;fill-opacity:1;stroke:none"/></g></svg>