<svg xmlns="http://www.w3.org/2000/svg" xmlns:svg="http://www.w3.org/2000/svg" id="svg7384" width="16" height="16" version="1.1"><metadata id="metadata90"/><title id="title9167">Gnome Symbolic Icon Theme</title><defs id="defs7386"><filter id="filter12578-8" color-interpolation-filters="sRGB"><feGaussianBlur id="feGaussianBlur12580-4" stdDeviation=".015"/></filter><filter id="filter12586-1" color-interpolation-filters="sRGB"><feGaussianBlur id="feGaussianBlur12588-8" stdDeviation=".02"/></filter></defs><g id="layer1" transform="translate(120,-262)"><g id="g6082" transform="translate(-161.0002,-217)"><rect id="rect6086" width="1" height="1" x="44" y="483" style="fill:#bebebe;fill-opacity:1;stroke:none"/><rect id="rect6088" width="1" height="1" x="48" y="483" style="fill:#bebebe;fill-opacity:1;stroke:none"/><rect id="rect6090" width="1" height="1" x="50" y="483" style="fill:#bebebe;fill-opacity:1;stroke:none"/><rect id="rect6092" width="1" height="1" x="52" y="483" style="fill:#bebebe;fill-opacity:1;stroke:none"/><rect id="rect6094" width="1" height="1" x="44" y="485" style="fill:#bebebe;fill-opacity:1;stroke:none"/><rect id="rect6096" width="1" height="1" x="44" y="487" style="fill:#bebebe;fill-opacity:1;stroke:none"/><rect id="rect6098" width="1" height="1" x="44" y="489" style="fill:#bebebe;fill-opacity:1;stroke:none"/><rect id="rect6100" width="1" height="1" x="44" y="491" style="fill:#bebebe;fill-opacity:1;stroke:none"/><rect id="rect6102" width="1" height="1" x="54" y="483" style="fill:#bebebe;fill-opacity:1;stroke:none"/><rect id="rect6104" width="1" height="1" x="56" y="483" style="fill:#bebebe;fill-opacity:1;stroke:none"/><rect id="rect6106" width="1" height="1" x="56" y="485" style="fill:#bebebe;fill-opacity:1;stroke:none"/><rect id="rect6108" width="1" height="1" x="56" y="487" style="fill:#bebebe;fill-opacity:1;stroke:none"/><rect id="rect6110" width="1" height="1" x="56" y="489" style="fill:#bebebe;fill-opacity:1;stroke:none"/><rect id="rect6112" width="1" height="1" x="56" y="491" style="fill:#bebebe;fill-opacity:1;stroke:none"/><rect id="rect6114" width="1" height="1" x="52" y="493" style="fill:#bebebe;fill-opacity:1;stroke:none"/><rect id="rect6116" width="1" height="1" x="50" y="493" style="fill:#bebebe;fill-opacity:1;stroke:none"/><rect id="rect6118" width="1" height="1" x="48" y="493" style="fill:#bebebe;fill-opacity:1;stroke:none"/><rect id="rect6120" width="1" height="1" x="44" y="493" style="fill:#bebebe;fill-opacity:1;stroke:none"/><rect id="rect6122" width="6" height="5" x="47" y="486" style="opacity:.3;fill:#bebebe;fill-opacity:1;stroke:none"/><rect id="rect6124" width="1" height="1" x="54" y="493" style="fill:#bebebe;fill-opacity:1;stroke:none"/><rect id="rect6126" width="1" height="1" x="56" y="493" style="fill:#bebebe;fill-opacity:1;stroke:none"/><rect id="rect6128" width="1" height="1" x="46" y="483" style="fill:#bebebe;fill-opacity:1;stroke:none"/><rect id="rect6130" width="1" height="1" x="46" y="493" style="fill:#bebebe;fill-opacity:1;stroke:none"/><path id="path6132" d="m 41.0002,479 0,12 2,0 0,-6 0,-3 3,0 7,0 0,-3 z" style="fill:#bebebe;fill-opacity:1;stroke:none"/></g></g></svg>