<svg xmlns="http://www.w3.org/2000/svg" xmlns:svg="http://www.w3.org/2000/svg" id="svg7384" width="16" height="16" version="1.1"><metadata id="metadata90"/><title id="title9167">Gnome Symbolic Icon Theme</title><defs id="defs7386"><filter id="filter12578-8" color-interpolation-filters="sRGB"><feGaussianBlur id="feGaussianBlur12580-4" stdDeviation=".015"/></filter><filter id="filter12586-1" color-interpolation-filters="sRGB"><feGaussianBlur id="feGaussianBlur12588-8" stdDeviation=".02"/></filter></defs><g id="layer1" transform="translate(160,-362)"><g id="g7484" transform="translate(-201.0002,-217)"><path id="path7488" d="m 42.15645,583 c -0.63314,0 -1.15625,0.446 -1.15625,1 l 0,10 c 0,0.554 0.52311,1 1.15625,1 l 13.6875,0 c 0.63314,0 1.15625,-0.446 1.15625,-1 l 0,-10 c 0,-0.554 -0.52311,-1 -1.15625,-1 l -13.6875,0 z m 1.84375,2 8,0 c 0.554,0 1,0.446 1,1 l 0,6 c 0,0.554 -0.446,1 -1,1 l -8,0 c -0.554,0 -1,-0.446 -1,-1 l 0,-6 c 0,-0.554 0.446,-1 1,-1 z m 11,0 c 0.55228,0 1,0.44772 1,1 0,0.55228 -0.44772,1 -1,1 -0.55228,0 -1,-0.44772 -1,-1 0,-0.55228 0.44772,-1 1,-1 z m 0,3 c 0.55228,0 1,0.44772 1,1 0,0.55228 -0.44772,1 -1,1 -0.55228,0 -1,-0.44772 -1,-1 0,-0.55228 0.44772,-1 1,-1 z" style="fill:#bebebe;fill-opacity:1;stroke:none"/><path id="path7490" d="m -190,365.5 c 0,0.82843 -0.89543,1.5 -2,1.5 -1.10457,0 -2,-0.67157 -2,-1.5 0,-0.82843 0.89543,-1.5 2,-1.5 1.10457,0 2,0.67157 2,1.5 z" transform="matrix(0.75,0,0,1.0000003,192.5002,217.9999)" style="fill:#bebebe;fill-opacity:1;stroke:none"/><path id="path7492" d="m 45.0002,580 3,3 0,0" style="fill:none;stroke:#bebebe;stroke-width:1px;stroke-linecap:round;stroke-linejoin:round;stroke-opacity:1"/><path id="path7494" d="m 52.0002,580 -3,3 0,0" style="fill:none;stroke:#bebebe;stroke-width:1px;stroke-linecap:round;stroke-linejoin:round;stroke-opacity:1"/></g><rect id="rect7496" width="2" height="6" x="-157" y="369" style="fill:#bebebe;fill-opacity:1;stroke:none"/><rect id="rect7498" width="2" height="6" x="-154" y="369" style="opacity:.3;fill:#bebebe;fill-opacity:1;stroke:none"/><rect id="rect7500" width="2" height="6" x="-151" y="369" style="opacity:.3;fill:#bebebe;fill-opacity:1;stroke:none"/></g></svg>