<svg xmlns="http://www.w3.org/2000/svg" xmlns:svg="http://www.w3.org/2000/svg" id="svg7384" width="16" height="16" version="1.1"><metadata id="metadata90"/><title id="title9167">Gnome Symbolic Icon Theme</title><defs id="defs7386"><filter id="filter12578-8" color-interpolation-filters="sRGB"><feGaussianBlur id="feGaussianBlur12580-4" stdDeviation=".015"/></filter><filter id="filter12586-1" color-interpolation-filters="sRGB"><feGaussianBlur id="feGaussianBlur12588-8" stdDeviation=".02"/></filter></defs><g id="layer1" transform="translate(59.96895,-421.99997)"><g id="g6077" transform="translate(-621.96895,40)" style="display:inline"><g id="g6578"><path id="rect5523" d="m -156,-22 c 0,0 0,0 0,2 l 0,12 c 0,2 -1,2 -1,2 l 1,0 c 0,0 1,0 1,-1 l 1,0 c 0,1 -1,1 -1,1 l 1,0 c 0,0 1,0 1,-1 l 6,0 c 0,1 -0.67515,1 -1,1 l 1,0 c 0,0 1,0 1,-1 l 1,0 c 0,1 -1,1 -1,1 l 1,0 c 0,0 1,0 1,-2 l 0,-12 c 0,-2 0,-2 0,-2 l -3,0 c 0,0 0,0 0,2 l 0,2 -6,0 0,-2 c 0,-2 0,-2 0,-2 z m 1,1 1,0 0,1 -1,0 z m 9,0 1,0 0,1 -1,0 z m -9,2 1,0 0,1 -1,0 z m 9,0 1,0 0,1 -1,0 z m -9,2 1,0 0,1 -1,0 z m 2,0 6,0 0,4 -6,0 z m 7,0 1,0 0,1 -1,0 z m -9,2 1,0 0,1 -1,0 z m 9,0 1,0 0,1 -1,0 z m -9,2 1,0 0,1 -1,0 z m 9,0 1,0 0,1 -1,0 z m -7,1 6,0 0,4 -6,0 z m -2,1 1,0 0,1 -1,0 z m 9,0 1,0 0,1 -1,0 z m -9,2 1,0 0,1 -1,0 z m 9,0 1,0 0,1 -1,0 z" transform="translate(719.96895,404)" style="color:#000;fill:#bebebe;fill-opacity:1;fill-rule:nonzero;stroke:none;stroke-width:1.50793636;marker:none;visibility:visible;display:inline;overflow:visible;enable-background:new"/></g></g></g></svg>