<svg xmlns="http://www.w3.org/2000/svg" xmlns:svg="http://www.w3.org/2000/svg" id="svg7384" width="16" height="16" version="1.1"><metadata id="metadata90"/><title id="title9167">Gnome Symbolic Icon Theme</title><defs id="defs7386"><filter id="filter12578-8" color-interpolation-filters="sRGB"><feGaussianBlur id="feGaussianBlur12580-4" stdDeviation=".015"/></filter><filter id="filter12586-1" color-interpolation-filters="sRGB"><feGaussianBlur id="feGaussianBlur12588-8" stdDeviation=".02"/></filter></defs><g id="layer1" transform="translate(180,-242)"><g id="g12105" transform="matrix(0,1,-1,0,295,200.9998)"><path id="path12109" d="m 52.00019,468 0,-2 c 1.662351,-0.007 3.337703,-0.0265 5.00001,0.006 l 0,2 C 55.338404,467.90294 53.662891,467.9863 52.00019,468 z" style="fill:#bebebe;fill-opacity:1;stroke:none"/><path id="path12111" d="M 51.00019,467.02308 55.0002,463 l 0,8 z" style="fill:#bebebe;fill-opacity:1;stroke:none"/><rect id="rect12113" width="2" height="12" x="-50" y="461" transform="scale(-1,1)" style="fill:#bebebe;fill-opacity:1;stroke:none"/><path id="path12115" d="m 46.0002,468 0,-2 c -1.662347,-0.007 -3.337695,-0.0265 -5,0.006 l 0,2 c 1.661791,-0.10306 3.337303,-0.0197 5,-0.006 z" style="fill:#bebebe;fill-opacity:1;stroke:none"/><path id="path12117" d="M 47.0002,467.02308 43.00019,463 l 0,8 z" style="fill:#bebebe;fill-opacity:1;stroke:none"/></g></g></svg>