<svg xmlns="http://www.w3.org/2000/svg" xmlns:svg="http://www.w3.org/2000/svg" id="svg7384" width="16" height="16" version="1.1"><metadata id="metadata90"/><title id="title9167">Gnome Symbolic Icon Theme</title><defs id="defs7386"><filter id="filter12578-8" color-interpolation-filters="sRGB"><feGaussianBlur id="feGaussianBlur12580-4" stdDeviation=".015"/></filter><filter id="filter12586-1" color-interpolation-filters="sRGB"><feGaussianBlur id="feGaussianBlur12588-8" stdDeviation=".02"/></filter></defs><g id="layer1" transform="translate(200,-202)"><path id="path11635" d="m -192,212 -4.02308,-4 8,0 z" style="fill:#bebebe;fill-opacity:1;stroke:none"/><g id="g10619" transform="translate(-241.0002,-217)"><g id="g4561" transform="translate(-118.9998,-119)" style="display:inline"><path id="rect4390-9" d="m 163.5,549 1,-1.5 m 7,0 1,1.5" style="color:#bebebe;fill:none;stroke:#bebebe;stroke-width:1;stroke-linecap:round;stroke-linejoin:round;stroke-miterlimit:4;stroke-opacity:1;stroke-dashoffset:0;marker:none;visibility:visible;display:inline;overflow:visible;enable-background:accumulate"/><g id="g4555"><path id="rect11668-7-5" d="m 163,549 0,4 10,0 0,-4 z m 3.34375,1.4375 c 0.0208,-10e-4 0.0417,-10e-4 0.0625,0 0.29096,-0.0556 0.59898,0.20383 0.59375,0.5 l 0,0.0625 2,0 0,-0.0625 c -0.004,-0.26416 0.23582,-0.50712 0.5,-0.50712 0.26418,0 0.50373,0.24296 0.5,0.50712 L 170,551 c 0,0.54535 -0.45465,1 -1,1 l -2,0 c -0.54535,0 -1,-0.45465 -1,-1 l 0,-0.0625 c -0.0108,-0.21706 0.13723,-0.43234 0.34375,-0.5 z" style="color:#000;fill:#bebebe;fill-opacity:1;fill-rule:evenodd;stroke:none;stroke-width:1;marker:none;visibility:visible;display:inline;overflow:visible;enable-background:accumulate"/></g></g></g><rect id="rect11650" width="2" height="7" x="-193" y="203" style="fill:#bebebe;fill-opacity:1;stroke:none"/></g></svg>