<svg xmlns="http://www.w3.org/2000/svg" xmlns:svg="http://www.w3.org/2000/svg" id="svg7384" width="16" height="16" version="1.1"><metadata id="metadata90"/><title id="title9167">Gnome Symbolic Icon Theme</title><defs id="defs7386"><filter id="filter12578-8" color-interpolation-filters="sRGB"><feGaussianBlur id="feGaussianBlur12580-4" stdDeviation=".015"/></filter><filter id="filter12586-1" color-interpolation-filters="sRGB"><feGaussianBlur id="feGaussianBlur12588-8" stdDeviation=".02"/></filter></defs><g id="layer1" transform="translate(140,-422)"><path id="path7148" d="m -135,434.994 0,-2 c 2.32729,-0.007 4.67278,-0.0265 7,0.006 l 0,2 c -2.32651,-0.10306 -4.67222,-0.0197 -7,-0.006 z" style="fill:#bebebe;fill-opacity:1;stroke:none"/><path id="path7151" d="m -136,434.01708 4.00001,-4.02308 0,8 z" style="fill:#bebebe;fill-opacity:1;stroke:none"/><path id="path7162" d="m -137,424 0,3 c 0,0 0,1 1,1 1,0 3,0 3,0 l 1,-1.53711 1,1.53711 3,0 c 1,0 2,-2 0,-2 l -1,0 1,1 -3,0 -1,-1.53711 -1,1.53711 -3,0 0,-3 z" style="fill:#bebebe;fill-opacity:1;stroke:none"/><rect id="rect7164" width="1" height="1" x="-129" y="424" style="opacity:.3;fill:#bebebe;fill-opacity:1;stroke:none"/><rect id="rect7174" width="1" height="1" x="-130.855" y="424.049" style="opacity:.3;fill:#bebebe;fill-opacity:1;stroke:none"/></g></svg>