<svg xmlns="http://www.w3.org/2000/svg" xmlns:svg="http://www.w3.org/2000/svg" id="svg7384" width="16" height="16" version="1.1"><metadata id="metadata90"/><title id="title9167">Gnome Symbolic Icon Theme</title><defs id="defs7386"><filter id="filter12578-8" color-interpolation-filters="sRGB"><feGaussianBlur id="feGaussianBlur12580-4" stdDeviation=".015"/></filter><filter id="filter12586-1" color-interpolation-filters="sRGB"><feGaussianBlur id="feGaussianBlur12588-8" stdDeviation=".02"/></filter></defs><g id="layer1" transform="translate(140,-142)"><rect id="rect15929" width="7" height="5" x="-138" y="143" style="fill:#bebebe;fill-opacity:1;stroke:none;display:inline"/><rect id="rect15931" width="1" height="5" x="-130" y="149" style="fill:#bebebe;fill-opacity:1;stroke:none;display:inline"/><rect id="rect15933" width="5" height="1" x="-132" y="151" style="fill:#bebebe;fill-opacity:1;stroke:none;display:inline"/><rect id="rect15935" width="1" height="1" x="-140" y="143" style="fill:#bebebe;fill-opacity:1;stroke:none;display:inline"/><rect id="rect15937" width="1" height="1" x="-140" y="145" style="fill:#bebebe;fill-opacity:1;stroke:none;display:inline"/><rect id="rect15939" width="1" height="1" x="-140" y="147" style="fill:#bebebe;fill-opacity:1;stroke:none;display:inline"/><rect id="rect15941" width="1" height="1" x="-140" y="149" style="fill:#bebebe;fill-opacity:1;stroke:none;display:inline"/><rect id="rect15943" width="1" height="1" x="-140" y="151" style="fill:#bebebe;fill-opacity:1;stroke:none;display:inline"/><rect id="rect15945" width="1" height="1" x="-140" y="153" style="fill:#bebebe;fill-opacity:1;stroke:none;display:inline"/><rect id="rect15947" width="1" height="1" x="-140" y="155" style="fill:#bebebe;fill-opacity:1;stroke:none;display:inline"/><rect id="rect15949" width="1" height="1" x="-140" y="157" style="fill:#bebebe;fill-opacity:1;stroke:none;display:inline"/><rect id="rect15951" width="1" height="1" x="-138" y="157" style="fill:#bebebe;fill-opacity:1;stroke:none;display:inline"/><rect id="rect15953" width="1" height="1" x="-136" y="157" style="fill:#bebebe;fill-opacity:1;stroke:none;display:inline"/><rect id="rect15955" width="1" height="1" x="-134" y="157" style="fill:#bebebe;fill-opacity:1;stroke:none;display:inline"/><rect id="rect15957" width="1" height="1" x="-132" y="157" style="fill:#bebebe;fill-opacity:1;stroke:none;display:inline"/><rect id="rect15959" width="1" height="1" x="-130" y="157" style="fill:#bebebe;fill-opacity:1;stroke:none;display:inline"/><rect id="rect15961" width="1" height="1" x="-128" y="157" style="fill:#bebebe;fill-opacity:1;stroke:none;display:inline"/><rect id="rect15963" width="1" height="1" x="-126" y="157" style="fill:#bebebe;fill-opacity:1;stroke:none;display:inline"/><rect id="rect15965" width="1" height="1" x="-126" y="155" style="fill:#bebebe;fill-opacity:1;stroke:none;display:inline"/><rect id="rect15967" width="1" height="1" x="-126" y="153" style="fill:#bebebe;fill-opacity:1;stroke:none;display:inline"/><rect id="rect15969" width="1" height="1" x="-126" y="151" style="fill:#bebebe;fill-opacity:1;stroke:none;display:inline"/><rect id="rect15971" width="1" height="1" x="-126" y="149" style="fill:#bebebe;fill-opacity:1;stroke:none;display:inline"/><rect id="rect15973" width="1" height="1" x="-126" y="147" style="fill:#bebebe;fill-opacity:1;stroke:none;display:inline"/><rect id="rect15975" width="1" height="1" x="-126" y="145" style="fill:#bebebe;fill-opacity:1;stroke:none;display:inline"/><rect id="rect15977" width="1" height="1" x="-126" y="143" style="fill:#bebebe;fill-opacity:1;stroke:none;display:inline"/><rect id="rect15979" width="1" height="1" x="-128" y="143" style="fill:#bebebe;fill-opacity:1;stroke:none;display:inline"/><rect id="rect15981" width="1" height="1" x="-130" y="143" style="fill:#bebebe;fill-opacity:1;stroke:none;display:inline"/><rect id="rect15983" width="5" height="1" x="-132" y="155" style="fill:#bebebe;fill-opacity:1;stroke:none;display:inline"/></g></svg>