<svg xmlns="http://www.w3.org/2000/svg" xmlns:svg="http://www.w3.org/2000/svg" id="svg7384" width="16" height="16" version="1.1"><metadata id="metadata90"/><title id="title9167">Gnome Symbolic Icon Theme</title><defs id="defs7386"><filter id="filter12578-8" color-interpolation-filters="sRGB"><feGaussianBlur id="feGaussianBlur12580-4" stdDeviation=".015"/></filter><filter id="filter12586-1" color-interpolation-filters="sRGB"><feGaussianBlur id="feGaussianBlur12588-8" stdDeviation=".02"/></filter></defs><g id="layer1" transform="translate(80.000002,-262)"><path id="path6311" d="m -79,263 0,14 14,0 0,-14 -14,0 z m 1,1 12,0 0,12 -12,0 0,-12 z" style="fill:#bebebe;fill-opacity:1;stroke:none"/><rect id="rect6313" width="2" height="10" x="-77" y="265" style="fill:#bebebe;fill-opacity:1;stroke:none"/><rect id="rect6317" width="1" height="1" x="-75" y="265" style="fill:#bebebe;fill-opacity:1;stroke:none"/><rect id="rect6321" width="1" height="1" x="-75" y="267" style="fill:#bebebe;fill-opacity:1;stroke:none"/><rect id="rect6325" width="1" height="1" x="-75" y="269" style="fill:#bebebe;fill-opacity:1;stroke:none"/><rect id="rect6329" width="1" height="1" x="-75" y="271" style="fill:#bebebe;fill-opacity:1;stroke:none"/><rect id="rect6333" width="1" height="1" x="-75" y="273" style="fill:#bebebe;fill-opacity:1;stroke:none"/><rect id="rect6335" width="1" height="1" x="-73" y="266" style="opacity:.3;fill:#bebebe;fill-opacity:1;stroke:none"/><rect id="rect6337" width="1" height="1" x="-73" y="268" style="opacity:.3;fill:#bebebe;fill-opacity:1;stroke:none"/><rect id="rect6339" width="1" height="1" x="-73" y="270" style="opacity:.3;fill:#bebebe;fill-opacity:1;stroke:none"/><rect id="rect6341" width="1" height="1" x="-73" y="272" style="opacity:.3;fill:#bebebe;fill-opacity:1;stroke:none"/><rect id="rect6343" width="1" height="1" x="-73" y="274" style="opacity:.3;fill:#bebebe;fill-opacity:1;stroke:none"/><rect id="rect6355" width="1" height="10" x="-74" y="265" rx="2" ry="0" style="opacity:.3;fill:#bebebe;fill-opacity:1;stroke:none"/><rect id="rect6500" width="2" height="10" x="67" y="265" transform="scale(-1,1)" style="fill:#bebebe;fill-opacity:1;stroke:none"/><rect id="rect6502" width="1" height="1" x="69" y="265" transform="scale(-1,1)" style="fill:#bebebe;fill-opacity:1;stroke:none"/><rect id="rect6504" width="1" height="1" x="69" y="267" transform="scale(-1,1)" style="fill:#bebebe;fill-opacity:1;stroke:none"/><rect id="rect6506" width="1" height="1" x="69" y="269" transform="scale(-1,1)" style="fill:#bebebe;fill-opacity:1;stroke:none"/><rect id="rect6508" width="1" height="1" x="69" y="271" transform="scale(-1,1)" style="fill:#bebebe;fill-opacity:1;stroke:none"/><rect id="rect6510" width="1" height="1" x="69" y="273" transform="scale(-1,1)" style="fill:#bebebe;fill-opacity:1;stroke:none"/><rect id="rect6512" width="1" height="1" x="71" y="265" transform="scale(-1,1)" style="opacity:.3;fill:#bebebe;fill-opacity:1;stroke:none"/><rect id="rect6514" width="1" height="1" x="71" y="267" transform="scale(-1,1)" style="opacity:.3;fill:#bebebe;fill-opacity:1;stroke:none"/><rect id="rect6516" width="1" height="1" x="71" y="269" transform="scale(-1,1)" style="opacity:.3;fill:#bebebe;fill-opacity:1;stroke:none"/><rect id="rect6518" width="1" height="1" x="71" y="270.74" transform="scale(-1,1)" style="opacity:.3;fill:#bebebe;fill-opacity:1;stroke:none"/><rect id="rect6520" width="1" height="1" x="71" y="273" transform="scale(-1,1)" style="opacity:.3;fill:#bebebe;fill-opacity:1;stroke:none"/><rect id="rect6522" width="1" height="10" x="70" y="265" rx="2" ry="0" transform="scale(-1,1)" style="opacity:.3;fill:#bebebe;fill-opacity:1;stroke:none"/></g></svg>