<svg xmlns="http://www.w3.org/2000/svg" xmlns:svg="http://www.w3.org/2000/svg" id="svg7384" width="16" height="16" version="1.1"><metadata id="metadata90"/><title id="title9167">Gnome Symbolic Icon Theme</title><defs id="defs7386"><filter id="filter12578-8" color-interpolation-filters="sRGB"><feGaussianBlur id="feGaussianBlur12580-4" stdDeviation=".015"/></filter><filter id="filter12586-1" color-interpolation-filters="sRGB"><feGaussianBlur id="feGaussianBlur12588-8" stdDeviation=".02"/></filter></defs><g id="layer1" transform="translate(180,-282)"><path id="rect6886" d="m -179,283 0,14 14,0 0,-14 -14,0 z m 1,1 12,0 0,12 -12,0 0,-12 z" style="fill:#bebebe;fill-opacity:1;stroke:none"/><path id="path6891" d="m -167.99999,290 a 3.7696295,4 0 1 1 -7.53926,0 3.7696295,4 0 1 1 7.53926,0 z" transform="matrix(1.0611131,0,0,1,10.26701,0)" style="fill:#bebebe;fill-opacity:1;stroke:none"/><path id="path6893" d="m -172,284 c -3.31371,0 -6,2.68629 -6,6 0,3.31371 2.68629,6 6,6 3.31371,0 6,-2.68629 6,-6 0,-3.31371 -2.68629,-6 -6,-6 z m 0,2 c 2.20914,0 4,1.79086 4,4 0,2.20914 -1.79086,4 -4,4 -2.20914,0 -4,-1.79086 -4,-4 0,-2.20914 1.79086,-4 4,-4 z" style="opacity:.3;fill:#bebebe;fill-opacity:1;stroke:none"/></g></svg>