<svg xmlns="http://www.w3.org/2000/svg" xmlns:svg="http://www.w3.org/2000/svg" id="svg7384" width="16" height="16" version="1.1"><metadata id="metadata90"/><title id="title9167">Gnome Symbolic Icon Theme</title><defs id="defs7386"><filter id="filter12578-8" color-interpolation-filters="sRGB"><feGaussianBlur id="feGaussianBlur12580-4" stdDeviation=".015"/></filter><filter id="filter12586-1" color-interpolation-filters="sRGB"><feGaussianBlur id="feGaussianBlur12588-8" stdDeviation=".02"/></filter></defs><g id="layer1" transform="translate(140,-302)"><g id="g7781" transform="translate(-742.0002,2)" style="display:inline"><path id="path11075" d="m 602.0002,301.99999 0,12 13,10e-6 3,-3 0,0 0,-9.00001 z m 1,1.00001 14,0 0,7 -3,0 0,3 -11,0 z" style="font-size:medium;font-style:normal;font-variant:normal;font-weight:400;font-stretch:normal;text-indent:0;text-align:start;text-decoration:none;line-height:normal;letter-spacing:normal;word-spacing:normal;text-transform:none;direction:ltr;block-progression:tb;writing-mode:lr-tb;text-anchor:start;baseline-shift:baseline;color:#000;fill:#bebebe;fill-opacity:1;fill-rule:nonzero;stroke:none;stroke-width:2;marker:none;visibility:visible;display:inline;overflow:visible;enable-background:new;font-family:Sans;-inkscape-font-specification:Sans"/></g><path id="path22208" d="m -129,307 -4.4375,6.125 L -136,311 l -2,3 9,0 0,-3 3,0 z" style="opacity:.3;fill:#bebebe;fill-opacity:1;stroke:none"/><path id="path22229" d="m -127,307.5 a 2,1.5 0 1 1 -4,0 2,1.5 0 1 1 4,0 z" transform="matrix(0.765625,0,0,0.99999997,-36.20314,0.5)" style="opacity:.3;fill:#bebebe;fill-opacity:1;stroke:none"/></g></svg>