<svg xmlns="http://www.w3.org/2000/svg" xmlns:svg="http://www.w3.org/2000/svg" id="svg7384" width="16" height="16" version="1.1"><metadata id="metadata90"/><title id="title9167">Gnome Symbolic Icon Theme</title><defs id="defs7386"><filter id="filter12578-8" color-interpolation-filters="sRGB"><feGaussianBlur id="feGaussianBlur12580-4" stdDeviation=".015"/></filter><filter id="filter12586-1" color-interpolation-filters="sRGB"><feGaussianBlur id="feGaussianBlur12588-8" stdDeviation=".02"/></filter></defs><g id="layer1" transform="translate(80,-362)"><g id="g7320" transform="translate(-221.0002,-217)"><g id="g7322" transform="translate(100,0)"><path id="path7326" d="m 42.15645,583 c -0.63314,0 -1.15625,0.446 -1.15625,1 l 0,10 c 0,0.554 0.52311,1 1.15625,1 l 13.6875,0 c 0.63314,0 1.15625,-0.446 1.15625,-1 l 0,-10 c 0,-0.554 -0.52311,-1 -1.15625,-1 l -13.6875,0 z m 1.84375,2 8,0 c 0.554,0 1,0.446 1,1 l 0,6 c 0,0.554 -0.446,1 -1,1 l -8,0 c -0.554,0 -1,-0.446 -1,-1 l 0,-6 c 0,-0.554 0.446,-1 1,-1 z m 11,0 c 0.55228,0 1,0.44772 1,1 0,0.55228 -0.44772,1 -1,1 -0.55228,0 -1,-0.44772 -1,-1 0,-0.55228 0.44772,-1 1,-1 z m 0,3 c 0.55228,0 1,0.44772 1,1 0,0.55228 -0.44772,1 -1,1 -0.55228,0 -1,-0.44772 -1,-1 0,-0.55228 0.44772,-1 1,-1 z" style="fill:#bebebe;fill-opacity:1;stroke:none"/><path id="path7328" d="m -190,365.5 c 0,0.82843 -0.89543,1.5 -2,1.5 -1.10457,0 -2,-0.67157 -2,-1.5 0,-0.82843 0.89543,-1.5 2,-1.5 1.10457,0 2,0.67157 2,1.5 z" transform="matrix(0.75,0,0,1.0000003,192.5002,217.9999)" style="fill:#bebebe;fill-opacity:1;stroke:none"/><path id="path7330" d="m 45.0002,580 3,3 0,0" style="fill:none;stroke:#bebebe;stroke-width:1px;stroke-linecap:round;stroke-linejoin:round;stroke-opacity:1"/><path id="path7332" d="m 52.0002,580 -3,3 0,0" style="fill:none;stroke:#bebebe;stroke-width:1px;stroke-linecap:round;stroke-linejoin:round;stroke-opacity:1"/></g></g><rect id="rect7344" width="1" height="1" x="-76" y="370" style="fill:#bebebe;fill-opacity:1;stroke:none"/><rect id="rect7346" width="1" height="1" x="-75" y="370" style="opacity:.3;fill:#bebebe;fill-opacity:1;stroke:none"/><rect id="rect7348" width="1" height="1" x="-74" y="370" style="fill:#bebebe;fill-opacity:1;stroke:none"/><rect id="rect7350" width="1" height="1" x="-73" y="370" style="opacity:.3;fill:#bebebe;fill-opacity:1;stroke:none"/><rect id="rect7368" width="1" height="1" x="-72" y="370" style="fill:#bebebe;fill-opacity:1;stroke:none"/><rect id="rect7370" width="1" height="1" x="-71" y="370" style="opacity:.3;fill:#bebebe;fill-opacity:1;stroke:none"/><rect id="rect7372" width="1" height="1" x="-76" y="372" style="fill:#bebebe;fill-opacity:1;stroke:none"/><rect id="rect7374" width="1" height="1" x="-75" y="372" style="opacity:.3;fill:#bebebe;fill-opacity:1;stroke:none"/><rect id="rect7376" width="1" height="1" x="-74" y="372" style="fill:#bebebe;fill-opacity:1;stroke:none"/><rect id="rect7378" width="1" height="1" x="-73" y="372" style="opacity:.3;fill:#bebebe;fill-opacity:1;stroke:none"/><rect id="rect7380" width="1" height="1" x="-72" y="372" style="fill:#bebebe;fill-opacity:1;stroke:none"/><rect id="rect7382" width="1" height="1" x="-71" y="372" style="opacity:.3;fill:#bebebe;fill-opacity:1;stroke:none"/><rect id="rect7408" width="1" height="1" x="-76" y="373" style="opacity:.3;fill:#bebebe;fill-opacity:1;stroke:none"/><rect id="rect7410" width="1" height="1" x="-75" y="373" style="fill:#bebebe;fill-opacity:1;stroke:none"/><rect id="rect7412" width="1" height="1" x="-74" y="373" style="opacity:.3;fill:#bebebe;fill-opacity:1;stroke:none"/><rect id="rect7414" width="1" height="1" x="-73" y="373" style="fill:#bebebe;fill-opacity:1;stroke:none"/><rect id="rect7416" width="1" height="1" x="-72" y="373" style="opacity:.3;fill:#bebebe;fill-opacity:1;stroke:none"/><rect id="rect7418" width="1" height="1" x="-71" y="373" style="fill:#bebebe;fill-opacity:1;stroke:none"/><rect id="rect7420" width="1" height="1" x="-76" y="371" style="opacity:.3;fill:#bebebe;fill-opacity:1;stroke:none"/><rect id="rect7422" width="1" height="1" x="-75" y="371" style="fill:#bebebe;fill-opacity:1;stroke:none"/><rect id="rect7424" width="1" height="1" x="-74" y="371" style="opacity:.3;fill:#bebebe;fill-opacity:1;stroke:none"/><rect id="rect7426" width="1" height="1" x="-73" y="371" style="fill:#bebebe;fill-opacity:1;stroke:none"/><rect id="rect7428" width="1" height="1" x="-72" y="371" style="opacity:.3;fill:#bebebe;fill-opacity:1;stroke:none"/><rect id="rect7430" width="1" height="1" x="-71" y="371" style="fill:#bebebe;fill-opacity:1;stroke:none"/></g></svg>