<svg xmlns="http://www.w3.org/2000/svg" xmlns:svg="http://www.w3.org/2000/svg" id="svg7384" width="16" height="16" version="1.1"><metadata id="metadata90"/><title id="title9167">Gnome Symbolic Icon Theme</title><defs id="defs7386"><filter id="filter12578-8" color-interpolation-filters="sRGB"><feGaussianBlur id="feGaussianBlur12580-4" stdDeviation=".015"/></filter><filter id="filter12586-1" color-interpolation-filters="sRGB"><feGaussianBlur id="feGaussianBlur12588-8" stdDeviation=".02"/></filter></defs><g id="layer1" transform="translate(180,-402)"><rect id="rect6775" width="2" height="6" x="-411" y="174" rx="1" ry="0" transform="matrix(0,-1,-1,0,0,0)" style="fill:#bebebe;fill-opacity:1;stroke:none"/><rect id="rect6777" width="2" height="6" x="-411" y="164" rx=".938" ry="0" transform="matrix(0,-1,-1,0,0,0)" style="fill:#bebebe;fill-opacity:1;stroke:none"/><path id="rect6791" d="m -176,405 c -1.108,0 -2,0.892 -2,2 l 0,6 c 0,1.108 0.892,2 2,2 l 8,0 c 1.108,0 2,-0.892 2,-2 l 0,-6 c 0,-1.108 -0.892,-2 -2,-2 l -8,0 z m 1,2 6,0 c 0.554,0 1,0.446 1,1 l 0,4 c 0,0.554 -0.446,1 -1,1 l -6,0 c -0.554,0 -1,-0.446 -1,-1 l 0,-4 c 0,-0.554 0.446,-1 1,-1 z" style="fill:#bebebe;fill-opacity:1;stroke:none"/></g></svg>