<svg xmlns="http://www.w3.org/2000/svg" xmlns:svg="http://www.w3.org/2000/svg" id="svg7384" width="16" height="16" version="1.1"><metadata id="metadata90"/><title id="title9167">Gnome Symbolic Icon Theme</title><defs id="defs7386"><filter id="filter12578-8" color-interpolation-filters="sRGB"><feGaussianBlur id="feGaussianBlur12580-4" stdDeviation=".015"/></filter><filter id="filter12586-1" color-interpolation-filters="sRGB"><feGaussianBlur id="feGaussianBlur12588-8" stdDeviation=".02"/></filter></defs><g id="layer1" transform="translate(60.000002,-242)"><rect id="rect12529" width="1" height="2" x="-57" y="246" style="fill:#bebebe;fill-opacity:1;stroke:none"/><rect id="rect12533" width="2" height="1" x="190" y="470" transform="matrix(1.9562507,0,0,1,-425.60052,-217)" style="opacity:.3;fill:#bebebe;fill-opacity:1;stroke:none;filter:url(#filter12578-8)"/><rect id="rect12537" width="1" height="4" x="-48" y="248" ry="0" style="opacity:.3;fill:#bebebe;fill-opacity:1;stroke:none"/><rect id="rect12539" width="1" height="1" x="-48" y="247" style="fill:#bebebe;fill-opacity:1;stroke:none"/><rect id="rect12543" width="4" height="1" x="-54" y="246" ry="0" style="opacity:.3;fill:#bebebe;fill-opacity:1;stroke:none"/><rect id="rect12545" width="1" height="1" x="-48" y="252" ry="0" style="fill:#bebebe;fill-opacity:1;stroke:none"/><rect id="rect12549" width="1" height="3" x="-57" y="248" style="opacity:.3;fill:#bebebe;fill-opacity:1;stroke:none;filter:url(#filter12586-1)"/><rect id="rect12551" width="1" height="2" x="-57" y="251" style="fill:#bebebe;fill-opacity:1;stroke:none"/><rect id="rect12553" width="2.93" height="1" x="-49.93" y="253" style="fill:#bebebe;fill-opacity:1;stroke:none"/><rect id="rect12555" width="3" height="1" x="-50" y="246" style="fill:#bebebe;fill-opacity:1;stroke:none"/><rect id="rect12557" width="3" height="1" x="-57" y="253" style="fill:#bebebe;fill-opacity:1;stroke:none"/><rect id="rect12559" width="2" height="1" x="-56" y="246" style="fill:#bebebe;fill-opacity:1;stroke:none"/><rect id="rect12919-5" width="1" height="1" x="-60" y="257" style="color:#000;fill:#bdbdbd;fill-opacity:1;stroke:none;stroke-width:2;marker:none;visibility:visible;display:inline;overflow:visible;enable-background:new"/><path id="path30067" d="m -60,257 2.53033,-2.53033 0.93934,1.06066 L -59,258 z" style="fill:#bebebe;fill-opacity:1;stroke:none"/><rect id="rect30074" width="1" height="4" x="-60" y="254" style="fill:#bebebe;fill-opacity:1;stroke:none"/><rect id="rect30076" width="3" height="1" x="-59" y="257" style="fill:#bebebe;fill-opacity:1;stroke:none"/><path id="path30078" d="m -44,243 -2.53033,2.48614 -1,-1 L -45,242 z" style="fill:#bebebe;fill-opacity:1;stroke:none"/><rect id="rect30080" width="1" height="4" x="44" y="-246" transform="scale(-1,-1)" style="fill:#bebebe;fill-opacity:1;stroke:none"/><rect id="rect30082" width="3" height="1" x="45" y="-243" transform="scale(-1,-1)" style="fill:#bebebe;fill-opacity:1;stroke:none"/><path id="path30084" d="m -60,243 2.53033,2.48614 1,-1 L -59,242 z" style="fill:#bebebe;fill-opacity:1;stroke:none"/><rect id="rect30086" width="1" height="4" x="-60" y="-246" transform="scale(1,-1)" style="fill:#bebebe;fill-opacity:1;stroke:none"/><rect id="rect30088" width="3" height="1" x="-59" y="-243" transform="scale(1,-1)" style="fill:#bebebe;fill-opacity:1;stroke:none"/><path id="path30090" d="m -44,257 -2.53033,-2.48614 -1,1 L -45,258 z" style="fill:#bebebe;fill-opacity:1;stroke:none"/><rect id="rect30092" width="1" height="4" x="44" y="254" transform="scale(-1,1)" style="fill:#bebebe;fill-opacity:1;stroke:none"/><rect id="rect30094" width="3" height="1" x="45" y="257" transform="scale(-1,1)" style="fill:#bebebe;fill-opacity:1;stroke:none"/></g></svg>