<svg xmlns="http://www.w3.org/2000/svg" xmlns:svg="http://www.w3.org/2000/svg" id="svg7384" width="16" height="16" version="1.1"><metadata id="metadata90"/><title id="title9167">Gnome Symbolic Icon Theme</title><defs id="defs7386"><filter id="filter12578-8" color-interpolation-filters="sRGB"><feGaussianBlur id="feGaussianBlur12580-4" stdDeviation=".015"/></filter><filter id="filter12586-1" color-interpolation-filters="sRGB"><feGaussianBlur id="feGaussianBlur12588-8" stdDeviation=".02"/></filter></defs><g id="layer1" transform="translate(79.999997,-422)"><g id="g11078" transform="translate(-581.00018,21)" style="display:inline"><path id="path9278" d="m 509.0002,401 c -4.40471,0 -8,3.59527 -8,8 0,4.40472 3.59529,8 8,8 4.40472,0 8,-3.59528 8,-8 0,-4.40473 -3.59528,-8 -8,-8 z m 0,2.1875 c 3.22175,0 5.8125,2.59075 5.8125,5.8125 0,3.22176 -2.59075,5.8125 -5.8125,5.8125 -3.22175,0 -5.8125,-2.59074 -5.8125,-5.8125 0,-3.22175 2.59075,-5.8125 5.8125,-5.8125 z" style="font-size:medium;font-style:normal;font-variant:normal;font-weight:400;font-stretch:normal;text-indent:0;text-align:start;text-decoration:none;line-height:normal;letter-spacing:normal;word-spacing:normal;text-transform:none;direction:ltr;block-progression:tb;writing-mode:lr-tb;text-anchor:start;color:#bebebe;fill:#bebebe;fill-opacity:1;stroke:none;stroke-width:1.47313595;marker:none;visibility:visible;display:inline;overflow:visible;enable-background:new;font-family:Sans;-inkscape-font-specification:Sans"/><path id="path11004" d="m 509.14998,403.96071 0.48646,0.19901 -0.22111,0.57489 c -0.28103,0.12998 -0.54457,0.24026 -0.84024,0.33167 l -0.199,0.30956 -0.15477,0.0885 L 508.0002,405 l 0.17689,-0.17688 0,-0.17689 -0.44222,-0.28745 0.13266,-0.13267 0.70756,-0.199 0.57489,-0.0663 z" style="fill:#bebebe;fill-opacity:1;fill-rule:nonzero;stroke:none"/><path id="path11002" d="m 265.03125,187.90625 -0.0937,0.21875 c 0,0 -0.1463,0.0525 -0.1875,0.0625 -0.26454,0.24021 -0.69407,0.62255 -1.0625,1.1875 -0.0921,0.14124 -0.16475,0.27221 -0.25,0.4375 -0.0363,0.0752 -0.0924,0.14159 -0.125,0.21875 -0.0462,0.10074 -0.0832,0.20329 -0.125,0.3125 -0.0174,0.0502 -0.0154,0.10531 -0.0313,0.15625 -0.12516,0.4024 -0.19776,0.81161 -0.21875,1.25 0.0563,0.0907 0.125,0.21875 0.125,0.21875 l 0.375,0.25 0.4375,0.125 0.125,0.1875 0.28125,0.1875 0.15625,-0.0313 0.125,0.0625 0,0.0313 -0.15625,0.4375 -0.125,0.1875 0.0313,0.0625 -0.0625,0.3125 0.3125,0.65625 0.34375,0.3125 0.15625,0.1875 -0.0313,0.46875 0.0937,0.28125 -0.0937,0.4375 c 0.22103,0.15942 0.47306,0.28346 0.71875,0.40625 l -0.0313,-0.125 0.15625,-0.15625 0.0625,-0.15625 0.25,-0.0625 0.21875,-0.5 -0.0937,-0.125 0.125,-0.1875 0.28125,-0.0625 0.1875,-0.34375 -0.0625,-0.4375 0.25,-0.3125 0.0313,-0.3125 c -0.31304,-0.1581 -0.59558,-0.3373 -0.90625,-0.5 l -0.1875,-0.3125 -0.25,-0.0625 -0.1875,-0.40625 -0.375,0.0313 -0.3125,-0.25 -0.34375,0.3125 0,0.0313 c -0.10403,-0.0309 -0.25135,-0.005 -0.34375,-0.0625 l -0.0625,-0.25 0,-0.21875 -0.21875,0.0313 c 0.0202,-0.15156 0.0422,-0.31723 0.0625,-0.46875 l -0.125,0.0313 -0.15625,0.15625 -0.125,0.0313 -0.1875,-0.0937 0,-0.21875 0.0313,-0.28125 0.28125,-0.1875 0.21875,-0.0313 0.0625,-0.125 0.28125,0.0625 0.1875,0.28125 0.0313,-0.4375 0.375,-0.28125 0.15625,-0.34375 0.28125,-0.0937 0.125,-0.25 0.34375,-0.0625 0.1875,-0.25 -0.5,0 0.28125,-0.125 0.25,0 0.3125,-0.125 0.0625,-0.125 -0.125,-0.125 -0.125,-0.0313 0.0313,-0.125 -0.0937,-0.1875 -0.21875,0.0625 0.0313,-0.1875 -0.28125,-0.125 -0.1875,0.34375 0,0.15625 -0.21875,0.0937 -0.125,0.28125 -0.0313,-0.28125 -0.40625,-0.15625 -0.0313,-0.1875 0.46875,-0.25 0.21875,-0.21875 0.0313,-0.25 -0.125,-0.0625 -0.15625,0 z" transform="translate(241.0002,217)" style="fill:#bebebe;fill-opacity:1;fill-rule:nonzero;stroke:none"/><path id="path8991" d="m 269.75,187.25 -0.28125,0.0625 -0.28125,0.1875 0,0.125 -0.375,0.28125 0.0625,0.34375 0.25,-0.15625 0.15625,0.15625 0.15625,0.0937 0.0937,-0.28125 -0.0625,-0.15625 0.0625,-0.0937 0.25,-0.21875 0.0937,0 -0.0937,0.21875 0,0.21875 c 0.0954,-0.026 0.18365,-0.0504 0.28125,-0.0625 l -0.28125,0.1875 0,0.125 -0.3125,0.25 -0.3125,-0.0625 0,-0.1875 -0.15625,0.0937 0.0625,0.15625 -0.21875,0 -0.15625,0.21875 -0.15625,0.1875 -0.2812,0.0625 0.1875,0.15625 0.0313,0.15625 -0.21875,0 -0.25,0.15625 0,0.40625 0.125,0 0.125,0.125 0.25,-0.125 0.0937,-0.25 0.1875,-0.125 0.0625,-0.0937 0.3125,-0.0625 0.15625,0.1875 0.15625,0.0937 -0.0937,0.21875 0.1875,-0.0625 0.0625,-0.21875 -0.1875,-0.21875 0.0625,0 0.21875,0.15625 0.0625,0.25 0.15625,0.21875 0.0625,-0.3125 0.0937,-0.0625 c 0.10263,0.10657 0.19475,0.25508 0.28125,0.375 l 0.3125,0 0.21875,0.75 c -0.096,0.088 -0.18315,0.1644 -0.28125,0.25 l -0.25,0 -0.375,-0.0937 -0.15625,0 -0.15625,0.1875 -0.375,-0.40625 -0.25,-0.0625 -0.40625,0.0625 -0.5,0.1875 c -0.19803,0.2245 -0.25007,0.32933 -0.4375,0.5625 l 0.0313,0.34375 0.0937,0.0937 -0.1875,0.28125 0.1875,0.5 c 0.17652,0.19969 0.35499,0.39391 0.53125,0.59375 l 0.28125,-0.2187 0.125,0.125 0.25,-0.1875 0.0937,0.125 0.28125,0 0.1875,0.15625 -0.125,0.34375 0.21875,0.21875 -0.0313,0.375 0.15625,0.28125 -0.0937,0.25 c -0.0102,0.1729 -0.0313,0.35833 -0.0313,0.53125 0.0851,0.23428 0.13835,0.45153 0.21875,0.6875 l 0.0937,0.40625 0,0.15625 0.125,0 0.25,-0.125 0.25,0 c 0.004,-0.003 -0.004,-0.0287 0,-0.0313 l 0.4375,-0.4375 -0.0625,-0.15625 0.25,-0.25 -0.1875,-0.1875 0.25,-0.21875 0.21875,-0.125 0.0937,-0.125 -0.0625,-0.25 0,-0.65625 0.21875,-0.40625 0.1875,-0.28125 0.28125,-0.59375 0,-0.15625 c -0.11737,0.014 -0.26027,0.0223 -0.375,0.0313 l 0.25,-0.25 0.34375,-0.25 0.1875,-0.21875 0,-0.21875 c -0.0415,-0.0784 -0.0832,-0.14045 -0.125,-0.21875 l -0.15625,0.1875 -0.125,-0.15625 -0.1875,-0.125 0,-0.3125 0.21875,0.21875 0.21875,0 c 0.10875,0.0987 0.2172,0.20003 0.3125,0.3125 L 273,191.25 c -0.35553,-1.32619 -0.82728,-2.13567 -1.40625,-2.84375 -0.0104,-0.0104 -0.0208,-0.021 -0.0313,-0.0313 -0.2705,-0.26589 -0.58192,-0.48708 -0.90625,-0.6875 l -0.15625,0.15625 -0.28125,-0.28125 0.21875,0 c -0.21959,-0.12123 -0.4496,-0.22433 -0.6875,-0.3125 z" transform="translate(241.0002,217)" style="fill:#bebebe;fill-opacity:1;fill-rule:nonzero;stroke:none"/></g></g></svg>