<svg xmlns="http://www.w3.org/2000/svg" xmlns:svg="http://www.w3.org/2000/svg" id="svg7384" width="16" height="16" version="1.1"><metadata id="metadata90"/><title id="title9167">Gnome Symbolic Icon Theme</title><defs id="defs7386"><filter id="filter12578-8" color-interpolation-filters="sRGB"><feGaussianBlur id="feGaussianBlur12580-4" stdDeviation=".015"/></filter><filter id="filter12586-1" color-interpolation-filters="sRGB"><feGaussianBlur id="feGaussianBlur12588-8" stdDeviation=".02"/></filter></defs><g id="layer1" transform="translate(160,-222)"><path id="rect5232" d="m -156,224 c -1.108,0 -2,0.892 -2,2 l 0,8 c 0,1.108 0.892,2 2,2 l 8,0 c 1.108,0 2,-0.892 2,-2 l 0,-8 c 0,-1.108 -0.892,-2 -2,-2 l -8,0 z m 0.4375,1 7.125,0 c 0.78971,0 1.4375,0.64779 1.4375,1.4375 l 0,7.125 c 0,0.78971 -0.64779,1.4375 -1.4375,1.4375 l -7.125,0 c -0.78971,0 -1.4375,-0.64779 -1.4375,-1.4375 l 0,-7.125 c 0,-0.78971 0.64779,-1.4375 1.4375,-1.4375 z" style="fill:#bebebe;fill-opacity:1;stroke:none"/><path id="path5241" d="m -149,233 0,-6 -6.55806,3 z" style="fill:#bebebe;fill-opacity:1;stroke:none"/></g></svg>