<svg xmlns="http://www.w3.org/2000/svg" xmlns:svg="http://www.w3.org/2000/svg" id="svg7384" width="16" height="16" version="1.1"><metadata id="metadata90"/><title id="title9167">Gnome Symbolic Icon Theme</title><defs id="defs7386"><filter id="filter12578-8" color-interpolation-filters="sRGB"><feGaussianBlur id="feGaussianBlur12580-4" stdDeviation=".015"/></filter><filter id="filter12586-1" color-interpolation-filters="sRGB"><feGaussianBlur id="feGaussianBlur12588-8" stdDeviation=".02"/></filter></defs><g id="layer1" transform="translate(180,-202)"><path id="path10650" d="m -169,207 -1,0 -5,5.00001 0,0.99999 1,0 5,-5.00001 z" style="fill:#bebebe;fill-opacity:1;stroke:none"/><path id="path10652" d="m -175,207 1,0 5,5.00001 0,0.99999 -1,0 -5,-5.00001 z" style="fill:#bebebe;fill-opacity:1;stroke:none"/><path id="path11440" d="m -172,203 c -3.86599,0 -7,3.13401 -7,7 0,3.86599 3.13401,7 7,7 3.86599,0 7,-3.13401 7,-7 0,-3.86599 -3.13401,-7 -7,-7 z m 0,2 c 2.76143,0 5,2.23857 5,5 0,2.76142 -2.23857,5 -5,5 -2.76143,0 -5,-2.23858 -5,-5 0,-2.76143 2.23857,-5 5,-5 z" style="fill:#bebebe;fill-opacity:1;stroke:none"/></g></svg>