<svg xmlns="http://www.w3.org/2000/svg" xmlns:svg="http://www.w3.org/2000/svg" id="svg7384" width="16" height="16" version="1.1"><metadata id="metadata90"/><title id="title9167">Gnome Symbolic Icon Theme</title><defs id="defs7386"><filter id="filter12578-8" color-interpolation-filters="sRGB"><feGaussianBlur id="feGaussianBlur12580-4" stdDeviation=".015"/></filter><filter id="filter12586-1" color-interpolation-filters="sRGB"><feGaussianBlur id="feGaussianBlur12588-8" stdDeviation=".02"/></filter></defs><g id="layer1" transform="translate(60,-142)"><g id="g16133" transform="matrix(-0.05495446,0,0,0.05788099,-45.08441,141.1862)" style="fill:#bebebe;fill-opacity:1"><path id="path16135" d="M -52.43815,147 -53,147 l 0,2 -3,0 0,1 3,0 0,5 0,1 c -1.164726,0.27623 -2.467861,-0.46036 -3.46875,-1.3125 l 0.71875,-0.5 c 0.24954,-0.15638 0.27497,-0.58768 0.03125,-0.71875 l -0.875,-0.46875 -0.46875,-0.25 -1.34375,-0.6875 c -0.04412,-0.0268 -0.0732,-0.0555 -0.125,-0.0625 -0.22288,-0.0122 -0.47075,0.20092 -0.46875,0.4375 l 0,1.625 0,1.625 c 0.005,0.29142 0.38819,0.4813 0.625,0.3125 l 1.0625,-0.75 c 1.173875,1.1755 3.1634,2.75 5.3125,2.75 l 0.0625,0 c 2.138502,0 4.10519,-1.57624 5.28125,-2.75 l 1,0.65625 c 0.23681,0.16496 0.58875,0.004 0.59375,-0.28125 l 0,-1.59375 0,-1.59375 c 0.002,-0.23119 -0.21462,-0.4495 -0.4375,-0.4375 -0.0518,0.007 -0.11213,0.0363 -0.15625,0.0625 l -1.1875,0.625 -0.125,0.0625 -1.34375,0.65625 c -0.24372,0.12809 -0.24954,0.56593 0,0.71875 l 0.8125,0.5625 c -0.998337,0.84536 -2.342466,1.58702 -3.5,1.3125 l 0,-1 0,-5 3,0 0,-1 -3,0 0,-2 -0.75,0 z" transform="matrix(-18.196885,0,0,17.27683,-820.39583,-2439.2499)" style="fill:#bebebe;fill-opacity:1"/></g><path id="path16167" d="m -52,142 c -1.65688,0 -3,1.34311 -3,3 0,1.65686 1.34312,3 3,3 1.65686,0 3,-1.34314 3,-3 0,-1.65689 -1.34314,-3 -3,-3 z m 0,1.5 c 0.81356,0 1.5,0.6856 1.5,1.5 0,0.8144 -0.68644,1.5 -1.5,1.5 -0.81356,0 -1.5,-0.6856 -1.5,-1.5 0,-0.8144 0.68644,-1.5 1.5,-1.5 z" style="fill:#bebebe;fill-opacity:1;stroke:none"/></g></svg>