<svg xmlns="http://www.w3.org/2000/svg" xmlns:svg="http://www.w3.org/2000/svg" id="svg7384" width="16" height="16" version="1.1"><metadata id="metadata90"/><title id="title9167">Gnome Symbolic Icon Theme</title><defs id="defs7386"><filter id="filter12578-8" color-interpolation-filters="sRGB"><feGaussianBlur id="feGaussianBlur12580-4" stdDeviation=".015"/></filter><filter id="filter12586-1" color-interpolation-filters="sRGB"><feGaussianBlur id="feGaussianBlur12588-8" stdDeviation=".02"/></filter></defs><g id="layer1" transform="translate(180,-142)"><path id="path15888" d="m -176,155 -4,-4 8,0 z" style="fill:#bebebe;fill-opacity:1;stroke:none"/><path id="path15890" d="m -164,150.5 c 0,0.17107 -0.0183,0.33226 -0.0313,0.5 l -2.03125,0 c 0.0187,-0.16677 0.0625,-0.32822 0.0625,-0.5 0,-2.48528 -2.01472,-4.5 -4.5,-4.5 -2.48528,0 -4.5,2.01472 -4.5,4.5 0,0.17178 0.0438,0.33323 0.0625,0.5 l -2.03125,0 c -0.013,-0.16774 -0.0313,-0.32893 -0.0313,-0.5 0,-3.58985 2.91014,-6.5 6.5,-6.5 3.58986,0 6.5,2.91015 6.5,6.5 z" style="fill:#bebebe;fill-opacity:1;stroke:none"/></g></svg>