<svg xmlns="http://www.w3.org/2000/svg" xmlns:svg="http://www.w3.org/2000/svg" id="svg7384" width="15.974" height="16.009" version="1.1"><metadata id="metadata90"/><title id="title9167">Gnome Symbolic Icon Theme</title><defs id="defs7386"><filter id="filter12578-8" color-interpolation-filters="sRGB"><feGaussianBlur id="feGaussianBlur12580-4" stdDeviation=".015"/></filter><filter id="filter12586-1" color-interpolation-filters="sRGB"><feGaussianBlur id="feGaussianBlur12588-8" stdDeviation=".02"/></filter></defs><g id="layer1" transform="translate(60.026436,-182)"><g id="g10558" transform="translate(-241.0002,-217)"><g id="g13343" transform="translate(-200.02624,-268.03125)" style="display:inline"><g id="g13307" transform="matrix(0.9983463,0,0,1,201.29767,21.03125)" style="display:inline"><path id="path13311" d="m 125,562.96875 -1.96875,0.0312 0,-11 4.5625,0 3.40625,3.40625 0,1.5625 2,0 0,-2 c -0.002,-0.26843 -0.11756,-0.53419 -0.3125,-0.71875 l -3.96875,-3.9375 C 128.53419,550.11756 128.26843,550.00201 128,550 l -5.96875,0 c -0.52358,5e-5 -0.99995,0.47642 -1,1 l 0,12 0,0.25 0,0.71875 c 5e-5,0.52358 0.47642,0.99995 1,1 l 4.96875,0 z" transform="translate(61.0002,97)" style="font-size:medium;font-style:normal;font-variant:normal;font-weight:400;font-stretch:normal;text-indent:0;text-align:start;text-decoration:none;line-height:normal;letter-spacing:normal;word-spacing:normal;text-transform:none;direction:ltr;block-progression:tb;writing-mode:lr-tb;text-anchor:start;baseline-shift:baseline;color:#000;fill:#bebebe;fill-opacity:1;stroke:none;stroke-width:2;marker:none;visibility:visible;display:inline;overflow:visible;enable-background:accumulate;font-family:Sans;-inkscape-font-specification:Sans"/></g></g></g><path id="path11654" d="m -55,192 4,-4 0,8 z" style="fill:#bebebe;fill-opacity:1;stroke:none"/><g id="g35733-6-3" transform="matrix(1,0,0,-1,-159.9996,513.9779)" style="display:inline"><path id="path11656" d="m 112.39765,316.91754 0.4349,0 c 1.20095,0 2.17451,1.13618 2.17451,2.53772 0,1.40154 -0.97356,2.53772 -2.17451,2.53772 l -5.65373,0" style="color:#000;fill:none;stroke:#bebebe;stroke-width:1.87928438;stroke-linecap:butt;stroke-linejoin:miter;stroke-miterlimit:4;stroke-opacity:1;stroke-dashoffset:0;marker:none;visibility:visible;display:inline;overflow:visible;enable-background:accumulate"/></g></g></svg>