<svg xmlns="http://www.w3.org/2000/svg" xmlns:svg="http://www.w3.org/2000/svg" id="svg7384" width="16" height="16" version="1.1"><metadata id="metadata90"/><title id="title9167">Gnome Symbolic Icon Theme</title><defs id="defs7386"><filter id="filter12578-8" color-interpolation-filters="sRGB"><feGaussianBlur id="feGaussianBlur12580-4" stdDeviation=".015"/></filter><filter id="filter12586-1" color-interpolation-filters="sRGB"><feGaussianBlur id="feGaussianBlur12588-8" stdDeviation=".02"/></filter></defs><g id="layer1" transform="translate(120,-402)"><rect id="rect7144" width="3" height="1" x="-114" y="408" rx=".594" ry=".594" style="fill:#bebebe;fill-opacity:1;stroke:none"/><rect id="rect7146" width="3" height="1" x="-114" y="411" rx=".594" ry=".594" style="fill:#bebebe;fill-opacity:1;stroke:none"/><path id="rect7148" d="m -117.40625,402 c -0.32894,0 -0.59375,0.26481 -0.59375,0.59375 l 0,1.40625 1,0 0,-0.40625 c 0,-0.32894 0.26481,-0.59375 0.59375,-0.59375 l 10.8125,0 c 0.32894,0 0.59375,0.26481 0.59375,0.59375 l 0,4.8125 c 0,0.32894 -0.26481,0.59375 -0.59375,0.59375 l -1.40625,0 0,1.0625 c 0,0 0,0 2.40625,0 0.32894,0 0.59375,-0.26481 0.59375,-0.59375 l 0,-6.875 C -104,402.26481 -104.26481,402 -104.59375,402 z" style="fill:#bebebe;fill-opacity:1;stroke:none"/><path id="path7156" d="m -106.59375,418 c 0.32894,0 0.59375,-0.26481 0.59375,-0.59375 l 0,-1.40625 -1,0 0,0.40625 c 0,0.32894 -0.26481,0.59375 -0.59375,0.59375 l -10.8125,0 C -118.73519,417 -119,416.73519 -119,416.40625 l 0,-4.8125 c 0,-0.32894 0.26481,-0.59375 0.59375,-0.59375 l 1.40625,0 0,-1 c 0,0 -1,0 -2.40625,0 -0.32894,0 -0.59375,0.26481 -0.59375,0.59375 l 0,6.8125 c 0,0.32894 0.26481,0.59375 0.59375,0.59375 z" style="fill:#bebebe;fill-opacity:1;stroke:none"/><path id="rect7158" d="m -116,407 c -1.108,0 -2,0.892 -2,2 l 0,2 c 0,1.108 0.892,2 2,2 l 3,0 0,-2 0,-2 0,-2 z" style="fill:#bebebe;fill-opacity:1;stroke:none"/><path id="path7165" d="m -108,407 c 1.108,0 2,0.892 2,2 l 0,2 c 0,1.108 -0.892,2 -2,2 l -2,0 0,-2 0,-2 0,-2 2,0 z" style="fill:#bebebe;fill-opacity:1;stroke:none"/></g></svg>