<svg xmlns="http://www.w3.org/2000/svg" xmlns:svg="http://www.w3.org/2000/svg" id="svg7384" width="16" height="16" version="1.1"><metadata id="metadata90"/><title id="title9167">Gnome Symbolic Icon Theme</title><defs id="defs7386"><filter id="filter12578-8" color-interpolation-filters="sRGB"><feGaussianBlur id="feGaussianBlur12580-4" stdDeviation=".015"/></filter><filter id="filter12586-1" color-interpolation-filters="sRGB"><feGaussianBlur id="feGaussianBlur12588-8" stdDeviation=".02"/></filter></defs><g id="layer1" transform="translate(80.000002,-202)"><rect id="rect11849" width="4" height="4" x="-80" y="206" style="fill:#bebebe;fill-opacity:1;stroke:none"/><rect id="rect11851" width="4" height="4" x="-68" y="206" style="fill:#bebebe;fill-opacity:1;stroke:none"/><rect id="rect11853" width="12" height="2" x="-78" y="207" style="fill:#bebebe;fill-opacity:1;stroke:none"/><path id="path11855" d="m -70,206.5 a 1.5,1.5 0 1 1 -3,0 1.5,1.5 0 1 1 3,0 z" transform="matrix(1.3333333,0,0,1.3333312,23.33333,-67.33288)" style="fill:#bebebe;fill-opacity:1;stroke:none"/><path id="path11857" d="m -65,216 c 0,-3.31371 -3.13401,-6 -7,-6 -3.86599,0 -7,2.68629 -7,6 l 2.015625,0 c 0.287851,-2.25391 2.407621,-4 4.984375,-4 2.576754,0 4.696524,1.74609 4.984375,4 z" style="fill:#bebebe;fill-opacity:1;stroke:none"/></g></svg>