<svg xmlns="http://www.w3.org/2000/svg" xmlns:svg="http://www.w3.org/2000/svg" id="svg7384" width="16" height="16" version="1.1"><metadata id="metadata90"/><title id="title9167">Gnome Symbolic Icon Theme</title><defs id="defs7386"><filter id="filter12578-8" color-interpolation-filters="sRGB"><feGaussianBlur id="feGaussianBlur12580-4" stdDeviation=".015"/></filter><filter id="filter12586-1" color-interpolation-filters="sRGB"><feGaussianBlur id="feGaussianBlur12588-8" stdDeviation=".02"/></filter></defs><g id="layer1" transform="translate(200,-162)"><path id="path4934" d="m -188,166 -1.33333,0 -6.66667,6.66668 0,1.33332 1.33333,0 6.66667,-6.66668 z" style="fill:#bebebe;fill-opacity:1;stroke:none"/><path id="path4936" d="m -196,166 1.33333,0 6.66667,6.66668 0,1.33332 -1.33333,0 L -196,167.33332 z" style="fill:#bebebe;fill-opacity:1;stroke:none"/><path id="rect4961" d="m -198,163 c -0.55349,0 -1,0.44651 -1,1 l 0,12 c 0,0.55349 0.44651,1 1,1 l 12,0 c 0.55349,0 1,-0.44651 1,-1 l 0,-12 c 0,-0.55349 -0.44651,-1 -1,-1 l -12,0 z m 1,1 10,0 c 0.55349,0 1,0.44651 1,1 l 0,10 c 0,0.55349 -0.44651,1 -1,1 l -10,0 c -0.55349,0 -1,-0.44651 -1,-1 l 0,-10 c 0,-0.55349 0.44651,-1 1,-1 z" style="fill:#bebebe;fill-opacity:1;stroke:none"/></g></svg>