<svg xmlns="http://www.w3.org/2000/svg" xmlns:svg="http://www.w3.org/2000/svg" id="svg7384" width="16" height="16" version="1.1"><metadata id="metadata90"/><title id="title9167">Gnome Symbolic Icon Theme</title><defs id="defs7386"><filter id="filter12578-8" color-interpolation-filters="sRGB"><feGaussianBlur id="feGaussianBlur12580-4" stdDeviation=".015"/></filter><filter id="filter12586-1" color-interpolation-filters="sRGB"><feGaussianBlur id="feGaussianBlur12588-8" stdDeviation=".02"/></filter></defs><g id="layer1" transform="translate(200,-402)"><path id="path8980" d="m -185.07034,407.94195 c -0.34493,0.26202 -1.48389,-0.94013 -1.91274,-0.94195 -0.43627,-0.002 -1.51201,1.18709 -1.86699,0.92631 -0.34894,-0.25636 0.43961,-1.65112 0.30877,-2.07106 -0.1331,-0.42722 -1.48807,-1.12712 -1.35655,-1.55485 0.12928,-0.42045 1.58587,-0.065 1.93385,-0.32272 0.35401,-0.26218 0.54466,-1.87422 0.98092,-1.87778 0.42884,-0.004 0.58819,1.60147 0.9341,1.86214 0.35189,0.26516 1.90183,-0.0466 2.03993,0.37898 0.13576,0.4183 -1.29949,1.07009 -1.43369,1.48891 -0.13653,0.42607 0.72331,1.84546 0.3724,2.11202 z" style="color:#000;fill:#bebebe;fill-opacity:1;fill-rule:nonzero;stroke:none;stroke-width:2;marker:none;visibility:visible;display:inline;overflow:visible;enable-background:accumulate"/><rect id="rect6874" width="5" height="3" x="-196" y="404" rx=".53" ry=".53" style="fill:#bebebe;fill-opacity:1;stroke:none"/><path id="path6973" d="m -197,408 0,8 5,0 2,-2 0,-6 z" style="fill:#bebebe;fill-opacity:1;stroke:none"/><path id="path6977" d="m -199.46875,405 c -0.2938,0 -0.53125,0.23745 -0.53125,0.53125 l 0,11.9375 c 0,0.2938 0.23745,0.53125 0.53125,0.53125 l 11.9375,0 c 0.2938,0 0.53125,-0.23745 0.53125,-0.53125 l 0,-8.46875 -1,0 0,7.46875 c 0,0.2938 -0.23745,0.53125 -0.53125,0.53125 l -9.9375,0 C -198.76255,417 -199,416.76255 -199,416.46875 l 0,-9.9375 c 0,-0.2938 0.23745,-0.53125 0.53125,-0.53125 l 1.46875,0 0,-1 -2.46875,0 z" style="fill:#bebebe;fill-opacity:1;stroke:none"/></g></svg>