<svg xmlns="http://www.w3.org/2000/svg" xmlns:svg="http://www.w3.org/2000/svg" id="svg7384" width="16" height="16" version="1.1"><metadata id="metadata90"/><title id="title9167">Gnome Symbolic Icon Theme</title><defs id="defs7386"><filter id="filter12578-8" color-interpolation-filters="sRGB"><feGaussianBlur id="feGaussianBlur12580-4" stdDeviation=".015"/></filter><filter id="filter12586-1" color-interpolation-filters="sRGB"><feGaussianBlur id="feGaussianBlur12588-8" stdDeviation=".02"/></filter></defs><g id="layer1" transform="translate(120,-302)"><g id="g22283" transform="matrix(0,-1,1,0,-419.99999,920.0002)" style="display:inline"><path id="path22285" d="m 602.0002,301.99998 0,12 12,2e-5 3,-3 0,0 0,-9.00001 z m 1,1.00001 13,10e-6 0,7 -3,0 0,3 -10,-10e-6 z" style="font-size:medium;font-style:normal;font-variant:normal;font-weight:400;font-stretch:normal;text-indent:0;text-align:start;text-decoration:none;line-height:normal;letter-spacing:normal;word-spacing:normal;text-transform:none;direction:ltr;block-progression:tb;writing-mode:lr-tb;text-anchor:start;baseline-shift:baseline;color:#000;fill:#bebebe;fill-opacity:1;fill-rule:nonzero;stroke:none;stroke-width:2;marker:none;visibility:visible;display:inline;overflow:visible;enable-background:new;font-family:Sans;-inkscape-font-specification:Sans"/></g><path id="path20580-9" d="m 52,342.5 a 2.5,2.5 0 1 1 -5,0 2.5,2.5 0 1 1 5,0 z" transform="matrix(0.8,0,0,0.8,-151.6,36)" style="opacity:.3;color:#bebebe;fill:#bebebe;fill-opacity:1;fill-rule:nonzero;stroke:none;stroke-width:2;marker:none;visibility:visible;display:inline;overflow:visible;enable-background:accumulate"/><path id="path27835" d="m -114,312 c -1.19566,0.86451 -2,2 -2,4 l 8,0 c 0,-2 -0.80434,-3.13549 -2,-4 l 0,1 -4,0 z" style="opacity:.3;fill:#bebebe;fill-opacity:1;stroke:none"/></g></svg>