<svg xmlns="http://www.w3.org/2000/svg" xmlns:svg="http://www.w3.org/2000/svg" id="svg7384" width="16" height="16" version="1.1"><metadata id="metadata90"/><title id="title9167">Gnome Symbolic Icon Theme</title><defs id="defs7386"><filter id="filter12578-8" color-interpolation-filters="sRGB"><feGaussianBlur id="feGaussianBlur12580-4" stdDeviation=".015"/></filter><filter id="filter12586-1" color-interpolation-filters="sRGB"><feGaussianBlur id="feGaussianBlur12588-8" stdDeviation=".02"/></filter></defs><g id="layer1" transform="translate(60,-282)"><path id="path7150" d="m -55,295 a 1.5,2 0 1 1 -3,0 1.5,2 0 1 1 3,0 z" transform="matrix(0.9797799,0,0,0.73483496,-1.68663,78.22369)" style="fill:#bebebe;fill-opacity:1;stroke:none"/><path id="path7152" d="m -55,295 a 1.5,2 0 1 1 -3,0 1.5,2 0 1 1 3,0 z" transform="matrix(0.9797799,0,0,0.73483496,8.34544,68.26353)" style="fill:#bebebe;fill-opacity:1;stroke:none"/><path id="path7154" d="m -55.625,285.34375 -0.34375,1.53125 -1.53125,6.5625 1,0.21875 1.15625,-5.03125 1.4375,3.5625 0.4375,1.03125 0.46875,-1 1.46875,-3.125 2.625,5.125 0.65625,1.3125 0.28125,-1.4375 1.46875,-7.5 -1,-0.1875 -1.1875,6.09375 -2.40625,-4.71875 -0.4375,-0.90625 -0.4375,0.90625 -1.4375,2.96875 -1.625,-3.9375 -0.59375,-1.46875 z" style="font-size:medium;font-style:normal;font-variant:normal;font-weight:400;font-stretch:normal;text-indent:0;text-align:start;text-decoration:none;line-height:normal;letter-spacing:normal;word-spacing:normal;text-transform:none;direction:ltr;block-progression:tb;writing-mode:lr-tb;text-anchor:start;baseline-shift:baseline;color:#000;fill:#bebebe;fill-opacity:1;stroke:none;stroke-width:1;marker:none;visibility:visible;display:inline;overflow:visible;enable-background:accumulate;font-family:Sans;-inkscape-font-specification:Sans"/></g></svg>