<svg xmlns="http://www.w3.org/2000/svg" xmlns:svg="http://www.w3.org/2000/svg" id="svg7384" width="16" height="16" version="1.1"><metadata id="metadata90"/><title id="title9167">Gnome Symbolic Icon Theme</title><defs id="defs7386"><filter id="filter12578-8" color-interpolation-filters="sRGB"><feGaussianBlur id="feGaussianBlur12580-4" stdDeviation=".015"/></filter><filter id="filter12586-1" color-interpolation-filters="sRGB"><feGaussianBlur id="feGaussianBlur12588-8" stdDeviation=".02"/></filter></defs><g id="layer1" transform="translate(100,-222)"><path id="path11885" d="m -92,230 0,-2 c -3.98964,-0.007 -3.01047,-0.0325 -7,0 l 0,2 c 3.9883,-0.10306 3.00952,-0.0137 7,0 z" style="fill:#bebebe;fill-opacity:1;stroke:none"/><path id="path11889" d="m -90,229 -4,-3 0,6 z" style="fill:#bebebe;fill-opacity:1;stroke:none"/><path id="rect11909" d="m -93,225 5,4 -5,4 6,0 0,-8 z" style="opacity:.3;fill:#bebebe;fill-opacity:1;stroke:none"/><rect id="rect11917" width="2" height="2" x="-97" y="225" rx=".469" ry="0" style="opacity:.3;fill:#bebebe;fill-opacity:1;stroke:none"/><rect id="rect11919" width="2" height="2" x="-97" y="231" rx=".5" ry="0" style="opacity:.3;fill:#bebebe;fill-opacity:1;stroke:none"/><path id="rect11926" d="M -97.8125,223 C -98.475196,223 -99,223.5248 -99,224.1875 l 0,9.625 c 0,0.6627 0.524804,1.1875 1.1875,1.1875 l 11.625,0 c 0.662696,0 1.1875,-0.5248 1.1875,-1.1875 l 0,-9.625 C -85,223.5248 -85.524804,223 -86.1875,223 l -11.625,0 z m 1,1 9.625,0 c 0.662696,0 1.1875,0.5248 1.1875,1.1875 l 0,7.625 c 0,0.6627 -0.524804,1.1875 -1.1875,1.1875 l -9.625,0 C -97.475196,234 -98,233.4752 -98,232.8125 l 0,-7.625 C -98,224.5248 -97.475196,224 -96.8125,224 z" style="fill:#bebebe;fill-opacity:1;stroke:none"/><rect id="rect11931" width="8" height="1" x="-96" y="236" rx="1" ry=".5" style="fill:#bebebe;fill-opacity:1;stroke:none"/></g></svg>