<svg xmlns="http://www.w3.org/2000/svg" xmlns:svg="http://www.w3.org/2000/svg" id="svg7384" width="16" height="16" version="1.1"><metadata id="metadata90"/><title id="title9167">Gnome Symbolic Icon Theme</title><defs id="defs7386"><filter id="filter12578-8" color-interpolation-filters="sRGB"><feGaussianBlur id="feGaussianBlur12580-4" stdDeviation=".015"/></filter><filter id="filter12586-1" color-interpolation-filters="sRGB"><feGaussianBlur id="feGaussianBlur12588-8" stdDeviation=".02"/></filter></defs><g id="layer1" transform="translate(80.000002,-162)"><rect id="rect10732" width="4" height="4" x="-80" y="162" style="fill:#bebebe;fill-opacity:1;stroke:none"/><rect id="rect10734" width="4" height="4" x="-76" y="166" style="fill:#bebebe;fill-opacity:1;stroke:none"/><rect id="rect10736" width="4" height="4" x="-72" y="162" style="fill:#bebebe;fill-opacity:1;stroke:none"/><rect id="rect10738" width="4" height="4" x="-68" y="166" style="fill:#bebebe;fill-opacity:1;stroke:none"/><rect id="rect10740" width="4" height="4" x="-72" y="170" style="fill:#bebebe;fill-opacity:1;stroke:none"/><rect id="rect10742" width="4" height="4" x="-80" y="170" style="fill:#bebebe;fill-opacity:1;stroke:none"/><rect id="rect10744" width="4" height="4" x="-76" y="174" style="fill:#bebebe;fill-opacity:1;stroke:none"/><rect id="rect10746" width="4" height="4" x="-68" y="174" style="fill:#bebebe;fill-opacity:1;stroke:none"/><rect id="rect10748" width="4" height="4" x="-80" y="166" style="opacity:.3;fill:#bebebe;fill-opacity:1;stroke:none"/><rect id="rect10750" width="4" height="4" x="-76" y="162" style="opacity:.3;fill:#bebebe;fill-opacity:1;stroke:none"/><rect id="rect10752" width="4" height="4" x="-68" y="162" style="opacity:.3;fill:#bebebe;fill-opacity:1;stroke:none"/><rect id="rect10754" width="4" height="4" x="-72" y="166" style="opacity:.3;fill:#bebebe;fill-opacity:1;stroke:none"/><rect id="rect10756" width="4" height="4" x="-68" y="170" style="opacity:.3;fill:#bebebe;fill-opacity:1;stroke:none"/><rect id="rect10758" width="4" height="4" x="-76" y="170" style="opacity:.3;fill:#bebebe;fill-opacity:1;stroke:none"/><rect id="rect10760" width="4" height="4" x="-72" y="174" style="opacity:.3;fill:#bebebe;fill-opacity:1;stroke:none"/><rect id="rect10762" width="4" height="4" x="-80" y="174" style="opacity:.3;fill:#bebebe;fill-opacity:1;stroke:none"/></g></svg>