<svg xmlns="http://www.w3.org/2000/svg" xmlns:svg="http://www.w3.org/2000/svg" id="svg7384" width="16" height="16" version="1.1"><metadata id="metadata90"/><title id="title9167">Gnome Symbolic Icon Theme</title><defs id="defs7386"><filter id="filter12578-8" color-interpolation-filters="sRGB"><feGaussianBlur id="feGaussianBlur12580-4" stdDeviation=".015"/></filter><filter id="filter12586-1" color-interpolation-filters="sRGB"><feGaussianBlur id="feGaussianBlur12588-8" stdDeviation=".02"/></filter></defs><g id="layer1" transform="translate(60,-382)"><path id="rect8452" d="m -54,382 c -1.108,0 -2,0.892 -2,2 l 0,6 c 0,1.108 0.892,2 2,2 l 4,0 c 1.108,0 2,-0.892 2,-2 l 0,-6 c 0,-1.108 -0.892,-2 -2,-2 l -4,0 z m 2,2 c 1.108,0 2,0.446 2,1 l 0,4 c 0,0.554 -0.892,1 -2,1 -1.108,0 -2,-0.446 -2,-1 l 0,-4 c 0,-0.554 0.892,-1 2,-1 z" style="fill:#bebebe;fill-opacity:1;stroke:none"/><path id="rect8454" d="m -53,393 c -1.662,0 -3,0.892 -3,2 l 0,3 2,0 0,-2 c 0,-0.554 0.892,-1 2,-1 1.108,0 2,0.446 2,1 l 0,2 2,0 0,-3 c 0,-1.108 -1.338,-2 -3,-2 l -2,0 z" style="fill:#bebebe;fill-opacity:1;stroke:none"/><rect id="rect8465" width="2" height="7" x="-53" y="389" rx="3" ry="0" style="fill:#bebebe;fill-opacity:1;stroke:none"/><rect id="rect8467" width="2" height="3" x="-53" y="382" rx="3" ry="0" style="fill:#bebebe;fill-opacity:1;stroke:none"/></g></svg>