<svg xmlns="http://www.w3.org/2000/svg" xmlns:svg="http://www.w3.org/2000/svg" id="svg7384" width="16" height="16" version="1.1"><metadata id="metadata90"/><title id="title9167">Gnome Symbolic Icon Theme</title><defs id="defs7386"><filter id="filter12578-8" color-interpolation-filters="sRGB"><feGaussianBlur id="feGaussianBlur12580-4" stdDeviation=".015"/></filter><filter id="filter12586-1" color-interpolation-filters="sRGB"><feGaussianBlur id="feGaussianBlur12588-8" stdDeviation=".02"/></filter></defs><g id="layer1" transform="translate(60.000002,-302)"><rect id="rect28130" width="2" height="4" x="-53" y="302" rx="1" ry="0" style="fill:#bebebe;fill-opacity:1;stroke:none"/><rect id="rect28132" width="2" height="4" x="-53" y="-318" rx="0" ry="1" transform="scale(1,-1)" style="fill:#bebebe;fill-opacity:1;stroke:none"/><rect id="rect28134" width="2" height="4" x="309" y="56" rx="0" ry="1" transform="matrix(0,1,-1,0,0,0)" style="fill:#bebebe;fill-opacity:1;stroke:none"/><rect id="rect28136" width="2" height="4" x="309" y="-48" rx="1" ry="0" transform="matrix(0,1,1,0,0,0)" style="fill:#bebebe;fill-opacity:1;stroke:none"/><path id="path28141" d="m -52,305 c -2.761424,0 -5,2.23858 -5,5 0,2.76142 2.238576,5 5,5 0.345178,0 0.674512,-0.0272 1,-0.0937 l 0,-2.09375 c -0.316472,0.11352 -0.644467,0.1875 -1,0.1875 -1.656854,0 -3,-1.34315 -3,-3 0,-1.65685 1.343146,-3 3,-3 1.656854,0 3,1.34315 3,3 0,0.35553 -0.07398,0.68353 -0.1875,1 l 2.09375,0 c 0.0666,-0.32549 0.09375,-0.65482 0.09375,-1 0,-2.76142 -2.238576,-5 -5,-5 z" style="fill:#bebebe;fill-opacity:1;stroke:none"/><path id="path28149" d="m -49,314 0,-1 3,0 0,5 -2,0 0,-4 0,0 z" style="fill:#bebebe;fill-opacity:1;stroke:none"/><rect id="rect28151" width="4" height="1" x="-49" y="317" rx="0" ry="1" style="fill:#bebebe;fill-opacity:1;stroke:none"/></g></svg>