<svg xmlns="http://www.w3.org/2000/svg" xmlns:svg="http://www.w3.org/2000/svg" id="svg7384" width="16.281" height="16.281" version="1.1"><metadata id="metadata90"/><title id="title9167">Gnome Symbolic Icon Theme</title><defs id="defs7386"><filter id="filter12578-8" color-interpolation-filters="sRGB"><feGaussianBlur id="feGaussianBlur12580-4" stdDeviation=".015"/></filter><filter id="filter12586-1" color-interpolation-filters="sRGB"><feGaussianBlur id="feGaussianBlur12588-8" stdDeviation=".02"/></filter></defs><g id="layer1" transform="translate(100,-202)"><path id="rect11767" d="m -98.15625,202.4375 -0.125,0.15625 -1.125,1.125 -0.15625,0.125 0,0.21875 0,1 0,1.21875 0.84375,-0.875 2.125,-2.125 0.875,-0.84375 -1.21875,0 -1,0 -0.21875,0 z m 3,0 -0.125,0.15625 -4.125,4.125 -0.15625,0.125 0,0.21875 0,1 0,1.21875 0.84375,-0.875 5.125,-5.125 0.875,-0.84375 -1.21875,0 -1,0 -0.21875,0 z m 3,0 -0.125,0.15625 -7.125,7.125 -0.15625,0.125 0,0.21875 0,1 0,1.21875 0.84375,-0.875 8.125,-8.125 0.875,-0.84375 -1.21875,0 -1,0 -0.21875,0 z m 3,0 -0.125,0.15625 -10.125,10.125 -0.15625,0.125 0,0.21875 0,1 0,1.21875 0.84375,-0.875 11.125,-11.125 0.875,-0.84375 -1.21875,0 -1,0 -0.21875,0 z m 3,0 -0.125,0.15625 -13.125,13.125 -0.15625,0.125 0,0.21875 0,1 0,1.21875 0.84375,-0.875 14.125,-14.125 0.875,-0.84375 -1.21875,0 -1,0 -0.21875,0 z m 1.71875,1.28125 -0.84375,0.875 -12.125,12.125 -0.875,0.84375 1.21875,0 1,0 0.21875,0 0.125,-0.15625 11.125,-11.125 0.15625,-0.125 0,-0.21875 0,-1 0,-1.21875 z m 0,3 -0.84375,0.875 -9.125,9.125 -0.875,0.84375 1.21875,0 1,0 0.21875,0 0.125,-0.15625 8.125,-8.125 0.15625,-0.125 0,-0.21875 0,-1 0,-1.21875 z m 0,3 -0.84375,0.875 -6.125,6.125 -0.875,0.84375 1.21875,0 1,0 0.21875,0 0.125,-0.15625 5.125,-5.125 0.15625,-0.125 0,-0.21875 0,-1 0,-1.21875 z m 0,3 -0.84375,0.875 -3.125,3.125 -0.875,0.84375 1.21875,0 1,0 0.21875,0 0.125,-0.15625 2.125,-2.125 0.15625,-0.125 0,-0.21875 0,-1 0,-1.21875 z m 0,3 -0.84375,0.875 -0.125,0.125 -0.875,0.84375 1.21875,0 0.125,0 0.5,0 0,-0.5 0,-0.125 0,-1.21875 z" style="font-size:medium;font-style:normal;font-variant:normal;font-weight:400;font-stretch:normal;text-indent:0;text-align:start;text-decoration:none;line-height:normal;letter-spacing:normal;word-spacing:normal;text-transform:none;direction:ltr;block-progression:tb;writing-mode:lr-tb;text-anchor:start;baseline-shift:baseline;color:#000;fill:#bebebe;fill-opacity:1;stroke:none;stroke-width:1;marker:none;visibility:visible;display:inline;overflow:visible;enable-background:accumulate;font-family:Sans;-inkscape-font-specification:Sans"/></g></svg>