<svg xmlns="http://www.w3.org/2000/svg" xmlns:svg="http://www.w3.org/2000/svg" id="svg7384" width="16" height="16" version="1.1"><metadata id="metadata90"/><title id="title9167">Gnome Symbolic Icon Theme</title><defs id="defs7386"><filter id="filter12578-8" color-interpolation-filters="sRGB"><feGaussianBlur id="feGaussianBlur12580-4" stdDeviation=".015"/></filter><filter id="filter12586-1" color-interpolation-filters="sRGB"><feGaussianBlur id="feGaussianBlur12588-8" stdDeviation=".02"/></filter></defs><g id="layer1" transform="translate(160,-302)"><path id="path3189" d="m -152.41532,303 c -3.59964,0.0498 -6.58468,3.13705 -6.58468,7.1864 0,2.05834 0.72341,3.74205 1.98501,4.92204 1.26159,1.17999 3.07301,1.86038 5.29336,1.86038 4.30716,0 7.39439,-4.12588 6.59535,-8.49398 l -6.58468,0 c -0.9867,0 -1.49023,0.71238 -1.53678,1.42453 -0.0233,0.35607 0.0855,0.69843 0.29882,0.9355 0.21335,0.23707 0.54093,0.39591 1.07788,0.37208 0.46789,-0.0208 0.57735,-0.16817 0.77906,-0.40397 0.20172,-0.2358 0.49407,-0.60682 1.04587,-0.65911 0.22717,-0.0215 0.5011,0.024 0.75772,0.18073 0.25661,0.1567 0.47909,0.45145 0.51226,0.85046 0.0684,0.82275 -0.28198,1.53438 -0.8431,1.99858 -0.56112,0.4642 -1.31974,0.70633 -2.13442,0.70163 -2.66158,-0.0154 -4.13185,-1.96342 -4.18346,-3.89086 -0.0258,-0.96372 0.29122,-1.93485 0.96049,-2.66832 0.66927,-0.73347 1.69537,-1.21191 3.0202,-1.21191 l 5.82697,0 c -1.05634,-1.55205 -2.92576,-3.15066 -6.28587,-3.10418 z" style="fill:#bebebe;fill-opacity:1;stroke:none;stroke-width:1;marker:none;visibility:visible;display:inline;overflow:visible;enable-background:accumulate"/></g></svg>