<svg xmlns="http://www.w3.org/2000/svg" xmlns:svg="http://www.w3.org/2000/svg" id="svg7384" width="16" height="16" version="1.1"><metadata id="metadata90"/><title id="title9167">Gnome Symbolic Icon Theme</title><defs id="defs7386"><filter id="filter12578-8" color-interpolation-filters="sRGB"><feGaussianBlur id="feGaussianBlur12580-4" stdDeviation=".015"/></filter><filter id="filter12586-1" color-interpolation-filters="sRGB"><feGaussianBlur id="feGaussianBlur12588-8" stdDeviation=".02"/></filter></defs><g id="layer1" transform="translate(60,-162)"><path id="rect3783-5" d="m -60,162 0,3 2,0 0,2 -2,0 0,2 2,0 0,2 -2,0 0,2 2,0 0,2 -2,0 0,3 3,0 0,-2 2,0 0,2 2,0 0,-2 2,0 0,2 5.375,0 c -0.35059,-0.0304 -0.688782,-0.18823 -0.9375,-0.4375 l -2.96875,-2.96875 c -0.0571,-0.0581 -0.109415,-0.12085 -0.15625,-0.1875 C -50.383763,174.7757 -51.16144,175 -52,175 c -2.74815,0 -5,-2.25186 -5,-5 0,-2.74814 2.25185,-5 5,-5 2.74816,0 5,2.25186 5,5 0,0.82853 -0.232499,1.59105 -0.59375,2.28125 0.06791,0.0567 0.130743,0.11958 0.1875,0.1875 l 2.96875,2.96875 c 0.230694,0.22486 0.386549,0.52544 0.4375,0.84375 L -44,171 l -2,0 0,-2 2,0 0,-2 -2,0 0,-2 2,0 0,-3 -2,0 -1,0 0,2 -2,0 0,-2 -2,0 0,2 -2,0 0,-2 -2,0 0,2 -2,0 0,-2 z m 8,5.0625 c -1.618241,0 -2.9375,1.31926 -2.9375,2.9375 0,1.61824 1.319259,2.9375 2.9375,2.9375 1.618241,0 2.9375,-1.31926 2.9375,-2.9375 0,-1.61824 -1.319259,-2.9375 -2.9375,-2.9375 z m 8,9.53125 c -0.04483,0.70343 -0.643904,1.33037 -1.34375,1.40625 L -44,178 z" style="fill:#bebebe;fill-opacity:1;fill-rule:nonzero;stroke:none"/><path id="rect3898" d="m -60,162 0,16 16,0 0,-16 z" style="fill:none;stroke:none"/></g></svg>