<svg xmlns="http://www.w3.org/2000/svg" xmlns:svg="http://www.w3.org/2000/svg" id="svg7384" width="16" height="16" version="1.1"><metadata id="metadata90"/><title id="title9167">Gnome Symbolic Icon Theme</title><defs id="defs7386"><filter id="filter12578-8" color-interpolation-filters="sRGB"><feGaussianBlur id="feGaussianBlur12580-4" stdDeviation=".015"/></filter><filter id="filter12586-1" color-interpolation-filters="sRGB"><feGaussianBlur id="feGaussianBlur12588-8" stdDeviation=".02"/></filter></defs><g id="layer1" transform="translate(60,-262)"><path id="rect6573" d="m -59,263 0,14 14,0 0,-14 z m 1,1 12,0 0,12 -12,0 z" style="fill:#bebebe;fill-opacity:1;stroke:none"/><path id="path6578" d="m -58,264 6,6 6,-6 z" style="fill:none;stroke:none"/><path id="path6582" d="m -57,265 0,10 5,-5 z" style="fill:#bebebe;fill-opacity:1;stroke:none"/><path id="path6584" d="m -52,270 5,-5 0,10 z" style="opacity:.3;fill:#bebebe;fill-opacity:1;stroke:none"/><path id="path6592" d="m -52,271 0,0 0,0 0,1 -1,0 0,1 0,2 1,0 1,0 3,0 z m -4,4 0,0 c 2.21622,0 2.21622,0 0,0 z" style="opacity:.3;fill:#bebebe;fill-opacity:1;stroke:none"/><rect id="rect6617" width="1" height="1" x="-54" y="274" style="fill:#bebebe;fill-opacity:1;stroke:none"/><rect id="rect6619" width="1" height="1" x="-56" y="274" style="fill:#bebebe;fill-opacity:1;stroke:none"/><rect id="rect6621" width="1" height="1" x="-55" y="273" style="fill:#bebebe;fill-opacity:1;stroke:none"/><rect id="rect6623" width="1" height="1" x="-54" y="272" style="fill:#bebebe;fill-opacity:1;stroke:none"/><rect id="rect6625" width="1" height="1" x="-53" y="273" style="fill:#bebebe;fill-opacity:1;stroke:none"/><rect id="rect6627" width="1" height="1" x="-53" y="271" style="fill:#bebebe;fill-opacity:1;stroke:none"/><rect id="rect6631" width="1" height="1" x="-55" y="274" style="opacity:.3;fill:#bebebe;fill-opacity:1;stroke:none"/><rect id="rect6633" width="1" height="1" x="-54" y="273" style="opacity:.3;fill:#bebebe;fill-opacity:1;stroke:none"/></g></svg>