<svg xmlns="http://www.w3.org/2000/svg" xmlns:svg="http://www.w3.org/2000/svg" id="svg7384" width="16" height="16" version="1.1"><metadata id="metadata90"/><title id="title9167">Gnome Symbolic Icon Theme</title><defs id="defs7386"><filter id="filter12578-8" color-interpolation-filters="sRGB"><feGaussianBlur id="feGaussianBlur12580-4" stdDeviation=".015"/></filter><filter id="filter12586-1" color-interpolation-filters="sRGB"><feGaussianBlur id="feGaussianBlur12588-8" stdDeviation=".02"/></filter></defs><g id="layer1" transform="translate(100,-402)"><path id="path3520" d="m -98,406 c -0.5,0 -1,0.5 -1,1 l 0,4 c 0,0.5 0.5,1 1,1 l 1,0 0,-3 10,0 0,3 1,0 c 0.5,0 1,-0.5 1,-1 l 0,-4 c 0,-0.5 -0.5,-1 -1,-1 z" style="fill:#bebebe;fill-opacity:1;stroke:none"/><path id="path4804" d="m -96,403 0,2 8,0 0,-2 -8,0 z" style="fill:#bebebe;fill-opacity:1;stroke:none"/><path id="rect17148" d="m -96,410 0,7 8,0 0,-7 z m 2,2 0,-1 3,0 2,0 0,1 0,1 -1,0 0,-1 -1,0 0,3 -4,0 0,-3 z m 4,3 1,0 0,1 -1,0 z" style="fill:#bebebe;fill-opacity:1;stroke:none"/><path id="rect17153" d="m -95,411 0,2 1,0 0,1 1,0 0,1 2,0 0,-1 -1,0 0,-1 -1,0 0,-1 1,0 0,1 1,0 0,-2 -4,0 z m 1,3 -1,0 0,1 1,0 0,-1 z" style="opacity:.3;fill:#bebebe;fill-opacity:1;stroke:none"/><rect id="rect17173" width="1" height="1" x="-93" y="412" style="fill:#bebebe;fill-opacity:1;stroke:none"/><rect id="rect17175" width="1" height="1" x="-92" y="413" style="fill:#bebebe;fill-opacity:1;stroke:none"/><rect id="rect17177" width="1" height="1" x="-94" y="414" style="fill:#bebebe;fill-opacity:1;stroke:none"/><rect id="rect17179" width="1" height="1" x="-95" y="413" style="fill:#bebebe;fill-opacity:1;stroke:none"/><rect id="rect17181" width="1" height="1" x="-90" y="415" style="opacity:.3;fill:#bebebe;fill-opacity:1;stroke:none"/><rect id="rect17186" width="2" height="1" x="-91" y="411" style="opacity:.3;fill:#bebebe;fill-opacity:1;stroke:none"/><rect id="rect17191" width="1" height="1" x="-90" y="412" style="opacity:.3;fill:#bebebe;fill-opacity:1;stroke:none"/></g></svg>