<svg xmlns="http://www.w3.org/2000/svg" xmlns:svg="http://www.w3.org/2000/svg" id="svg7384" width="16" height="16" version="1.1"><metadata id="metadata90"/><title id="title9167">Gnome Symbolic Icon Theme</title><defs id="defs7386"><filter id="filter12578-8" color-interpolation-filters="sRGB"><feGaussianBlur id="feGaussianBlur12580-4" stdDeviation=".015"/></filter><filter id="filter12586-1" color-interpolation-filters="sRGB"><feGaussianBlur id="feGaussianBlur12588-8" stdDeviation=".02"/></filter></defs><g id="layer1" transform="translate(180,-382)"><rect id="rect18121" width="16" height="16" x="-180" y="382" style="fill:none;stroke:none"/><path id="rect18257" d="m -178.34375,389 c -0.91813,0 -1.65625,0.73812 -1.65625,1.65625 l 0,5.6875 c 0,0.91813 0.73812,1.65625 1.65625,1.65625 l 12.6875,0 c 0.91813,0 1.65625,-0.73812 1.65625,-1.65625 l 0,-5.6875 C -164,389.73812 -164.73812,389 -165.65625,389 l -12.6875,0 z m 1,1 10.6875,0 c 0.91813,0 1.65625,0.73812 1.65625,1.65625 l 0,3.6875 c 0,0.91813 -0.73812,1.65625 -1.65625,1.65625 l -10.6875,0 C -178.26188,397 -179,396.26188 -179,395.34375 l 0,-3.6875 c 0,-0.91813 0.73812,-1.65625 1.65625,-1.65625 z" style="fill:#bebebe;fill-opacity:1;stroke:none"/><rect id="rect18269" width="8" height="1" x="-178" y="395" ry="0" style="fill:#bebebe;fill-opacity:1;stroke:none"/><rect id="rect18271" width="1" height="1" x="-178" y="391" style="fill:#bebebe;fill-opacity:1;stroke:none"/><rect id="rect18273" width="1" height="1" x="-178" y="393" style="fill:#bebebe;fill-opacity:1;stroke:none"/><rect id="rect18275" width="1" height="1" x="-177" y="392" style="fill:#bebebe;fill-opacity:1;stroke:none"/><rect id="rect18279" width="1" height="1" x="-176" y="391" style="fill:#bebebe;fill-opacity:1;stroke:none"/><rect id="rect18281" width="1" height="1" x="-176" y="393" style="fill:#bebebe;fill-opacity:1;stroke:none"/><rect id="rect18283" width="1" height="1" x="-175" y="392" style="fill:#bebebe;fill-opacity:1;stroke:none"/><rect id="rect18285" width="1" height="1" x="-174" y="391" style="fill:#bebebe;fill-opacity:1;stroke:none"/><rect id="rect18287" width="1" height="1" x="-174" y="393" style="fill:#bebebe;fill-opacity:1;stroke:none"/><rect id="rect18289" width="1" height="1" x="-173" y="392" style="fill:#bebebe;fill-opacity:1;stroke:none"/><rect id="rect18291" width="1" height="1" x="-172" y="391" style="fill:#bebebe;fill-opacity:1;stroke:none"/><rect id="rect18293" width="1" height="1" x="-172" y="393" style="fill:#bebebe;fill-opacity:1;stroke:none"/><rect id="rect18297" width="1" height="1" x="-167" y="393" style="fill:#bebebe;fill-opacity:1;stroke:none"/><rect id="rect18299" width="1" height="1" x="-169" y="393" style="fill:#bebebe;fill-opacity:1;stroke:none"/><rect id="rect18301" width="1" height="1" x="-168" y="392" style="fill:#bebebe;fill-opacity:1;stroke:none"/><rect id="rect18303" width="1" height="1" x="-169" y="391" style="fill:#bebebe;fill-opacity:1;stroke:none"/><rect id="rect18305" width="1" height="1" x="-167" y="391" style="fill:#bebebe;fill-opacity:1;stroke:none"/><rect id="rect18309" width="1" height="1" x="-168" y="394" style="fill:#bebebe;fill-opacity:1;stroke:none"/><rect id="rect18311" width="1" height="1" x="-169" y="395" style="fill:#bebebe;fill-opacity:1;stroke:none"/><rect id="rect18313" width="1" height="1" x="-167" y="395" style="fill:#bebebe;fill-opacity:1;stroke:none"/><path id="path18333" d="m -174.28125,386 2.82242,0 0.45883,0 0,0 c 0.64274,0 2,-0.34792 2,2 l 0,1 1,0 0,-2 c 0,0 0,-2 -2,-2 -0.27051,0.008 -0.62125,-5e-4 -0.71875,0 l -1.28125,0 -2.53596,0 c -0.245,0 -1.70711,0.23295 -0.9388,-1 l 1.07165,-2 -1.33172,7e-4 -1.00732,1.9993 c -0.57276,1.39643 0.24327,2 1.28347,2 0.27051,-0.008 1.07993,5e-4 1.17743,0" style="font-size:medium;font-style:normal;font-variant:normal;font-weight:400;font-stretch:normal;text-indent:0;text-align:start;text-decoration:none;line-height:normal;letter-spacing:normal;word-spacing:normal;text-transform:none;direction:ltr;block-progression:tb;writing-mode:lr-tb;text-anchor:start;baseline-shift:baseline;color:#000;fill:#bebebe;fill-opacity:1;stroke:none;stroke-width:1.02063322;marker:none;visibility:visible;display:inline;overflow:visible;enable-background:accumulate;font-family:Sans;-inkscape-font-specification:Sans"/></g></svg>