<svg xmlns="http://www.w3.org/2000/svg" xmlns:svg="http://www.w3.org/2000/svg" id="svg7384" width="16" height="16" version="1.1"><metadata id="metadata90"/><title id="title9167">Gnome Symbolic Icon Theme</title><defs id="defs7386"><filter id="filter12578-8" color-interpolation-filters="sRGB"><feGaussianBlur id="feGaussianBlur12580-4" stdDeviation=".015"/></filter><filter id="filter12586-1" color-interpolation-filters="sRGB"><feGaussianBlur id="feGaussianBlur12588-8" stdDeviation=".02"/></filter></defs><g id="layer1" transform="translate(100,-242)"><rect id="rect12349" width="1" height="3" x="-100" y="244" style="opacity:.3;fill:#bebebe;fill-opacity:1;stroke:none"/><rect id="rect12351" width="5" height="1" x="-96" y="255" ry="0" style="opacity:.3;fill:#bebebe;fill-opacity:1;stroke:none"/><rect id="rect12353" width="4" height="1" x="-91" y="255" style="fill:#bebebe;fill-opacity:1;stroke:none"/><rect id="rect12355" width="4" height="1" x="-88" y="244" ry="0" style="fill:#bebebe;fill-opacity:1;stroke:none"/><rect id="rect12357" width="1" height="4" x="-85" y="249" ry="0" style="fill:#bebebe;fill-opacity:1;stroke:none"/><rect id="rect12359" width="1" height="3" x="-85" y="246" style="opacity:.3;fill:#bebebe;fill-opacity:1;stroke:none"/><rect id="rect12361" width="4" height="1" x="-98" y="244" ry="0" style="fill:#bebebe;fill-opacity:1;stroke:none"/><rect id="rect12363" width="6" height="1" x="-94" y="244" ry="0" style="opacity:.3;fill:#bebebe;fill-opacity:1;stroke:none"/><rect id="rect12365" width="1" height="3" x="-85" y="253" ry="0" style="opacity:.3;fill:#bebebe;fill-opacity:1;stroke:none"/><rect id="rect12367" width="4" height="1" x="-100" y="255" ry="0" style="fill:#bebebe;fill-opacity:1;stroke:none"/><rect id="rect12369" width="1" height="4" x="-100" y="247" style="fill:#bebebe;fill-opacity:1;stroke:none"/><rect id="rect12371" width="1" height="3" x="-100" y="251" style="opacity:.3;fill:#bebebe;fill-opacity:1;stroke:none"/><rect id="rect12373" width="2" height="1" x="-87" y="255" style="opacity:.3;fill:#bebebe;fill-opacity:1;stroke:none"/><rect id="rect12375" width="1" height="1" x="-85" y="245" style="fill:#bebebe;fill-opacity:1;stroke:none"/><rect id="rect12377" width="1" height="1" x="-100" y="254" style="fill:#bebebe;fill-opacity:1;stroke:none"/><rect id="rect12379" width="1" height="1" x="-99" y="244" style="opacity:.3;fill:#bebebe;fill-opacity:1;stroke:none"/></g></svg>