<svg xmlns="http://www.w3.org/2000/svg" xmlns:svg="http://www.w3.org/2000/svg" id="svg7384" width="16" height="16" version="1.1"><metadata id="metadata90"/><title id="title9167">Gnome Symbolic Icon Theme</title><defs id="defs7386"><filter id="filter12578-8" color-interpolation-filters="sRGB"><feGaussianBlur id="feGaussianBlur12580-4" stdDeviation=".015"/></filter><filter id="filter12586-1" color-interpolation-filters="sRGB"><feGaussianBlur id="feGaussianBlur12588-8" stdDeviation=".02"/></filter></defs><g id="layer1" transform="translate(80,-282)"><path id="rect7201" d="m -80,282 0,16 16,0 0,-16 -16,0 z m 1,1 14,0 0,14 -14,0 0,-14 z" style="fill:#bebebe;fill-opacity:1;stroke:none"/><path id="path7206" d="m -79,283 0,14 3.46875,-3.46875 C -76.436072,292.62643 -77,291.38071 -77,290 c 0,-2.76142 2.238576,-5 5,-5 1.380712,0 2.626428,0.56393 3.53125,1.46875 L -65,283 l -14,0 z" style="fill:#bebebe;fill-opacity:1;stroke:none"/><path id="path7221" d="m -67,290 c 0,2.76142 -2.23858,5 -5,5 -1.38071,0 -2.62643,-0.56393 -3.53125,-1.46875 l 7.0625,-7.0625 C -67.56393,287.37357 -67,288.61929 -67,290 z" style="fill:#bebebe;fill-opacity:1;stroke:none"/></g></svg>