<svg xmlns="http://www.w3.org/2000/svg" xmlns:svg="http://www.w3.org/2000/svg" id="svg7384" width="16" height="16" version="1.1"><metadata id="metadata90"/><title id="title9167">Gnome Symbolic Icon Theme</title><defs id="defs7386"><filter id="filter12578-8" color-interpolation-filters="sRGB"><feGaussianBlur id="feGaussianBlur12580-4" stdDeviation=".015"/></filter><filter id="filter12586-1" color-interpolation-filters="sRGB"><feGaussianBlur id="feGaussianBlur12588-8" stdDeviation=".02"/></filter></defs><g id="layer1" transform="translate(120,-182)"><path id="path30125" d="m -115,196 a 2,2 0 1 1 -4,0 2,2 0 1 1 4,0 z" transform="matrix(1.25,0,0,1.25,30.25,-49.5)" style="fill:#bebebe;fill-opacity:1;stroke:none"/><path id="path30137" d="M -115.97692,192.00001 -120,188 l 8,0 z" style="fill:#bebebe;fill-opacity:1;stroke:none"/><path id="path30149" d="m -116.09375,184 c -0.49158,0.0463 -0.90838,0.50624 -0.90625,1 l 0,4 c -0.007,0.52831 0.47163,1.01424 1,1.01424 0.52837,0 1.00747,-0.48593 1,-1.01424 l 0,-3 8,0 0,9 -4,0 c -0.52831,-0.007 -1.01424,0.47163 -1.01424,1 0,0.52837 0.48593,1.00747 1.01424,1 l 5,0 c 0.52358,-5e-5 0.99995,-0.47642 1,-1 l 0,-11 c -5e-5,-0.52358 -0.47642,-0.99995 -1,-1 l -10,0 c -0.0312,-0.001 -0.0625,-0.001 -0.0937,0 z" style="font-size:medium;font-style:normal;font-variant:normal;font-weight:400;font-stretch:normal;text-indent:0;text-align:start;text-decoration:none;line-height:normal;letter-spacing:normal;word-spacing:normal;text-transform:none;direction:ltr;block-progression:tb;writing-mode:lr-tb;text-anchor:start;baseline-shift:baseline;color:#000;fill:#bebebe;fill-opacity:1;stroke:none;stroke-width:2;marker:none;visibility:visible;display:inline;overflow:visible;enable-background:accumulate;font-family:Sans;-inkscape-font-specification:Sans"/></g></svg>