<svg xmlns="http://www.w3.org/2000/svg" xmlns:svg="http://www.w3.org/2000/svg" id="svg7384" width="16" height="16" version="1.1"><metadata id="metadata90"/><title id="title9167">Gnome Symbolic Icon Theme</title><defs id="defs7386"><filter id="filter12578-8" color-interpolation-filters="sRGB"><feGaussianBlur id="feGaussianBlur12580-4" stdDeviation=".015"/></filter><filter id="filter12586-1" color-interpolation-filters="sRGB"><feGaussianBlur id="feGaussianBlur12588-8" stdDeviation=".02"/></filter></defs><g id="layer1" transform="translate(180,-321.9997)"><path id="path35057" d="m -170.21875,322 c -0.1028,-0.004 -0.20643,0.0318 -0.3125,0.125 C -174.99002,325.80575 -179,330 -179,332 c 0.16421,0.88996 -0.22247,0.55704 -0.25,1.4375 0.0474,0.32567 0.31339,0.55542 0.59375,0.5 0.22196,-0.044 0.93629,-0.21668 1,-0.65625 1.41962,0.038 1.92909,-1.68833 3.03125,-3.0625 l 4.75,-7.4375 c 0.19382,-0.37494 -0.0353,-0.76875 -0.34375,-0.78125 z m -5.78125,6 1,0 -2,3 -1,0 z" style="fill:#bebebe;fill-opacity:1;stroke:none;display:inline"/><path id="path35102" d="m -179,333 -1,2 1,0 1,-2 z" style="fill:#bebebe;fill-opacity:1;stroke:none"/><path id="path35201" d="m -169,328 c -2.76142,0 -5,2.23858 -5,5 0,2.76142 2.23858,5 5,5 2.76142,0 5,-2.23858 5,-5 0,-2.76142 -2.23858,-5 -5,-5 z m -1,2 2,0 0,1 -2,0 0,-1 z m 0,2 2,0 0,4 -2,0 0,-4 z" style="fill:#bebebe;fill-opacity:1;stroke:none"/></g></svg>