<svg xmlns="http://www.w3.org/2000/svg" xmlns:svg="http://www.w3.org/2000/svg" id="svg7384" width="16" height="16" version="1.1"><metadata id="metadata90"/><title id="title9167">Gnome Symbolic Icon Theme</title><defs id="defs7386"><filter id="filter12578-8" color-interpolation-filters="sRGB"><feGaussianBlur id="feGaussianBlur12580-4" stdDeviation=".015"/></filter><filter id="filter12586-1" color-interpolation-filters="sRGB"><feGaussianBlur id="feGaussianBlur12588-8" stdDeviation=".02"/></filter></defs><g id="layer1" transform="translate(160,-262)"><path id="path5754" d="m -150,268 2.53033,-2.53033 0.93935,1.06066 L -149,269 z" style="fill:#bebebe;fill-opacity:1;stroke:none"/><rect id="rect5756" width="1" height="4" x="-150" y="265" style="fill:#bebebe;fill-opacity:1;stroke:none"/><rect id="rect5758" width="3" height="1" x="-149" y="268" style="fill:#bebebe;fill-opacity:1;stroke:none"/><path id="path5760" d="m -154,272 -2.53033,2.48614 -0.99999,-1 L -155,271 z" style="fill:#bebebe;fill-opacity:1;stroke:none"/><rect id="rect5762" width="1" height="4" x="154" y="-275" transform="scale(-1,-1)" style="fill:#bebebe;fill-opacity:1;stroke:none"/><rect id="rect5764" width="3" height="1" x="155" y="-272" transform="scale(-1,-1)" style="fill:#bebebe;fill-opacity:1;stroke:none"/><path id="path5766" d="m -150,272 2.53033,2.48614 1,-1 L -149,271 z" style="fill:#bebebe;fill-opacity:1;stroke:none"/><rect id="rect5768" width="1" height="4" x="-150" y="-275" transform="scale(1,-1)" style="fill:#bebebe;fill-opacity:1;stroke:none"/><rect id="rect5770" width="3" height="1" x="-149" y="-272" transform="scale(1,-1)" style="fill:#bebebe;fill-opacity:1;stroke:none"/><path id="path5772" d="m -154,268 -2.53033,-2.48614 -1,1 L -155,269 z" style="fill:#bebebe;fill-opacity:1;stroke:none"/><rect id="rect5774" width="1" height="4" x="154" y="265" transform="scale(-1,1)" style="fill:#bebebe;fill-opacity:1;stroke:none"/><rect id="rect5776" width="3" height="1" x="155" y="268" transform="scale(-1,1)" style="fill:#bebebe;fill-opacity:1;stroke:none"/><rect id="rect5808" width="1" height="4" x="-160" y="263" style="opacity:.3;fill:#bebebe;fill-opacity:1;stroke:none"/><rect id="rect5810" width="5" height="1" x="-156" y="276" ry="0" style="opacity:.3;fill:#bebebe;fill-opacity:1;stroke:none"/><rect id="rect5812" width="4" height="1" x="-151" y="276" style="fill:#bebebe;fill-opacity:1;stroke:none"/><rect id="rect5814" width="4" height="1" x="-148" y="263" ry="0" style="fill:#bebebe;fill-opacity:1;stroke:none"/><rect id="rect5816" width="1" height="4" x="-145" y="269" ry="0" style="fill:#bebebe;fill-opacity:1;stroke:none"/><rect id="rect5818" width="1" height="3" x="-145" y="266" style="opacity:.3;fill:#bebebe;fill-opacity:1;stroke:none"/><rect id="rect5820" width="4" height="1" x="-158" y="263" ry="0" style="fill:#bebebe;fill-opacity:1;stroke:none"/><rect id="rect5822" width="6" height="1" x="-154" y="263" ry="0" style="opacity:.3;fill:#bebebe;fill-opacity:1;stroke:none"/><rect id="rect5824" width="1" height="3" x="-145" y="273" ry="0" style="opacity:.3;fill:#bebebe;fill-opacity:1;stroke:none"/><rect id="rect5826" width="4" height="1" x="-160" y="276" ry="0" style="fill:#bebebe;fill-opacity:1;stroke:none"/><rect id="rect5828" width="1" height="4" x="-160" y="267" style="fill:#bebebe;fill-opacity:1;stroke:none"/><rect id="rect5830" width="1" height="3" x="-160" y="271" style="opacity:.3;fill:#bebebe;fill-opacity:1;stroke:none"/><rect id="rect5832" width="3" height="1" x="-147" y="276" style="opacity:.3;fill:#bebebe;fill-opacity:1;stroke:none"/><rect id="rect5834" width="1" height="2" x="-145" y="264" style="fill:#bebebe;fill-opacity:1;stroke:none"/><rect id="rect5836" width="1" height="2" x="-160" y="274" style="fill:#bebebe;fill-opacity:1;stroke:none"/><rect id="rect5838" width="1" height="1" x="-159" y="263" style="opacity:.3;fill:#bebebe;fill-opacity:1;stroke:none"/></g></svg>