<svg xmlns="http://www.w3.org/2000/svg" xmlns:svg="http://www.w3.org/2000/svg" id="svg7384" width="16" height="16" version="1.1"><metadata id="metadata90"/><title id="title9167">Gnome Symbolic Icon Theme</title><defs id="defs7386"><filter id="filter12578-8" color-interpolation-filters="sRGB"><feGaussianBlur id="feGaussianBlur12580-4" stdDeviation=".015"/></filter><filter id="filter12586-1" color-interpolation-filters="sRGB"><feGaussianBlur id="feGaussianBlur12588-8" stdDeviation=".02"/></filter></defs><g id="layer1" transform="translate(160.00001,-402)"><rect id="rect6826" width="2" height="5" x="-411" y="155" rx="1" ry="0" transform="matrix(0,-1,-1,0,0,0)" style="fill:#bebebe;fill-opacity:1;stroke:none"/><rect id="rect6828" width="2" height="5" x="-411" y="144" rx=".938" ry="0" transform="matrix(0,-1,-1,0,0,0)" style="fill:#bebebe;fill-opacity:1;stroke:none"/><path id="path6841" d="m -156,405 c -1.108,0 -2,0.892 -2,2 l 0,6 c 0,1.108 0.892,2 2,2 l 3,0 0,-2 -2,0 c -0.554,0 -1,-0.446 -1,-1 l 0,-4 c 0,-0.554 0.446,-1 1,-1 l 2,0 0,-2 -3,0 z" style="fill:#bebebe;fill-opacity:1;stroke:none"/><path id="path6830" d="m -151,405 0,2 2,0 c 0.554,0 1,0.446 1,1 l 0,4 c 0,0.554 -0.446,1 -1,1 l -2,0 0,2 3,0 c 1.108,0 2,-0.892 2,-2 l 0,-6 c 0,-1.108 -0.892,-2 -2,-2 l -3,0 z" style="fill:#bebebe;fill-opacity:1;stroke:none"/></g></svg>