<svg xmlns="http://www.w3.org/2000/svg" xmlns:svg="http://www.w3.org/2000/svg" id="svg7384" width="16" height="16" version="1.1"><metadata id="metadata90"/><title id="title9167">Gnome Symbolic Icon Theme</title><defs id="defs7386"><filter id="filter12578-8" color-interpolation-filters="sRGB"><feGaussianBlur id="feGaussianBlur12580-4" stdDeviation=".015"/></filter><filter id="filter12586-1" color-interpolation-filters="sRGB"><feGaussianBlur id="feGaussianBlur12588-8" stdDeviation=".02"/></filter></defs><g id="layer1" transform="translate(200,-262)"><rect id="rect30180" width="1" height="1" x="-197" y="266" style="fill:#bebebe;fill-opacity:1;stroke:none"/><rect id="rect30182" width="1" height="1" x="-193" y="266" style="fill:#bebebe;fill-opacity:1;stroke:none"/><rect id="rect30184" width="1" height="1" x="-191" y="266" style="fill:#bebebe;fill-opacity:1;stroke:none"/><rect id="rect30186" width="1" height="1" x="-189" y="266" style="fill:#bebebe;fill-opacity:1;stroke:none"/><rect id="rect30190" width="1" height="1" x="-197" y="268" style="fill:#bebebe;fill-opacity:1;stroke:none"/><rect id="rect30192" width="1" height="1" x="-197" y="270" style="fill:#bebebe;fill-opacity:1;stroke:none"/><rect id="rect30194" width="1" height="1" x="-197" y="272" style="fill:#bebebe;fill-opacity:1;stroke:none"/><rect id="rect30196" width="1" height="1" x="-197" y="274" style="fill:#bebebe;fill-opacity:1;stroke:none"/><rect id="rect30198" width="1" height="1" x="-187" y="266" style="fill:#bebebe;fill-opacity:1;stroke:none"/><rect id="rect30200" width="1" height="1" x="-185" y="266" style="fill:#bebebe;fill-opacity:1;stroke:none"/><rect id="rect30202" width="1" height="1" x="-185" y="268" style="fill:#bebebe;fill-opacity:1;stroke:none"/><rect id="rect30204" width="1" height="1" x="-185" y="270" style="fill:#bebebe;fill-opacity:1;stroke:none"/><rect id="rect30206" width="1" height="1" x="-185" y="272" style="fill:#bebebe;fill-opacity:1;stroke:none"/><rect id="rect30208" width="1" height="1" x="-185" y="274" style="fill:#bebebe;fill-opacity:1;stroke:none"/><rect id="rect30210" width="1" height="1" x="-189" y="276" style="fill:#bebebe;fill-opacity:1;stroke:none"/><rect id="rect30212" width="1" height="1" x="-191" y="276" style="fill:#bebebe;fill-opacity:1;stroke:none"/><rect id="rect30214" width="1" height="1" x="-193" y="276" style="fill:#bebebe;fill-opacity:1;stroke:none"/><rect id="rect30217" width="1" height="1" x="-197" y="276" style="fill:#bebebe;fill-opacity:1;stroke:none"/><rect id="rect30219" width="6" height="5" x="-194" y="269" style="fill:#bebebe;fill-opacity:1;stroke:none"/><rect id="rect30221" width="1" height="1" x="-187" y="276" style="fill:#bebebe;fill-opacity:1;stroke:none"/><rect id="rect30223" width="1" height="1" x="-185" y="276" style="fill:#bebebe;fill-opacity:1;stroke:none"/><rect id="rect30229" width="1" height="1" x="-195" y="266" style="fill:#bebebe;fill-opacity:1;stroke:none"/><rect id="rect30231" width="1" height="1" x="-195" y="276" style="fill:#bebebe;fill-opacity:1;stroke:none"/><path id="path30243" d="m -200,262 0,12 2,0 0,-6 0,-3 3,0 7,0 0,-3 z" style="opacity:.3;fill:#bebebe;fill-opacity:1;stroke:none"/></g></svg>