<svg xmlns="http://www.w3.org/2000/svg" xmlns:svg="http://www.w3.org/2000/svg" id="svg7384" width="16" height="16.015" version="1.1"><metadata id="metadata90"/><title id="title9167">Gnome Symbolic Icon Theme</title><defs id="defs7386"><filter id="filter12578-8" color-interpolation-filters="sRGB"><feGaussianBlur id="feGaussianBlur12580-4" stdDeviation=".015"/></filter><filter id="filter12586-1" color-interpolation-filters="sRGB"><feGaussianBlur id="feGaussianBlur12588-8" stdDeviation=".02"/></filter></defs><g id="layer1" transform="translate(140,-262)"><g id="g5911" transform="matrix(0.8746234,0,0,0.89178327,-108.07101,252.5548)" style="fill:#bebebe;fill-opacity:1;stroke:none"><path id="path5913" d="m -28.5,27.5711 c 3.111145,0.0011 2.79359,-3.323359 4.304166,-4.248979 1.750479,-1.072622 3.284496,0.256475 3.590759,1.350292 0.386445,1.380184 -0.337829,2.508685 -1.300323,3.118949 -1.846361,1.170674 -6.300039,0.898712 -6.594602,-0.220262 z" style="fill:#bebebe;fill-opacity:1;stroke:none"/></g><path id="path5915" d="m -124,267.40625 c -1.01392,1.06131 -2.08877,2.33758 -3.75,4.625 1.00355,0.0377 1.86506,0.68865 2.3125,1.625 0.53204,-0.5735 1.00964,-1.14188 1.4375,-1.65625 l 0,-4.59375 z" style="fill:#bebebe;fill-opacity:1;stroke:none"/><rect id="rect5932" width="1" height="1" x="-140" y="264" style="fill:#bebebe;fill-opacity:1;stroke:none"/><rect id="rect5934" width="1" height="1" x="-128" y="264" style="fill:#bebebe;fill-opacity:1;stroke:none"/><rect id="rect5936" width="1" height="1" x="-126" y="264" style="fill:#bebebe;fill-opacity:1;stroke:none"/><rect id="rect5938" width="1" height="1" x="-140" y="266" style="fill:#bebebe;fill-opacity:1;stroke:none"/><rect id="rect5940" width="1" height="1" x="-130" y="264" style="fill:#bebebe;fill-opacity:1;stroke:none"/><rect id="rect5942" width="1" height="1" x="-138" y="264" style="fill:#bebebe;fill-opacity:1;stroke:none"/><rect id="rect5944" width="1" height="1" x="-136" y="264" style="fill:#bebebe;fill-opacity:1;stroke:none"/><rect id="rect5946" width="1" height="1" x="-134" y="264" style="fill:#bebebe;fill-opacity:1;stroke:none"/><rect id="rect5948" width="1" height="1" x="-132" y="264" style="fill:#bebebe;fill-opacity:1;stroke:none"/><rect id="rect5950" width="1" height="1" x="-140" y="268" style="fill:#bebebe;fill-opacity:1;stroke:none"/><rect id="rect5952" width="1" height="1" x="-140" y="270" style="fill:#bebebe;fill-opacity:1;stroke:none"/><rect id="rect5954" width="1" height="1" x="-138" y="274" style="fill:#bebebe;fill-opacity:1;stroke:none"/><rect id="rect5956" width="1" height="1" x="-136" y="274" style="fill:#bebebe;fill-opacity:1;stroke:none"/><rect id="rect5958" width="1" height="1" x="-134" y="274" style="fill:#bebebe;fill-opacity:1;stroke:none"/><rect id="rect5960" width="1" height="1" x="-132" y="274" style="fill:#bebebe;fill-opacity:1;stroke:none"/><rect id="rect5974" width="1" height="1" x="-126" y="266" style="fill:#bebebe;fill-opacity:1;stroke:none"/><path id="rect5976" d="m -138,266 0,7 8,0 3,-4 0,-3 -11,0 z" style="opacity:.3;fill:#bebebe;fill-opacity:1;stroke:none"/><rect id="rect5978" width="1" height="1" x="-140" y="272" style="fill:#bebebe;fill-opacity:1;stroke:none"/><rect id="rect5980" width="1" height="1" x="-140" y="274" style="fill:#bebebe;fill-opacity:1;stroke:none"/></g></svg>