<svg xmlns="http://www.w3.org/2000/svg" xmlns:svg="http://www.w3.org/2000/svg" id="svg7384" width="16" height="16" version="1.1"><metadata id="metadata90"/><title id="title9167">Gnome Symbolic Icon Theme</title><defs id="defs7386"><filter id="filter12578-8" color-interpolation-filters="sRGB"><feGaussianBlur id="feGaussianBlur12580-4" stdDeviation=".015"/></filter><filter id="filter12586-1" color-interpolation-filters="sRGB"><feGaussianBlur id="feGaussianBlur12588-8" stdDeviation=".02"/></filter></defs><g id="layer1" transform="translate(80.000002,-242)"><rect id="rect12425" width="1" height="3" x="-79" y="244" style="fill:#bebebe;fill-opacity:1;stroke:none"/><rect id="rect12437" width="4" height="1" x="-75" y="244" ry="0" style="opacity:.3;fill:#bebebe;fill-opacity:1;stroke:none"/><rect id="rect12439" width="5" height="1" x="-71" y="244" ry="0" style="fill:#bebebe;fill-opacity:1;stroke:none"/><rect id="rect12445" width="1" height="3" x="-79" y="247" style="opacity:.3;fill:#bebebe;fill-opacity:1;stroke:none"/><rect id="rect12447" width="1" height="3" x="-79" y="250" style="fill:#bebebe;fill-opacity:1;stroke:none"/><rect id="rect12453" width="1" height="3" x="-79" y="253" style="opacity:.3;fill:#bebebe;fill-opacity:1;stroke:none"/><rect id="rect12455" width="3" height="1" x="-78" y="244" style="fill:#bebebe;fill-opacity:1;stroke:none"/><rect id="rect12474" width="1" height="3" x="-75" y="248" style="fill:#bebebe;fill-opacity:1;stroke:none"/><rect id="rect12476" width="4" height="1" x="-72" y="248" ry="0" style="opacity:.3;fill:#bebebe;fill-opacity:1;stroke:none"/><rect id="rect12478" width="2" height="1" x="-68" y="248" ry="0" style="fill:#bebebe;fill-opacity:1;stroke:none"/><rect id="rect12480" width="1" height="3" x="-75" y="251" style="opacity:.3;fill:#bebebe;fill-opacity:1;stroke:none"/><rect id="rect12482" width="1" height="2" x="-75" y="254" style="fill:#bebebe;fill-opacity:1;stroke:none"/><rect id="rect12486" width="2" height="1" x="-74" y="248" style="fill:#bebebe;fill-opacity:1;stroke:none"/></g></svg>