<svg xmlns="http://www.w3.org/2000/svg" xmlns:svg="http://www.w3.org/2000/svg" id="svg7384" width="16" height="16" version="1.1"><metadata id="metadata90"/><title id="title9167">Gnome Symbolic Icon Theme</title><defs id="defs7386"><filter id="filter12578-8" color-interpolation-filters="sRGB"><feGaussianBlur id="feGaussianBlur12580-4" stdDeviation=".015"/></filter><filter id="filter12586-1" color-interpolation-filters="sRGB"><feGaussianBlur id="feGaussianBlur12588-8" stdDeviation=".02"/></filter></defs><g id="layer1" transform="translate(200,-342)"><path id="path3997" d="m -198.47087,345.64322 c 0.6312,0.5364 1.57798,0.45896 2.11421,-0.17163 0.53649,-0.63148 0.4587,-1.57858 -0.17242,-2.11475 -0.63139,-0.53647 -1.57809,-0.45903 -2.11424,0.17155 -0.53643,0.63128 -0.45884,1.57848 0.17245,2.11483 z" style="fill:#bebebe;fill-opacity:1;stroke:none"/><path id="path3989" d="m -194.45554,345.65647 c 0.63844,0.52756 1.58392,0.4374 2.11161,-0.20105 0.52812,-0.63843 0.43777,-1.58431 -0.20046,-2.1118 -0.63853,-0.52772 -1.58401,-0.43748 -2.11176,0.20111 -0.528,0.63821 -0.43771,1.5841 0.20061,2.11174 z" style="fill:#bebebe;fill-opacity:1;stroke:none"/><path id="path4045" d="M -187.78908,348.89758 -186,347 l 0,9 -9,0 2.05997,-1.98155 c 0,0 -4.04568,-2.80599 -0.79772,-5.86149 3.24797,-3.05551 5.75488,0.9076 5.75488,0.9076 z" style="fill:#bebebe;fill-opacity:1;stroke:none"/><path id="path3771" d="m -198.47491,349.65692 c 0.64341,0.52684 1.59639,0.43683 2.1283,-0.20067 0.53228,-0.63753 0.44115,-1.58188 -0.20211,-2.10866 -0.64347,-0.52691 -1.5965,-0.43681 -2.12837,0.20074 -0.53214,0.63739 -0.44125,1.58174 0.20218,2.10859 z" style="fill:#bebebe;fill-opacity:1;stroke:none"/></g></svg>