<svg xmlns="http://www.w3.org/2000/svg" xmlns:svg="http://www.w3.org/2000/svg" id="svg7384" width="16" height="16" version="1.1"><metadata id="metadata90"/><title id="title9167">Gnome Symbolic Icon Theme</title><defs id="defs7386"><filter id="filter12578-8" color-interpolation-filters="sRGB"><feGaussianBlur id="feGaussianBlur12580-4" stdDeviation=".015"/></filter><filter id="filter12586-1" color-interpolation-filters="sRGB"><feGaussianBlur id="feGaussianBlur12588-8" stdDeviation=".02"/></filter></defs><g id="layer1" transform="translate(120,-342)"><rect id="rect13431" width="1" height="1" x="-108" y="348" style="fill:#bebebe;fill-opacity:1;stroke:none"/><rect id="rect13433" width="1" height="1" x="-110" y="348" style="fill:#bebebe;fill-opacity:1;stroke:none"/><rect id="rect13435" width="1" height="1" x="-112" y="348" style="fill:#bebebe;fill-opacity:1;stroke:none"/><rect id="rect13437" width="1" height="1" x="-114" y="348" style="fill:#bebebe;fill-opacity:1;stroke:none"/><rect id="rect13439" width="1" height="1" x="-114" y="350" style="fill:#bebebe;fill-opacity:1;stroke:none"/><rect id="rect13441" width="1" height="1" x="-114" y="352" style="fill:#bebebe;fill-opacity:1;stroke:none"/><rect id="rect13443" width="1" height="1" x="-114" y="354" style="fill:#bebebe;fill-opacity:1;stroke:none"/><rect id="rect13445" width="1" height="1" x="-114" y="356" style="fill:#bebebe;fill-opacity:1;stroke:none"/><path id="rect13447" d="m -118,357 0,-4 0,-5 c 0,-2.216 1.784,-4 4,-4 l 8,0 c 0,4.3748 0,-0.85566 0,3 l -7,0 c -1.10701,-0.0468 -2,0.892 -2,2 l 0,5 0,3 z" style="fill:#bebebe;fill-opacity:1;stroke:none"/><path id="rect13481" d="m -112,350 6,0 0,1.75 0,1.25 -3,0 0,4 -3,0 z" style="fill:#bebebe;fill-opacity:1;stroke:none"/></g></svg>