<svg xmlns="http://www.w3.org/2000/svg" xmlns:svg="http://www.w3.org/2000/svg" id="svg7384" width="16" height="16" version="1.1"><metadata id="metadata90"/><title id="title9167">Gnome Symbolic Icon Theme</title><defs id="defs7386"><filter id="filter12578-8" color-interpolation-filters="sRGB"><feGaussianBlur id="feGaussianBlur12580-4" stdDeviation=".015"/></filter><filter id="filter12586-1" color-interpolation-filters="sRGB"><feGaussianBlur id="feGaussianBlur12588-8" stdDeviation=".02"/></filter></defs><g id="layer1" transform="translate(140,-402)"><path id="path6897" d="m -136,407 0,6 6,0 2,-2 0,-4 -8,0 z" style="fill:#bebebe;fill-opacity:1;stroke:none"/><rect id="rect6903" width="4" height="2" x="-134" y="404" rx="1" ry="1" style="fill:#bebebe;fill-opacity:1;stroke:none"/><path id="rect6907" d="m -137.46875,405 c -0.2938,0 -0.53125,0.23745 -0.53125,0.53125 l 0,8.9375 c 0,0.2938 0.23745,0.53125 0.53125,0.53125 l 10.9375,0 c 0.2938,0 0.53125,-0.23745 0.53125,-0.53125 l 0,-8.9375 c 0,-0.2938 -0.23825,-0.50955 -0.53125,-0.53125 l -2.46875,0 0,1 1.46875,0 c 0.2938,0 0.53125,0.23745 0.53125,0.53125 l 0,6.9375 c 0,0.2938 -0.23745,0.53125 -0.53125,0.53125 l -8.9375,0 C -136.76255,414 -137,413.76255 -137,413.46875 l 0,-6.9375 c 0,-0.2938 0.23745,-0.53125 0.53125,-0.53125 l 1.46875,0 0,-1 z" style="fill:#bebebe;fill-opacity:1;stroke:none"/><rect id="rect6913" width="1" height="1" x="-140" y="402" rx=".53" ry="0" style="fill:#bebebe;fill-opacity:1;stroke:none"/><rect id="rect6915" width="1" height="1" x="-138" y="402" rx=".53" ry="0" style="fill:#bebebe;fill-opacity:1;stroke:none"/><rect id="rect6917" width="1" height="1" x="-136" y="402" rx=".53" ry="0" style="fill:#bebebe;fill-opacity:1;stroke:none"/><rect id="rect6919" width="1" height="1" x="-134" y="402" rx=".53" ry="0" style="fill:#bebebe;fill-opacity:1;stroke:none"/><rect id="rect6921" width="1" height="1" x="-132" y="402" rx=".53" ry="0" style="fill:#bebebe;fill-opacity:1;stroke:none"/><rect id="rect6923" width="1" height="1" x="-130" y="402" rx=".53" ry="0" style="fill:#bebebe;fill-opacity:1;stroke:none"/><rect id="rect6925" width="1" height="1" x="-128" y="402" rx=".53" ry="0" style="fill:#bebebe;fill-opacity:1;stroke:none"/><rect id="rect6927" width="1" height="1" x="-126" y="402" rx=".53" ry="0" style="fill:#bebebe;fill-opacity:1;stroke:none"/><rect id="rect6929" width="1" height="1" x="-125" y="404" rx=".53" ry="0" style="fill:#bebebe;fill-opacity:1;stroke:none"/><rect id="rect6931" width="1" height="1" x="416" y="139" rx=".53" ry="0" transform="matrix(0,1,-1,0,0,0)" style="fill:#bebebe;fill-opacity:1;stroke:none"/><rect id="rect6933" width="1" height="1" x="414" y="139" rx=".53" ry="0" transform="matrix(0,1,-1,0,0,0)" style="fill:#bebebe;fill-opacity:1;stroke:none"/><rect id="rect6935" width="1" height="1" x="412" y="139" rx=".53" ry="0" transform="matrix(0,1,-1,0,0,0)" style="fill:#bebebe;fill-opacity:1;stroke:none"/><rect id="rect6937" width="1" height="1" x="410" y="139" rx=".53" ry="0" transform="matrix(0,1,-1,0,0,0)" style="fill:#bebebe;fill-opacity:1;stroke:none"/><rect id="rect6939" width="1" height="1" x="408" y="139" rx=".53" ry="0" transform="matrix(0,1,-1,0,0,0)" style="fill:#bebebe;fill-opacity:1;stroke:none"/><rect id="rect6941" width="1" height="1" x="406" y="139" rx=".53" ry="0" transform="matrix(0,1,-1,0,0,0)" style="fill:#bebebe;fill-opacity:1;stroke:none"/><rect id="rect6943" width="1" height="1" x="404" y="139" rx=".53" ry="0" transform="matrix(0,1,-1,0,0,0)" style="fill:#bebebe;fill-opacity:1;stroke:none"/><rect id="rect6945" width="1" height="1" x="-138" y="416" rx=".53" ry="0" style="fill:#bebebe;fill-opacity:1;stroke:none"/><rect id="rect6947" width="1" height="1" x="-136" y="416" rx=".53" ry="0" style="fill:#bebebe;fill-opacity:1;stroke:none"/><rect id="rect6949" width="1" height="1" x="-134" y="416" rx=".53" ry="0" style="fill:#bebebe;fill-opacity:1;stroke:none"/><rect id="rect6951" width="1" height="1" x="-132" y="416" rx=".53" ry="0" style="fill:#bebebe;fill-opacity:1;stroke:none"/><rect id="rect6953" width="1" height="1" x="-130" y="416" rx=".53" ry="0" style="fill:#bebebe;fill-opacity:1;stroke:none"/><rect id="rect6955" width="1" height="1" x="-128" y="416" rx=".53" ry="0" style="fill:#bebebe;fill-opacity:1;stroke:none"/><rect id="rect6957" width="1" height="1" x="-126" y="416" rx=".53" ry="0" style="fill:#bebebe;fill-opacity:1;stroke:none"/><rect id="rect6961" width="1" height="1" x="414" y="124" rx=".53" ry="0" transform="matrix(0,1,-1,0,0,0)" style="fill:#bebebe;fill-opacity:1;stroke:none"/><rect id="rect6963" width="1" height="1" x="412" y="124" rx=".53" ry="0" transform="matrix(0,1,-1,0,0,0)" style="fill:#bebebe;fill-opacity:1;stroke:none"/><rect id="rect6965" width="1" height="1" x="410" y="124" rx=".53" ry="0" transform="matrix(0,1,-1,0,0,0)" style="fill:#bebebe;fill-opacity:1;stroke:none"/><rect id="rect6967" width="1" height="1" x="408" y="124" rx=".53" ry="0" transform="matrix(0,1,-1,0,0,0)" style="fill:#bebebe;fill-opacity:1;stroke:none"/><rect id="rect6969" width="1" height="1" x="406" y="124" rx=".53" ry="0" transform="matrix(0,1,-1,0,0,0)" style="fill:#bebebe;fill-opacity:1;stroke:none"/></g></svg>