<svg xmlns="http://www.w3.org/2000/svg" xmlns:svg="http://www.w3.org/2000/svg" id="svg7384" width="16" height="16.044" version="1.1"><metadata id="metadata90"/><title id="title9167">Gnome Symbolic Icon Theme</title><defs id="defs7386"><filter id="filter12578-8" color-interpolation-filters="sRGB"><feGaussianBlur id="feGaussianBlur12580-4" stdDeviation=".015"/></filter><filter id="filter12586-1" color-interpolation-filters="sRGB"><feGaussianBlur id="feGaussianBlur12588-8" stdDeviation=".02"/></filter></defs><g id="layer1" transform="translate(100,-322)"><g id="g12990" transform="translate(-281.0002,145)"><path id="path12994" d="m 191.61215,182.40474 -4.22019,5.66336 -1.69404,1.49261 L 185.0002,189 l 0.99632,-2.0533 4.22021,-5.66336 1.39542,1.1214 z" style="fill:#bebebe;fill-opacity:1;fill-rule:evenodd;stroke:none"/><path id="path12996" d="m 185.0002,189.57452 c 0,0 -1.47718,0.66848 -1.46543,2.07969 0.0147,1.75803 2.66009,1.84345 2.74332,0.28446 0.0475,-0.89097 -1.27789,-2.36415 -1.27789,-2.36415 z" style="fill:#bebebe;fill-opacity:1;fill-rule:evenodd;stroke:none"/><path id="path12998" d="m 187.64655,181.43041 4.6492,3.52738 0.70445,-0.92575 -1.39473,-1.05818 c 2.80371,-0.79322 4.71994,-4.17485 2.86027,-5.58582 -1.85967,-1.41094 -4.70574,1.26519 -4.71994,4.17488 l -1.39477,-1.05822 -0.70448,0.92571 z" style="fill:#bebebe;fill-opacity:1;fill-rule:evenodd;stroke:none"/></g><path id="path13000" d="m -90,332 0,6 6,0 0,-6 z" style="fill:#bebebe;fill-opacity:1;stroke:none"/></g></svg>