<svg xmlns="http://www.w3.org/2000/svg" xmlns:svg="http://www.w3.org/2000/svg" id="svg7384" width="16" height="16" version="1.1"><metadata id="metadata90"/><title id="title9167">Gnome Symbolic Icon Theme</title><defs id="defs7386"><filter id="filter12578-8" color-interpolation-filters="sRGB"><feGaussianBlur id="feGaussianBlur12580-4" stdDeviation=".015"/></filter><filter id="filter12586-1" color-interpolation-filters="sRGB"><feGaussianBlur id="feGaussianBlur12588-8" stdDeviation=".02"/></filter></defs><g id="layer1" transform="translate(200,-322)"><path id="path3620-6" d="m -187.38805,327.3727 -3.48695,4.2523 -1.69404,1.49261 -0.69772,-0.56071 0.99632,-2.0533 3.48697,-4.2523 z" style="fill:#bebebe;fill-opacity:1;fill-rule:evenodd;stroke:none"/><path id="path3583-6" d="m -190.43811,325.91501 3.96093,3.11703 0.60016,-0.81806 -1.18825,-0.93507 c 2.38864,-0.70095 4.02119,-3.68918 2.43683,-4.93601 -1.58436,-1.2468 -4.0091,1.11801 -4.0212,3.6892 l -1.18828,-0.93511 -0.60019,0.81802 z" style="fill:#bebebe;fill-opacity:1;fill-rule:evenodd;stroke:none"/><path id="rect28283" d="m -198.8125,326 c -0.65445,0 -1.1875,0.52209 -1.1875,1.1875 l 0,7.625 c 0,0.66541 0.53305,1.1875 1.1875,1.1875 l 13.5,0 c 0.65445,0 1.1875,-0.52209 1.1875,-1.1875 L -184,327 l -1,1 0,6 c 0,0.66541 -0.6893,1 -1.34375,1 l -11.46875,0 c -0.65445,0 -1.1875,-0.52209 -1.1875,-1.1875 l 0,-5.625 c 0,-0.66541 0.53305,-1.1875 1.1875,-1.1875 l 5.8125,0 0.75,-1 z" style="fill:#bebebe;fill-opacity:1;stroke:none"/><path id="rect28288" d="m -197,329 0,4 10,0 0,-3 -3,3 -1,0 -3,0 0,-1 1,-3 z" style="opacity:.3;fill:#bebebe;fill-opacity:1;stroke:none"/><rect id="rect28290" width="10" height="2" x="-197" y="336" rx="1.196" style="fill:#bebebe;fill-opacity:1;stroke:none"/></g></svg>