<svg xmlns="http://www.w3.org/2000/svg" xmlns:svg="http://www.w3.org/2000/svg" id="svg7384" width="16" height="16" version="1.1"><metadata id="metadata90"/><title id="title9167">Gnome Symbolic Icon Theme</title><defs id="defs7386"><filter id="filter12578-8" color-interpolation-filters="sRGB"><feGaussianBlur id="feGaussianBlur12580-4" stdDeviation=".015"/></filter><filter id="filter12586-1" color-interpolation-filters="sRGB"><feGaussianBlur id="feGaussianBlur12588-8" stdDeviation=".02"/></filter></defs><g id="layer1" transform="translate(80,-342)"><path id="rect13834" d="m -79,343 0,14 14,0 0,-14 z m 8,2 1,0 0,2 1.71875,0 c 0.0118,-10e-4 0.01965,8.8e-4 0.03125,0 1.63636,-0.12511 1.71219,4.0687 0.03125,4 l -2.28125,0 -0.46875,0 0,-0.4375 C -70.9992,347.60737 -71,350.11459 -71,345 z m -5,1 1.8125,0 0.03125,0 c 0.31461,0.0321 0.63337,0.18475 0.84375,0.4375 0.21038,0.25275 0.3125,0.59829 0.3125,0.96875 l -0.03125,3.15625 0,0.4375 -0.4375,0 -2.3125,0 c -1.6559,0.0653 -1.57925,-3.02317 0.03125,-2.90625 l 0.03125,0 1.84375,0 0,-0.6875 c 0,-0.0153 5e-4,-0.017 0,-0.0313 -0.0066,-0.1883 -0.0759,-0.316 -0.125,-0.375 -0.05279,-0.0634 -0.12315,-0.112 -0.25,-0.125 l -1.75,0 z m 5.9375,1.90625 c 0.004,0.14697 -0.006,1.71194 0,2.1875 l 1.84375,0 0.03125,0 c 0.43459,0.0178 0.36781,-2.2257 0,-2.1875 l -0.03125,0 -0.03125,0 z m -5.75,1.0625 c -0.40144,-0.0403 -0.46799,1.17475 0,1.15625 l 0.03125,0 1.84375,0 0.03125,-1.15625 -1.84375,0 -0.03125,0 z M -76,352 l 1,0 0,2 6,0 0,-2 1,0 0,2 0,1 -1,0 -6,0 -1,0 0,-1 z" style="fill:#bebebe;fill-opacity:1;stroke:none"/></g></svg>