<svg xmlns="http://www.w3.org/2000/svg" xmlns:svg="http://www.w3.org/2000/svg" id="svg7384" width="16" height="16" version="1.1"><metadata id="metadata90"/><title id="title9167">Gnome Symbolic Icon Theme</title><defs id="defs7386"><clipPath id="clipPath6265-334-4" clipPathUnits="userSpaceOnUse"><rect id="rect6267-61-0" width="2.898" height="5.216" x="26.966" y="221.33" style="color:#bebebe;fill:#bebebe;fill-opacity:1;fill-rule:nonzero;stroke:none;stroke-width:2;marker:none;visibility:visible;display:inline;overflow:visible"/></clipPath></defs><g id="layer9" transform="translate(-63.0002,-325)" style="display:inline"><path id="path9805" d="m 64.5627,325.03124 c -0.85659,0 -1.5625,0.6897 -1.5625,1.54865 l 0,9.88034 c 0,1.61202 1.48716,2.53677 2.34375,2.53977 l 2.65625,0 0,-4 2,0 2,-2 3,1.4e-4 0,-3.9734 -9.4375,-0.031 c -1.95272,0.0312 -2.23491,-2.94208 0,-2.9734 l 9.4375,0 c 0,0 0.12457,-1.0224 -1,-0.99113 l -9.4375,0 z" style="color:#000;fill:#bebebe;fill-opacity:1;stroke:none;stroke-width:.99999976;marker:none;visibility:visible;display:inline;overflow:visible;enable-background:new"/><path id="path9807" d="m 63.98937,329.36319 10.81397,0 c -1.46209,-0.57741 -1.35979,-2.64345 0,-3.26005 l -10.81397,0 z" style="opacity:.3;color:#000;fill:#bebebe;fill-opacity:1;fill-rule:nonzero;stroke:none;stroke-width:.99999976;marker:none;visibility:visible;display:inline;overflow:visible;enable-background:new"/><path id="path3726" d="m 27.125,221.09375 a 0.57960298,0.57960298 0 0 0 -0.34375,1 c 1.023324,1.02332 1.023324,2.66418 0,3.6875 a 0.57960298,0.57960298 0 1 0 0.8125,0.8125 c 1.466269,-1.46627 1.466269,-3.84623 0,-5.3125 a 0.57960298,0.57960298 0 0 0 -0.46875,-0.1875 z" clip-path="url(#clipPath6265-334-4)" transform="matrix(1.1360723,0,0,0.95028939,45.39948,124.72222)" style="font-size:medium;font-style:normal;font-variant:normal;font-weight:400;font-stretch:normal;text-indent:0;text-align:start;text-decoration:none;line-height:normal;letter-spacing:normal;word-spacing:normal;text-transform:none;direction:ltr;block-progression:tb;writing-mode:lr-tb;text-anchor:start;baseline-shift:baseline;color:#000;fill:#bebebe;fill-opacity:1;stroke:none;stroke-width:1.15909004;marker:none;visibility:visible;display:inline;overflow:visible;enable-background:accumulate;font-family:Sans;-inkscape-font-specification:Sans"/><path id="path5491" d="m 69.00563,336 1.65158,0 1.95148,-2.01794 0.36356,0.01 0,6.94869 -0.31598,5.3e-4 -2.02116,-1.90548 -1.65158,0 0.0221,-3.03562 z" style="color:#bebebe;fill:#bebebe;fill-opacity:1;fill-rule:nonzero;stroke:none;stroke-width:1;marker:none;visibility:visible;display:inline;overflow:visible"/><path id="rect10306" d="m 74.0002,336 0.78906,0 c 0.41109,1 0.41879,2 0.0391,3 l -0.82812,0 z" style="color:#000;fill:#bebebe;fill-opacity:1;stroke:none;stroke-width:1;marker:none;visibility:visible;display:inline;overflow:visible;enable-background:new"/></g></svg>