<svg xmlns="http://www.w3.org/2000/svg" xmlns:osb="http://www.openswatchbook.org/uri/2009/osb" xmlns:svg="http://www.w3.org/2000/svg" id="svg7384" width="16.002" height="16" version="1.1"><metadata id="metadata90"/><title id="title9167">Gnome Symbolic Icon Theme</title><defs id="defs7386"><linearGradient id="linearGradient7212" osb:paint="solid"><stop id="stop7214" offset="0" style="stop-color:#000;stop-opacity:1"/></linearGradient></defs><g id="layer9" transform="translate(-523.0002,165)" style="display:inline"><circle id="path8910-8" cx="534.503" cy="153.5" r="4.5" transform="scale(1,-1)" style="display:inline;fill:#bfbfbf;fill-opacity:.29803922;stroke:none"/><path id="path11005-9" d="m 523.46895,-164.99999 c -0.25058,0 -0.46875,0.21817 -0.46875,0.46875 l 0,12.0625 c 0,0.2587 0.20995,0.46875 0.46875,0.46875 l 5.75,0 c -0.13724,-0.48068 -0.21875,-0.97527 -0.21875,-1.5 0,-3.03758 2.46242,-5.5 5.5,-5.5 0.89797,0 1.75131,0.21212 2.5,0.59375 l 0,-2.125 c 0,-0.2505 -0.21817,-0.4375 -0.46875,-0.4375 l -0.0312,-0.0312 -0.0312,0 -11.46875,0 0,6.5 c 0,0.26932 -0.23068,0.5 -0.5,0.5 -0.26932,0 -0.5,-0.23068 -0.5,-0.5 l 0,-7 c 0,-0.3099 0.15376,-0.5 0.5,-0.5 l 10.5,0 0,-0.5 c 0,-0.28358 -0.21652,-0.5 -0.5,-0.5 l -6.5,0 0,-1.53125 c 0,-0.2506 -0.21817,-0.46875 -0.46875,-0.46875 l -4.0625,0 z m 11.3125,7 c -2.08931,-0.12542 -4.06216,1.24322 -4.625,3.34375 -0.64324,2.40061 0.78689,4.85676 3.1875,5.5 2.40061,0.64324 4.85707,-0.78681 5.5,-3.1875 0.0575,-0.2146 0.0999,-0.43805 0.12591,-0.65597 l -4.49073,-3.1e-4 0.53048,-4.97833 c -0.0751,-0.01 -0.1509,-0.017 -0.22816,-0.0217 z" style="display:inline;fill:#bebebe;fill-opacity:1;stroke:none"/><circle id="path8908" cx="532.588" cy="152.776" r="3.09" transform="scale(1,-1)" style="display:inline;fill:#fff;fill-opacity:0;stroke:none"/></g></svg>