<svg xmlns="http://www.w3.org/2000/svg" xmlns:svg="http://www.w3.org/2000/svg" id="svg7384" width="16" height="16" version="1.1"><metadata id="metadata90"/><title id="title9167">Gnome Symbolic Icon Theme</title><g id="layer9" transform="translate(-203.00021,-175.00001)" style="display:inline"><path id="rect12618" d="m 210.83522,177.15089 c -0.24052,0.0404 -0.47202,0.15754 -0.625,0.375 -0.30595,0.43491 -0.21249,1.03265 0.21875,1.34375 l 1.6875,1.21875 -1.28125,0 -1.0625,0 -3.71875,0 c -0.55743,0 -1.03125,0.44257 -1.03125,1 0,0.55743 0.47382,1 1.03125,1 l 2.90311,0 -4.43214,5.08839 c -0.41942,0.48332 -0.63852,1.14294 -0.18972,1.59911 0.44879,0.45617 1.14308,0.45207 1.5625,-0.0312 l 2.4375,-2.8125 c 0.51006,1.36413 1.65334,2.50504 3.21875,2.96875 2.64078,0.78227 5.45867,-0.61365 6.28125,-3.125 0.62887,-1.91995 -0.0998,-3.93258 -1.65625,-5.125 l -4.625,-3.34375 c -0.21562,-0.15555 -0.47823,-0.19664 -0.71875,-0.15625 z m 2.1875,4 c 1.65649,0 3,1.30442 3,2.9375 0,1.63308 -1.34351,2.96875 -3,2.96875 -1.65649,0 -3,-1.33567 -3,-2.96875 0,-1.63308 1.34351,-2.9375 3,-2.9375 z" style="fill:#bebebe;fill-opacity:1;stroke:none"/><path id="path12638" d="m 70.023437,333.98828 a 0.9296875,0.94140625 0 1 1 -1.859375,0 0.9296875,0.94140625 0 1 1 1.859375,0 z" transform="matrix(1.5753361,0,0,1.5224835,104.1619,-324.43442)" style="fill:#bdbdbd;fill-opacity:1;stroke:none"/></g></svg>