<svg xmlns="http://www.w3.org/2000/svg" xmlns:osb="http://www.openswatchbook.org/uri/2009/osb" xmlns:svg="http://www.w3.org/2000/svg" id="svg7384" width="16" height="16" version="1.1"><metadata id="metadata90"/><title id="title9167">Gnome Symbolic Icon Theme</title><defs id="defs7386"><linearGradient id="linearGradient7212" osb:paint="solid"><stop id="stop7214" offset="0" style="stop-color:#000;stop-opacity:1"/></linearGradient></defs><g id="layer9" transform="translate(-363.00022,104.99999)" style="display:inline"><path id="rect27311" d="M 366.48458,-92.41016 365.05879,-91 l -0.9082,0.2207 c -0.0884,0.0276 -0.15625,0.13433 -0.15625,0.25586 l 0,1.52344 7.00586,0 0,-1.54492 c 0,-0.14377 -0.0693,-0.19958 -0.19922,-0.23438 L 370.02559,-91 l -1.54492,-1.40039 a 3.328125,3.328125 0 0 1 -0.98047,0.15234 3.328125,3.328125 0 0 1 -1.01562,-0.16211 z" style="color:#000;clip-rule:nonzero;display:inline;overflow:visible;visibility:visible;opacity:1;isolation:auto;mix-blend-mode:normal;color-interpolation:sRGB;color-interpolation-filters:linearRGB;solid-color:#000;solid-opacity:1;fill:#bebebe;fill-opacity:1;fill-rule:nonzero;stroke:none;stroke-width:1;stroke-linecap:butt;stroke-linejoin:miter;stroke-miterlimit:4;stroke-dasharray:none;stroke-dashoffset:0;stroke-opacity:1;marker:none;marker-start:none;marker-mid:none;marker-end:none;paint-order:normal;color-rendering:auto;image-rendering:auto;shape-rendering:auto;text-rendering:auto;enable-background:accumulate"/><path id="path27313" d="m 370.59395,-102.00977 a 1.5277282,1.5277282 0 0 0 -1.52734,1.52735 1.5277282,1.5277282 0 0 0 0.12109,0.59375 l -1.49805,1.82226 a 2.5,2.5 0 0 0 -0.18945,-0.01 2.5,2.5 0 0 0 -2.5,2.5 2.5,2.5 0 0 0 2.5,2.5 2.5,2.5 0 0 0 2.5,-2.5 2.5,2.5 0 0 0 -0.29297,-1.17383 l 0.87695,-2.20508 a 1.5277282,1.5277282 0 0 0 0.01,0 1.5277282,1.5277282 0 0 0 1.35547,-0.82617 l 1.95312,0.44922 a 1.5277282,1.5277282 0 0 0 1.50782,1.30469 1.5277282,1.5277282 0 0 0 1.52929,-1.52735 1.5277282,1.5277282 0 0 0 -1.52929,-1.52734 1.5277282,1.5277282 0 0 0 -1.36719,0.85156 l -1.94141,-0.49609 a 1.5277282,1.5277282 0 0 0 -1.50781,-1.28321 z" style="color:#000;clip-rule:nonzero;display:inline;overflow:visible;visibility:visible;opacity:1;isolation:auto;mix-blend-mode:normal;color-interpolation:sRGB;color-interpolation-filters:linearRGB;solid-color:#000;solid-opacity:1;fill:#bebebe;fill-opacity:1;fill-rule:nonzero;stroke:none;stroke-width:1;stroke-linecap:butt;stroke-linejoin:miter;stroke-miterlimit:4;stroke-dasharray:none;stroke-dashoffset:0;stroke-opacity:1;marker:none;marker-start:none;marker-mid:none;marker-end:none;paint-order:normal;color-rendering:auto;image-rendering:auto;shape-rendering:auto;text-rendering:auto;enable-background:accumulate"/><path id="path27321" d="m 374.0002,-96 -1.06629,1.91069 0.98216,2.08931 0.53125,0 -0.44712,-2.46875 1.45313,-0.26562 -0.0194,1.73011 0.57544,-0.004 0.44398,-1.67945 0.57812,0.1562 -0.0157,2.5 0.5625,0.0312 0.82813,-2.5625 -1.39553,-1.44525 -0.006,-0.98548 -2.99242,-0.006 z" style="color:#000;clip-rule:nonzero;display:inline;overflow:visible;visibility:visible;opacity:1;isolation:auto;mix-blend-mode:normal;color-interpolation:sRGB;color-interpolation-filters:linearRGB;solid-color:#000;solid-opacity:1;fill:#bebebe;fill-opacity:1;fill-rule:nonzero;stroke:none;stroke-width:1;stroke-linecap:butt;stroke-linejoin:miter;stroke-miterlimit:4;stroke-dasharray:none;stroke-dashoffset:0;stroke-opacity:1;marker:none;marker-start:none;marker-mid:none;marker-end:none;paint-order:normal;color-rendering:auto;image-rendering:auto;shape-rendering:auto;text-rendering:auto;enable-background:accumulate"/></g></svg>