<svg xmlns="http://www.w3.org/2000/svg" xmlns:svg="http://www.w3.org/2000/svg" id="svg7384" width="16" height="16" version="1.1"><metadata id="metadata90"/><title id="title9167">Gnome Symbolic Icon Theme</title><g id="layer9" transform="translate(-63.0002,-215)" style="display:inline"><g id="g21098" transform="translate(-79.999998,-20)"><rect id="rect12031" width="2" height="2" x="143" y="249" style="fill:#bebebe;fill-opacity:1;stroke:none"/><rect id="rect12033" width="4" height="2" x="146" y="249" style="fill:#bebebe;fill-opacity:1;stroke:none"/><rect id="rect12037" width="2" height="2" x="151" y="249" style="fill:#bebebe;fill-opacity:1;stroke:none"/><rect id="rect12556" width="3" height="2" x="150" y="246" style="fill:#bebebe;fill-opacity:1;stroke:none"/><rect id="rect18181" width="2" height="2" x="147" y="246" rx=".5" ry="0" style="fill:#bebebe;fill-opacity:1;stroke:none"/><rect id="rect18183" width="2" height="2" x="143" y="243" rx=".5" ry="0" style="fill:#bebebe;fill-opacity:1;stroke:none"/><rect id="rect18185" width="3" height="2" x="143" y="246" rx="0" style="fill:#bebebe;fill-opacity:1;stroke:none"/><rect id="rect18187" width="4" height="2" x="146" y="243" style="fill:#bebebe;fill-opacity:1;stroke:none"/><rect id="rect18189" width="2" height="2" x="151" y="243" style="fill:#bebebe;fill-opacity:1;stroke:none"/><path id="rect4340" d="m 155.0002,246 0,3 4,0 0,-2 -1,-1 z" style="font-size:medium;font-style:normal;font-variant:normal;font-weight:400;font-stretch:normal;text-indent:0;text-align:start;text-decoration:none;line-height:normal;letter-spacing:normal;word-spacing:normal;text-transform:none;direction:ltr;block-progression:tb;writing-mode:lr-tb;text-anchor:start;color:#bebebe;fill:#bebebe;fill-opacity:1;fill-rule:nonzero;stroke:none;stroke-width:2;marker:none;visibility:visible;display:inline;overflow:visible;enable-background:accumulate;font-family:Andale Mono;-inkscape-font-specification:Andale Mono"/><path id="rect21090" d="m -92,18 c -1.108,0 -2,0.892 -2,2 l 0,4 2,0 0,-4 8,0 0,5 -2,0 0,2 2,0 c 1.108,0 2,-0.892 2,-2 l 0,-5 c 0,-1.108 -0.892,-2 -2,-2 z" transform="translate(241.0002,217)" style="fill:#bebebe;fill-opacity:1;stroke:none"/></g></g></svg>