<svg xmlns="http://www.w3.org/2000/svg" xmlns:svg="http://www.w3.org/2000/svg" id="svg7384" width="16" height="16" version="1.1"><metadata id="metadata90"/><title id="title9167">Gnome Symbolic Icon Theme</title><g id="layer9" transform="translate(-304.49279,-174.99999)" style="display:inline"><path id="path27918" d="m 311.0002,176 c -3.02886,0 -5.5,2.47458 -5.5,5.5 0,3.02541 2.47114,5.5 5.5,5.5 3.02885,0 5.5,-2.47459 5.5,-5.5 0,-0.54679 -0.0993,-1.06281 -0.25,-1.5625 l -4.1875,4.1875 -1.0625,1.0625 -1.0625,-1.0625 -3,-3 2.125,-2.125 1.9375,1.9375 3.59375,-3.59375 C 313.62668,176.50769 312.37068,176 311.0002,176 z" style="font-size:medium;font-style:normal;font-variant:normal;font-weight:400;font-stretch:normal;text-indent:0;text-align:start;text-decoration:none;line-height:normal;letter-spacing:normal;word-spacing:normal;text-transform:none;direction:ltr;block-progression:tb;writing-mode:lr-tb;text-anchor:start;baseline-shift:baseline;color:#000;fill:#bebebe;fill-opacity:1;stroke:none;stroke-width:1.55467153;marker:none;visibility:visible;display:inline;overflow:visible;enable-background:new;font-family:Sans;-inkscape-font-specification:Sans"/><path id="path3613-6-6-9" d="m 319.00016,189.00001 -10e-6,-1 c -3e-5,-0.26531 -0.0931,-0.53058 -0.28124,-0.71876 l -4.00001,-3.99999 -0.7187,2.15629 3.28125,3.28125 c 0.18817,0.18815 0.45345,0.28125 0.71875,0.28125 l 1,0 z" style="font-size:medium;font-style:normal;font-variant:normal;font-weight:400;font-stretch:normal;text-indent:0;text-align:start;text-decoration:none;line-height:normal;letter-spacing:normal;word-spacing:normal;text-transform:none;direction:ltr;block-progression:tb;writing-mode:lr-tb;text-anchor:start;color:#000;fill:#bebebe;fill-opacity:1;stroke:none;stroke-width:2;marker:none;visibility:visible;display:inline;overflow:visible;enable-background:accumulate;font-family:Bitstream Vera Sans;-inkscape-font-specification:Bitstream Vera Sans"/></g></svg>