<svg xmlns="http://www.w3.org/2000/svg" xmlns:svg="http://www.w3.org/2000/svg" id="svg7384" width="16" height="16" version="1.1"><metadata id="metadata90"/><title id="title9167">Gnome Symbolic Icon Theme</title><g id="layer9" transform="translate(-283.0002,-215)" style="display:inline"><path id="path3708" d="m 286.15645,216 c -1.18715,0 -2.15625,0.892 -2.15625,2 l 0,10 c 0,1.108 0.9691,2 2.15625,2 l 10.84375,0 c 0,0 1,0 1,-1 l 0,-12 c 0,-1 -1,-1 -1,-1 z m 0.21875,1 10.25,0 c 0.21139,0 0.375,0.17565 0.375,0.40625 l 0,11.1875 c 0,0.23064 -0.16361,0.40625 -0.375,0.40625 l -10.25,0 c -0.21137,0 -0.375,-0.17561 -0.375,-0.40625 l 0,-11.1875 c 0,-0.2306 0.16363,-0.40625 0.375,-0.40625 z m 1,1 c -0.20679,0 -0.34375,0.17516 -0.34375,0.40625 l 0,9.1875 c 0,0.23108 0.13696,0.40625 0.34375,0.40625 l 8.25,0 c 0.20678,0 0.375,-0.17517 0.375,-0.40625 l 0,-9.1875 c 0,-0.23109 -0.16822,-0.40625 -0.375,-0.40625 z m 4.0625,2 c 0.47901,-0.0152 0.93858,0.10167 1.375,0.375 l 0.0312,0.0312 c 1.16448,0.74186 1.49186,2.27302 0.75,3.4375 -0.74186,1.16448 -2.27302,1.49186 -3.4375,0.75 -1.16448,-0.74186 -1.49186,-2.27302 -0.75,-3.4375 0.46114,-0.72384 1.2329,-1.13098 2.03125,-1.15625 z m -0.0625,1.5 c -0.2655,0.0385 -0.50061,0.1932 -0.65625,0.4375 -0.2782,0.43668 -0.15543,1.00305 0.28125,1.28125 0.43668,0.2782 1.00305,0.15543 1.28125,-0.28125 0.2782,-0.43668 0.15543,-1.00305 -0.28125,-1.28125 -0.10911,-0.0683 -0.22413,-0.13677 -0.34375,-0.15625 -0.0897,-0.0146 -0.19275,-0.0128 -0.28125,0 z" style="fill:#bebebe;fill-opacity:1;stroke:none"/><rect id="rect15969" width="2.004" height="2" x="283" y="219" rx=".416" ry=".416" style="fill:#bebebe;fill-opacity:1;stroke:none"/><rect id="rect15971" width="2.004" height="2" x="283" y="225" rx=".416" ry=".416" style="fill:#bebebe;fill-opacity:1;stroke:none"/></g></svg>