<svg xmlns="http://www.w3.org/2000/svg" xmlns:svg="http://www.w3.org/2000/svg" id="svg7384" width="16" height="16" version="1.1"><metadata id="metadata90"/><title id="title9167">Gnome Symbolic Icon Theme</title><g id="layer9" transform="translate(-83.0002,-175)" style="display:inline"><path id="rect3993" d="m 87.38945,176.0625 c -0.85693,0.003 -2.358,0.9136 -2.358,2.52183 l 0,9.85317 c 0,0.85692 0.70558,1.5625 1.5625,1.5625 l 9.4375,0 c 1.125,0.0312 0.93388,-0.98875 0.93388,-0.98875 l -9.33599,0.0253 c -2.28266,0.006 -2.08441,-2.99124 -0.0372,-2.99375 l 9.40809,-0.0115 0.0312,-10 z m 0.63848,1.875 2.6875,0 c 3.31698,0 4.27148,1.26309 4.25,3.03125 -0.03,2.4678 -2.19062,3.01183 -4.81434,3.10346 -0.62199,0.0217 -1.50599,0.0215 -2.12316,0.0215 z m 2.03125,1.0625 0,4.03125 c 1.94269,0.023 2.99796,-0.68325 3,-2.0625 0.003,-1.76848 -1.24077,-1.93828 -3,-1.96875 z" style="color:#000;fill:#bebebe;fill-opacity:1;stroke:none;stroke-width:.99999976;marker:none;visibility:visible;display:inline;overflow:visible;enable-background:new"/><path id="rect4006" d="m 85.52087,186.0625 10.44808,0 c -1.18379,0.49216 -1.2956,2.4585 0,3 l -10.44808,0 z" style="opacity:.3;color:#000;fill:#bebebe;fill-opacity:1;fill-rule:nonzero;stroke:none;stroke-width:.99999976;marker:none;visibility:visible;display:inline;overflow:visible;enable-background:new"/></g></svg>