<svg xmlns="http://www.w3.org/2000/svg" xmlns:svg="http://www.w3.org/2000/svg" id="svg7384" width="16" height="16" version="1.1"><metadata id="metadata90"/><title id="title9167">Gnome Symbolic Icon Theme</title><g id="layer9" transform="translate(-203.0002,-215)" style="display:inline"><path id="path12213" d="m 213.5002,221 c -2.47413,0 -4.5,2.02666 -4.5,4.5 0,2.47333 2.02587,4.5 4.5,4.5 0.87712,0 1.68363,-0.27654 2.375,-0.71875 l 1.3125,1.3125 c 0.34177,0.44183 1.07869,0.49691 1.48235,0.1108 0.40365,-0.3861 0.38136,-1.12474 -0.0448,-1.4858 l -1.3438,-1.34375 c 0.44427,-0.69346 0.71875,-1.49509 0.71875,-2.375 0,-2.47334 -2.02587,-4.5 -4.5,-4.5 z m 0,1.65625 c 1.5907,0 2.84375,1.25355 2.84375,2.84375 0,0.75294 -0.28458,1.43201 -0.75,1.9375 -0.0837,0.061 -0.15774,0.1351 -0.21875,0.21875 -0.15398,0.1345 -0.31818,0.24441 -0.5,0.34375 l -0.0312,0 c -0.40223,0.2145 -0.85181,0.34375 -1.34375,0.34375 -1.59071,0 -2.875,-1.25355 -2.875,-2.84375 0,-1.5902 1.28429,-2.84375 2.875,-2.84375 z" style="font-size:medium;font-style:normal;font-variant:normal;font-weight:400;font-stretch:normal;text-indent:0;text-align:start;text-decoration:none;line-height:normal;letter-spacing:normal;word-spacing:normal;text-transform:none;direction:ltr;block-progression:tb;writing-mode:lr-tb;text-anchor:start;baseline-shift:baseline;color:#000;fill:#bebebe;fill-opacity:1;stroke:none;stroke-width:1.55467153;marker:none;visibility:visible;display:inline;overflow:visible;enable-background:new;font-family:Sans;-inkscape-font-specification:Sans"/><path id="rect12156" d="m 204.46895,215 c -0.81126,0 -1.46875,0.65748 -1.46875,1.46875 l 0,11.0625 c 0,0.81127 0.65806,1.49915 1.46875,1.46875 l 3.0625,0.0312 0,-2 L 204.7502,227 c -0.40707,-0.005 -0.75,-0.3429 -0.75,-0.75 l 0,-8.5 c 0,-0.4071 0.3429,-0.75 0.75,-0.75 l 10.5,0 c 0.4071,0 0.75403,0.34292 0.75,0.75 l 0,2.25 1,0 0,-3.53125 c 0,-0.81127 -0.65749,-1.46875 -1.46875,-1.46875 z" style="fill:#bebebe;fill-opacity:1;stroke:none"/><path id="path12552" d="m 210.0627,218.03125 c -1.26825,-0.0136 -1.15737,1.20495 -1.0625,1.4375 -0.20745,-0.20761 -0.62281,-1.42406 -1.65625,-0.90625 -1.0375,0.51984 -0.0208,1.55825 0.0937,1.71875 -0.30541,-0.12615 -2.24812,-1.0305 -2.375,0.1875 -0.0982,0.9431 1.71553,1.19815 1.84375,1.21875 -0.0737,-0.0644 -2.21809,0.18829 -1.84375,1.34375 0.32288,0.99662 2.1899,0.12961 2.375,0 -0.18912,0.0879 -1.80385,0.99894 -0.65625,1.6875 0.40096,0.24057 0.84344,0.12735 1.21875,-0.0937 0.0778,-0.52099 0.22432,-1.03752 0.4375,-1.5 -0.71404,-0.33154 -1.1875,-0.89831 -1.1875,-1.53125 0,-1.02784 1.23672,-1.875 2.75,-1.875 0.68579,0 1.30483,0.17966 1.78125,0.46875 0.008,0.005 0.0235,-0.005 0.0312,0 0.41121,-0.1279 0.83493,-0.19104 1.28125,-0.21875 0.3089,-0.40346 0.49707,-0.93533 -0.0937,-1.3125 -1.01457,-0.64768 -1.8245,0.59845 -2.03125,0.9375 0.20411,-0.34212 0.35704,-1.549 -0.90625,-1.5625 z" style="fill:#bfbfbf;fill-opacity:.29803922;fill-rule:nonzero;stroke:none;display:inline;enable-background:new"/><path id="path12464" d="m 214.0002,224.09375 0,0.15625 c 0.004,0.40708 -0.3139,0.75 -0.71875,0.75 l -1.40625,0 c -0.10063,0.21133 -0.15625,0.44031 -0.15625,0.6875 0,0.53795 0.24341,1.00514 0.65625,1.3125 l 1.1875,0 c 0.80678,0 1.4375,-0.65748 1.4375,-1.46875 l 0,-0.65625 c -0.21531,-0.36645 -0.57374,-0.65013 -1,-0.78125 z" style="fill:#bfbfbf;fill-opacity:.29803922;stroke:none"/></g></svg>