<svg xmlns="http://www.w3.org/2000/svg" xmlns:svg="http://www.w3.org/2000/svg" id="svg7384" width="15.999" height="16" version="1.1"><metadata id="metadata90"/><title id="title9167">Gnome Symbolic Icon Theme</title><g id="layer9" transform="translate(-263.00021,-235.00152)" style="display:inline"><path id="path7016" d="m 278.7795,235.00152 c 0,0 -0.11302,4.06234 -5.84302,4.03087 -4.86485,-0.0267 -4.96814,-3.03096 -4.96814,-3.03096 0.52967,4.99998 -0.99987,6.99933 -0.99987,6.99933 0,0 -0.10876,0.71567 -2.40596,0.5937 1.21604,1.73419 5.82245,5.16101 9.53788,4.2496 -0.54351,-0.40203 -0.78896,-0.78972 -1.10142,-1.1327 -0.0827,0.0113 -0.008,0.007 -0.0937,0.008 -2.15004,0.0106 -3.96826,-1.78109 -3.96826,-1.78109 0,0 4.05095,1.92192 5.65555,-0.53119 l -0.84368,-0.90636 c 0.9112,0.0218 2.09732,0.9775 2.01952,2.27054 -0.5437,-0.61824 -0.48847,-0.55195 -0.48847,-0.55195 0,0 -0.21842,0.22117 -0.53118,0.53119 0.71709,0.36804 0.94408,0.58432 1.60026,1.02178 3.20163,-2.3628 2.65119,-6.77228 2.43049,-11.77076 z m -4.27522,5.00693 c 0.84839,0 1.54667,0.69579 1.54667,1.54671 0,0.85092 -0.69828,1.5467 -1.54667,1.5467 -0.8484,0 -1.54666,-0.69578 -1.54666,-1.5467 0,-0.85092 0.69826,-1.54671 1.54666,-1.54671 z m -3.97375,-0.007 c 0.82596,0 1.46856,0.67143 1.46856,1.49985 0,0.82844 -0.6426,1.49986 -1.46856,1.49986 -0.82597,0 -1.49982,-0.67142 -1.49982,-1.49986 0,-0.82842 0.67385,-1.49985 1.49982,-1.49985 z" style="fill:#bebebe;fill-opacity:1;fill-rule:evenodd;stroke:none;stroke-width:.67424625;marker:none;visibility:visible;display:inline;overflow:visible;enable-background:new"/><path id="path5327" d="M 269.05437,245.0321 z" style="fill:none;stroke:#000;stroke-width:.99851286px;stroke-linecap:butt;stroke-linejoin:miter;stroke-opacity:1"/><path id="path5329" d="M 269.08553,245.0946 z" style="fill:none;stroke:#000;stroke-width:.99851286px;stroke-linecap:butt;stroke-linejoin:miter;stroke-opacity:1"/><path id="path5373" d="m 270.54553,241 c -0.30116,0 -0.54533,0.23761 -0.54533,0.53074 0,0.29311 0.24417,0.53072 0.54533,0.53072 0.30117,0 0.54533,-0.23761 0.54533,-0.53072 0,-0.29313 -0.24416,-0.53074 -0.54533,-0.53074 z" style="fill:#bebebe;fill-opacity:1;stroke:none"/><path id="path5375" d="m 34.471457,-15.5 a 0.73572785,0.5 0 1 1 -1.471456,0 0.73572785,0.5 0 1 1 1.471456,0 z" transform="matrix(0.69104101,0,0,1.000002,251.19585,257.03128)" style="fill:#bebebe;fill-opacity:1;stroke:none"/><path id="path7023" d="m 10.429825,27.228739 a 4.3310289,6.0987959 0 1 1 -8.662058,0 4.3310289,6.0987959 0 1 1 8.662058,0 z" transform="matrix(0.40472113,-0.11972332,0.15769825,0.31663504,258.23773,235.12592)" style="fill:#bebebe;fill-opacity:1;fill-rule:evenodd;stroke:none;stroke-width:1.55635607;marker:none;visibility:visible;display:inline;overflow:visible;enable-background:new"/><path id="path6937" d="m 276.51358,249.00019 0.4849,-0.60519 c -0.9509,-1.22325 -2.95949,-2.43657 -2.95949,-2.43657 -0.33044,-0.2825 -0.53936,0.0546 -0.33671,0.3568 0,0 1.50633,1.89884 2.8113,2.68496 z" style="fill:#bebebe;fill-opacity:1;fill-rule:nonzero;stroke:none;stroke-width:.27392486;marker:none;visibility:visible;display:inline;overflow:visible"/><path id="path7040" d="m 278.99823,251 c -0.0537,-1.66895 -0.77474,-3.11447 -2.13998,-2.99213 -1.10021,0.0986 -1.23652,1.77662 0.14023,1.99223 2.10063,0.32898 1.99975,0.9999 1.99975,0.9999 z" style="fill:#bebebe;fill-opacity:1;fill-rule:nonzero;stroke:none;stroke-width:.2;marker:none;visibility:visible;display:inline;overflow:visible"/></g></svg>