<svg xmlns="http://www.w3.org/2000/svg" xmlns:svg="http://www.w3.org/2000/svg" id="svg7384" width="16" height="16" version="1.1"><metadata id="metadata90"/><title id="title9167">Gnome Symbolic Icon Theme</title><g id="layer9" transform="translate(-223.0002,-215)" style="display:inline"><path id="path4349" d="m 238.0002,220.68977 0,8.31023 -14,0 z m -2,3.95138 -4,2.35885 4,0 z" style="fill:#bebebe;fill-opacity:1;stroke:none;display:inline"/><path id="path1234-4" d="m 229.5627,216 c -0.26406,-0.006 -0.52897,0.0965 -0.71875,0.28125 l -3.5625,3.59375 c -0.1837,0.19087 -0.28735,0.45317 -0.28125,0.71875 l 0,6.21875 2,-1.21875 0,-4.5625 3,0 0,-3.03125 5,0 0,2.8125 2,-1.21875 0,-2.59375 c 0.008,-0.46929 -0.3541,-0.912 -0.8125,-1 -0.0312,-0.001 -0.0625,-0.001 -0.0937,0 -0.0312,-0.001 -0.0625,-0.001 -0.0937,0 z m -4.5625,14 0,0.0937 c 5e-5,0.52661 0.47642,0.9062 1,0.90625 l 10,0 c 0.52358,-5e-5 0.99995,-0.37964 1,-0.90625 l 0,-0.0937 z" style="font-size:medium;font-style:normal;font-variant:normal;font-weight:400;font-stretch:normal;text-indent:0;text-align:start;text-decoration:none;line-height:normal;letter-spacing:normal;word-spacing:normal;text-transform:none;direction:ltr;block-progression:tb;writing-mode:lr-tb;text-anchor:start;baseline-shift:baseline;color:#000;fill:#bebebe;fill-opacity:1;stroke:none;stroke-width:1.99999988;marker:none;visibility:visible;display:inline;overflow:visible;enable-background:accumulate;font-family:Sans;-inkscape-font-specification:Sans"/></g></svg>