<svg xmlns="http://www.w3.org/2000/svg" xmlns:osb="http://www.openswatchbook.org/uri/2009/osb" xmlns:svg="http://www.w3.org/2000/svg" id="svg7384" width="16" height="16" version="1.1"><metadata id="metadata90"/><title id="title9167">Gnome Symbolic Icon Theme</title><defs id="defs7386"><linearGradient id="linearGradient7212" osb:paint="solid"><stop id="stop7214" offset="0" style="stop-color:#000;stop-opacity:1"/></linearGradient></defs><g id="layer9" transform="translate(-523.00018,145)" style="display:inline"><path id="rect2987" d="m 526.0002,-144 0,2 -0.375,0 c -0.89271,0 -1.625,0.78187 -1.625,1.75 l 0,7.5 c 0,0.96813 0.73229,1.75 1.625,1.75 l 0.375,0 2,0 5,0 2,0 0.375,0 c 0.89271,0 1.625,-0.78187 1.625,-1.75 l 0,-7.5 c 0,-0.96813 -0.73229,-1.75 -1.625,-1.75 l -0.375,0 0,-2 -2,0 0,2 -5,0 0,-2 -2,0 z m 0.3125,3 8.375,0 c 0.7202,0 1.3125,0.5923 1.3125,1.3125 l 0,1.46875 0,0.21875 0,0.8125 0,0.1875 c -0.1479,0.56253 -0.64366,1 -1.25,1 l -8.5,0 c -0.60634,0 -1.10211,-0.43747 -1.25,-1 l 0,-0.21875 0,-0.21875 0,-0.5625 0,-0.125 0,-1.5625 c 0,-0.7202 0.5923,-1.3125 1.3125,-1.3125 z m 0.6875,1 0,2 -1,0 0,0.6875 0,0.0937 0,0.21875 2,0 0,-2 2,0 0,2 5,0 0,-0.3125 0,-0.6875 -4,0 0,-2 -4,0 z m 0.5,5 c 0.82716,0 1.5,0.67072 1.5,1.5 0,0.82928 -0.67284,1.5 -1.5,1.5 -0.82716,0 -1.5,-0.67072 -1.5,-1.5 0,-0.82928 0.67284,-1.5 1.5,-1.5 z m 6,0 c 0.83189,0 1.5,0.67176 1.5,1.5 0,0.82824 -0.66811,1.5 -1.5,1.5 -0.83189,0 -1.5,-0.67176 -1.5,-1.5 0,-0.82824 0.66811,-1.5 1.5,-1.5 z m -7.5,5 0,1 2,0 0,-1 -2,0 z m 7,0 0,1 2,0 0,-1 -2,0 z" style="fill:#bebebe;fill-opacity:1;fill-rule:nonzero;stroke:none;stroke-width:0;stroke-linecap:round;stroke-miterlimit:4;stroke-dasharray:none;stroke-opacity:1"/></g></svg>