<svg xmlns="http://www.w3.org/2000/svg" xmlns:osb="http://www.openswatchbook.org/uri/2009/osb" xmlns:svg="http://www.w3.org/2000/svg" id="svg7384" width="16" height="16" version="1.1"><metadata id="metadata90"/><title id="title9167">Gnome Symbolic Icon Theme</title><defs id="defs7386"><linearGradient id="linearGradient7212" osb:paint="solid"><stop id="stop7214" offset="0" style="stop-color:#000;stop-opacity:1"/></linearGradient></defs><g id="layer9" transform="translate(-423.0002,145)" style="display:inline"><path id="rect6077-4" d="m 425.0002,-132.03125 0,2 c 0,0.57131 0.45994,1.03125 1.03125,1.03125 l 8.9375,0 c 0.57131,0 1.03125,-0.45994 1.03125,-1.03125 l 0,-2 c 0,0.57131 -0.45994,1.03125 -1.03125,1.03125 l -8.9375,0 c -0.57131,0 -1.03125,-0.45994 -1.03125,-1.03125 z" style="display:inline;opacity:.3;fill:#bebebe;fill-opacity:1;stroke:none"/><path id="rect6077" d="m 426.03145,-145 c -0.57131,0 -1.03125,0.45994 -1.03125,1.03125 l 0,11.9375 c 0,0.57131 0.45994,1.03125 1.03125,1.03125 l 8.9375,0 c 0.57131,0 1.03125,-0.45994 1.03125,-1.03125 l 0,-11.9375 c 0,-0.57131 -0.45994,-1.03125 -1.03125,-1.03125 l -8.9375,0 z m 2.96875,2 3,0 -1,1.0625 0,0.9375 3,0 0,0.5 0,1.65625 -1.84375,1.84375 -1.15625,0 0,4 -1,1 0,-5 -0.65625,0 -2.78125,-2.90625 3.4375,-0.96875 0,-1.0625 -1,-1.0625 z m 2,3 0,2 0.75,0 1.25,-1.25 0,-0.75 -2,0 z m -1,0.125 -1.5625,0.46875 1.3125,1.40625 0.25,0 0,-1.875 z" style="display:inline;fill:#bebebe;fill-opacity:1;stroke:none"/></g></svg>