<svg xmlns="http://www.w3.org/2000/svg" xmlns:osb="http://www.openswatchbook.org/uri/2009/osb" xmlns:svg="http://www.w3.org/2000/svg" id="svg7384" width="16" height="16" version="1.1"><metadata id="metadata90"/><title id="title9167">Gnome Symbolic Icon Theme</title><defs id="defs7386"><linearGradient id="linearGradient7212" osb:paint="solid"><stop id="stop7214" offset="0" style="stop-color:#000;stop-opacity:1"/></linearGradient></defs><g id="layer9" transform="translate(-502.99999,124.99988)" style="display:inline"><path id="rect7352-28-4-8" d="m 503,-124 0,1 0,11 0,1 1,0 5,0 c 0.1754,0 0.52538,0.15166 0.8125,0.34375 0.28712,0.19209 0.46875,0.375 0.46875,0.375 l 0.71875,0.71875 0.71875,-0.75 c 0,0 0.8963,-0.6875 1.28125,-0.6875 l 5,0 1,0 0,-1 0,-11 0,-1 -1,0 -5,0 c -0.87652,0 -1.56017,0.34756 -2.03125,0.6875 -0.0301,-0.0207 -0.031,-0.0105 -0.0625,-0.0312 C 510.44557,-123.64746 509.82811,-124 509,-124 l -5,0 -1,0 z m 2,2 4,0 c 0.13821,0 0.51476,0.14746 0.8125,0.34375 0.29774,0.19629 0.5,0.375 0.5,0.375 l 0.71875,0.6875 0.6875,-0.71875 c 0,0 0.89975,-0.6875 1.28125,-0.6875 l 4,0 0,9 -4,0 c -0.87693,0 -1.56008,0.34735 -2.03125,0.6875 -0.0196,-0.0135 -0.011,-0.0177 -0.0312,-0.0312 C 510.47725,-112.65166 509.83512,-113 509,-113 l -4,0 0,-9 z" style="font-size:medium;font-style:normal;font-variant:normal;font-weight:400;font-stretch:normal;text-indent:0;text-align:start;text-decoration:none;line-height:normal;letter-spacing:normal;word-spacing:normal;text-transform:none;direction:ltr;block-progression:tb;writing-mode:lr-tb;text-anchor:start;baseline-shift:baseline;color:#bebebe;fill:#bebebe;fill-opacity:1;stroke:none;stroke-width:2;marker:none;visibility:visible;display:inline;overflow:visible;enable-background:accumulate;font-family:Sans;-inkscape-font-specification:Sans"/></g></svg>