<svg xmlns="http://www.w3.org/2000/svg" xmlns:svg="http://www.w3.org/2000/svg" id="svg7384" width="16" height="16" version="1.1"><metadata id="metadata90"/><title id="title9167">Gnome Symbolic Icon Theme</title><g id="layer9" transform="translate(-103.00021,-235)" style="display:inline"><path id="path15934" d="m 113.0002,240 0,1 2,0 0,3 1,0 0,-3 c 0,-0.75693 -0.35707,-1 -1,-1 z" style="font-size:medium;font-style:normal;font-variant:normal;font-weight:400;font-stretch:normal;text-indent:0;text-align:start;text-decoration:none;line-height:normal;letter-spacing:normal;word-spacing:normal;text-transform:none;direction:ltr;block-progression:tb;writing-mode:lr-tb;text-anchor:start;baseline-shift:baseline;color:#000;fill:#bebebe;fill-opacity:1;stroke:none;stroke-width:3;marker:none;visibility:visible;display:inline;overflow:visible;enable-background:new;font-family:Sans;-inkscape-font-specification:Sans"/><path id="path15940" d="m 115.0002,243 c -1.26686,0.10993 -1.71645,0.54121 -2,1 l 0,2 5,0 0,2 0,0 0,1 0.21875,0 c 0.43056,0 0.78125,-0.33405 0.78125,-0.71875 l 0,-3.28125 c 0,-0.69186 -1,-2 -3,-2 z" style="fill:#bebebe;fill-opacity:1;stroke:none"/><rect id="rect7053" width="1" height="3" x="114" y="247" style="fill:#bebebe;fill-opacity:1;stroke:none"/><rect id="rect7055" width="1" height="3" x="116" y="247" style="fill:#bebebe;fill-opacity:1;stroke:none"/><path id="path12720" d="m 107,237 c -0.68368,0 -1.19956,0.45219 -1.5625,1 l -0.9375,0 c -0.87485,0 -1.46875,0.61564 -1.46875,1.46875 l 0,8.53125 0,1 1,0 6.96875,0 1,0 0,-1 0,-8.4375 c 0,-0.29301 -0.0419,-0.6391 -0.3125,-1 -0.27064,-0.3609 -0.75918,-0.5625 -1.15625,-0.5625 -0.31471,0 -0.59673,-0.002 -0.9375,0 -0.0855,-0.14836 -0.0635,-0.35044 -0.1875,-0.46875 C 109.01718,237.16 108.49704,237 108,237 l -1,0 z m 0,2 1,0 0,1 1,0 c 0,0 0.5624,0.002 1,0 l 0,7 -4.96875,0 0,-7 0.96875,0 1,0 0,-1 z" style="font-size:medium;font-style:normal;font-variant:normal;font-weight:400;font-stretch:normal;text-indent:0;text-align:start;text-decoration:none;line-height:normal;letter-spacing:normal;word-spacing:normal;text-transform:none;direction:ltr;block-progression:tb;writing-mode:lr-tb;text-anchor:start;baseline-shift:baseline;color:#bebebe;fill:#bebebe;fill-opacity:1;stroke:none;stroke-width:2;marker:none;visibility:visible;display:inline;overflow:visible;enable-background:accumulate;font-family:Sans;-inkscape-font-specification:Sans"/><rect id="rect6190" width="3" height="1" x="106" y="245" style="fill:#bebebe;fill-opacity:1;stroke:none"/><rect id="rect18459" width="3" height="1" x="106" y="243" style="fill:#bebebe;fill-opacity:1;stroke:none"/></g></svg>