<svg xmlns="http://www.w3.org/2000/svg" xmlns:svg="http://www.w3.org/2000/svg" id="svg7384" width="16" height="16.01" version="1.1"><metadata id="metadata90"/><title id="title9167">Gnome Symbolic Icon Theme</title><g id="layer9" transform="translate(-243.0002,-214.99001)" style="display:inline"><g id="g10935" transform="translate(20,20)"><path id="path10852" d="m -15.75,-22 c -0.70756,0.15767 -1.25,0.86512 -1.25,1.6875 l 0,12.59375 c 0,0.93986 1.14133,1.71407 2,1.71875 l 2,0 c -1,0 -1,-1 -1,-1 l -1,0 0,-1 -1,0 0,-1 1,0 0,-1 -1,0 0,-1 1,0 0,-1 -1,0 0,-1 1,0 0,-1 -1,0 0,-1 1,0 0,-1 -1,0 0,-1 1,0 0,-1 -1,0 0,-1 1,0 0,-1 -1,0 0,-1 1,0 0,0.6875 0,0.3125 1,0 0,-1 c 0,0 0,-1 1,-1 -2,0 -1.644622,9.1e-5 -2,0 -0.266534,-6.9e-5 -0.72243,-0.0061 -0.75,0 z m 0.75,3 0,1 1,0 0,-1 z m 0,2 0,1 1,0 0,-1 z m 0,2 0,1 1,0 0,-1 z m 0,2 0,1 1,0 0,-1 z m 0,2 0,1 1,0 0,-1 z m 0,2 0,1 1,0 0,-1 z" transform="translate(241.0002,217)" style="fill:#bebebe;fill-opacity:1;stroke:none"/><path id="path18996-5" d="m 229.25021,195.00001 c -0.70756,0.15767 -1.25001,0.86404 -1.25001,1.68642 l 0,12.5857 c 0,0.93986 0.73509,1.71766 1.59377,1.71766 l 7.81261,0 c 0.85868,0 1.59377,-0.7778 1.59377,-1.71766 l 0,-12.5857 c 0,-0.93986 -0.73509,-1.68642 -1.59377,-1.68642 l -7.81261,0 c -0.10736,0 -0.24267,-0.0225 -0.34376,0 z m 2.50004,4.9968 c 0.96654,0 1.75002,0.74236 1.75002,1.68643 0,-0.94407 0.78349,-1.68643 1.75003,-1.68643 0.96652,0 1.75002,0.74236 1.75002,1.68643 0,0.44866 -0.17924,0.88178 -0.46875,1.18674 -0.0152,0.0158 -0.0156,0.016 -0.0312,0.0312 l -3.00005,3.09177 -2.84379,-2.99808 c -0.1211,-0.0977 -0.19074,-0.21786 -0.28125,-0.34353 -0.20026,-0.27797 -0.375,-0.60242 -0.375,-0.96813 0,-0.94408 0.7835,-1.68643 1.75002,-1.68643 z" style="fill:#bebebe;fill-opacity:1;stroke:none"/></g></g></svg>