<svg xmlns="http://www.w3.org/2000/svg" xmlns:osb="http://www.openswatchbook.org/uri/2009/osb" xmlns:svg="http://www.w3.org/2000/svg" id="svg7384" width="16.038" height="16" version="1.1"><metadata id="metadata90"/><title id="title9167">Gnome Symbolic Icon Theme</title><defs id="defs7386"><linearGradient id="linearGradient7212" osb:paint="solid"><stop id="stop7214" offset="0" style="stop-color:#000;stop-opacity:1"/></linearGradient></defs><g id="layer9" transform="translate(-462.96175,105)" style="display:inline"><path id="path12403" d="m 466.41331,-103.98805 c -1.08812,0 -2.08266,0.70238 -2.21754,1.71132 l -1.18269,7.71632 c -0.23162,1.7327 0.29768,3.58571 2.05549,3.56033 l 10.82243,-0.15625 c 1.75779,-0.0254 2.33066,-1.67244 2.09133,-3.40408 l -1.21853,-7.68048 c -0.14428,-1.04384 -1.11053,-1.74716 -2.21753,-1.74716 z m -0.12178,0.99331 8.20762,0.004 0.4841,4.76727 -0.30266,0.78741 0.46885,0.62631 0.50336,3.80803 -10.3281,0 0.43945,-3.90517 0.48554,-0.59708 -0.37686,-0.53694 z" style="color:#bebebe;font-style:normal;font-variant:normal;font-weight:400;font-stretch:normal;font-size:medium;line-height:normal;font-family:'Bitstream Vera Sans';-inkscape-font-specification:'Bitstream Vera Sans';text-indent:0;text-align:start;text-decoration:none;text-decoration-line:none;letter-spacing:normal;word-spacing:normal;text-transform:none;direction:ltr;block-progression:tb;writing-mode:lr-tb;text-anchor:start;display:inline;overflow:visible;visibility:visible;fill:#bebebe;fill-opacity:1;fill-rule:nonzero;stroke:none;stroke-width:2;marker:none;enable-background:accumulate"/><path id="path12416" d="m 474.02488,-100.96939 -3.00242,-0.013 0.0435,1.02041 1.94342,0 -2.00945,4.93666 1.30033,-0.0389 1.72454,-4.69835 z m -6.53288,1.61759 c 1.15539,-0.89693 1.5747,-0.23156 1.13545,0.77095 l -1.60695,3.0178 0,0.55073 2.9852,-0.013 0.0326,-0.98533 -1.48344,0.013 0.88135,-1.82911 c 1.41812,-2.29582 -0.36954,-4.35574 -2.33834,-2.58383 z" style="color:#000;font-style:normal;font-variant:normal;font-weight:400;font-stretch:normal;font-size:medium;line-height:125%;font-family:Cantarell;-inkscape-font-specification:Cantarell;text-indent:0;text-align:start;text-decoration:none;text-decoration-line:none;letter-spacing:0;word-spacing:0;text-transform:none;direction:ltr;block-progression:tb;writing-mode:lr-tb;baseline-shift:baseline;text-anchor:start;visibility:visible;fill:#bebebe;fill-opacity:1;fill-rule:nonzero;stroke:none;stroke-width:1;stroke-linecap:butt;stroke-linejoin:miter;stroke-opacity:1;marker:none;marker-start:none;marker-mid:none;marker-end:none"/></g></svg>