<svg xmlns="http://www.w3.org/2000/svg" xmlns:osb="http://www.openswatchbook.org/uri/2009/osb" xmlns:svg="http://www.w3.org/2000/svg" id="svg7384" width="16" height="16" version="1.1"><metadata id="metadata90"/><title id="title9167">Gnome Symbolic Icon Theme</title><defs id="defs7386"><linearGradient id="linearGradient7212" osb:paint="solid"><stop id="stop7214" offset="0" style="stop-color:#000;stop-opacity:1"/></linearGradient></defs><g id="layer9" transform="translate(-342.0002,145)" style="display:inline"><path id="rect6935-9" d="m 344.0002,-138 0,2 2,0 c -0.55228,0 -1,-0.44772 -1,-1 0,-0.55228 0.44772,-1 1,-1 l -2,0 z m 2,0 c 0.55228,0 1,0.44772 1,1 0,0.55228 -0.44772,1 -1,1 l 4,0 c -0.55228,0 -1,-0.44772 -1,-1 0,-0.55228 0.44772,-1 1,-1 l -4,0 z m 4,0 c 0.55228,0 1,0.44772 1,1 0,0.55228 -0.44772,1 -1,1 l 4,0 c -0.55229,0 -1,-0.44772 -1,-1 0,-0.55228 0.44771,-1 1,-1 l -4,0 z m 4,0 c 0.55229,0 1,0.44772 1,1 0,0.55228 -0.44771,1 -1,1 l 2,0 0,-2 -2,0 z" style="fill:#bdbdbd;fill-opacity:.36470588;stroke:none"/><path id="path6929-6" d="m 350.0002,-144 c -3.52482,0 -6.41897,2.61003 -6.90625,6 l 13.8125,0 c -0.48728,-3.38997 -3.38143,-6 -6.90625,-6 z m -6.6875,9 c 0.86143,2.88498 3.52167,5 6.6875,5 3.16583,0 5.82607,-2.11502 6.6875,-5 l -13.375,0 z" style="fill:#bebebe;fill-opacity:1;stroke:none"/></g></svg>