<svg xmlns="http://www.w3.org/2000/svg" xmlns:osb="http://www.openswatchbook.org/uri/2009/osb" xmlns:svg="http://www.w3.org/2000/svg" id="svg7384" width="16" height="16" version="1.1"><metadata id="metadata90"/><title id="title9167">Gnome Symbolic Icon Theme</title><defs id="defs7386"><linearGradient id="linearGradient7212" osb:paint="solid"><stop id="stop7214" offset="0" style="stop-color:#000;stop-opacity:1"/></linearGradient></defs><g id="layer9" transform="translate(-443.0002,125)" style="display:inline"><path id="path552" d="m 451.0002,-122 c -2.74958,0 -5,2.25041 -5,5 0,1.78334 0.9576,3.36255 2.375,4.25 0.16853,-0.0758 0.34883,-0.13986 0.53125,-0.1875 0.22859,-1.81667 1.71945,-3.25 3.59375,-3.25 1.00251,0 1.83852,0.47365 2.5,1.125 0.175,-0.0333 0.30776,-0.125 0.5,-0.125 0.0432,0 0.0823,-0.002 0.125,0 0.22408,-0.56633 0.375,-1.16979 0.375,-1.8125 0,-2.74959 -2.25042,-5 -5,-5 z" style="color:#bebebe;font-style:normal;font-variant:normal;font-weight:400;font-stretch:normal;font-size:medium;line-height:normal;font-family:Sans;-inkscape-font-specification:Sans;text-indent:0;text-align:start;text-decoration:none;text-decoration-line:none;letter-spacing:normal;word-spacing:normal;text-transform:none;direction:ltr;block-progression:tb;writing-mode:lr-tb;text-anchor:start;display:inline;overflow:visible;visibility:visible;fill:#bebebe;fill-opacity:1;fill-rule:nonzero;stroke:none;stroke-width:2.20970368;marker:none;enable-background:new"/><rect id="rect4906" width="2" height="2" x="443" y="-118" rx=".563" ry=".563" style="color:#bebebe;display:inline;overflow:visible;visibility:visible;fill:#bebebe;fill-opacity:1;fill-rule:nonzero;stroke:none;stroke-width:2;marker:none;enable-background:new"/><rect id="rect4906-4" width="2" height="2" x="457" y="-118" rx=".563" ry=".563" style="color:#bebebe;display:inline;overflow:visible;visibility:visible;fill:#bebebe;fill-opacity:1;fill-rule:nonzero;stroke:none;stroke-width:2;marker:none;enable-background:new"/><rect id="rect4088" width="2" height="2" x="-125" y="-452" rx=".563" ry=".563" transform="matrix(0,1,-1,0,0,0)" style="color:#bebebe;display:inline;overflow:visible;visibility:visible;fill:#bebebe;fill-opacity:1;fill-rule:nonzero;stroke:none;stroke-width:2;marker:none;enable-background:new"/><rect id="rect4075" width="2" height="2" x="-409.637" y="-237.174" rx=".563" ry=".563" transform="matrix(-0.70710678,0.70710678,-0.70710678,-0.70710678,0,0)" style="color:#bebebe;display:inline;overflow:visible;visibility:visible;fill:#bebebe;fill-opacity:1;fill-rule:nonzero;stroke:none;stroke-width:2;stroke-linecap:butt;stroke-linejoin:miter;stroke-miterlimit:4;stroke-dasharray:none;stroke-dashoffset:0;stroke-opacity:1;marker:none;enable-background:new"/><rect id="rect4077" width="2" height="2" x="-395.637" y="-237.174" rx=".563" ry=".563" transform="matrix(-0.70710678,0.70710678,-0.70710678,-0.70710678,0,0)" style="color:#bebebe;display:inline;overflow:visible;visibility:visible;fill:#bebebe;fill-opacity:1;fill-rule:nonzero;stroke:none;stroke-width:2;stroke-linecap:butt;stroke-linejoin:miter;stroke-miterlimit:4;stroke-dasharray:none;stroke-dashoffset:0;stroke-opacity:1;marker:none;enable-background:new"/><rect id="rect4081" width="2" height="2" x="228.174" y="-402.637" rx=".563" ry=".563" transform="matrix(0.70710678,0.70710678,-0.70710678,0.70710678,0,0)" style="color:#bebebe;display:inline;overflow:visible;visibility:visible;fill:#bebebe;fill-opacity:1;fill-rule:nonzero;stroke:none;stroke-width:2;marker:none;enable-background:new"/><path id="path5094-5-03" d="m 452.5002,-115 c -1.38071,0 -2.5,1.11929 -2.5,2.5 0,0.21842 0.0411,0.42306 0.0937,0.625 -0.17941,-0.0759 -0.38659,-0.125 -0.5937,-0.125 -0.82843,0 -1.5,0.67157 -1.5,1.5 0,0.82843 0.67157,1.5 1.5,1.5 l 8,0 c 0.82843,0 1.5,-0.67157 1.5,-1.5 0,-0.82843 -0.67157,-1.5 -1.5,-1.5 0,-1.10457 -0.89543,-2 -2,-2 -0.31572,0 -0.60948,0.0885 -0.875,0.21875 -0.43705,-0.72779 -1.21426,-1.21875 -2.125,-1.21875 z" style="color:#000;display:inline;overflow:visible;visibility:visible;fill:#bebebe;fill-opacity:1;stroke:none;stroke-width:2.40000033;marker:none;enable-background:accumulate"/></g></svg>