<svg xmlns="http://www.w3.org/2000/svg" xmlns:osb="http://www.openswatchbook.org/uri/2009/osb" xmlns:svg="http://www.w3.org/2000/svg" id="svg7384" width="16" height="16" version="1.1"><metadata id="metadata90"/><title id="title9167">Gnome Symbolic Icon Theme</title><defs id="defs7386"><linearGradient id="linearGradient7212" osb:paint="solid"><stop id="stop7214" offset="0" style="stop-color:#000;stop-opacity:1"/></linearGradient></defs><g id="layer9" transform="translate(-483.00018,145)" style="display:inline"><path id="rect8496" d="m 490.46895,-143 c -0.82114,0 -1.46875,0.64761 -1.46875,1.46875 l 0,0.625 c -0.32508,-0.0668 -0.65556,-0.0937 -1,-0.0937 -2.7555,0 -5,2.2445 -5,5 0,1.04498 0.35715,2.00889 0.90625,2.8125 l -0.875,2.53125 a 0.50005,0.50005 0 0 0 0.65625,0.625 l 3,-1.15625 a 0.50005,0.50005 0 0 0 0.0625,-0.0625 c 0.40291,0.11451 0.79528,0.25 1.25,0.25 2.41106,0 4.43897,-1.72442 4.90625,-4 l 1.09375,0 2.0625,2 0,-2 1.46875,0 c 0.82114,0 1.46875,-0.64761 1.46875,-1.46875 l 0,-5.0625 c 0,-0.82114 -0.64761,-1.46875 -1.46875,-1.46875 l -7.0625,0 z m -2.46875,3 c 2.21506,0 4,1.78494 4,4 0,2.21506 -1.78494,4 -4,4 -0.4596,0 -0.90925,-0.095 -1.34375,-0.25 a 0.50005,0.50005 0 0 0 -0.59375,0.21875 l -1.75,0.6875 0.59375,-1.75 a 0.50005,0.50005 0 0 0 -0.0625,-0.46875 c -0.51837,-0.67469 -0.84375,-1.52147 -0.84375,-2.4375 0,-2.21506 1.78494,-4 4,-4 z m 0,1 c -0.28324,0 -0.4375,0.28125 -0.4375,0.28125 l -2,3.96875 0.875,0.46875 0.375,-0.71875 2.375,0 0.375,0.71875 0.875,-0.4375 -1.96875,-4 c 0,0 -0.18551,-0.28125 -0.46875,-0.28125 z m 0,1.625 0.6875,1.375 -1.375,0 0.6875,-1.375 z" style="color:#000;display:inline;overflow:visible;visibility:visible;fill:#bebebe;fill-opacity:1;stroke:none;stroke-width:1;marker:none;enable-background:accumulate"/></g></svg>