<svg xmlns="http://www.w3.org/2000/svg" xmlns:svg="http://www.w3.org/2000/svg" id="svg7384" width="16" height="16" version="1.1"><metadata id="metadata90"/><title id="title9167">Gnome Symbolic Icon Theme</title><g id="layer9" transform="translate(-143.0002,-325)" style="display:inline"><path id="path11745" d="m 151.09395,326 c -0.96646,0 -2.42826,0.52491 -1.9375,2.15625 0.27015,0.89804 0.4524,1.35856 0.53125,1.84375 l 2.8125,0 c 0.0788,-0.48519 0.22984,-0.94571 0.5,-1.84375 C 153.49095,326.52491 152.06041,326 151.09395,326 z" style="color:#000;fill:#bebebe;fill-opacity:1;fill-rule:nonzero;stroke:none;stroke-width:.99999994;marker:none;visibility:visible;display:inline;overflow:visible;enable-background:accumulate"/><path id="path11743" d="m 149.71895,331 c -0.003,0.0242 0.003,0.0376 0,0.0625 -0.0369,0.3121 -0.16742,0.62012 -0.3125,0.9375 l 3.34375,0 c -0.13373,-0.31738 -0.2444,-0.6254 -0.28125,-0.9375 -0.003,-0.0249 0.003,-0.0383 0,-0.0625 l -2.75,0 z" style="color:#000;fill:#bebebe;fill-opacity:1;fill-rule:nonzero;stroke:none;stroke-width:.99999994;marker:none;visibility:visible;display:inline;overflow:visible;enable-background:accumulate"/><path id="path4489" d="m 149.16237,333 c -0.53728,1.15137 -1.1631,2.32954 -1.16217,3.55556 0.002,1.84176 1.67941,4.44444 1.67941,4.44444 0,0 0.51247,0 1.40167,0 0.88919,0 1.37464,0 1.37464,0 0,0 1.5429,-2.60268 1.54428,-4.44444 8.6e-4,-1.22517 -0.56391,-2.40493 -1.05405,-3.55556 z" style="color:#000;fill:#bebebe;fill-opacity:1;fill-rule:nonzero;stroke:none;stroke-width:.99999994;marker:none;visibility:visible;display:inline;overflow:visible;enable-background:accumulate"/></g></svg>