<svg xmlns="http://www.w3.org/2000/svg" xmlns:svg="http://www.w3.org/2000/svg" id="svg7384" width="16" height="16" version="1.1"><metadata id="metadata90"/><title id="title9167">Gnome Symbolic Icon Theme</title><g id="layer9" transform="translate(-123.0002,-215)" style="display:inline"><path id="path21867" d="m 30,-39 a 3,3 0 1 1 -6,0 3,3 0 1 1 6,0 z" transform="matrix(1.1666667,0,0,1.1666667,95.0002,264)" style="fill:#bdbdbd;fill-opacity:.36470588;stroke:none"/><path id="path21869" d="m 135.5002,215 c -1.933,0 -3.5,1.567 -3.5,3.5 0,1.933 1.567,3.5 3.5,3.5 1.933,0 3.5,-1.567 3.5,-3.5 0,-1.933 -1.567,-3.5 -3.5,-3.5 z" style="fill:#bebebe;fill-opacity:1;stroke:none"/><path id="path21871" d="m 30,-39 a 3,3 0 1 1 -6,0 3,3 0 1 1 6,0 z" transform="matrix(1.1666667,0,0,1.1666667,104.0002,273)" style="fill:#bdbdbd;fill-opacity:.36470588;stroke:none"/><path id="path21873" d="m 30,-39 a 3,3 0 1 1 -6,0 3,3 0 1 1 6,0 z" transform="matrix(1.1666667,0,0,1.1666667,95.0002,273)" style="fill:#bebebe;fill-opacity:1;stroke:none"/></g></svg>