<svg xmlns="http://www.w3.org/2000/svg" xmlns:svg="http://www.w3.org/2000/svg" id="svg7384" width="16" height="16" version="1.1"><metadata id="metadata90"/><title id="title9167">Gnome Symbolic Icon Theme</title><g id="layer9" transform="translate(-203.0002,-325)" style="display:inline"><path id="rect3861" d="m 204.53145,325 c -0.28913,0 -0.53125,0.24212 -0.53125,0.53125 l 0,11.9375 c 0,0.2985 0.23264,0.53125 0.53125,0.53125 l 5.46875,0 0,1 -1.51386,0 c -0.26299,0 -0.46875,0.20565 -0.46875,0.46875 l 0,1.0625 c 0,0.263 0.20576,0.46875 0.46875,0.46875 l 5.02772,0 c 0.26299,0 0.46875,-0.20575 0.46875,-0.46875 l 0,-1.0625 c 0,-0.263 -0.20575,-0.46875 -0.46875,-0.46875 l -1.51386,0 0,-1 5.46875,0 c 0.2986,0 0.53125,-0.23265 0.53125,-0.53125 l 0,-6.9375 c 0,-0.2891 -0.24212,-0.53125 -0.53125,-0.53125 l -10.46875,0 0,4.5 c 0,0.277 -0.223,0.5 -0.5,0.5 -0.277,0 -0.5,-0.223 -0.5,-0.5 l 0,-5 c 0,-0.277 0.223,-0.5 0.5,-0.5 l 2.96875,0 6.53125,0 0,-1.40625 c 0,-0.32713 -0.26666,-0.59375 -0.59375,-0.59375 l -6.375,0 0,-1.46875 C 209.03145,325.2421 208.78933,325 208.5002,325 z m 6.96875,6 1,0 c 0.26932,0 0.5,0.23068 0.5,0.5 0,0.26932 -0.5,0.5 -0.5,0.5 l -1,0 c 0,0 -0.5,-0.23068 -0.5,-0.5 0,-0.26932 0.23068,-0.5 0.5,-0.5 z m 0,2 1,0 c 0,0 0.5,0.23068 0.5,0.5 l 0,3 c 0,0.26932 -0.5,0.5 -0.5,0.5 l -1,0 c 0,0 -0.5,-0.23068 -0.5,-0.5 l 0,-3 c 0,-0.26932 0.5,-0.5 0.5,-0.5 z" style="fill:#bebebe;fill-opacity:1;stroke:none;display:inline"/></g></svg>