<svg xmlns="http://www.w3.org/2000/svg" xmlns:svg="http://www.w3.org/2000/svg" id="svg7384" width="16" height="16" version="1.1"><metadata id="metadata90"/><title id="title9167">Gnome Symbolic Icon Theme</title><g id="layer9" transform="translate(-163.0002,-325)" style="display:inline"><path id="path121430" d="m 164.0002,326 0,2 1,2 -1.21875,11 10.46875,0 -1.25,-11 1,-2 0,-2 -2,0 0,2 -2,0 0,-2 -2,0 0,2 -2,0 0,-2 z m 5,5 c 0.75841,0 0.9375,0.71875 0.9375,0.71875 0.005,0.004 0.0274,0.0231 0.0313,0.0625 0.004,0.0393 0,-0.0655 0,0.15625 l 0,1.84375 c 0,0.12074 -0.0191,0.21875 -0.0313,0.21875 l -1.90625,0 c -0.012,0 -0.0312,-0.0981 -0.0312,-0.21875 l 0,-1.84375 c 0,-0.0603 -0.004,-0.11686 0,-0.15625 0.004,-0.0393 0.0374,-0.0625 0.0313,-0.0625 0,0 0.0588,-0.71875 0.96875,-0.71875 z m -2,4 c 0.75841,0 0.9375,0.71875 0.9375,0.71875 0.005,0.005 0.0274,0.0231 0.0313,0.0625 0.004,0.0393 0,-0.0655 0,0.15625 l 0,1.84375 c 0,0.12075 -0.0191,0.21875 -0.0313,0.21875 l -1.90625,0 c -0.012,0 -0.0312,-0.0981 -0.0312,-0.21875 l 0,-1.84375 c 0,-0.0603 -0.004,-0.11687 0,-0.15625 0.004,-0.0393 0.0374,-0.0625 0.0313,-0.0625 0,0 0.0588,-0.71875 0.96875,-0.71875 z m 4,0 c 0.75841,0 0.9375,0.71875 0.9375,0.71875 0.005,0.004 0.0274,0.0231 0.0313,0.0625 0.004,0.0393 0,-0.0656 0,0.15625 l 0,1.84375 c 0,0.12074 -0.0191,0.21875 -0.0313,0.21875 l -1.90625,0 c -0.012,0 -0.0312,-0.0981 -0.0312,-0.21875 l 0,-1.84375 c 0,-0.0603 -0.004,-0.11686 0,-0.15625 0.004,-0.0393 0.0374,-0.0625 0.0313,-0.0625 0,0 0.0588,-0.71875 0.96875,-0.71875 z" style="color:#000;fill:#bebebe;fill-opacity:1;fill-rule:nonzero;stroke:none;stroke-width:.98716956;marker:none;visibility:visible;display:inline;overflow:visible;enable-background:accumulate"/><path id="path8504" d="m 176.90088,329.17724 -4.48173,3.32276 5.58105,-2.5 -1.09932,-0.82276" style="fill:#bebebe;fill-opacity:1;stroke:none;display:inline;enable-background:new"/><path id="path8508" d="m 339.52175,58.953926 a 2.5080194,2.5080194 0 1 1 -5.01604,0 2.5080194,2.5080194 0 1 1 5.01604,0 z" transform="matrix(0.58800104,0,0,0.57791286,-20.63894,295.48035)" style="color:#000;fill:#bebebe;fill-opacity:1;fill-rule:nonzero;stroke:none;stroke-width:1.61747217;marker:none;visibility:visible;display:inline;overflow:visible;enable-background:new"/><path id="path121405" d="m 339.52175,58.953926 a 2.5080194,2.5080194 0 1 1 -5.01604,0 2.5080194,2.5080194 0 1 1 5.01604,0 z" transform="matrix(0,0.59808156,-0.58799651,0,212.1902,134.9383)" style="color:#000;fill:#bebebe;fill-opacity:1;fill-rule:nonzero;stroke:none;stroke-width:1.61747217;marker:none;visibility:visible;display:inline;overflow:visible;enable-background:new"/><path id="path121409" d="m 176.3222,336.57807 -3.21388,-3.17005 3.89188,2.225 -0.678,0.94505" style="fill:#bebebe;fill-opacity:1;stroke:none;display:inline;enable-background:new"/></g></svg>