<svg xmlns="http://www.w3.org/2000/svg" xmlns:svg="http://www.w3.org/2000/svg" id="svg7384" width="16" height="16" version="1.1"><metadata id="metadata90"/><title id="title9167">Gnome Symbolic Icon Theme</title><g id="layer9" transform="translate(-43.000198,-195)" style="display:inline"><path id="path6692" d="m 54.28125,195.00525 c -0.27821,0.0752 -0.37465,0.49932 -0.15625,0.68727 l 3.1875,3.18646 c 0.21982,0.23021 0.69212,0.0371 0.6875,-0.28116 l 0,-3.21769 c -0.0122,-0.20318 -0.20269,-0.37897 -0.40625,-0.37488 l -3.1875,0 c -0.0413,-0.007 -0.0837,-0.007 -0.125,0 z" style="font-size:medium;font-style:normal;font-variant:normal;font-weight:400;font-stretch:normal;text-indent:0;text-align:start;text-decoration:none;line-height:normal;letter-spacing:normal;word-spacing:normal;text-transform:none;direction:ltr;block-progression:tb;writing-mode:lr-tb;text-anchor:start;baseline-shift:baseline;color:#000;fill:#bebebe;fill-opacity:1;stroke:none;stroke-width:.79782361px;marker:none;visibility:visible;display:inline;overflow:visible;enable-background:accumulate;font-family:Sans;-inkscape-font-specification:Sans"/><path id="path14007" d="m 44.84395,195.00525 c -0.4813,0.0874 -0.85238,0.53322 -0.84375,0.99967 l 0,13.99541 c 6e-5,0.52341 0.51276,0.99962 1.0625,0.99967 l 11.875,0 c 0.54975,-5e-5 1.06245,-0.47626 1.0625,-0.99967 l -0.0312,-7.59126 c 0.006,-0.26397 -0.0884,-0.52879 -0.28125,-0.71852 l -6.40625,-6.40414 c -0.19927,-0.18364 -0.47275,-0.28728 -0.75,-0.28116 l -5.46875,0 c -0.0654,-0.006 -0.15331,-0.006 -0.21875,0 z m 1.15625,1.99934 4,0 3.5,3.49885 2.5,2.49918 0,5.99804 -10,0 0,-11.99607 z" style="font-size:medium;font-style:normal;font-variant:normal;font-weight:400;font-stretch:normal;text-indent:0;text-align:start;text-decoration:none;line-height:normal;letter-spacing:normal;word-spacing:normal;text-transform:none;direction:ltr;text-anchor:start;color:#000;fill:#bebebe;fill-opacity:1;stroke:none;stroke-width:2;marker:none;visibility:visible;display:inline;overflow:visible;font-family:Andale Mono"/></g></svg>