<svg xmlns="http://www.w3.org/2000/svg" xmlns:svg="http://www.w3.org/2000/svg" id="svg7384" width="16" height="16" version="1.1"><metadata id="metadata90"/><title id="title9167">Gnome Symbolic Icon Theme</title><g id="layer9" transform="translate(-283.0002,-195)" style="display:inline"><path id="path17600" d="m 294.0002,196 c -7.99181,0 -10.64868,8.72576 -11,9.375 3.27017,3.4245 6.33118,4.625 10,4.625 2.64737,0 4.51382,-2.00722 5.3125,-4 0.54877,-1.36923 0.73215,-3.11278 0.65625,-7 -0.99898,-2 -3.96978,-3 -4.96875,-3 z m -7,4 7.71875,0 c 0.56616,0 0.70232,0.0584 1.15625,0.1875 0.79339,0.34029 1.09163,1.07816 1.125,1.75 0.024,1.11117 -0.007,2.95106 0,4.0625 l -2,0 0,-1 0,-2.71875 0,-0.28125 c 0,-0.554 -0.44657,-1 -1,-1 -0.55344,0 -1,0.446 -1,1 l 0,0.28125 0,2.71875 c 0.002,0.34659 0.002,0.73212 0,1 l -2,0 0,-0.25 0,-3.75 c 0,-0.554 -0.446,-1 -1,-1 -0.554,0 -1,0.446 -1,1 -0.0181,0.50626 -0.006,1.25319 0,2 l 0,1 0,0.65625 0,0.0937 c 1.4e-4,0.0897 5e-4,0.18669 0,0.25 l -2,0 0,-6 z" style="fill:#bebebe;fill-opacity:1;stroke:none;display:inline;enable-background:new"/></g></svg>