<svg xmlns="http://www.w3.org/2000/svg" xmlns:osb="http://www.openswatchbook.org/uri/2009/osb" xmlns:svg="http://www.w3.org/2000/svg" id="svg7384" width="16" height="16" version="1.1"><metadata id="metadata90"/><title id="title9167">Gnome Symbolic Icon Theme</title><defs id="defs7386"><linearGradient id="linearGradient7212" osb:paint="solid"><stop id="stop7214" offset="0" style="stop-color:#000;stop-opacity:1"/></linearGradient></defs><g id="layer9" transform="translate(-403.0002,165)" style="display:inline"><path id="rect7914" d="m 409.46895,-165 c -0.25969,0 -0.46875,0.20906 -0.46875,0.46875 l 0,1.875 c -1.03854,0.49004 -1.79689,1.48201 -1.96875,2.65625 l 6.9375,0 c -0.17186,-1.17424 -0.93021,-2.16621 -1.96875,-2.65625 l 0,-1.875 c 0,-0.25969 -0.20906,-0.46875 -0.46875,-0.46875 z m 0.0312,1 c 0.27614,0 0.5,0.22386 0.5,0.5 0,0.27614 -0.22386,0.5 -0.5,0.5 -0.27614,0 -0.5,-0.22386 -0.5,-0.5 0,-0.27614 0.22386,-0.5 0.5,-0.5 z m -2.5,5 0,1 4.5,0 c 0.26179,3e-5 0.49997,0.23821 0.5,0.5 l 0,6 c -3e-5,0.26179 -0.23821,0.49997 -0.5,0.5 l -4.5,0 0,0.96875 c 0,0.57402 0.45723,1.03125 1.03125,1.03125 l 4.9375,0 c 0.57402,0 1.03125,-0.45723 1.03125,-1.03125 l 0,-8.96875 z m 0,2 0,5 4,0 0,-5 z" style="fill:#bebebe;fill-opacity:1;stroke:none"/></g></svg>