<svg xmlns="http://www.w3.org/2000/svg" xmlns:svg="http://www.w3.org/2000/svg" id="svg7384" width="16" height="16" version="1.1"><metadata id="metadata90"/><title id="title9167">Gnome Symbolic Icon Theme</title><g id="layer9" transform="translate(-43.000198,-235)" style="display:inline"><path id="path10653" d="m 53.70886,241 -0.65733,-0.002 1.30336,2.29477 c 0.26886,0.47159 -0.0306,1.02279 -0.60156,1.34985 l -1.03601,0.60745 c -0.57621,0.31785 -1.20206,0.26934 -1.47046,-0.20247 l -1.30336,-2.29477 c -0.27685,0.34023 -0.54371,0.70558 -0.70182,1.11362 -0.75674,1.95318 0.32512,3.84321 2.40621,4.21834 0.43481,0.0787 0.89894,0.0571 1.3368,0 0,0 0.88301,1.83815 1.47045,2.91569 l 4.54506,0 -2.87408,-4.63676 c 0.2768,-0.34023 0.51027,-0.73932 0.66839,-1.14739 0.75667,-1.95314 -0.32516,-3.84318 -2.40621,-4.21833 l 0,0 C 54.26858,241 53.90814,241.0105 53.70886,241 z" style="font-size:medium;font-style:normal;font-variant:normal;font-weight:400;font-stretch:normal;text-indent:0;text-align:start;text-decoration:none;line-height:normal;letter-spacing:normal;word-spacing:normal;text-transform:none;direction:ltr;block-progression:tb;writing-mode:lr-tb;text-anchor:start;color:#000;fill:#bebebe;fill-opacity:1;fill-rule:nonzero;stroke:none;stroke-width:3;marker:none;visibility:visible;display:inline;overflow:visible;enable-background:accumulate;font-family:Sans;-inkscape-font-specification:Sans"/><path id="rect10655" d="m 47.2502,236 c -1.8005,0 -3.25,1.4495 -3.25,3.25 l 0,6.5 c 0,1.8005 1.4495,3.25 3.25,3.25 l 0.75,0 0,-4 c -1.164813,0 -2,-0.71192 -2,-2.21875 l 0,-3.5 C 46.0002,238.566 46.40995,238 47.1877,238 l 7.8125,0 c 0.645563,0 1.001608,0.45196 1.001608,1 l 0,1 1.998392,0 0,-0.75 c 0,-1.8005 -1.4495,-3.25 -3.25,-3.25 z" style="fill:#bebebe;fill-opacity:1;stroke:none"/></g></svg>