<svg xmlns="http://www.w3.org/2000/svg" xmlns:svg="http://www.w3.org/2000/svg" id="svg7384" width="16" height="16" version="1.1"><metadata id="metadata90"/><title id="title9167">Gnome Symbolic Icon Theme</title><g id="layer9" transform="translate(-263.0002,-195)" style="display:inline"><path id="path9941" d="m 264.54214,198.60835 c 1.13952,-0.87184 2.97168,-0.0277 2.97168,0.6482 L 265.99435,200 c 0,0 0.23389,-1.2025 -1.45221,-1.39165 l 0,0 z" style="fill:#bebebe;fill-opacity:1;stroke:none"/><path id="path9943" d="m 265.1228,197.46365 c 1.76178,-1.09459 4.1175,1.03936 4.3435,1.86826 L 266.9924,199 c 0,0 -0.26917,-1.3347 -1.8696,-1.53635 z" style="fill:#bebebe;fill-opacity:1;stroke:none"/><path id="path9949" d="m 268.17766,198.92187 c -2.6312,0 -5.17739,2.05274 -5.17739,4.65625 l 0.0312,7.40625 12.60039,0 c -0.70568,-0.75655 -2.12829,-1.63269 -2.61988,-2 0,0 -3.99221,0.18746 -3.99221,-1.15625 0,-1.195 0,-2.25 0,-2.25 0,0 -0.0502,-1.59375 1.55946,-1.59375 1.16255,0 1.4347,0.40625 1.4347,0.40625 0.37446,-0.40625 0.62715,-0.43753 1.49707,-0.40625 0.0121,-0.1347 -0.0312,-0.20758 -0.0312,-0.34375 0,-2.60352 -2.67096,-4.71875 -5.30214,-4.71875 z m -1.65302,2.0625 c 1.37802,0 2.49512,1.12709 2.49512,2.5 0,1.3729 -1.1171,2.46875 -2.49512,2.46875 -1.37802,0 -2.49513,-1.09585 -2.49513,-2.46875 0,-1.37291 1.11711,-2.5 2.49513,-2.5 z" style="fill:#bebebe;fill-opacity:1;stroke:none"/><path id="path5152-3" d="m 273.97876,206 c 0.355,0.34093 1.0215,1 1.0215,1 0,0 0.0207,-0.0246 -5.01372,-1.00002 l 0,0 0,0 c 0,0 0,-1 0.99805,-1 0.99806,0 1.05985,0.58015 1.05985,0.58015 0,0 0.28456,-0.58015 0.93626,-0.58015 0.68929,0 1.01956,0.38256 1.01956,1.00002 0,0.007 -0.0215,0 -0.0215,0 z" style="fill:#bebebe;fill-opacity:1;fill-rule:evenodd;stroke:none;display:inline;enable-background:new"/><path id="path16545" d="m 267.27964,203.30936 c -0.5509,0 -0.99803,0.45149 -0.99803,1.00781 0,0.55632 0.44713,1.00781 0.99803,1.00781 0.55094,0 0.99807,-0.45149 0.99807,-1.00781 0,-0.55632 -0.44713,-1.00781 -0.99807,-1.00781 z" style="fill:#bebebe;fill-opacity:1;stroke:none;stroke-width:3;marker:none;visibility:visible;display:inline;overflow:visible;enable-background:accumulate"/><path id="path119039" d="m 270.00026,207 c 0.0221,1 -0.18748,1 1.9824,1 1.06631,0 2.0176,0 2.0176,0 l 0,0 c 0,0 0.0221,0 -4,-1 z" style="fill:#bebebe;fill-opacity:1;stroke:none"/><path id="path10252" d="m 270.65708,195.03126 c -0.38011,0 -0.68616,0.31026 -0.68616,0.6875 l 0,2.3125 c 1.39616,0 3.99221,2 4.52242,4.53125 0.0325,0.15493 0.1166,0.31384 0.10114,0.46875 l 1.39015,0 0,2 2,-2 0.37565,0 c 0.34619,0 0.5931,-0.24431 0.5931,-0.5912 l 0,-6.7213 c 0,-0.37725 -0.30604,-0.6875 -0.68616,-0.6875 z" style="fill:#bebebe;fill-opacity:1;fill-rule:nonzero;stroke:none;stroke-width:1;marker:none;visibility:visible;display:inline;overflow:visible;enable-background:accumulate"/></g></svg>