<svg xmlns="http://www.w3.org/2000/svg" xmlns:svg="http://www.w3.org/2000/svg" id="svg7384" width="16" height="16" version="1.1"><metadata id="metadata90"/><title id="title9167">Gnome Symbolic Icon Theme</title><g id="layer9" transform="translate(-183.0002,-325)" style="display:inline"><g id="g123248" transform="translate(100,70)"><path id="path3950" d="m -150,38 c -0.0112,10e-4 -0.0245,0.02305 -0.0312,0.03125 l -3.125,3.875 c -0.007,0.008 -0.0223,0.0067 -0.0312,0.0625 0.0407,0.0326 0.0496,0.02905 0.0625,0.03125 l 0.9375,0.125 c 0.0872,0.015 0.16222,0.06912 0.1875,0.15625 0.0253,0.0872 0.002,0.18828 -0.0625,0.25 L -155.25,45.75 c -0.007,0.007 -0.003,0.0506 0,0.0625 0.003,0.0118 0.0193,0.02765 0.0312,0.03125 L -153.15625,46 c 0.078,0.0229 0.13457,0.10715 0.15625,0.1875 0.0217,0.0804 -0.007,0.15781 -0.0625,0.21875 l -3.9375,4.375 c -0.008,0.0109 -0.008,0.0556 0,0.0625 l 0.0312,0.03125 5.8125,0.15625 c 0.10707,0.0215 0.18726,0.10652 0.1875,0.21875 L -151,53 l 1,0 1,0 -0.0312,-1.75 c 2.4e-4,-0.11223 0.0804,-0.19725 0.1875,-0.21875 L -143.0312,50.875 -143,50.84375 c 0.008,-0.0069 0.008,-0.0516 0,-0.0625 l -3.9375,-4.375 c -0.0554,-0.06094 -0.0842,-0.13835 -0.0625,-0.21875 0.0217,-0.08035 0.0782,-0.1646 0.15625,-0.1875 l 2.0625,-0.15625 c 0.012,-0.0036 0.0284,-0.01945 0.0312,-0.03125 0.003,-0.0119 0.007,-0.0555 0,-0.0625 l -3.1875,-3.21875 c -0.065,-0.06172 -0.0878,-0.1628 -0.0625,-0.25 0.0253,-0.08713 0.10028,-0.14125 0.1875,-0.15625 L -146.875,42 c 0.0129,-0.0022 0.0218,0.0014 0.0625,-0.03125 -0.009,-0.0558 -0.0245,-0.0545 -0.0312,-0.0625 l -3.125,-3.875 C -149.97553,38.02305 -149.98877,38.001 -150,38 z" transform="translate(241.0002,217)" style="fill:#bebebe;fill-opacity:1;stroke:none;display:inline;enable-background:new"/></g></g></svg>