<svg xmlns="http://www.w3.org/2000/svg" xmlns:osb="http://www.openswatchbook.org/uri/2009/osb" xmlns:svg="http://www.w3.org/2000/svg" id="svg7384" width="16" height="16" version="1.1" viewBox="0 0 16 16"><metadata id="metadata90"/><title id="title9167">Gnome Symbolic Icon Theme</title><defs id="defs7386"><linearGradient id="linearGradient7212" osb:paint="solid"><stop id="stop7214" offset="0" style="stop-color:#000;stop-opacity:1"/></linearGradient></defs><g id="layer9" transform="translate(-343.00021,84.999986)" style="display:inline"><path id="rect1872" d="m 351.0002,-84 a 3,3 0 0 0 -2.87109,2.15234 c 0.52455,0.23968 0.98135,0.60917 1.3125,1.08594 -0.36521,-0.48945 -0.8695,-0.8569 -1.44727,-1.05469 -1.3861,-0.47473 -2.87912,0.11244 -3.59375,1.32813 -0.0928,0.15786 -0.16782,0.32971 -0.23242,0.50781 a 3,3 0 0 0 -0.0391,0.12109 c -0.0392,0.12391 -0.0652,0.24831 -0.0879,0.37305 a 3,3 0 0 0 -0.041,0.48633 3,3 0 0 0 3,3 v 5 h 8 v -5 a 3,3 0 0 0 0.0566,-0.004 l -0.043,-0.0215 c 1.44045,3.1e-4 2.64249,-1.01998 2.92383,-2.37695 a 3,3 0 0 0 0.002,-0.008 c 2.6e-4,-0.001 -2.5e-4,-0.003 0,-0.004 0.039,-0.19201 0.0603,-0.39028 0.0606,-0.59375 a 3,3 0 0 0 -0.002,-0.0156 c -6.9e-4,-0.18387 -0.0202,-0.36249 -0.0527,-0.53711 a 3,3 0 0 0 -0.0312,-0.13476 c -0.0321,-0.13669 -0.0728,-0.26972 -0.12304,-0.39844 a 3,3 0 0 0 -0.0703,-0.16406 c -0.0525,-0.11377 -0.11384,-0.22263 -0.17968,-0.32813 a 3,3 0 0 0 -0.10752,-0.1637 c -0.0767,-0.10654 -0.16026,-0.20736 -0.25,-0.30273 a 3,3 0 0 0 -0.0937,-0.0996 c -0.10129,-0.0983 -0.21179,-0.18632 -0.32617,-0.26954 a 3,3 0 0 0 -0.13476,-0.0957 c -0.003,-0.002 -0.005,-0.004 -0.008,-0.006 -0.11975,-0.0768 -0.24632,-0.14378 -0.37695,-0.20312 a 3,3 0 0 0 -0.11328,-0.0508 c -0.14879,-0.0602 -0.30332,-0.10878 -0.46289,-0.14454 a 3,3 0 0 0 -0.0879,-0.0195 c -0.1838,-0.0353 -0.37229,-0.0567 -0.56641,-0.0566 -1.64869,7.2e-4 -2.98473,1.33764 -2.98437,2.98633 -0.002,-0.0312 -0.003,-0.0624 -0.004,-0.0937 2e-4,-1.26384 0.74366,-2.34616 1.8125,-2.85742 A 3,3 0 0 0 351.0002,-84 Z" style="color:#000;overflow:visible;vector-effect:none;fill:#bebebe;fill-opacity:1;stroke:none;stroke-width:2;stroke-opacity:1"/></g></svg>