<svg xmlns="http://www.w3.org/2000/svg" xmlns:osb="http://www.openswatchbook.org/uri/2009/osb" xmlns:svg="http://www.w3.org/2000/svg" id="svg7384" width="16" height="16" version="1.1" viewBox="0 0 16 16"><metadata id="metadata90"/><title id="title9167">Gnome Symbolic Icon Theme</title><defs id="defs7386"><linearGradient id="linearGradient7212" osb:paint="solid"><stop id="stop7214" offset="0" style="stop-color:#000;stop-opacity:1"/></linearGradient></defs><g id="layer9" transform="translate(-363.00021,84.999986)" style="display:inline"><path id="rect1898" d="m 368.52626,-83.92063 c -0.46137,0 -0.87696,0.40482 -0.87696,1 0,0.58739 0.41514,1 0.82032,1 L 367.06532,-78 v 3 h 0.0117 c -0.002,0.0374 -0.0117,0.0733 -0.0117,0.11133 v 3.10547 c 0,0.97038 0.78157,1.75195 1.75195,1.75195 h 4.44801 c 0.97038,0 1.75195,-0.78157 1.75195,-1.75195 v -3.10547 c 0,-0.038 -0.009,-0.0739 -0.0117,-0.11133 h 0.0117 v -3 l -1.50977,-3.92063 c 0.51003,0 0.93555,-0.39122 0.93555,-1 0,-0.56776 -0.42669,-1 -0.92187,-1 z m 0.91015,2 c 1.04504,-0.38848 2.12966,-0.30799 3.18434,0 L 374.01723,-78 c 0,0 0.16959,1.16647 -0.27371,1.56615 -0.4433,0.39968 -2.1292,-0.0525 -2.73792,0.29892 -0.62663,0.36178 -2.00526,0.70796 -2.52137,0.30876 C 367.96812,-76.22538 368.06532,-78 368.06532,-78 Z" style="color:#000;overflow:visible;vector-effect:none;fill:#bebebe;fill-opacity:1;stroke:none;stroke-width:2;stroke-opacity:1"/></g></svg>