<svg xmlns="http://www.w3.org/2000/svg" xmlns:svg="http://www.w3.org/2000/svg" id="svg7384" width="16" height="16" version="1.1"><metadata id="metadata90"/><title id="title9167">Gnome Symbolic Icon Theme</title><g id="layer9" transform="translate(-183.00021,-195)" style="display:inline"><path id="path10031" d="m 187.34395,195 c -1.30586,0 -2.34375,1.03789 -2.34375,2.34375 l 0,11.3125 c 0,1.30586 1.03789,2.34375 2.34375,2.34375 l 7.3125,0 c 1.30586,0 2.34375,-1.03789 2.34375,-2.34375 l 0,-11.3125 c 0,-1.30586 -1.03789,-2.34375 -2.34375,-2.34375 l -7.3125,0 z m 3.65625,1 c 2.7537,0 5,2.24631 5,5 0,2.7537 -2.2463,5 -5,5 -2.7537,0 -5,-2.2463 -5,-5 0,-2.75369 2.2463,-5 5,-5 z m 0,2.03125 c -1.63902,0 -2.96875,1.32973 -2.96875,2.96875 0,1.63903 1.32973,2.96875 2.96875,2.96875 1.63902,0 2.96875,-1.32972 2.96875,-2.96875 0,-1.63902 -1.32973,-2.96875 -2.96875,-2.96875 z m 0,1.46875 c 0.85431,0 1.53125,0.66295 1.53125,1.5 0,0.83705 -0.67694,1.5 -1.53125,1.5 -0.10679,0 -0.2118,0.0202 -0.3125,0 -0.70488,-0.14133 -1.21875,-0.76758 -1.21875,-1.5 0,-0.83705 0.67694,-1.5 1.53125,-1.5 z m 3,7.5 c 0.55228,0 1,0.44771 1,1 0,0.55228 -0.44772,1 -1,1 -0.55228,0 -1,-0.44772 -1,-1 0,-0.55229 0.44772,-1 1,-1 z" style="fill:#bebebe;fill-opacity:1;stroke:none;display:inline"/></g></svg>