<svg xmlns="http://www.w3.org/2000/svg" xmlns:svg="http://www.w3.org/2000/svg" id="svg7384" width="16" height="16" version="1.1"><metadata id="metadata90"/><title id="title9167">Gnome Symbolic Icon Theme</title><g id="layer9" transform="translate(-63.0002,-235)" style="display:inline"><path id="path10153" d="m 71.0002,235 c -4.41828,0 -8,3.58172 -8,8 0,4.41828 3.58172,8 8,8 4.41828,0 8,-3.58172 8,-8 0,-1.26523 -0.28953,-2.46768 -0.8125,-3.53125 l -1.1875,1.28125 -3.34375,-3.59375 1.125,-1.21875 C 73.65671,235.33419 72.36585,235 71.0002,235 z m 2,2.875 1.34375,1.4375 0.65625,0.71875 1.34375,1.4375 -0.6875,0.71875 c -0.66657,0.71787 -0.64593,0.7205 -1.3125,2.875 -2.6664,2.87148 -5.34375,2.875 -5.34375,2.875 l -0.65625,0.71875 c 0,0 -0.67718,0.71787 -1.34375,0 l 4,-4.3125 0.0625,-0.0937 c 0.52751,0.27708 1.15549,0.19015 1.59375,-0.28125 0.55234,-0.59486 0.55193,-1.56229 0,-2.15625 -0.55193,-0.59397 -1.44766,-0.59486 -2,0 -0.43813,0.47155 -0.50755,1.18203 -0.25,1.75 l -0.0625,0.0625 -4,4.3125 c -0.66656,-0.71786 0,-1.4375 0,-1.4375 l 0.65625,-0.71875 c 0,0 -0.0102,-2.87853 2.65625,-5.75 2.00011,-0.71876 2.02093,-0.71963 2.6875,-1.4375 L 73.0002,237.875 z" style="fill:#bebebe;fill-opacity:1;stroke:none"/></g></svg>