<svg xmlns="http://www.w3.org/2000/svg" xmlns:osb="http://www.openswatchbook.org/uri/2009/osb" xmlns:svg="http://www.w3.org/2000/svg" id="svg7384" width="16" height="16" version="1.1"><metadata id="metadata90"/><title id="title9167">Gnome Symbolic Icon Theme</title><defs id="defs7386"><linearGradient id="linearGradient7212" osb:paint="solid"><stop id="stop7214" offset="0" style="stop-color:#000;stop-opacity:1"/></linearGradient></defs><g id="layer9" transform="translate(-483.0002,125)" style="display:inline"><path id="path4000-7-6" d="m 488.0002,-123 0,1 2,0 0,1 -3,0 c -0.65625,0 -1,0.39062 -1,1 l 0,3 -1,0 0,-2 -1,0 0,6 1,0 0,-2 1,0 0,3 c 0,0.48438 0.51562,1 1,1 l 8,0 c 0.57813,0 1,-0.54687 1,-1.04687 l 0,-0.95313 1,1 1,0 0,-8 -1.04944,0 -0.95056,1 0,-1 c 0,-0.51563 -0.39062,-1 -1,-1 l -3,0 0,-1 2,0 0,-1 z m 3.78125,3 c 0.0829,-0.0103 0.1671,-0.0103 0.25,0 0.0208,-6.4e-4 0.0417,-6.4e-4 0.0625,0 l 0.0937,0 0.84375,0 0,0.78125 c 10e-4,0.0312 10e-4,0.0625 0,0.0937 0.0401,0.30421 -0.0666,0.62444 -0.28125,0.84375 l -1.31245,1.2813 1.5625,0 0.15625,0 0.84375,0 0,0.875 c 0.003,0.0416 0.003,0.0834 0,0.125 0.006,0.26404 -0.0976,0.52898 -0.28125,0.71875 l -3,3 c -0.19084,0.18225 -0.45489,0.28525 -0.71875,0.28125 l -0.15625,0 -0.84375,0 0,-0.78125 c -0.001,-0.0312 -0.001,-0.0625 0,-0.0937 -0.0401,-0.30421 0.0666,-0.62444 0.28125,-0.84375 l 1.1875,-1.2813 -1.46875,0 -0.1875,0 -0.8125,0 0,-0.8125 c -0.0633,-0.32341 0.046,-0.67551 0.28125,-0.90625 l 3.03125,-3 c 0.12685,-0.13396 0.29086,-0.23235 0.46875,-0.28125 z" style="font-size:medium;font-style:normal;font-variant:normal;font-weight:400;font-stretch:normal;text-indent:0;text-align:start;text-decoration:none;line-height:normal;letter-spacing:normal;word-spacing:normal;text-transform:none;direction:ltr;block-progression:tb;writing-mode:lr-tb;text-anchor:start;color:#000;fill:#bebebe;fill-opacity:1;stroke:none;stroke-width:1px;marker:none;visibility:visible;display:inline;overflow:visible;enable-background:accumulate;font-family:Bitstream Vera Sans;-inkscape-font-specification:Bitstream Vera Sans"/></g></svg>