<svg xmlns="http://www.w3.org/2000/svg" xmlns:svg="http://www.w3.org/2000/svg" id="svg7384" width="16" height="16" version="1.1"><metadata id="metadata90"/><title id="title9167">Gnome Symbolic Icon Theme</title><g id="layer9" transform="translate(-263.00021,-175)" style="display:inline"><path id="path12550" d="m 270.96895,176 c -3.84231,0 -6.96875,3.18947 -6.96875,7.09375 0,3.90429 3.12644,6.9375 6.96875,6.9375 0.69879,0 1.35969,-0.11302 2,-0.3125 -0.41187,-1.9375 -0.42338,-3.03961 0.5,-4.71875 0.54324,-0.98785 1.74686,-2.96274 4.34375,-3.1875 C 277.31004,178.3938 274.46624,176 270.96895,176 z m 0.53125,1.0625 c 0.28659,0.0176 0.55406,0.11017 0.875,0.28125 0.66438,0.35416 0.99368,0.7203 0.8125,1.0625 l -1.03125,1.9375 c 0.95271,0.49213 1.625,1.48092 1.625,2.65625 0,1.65685 -1.3141,3 -2.90625,3 -0.25821,0 -0.51212,-0.0266 -0.75,-0.0937 l -0.5625,2.0625 c -0.11659,0.4319 -0.40529,0.55923 -1.15625,0.3125 -0.82913,-0.27249 -1.16906,-0.49422 -1.53125,-1.125 -0.37491,-0.65292 -0.46027,-1.14999 -0.125,-1.34375 l 1.8125,-1.03125 c -0.12379,-0.17416 -0.22663,-0.36296 -0.3125,-0.5625 l -1.84375,0.875 c -0.40383,0.19136 -0.66905,0.0752 -0.96875,-0.65625 -0.33084,-0.80762 -0.40104,-1.22132 -0.15625,-1.90625 0.25339,-0.70898 0.5725,-1.09805 0.9375,-0.96875 l 1.875,0.6875 c 0.0529,-0.21998 0.12303,-0.42855 0.21875,-0.625 l -1.875,-0.8125 c -0.40985,-0.17809 -0.50967,-0.48047 -0.15625,-1.1875 0.39027,-0.78065 0.66697,-1.07726 1.34375,-1.34375 0.70055,-0.27586 1.20087,-0.29739 1.34375,0.0625 l 0.75,1.90625 c 0.17927,-0.0814 0.36568,-0.14554 0.5625,-0.1875 l -0.59375,-2 c -0.13037,-0.42743 0.0139,-0.68527 0.78125,-0.875 0.42364,-0.10473 0.74466,-0.1426 1.03125,-0.125 z" style="font-size:medium;font-style:normal;font-variant:normal;font-weight:400;font-stretch:normal;text-indent:0;text-align:start;text-decoration:none;line-height:normal;letter-spacing:normal;word-spacing:normal;text-transform:none;direction:ltr;block-progression:tb;writing-mode:lr-tb;text-anchor:start;baseline-shift:baseline;color:#bebebe;fill:#bebebe;fill-opacity:1;stroke:none;stroke-width:5.61250019;marker:none;visibility:visible;display:inline;overflow:visible;enable-background:accumulate;font-family:Sans;-inkscape-font-specification:Sans"/><path id="path40342" d="m 271.00504,181.0058 c -1.09865,0 -2.01317,0.89789 -2.01317,1.99654 0,1.09864 0.91452,1.99653 2.01317,1.99653 1.09865,0 1.99654,-0.89789 1.99654,-1.99653 0,-1.09865 -0.89789,-1.99654 -1.99654,-1.99654 z m 0,0.99827 c 0.55821,0 0.99827,0.44006 0.99827,0.99827 0,0.5582 -0.44006,0.99826 -0.99827,0.99826 -0.55821,0 -0.99827,-0.44006 -0.99827,-0.99826 0,-0.55821 0.44006,-0.99827 0.99827,-0.99827 z" style="font-size:medium;font-style:normal;font-variant:normal;font-weight:400;font-stretch:normal;text-indent:0;text-align:start;text-decoration:none;line-height:normal;letter-spacing:normal;word-spacing:normal;text-transform:none;direction:ltr;block-progression:tb;writing-mode:lr-tb;text-anchor:start;baseline-shift:baseline;color:#bebebe;fill:#bebebe;fill-opacity:1;stroke:none;stroke-width:1.87825239;marker:none;visibility:visible;display:inline;overflow:visible;enable-background:accumulate;font-family:Sans;-inkscape-font-specification:Sans"/><path id="path13227" d="m 278.96509,187.77445 c -0.0253,1.0815 -0.57608,2.26591 -2.37078,2.2245 -1.79469,-0.0413 -2.38091,-0.99117 -2.5307,-1.62378 C 273.91382,187.74255 273.69092,185 277.43304,183 c -1.43284,1.93104 1.56716,3.27382 1.53205,4.77445 z" style="color:#000;fill:#bebebe;fill-opacity:1;stroke:none;stroke-width:.2674925;marker:none;visibility:visible;display:inline;overflow:visible"/></g></svg>