<svg xmlns="http://www.w3.org/2000/svg" xmlns:svg="http://www.w3.org/2000/svg" id="svg7384" width="16" height="16" version="1.1"><metadata id="metadata90"/><title id="title9167">Gnome Symbolic Icon Theme</title><g id="layer9" transform="translate(-223.0002,-235)" style="display:inline"><path id="path10943" d="m 223.53145,236 c -0.28913,0 -0.53125,0.24212 -0.53125,0.53125 l 0,13.9375 c 0,0.2985 0.23264,0.53125 0.53125,0.53125 l 14.9375,0 c 0.2986,0 0.53125,-0.23265 0.53125,-0.53125 l 0,-8.9375 c 0,-0.2891 -0.24212,-0.53125 -0.53125,-0.53125 l -12.46875,0 0,7.5 c 0,0.277 -0.223,0.5 -0.5,0.5 -0.277,0 -0.5,-0.223 -0.5,-0.5 l 0,-8 c 0,-0.277 0.223,-0.5 0.5,-0.5 l 2.96875,0 8.53125,0 0,-1.40625 c 0,-0.3272 -0.26666,-0.59375 -0.59375,-0.59375 l -7.40625,0 0,-1.46875 C 229.0002,236.2421 228.75808,236 228.46895,236 l -4.9375,0 z m 9,5.8125 c 0.77766,0.008 0.93805,1.8177 1.5625,2.28125 0.62445,0.46355 2.39228,0.10169 2.625,0.84375 0.23272,0.74206 -1.43961,1.45037 -1.6875,2.1875 -0.24789,0.73713 0.66508,2.29936 0.0312,2.75 -0.63383,0.45064 -1.84734,-0.92952 -2.625,-0.9375 -0.77766,-0.008 -1.9693,1.33855 -2.59375,0.875 -0.62445,-0.46355 0.29522,-2.00794 0.0625,-2.75 -0.23272,-0.74206 -1.8729,-1.48162 -1.625,-2.21875 0.24789,-0.73713 1.99117,-0.33061 2.625,-0.78125 0.63383,-0.45064 0.84734,-2.25798 1.625,-2.25 z" style="fill:#bebebe;fill-opacity:1;stroke:none;display:inline"/></g></svg>