<svg xmlns="http://www.w3.org/2000/svg" xmlns:svg="http://www.w3.org/2000/svg" id="svg7384" width="16" height="16" version="1.1"><metadata id="metadata90"/><title id="title9167">Gnome Symbolic Icon Theme</title><g id="layer9" transform="translate(-43.0002,-325)" style="display:inline"><path id="path20580-1" d="m 52,342.5 a 2.5,2.5 0 1 1 -5,0 2.5,2.5 0 1 1 5,0 z" transform="matrix(1.2,0,0,1.2,-10.3998,-83)" style="color:#bebebe;fill:#bebebe;fill-opacity:1;fill-rule:nonzero;stroke:none;stroke-width:2;marker:none;visibility:visible;display:inline;overflow:visible;enable-background:accumulate"/><path id="path78052" d="m 46.0002,331 c -1,0 -2,0 -2,1 0,0.92264 0,6 0,6 l 2,0 0,-4 c 0,-0.73483 0.37565,-1 1,-1 l 7,0 0,-1 c 0,-1 -1,-1 -2,-1 l 0,1 -6,0 z" style="fill:#bebebe;fill-opacity:1;stroke:none"/><path id="rect78092" d="m 47.53145,334 c -0.296922,0 -0.53125,0.23433 -0.53125,0.53125 l 0,5.9375 c 0,0.29692 0.234328,0.53125 0.53125,0.53125 l 9.9375,0 c 0.296922,0 0.53125,-0.23433 0.53125,-0.53125 l 0,-5.9375 C 58.0002,334.23433 57.765872,334 57.46895,334 l -9.9375,0 z m 0.46875,1 4,0 0,5 -4,0 0,-5 z m 5,0 4,0 0,1 -4,0 0,-1 z m 0,2 4,0 0,1 -4,0 0,-1 z m 0,2 4,0 0,1 -4,0 0,-1 z" style="fill:#bebebe;fill-opacity:1;stroke:none"/></g></svg>