<svg xmlns="http://www.w3.org/2000/svg" xmlns:osb="http://www.openswatchbook.org/uri/2009/osb" xmlns:svg="http://www.w3.org/2000/svg" id="svg7384" width="16" height="16" version="1.1"><metadata id="metadata90"/><title id="title9167">Gnome Symbolic Icon Theme</title><defs id="defs7386"><linearGradient id="linearGradient7212" osb:paint="solid"><stop id="stop7214" offset="0" style="stop-color:#000;stop-opacity:1"/></linearGradient></defs><g id="layer9" transform="translate(-403.03125,185.00003)" style="display:inline"><path id="rect5523" d="m 405.0002,-185 c 0,0 0,0 0,2 l 0,12 c 0,2 -1,2 -1,2 l 1,0 c 0,0 1,0 1,-1 l 1,0 c 0,1 -1,1 -1,1 l 1,0 c 0,0 1,0 1,-1 l 6,0 c 0,1 -0.67515,1 -1,1 l 1,0 c 0,0 1,0 1,-1 l 1,0 c 0,1 -1,1 -1,1 l 1,0 c 0,0 1,0 1,-2 l 0,-12 c 0,-2 0,-2 0,-2 l -3,0 c 0,0 0,0 0,2 l 0,2 -6,0 0,-2 c 0,-2 0,-2 0,-2 z m 1,1 1,0 0,1 -1,0 z m 9,0 1,0 0,1 -1,0 z m -9,2 1,0 0,1 -1,0 z m 9,0 1,0 0,1 -1,0 z m -9,2 1,0 0,1 -1,0 z m 2,0 6,0 0,4 -6,0 z m 7,0 1,0 0,1 -1,0 z m -9,2 1,0 0,1 -1,0 z m 9,0 1,0 0,1 -1,0 z m -9,2 1,0 0,1 -1,0 z m 9,0 1,0 0,1 -1,0 z m -7,1 6,0 0,4 -6,0 z m -2,1 1,0 0,1 -1,0 z m 9,0 1,0 0,1 -1,0 z m -9,2 1,0 0,1 -1,0 z m 9,0 1,0 0,1 -1,0 z" style="color:#000;display:inline;overflow:visible;visibility:visible;fill:#bebebe;fill-opacity:1;fill-rule:nonzero;stroke:none;stroke-width:1.50793636;marker:none;enable-background:new"/></g></svg>