<svg xmlns="http://www.w3.org/2000/svg" xmlns:svg="http://www.w3.org/2000/svg" id="svg7384" width="16" height="16" version="1.1"><metadata id="metadata90"/><title id="title9167">Gnome Symbolic Icon Theme</title><g id="layer9" transform="translate(-43.0002,-215)" style="display:inline"><path id="rect5849" d="m 46.420162,221 c -0.60874,0 -1.56297,0.0246 -1.98514,2 l -1.3958,6.53125 c -0.12417,0.58106 0,1.46875 1.08563,1.46875 l 13.70981,0 c 1.08562,0 1.2142,-0.98241 1.08562,-1.5625 L 57.493462,223 c -0.42669,-1.92518 -1.37639,-2 -1.98513,-2 l -1.55088,0 0,1 c 0.5273,0 -1.70779,0 0.99256,0 0.99257,0 1.06291,1.30944 1.42682,3 l 0.55831,2.59375 c 0.1639,0.76136 0,1.40625 -1.39579,1.40625 l -9.05716,0 c -1.45783,0 -1.53332,-0.63961 -1.3958,-1.40625 L 45.551662,225 c 0.32106,-1.78985 0.46527,-3 1.45783,-3 l 0.99257,0 0,-1 z" style="color:#000;fill:#bebebe;fill-opacity:1;fill-rule:nonzero;stroke:none;stroke-width:1;marker:none;visibility:visible;display:inline;overflow:visible;enable-background:accumulate"/><path id="rect6273" d="m 47.009492,224 7.94052,0 -3.95778,4 z" style="color:#000;fill:#bebebe;fill-opacity:1;fill-rule:nonzero;stroke:none;stroke-width:.99999988;marker:none;visibility:visible;display:inline;overflow:visible;filter:url(#filter4896-5-0-6-4-8-7-6);enable-background:accumulate"/><rect id="rect5226-91-0-6" width="3.97" height="7" x="48.995" y="216" rx="0" ry="0" style="color:#000;fill:#bebebe;fill-opacity:1;fill-rule:nonzero;stroke:none;stroke-width:1.00000012;marker:none;visibility:visible;display:inline;overflow:visible;enable-background:new"/><rect id="rect14612" width="9.926" height="2" x="46.017" y="216" rx=".993" ry="2" style="fill:#bebebe;fill-opacity:1;stroke:none"/></g></svg>