<svg xmlns="http://www.w3.org/2000/svg" xmlns:svg="http://www.w3.org/2000/svg" id="svg7384" width="16" height="16" version="1.1"><metadata id="metadata90"/><title id="title9167">Gnome Symbolic Icon Theme</title><g id="layer9" transform="translate(-223.00014,-195)" style="display:inline"><path id="path10744" d="m 226.42878,195 -3.42858,3 0.67857,0.59375 c 0.20614,-0.18037 0.44316,-0.33363 0.71429,-0.4375 0.003,-0.006 0.0318,0.005 0.0356,0 0.0639,-0.0923 0.16174,-0.15625 0.42858,-0.15625 l 0.5,0 4.50001,0 z" style="color:#000;fill:#bebebe;fill-opacity:1;fill-rule:nonzero;stroke:none;stroke-width:1;marker:none;visibility:visible;display:inline;overflow:visible;enable-background:new"/><path id="path10742" d="m 235.57165,195 -3.42857,3 4.5,0 0.46429,0 c 0.26683,0 0.35875,0.064 0.42857,0.15625 0.0107,0.004 0.0257,-0.004 0.0356,0 0.28298,0.10439 0.53637,0.25057 0.75,0.4375 L 239.00017,198 z" style="color:#000;fill:#bebebe;fill-opacity:1;fill-rule:nonzero;stroke:none;stroke-width:1;marker:none;visibility:visible;display:inline;overflow:visible;enable-background:new"/><path id="rect3271" d="m 225.21449,206.00002 c 0.002,0.004 0.0233,0.0274 0.0356,0.0312 l -2.24995,1.96873 3.42858,2.99998 4.57143,-3.99996 4.57144,3.99996 3.42858,-2.99998 L 236.71445,206 c -0.0247,6.6e-4 -0.0464,0 -0.0715,0 l -1.14275,0 -0.0312,3.0625 -3.46875,-3.0625 -6.64299,0 c -0.05,0 -0.0935,0.003 -0.14286,0 z" style="color:#000;fill:#bebebe;fill-opacity:1;fill-rule:nonzero;stroke:none;stroke-width:1;marker:none;visibility:visible;display:inline;overflow:visible;enable-background:new"/><path id="path10708" d="m 225.63303,200 c -0.90719,0 -1.63283,0.76556 -1.63283,1.72261 l 0,0.62205 c 0,0.95708 0.72564,1.72261 1.63283,1.72261 l 6.53383,0 2.32857,1.93273 0,-1.93273 1.85682,0 c 0.90719,0 1.64795,-0.76553 1.64795,-1.72261 l 0,-0.62205 c 0,-0.95705 -0.74076,-1.72261 -1.64795,-1.72261 z" style="fill:#bebebe;fill-opacity:1;fill-rule:nonzero;stroke:none;stroke-width:.54060954;marker:none;visibility:visible;display:inline;overflow:visible;enable-background:accumulate"/></g></svg>