<svg xmlns="http://www.w3.org/2000/svg" xmlns:svg="http://www.w3.org/2000/svg" id="svg7384" width="16" height="16" version="1.1"><metadata id="metadata90"/><title id="title9167">Gnome Symbolic Icon Theme</title><g id="layer9" transform="translate(-243.0002,-195)" style="display:inline"><path id="path10801" d="m 246.34395,195 c -1.86075,0 -3.34375,1.483 -3.34375,3.34375 l 0,5.3125 c 0,1.86075 1.483,3.34375 3.34375,3.34375 l 5.65625,0 0,4 3,-4 0.65625,0 c 1.86075,0 3.34375,-1.483 3.34375,-3.34375 l 0,-5.3125 C 259.0002,196.483 257.5172,195 255.65645,195 l -9.3125,0 z m -0.34375,2 3,0 2,2.28125 2,-2.28125 3,0 -3.5,4 3.5,4 -3,0 -2,-2.28125 -2,2.28125 -3,0 3.5,-4 -3.5,-4 z" style="fill:#bebebe;fill-opacity:1;stroke:none"/></g></svg>