<svg xmlns="http://www.w3.org/2000/svg" xmlns:svg="http://www.w3.org/2000/svg" xmlns:xlink="http://www.w3.org/1999/xlink" id="svg11300" width="400" height="100" version="1.0" style="display:inline;enable-background:new"><defs id="defs3"><linearGradient id="linearGradient11176"><stop style="stop-color:#ff5757;stop-opacity:1" id="stop11178" offset="0"/><stop style="stop-color:#9e0000;stop-opacity:1" id="stop11180" offset="1"/></linearGradient><linearGradient id="linearGradient11133"><stop style="stop-color:#c2c3c0;stop-opacity:1" id="stop11135" offset="0"/><stop style="stop-color:#595b56;stop-opacity:1" id="stop11137" offset="1"/></linearGradient><linearGradient id="linearGradient10550"><stop style="stop-color:#eeeeec;stop-opacity:1" id="stop10552" offset="0"/><stop id="stop10558" offset=".208" style="stop-color:#c5c5c5;stop-opacity:1"/><stop style="stop-color:#fff;stop-opacity:1" id="stop10554" offset="1"/></linearGradient><linearGradient id="linearGradient10182"><stop style="stop-color:#8ae234;stop-opacity:1" id="stop10184" offset="0"/><stop style="stop-color:#ecfbdd;stop-opacity:1" id="stop10186" offset="1"/></linearGradient><linearGradient id="linearGradient10086"><stop id="stop10088" offset="0" style="stop-color:#000;stop-opacity:.068627454"/><stop id="stop10090" offset="1" style="stop-color:#fff;stop-opacity:.49456522"/></linearGradient><linearGradient id="linearGradient6053" gradientUnits="userSpaceOnUse"><stop id="stop6055" offset="0" style="stop-color:#c0cdf9;stop-opacity:1"/><stop id="stop6057" offset="1" style="stop-color:#000;stop-opacity:1"/></linearGradient><linearGradient id="linearGradient5785" gradientUnits="userSpaceOnUse"><stop id="stop5787" offset="0" style="stop-color:#c0cdf9;stop-opacity:1"/><stop id="stop5789" offset="1" style="stop-color:#07092d;stop-opacity:.28804347"/></linearGradient><linearGradient id="linearGradient9175" x1="82.119" x2="60" y1="20" y2="40" gradientUnits="userSpaceOnUse" xlink:href="#linearGradient5785"/><linearGradient id="linearGradient6063" x1="82.119" x2="60" y1="20" y2="40" gradientUnits="userSpaceOnUse" xlink:href="#linearGradient6053"/><linearGradient id="linearGradient2795"><stop style="stop-color:#000;stop-opacity:.068627454" id="stop2797" offset="0"/><stop style="stop-color:#fff;stop-opacity:1" id="stop2799" offset="1"/></linearGradient><linearGradient id="linearGradient2803"><stop style="stop-color:#fff;stop-opacity:1" id="stop2805" offset="0"/><stop id="stop10010" offset=".495" style="stop-color:#dbdbdb;stop-opacity:1"/><stop style="stop-color:#9f9f9f;stop-opacity:1" id="stop2807" offset="1"/></linearGradient><linearGradient id="linearGradient2094"><stop id="stop2096" offset="0" style="stop-color:#d6e3f0;stop-opacity:1"/><stop id="stop2098" offset="1" style="stop-color:#95b1cf;stop-opacity:1"/></linearGradient><linearGradient id="linearGradient12512"><stop id="stop12513" offset="0" style="stop-color:#fff;stop-opacity:1"/><stop id="stop12517" offset=".5" style="stop-color:#fff520;stop-opacity:.89108908"/><stop id="stop12514" offset="1" style="stop-color:#fff300;stop-opacity:0"/></linearGradient><linearGradient id="linearGradient5048"><stop id="stop5050" offset="0" style="stop-color:black;stop-opacity:0"/><stop style="stop-color:black;stop-opacity:1" id="stop5056" offset=".5"/><stop id="stop5052" offset="1" style="stop-color:black;stop-opacity:0"/></linearGradient><linearGradient id="linearGradient10188" x1="169.844" x2="100" y1="30.156" y2="169.844" gradientUnits="userSpaceOnUse" xlink:href="#linearGradient10182"/><linearGradient id="linearGradient10196" x1="169.844" x2="100" y1="30.156" y2="169.844" gradientUnits="userSpaceOnUse" xlink:href="#linearGradient10182"/><linearGradient id="linearGradient10562" x1="79.726" x2="79.726" y1="82.83" y2="45.348" gradientUnits="userSpaceOnUse" xlink:href="#linearGradient10550"/><filter id="filter11063" width="1.038" height="1.62" x="-.019" y="-.31"><feGaussianBlur id="feGaussianBlur11065" stdDeviation=".323"/></filter><filter id="filter11125" width="1.17" height="3.746" x="-.085" y="-1.373"><feGaussianBlur id="feGaussianBlur11127" stdDeviation="1.43"/></filter><linearGradient id="linearGradient11139" x1="77.351" x2="77.351" y1="54.997" y2="83.205" gradientUnits="userSpaceOnUse" xlink:href="#linearGradient11133"/><linearGradient id="linearGradient11172" x1="79.726" x2="79.726" y1="82.83" y2="45.348" gradientUnits="userSpaceOnUse" xlink:href="#linearGradient10550"/><linearGradient id="linearGradient11174" x1="77.351" x2="77.351" y1="54.997" y2="83.205" gradientUnits="userSpaceOnUse" xlink:href="#linearGradient11133"/><linearGradient id="linearGradient11204" x1="79.726" x2="79.726" y1="82.83" y2="45.348" gradientUnits="userSpaceOnUse" xlink:href="#linearGradient10550"/><linearGradient id="linearGradient11206" x1="77.351" x2="77.351" y1="54.997" y2="83.205" gradientUnits="userSpaceOnUse" xlink:href="#linearGradient11133"/><linearGradient id="linearGradient11208" x1="82.731" x2="82.731" y1="72.665" y2="54.973" gradientUnits="userSpaceOnUse" xlink:href="#linearGradient11176"/><linearGradient id="linearGradient18969" x1="79.726" x2="79.726" y1="82.83" y2="45.348" gradientTransform="matrix(0.3577972,0,0,0.3645153,239.92666,16.69845)" gradientUnits="userSpaceOnUse" xlink:href="#linearGradient10550"/><linearGradient id="linearGradient18971" x1="77.351" x2="77.351" y1="54.997" y2="83.205" gradientTransform="matrix(0.3577972,0,0,0.3645153,239.92666,16.69845)" gradientUnits="userSpaceOnUse" xlink:href="#linearGradient11133"/><linearGradient id="linearGradient19085" x1="79.726" x2="79.726" y1="82.83" y2="45.348" gradientTransform="matrix(0.7058875,0,0,0.6819711,17.982682,14.418554)" gradientUnits="userSpaceOnUse" xlink:href="#linearGradient10550"/><linearGradient id="linearGradient19087" x1="77.351" x2="77.351" y1="54.997" y2="83.205" gradientTransform="matrix(0.7058875,0,0,0.6819711,17.982682,14.418554)" gradientUnits="userSpaceOnUse" xlink:href="#linearGradient11133"/></defs><metadata id="metadata4"/><g style="display:none" id="layer3"><rect style="fill:#eeeeec;fill-opacity:1;fill-rule:nonzero;stroke:none;stroke-width:2;marker:none;visibility:visible;display:inline;overflow:visible;enable-background:accumulate" id="rect6284" width="48" height="48" x="110" y="30"/><rect id="rect6592" width="32" height="32" x="173.938" y="30.004" style="fill:#eeeeec;fill-opacity:1;fill-rule:nonzero;stroke:none;stroke-width:2;marker:none;visibility:visible;display:inline;overflow:visible;enable-background:accumulate"/><rect style="fill:#eeeeec;fill-opacity:1;fill-rule:nonzero;stroke:none;stroke-width:2;marker:none;visibility:visible;display:inline;overflow:visible;enable-background:accumulate" id="rect6749" width="22" height="22" x="220" y="31.105"/><rect id="rect6833" width="16" height="16" x="260.027" y="32" style="fill:#eeeeec;fill-opacity:1;fill-rule:nonzero;stroke:none;stroke-width:2;marker:none;visibility:visible;display:inline;overflow:visible;enable-background:accumulate"/><rect id="rect5028" width="24" height="24" x="218.957" y="30" style="fill:#eeeeec;fill-opacity:1;fill-rule:nonzero;stroke:none;stroke-width:2;marker:none;visibility:visible;display:inline;overflow:visible;enable-background:accumulate"/><text style="font-size:20px;font-style:normal;font-variant:normal;font-weight:400;font-stretch:normal;text-align:start;line-height:125%;writing-mode:lr-tb;text-anchor:start;fill:#000;fill-opacity:1;stroke:none;display:inline;enable-background:new;font-family:Trebuchet MS;-inkscape-font-specification:Trebuchet MS" id="context" x="21" y="-21" xml:space="preserve"><tspan id="tspan16843" x="21" y="-21">apps</tspan></text><text style="font-size:20px;font-style:normal;font-variant:normal;font-weight:400;font-stretch:normal;text-align:start;line-height:125%;writing-mode:lr-tb;text-anchor:start;fill:#000;fill-opacity:1;stroke:none;display:inline;enable-background:new;font-family:Trebuchet MS;-inkscape-font-specification:Trebuchet MS" id="icon-name" x="159" y="-21" xml:space="preserve"><tspan id="tspan16847" x="159" y="-21">artrage</tspan></text></g><g style="display:inline" id="layer1"><g id="g11184" transform="matrix(0.6417955,0,0,0.6417955,139.56927,4.8941107)"><g id="g11186" transform="matrix(1.0308642,0,0,1.0308642,-2.8132716,-2.3425926)" style="opacity:.59388643"><rect id="rect11188" width="40.5" height="2.5" x="58.75" y="82.75" rx="3.621" ry="2.5" style="opacity:1;fill:#000;fill-opacity:1;fill-rule:evenodd;stroke:none;stroke-width:1;stroke-linecap:butt;stroke-linejoin:miter;marker:none;marker-start:none;marker-mid:none;marker-end:none;stroke-miterlimit:4;stroke-dasharray:none;stroke-dashoffset:0;stroke-opacity:1;visibility:visible;display:inline;overflow:visible;filter:url(#filter11063);enable-background:accumulate"/><rect style="opacity:1;fill:#000;fill-opacity:1;fill-rule:evenodd;stroke:none;stroke-width:1;stroke-linecap:butt;stroke-linejoin:miter;marker:none;marker-start:none;marker-mid:none;marker-end:none;stroke-miterlimit:4;stroke-dasharray:none;stroke-dashoffset:0;stroke-opacity:1;visibility:visible;display:inline;overflow:visible;filter:url(#filter11125);enable-background:accumulate" id="rect11190" width="40.5" height="2.5" x="58.75" y="82.75" rx="3.621" ry="2.5"/></g><rect style="opacity:1;fill:url(#linearGradient11204);fill-opacity:1;fill-rule:evenodd;stroke:url(#linearGradient11206);stroke-width:1.55812895;stroke-linecap:butt;stroke-linejoin:miter;marker:none;marker-start:none;marker-mid:none;marker-end:none;stroke-miterlimit:4;stroke-dasharray:none;stroke-dashoffset:0;stroke-opacity:1;visibility:visible;display:inline;overflow:visible;enable-background:accumulate" id="rect11192" width="42" height="41" x="57.5" y="43.5" rx="3.621" ry="3.565"/><path style="opacity:1;fill:none;fill-opacity:1;fill-rule:evenodd;stroke:#fff;stroke-width:1.55812895;stroke-linecap:butt;stroke-linejoin:miter;marker:none;marker-start:none;marker-mid:none;marker-end:none;stroke-miterlimit:4;stroke-dasharray:none;stroke-dashoffset:0;stroke-opacity:1;visibility:visible;display:inline;overflow:visible;enable-background:accumulate" id="path11194" d="M 61.125,45.09375 C 59.956895,45.09375 59.09375,45.955189 59.09375,47.0625 L 59.09375,80.9375 C 59.09375,82.044812 59.956894,82.90625 61.125,82.90625 L 95.875,82.90625 C 97.043105,82.90625 97.90625,82.044811 97.90625,80.9375 L 97.90625,47.0625 C 97.90625,45.955188 97.043106,45.09375 95.875,45.09375 L 61.125,45.09375 z" xlink:href="#rect10548"/><g id="g19041" transform="matrix(0.4573028,0,0,0.4599307,-25.117279,150.47131)" style="stroke:#fff;stroke-opacity:1;display:inline;enable-background:new"><path style="opacity:1;fill:none;fill-opacity:0;fill-rule:nonzero;stroke:#fff;stroke-width:3.39746618;stroke-linecap:butt;stroke-linejoin:miter;marker:none;marker-start:none;marker-mid:none;marker-end:none;stroke-miterlimit:4;stroke-dasharray:none;stroke-dashoffset:0;stroke-opacity:1;visibility:visible;display:inline;overflow:visible;enable-background:accumulate" id="path19043" d="M 215.81749,-169.80599 C 206.50542,-165.41013 212.10028,-150.7118 228.97153,-152.33755 C 220.30646,-154.04892 230.01678,-167.14961 220.56526,-169.23357"/><path style="opacity:1;fill:none;fill-opacity:0;fill-rule:nonzero;stroke:#fff;stroke-width:2.18047833;stroke-linecap:butt;stroke-linejoin:miter;marker:none;marker-start:none;marker-mid:none;marker-end:none;stroke-miterlimit:4;stroke-dasharray:none;stroke-dashoffset:0;stroke-opacity:1;visibility:visible;display:inline;overflow:visible;enable-background:accumulate" id="path19045" d="M 162.74513,62.228211 C 162.74513,62.228211 162.81387,71.309242 162.81387,71.309242" transform="matrix(1.5581287,0,0,1.5581287,-38.769007,-282.42917)"/><path style="opacity:1;fill:none;fill-opacity:0;fill-rule:nonzero;stroke:#fff;stroke-width:2.18047833;stroke-linecap:butt;stroke-linejoin:miter;marker:none;marker-start:none;marker-mid:none;marker-end:none;stroke-miterlimit:4;stroke-dasharray:none;stroke-dashoffset:0;stroke-opacity:1;visibility:visible;display:inline;overflow:visible;enable-background:accumulate" id="path19047" d="M 167.66295,66.119328 C 167.66295,66.119328 167.13967,71.891056 167.13967,71.891056" transform="matrix(1.5581287,0,0,1.5581287,-38.769007,-282.42917)"/><path style="opacity:1;fill:none;fill-opacity:0;fill-rule:nonzero;stroke:#fff;stroke-width:2.18047833;stroke-linecap:butt;stroke-linejoin:miter;marker:none;marker-start:none;marker-mid:none;marker-end:none;stroke-miterlimit:4;stroke-dasharray:none;stroke-dashoffset:0;stroke-opacity:1;visibility:visible;display:inline;overflow:visible;enable-background:accumulate" id="path19049" d="M 166.88821,48.542527 C 167.39593,71.451996 177.40548,79.920495 180.77716,81.646483 C 184.73412,82.07034 185.15814,76.568604 181.62259,77.032005" transform="matrix(1.5581287,0,0,1.5581287,-38.769007,-282.42917)"/><path style="opacity:1;fill:none;fill-opacity:0;fill-rule:nonzero;stroke:#fff;stroke-width:2.18047833;stroke-linecap:butt;stroke-linejoin:miter;marker:none;marker-start:none;marker-mid:none;marker-end:none;stroke-miterlimit:4;stroke-dasharray:none;stroke-dashoffset:0;stroke-opacity:1;visibility:visible;display:inline;overflow:visible;enable-background:accumulate" id="path19051" d="M 162.56847,56.525291 C 162.31326,50.905106 162.00003,42.563057 164.09723,39.560112 C 165.49707,40.651001 166.51973,44.559898 166.91592,49.420329" transform="matrix(1.5581287,0,0,1.5581287,-38.769007,-282.42917)"/><path id="path19053" d="M 229.15002,-201.50843 C 237.45007,-210.99603 220.03507,-213.81496 221.61072,-202.81631" style="opacity:1;fill:none;fill-opacity:0;fill-rule:nonzero;stroke:#fff;stroke-width:3.39746618;stroke-linecap:butt;stroke-linejoin:miter;marker:none;marker-start:none;marker-mid:none;marker-end:none;stroke-miterlimit:4;stroke-dasharray:none;stroke-dashoffset:0;stroke-opacity:1;visibility:visible;display:inline;overflow:visible;enable-background:accumulate"/><path style="opacity:1;fill:none;fill-opacity:0;fill-rule:nonzero;stroke:#fff;stroke-width:2.18047833;stroke-linecap:butt;stroke-linejoin:miter;marker:none;marker-start:none;marker-mid:none;marker-end:none;stroke-miterlimit:4;stroke-dasharray:none;stroke-dashoffset:0;stroke-opacity:1;visibility:visible;display:inline;overflow:visible;enable-background:accumulate" id="path19055" d="M 168.36878,57.260139 C 174.3107,57.342094 174.96328,53.583958 178.60459,53.234002 C 183.1913,52.793185 183.44771,57.63887 179.22089,57.519401" transform="matrix(1.5581287,0,0,1.5581287,-38.769007,-282.42917)"/><path style="opacity:1;fill:none;fill-opacity:0;fill-rule:nonzero;stroke:#fff;stroke-width:3.39746618;stroke-linecap:butt;stroke-linejoin:miter;marker:none;marker-start:none;marker-mid:none;marker-end:none;stroke-miterlimit:4;stroke-dasharray:none;stroke-dashoffset:0;stroke-opacity:1;visibility:visible;display:inline;overflow:visible;enable-background:accumulate" id="path19057" d="M 224.22285,-186.24005 C 232.76078,-186.38491 239.64595,-187.1047 242.07357,-184.01075 C 230.39089,-165.31524 249.73466,-167.41411 244.34111,-174.38547"/><path style="opacity:1;fill:none;fill-opacity:0;fill-rule:nonzero;stroke:#fff;stroke-width:2.18047833;stroke-linecap:butt;stroke-linejoin:miter;marker:none;marker-start:none;marker-mid:none;marker-end:none;stroke-miterlimit:4;stroke-dasharray:none;stroke-dashoffset:0;stroke-opacity:1;visibility:visible;display:inline;overflow:visible;enable-background:accumulate" id="path19059" d="M 168.75,66.5 C 165.71985,63.361348 157.60917,60.73075 160.5,57" transform="matrix(1.5581287,0,0,1.5581287,-38.769007,-282.42917)"/></g><g style="display:inline;enable-background:new" id="g19021" transform="matrix(0.4573028,0,0,0.4599307,-25.117279,148.91318)"><path id="path19023" d="M 215.81749,-169.80599 C 206.50542,-165.41013 212.10028,-150.7118 228.97153,-152.33755 C 220.30646,-154.04892 230.01678,-167.14961 220.56526,-169.23357" style="opacity:1;fill:none;fill-opacity:0;fill-rule:nonzero;stroke:#000;stroke-width:3.39746618;stroke-linecap:butt;stroke-linejoin:miter;marker:none;marker-start:none;marker-mid:none;marker-end:none;stroke-miterlimit:4;stroke-dasharray:none;stroke-dashoffset:0;stroke-opacity:1;visibility:visible;display:inline;overflow:visible;enable-background:accumulate"/><path id="path19025" d="M 162.74513,62.228211 C 162.74513,62.228211 162.81387,71.309242 162.81387,71.309242" transform="matrix(1.5581287,0,0,1.5581287,-38.769007,-282.42917)" style="opacity:1;fill:none;fill-opacity:0;fill-rule:nonzero;stroke:#000;stroke-width:2.18047833;stroke-linecap:butt;stroke-linejoin:miter;marker:none;marker-start:none;marker-mid:none;marker-end:none;stroke-miterlimit:4;stroke-dasharray:none;stroke-dashoffset:0;stroke-opacity:1;visibility:visible;display:inline;overflow:visible;enable-background:accumulate"/><path id="path19027" d="M 167.66295,66.119328 C 167.66295,66.119328 167.13967,71.891056 167.13967,71.891056" transform="matrix(1.5581287,0,0,1.5581287,-38.769007,-282.42917)" style="opacity:1;fill:none;fill-opacity:0;fill-rule:nonzero;stroke:#000;stroke-width:2.18047833;stroke-linecap:butt;stroke-linejoin:miter;marker:none;marker-start:none;marker-mid:none;marker-end:none;stroke-miterlimit:4;stroke-dasharray:none;stroke-dashoffset:0;stroke-opacity:1;visibility:visible;display:inline;overflow:visible;enable-background:accumulate"/><path id="path19029" d="M 166.88821,48.542527 C 167.39593,71.451996 177.40548,79.920495 180.77716,81.646483 C 184.73412,82.07034 185.15814,76.568604 181.62259,77.032005" transform="matrix(1.5581287,0,0,1.5581287,-38.769007,-282.42917)" style="opacity:1;fill:none;fill-opacity:0;fill-rule:nonzero;stroke:#000;stroke-width:2.18047833;stroke-linecap:butt;stroke-linejoin:miter;marker:none;marker-start:none;marker-mid:none;marker-end:none;stroke-miterlimit:4;stroke-dasharray:none;stroke-dashoffset:0;stroke-opacity:1;visibility:visible;display:inline;overflow:visible;enable-background:accumulate"/><path id="path19031" d="M 162.56847,56.525291 C 162.31326,50.905106 162.00003,42.563057 164.09723,39.560112 C 165.49707,40.651001 166.51973,44.559898 166.91592,49.420329" transform="matrix(1.5581287,0,0,1.5581287,-38.769007,-282.42917)" style="opacity:1;fill:none;fill-opacity:0;fill-rule:nonzero;stroke:#000;stroke-width:2.18047833;stroke-linecap:butt;stroke-linejoin:miter;marker:none;marker-start:none;marker-mid:none;marker-end:none;stroke-miterlimit:4;stroke-dasharray:none;stroke-dashoffset:0;stroke-opacity:1;visibility:visible;display:inline;overflow:visible;enable-background:accumulate"/><path style="opacity:1;fill:none;fill-opacity:0;fill-rule:nonzero;stroke:#000;stroke-width:3.39746618;stroke-linecap:butt;stroke-linejoin:miter;marker:none;marker-start:none;marker-mid:none;marker-end:none;stroke-miterlimit:4;stroke-dasharray:none;stroke-dashoffset:0;stroke-opacity:1;visibility:visible;display:inline;overflow:visible;enable-background:accumulate" id="path19033" d="M 229.15002,-201.50843 C 237.45007,-210.99603 220.03507,-213.81496 221.61072,-202.81631"/><path id="path19035" d="M 168.36878,57.260139 C 174.3107,57.342094 174.96328,53.583958 178.60459,53.234002 C 183.1913,52.793185 183.44771,57.63887 179.22089,57.519401" transform="matrix(1.5581287,0,0,1.5581287,-38.769007,-282.42917)" style="opacity:1;fill:none;fill-opacity:0;fill-rule:nonzero;stroke:#000;stroke-width:2.18047833;stroke-linecap:butt;stroke-linejoin:miter;marker:none;marker-start:none;marker-mid:none;marker-end:none;stroke-miterlimit:4;stroke-dasharray:none;stroke-dashoffset:0;stroke-opacity:1;visibility:visible;display:inline;overflow:visible;enable-background:accumulate"/><path id="path19037" d="M 224.22285,-186.24005 C 232.76078,-186.38491 239.64595,-187.1047 242.07357,-184.01075 C 230.39089,-165.31524 249.73466,-167.41411 244.34111,-174.38547" style="opacity:1;fill:none;fill-opacity:0;fill-rule:nonzero;stroke:#000;stroke-width:3.39746618;stroke-linecap:butt;stroke-linejoin:miter;marker:none;marker-start:none;marker-mid:none;marker-end:none;stroke-miterlimit:4;stroke-dasharray:none;stroke-dashoffset:0;stroke-opacity:1;visibility:visible;display:inline;overflow:visible;enable-background:accumulate"/><path id="path19039" d="M 168.75,66.5 C 165.71985,63.361348 157.60917,60.73075 160.5,57" transform="matrix(1.5581287,0,0,1.5581287,-38.769007,-282.42917)" style="opacity:1;fill:none;fill-opacity:0;fill-rule:nonzero;stroke:#000;stroke-width:2.18047833;stroke-linecap:butt;stroke-linejoin:miter;marker:none;marker-start:none;marker-mid:none;marker-end:none;stroke-miterlimit:4;stroke-dasharray:none;stroke-dashoffset:0;stroke-opacity:1;visibility:visible;display:inline;overflow:visible;enable-background:accumulate"/></g></g><g id="g11216" transform="matrix(0.6417955,0,0,0.6417955,183.88177,4.3083398)"><g style="opacity:.59388643" id="g11218" transform="matrix(0.7372922,0,0,1.1936165,15.237001,-28.395967)"><rect style="opacity:1;fill:#000;fill-opacity:1;fill-rule:evenodd;stroke:none;stroke-width:1;stroke-linecap:butt;stroke-linejoin:miter;marker:none;marker-start:none;marker-mid:none;marker-end:none;stroke-miterlimit:4;stroke-dasharray:none;stroke-dashoffset:0;stroke-opacity:1;visibility:visible;display:inline;overflow:visible;filter:url(#filter11063);enable-background:accumulate" id="rect11220" width="40.5" height="2.5" x="58.75" y="82.75" rx="3.621" ry="2.5"/><rect id="rect11222" width="40.5" height="2.5" x="58.75" y="82.75" rx="3.621" ry="2.5" style="opacity:1;fill:#000;fill-opacity:1;fill-rule:evenodd;stroke:none;stroke-width:1;stroke-linecap:butt;stroke-linejoin:miter;marker:none;marker-start:none;marker-mid:none;marker-end:none;stroke-miterlimit:4;stroke-dasharray:none;stroke-dashoffset:0;stroke-opacity:1;visibility:visible;display:inline;overflow:visible;filter:url(#filter11125);enable-background:accumulate"/></g><rect id="rect11224" width="29.647" height="27.961" x="58.571" y="44.084" rx="2.556" ry="2.431" style="opacity:1;fill:url(#linearGradient19085);fill-opacity:1;fill-rule:evenodd;stroke:url(#linearGradient19087);stroke-width:1.55812883;stroke-linecap:butt;stroke-linejoin:miter;marker:none;marker-start:none;marker-mid:none;marker-end:none;stroke-miterlimit:4;stroke-dasharray:none;stroke-dashoffset:0;stroke-opacity:1;visibility:visible;display:inline;overflow:visible;enable-background:accumulate"/><path id="path11226" d="M 61.125,45.75 C 60.300582,45.75 59.75,46.311209 59.75,47.0625 L 59.75,80.9375 C 59.75,81.688792 60.300581,82.25 61.125,82.25 L 95.875,82.25 C 96.699418,82.25 97.25,81.688791 97.25,80.9375 L 97.25,47.0625 C 97.25,46.311208 96.699419,45.75 95.875,45.75 L 61.125,45.75 z" transform="matrix(0.7058875,0,0,0.6798591,17.982682,14.568573)" xlink:href="#rect10548" style="opacity:1;fill:none;fill-opacity:1;fill-rule:evenodd;stroke:#fff;stroke-width:2.24919033;stroke-linecap:butt;stroke-linejoin:miter;marker:none;marker-start:none;marker-mid:none;marker-end:none;stroke-miterlimit:4;stroke-dasharray:none;stroke-dashoffset:0;stroke-opacity:1;visibility:visible;display:inline;overflow:visible;enable-background:accumulate"/><g style="opacity:.84653465;display:inline;enable-background:new" id="g19089" transform="matrix(0.3367864,0,0,0.3021112,-4.4403216,114.14449)"><path id="path19091" d="M 214.5163,-170.12833 C 205.20423,-165.73247 210.79909,-148.61658 227.67034,-150.24233 C 219.00527,-151.9537 230.01678,-167.14961 220.56526,-169.23357" style="opacity:1;fill:none;fill-opacity:0;fill-rule:nonzero;stroke:#000;stroke-width:4.88475370000000009;stroke-linecap:butt;stroke-linejoin:miter;marker:none;marker-start:none;marker-mid:none;marker-end:none;stroke-miterlimit:4;stroke-dasharray:none;stroke-dashoffset:0;stroke-opacity:1;visibility:visible;display:inline;overflow:visible;enable-background:accumulate"/><path id="path19093" d="M 162.74513,62.228211 C 162.74513,62.228211 162.81387,71.309242 162.81387,71.309242" transform="matrix(1.5581287,0,0,1.5581287,-38.769007,-282.42917)" style="opacity:1;fill:none;fill-opacity:0;fill-rule:nonzero;stroke:#000;stroke-width:3.13501262999999986;stroke-linecap:butt;stroke-linejoin:miter;marker:none;marker-start:none;marker-mid:none;marker-end:none;stroke-miterlimit:4;stroke-dasharray:none;stroke-dashoffset:0;stroke-opacity:1;visibility:visible;display:inline;overflow:visible;enable-background:accumulate"/><path id="path19095" d="M 170.35382,62.085217 C 170.35382,62.085217 168.62429,70.75323 168.62429,70.75323" transform="matrix(1.5581287,0,0,1.5581287,-38.769007,-282.42917)" style="opacity:1;fill:none;fill-opacity:0;fill-rule:nonzero;stroke:#000;stroke-width:3.13501262999999986;stroke-linecap:butt;stroke-linejoin:miter;marker:none;marker-start:none;marker-mid:none;marker-end:none;stroke-miterlimit:4;stroke-dasharray:none;stroke-dashoffset:0;stroke-opacity:1;visibility:visible;display:inline;overflow:visible;enable-background:accumulate"/><path id="path19097" d="M 169.02235,48.128772 C 169.53007,71.038241 181.39625,84.563767 185.04544,84.853084 C 192.54767,85.447879 190.26152,78.120185 185.33414,78.376709" transform="matrix(1.5581287,0,0,1.5581287,-38.769007,-282.42917)" style="opacity:1;fill:none;fill-opacity:0;fill-rule:nonzero;stroke:#000;stroke-width:3.13501262999999986;stroke-linecap:butt;stroke-linejoin:miter;marker:none;marker-start:none;marker-mid:none;marker-end:none;stroke-miterlimit:4;stroke-dasharray:none;stroke-dashoffset:0;stroke-opacity:1;visibility:visible;display:inline;overflow:visible;enable-background:accumulate"/><path id="path19099" d="M 162.84684,56.835607 C 162.59163,51.215422 163.57744,42.252741 165.67464,39.249796 C 167.07448,40.340685 168.65388,43.835827 169.05007,48.696258" transform="matrix(1.5581287,0,0,1.5581287,-38.769007,-282.42917)" style="opacity:1;fill:none;fill-opacity:0;fill-rule:nonzero;stroke:#000;stroke-width:3.13501262999999986;stroke-linecap:butt;stroke-linejoin:miter;marker:none;marker-start:none;marker-mid:none;marker-end:none;stroke-miterlimit:4;stroke-dasharray:none;stroke-dashoffset:0;stroke-opacity:1;visibility:visible;display:inline;overflow:visible;enable-background:accumulate"/><path style="opacity:1;fill:none;fill-opacity:0;fill-rule:nonzero;stroke:#000;stroke-width:4.88475370000000009;stroke-linecap:butt;stroke-linejoin:miter;marker:none;marker-start:none;marker-mid:none;marker-end:none;stroke-miterlimit:4;stroke-dasharray:none;stroke-dashoffset:0;stroke-opacity:1;visibility:visible;display:inline;overflow:visible;enable-background:accumulate" id="path19101" d="M 236.81259,-205.47721 C 242.79941,-217.38238 227.11933,-222.4577 228.98414,-209.20266"/><path id="path19103" d="M 169.66782,55.398242 C 176.25927,55.790513 177.36507,52.151894 181.0171,51.992737 C 188.66584,51.655359 187.99436,59.087012 182.37571,58.657227" transform="matrix(1.5581287,0,0,1.5581287,-38.769007,-282.42917)" style="opacity:1;fill:none;fill-opacity:0;fill-rule:nonzero;stroke:#000;stroke-width:3.13501262999999986;stroke-linecap:butt;stroke-linejoin:miter;marker:none;marker-start:none;marker-mid:none;marker-end:none;stroke-miterlimit:4;stroke-dasharray:none;stroke-dashoffset:0;stroke-opacity:1;visibility:visible;display:inline;overflow:visible;enable-background:accumulate"/><path id="path19105" d="M 224.22285,-186.24005 C 232.76078,-186.38491 239.64595,-187.1047 242.07357,-184.01075 C 228.94512,-166.76578 252.91535,-167.25294 246.79892,-177.60889" style="opacity:1;fill:none;fill-opacity:0;fill-rule:nonzero;stroke:#000;stroke-width:4.88475370000000009;stroke-linecap:butt;stroke-linejoin:miter;marker:none;marker-start:none;marker-mid:none;marker-end:none;stroke-miterlimit:4;stroke-dasharray:none;stroke-dashoffset:0;stroke-opacity:1;visibility:visible;display:inline;overflow:visible;enable-background:accumulate"/><path id="path19107" d="M 171.16251,65.879368 C 168.13236,62.740716 157.60917,60.73075 160.5,57" transform="matrix(1.5581287,0,0,1.5581287,-38.769007,-282.42917)" style="opacity:1;fill:none;fill-opacity:0;fill-rule:nonzero;stroke:#000;stroke-width:3.13501262999999986;stroke-linecap:butt;stroke-linejoin:miter;marker:none;marker-start:none;marker-mid:none;marker-end:none;stroke-miterlimit:4;stroke-dasharray:none;stroke-dashoffset:0;stroke-opacity:1;visibility:visible;display:inline;overflow:visible;enable-background:accumulate"/></g></g><rect id="rect11254" width="15.027" height="14.945" x="260.5" y="32.555" rx="1.295" ry="1.3" style="fill:url(#linearGradient18969);fill-opacity:1;fill-rule:evenodd;stroke:url(#linearGradient18971);stroke-width:1.00000012;stroke-linecap:butt;stroke-linejoin:miter;marker:none;marker-start:none;marker-mid:none;marker-end:none;stroke-miterlimit:4;stroke-dasharray:none;stroke-dashoffset:0;stroke-opacity:1;visibility:visible;display:inline;overflow:visible;enable-background:accumulate"/><path id="path11256" d="M 61.125,45.75 C 60.300582,45.75 59.75,46.311209 59.75,47.0625 L 59.75,80.9375 C 59.75,81.688792 60.300581,82.25 61.125,82.25 L 95.875,82.25 C 96.699418,82.25 97.25,81.688791 97.25,80.9375 L 97.25,47.0625 C 97.25,46.311208 96.699419,45.75 95.875,45.75 L 61.125,45.75 z" transform="matrix(0.3459338,0,0,0.3561644,240.85794,17.20548)" xlink:href="#rect10548" style="fill:none;fill-opacity:1;fill-rule:evenodd;stroke:#fff;stroke-width:2.84890723;stroke-linecap:butt;stroke-linejoin:miter;marker:none;marker-start:none;marker-mid:none;marker-end:none;stroke-miterlimit:4;stroke-dasharray:none;stroke-dashoffset:0;stroke-opacity:1;visibility:visible;display:inline;overflow:visible;enable-background:accumulate"/><g id="g18973" transform="translate(55.9375,-9.9963303)"><g id="g11141"><g id="g11129" transform="matrix(1.0308642,0,0,1.0308642,-2.8132716,-2.3425926)" style="opacity:.59388643"><rect id="rect11041" width="40.5" height="2.5" x="58.75" y="82.75" rx="3.621" ry="2.5" style="opacity:1;fill:#000;fill-opacity:1;fill-rule:evenodd;stroke:none;stroke-width:1;stroke-linecap:butt;stroke-linejoin:miter;marker:none;marker-start:none;marker-mid:none;marker-end:none;stroke-miterlimit:4;stroke-dasharray:none;stroke-dashoffset:0;stroke-opacity:1;visibility:visible;display:inline;overflow:visible;filter:url(#filter11063);enable-background:accumulate"/><rect style="opacity:1;fill:#000;fill-opacity:1;fill-rule:evenodd;stroke:none;stroke-width:1;stroke-linecap:butt;stroke-linejoin:miter;marker:none;marker-start:none;marker-mid:none;marker-end:none;stroke-miterlimit:4;stroke-dasharray:none;stroke-dashoffset:0;stroke-opacity:1;visibility:visible;display:inline;overflow:visible;filter:url(#filter11125);enable-background:accumulate" id="rect11067" width="40.5" height="2.5" x="58.75" y="82.75" rx="3.621" ry="2.5"/></g><rect style="opacity:1;fill:url(#linearGradient10562);fill-opacity:1;fill-rule:evenodd;stroke:url(#linearGradient11139);stroke-width:1;stroke-linecap:butt;stroke-linejoin:miter;marker:none;marker-start:none;marker-mid:none;marker-end:none;stroke-miterlimit:4;stroke-dasharray:none;stroke-dashoffset:0;stroke-opacity:1;visibility:visible;display:inline;overflow:visible;enable-background:accumulate" id="rect10548" width="42" height="41" x="57.5" y="43.5" rx="3.621" ry="3.565"/><path style="opacity:1;fill:none;fill-opacity:1;fill-rule:evenodd;stroke:#fff;stroke-width:1;stroke-linecap:butt;stroke-linejoin:miter;marker:none;marker-start:none;marker-mid:none;marker-end:none;stroke-miterlimit:4;stroke-dasharray:none;stroke-dashoffset:0;stroke-opacity:1;visibility:visible;display:inline;overflow:visible;enable-background:accumulate" id="path10560" d="M 61.125,44.40625 C 59.59469,44.40625 58.40625,45.579987 58.40625,47.0625 L 58.40625,80.9375 C 58.40625,82.420014 59.594689,83.59375 61.125,83.59375 L 95.875,83.59375 C 97.40531,83.59375 98.59375,82.420013 98.59375,80.9375 L 98.59375,47.0625 C 98.59375,45.579986 97.405311,44.40625 95.875,44.40625 L 61.125,44.40625 z" xlink:href="#rect10548"/></g><g id="g18887" transform="matrix(0.4394846,0,0,0.4394846,-21.718555,146.43172)" style="stroke:#fff;stroke-opacity:1"><path style="opacity:1;fill:none;fill-opacity:0;fill-rule:nonzero;stroke:#fff;stroke-width:2.27539229;stroke-linecap:butt;stroke-linejoin:miter;marker:none;marker-start:none;marker-mid:none;marker-end:none;stroke-miterlimit:4;stroke-dasharray:none;stroke-dashoffset:0;stroke-opacity:1;visibility:visible;display:inline;overflow:visible;enable-background:accumulate" id="path18889" d="M 218.7988,-168.53558 C 208.42198,-163.71626 218.70175,-150.50007 228.97153,-152.33755 C 222.01007,-154.47239 230.65563,-166.30267 221.20411,-168.38663"/><path style="opacity:1;fill:none;fill-opacity:0;fill-rule:nonzero;stroke:#fff;stroke-width:1.46033657;stroke-linecap:butt;stroke-linejoin:miter;marker:none;marker-start:none;marker-mid:none;marker-end:none;stroke-miterlimit:4;stroke-dasharray:none;stroke-dashoffset:0;stroke-opacity:1;visibility:visible;display:inline;overflow:visible;enable-background:accumulate" id="path18891" d="M 163.01847,62.228211 C 163.01847,62.228211 164.18058,70.222122 164.18058,70.222122" transform="matrix(1.5581287,0,0,1.5581287,-38.769007,-282.42917)"/><path style="opacity:1;fill:none;fill-opacity:0;fill-rule:nonzero;stroke:#fff;stroke-width:1.46033657;stroke-linecap:butt;stroke-linejoin:miter;marker:none;marker-start:none;marker-mid:none;marker-end:none;stroke-miterlimit:4;stroke-dasharray:none;stroke-dashoffset:0;stroke-opacity:1;visibility:visible;display:inline;overflow:visible;enable-background:accumulate" id="path18893" d="M 167.66295,66.119328 C 167.66295,66.119328 167.13967,71.891056 167.13967,71.891056" transform="matrix(1.5581287,0,0,1.5581287,-38.769007,-282.42917)"/><path style="opacity:1;fill:none;fill-opacity:0;fill-rule:nonzero;stroke:#fff;stroke-width:1.46033657;stroke-linecap:butt;stroke-linejoin:miter;marker:none;marker-start:none;marker-mid:none;marker-end:none;stroke-miterlimit:4;stroke-dasharray:none;stroke-dashoffset:0;stroke-opacity:1;visibility:visible;display:inline;overflow:visible;enable-background:accumulate" id="path18895" d="M 166.88821,48.542527 C 167.39593,71.451996 177.95216,77.610364 181.32384,79.336352 C 185.2808,79.760209 185.15814,74.122583 181.48592,76.624335" transform="matrix(1.5581287,0,0,1.5581287,-38.769007,-282.42917)"/><path style="opacity:1;fill:none;fill-opacity:0;fill-rule:nonzero;stroke:#fff;stroke-width:1.46033657;stroke-linecap:butt;stroke-linejoin:miter;marker:none;marker-start:none;marker-mid:none;marker-end:none;stroke-miterlimit:4;stroke-dasharray:none;stroke-dashoffset:0;stroke-opacity:1;visibility:visible;display:inline;overflow:visible;enable-background:accumulate" id="path18897" d="M 162.56847,56.525291 C 162.31326,50.905106 162.00003,42.563057 164.09723,39.560112 C 165.49707,40.651001 166.51973,44.559898 166.91592,49.420329" transform="matrix(1.5581287,0,0,1.5581287,-38.769007,-282.42917)"/><path id="path18899" d="M 228.08527,-200.23802 C 236.38532,-209.72562 220.03507,-213.81496 221.61072,-202.81631" style="opacity:1;fill:none;fill-opacity:0;fill-rule:nonzero;stroke:#fff;stroke-width:2.27539229;stroke-linecap:butt;stroke-linejoin:miter;marker:none;marker-start:none;marker-mid:none;marker-end:none;stroke-miterlimit:4;stroke-dasharray:none;stroke-dashoffset:0;stroke-opacity:1;visibility:visible;display:inline;overflow:visible;enable-background:accumulate"/><path style="opacity:1;fill:none;fill-opacity:0;fill-rule:nonzero;stroke:#fff;stroke-width:1.46033657;stroke-linecap:butt;stroke-linejoin:miter;marker:none;marker-start:none;marker-mid:none;marker-end:none;stroke-miterlimit:4;stroke-dasharray:none;stroke-dashoffset:0;stroke-opacity:1;visibility:visible;display:inline;overflow:visible;enable-background:accumulate" id="path18901" d="M 169.59882,55.901239 C 173.90069,55.983194 175.39345,51.848454 179.0146,51.331541 C 183.05463,50.754834 181.94433,56.27997 179.49423,55.888721" transform="matrix(1.5581287,0,0,1.5581287,-38.769007,-282.42917)"/><path style="opacity:1;fill:none;fill-opacity:0;fill-rule:nonzero;stroke:#fff;stroke-width:2.27539229;stroke-linecap:butt;stroke-linejoin:miter;marker:none;marker-start:none;marker-mid:none;marker-end:none;stroke-miterlimit:4;stroke-dasharray:none;stroke-dashoffset:0;stroke-opacity:1;visibility:visible;display:inline;overflow:visible;enable-background:accumulate" id="path18903" d="M 228.48187,-186.24005 C 237.0198,-186.38491 239.64595,-187.1047 242.07357,-184.01075 C 228.47433,-163.8331 248.45695,-166.35544 243.0634,-173.3268"/><path style="opacity:1;fill:none;fill-opacity:0;fill-rule:nonzero;stroke:#fff;stroke-width:1.46033657;stroke-linecap:butt;stroke-linejoin:miter;marker:none;marker-start:none;marker-mid:none;marker-end:none;stroke-miterlimit:4;stroke-dasharray:none;stroke-dashoffset:0;stroke-opacity:1;visibility:visible;display:inline;overflow:visible;enable-background:accumulate" id="path18905" d="M 168.75,66.5 C 165.71985,63.361348 157.60917,60.73075 160.5,57" transform="matrix(1.5581287,0,0,1.5581287,-38.769007,-282.42917)"/></g><g id="g18874" transform="matrix(0.4394846,0,0,0.4394846,-21.718555,145.43172)"><path id="path18075" d="M 218.7988,-168.53558 C 208.42198,-163.71626 218.70175,-150.50007 228.97153,-152.33755 C 222.01007,-154.47239 230.65563,-166.30267 221.20411,-168.38663" style="opacity:1;fill:none;fill-opacity:0;fill-rule:nonzero;stroke:#000;stroke-width:2.27539229;stroke-linecap:butt;stroke-linejoin:miter;marker:none;marker-start:none;marker-mid:none;marker-end:none;stroke-miterlimit:4;stroke-dasharray:none;stroke-dashoffset:0;stroke-opacity:1;visibility:visible;display:inline;overflow:visible;enable-background:accumulate"/><path id="path18847" d="M 163.01847,62.228211 C 163.01847,62.228211 164.18058,70.222122 164.18058,70.222122" transform="matrix(1.5581287,0,0,1.5581287,-38.769007,-282.42917)" style="opacity:1;fill:none;fill-opacity:0;fill-rule:nonzero;stroke:#000;stroke-width:1.46033657;stroke-linecap:butt;stroke-linejoin:miter;marker:none;marker-start:none;marker-mid:none;marker-end:none;stroke-miterlimit:4;stroke-dasharray:none;stroke-dashoffset:0;stroke-opacity:1;visibility:visible;display:inline;overflow:visible;enable-background:accumulate"/><path id="path18849" d="M 167.66295,66.119328 C 167.66295,66.119328 167.13967,71.891056 167.13967,71.891056" transform="matrix(1.5581287,0,0,1.5581287,-38.769007,-282.42917)" style="opacity:1;fill:none;fill-opacity:0;fill-rule:nonzero;stroke:#000;stroke-width:1.46033657;stroke-linecap:butt;stroke-linejoin:miter;marker:none;marker-start:none;marker-mid:none;marker-end:none;stroke-miterlimit:4;stroke-dasharray:none;stroke-dashoffset:0;stroke-opacity:1;visibility:visible;display:inline;overflow:visible;enable-background:accumulate"/><path id="path18851" d="M 166.88821,48.542527 C 167.39593,71.451996 177.95216,77.610364 181.32384,79.336352 C 185.2808,79.760209 185.15814,74.122583 181.48592,76.624335" transform="matrix(1.5581287,0,0,1.5581287,-38.769007,-282.42917)" style="opacity:1;fill:none;fill-opacity:0;fill-rule:nonzero;stroke:#000;stroke-width:1.46033657;stroke-linecap:butt;stroke-linejoin:miter;marker:none;marker-start:none;marker-mid:none;marker-end:none;stroke-miterlimit:4;stroke-dasharray:none;stroke-dashoffset:0;stroke-opacity:1;visibility:visible;display:inline;overflow:visible;enable-background:accumulate"/><path id="path18853" d="M 162.56847,56.525291 C 162.31326,50.905106 162.00003,42.563057 164.09723,39.560112 C 165.49707,40.651001 166.51973,44.559898 166.91592,49.420329" transform="matrix(1.5581287,0,0,1.5581287,-38.769007,-282.42917)" style="opacity:1;fill:none;fill-opacity:0;fill-rule:nonzero;stroke:#000;stroke-width:1.46033657;stroke-linecap:butt;stroke-linejoin:miter;marker:none;marker-start:none;marker-mid:none;marker-end:none;stroke-miterlimit:4;stroke-dasharray:none;stroke-dashoffset:0;stroke-opacity:1;visibility:visible;display:inline;overflow:visible;enable-background:accumulate"/><path style="opacity:1;fill:none;fill-opacity:0;fill-rule:nonzero;stroke:#000;stroke-width:2.27539229;stroke-linecap:butt;stroke-linejoin:miter;marker:none;marker-start:none;marker-mid:none;marker-end:none;stroke-miterlimit:4;stroke-dasharray:none;stroke-dashoffset:0;stroke-opacity:1;visibility:visible;display:inline;overflow:visible;enable-background:accumulate" id="path18855" d="M 228.08527,-200.23802 C 236.38532,-209.72562 220.03507,-213.81496 221.61072,-202.81631"/><path id="path18857" d="M 169.59882,55.901239 C 173.90069,55.983194 175.39345,51.848454 179.0146,51.331541 C 183.05463,50.754834 181.94433,56.27997 179.49423,55.888721" transform="matrix(1.5581287,0,0,1.5581287,-38.769007,-282.42917)" style="opacity:1;fill:none;fill-opacity:0;fill-rule:nonzero;stroke:#000;stroke-width:1.46033657;stroke-linecap:butt;stroke-linejoin:miter;marker:none;marker-start:none;marker-mid:none;marker-end:none;stroke-miterlimit:4;stroke-dasharray:none;stroke-dashoffset:0;stroke-opacity:1;visibility:visible;display:inline;overflow:visible;enable-background:accumulate"/><path id="path18859" d="M 228.48187,-186.24005 C 237.0198,-186.38491 239.64595,-187.1047 242.07357,-184.01075 C 228.47433,-163.8331 248.45695,-166.35544 243.0634,-173.3268" style="opacity:1;fill:none;fill-opacity:0;fill-rule:nonzero;stroke:#000;stroke-width:2.27539229;stroke-linecap:butt;stroke-linejoin:miter;marker:none;marker-start:none;marker-mid:none;marker-end:none;stroke-miterlimit:4;stroke-dasharray:none;stroke-dashoffset:0;stroke-opacity:1;visibility:visible;display:inline;overflow:visible;enable-background:accumulate"/><path id="path18867" d="M 168.75,66.5 C 165.71985,63.361348 157.60917,60.73075 160.5,57" transform="matrix(1.5581287,0,0,1.5581287,-38.769007,-282.42917)" style="opacity:1;fill:none;fill-opacity:0;fill-rule:nonzero;stroke:#000;stroke-width:1.46033657;stroke-linecap:butt;stroke-linejoin:miter;marker:none;marker-start:none;marker-mid:none;marker-end:none;stroke-miterlimit:4;stroke-dasharray:none;stroke-dashoffset:0;stroke-opacity:1;visibility:visible;display:inline;overflow:visible;enable-background:accumulate"/></g></g><g style="opacity:.72277228;display:inline;enable-background:new" id="g19109" transform="matrix(0.174477,0,0,0.156513,227.98962,69.098798)"><path id="path19111" d="M 214.5163,-170.12833 C 205.20423,-165.73247 210.79909,-148.61658 227.67034,-150.24233 C 219.00527,-151.9537 230.01678,-167.14961 220.56526,-169.23357" style="opacity:1;fill:none;fill-opacity:0;fill-rule:nonzero;stroke:#000;stroke-width:6.05139732;stroke-linecap:butt;stroke-linejoin:miter;marker:none;marker-start:none;marker-mid:none;marker-end:none;stroke-miterlimit:4;stroke-dasharray:none;stroke-dashoffset:0;stroke-opacity:1;visibility:visible;display:inline;overflow:visible;enable-background:accumulate"/><path id="path19113" d="M 162.74513,62.228211 C 162.74513,62.228211 162.81387,71.309242 162.81387,71.309242" transform="matrix(1.5581287,0,0,1.5581287,-38.769007,-282.42917)" style="opacity:1;fill:none;fill-opacity:0;fill-rule:nonzero;stroke:#000;stroke-width:3.88375902;stroke-linecap:butt;stroke-linejoin:miter;marker:none;marker-start:none;marker-mid:none;marker-end:none;stroke-miterlimit:4;stroke-dasharray:none;stroke-dashoffset:0;stroke-opacity:1;visibility:visible;display:inline;overflow:visible;enable-background:accumulate"/><path id="path19115" d="M 170.35382,62.085217 C 170.35382,62.085217 168.62429,70.75323 168.62429,70.75323" transform="matrix(1.5581287,0,0,1.5581287,-38.769007,-282.42917)" style="opacity:1;fill:none;fill-opacity:0;fill-rule:nonzero;stroke:#000;stroke-width:3.88375902;stroke-linecap:butt;stroke-linejoin:miter;marker:none;marker-start:none;marker-mid:none;marker-end:none;stroke-miterlimit:4;stroke-dasharray:none;stroke-dashoffset:0;stroke-opacity:1;visibility:visible;display:inline;overflow:visible;enable-background:accumulate"/><path id="path19117" d="M 169.02235,48.128772 C 169.53007,71.038241 181.39625,84.563767 185.04544,84.853084 C 192.54767,85.447879 190.26152,78.120185 185.33414,78.376709" transform="matrix(1.5581287,0,0,1.5581287,-38.769007,-282.42917)" style="opacity:1;fill:none;fill-opacity:0;fill-rule:nonzero;stroke:#000;stroke-width:3.88375902;stroke-linecap:butt;stroke-linejoin:miter;marker:none;marker-start:none;marker-mid:none;marker-end:none;stroke-miterlimit:4;stroke-dasharray:none;stroke-dashoffset:0;stroke-opacity:1;visibility:visible;display:inline;overflow:visible;enable-background:accumulate"/><path id="path19119" d="M 162.84684,56.835607 C 162.59163,51.215422 163.57744,42.252741 165.67464,39.249796 C 167.07448,40.340685 168.65388,43.835827 169.05007,48.696258" transform="matrix(1.5581287,0,0,1.5581287,-38.769007,-282.42917)" style="opacity:1;fill:none;fill-opacity:0;fill-rule:nonzero;stroke:#000;stroke-width:3.88375902;stroke-linecap:butt;stroke-linejoin:miter;marker:none;marker-start:none;marker-mid:none;marker-end:none;stroke-miterlimit:4;stroke-dasharray:none;stroke-dashoffset:0;stroke-opacity:1;visibility:visible;display:inline;overflow:visible;enable-background:accumulate"/><path style="opacity:1;fill:none;fill-opacity:0;fill-rule:nonzero;stroke:#000;stroke-width:6.05139732;stroke-linecap:butt;stroke-linejoin:miter;marker:none;marker-start:none;marker-mid:none;marker-end:none;stroke-miterlimit:4;stroke-dasharray:none;stroke-dashoffset:0;stroke-opacity:1;visibility:visible;display:inline;overflow:visible;enable-background:accumulate" id="path19121" d="M 236.81259,-205.47721 C 242.79941,-217.38238 227.11933,-222.4577 228.98414,-209.20266"/><path id="path19123" d="M 169.66782,55.398242 C 176.25927,55.790513 177.36507,52.151894 181.0171,51.992737 C 188.66584,51.655359 187.99436,59.087012 182.37571,58.657227" transform="matrix(1.5581287,0,0,1.5581287,-38.769007,-282.42917)" style="opacity:1;fill:none;fill-opacity:0;fill-rule:nonzero;stroke:#000;stroke-width:3.88375902;stroke-linecap:butt;stroke-linejoin:miter;marker:none;marker-start:none;marker-mid:none;marker-end:none;stroke-miterlimit:4;stroke-dasharray:none;stroke-dashoffset:0;stroke-opacity:1;visibility:visible;display:inline;overflow:visible;enable-background:accumulate"/><path id="path19125" d="M 224.22285,-186.24005 C 232.76078,-186.38491 239.64595,-187.1047 242.07357,-184.01075 C 228.94512,-166.76578 252.91535,-167.25294 246.79892,-177.60889" style="opacity:1;fill:none;fill-opacity:0;fill-rule:nonzero;stroke:#000;stroke-width:6.05139732;stroke-linecap:butt;stroke-linejoin:miter;marker:none;marker-start:none;marker-mid:none;marker-end:none;stroke-miterlimit:4;stroke-dasharray:none;stroke-dashoffset:0;stroke-opacity:1;visibility:visible;display:inline;overflow:visible;enable-background:accumulate"/><path id="path19127" d="M 171.16251,65.879368 C 168.13236,62.740716 157.60917,60.73075 160.5,57" transform="matrix(1.5581287,0,0,1.5581287,-38.769007,-282.42917)" style="opacity:1;fill:none;fill-opacity:0;fill-rule:nonzero;stroke:#000;stroke-width:3.88375902;stroke-linecap:butt;stroke-linejoin:miter;marker:none;marker-start:none;marker-mid:none;marker-end:none;stroke-miterlimit:4;stroke-dasharray:none;stroke-dashoffset:0;stroke-opacity:1;visibility:visible;display:inline;overflow:visible;enable-background:accumulate"/></g></g></svg>