<svg xmlns="http://www.w3.org/2000/svg" xmlns:svg="http://www.w3.org/2000/svg" xmlns:xlink="http://www.w3.org/1999/xlink" id="svg11300" width="400" height="300" version="1.0" style="enable-background:new"><defs id="defs3"><linearGradient id="linearGradient6636"><stop style="stop-color:#0c1d35;stop-opacity:1" id="stop6638" offset="0"/><stop style="stop-color:#739fdf;stop-opacity:1" id="stop6640" offset="1"/></linearGradient><linearGradient id="linearGradient6518"><stop style="stop-color:#555753;stop-opacity:1" id="stop6520" offset="0"/><stop style="stop-color:#babdb6;stop-opacity:1" id="stop6522" offset="1"/></linearGradient><linearGradient id="linearGradient6476"><stop style="stop-color:#fff;stop-opacity:1" id="stop6478" offset="0"/><stop style="stop-color:#fff;stop-opacity:0" id="stop6480" offset="1"/></linearGradient><linearGradient id="linearGradient6466"><stop style="stop-color:#fff;stop-opacity:1" id="stop6468" offset="0"/><stop style="stop-color:#fff;stop-opacity:0" id="stop6470" offset="1"/></linearGradient><linearGradient id="linearGradient6400"><stop style="stop-color:#fff;stop-opacity:1" id="stop6402" offset="0"/><stop id="stop6408" offset=".424" style="stop-color:#fff;stop-opacity:.60784314"/><stop style="stop-color:#fff;stop-opacity:0" id="stop6404" offset="1"/></linearGradient><linearGradient id="linearGradient6386"><stop style="stop-color:#fff;stop-opacity:1" id="stop6388" offset="0"/><stop style="stop-color:#fff;stop-opacity:0" id="stop6390" offset="1"/></linearGradient><linearGradient id="linearGradient6352"><stop style="stop-color:#fff;stop-opacity:1" id="stop6354" offset="0"/><stop style="stop-color:#fff;stop-opacity:0" id="stop6356" offset="1"/></linearGradient><linearGradient id="linearGradient6342"><stop style="stop-color:#fff;stop-opacity:1" id="stop6344" offset="0"/><stop style="stop-color:#fff;stop-opacity:0" id="stop6346" offset="1"/></linearGradient><linearGradient id="linearGradient6332"><stop style="stop-color:#000;stop-opacity:1" id="stop6334" offset="0"/><stop style="stop-color:#a7a7a7;stop-opacity:1" id="stop6336" offset="1"/></linearGradient><linearGradient id="linearGradient6240"><stop style="stop-color:#8fe8fc;stop-opacity:1" id="stop6242" offset="0"/><stop style="stop-color:#05b7df;stop-opacity:1" id="stop6244" offset="1"/></linearGradient><linearGradient id="linearGradient6112"><stop style="stop-color:#ddd;stop-opacity:1" id="stop6114" offset="0"/><stop id="stop6384" offset=".787" style="stop-color:#ebebeb;stop-opacity:1"/><stop style="stop-color:#c5c5be;stop-opacity:1" id="stop6116" offset="1"/></linearGradient><linearGradient id="linearGradient10126"><stop style="stop-color:#fff;stop-opacity:1" id="stop10128" offset="0"/><stop style="stop-color:#dbdbdb;stop-opacity:1" id="stop10130" offset="1"/></linearGradient><linearGradient id="linearGradient10114"><stop style="stop-color:#fff;stop-opacity:1" id="stop10116" offset="0"/><stop style="stop-color:#d2d2d2;stop-opacity:1" id="stop10118" offset="1"/></linearGradient><linearGradient id="linearGradient9937"><stop style="stop-color:#286fca;stop-opacity:1" id="stop9939" offset="0"/><stop id="stop9941" offset=".9" style="stop-color:#0f4489;stop-opacity:1"/><stop style="stop-color:#4673aa;stop-opacity:1" id="stop9943" offset="1"/></linearGradient><linearGradient id="linearGradient9929"><stop id="stop9931" offset="0" style="stop-color:#fff;stop-opacity:1"/><stop style="stop-color:#fff;stop-opacity:0" id="stop9933" offset=".716"/><stop id="stop9935" offset="1" style="stop-color:#fff;stop-opacity:1"/></linearGradient><linearGradient id="linearGradient9841"><stop style="stop-color:#fff;stop-opacity:1" id="stop9843" offset="0"/><stop style="stop-color:#fff;stop-opacity:0" id="stop9845" offset="1"/></linearGradient><linearGradient id="linearGradient9735"><stop style="stop-color:#fff;stop-opacity:1" id="stop9737" offset="0"/><stop style="stop-color:#fff;stop-opacity:0" id="stop9739" offset="1"/></linearGradient><linearGradient id="linearGradient9685"><stop style="stop-color:#fff;stop-opacity:1" id="stop9687" offset="0"/><stop style="stop-color:#fff;stop-opacity:0" id="stop9689" offset="1"/></linearGradient><linearGradient id="linearGradient9652"><stop style="stop-color:#fff;stop-opacity:1" id="stop9654" offset="0"/><stop id="stop9927" offset=".5" style="stop-color:#fff;stop-opacity:.49803922"/><stop style="stop-color:#fff;stop-opacity:0" id="stop9656" offset="1"/></linearGradient><linearGradient id="linearGradient6013" x1="170.343" x2="88.373" y1="238" y2="1.312" gradientUnits="userSpaceOnUse" xlink:href="#linearGradient10053"/><linearGradient id="linearGradient10053"><stop id="stop10055" offset="0" style="stop-color:#f6f6f5;stop-opacity:1"/><stop style="stop-color:#e7e7e7;stop-opacity:1" id="stop5355" offset=".194"/><stop id="stop10057" offset="1" style="stop-color:#eeeeec;stop-opacity:1"/></linearGradient><linearGradient id="linearGradient8000" x1="87.615" x2="86.881" y1="48.854" y2="87.291" gradientUnits="userSpaceOnUse" xlink:href="#linearGradient7994"/><linearGradient id="linearGradient7994"><stop id="stop7996" offset="0" style="stop-color:#fff;stop-opacity:1"/><stop id="stop7998" offset="1" style="stop-color:#e2e2e2;stop-opacity:1"/></linearGradient><linearGradient id="linearGradient7995" x1="87.615" x2="86.881" y1="48.854" y2="87.291" gradientUnits="userSpaceOnUse" xlink:href="#linearGradient7994"/><linearGradient id="linearGradient9074" x1="-5.469" x2="-5.469" y1="10" y2="8.499" gradientUnits="userSpaceOnUse" xlink:href="#linearGradient7113"/><radialGradient id="radialGradient8866" cx="84.465" cy="21.439" r="21.467" fx="84.465" fy="21.439" gradientTransform="matrix(1.4952909,3.3756719e-7,-7.8683009e-8,0.348535,-40.256004,13.967011)" gradientUnits="userSpaceOnUse" xlink:href="#linearGradient8699"/><linearGradient id="linearGradient7113"><stop style="stop-color:#fce94f;stop-opacity:1" id="stop7115" offset="0"/><stop style="stop-color:#fce94f;stop-opacity:0" id="stop9244" offset="1"/></linearGradient><linearGradient id="linearGradient7919" x1="30.313" x2="30.313" y1="27.313" y2="24.688" gradientUnits="userSpaceOnUse" xlink:href="#linearGradient7422"/><radialGradient id="radialGradient7089" cx="105.195" cy="-.366" r="29.403" fx="105.195" fy="-.366" gradientTransform="matrix(3.5399381,0,0,3.5071625,-267.18906,1.188699)" gradientUnits="userSpaceOnUse" xlink:href="#linearGradient6248"/><linearGradient id="linearGradient6874" x1="44" x2="44" y1="180.5" y2="242.518" gradientTransform="matrix(0.2513792,0,0,0.2513792,-123.36165,103.51744)" gradientUnits="userSpaceOnUse" xlink:href="#linearGradient6858"/><linearGradient id="linearGradient7422"><stop style="stop-color:#edd400;stop-opacity:1" id="stop7424" offset="0"/><stop style="stop-color:#edd400;stop-opacity:0" id="stop7426" offset="1"/></linearGradient><linearGradient id="linearGradient8868" gradientUnits="userSpaceOnUse"><stop style="stop-color:#c0cdf9;stop-opacity:1" id="stop8870" offset="0"/><stop style="stop-color:#07092d;stop-opacity:.28804347" id="stop8872" offset="1"/></linearGradient><linearGradient id="linearGradient6248"><stop id="stop6250" offset="0" style="stop-color:#fff;stop-opacity:1"/><stop id="stop6252" offset="1" style="stop-color:#fff;stop-opacity:0"/></linearGradient><linearGradient id="linearGradient6858"><stop id="stop6860" offset="0" style="stop-color:#000;stop-opacity:1"/><stop style="stop-color:#fff;stop-opacity:1" id="stop6868" offset=".218"/><stop style="stop-color:#fff;stop-opacity:1" id="stop6866" offset=".766"/><stop id="stop6862" offset="1" style="stop-color:#000;stop-opacity:1"/></linearGradient><linearGradient id="linearGradient8699"><stop id="stop8701" offset="0" style="stop-color:#e0e0e0;stop-opacity:1"/><stop id="stop8703" offset="1" style="stop-color:#000;stop-opacity:1"/></linearGradient><clipPath id="clipPath9622" clipPathUnits="userSpaceOnUse"><rect style="opacity:1;fill:none;fill-opacity:1;fill-rule:nonzero;stroke:#000;stroke-width:2;stroke-linecap:butt;stroke-linejoin:miter;marker:none;marker-start:none;marker-mid:none;marker-end:none;stroke-miterlimit:4;stroke-dasharray:none;stroke-dashoffset:0;stroke-opacity:1;visibility:visible;display:inline;overflow:visible;enable-background:accumulate" id="rect9624" width="201" height="201" x="48" y="46" rx="11.664" ry="11.664"/></clipPath><linearGradient id="linearGradient9658" x1="137.114" x2="137.114" y1="107.112" y2="200.925" gradientUnits="userSpaceOnUse" xlink:href="#linearGradient9652"/><linearGradient id="linearGradient9673" x1="159" x2="159" y1="51" y2="247" gradientUnits="userSpaceOnUse" xlink:href="#linearGradient9937"/><radialGradient id="radialGradient9691" cx="148.5" cy="146.5" r="100.5" fx="148.5" fy="146.5" gradientTransform="matrix(3.079602,-3.3731343,0.7385091,0.6742435,-417.01248,548.63377)" gradientUnits="userSpaceOnUse" xlink:href="#linearGradient9685"/><filter id="filter9707" width="1.056" height="1.855" x="-.028" y="-.427"><feGaussianBlur id="feGaussianBlur9709" stdDeviation="2.316"/></filter><filter id="filter9725" width="1.137" height="3.09" x="-.068" y="-1.045"><feGaussianBlur id="feGaussianBlur9727" stdDeviation="5.66"/></filter><radialGradient id="radialGradient9741" cx="172" cy="50.5" r="89" fx="172" fy="50.5" gradientTransform="matrix(1.3082805,-0.3673342,0.07555997,0.269111,-56.84004,99.791376)" gradientUnits="userSpaceOnUse" xlink:href="#linearGradient9735"/><radialGradient id="radialGradient9831" cx="148.5" cy="146.5" r="100.5" fx="148.5" fy="146.5" gradientTransform="matrix(2.9988193,-3.2846518,0.7191368,0.6565571,-402.13457,538.04154)" gradientUnits="userSpaceOnUse" xlink:href="#linearGradient9685"/><linearGradient id="linearGradient9833" x1="137.114" x2="137.114" y1="107.112" y2="200.925" gradientUnits="userSpaceOnUse" xlink:href="#linearGradient9652"/><radialGradient id="radialGradient9835" cx="172" cy="50.5" r="89" fx="172" fy="50.5" gradientTransform="matrix(1.1011236,-0.1573034,1.0805227e-2,7.563659e-2,-17.938922,73.436532)" gradientUnits="userSpaceOnUse" xlink:href="#linearGradient9735"/><radialGradient id="radialGradient9893" cx="148.5" cy="146.5" r="100.5" fx="148.5" fy="146.5" gradientTransform="matrix(3.1288426,-3.3007322,0.7503172,0.6597713,-421.76777,541.62748)" gradientUnits="userSpaceOnUse" xlink:href="#linearGradient9685"/><linearGradient id="linearGradient9895" x1="157.73" x2="157.73" y1="66.342" y2="253.597" gradientTransform="matrix(0.9535652,0,0,0.9806015,11.164058,5.6986789)" gradientUnits="userSpaceOnUse" xlink:href="#linearGradient9841"/><radialGradient id="radialGradient9897" cx="171.377" cy="29.048" r="100.488" fx="171.377" fy="29.048" gradientTransform="matrix(0.6908126,0,-5.6642228e-8,0.3212427,52.717443,49.204501)" gradientUnits="userSpaceOnUse" xlink:href="#linearGradient9841"/><linearGradient id="linearGradient9923" x1="140.153" x2="148.5" y1="58.001" y2="247" gradientUnits="userSpaceOnUse" xlink:href="#linearGradient9929"/><linearGradient id="linearGradient10003" x1="157.73" x2="157.73" y1="66.342" y2="253.597" gradientTransform="matrix(0.9444214,0,0,0.9713561,11.651438,12.469555)" gradientUnits="userSpaceOnUse" xlink:href="#linearGradient9841"/><radialGradient id="radialGradient10005" cx="171.377" cy="29.048" r="100.488" fx="171.377" fy="29.048" gradientTransform="matrix(0.6884512,0,-5.6448608e-8,0.3182139,52.749141,55.565196)" gradientUnits="userSpaceOnUse" xlink:href="#linearGradient9841"/><linearGradient id="linearGradient10043" x1="157.73" x2="157.73" y1="66.342" y2="253.597" gradientTransform="matrix(0.9146495,0,0,0.9406728,16.072289,17.069498)" gradientUnits="userSpaceOnUse" xlink:href="#linearGradient9841"/><radialGradient id="radialGradient10045" cx="171.377" cy="29.048" r="100.488" fx="171.377" fy="29.048" gradientTransform="matrix(0.6775988,0,-5.555878e-8,0.3081622,52.894818,58.803823)" gradientUnits="userSpaceOnUse" xlink:href="#linearGradient9841"/><filter id="filter10106"><feGaussianBlur id="feGaussianBlur10108" stdDeviation="1.546"/></filter><linearGradient id="linearGradient10120" x1="148.5" x2="159.5" y1="146.5" y2="169.5" gradientUnits="userSpaceOnUse" xlink:href="#linearGradient10114"/><linearGradient id="linearGradient10132" x1="153.313" x2="169.127" y1="141.343" y2="166.096" gradientUnits="userSpaceOnUse" xlink:href="#linearGradient10126"/><linearGradient id="linearGradient5365" x1="148.5" x2="159.5" y1="146.5" y2="169.5" gradientUnits="userSpaceOnUse" xlink:href="#linearGradient10114"/><linearGradient id="linearGradient6152" x1="148.5" x2="159.5" y1="146.5" y2="169.5" gradientTransform="matrix(0.9419973,0,0,0.9419973,11.565557,15.350795)" gradientUnits="userSpaceOnUse" xlink:href="#linearGradient10114"/><linearGradient id="linearGradient6156" x1="148.5" x2="159.5" y1="146.5" y2="169.5" gradientTransform="matrix(0.9706716,0,0,0.9706716,6.4105035,16.614503)" gradientUnits="userSpaceOnUse" xlink:href="#linearGradient10114"/><linearGradient id="linearGradient6160" x1="148.5" x2="159.5" y1="146.5" y2="169.5" gradientTransform="matrix(6.4673577e-2,0,0,6.4673577e-2,301.39597,207.52532)" gradientUnits="userSpaceOnUse" xlink:href="#linearGradient10114"/><linearGradient id="linearGradient6128" x1="134.5" x2="133.5" y1="260.016" y2="46" gradientUnits="userSpaceOnUse" xlink:href="#linearGradient6112"/><clipPath id="clipPath6172" clipPathUnits="userSpaceOnUse"><path style="fill:none;fill-opacity:1;fill-rule:nonzero;stroke:#000;stroke-width:2;stroke-linecap:butt;stroke-linejoin:miter;marker:none;marker-start:none;marker-mid:none;marker-end:none;stroke-miterlimit:4;stroke-dashoffset:0;stroke-opacity:1;visibility:visible;display:inline;overflow:visible;enable-background:accumulate" id="path6174" d="M 59.65625,46 C 53.194281,46 48,51.194281 48,57.65625 L 48,235.34375 C 48,241.80572 53.194281,247 59.65625,247 L 83,247 L 83,267 L 146.5,247 L 237.34375,247 C 243.80572,247 249,241.80572 249,235.34375 L 249,57.65625 C 249,51.194281 243.80572,46 237.34375,46 L 59.65625,46 z" xlink:href="#rect9606"/></clipPath><filter id="filter6212"><feGaussianBlur id="feGaussianBlur6214" stdDeviation="1.024"/></filter><linearGradient id="linearGradient6250" x1="147.886" x2="147.886" y1="200.707" y2="100.707" gradientUnits="userSpaceOnUse" xlink:href="#linearGradient6240"/><clipPath id="clipPath6292" clipPathUnits="userSpaceOnUse"><path style="fill:none;fill-opacity:1;fill-rule:evenodd;stroke:#204a87;stroke-width:2;stroke-linecap:butt;stroke-linejoin:miter;stroke-miterlimit:4;stroke-dasharray:none;stroke-opacity:1" id="path6294" d="M 116.25,81.25 C 108.2909,81.364645 100.3125,86.064051 100.3125,94.96875 L 100.5625,162 C 100.5625,185.58293 121.23424,208.15624 146.96875,208.15625 L 183.5,208.15625 C 199.07383,208.15625 198.87375,176.96875 183.5,176.96875 L 148.6875,176.96875 C 140.019,176.96875 132.65626,170.26298 132.65625,161 L 132.65625,145.0625 L 182,145.0625 C 199.66043,145.0625 200.16237,113.625 182,113.625 L 132.15625,113.625 L 132.15625,94.96875 C 132.15625,85.605474 124.2091,81.135355 116.25,81.25 z" xlink:href="#path6248"/></clipPath><linearGradient id="linearGradient6338" x1="148.5" x2="148.5" y1="254" y2="71" gradientUnits="userSpaceOnUse" xlink:href="#linearGradient6332"/><radialGradient id="radialGradient6348" cx="149.338" cy="78.241" r="90.5" fx="149.338" fy="78.241" gradientTransform="matrix(2.1934815,0,0,1.7087341,-170.07111,-84.693734)" gradientUnits="userSpaceOnUse" xlink:href="#linearGradient6342"/><radialGradient id="radialGradient6358" cx="154.149" cy="194.337" r="78.842" fx="154.149" fy="194.337" gradientTransform="matrix(1,0,0,0.1614349,-2.25,208.37675)" gradientUnits="userSpaceOnUse" xlink:href="#linearGradient6352"/><radialGradient id="radialGradient6392" cx="126.5" cy="65.41" r="91" fx="126.5" fy="65.41" gradientTransform="matrix(0.7912088,-0.5714286,0.1962358,0.2717111,13.576336,169.51313)" gradientUnits="userSpaceOnUse" xlink:href="#linearGradient6386"/><linearGradient id="linearGradient6406" x1="100" x2="100" y1="259" y2="218.929" gradientUnits="userSpaceOnUse" xlink:href="#linearGradient6400"/><linearGradient id="linearGradient6456" x1="148.5" x2="148.5" y1="254" y2="71" gradientUnits="userSpaceOnUse" xlink:href="#linearGradient6332"/><linearGradient id="linearGradient6464" x1="134.5" x2="133.5" y1="260.016" y2="46" gradientTransform="translate(-3.0001624,-0.8766066)" gradientUnits="userSpaceOnUse" xlink:href="#linearGradient6112"/><radialGradient id="radialGradient6472" cx="146.953" cy="135.234" r="98.306" fx="146.953" fy="135.234" gradientTransform="matrix(18.446112,2.1123766e-6,-2.2887697e-7,1.9503356,-2563.7607,-169.0767)" gradientUnits="userSpaceOnUse" xlink:href="#linearGradient6466"/><radialGradient id="radialGradient6482" cx="239.084" cy="147.621" r="7" fx="239.084" fy="147.621" gradientTransform="matrix(6.2708869,-0.08794513,0.4417326,10.284932,-1317.2307,-1367.2478)" gradientUnits="userSpaceOnUse" xlink:href="#linearGradient6476"/><filter id="filter6500" width="1.726" height="1.057" x="-.363" y="-.028"><feGaussianBlur id="feGaussianBlur6502" stdDeviation="2.119"/></filter><radialGradient id="radialGradient6506" cx="237.681" cy="147.444" r="7" fx="237.681" fy="147.444" gradientTransform="matrix(10.268962,-0.3353175,1.0000109,9.9999925,-2346.1786,-1266.7449)" gradientUnits="userSpaceOnUse" xlink:href="#linearGradient6476"/><linearGradient id="linearGradient6510" x1="147.886" x2="147.886" y1="200.707" y2="100.707" gradientTransform="matrix(0.9193424,0,0,0.9193424,17.34879,-1.9168825)" gradientUnits="userSpaceOnUse" xlink:href="#linearGradient6240"/><radialGradient id="radialGradient6514" cx="149.338" cy="78.241" r="90.5" fx="149.338" fy="78.241" gradientTransform="matrix(-2.0179371,0,0,1.5722133,439.58425,-70.910149)" gradientUnits="userSpaceOnUse" xlink:href="#linearGradient6342"/><radialGradient id="radialGradient6516" cx="126.5" cy="65.41" r="91" fx="126.5" fy="65.41" gradientTransform="matrix(-0.7278884,-0.5257739,-0.1805311,0.2500025,270.63412,162.98665)" gradientUnits="userSpaceOnUse" xlink:href="#linearGradient6386"/><linearGradient id="linearGradient6524" x1="164.535" x2="164.535" y1="251.835" y2="140.991" gradientUnits="userSpaceOnUse" xlink:href="#linearGradient6518"/><linearGradient id="linearGradient6546" x1="134.5" x2="133.5" y1="260.016" y2="46" gradientTransform="translate(-3.0001624,-0.8766066)" gradientUnits="userSpaceOnUse" xlink:href="#linearGradient6112"/><linearGradient id="linearGradient6548" x1="164.535" x2="164.535" y1="251.835" y2="140.991" gradientUnits="userSpaceOnUse" xlink:href="#linearGradient6518"/><radialGradient id="radialGradient6550" cx="146.953" cy="135.234" r="98.306" fx="146.953" fy="135.234" gradientTransform="matrix(18.446112,2.1123766e-6,-2.2887697e-7,1.9503356,-2563.7607,-169.0767)" gradientUnits="userSpaceOnUse" xlink:href="#linearGradient6466"/><radialGradient id="radialGradient6554" cx="149.338" cy="78.241" r="90.5" fx="149.338" fy="78.241" gradientTransform="matrix(-2.0179371,0,0,1.5722133,439.83574,-70.910149)" gradientUnits="userSpaceOnUse" xlink:href="#linearGradient6342"/><radialGradient id="radialGradient6556" cx="126.5" cy="65.41" r="91" fx="126.5" fy="65.41" gradientTransform="matrix(-1.2531337,-0.8170463,-0.1683626,0.258354,336.5332,199.28634)" gradientUnits="userSpaceOnUse" xlink:href="#linearGradient6386"/><linearGradient id="linearGradient6560" x1="147.886" x2="147.886" y1="200.707" y2="100.707" gradientTransform="matrix(0.9193424,0,0,0.9193424,17.34879,-1.9168825)" gradientUnits="userSpaceOnUse" xlink:href="#linearGradient6240"/><radialGradient id="radialGradient6586" cx="146.953" cy="135.234" r="98.306" fx="146.953" fy="135.234" gradientTransform="matrix(18.446112,2.1123766e-6,-2.2887697e-7,1.9503356,-2563.7607,-169.0767)" gradientUnits="userSpaceOnUse" xlink:href="#linearGradient6466"/><radialGradient id="radialGradient6590" cx="149.338" cy="78.241" r="90.5" fx="149.338" fy="78.241" gradientTransform="matrix(-2.0179371,0,0,1.5722133,444.85018,-70.910149)" gradientUnits="userSpaceOnUse" xlink:href="#linearGradient6342"/><radialGradient id="radialGradient6592" cx="126.5" cy="65.41" r="91" fx="126.5" fy="65.41" gradientTransform="matrix(-1.2531337,-0.8170463,-0.1683626,0.258354,341.54764,199.28634)" gradientUnits="userSpaceOnUse" xlink:href="#linearGradient6386"/><linearGradient id="linearGradient6596" x1="134.5" x2="133.5" y1="260.016" y2="46" gradientTransform="translate(-3.0001624,-0.8766066)" gradientUnits="userSpaceOnUse" xlink:href="#linearGradient6112"/><linearGradient id="linearGradient6598" x1="164.535" x2="164.535" y1="251.835" y2="140.991" gradientUnits="userSpaceOnUse" xlink:href="#linearGradient6518"/><linearGradient id="linearGradient6602" x1="147.886" x2="147.886" y1="200.707" y2="100.707" gradientTransform="matrix(0.9823367,0,0,0.9823367,2.9864358,-15.829607)" gradientUnits="userSpaceOnUse" xlink:href="#linearGradient6240"/><radialGradient id="radialGradient6628" cx="146.953" cy="135.234" r="98.306" fx="146.953" fy="135.234" gradientTransform="matrix(18.446112,2.1123766e-6,-2.2887697e-7,1.9503356,-2563.7607,-169.0767)" gradientUnits="userSpaceOnUse" xlink:href="#linearGradient6466"/><linearGradient id="linearGradient6630" x1="147.886" x2="147.886" y1="200.707" y2="100.707" gradientTransform="matrix(0.9823367,0,0,0.9823367,11.034916,-9.3148477)" gradientUnits="userSpaceOnUse" xlink:href="#linearGradient6240"/><radialGradient id="radialGradient6632" cx="149.338" cy="78.241" r="90.5" fx="149.338" fy="78.241" gradientTransform="matrix(2.0179371,0,0,1.5722133,-142.22869,-70.910149)" gradientUnits="userSpaceOnUse" xlink:href="#linearGradient6342"/><radialGradient id="radialGradient6634" cx="126.5" cy="65.41" r="91" fx="126.5" fy="65.41" gradientTransform="matrix(1.2531337,-0.8170463,0.1683626,0.258354,-38.926152,199.28634)" gradientUnits="userSpaceOnUse" xlink:href="#linearGradient6386"/><linearGradient id="linearGradient6642" x1="154.313" x2="154.873" y1="100.202" y2="208.156" gradientUnits="userSpaceOnUse" xlink:href="#linearGradient6636"/><linearGradient id="linearGradient6646" x1="134.5" x2="133.5" y1="260.016" y2="46" gradientTransform="matrix(1.0748105,0,0,0.9866268,-6.5910646,2.7658321)" gradientUnits="userSpaceOnUse" xlink:href="#linearGradient6112"/><linearGradient id="linearGradient6648" x1="164.535" x2="164.535" y1="251.835" y2="140.991" gradientTransform="matrix(1.0748105,0,0,0.9866268,-3.3664586,3.6307157)" gradientUnits="userSpaceOnUse" xlink:href="#linearGradient6518"/><radialGradient id="radialGradient8212" cx="149.338" cy="78.241" r="90.5" fx="149.338" fy="78.241" gradientTransform="matrix(-2.1934815,0,0,1.7087341,467.07111,-84.693734)" gradientUnits="userSpaceOnUse" xlink:href="#linearGradient6342"/><radialGradient id="radialGradient8214" cx="126.5" cy="65.41" r="91" fx="126.5" fy="65.41" gradientTransform="matrix(-0.7912088,-0.5714286,-0.1962358,0.2717111,283.42366,169.51313)" gradientUnits="userSpaceOnUse" xlink:href="#linearGradient6386"/><radialGradient id="radialGradient8216" cx="146.953" cy="135.234" r="98.306" fx="146.953" fy="135.234" gradientTransform="matrix(18.446112,2.1123766e-6,-2.2887697e-7,1.9503356,-2563.7607,-169.0767)" gradientUnits="userSpaceOnUse" xlink:href="#linearGradient6466"/></defs><metadata id="metadata4"/><g style="display:none" id="layer3"><rect id="rect6282" width="256" height="256" x="20" y="20" style="fill:#d3d7cf;fill-opacity:1;fill-rule:nonzero;stroke:none;stroke-width:2;marker:none;visibility:visible;display:inline;overflow:visible;enable-background:accumulate"/><rect style="fill:#d3d7cf;fill-opacity:1;fill-rule:nonzero;stroke:none;stroke-width:2;marker:none;visibility:visible;display:inline;overflow:visible;enable-background:accumulate" id="rect6284" width="48" height="48" x="296.063" y="39.996"/><rect id="rect6592" width="32" height="32" x="303" y="115.996" style="fill:#d3d7cf;fill-opacity:1;fill-rule:nonzero;stroke:none;stroke-width:2;marker:none;visibility:visible;display:inline;overflow:visible;enable-background:accumulate"/><rect style="fill:#d3d7cf;fill-opacity:1;fill-rule:nonzero;stroke:none;stroke-width:2;marker:none;visibility:visible;display:inline;overflow:visible;enable-background:accumulate" id="rect6749" width="22" height="22" x="303" y="167.059"/><rect id="rect6833" width="16" height="16" x="303" y="209" style="fill:#d3d7cf;fill-opacity:1;fill-rule:nonzero;stroke:none;stroke-width:2;marker:none;visibility:visible;display:inline;overflow:visible;enable-background:accumulate"/><rect id="rect5028" width="24" height="24" x="302" y="166" style="fill:#d3d7cf;fill-opacity:1;fill-rule:nonzero;stroke:none;stroke-width:2;marker:none;visibility:visible;display:inline;overflow:visible;enable-background:accumulate"/><text style="font-size:20px;font-style:normal;font-variant:normal;font-weight:400;font-stretch:normal;text-align:start;line-height:125%;writing-mode:lr-tb;text-anchor:start;fill:#000;fill-opacity:1;stroke:none;display:inline;enable-background:new;font-family:Trebuchet MS;-inkscape-font-specification:Trebuchet MS" id="context" x="21" y="-19" xml:space="preserve"><tspan id="tspan16843" x="21" y="-19">apps</tspan></text><text style="font-size:20px;font-style:normal;font-variant:normal;font-weight:400;font-stretch:normal;text-align:start;line-height:125%;writing-mode:lr-tb;text-anchor:start;fill:#000;fill-opacity:1;stroke:none;display:inline;enable-background:new;font-family:Trebuchet MS;-inkscape-font-specification:Trebuchet MS" id="icon-name" x="159" y="-19" xml:space="preserve"><tspan id="tspan16847" x="159" y="-19">im-ocs</tspan></text></g><g style="display:inline" id="layer1"><g id="g9763" transform="matrix(-1,0,0,1,297.00001,0)"><g id="g9729" transform="translate(0,2.5)" style="opacity:.5"><path style="opacity:.56930692;fill:#000;fill-opacity:1;fill-rule:nonzero;stroke:none;stroke-width:16;marker:none;marker-start:none;marker-mid:none;marker-end:none;visibility:visible;display:inline;overflow:visible;filter:url(#filter9725);enable-background:accumulate" id="rect9711" d="m 59.696666,238 177.606664,0 c 5.92596,0 10.69667,2.899 10.69667,6.5 0,3.601 -4.77071,6.5 -10.69667,6.5 -31.28237,0 -63.14092,0 -94.52794,0 0,0 -56.434398,17 -56.434398,17 0,0 -3.868645,-17 -3.868645,-17 l -22.775681,0 C 53.770713,251 49,248.101 49,244.5 49,240.899 53.770713,238 59.696666,238 z" transform="matrix(1.0904523,0,0,1,-13.432161,0)"/><path style="opacity:.64851487;fill:#000;fill-opacity:1;fill-rule:nonzero;stroke:none;stroke-width:16;marker:none;marker-start:none;marker-mid:none;marker-end:none;visibility:visible;display:inline;overflow:visible;filter:url(#filter9707);enable-background:accumulate" id="rect9693" d="m 60.664204,237 175.671596,0 c 6.46197,0 11.6642,2.899 11.6642,6.5 0,3.601 -5.20223,6.5 -11.6642,6.5 L 141,250 83,262.5 79,250 60.664204,250 C 54.202235,250 49,247.101 49,243.5 49,239.899 54.202235,237 60.664204,237 z"/></g><g id="g7945" transform="translate(92.39544,114.60571)"><rect id="rect7947" width="48" height="48" x="108.315" y="-22.108" style="fill:#eeeeec;fill-opacity:1;fill-rule:nonzero;stroke:none;stroke-width:2;marker:none;marker-start:none;marker-mid:none;marker-end:none;visibility:visible;display:none;overflow:visible;enable-background:accumulate"/><rect style="fill:#eeeeec;fill-opacity:1;fill-rule:nonzero;stroke:none;stroke-width:2;marker:none;marker-start:none;marker-mid:none;marker-end:none;visibility:visible;display:none;overflow:visible;enable-background:accumulate" id="rect7949" width="32" height="32" x="115.252" y="53.892"/><rect id="rect7951" width="22" height="22" x="115.252" y="104.955" style="fill:#eeeeec;fill-opacity:1;fill-rule:nonzero;stroke:none;stroke-width:2;marker:none;marker-start:none;marker-mid:none;marker-end:none;visibility:visible;display:none;overflow:visible;enable-background:accumulate"/><rect style="fill:#eeeeec;fill-opacity:1;fill-rule:nonzero;stroke:none;stroke-width:2;marker:none;marker-start:none;marker-mid:none;marker-end:none;visibility:visible;display:none;overflow:visible;enable-background:accumulate" id="rect7953" width="16" height="16" x="115.252" y="146.896"/><rect style="fill:#eeeeec;fill-opacity:1;fill-rule:nonzero;stroke:none;stroke-width:2;marker:none;marker-start:none;marker-mid:none;marker-end:none;visibility:visible;display:none;overflow:visible;enable-background:accumulate" id="rect7955" width="24" height="24" x="140.209" y="103.85"/></g><g id="g9662"><path style="fill:url(#linearGradient6128);fill-opacity:1;fill-rule:nonzero;stroke:none;stroke-width:2;marker:none;marker-start:none;marker-mid:none;marker-end:none;visibility:visible;display:inline;overflow:visible;enable-background:accumulate" id="rect9606" d="M 59.664204,46 237.3358,46 C 243.79777,46 249,51.202235 249,57.664204 L 249,235.3358 C 249,241.79777 243.79777,247 237.3358,247 L 146.5,247 83,267 83,247 59.664204,247 C 53.202235,247 48,241.79777 48,235.3358 L 48,57.664204 C 48,51.202235 53.202235,46 59.664204,46 z"/><path style="opacity:.56930692;fill:none;stroke:url(#linearGradient6338);stroke-width:3;stroke-linecap:butt;stroke-linejoin:miter;stroke-miterlimit:4;stroke-opacity:1;stroke-dasharray:none;stroke-dashoffset:0;marker:none;marker-start:none;marker-mid:none;marker-end:none;visibility:visible;display:inline;overflow:visible;filter:url(#filter6212);enable-background:accumulate" id="path6130" d="M 59.65625,46 C 53.194281,46 48,51.194281 48,57.65625 l 0,177.6875 C 48,241.80572 53.194281,247 59.65625,247 L 83,247 l 0,20 63.5,-20 90.84375,0 C 243.80572,247 249,241.80572 249,235.34375 l 0,-177.6875 C 249,51.194281 243.80572,46 237.34375,46 l -177.6875,0 z" clip-path="url(#clipPath6172)" xlink:href="#path6126"/></g><path style="opacity:1;color:#000;fill:none;stroke:#435e87;stroke-width:10;stroke-linecap:butt;stroke-linejoin:miter;stroke-miterlimit:4;stroke-opacity:1;stroke-dasharray:none;stroke-dashoffset:0;marker:none;marker-start:none;marker-mid:none;marker-end:none;visibility:visible;display:inline;overflow:visible;enable-background:accumulate" id="path8218" d="M 195,135 91,135 127,99"/><path id="path8990" d="m 98.00001,156 104,0 -36,36" style="opacity:1;color:#000;fill:none;stroke:#729fcf;stroke-width:10;stroke-linecap:butt;stroke-linejoin:miter;stroke-miterlimit:4;stroke-opacity:1;stroke-dasharray:none;stroke-dashoffset:0;marker:none;marker-start:none;marker-mid:none;marker-end:none;visibility:visible;display:inline;overflow:visible;enable-background:accumulate"/><path style="opacity:.64851487;fill:url(#radialGradient8212);fill-opacity:1;fill-rule:nonzero;stroke:url(#radialGradient8214);stroke-width:1;stroke-linecap:butt;stroke-linejoin:miter;stroke-miterlimit:4;stroke-opacity:1;stroke-dasharray:none;stroke-dashoffset:0;marker:none;marker-start:none;marker-mid:none;marker-end:none;visibility:visible;display:inline;overflow:visible;enable-background:accumulate" id="path6340" d="m 245,231 0,-173 c 0,-5.535397 -3.87348,-9 -9,-9 L 64,49 c 82.5723,26.244177 150.14932,110.08117 181,182 z"/><rect id="rect9733" width="177.75" height="3" x="61" y="49" rx="1.875" ry="1.875" style="opacity:1;fill:url(#radialGradient9741);fill-opacity:1;fill-rule:nonzero;stroke:none;stroke-width:16;marker:none;marker-start:none;marker-mid:none;marker-end:none;visibility:visible;display:inline;overflow:visible;enable-background:accumulate"/><path style="opacity:1;fill:url(#radialGradient6358);fill-opacity:1;fill-rule:nonzero;stroke:none;stroke-width:2;marker:none;marker-start:none;marker-mid:none;marker-end:none;visibility:visible;display:inline;overflow:visible;enable-background:accumulate" id="path6350" d="m 84.724134,261.31623 60.811186,-19.09188 90.50967,0 c 5.65685,0.17678 5.11396,-1.11396 5.11396,-1.11396 l -96.15396,-0.32322 -60.280856,20.52906 z"/><path style="opacity:.63861389;fill:url(#linearGradient6406);fill-opacity:1;fill-rule:nonzero;stroke:none;stroke-width:1;marker:none;marker-start:none;marker-mid:none;marker-end:none;visibility:visible;display:inline;overflow:visible;enable-background:accumulate" id="path6398" d="m 60.5,242.25 26.25,0 0.5,17.75 58.5,-19.25 89,0.375 c 4.01462,0 7.73009,-2.33033 7.74988,-6.17099 0,0 0.25012,-21.95401 0.25012,-21.95401 l -189.5,0 c 0,0 -0.222883,21.49528 -0.222883,21.49528 0,4.03113 3.25484,7.5985 7.472883,7.75472 z"/><rect style="opacity:1;fill:url(#radialGradient6482);fill-opacity:1;fill-rule:nonzero;stroke:none;stroke-width:1;marker:none;marker-start:none;marker-mid:none;marker-end:none;visibility:visible;display:inline;overflow:visible;filter:url(#filter6500);enable-background:accumulate" id="rect6474" width="14" height="180" x="228" y="58" rx="12.25" ry="7" transform="matrix(0.5714286,0,0,1,106.71429,0)"/><rect id="rect6504" width="14" height="180" x="228" y="58" rx="32.667" ry="7" transform="matrix(0.2142857,0,0,1,2.1428614,0)" style="opacity:1;fill:url(#radialGradient6506);fill-opacity:1;fill-rule:nonzero;stroke:none;stroke-width:1;marker:none;marker-start:none;marker-mid:none;marker-end:none;visibility:visible;display:inline;overflow:visible;filter:url(#filter6500);enable-background:accumulate"/></g><g id="g9783" transform="matrix(-0.1865435,0,0,0.1865435,347.99974,35.835035)"><g id="g6440" transform="matrix(0.9193424,0,0,0.9193424,14.604246,7.3219631)" style="opacity:.5;display:inline;enable-background:new"><path style="opacity:.56930692;fill:#000;fill-opacity:1;fill-rule:nonzero;stroke:none;stroke-width:16;marker:none;marker-start:none;marker-mid:none;marker-end:none;visibility:visible;display:inline;overflow:visible;filter:url(#filter9725);enable-background:accumulate" id="path6442" d="m 59.696666,238 177.606664,0 c 5.92596,0 10.69667,2.899 10.69667,6.5 0,3.601 -4.77071,6.5 -10.69667,6.5 -31.28237,0 -63.14092,0 -94.52794,0 0,0 -56.434398,17 -56.434398,17 0,0 -3.868645,-17 -3.868645,-17 l -22.775681,0 C 53.770713,251 49,248.101 49,244.5 49,240.899 53.770713,238 59.696666,238 z" transform="matrix(1.0904523,0,0,1,-13.432161,0)"/><path style="opacity:.64851487;fill:#000;fill-opacity:1;fill-rule:nonzero;stroke:none;stroke-width:16;marker:none;marker-start:none;marker-mid:none;marker-end:none;visibility:visible;display:inline;overflow:visible;filter:url(#filter9707);enable-background:accumulate" id="path6444" d="m 60.664204,237 175.671596,0 c 6.46197,0 11.6642,2.899 11.6642,6.5 0,3.601 -5.20223,6.5 -11.6642,6.5 L 141,250 83,262.5 79,250 60.664204,250 C 54.202235,250 49,247.101 49,243.5 49,239.899 54.202235,237 60.664204,237 z"/></g><g style="display:inline;enable-background:new" id="g6446" transform="matrix(0.9193424,0,0,0.9193424,14.604246,5.0236031)"><path style="fill:url(#linearGradient6464);fill-opacity:1;fill-rule:nonzero;stroke:url(#linearGradient6524);stroke-width:5.83099413;stroke-linecap:butt;stroke-linejoin:miter;stroke-miterlimit:4;stroke-opacity:1;stroke-dasharray:none;stroke-dashoffset:0;marker:none;marker-start:none;marker-mid:none;marker-end:none;visibility:visible;display:inline;overflow:visible;enable-background:accumulate" id="path6448" d="m 56.664042,45.123393 180.587098,0 c 6.46197,0 11.6642,5.202235 11.6642,11.664204 l 0,174.756093 c 0,6.46197 -5.20223,11.6642 -11.6642,11.6642 l -93.7513,0 -63.500002,20 0,-20 -23.335796,0 c -6.461969,0 -11.664204,-5.20223 -11.664204,-11.6642 l 0,-174.756093 c 0,-6.461969 5.202235,-11.664204 11.664204,-11.664204 z"/><path style="fill:none;stroke:url(#radialGradient6472);stroke-width:5.83099413;stroke-linecap:butt;stroke-linejoin:miter;stroke-miterlimit:4;stroke-opacity:1;stroke-dasharray:none;stroke-dashoffset:0;marker:none;marker-start:none;marker-mid:none;marker-end:none;visibility:visible;display:inline;overflow:visible;enable-background:accumulate" id="path6462" d="m 56.65625,51.6875 c -2.946652,0 -5.09375,2.147098 -5.09375,5.09375 l 0,174.75 c 0,2.94665 2.168246,5.125 5.09375,5.125 l 23.34375,0 a 6.5605243,6.5605243 0 0 1 6.5625,6.5625 l 0,11.0625 54.96875,-17.3125 a 6.5605243,6.5605243 0 0 1 1.96875,-0.3125 l 93.75,0 c 2.92551,0 5.09375,-2.17835 5.09375,-5.125 l 0,-174.75 c 0,-2.946653 -2.1471,-5.09375 -5.09375,-5.09375 l -180.59375,0 z" xlink:href="#path6448"/></g><path style="opacity:1;color:#000;fill:none;stroke:#435e87;stroke-width:10.72136021;stroke-linecap:butt;stroke-linejoin:miter;stroke-miterlimit:4;stroke-opacity:1;stroke-dasharray:none;stroke-dashoffset:0;marker:none;marker-start:none;marker-mid:none;marker-end:none;visibility:visible;display:inline;overflow:visible;enable-background:accumulate" id="path8218-3" d="m 192.56963,124.17996 -92.865181,0 35.999991,-35.999988"/><path id="path8990-5" d="m 107.15183,145.80728 93.33901,0 -36,36" style="opacity:1;color:#000;fill:none;stroke:#729fcf;stroke-width:10.72136021000000028;stroke-linecap:butt;stroke-linejoin:miter;stroke-miterlimit:4;stroke-opacity:1;stroke-dasharray:none;stroke-dashoffset:0;marker:none;marker-start:none;marker-mid:none;marker-end:none;visibility:visible;display:inline;overflow:visible;enable-background:accumulate"/><path style="opacity:.64851487;fill:url(#radialGradient6514);fill-opacity:1;fill-rule:nonzero;stroke:url(#radialGradient6516);stroke-width:5.36067915;stroke-linecap:butt;stroke-linejoin:miter;stroke-miterlimit:4;stroke-opacity:1;stroke-dasharray:none;stroke-dashoffset:0;marker:none;marker-start:none;marker-mid:none;marker-end:none;visibility:visible;display:inline;overflow:visible;enable-background:accumulate" id="path6512" d="m 235.2855,219.56097 0,-159.178026 c 0,-5.093142 -3.56348,-8.280938 -8.27973,-8.280938 l -158.234859,0 C 144.73496,76.249384 206.9038,153.38815 235.2855,219.56097 z"/></g><g id="g6526" transform="matrix(-0.1438365,0,0,0.1438365,341.00506,110.79605)"><g style="opacity:.5;display:inline;enable-background:new" id="g6528" transform="matrix(0.9193424,0,0,0.9193424,14.604246,7.3219631)"><path id="path6530" d="m 59.696666,238 177.606664,0 c 5.92596,0 10.69667,2.899 10.69667,6.5 0,3.601 -4.77071,6.5 -10.69667,6.5 -31.28237,0 -63.14092,0 -94.52794,0 0,0 -56.434398,17 -56.434398,17 0,0 -3.868645,-17 -3.868645,-17 l -22.775681,0 C 53.770713,251 49,248.101 49,244.5 49,240.899 53.770713,238 59.696666,238 z" transform="matrix(1.0904523,0,0,1,-13.432161,0)" style="opacity:.56930692;fill:#000;fill-opacity:1;fill-rule:nonzero;stroke:none;stroke-width:16;marker:none;marker-start:none;marker-mid:none;marker-end:none;visibility:visible;display:inline;overflow:visible;filter:url(#filter9725);enable-background:accumulate"/><path id="path6532" d="m 60.664204,237 175.671596,0 c 6.46197,0 11.6642,2.899 11.6642,6.5 0,3.601 -5.20223,6.5 -11.6642,6.5 L 141,250 83,262.5 79,250 60.664204,250 C 54.202235,250 49,247.101 49,243.5 49,239.899 54.202235,237 60.664204,237 z" style="opacity:.64851487;fill:#000;fill-opacity:1;fill-rule:nonzero;stroke:none;stroke-width:16;marker:none;marker-start:none;marker-mid:none;marker-end:none;visibility:visible;display:inline;overflow:visible;filter:url(#filter9707);enable-background:accumulate"/></g><g id="g6534" transform="matrix(0.9193424,0,0,0.9193424,17.676776,5.0236031)" style="display:inline;enable-background:new"><path id="path6536" d="m 56.664042,45.123393 180.587098,0 c 6.46197,0 11.6642,5.202235 11.6642,11.664204 l 0,174.756093 c 0,6.46197 -5.20223,11.6642 -11.6642,11.6642 l -93.7513,0 -63.500002,20 0,-20 -23.335796,0 c -6.461969,0 -11.664204,-5.20223 -11.664204,-11.6642 l 0,-174.756093 c 0,-6.461969 5.202235,-11.664204 11.664204,-11.664204 z" style="fill:url(#linearGradient6546);fill-opacity:1;fill-rule:nonzero;stroke:url(#linearGradient6548);stroke-width:7.56229734;stroke-linecap:butt;stroke-linejoin:miter;stroke-miterlimit:4;stroke-opacity:1;stroke-dasharray:none;stroke-dashoffset:0;marker:none;marker-start:none;marker-mid:none;marker-end:none;visibility:visible;display:inline;overflow:visible;enable-background:accumulate"/><path id="path6538" d="m 56.65625,52.03125 c -2.764201,0 -4.75,1.985799 -4.75,4.75 l 0,174.75 c 0,2.7642 2.008045,4.78125 4.75,4.78125 l 23.34375,0 a 6.9010277,6.9010277 0 0 1 6.90625,6.90625 l 0,10.59375 54.53125,-17.1875 a 6.9010277,6.9010277 0 0 1 2.0625,-0.3125 l 93.75,0 c 2.74196,0 4.75,-2.01705 4.75,-4.78125 l 0,-174.75 c 0,-2.764202 -1.9858,-4.75 -4.75,-4.75 l -180.59375,0 z" xlink:href="#path6448" style="fill:none;stroke:url(#radialGradient8216);stroke-width:7.56229734;stroke-linecap:butt;stroke-linejoin:miter;stroke-miterlimit:4;stroke-opacity:1;stroke-dasharray:none;stroke-dashoffset:0;marker:none;marker-start:none;marker-mid:none;marker-end:none;visibility:visible;display:inline;overflow:visible;enable-background:accumulate"/></g><path style="opacity:1;color:#000;fill:none;stroke:#435e87;stroke-width:13.90467644;stroke-linecap:butt;stroke-linejoin:miter;stroke-miterlimit:4;stroke-opacity:1;stroke-dasharray:none;stroke-dashoffset:0;marker:none;marker-start:none;marker-mid:none;marker-end:none;visibility:visible;display:inline;overflow:visible;enable-background:accumulate" id="path8218-3-8" d="m 200.13868,126.56002 -102.770766,0 35.574526,-35.792486"/><path id="path8990-5-8" d="m 105.83452,154.36937 102.77081,0 -35.57452,35.79251" style="opacity:1;color:#000;fill:none;stroke:#729fcf;stroke-width:13.90467643999999936;stroke-linecap:butt;stroke-linejoin:miter;stroke-miterlimit:4;stroke-opacity:1;stroke-dasharray:none;stroke-dashoffset:0;marker:none;marker-start:none;marker-mid:none;marker-end:none;visibility:visible;display:inline;overflow:visible;enable-background:accumulate"/><path id="path6544" d="m 235.53699,219.56097 0,-159.178026 c 0,-5.093142 -3.56348,-8.280938 -8.27973,-8.280938 l -158.234861,0 C 144.98645,76.249384 207.15529,153.38815 235.53699,219.56097 z" style="opacity:.64851487;fill:url(#radialGradient6554);fill-opacity:1;fill-rule:nonzero;stroke:url(#radialGradient6556);stroke-width:6.95233917;stroke-linecap:butt;stroke-linejoin:miter;stroke-miterlimit:4;stroke-opacity:1;stroke-dasharray:none;stroke-dashoffset:0;marker:none;marker-start:none;marker-mid:none;marker-end:none;visibility:visible;display:inline;overflow:visible;enable-background:accumulate"/></g><g id="g6562" transform="matrix(-0.1044558,0,0,0.1044558,329.34411,162.58737)"><g id="g6564" transform="matrix(0.9193424,0,0,0.9193424,14.604246,7.3219631)" style="opacity:.5;display:inline;enable-background:new"><path style="opacity:.56930692;fill:#000;fill-opacity:1;fill-rule:nonzero;stroke:none;stroke-width:16;marker:none;marker-start:none;marker-mid:none;marker-end:none;visibility:visible;display:inline;overflow:visible;filter:url(#filter9725);enable-background:accumulate" id="path6566" d="m 59.696666,238 177.606664,0 c 5.92596,0 10.69667,2.899 10.69667,6.5 0,3.601 -4.77071,6.5 -10.69667,6.5 -31.28237,0 -63.14092,0 -94.52794,0 0,0 -56.434398,17 -56.434398,17 0,0 -3.868645,-17 -3.868645,-17 l -22.775681,0 C 53.770713,251 49,248.101 49,244.5 49,240.899 53.770713,238 59.696666,238 z" transform="matrix(1.0904523,0,0,1,-13.432161,0)"/><path style="opacity:.64851487;fill:#000;fill-opacity:1;fill-rule:nonzero;stroke:none;stroke-width:16;marker:none;marker-start:none;marker-mid:none;marker-end:none;visibility:visible;display:inline;overflow:visible;filter:url(#filter9707);enable-background:accumulate" id="path6568" d="m 60.664204,237 175.671596,0 c 6.46197,0 11.6642,2.899 11.6642,6.5 0,3.601 -5.20223,6.5 -11.6642,6.5 L 141,250 83,262.5 79,250 60.664204,250 C 54.202235,250 49,247.101 49,243.5 49,239.899 54.202235,237 60.664204,237 z"/></g><g style="display:inline;enable-background:new" id="g6570" transform="matrix(0.9193424,0,0,0.9193424,14.604246,5.0236031)"><path style="fill:url(#linearGradient6596);fill-opacity:1;fill-rule:nonzero;stroke:url(#linearGradient6598);stroke-width:10.41335392;stroke-linecap:butt;stroke-linejoin:miter;stroke-miterlimit:4;stroke-opacity:1;stroke-dasharray:none;stroke-dashoffset:0;marker:none;marker-start:none;marker-mid:none;marker-end:none;visibility:visible;display:inline;overflow:visible;enable-background:accumulate" id="path6572" d="m 56.664042,45.123393 184.268768,0 c 6.46197,0 11.6642,5.202235 11.6642,11.664204 l 0,174.756093 c 0,6.46197 -5.20223,11.6642 -11.6642,11.6642 l -81.78586,0 -83.749203,28.28376 0,-28.28376 -18.733705,0 c -6.461969,0 -11.664204,-5.20223 -11.664204,-11.6642 l 0,-174.756093 c 0,-6.461969 5.202235,-11.664204 11.664204,-11.664204 z"/><path style="opacity:1;fill:none;stroke:url(#radialGradient6550);stroke-width:10.41334629;stroke-linecap:butt;stroke-linejoin:miter;stroke-miterlimit:4;stroke-opacity:1;stroke-dasharray:none;stroke-dashoffset:0;marker:none;marker-start:none;marker-mid:none;marker-end:none;visibility:visible;display:inline;overflow:visible;enable-background:accumulate" id="path6594" d="m 56.65625,56.15625 c -0.543141,0 -0.625,0.08186 -0.625,0.625 l 0,174.75 c 0,0.54314 0.117467,0.65625 0.625,0.65625 l 18.75,0 a 11.046122,11.046122 0 0 1 11.03125,11.03125 l 0,12.90625 69.1875,-23.375 a 11.046122,11.046122 0 0 1 3.53125,-0.5625 l 81.78125,0 c 0.50754,0 0.625,-0.11311 0.625,-0.65625 l 0,-174.75 c 0,-0.543142 -0.0819,-0.625 -0.625,-0.625 l -184.28125,0 z" xlink:href="#path6572"/></g><path id="path8990-5-8-3" d="m 98.935407,157.12512 105.400873,0 -42.18072,42.93284" style="opacity:1;color:#000;fill:none;stroke:#729fcf;stroke-width:19.14685439999999872;stroke-linecap:butt;stroke-linejoin:miter;stroke-miterlimit:4;stroke-opacity:1;stroke-dasharray:none;stroke-dashoffset:0;marker:none;marker-start:none;marker-mid:none;marker-end:none;visibility:visible;display:inline;overflow:visible;enable-background:accumulate"/><path style="opacity:1;color:#000;fill:none;stroke:#435e87;stroke-width:19.1468544;stroke-linecap:butt;stroke-linejoin:miter;stroke-miterlimit:4;stroke-opacity:1;stroke-dasharray:none;stroke-dashoffset:0;marker:none;marker-start:none;marker-mid:none;marker-end:none;visibility:visible;display:inline;overflow:visible;enable-background:accumulate" id="path8218-3-8-6" d="m 204.72863,118.83141 -105.700043,0 42.180623,-42.932842"/><path style="opacity:.64851487;fill:url(#radialGradient6590);fill-opacity:1;fill-rule:nonzero;stroke:url(#radialGradient6592);stroke-width:9.57343578;stroke-linecap:butt;stroke-linejoin:miter;stroke-miterlimit:4;stroke-opacity:1;stroke-dasharray:none;stroke-dashoffset:0;marker:none;marker-start:none;marker-mid:none;marker-end:none;visibility:visible;display:inline;overflow:visible;enable-background:accumulate" id="path6580" d="m 240.55143,219.56097 0,-159.178026 c 0,-5.093142 -3.56348,-8.280938 -8.27973,-8.280938 l -158.234855,0 C 150.00089,76.249384 212.16973,153.38815 240.55143,219.56097 z"/></g><g id="g6604" transform="matrix(-0.07327227,0,0,0.07327227,322.60138,205.88837)"><g id="g6612" transform="matrix(0.9193424,0,0,0.9193424,14.604246,5.0236031)" style="display:inline;enable-background:new"><path id="path6614" d="m 57.536649,48.150665 198.054011,0 c 6.94539,0 12.5368,5.132664 12.5368,11.508216 l 0,184.480689 c 0,6.37555 -5.59141,11.50821 -12.5368,11.50821 l -144.98212,0 -9.34601,13.0405 -23.590698,0.0199 0,-13.06041 -20.135183,0 c -6.945392,0 -12.536809,-5.13266 -12.536809,-11.50821 l 0,-184.480689 c 0,-6.375552 5.591417,-11.508216 12.536809,-11.508216 z" style="fill:url(#linearGradient6646);fill-opacity:1;fill-rule:nonzero;stroke:url(#linearGradient6648);stroke-width:14.84511375;stroke-linecap:butt;stroke-linejoin:miter;stroke-miterlimit:4;stroke-opacity:1;stroke-dasharray:none;stroke-dashoffset:0;marker:none;marker-start:none;marker-mid:none;marker-end:none;visibility:visible;display:inline;overflow:visible;enable-background:accumulate"/><path style="opacity:1;fill:none;stroke:url(#radialGradient6628);stroke-width:14.84510326;stroke-linecap:butt;stroke-linejoin:miter;stroke-miterlimit:4;stroke-opacity:1;stroke-dasharray:none;stroke-dashoffset:0;marker:none;marker-start:none;marker-mid:none;marker-end:none;visibility:visible;display:inline;overflow:visible;enable-background:accumulate" id="path6644" d="m 59.4375,62.59375 0,178.625 18.21875,0 A 14.434913,14.434913 0 0 1 92,254.25 l 1.84375,0 5.03125,-7 a 14.434913,14.434913 0 0 1 11.71875,-6.03125 l 143.09375,0 0,-178.625 -194.25,0 z" xlink:href="#path6614"/></g><path style="opacity:1;color:#000;fill:none;stroke:#435e87;stroke-width:13.64772797;stroke-linecap:butt;stroke-linejoin:miter;stroke-miterlimit:4;stroke-opacity:1;stroke-dasharray:none;stroke-dashoffset:0;marker:none;marker-start:none;marker-mid:none;marker-end:none;visibility:visible;display:inline;overflow:visible;enable-background:accumulate" id="path8218-3-8-6-1" d="m 201.83462,132.00296 -90.83248,0 31.44199,-32.386413"/><path id="path8990-5-8-3-8" d="m 114.87405,159.18383 90.83248,0 -31.44207,32.38633" style="opacity:1;color:#000;fill:none;stroke:#729fcf;stroke-width:13.64772797000000004;stroke-linecap:butt;stroke-linejoin:miter;stroke-miterlimit:4;stroke-opacity:1;stroke-dasharray:none;stroke-dashoffset:0;marker:none;marker-start:none;marker-mid:none;marker-end:none;visibility:visible;display:inline;overflow:visible;enable-background:accumulate"/></g></g></svg>