<svg xmlns="http://www.w3.org/2000/svg" xmlns:svg="http://www.w3.org/2000/svg" xmlns:xlink="http://www.w3.org/1999/xlink" id="svg11300" width="400" height="300" version="1.0" style="enable-background:new"><defs id="defs3"><linearGradient id="linearGradient4962"><stop style="stop-color:#fff;stop-opacity:1" id="stop4964" offset="0"/><stop style="stop-color:#fff;stop-opacity:0" id="stop4966" offset="1"/></linearGradient><linearGradient id="linearGradient4910"><stop style="stop-color:#fff;stop-opacity:1" id="stop4912" offset="0"/><stop style="stop-color:#fff;stop-opacity:0" id="stop4914" offset="1"/></linearGradient><linearGradient id="linearGradient4819"><stop style="stop-color:#fff;stop-opacity:1" id="stop4821" offset="0"/><stop style="stop-color:#fff;stop-opacity:0" id="stop4823" offset="1"/></linearGradient><linearGradient id="linearGradient4797"><stop style="stop-color:#06090e;stop-opacity:1" id="stop4799" offset="0"/><stop style="stop-color:#324f72;stop-opacity:1" id="stop4801" offset="1"/></linearGradient><linearGradient id="linearGradient4755"><stop style="stop-color:#a9c4e3;stop-opacity:1" id="stop4757" offset="0"/><stop id="stop4765" offset=".466" style="stop-color:#c2d5eb;stop-opacity:1"/><stop id="stop4763" offset=".626" style="stop-color:#d3e1f1;stop-opacity:1"/><stop style="stop-color:#a9c4e3;stop-opacity:1" id="stop4759" offset="1"/></linearGradient><linearGradient id="linearGradient4743"><stop style="stop-color:#fff;stop-opacity:1" id="stop4745" offset="0"/><stop id="stop4751" offset=".319" style="stop-color:#eee;stop-opacity:1"/><stop style="stop-color:#dbdbdb;stop-opacity:1" id="stop4753" offset=".686"/><stop style="stop-color:#f7f7f7;stop-opacity:1" id="stop4747" offset="1"/></linearGradient><linearGradient id="linearGradient10126"><stop style="stop-color:#fff;stop-opacity:1" id="stop10128" offset="0"/><stop style="stop-color:#dbdbdb;stop-opacity:1" id="stop10130" offset="1"/></linearGradient><linearGradient id="linearGradient10114"><stop style="stop-color:#fff;stop-opacity:1" id="stop10116" offset="0"/><stop style="stop-color:#d2d2d2;stop-opacity:1" id="stop10118" offset="1"/></linearGradient><linearGradient id="linearGradient9937"><stop style="stop-color:#286fca;stop-opacity:1" id="stop9939" offset="0"/><stop id="stop9941" offset=".9" style="stop-color:#0f4489;stop-opacity:1"/><stop style="stop-color:#4673aa;stop-opacity:1" id="stop9943" offset="1"/></linearGradient><linearGradient id="linearGradient9929"><stop id="stop9931" offset="0" style="stop-color:#fff;stop-opacity:1"/><stop style="stop-color:#fff;stop-opacity:0" id="stop9933" offset=".716"/><stop id="stop9935" offset="1" style="stop-color:#fff;stop-opacity:1"/></linearGradient><linearGradient id="linearGradient9841"><stop style="stop-color:#fff;stop-opacity:1" id="stop9843" offset="0"/><stop style="stop-color:#fff;stop-opacity:0" id="stop9845" offset="1"/></linearGradient><linearGradient id="linearGradient9735"><stop style="stop-color:#fff;stop-opacity:1" id="stop9737" offset="0"/><stop style="stop-color:#fff;stop-opacity:0" id="stop9739" offset="1"/></linearGradient><linearGradient id="linearGradient9685"><stop style="stop-color:#fff;stop-opacity:1" id="stop9687" offset="0"/><stop style="stop-color:#fff;stop-opacity:0" id="stop9689" offset="1"/></linearGradient><linearGradient id="linearGradient9652"><stop style="stop-color:#fff;stop-opacity:1" id="stop9654" offset="0"/><stop id="stop9927" offset=".5" style="stop-color:#fff;stop-opacity:.49803922"/><stop style="stop-color:#fff;stop-opacity:0" id="stop9656" offset="1"/></linearGradient><linearGradient id="linearGradient6013" x1="170.343" x2="88.373" y1="238" y2="1.312" gradientUnits="userSpaceOnUse" xlink:href="#linearGradient10053"/><linearGradient id="linearGradient10053"><stop id="stop10055" offset="0" style="stop-color:#f6f6f5;stop-opacity:1"/><stop style="stop-color:#e7e7e7;stop-opacity:1" id="stop5355" offset=".194"/><stop id="stop10057" offset="1" style="stop-color:#eeeeec;stop-opacity:1"/></linearGradient><linearGradient id="linearGradient8000" x1="87.615" x2="86.881" y1="48.854" y2="87.291" gradientUnits="userSpaceOnUse" xlink:href="#linearGradient7994"/><linearGradient id="linearGradient7994"><stop id="stop7996" offset="0" style="stop-color:#fff;stop-opacity:1"/><stop id="stop7998" offset="1" style="stop-color:#e2e2e2;stop-opacity:1"/></linearGradient><linearGradient id="linearGradient7995" x1="87.615" x2="86.881" y1="48.854" y2="87.291" gradientUnits="userSpaceOnUse" xlink:href="#linearGradient7994"/><linearGradient id="linearGradient9074" x1="-5.469" x2="-5.469" y1="10" y2="8.499" gradientUnits="userSpaceOnUse" xlink:href="#linearGradient7113"/><radialGradient id="radialGradient8866" cx="84.465" cy="21.439" r="21.467" fx="84.465" fy="21.439" gradientTransform="matrix(1.4952909,3.3756719e-7,-7.8683009e-8,0.348535,-40.256004,13.967011)" gradientUnits="userSpaceOnUse" xlink:href="#linearGradient8699"/><linearGradient id="linearGradient7113"><stop style="stop-color:#fce94f;stop-opacity:1" id="stop7115" offset="0"/><stop style="stop-color:#fce94f;stop-opacity:0" id="stop9244" offset="1"/></linearGradient><linearGradient id="linearGradient7919" x1="30.313" x2="30.313" y1="27.313" y2="24.688" gradientUnits="userSpaceOnUse" xlink:href="#linearGradient7422"/><radialGradient id="radialGradient7089" cx="105.195" cy="-.366" r="29.403" fx="105.195" fy="-.366" gradientTransform="matrix(3.5399381,0,0,3.5071625,-267.18906,1.188699)" gradientUnits="userSpaceOnUse" xlink:href="#linearGradient6248"/><linearGradient id="linearGradient6874" x1="44" x2="44" y1="180.5" y2="242.518" gradientTransform="matrix(0.2513792,0,0,0.2513792,-123.36165,103.51744)" gradientUnits="userSpaceOnUse" xlink:href="#linearGradient6858"/><linearGradient id="linearGradient7422"><stop style="stop-color:#edd400;stop-opacity:1" id="stop7424" offset="0"/><stop style="stop-color:#edd400;stop-opacity:0" id="stop7426" offset="1"/></linearGradient><linearGradient id="linearGradient8868" gradientUnits="userSpaceOnUse"><stop style="stop-color:#c0cdf9;stop-opacity:1" id="stop8870" offset="0"/><stop style="stop-color:#07092d;stop-opacity:.28804347" id="stop8872" offset="1"/></linearGradient><linearGradient id="linearGradient6248"><stop id="stop6250" offset="0" style="stop-color:#fff;stop-opacity:1"/><stop id="stop6252" offset="1" style="stop-color:#fff;stop-opacity:0"/></linearGradient><linearGradient id="linearGradient6858"><stop id="stop6860" offset="0" style="stop-color:#000;stop-opacity:1"/><stop style="stop-color:#fff;stop-opacity:1" id="stop6868" offset=".218"/><stop style="stop-color:#fff;stop-opacity:1" id="stop6866" offset=".766"/><stop id="stop6862" offset="1" style="stop-color:#000;stop-opacity:1"/></linearGradient><linearGradient id="linearGradient8699"><stop id="stop8701" offset="0" style="stop-color:#e0e0e0;stop-opacity:1"/><stop id="stop8703" offset="1" style="stop-color:#000;stop-opacity:1"/></linearGradient><clipPath id="clipPath9622" clipPathUnits="userSpaceOnUse"><rect style="opacity:1;fill:none;fill-opacity:1;fill-rule:nonzero;stroke:#000;stroke-width:2;stroke-linecap:butt;stroke-linejoin:miter;marker:none;marker-start:none;marker-mid:none;marker-end:none;stroke-miterlimit:4;stroke-dasharray:none;stroke-dashoffset:0;stroke-opacity:1;visibility:visible;display:inline;overflow:visible;enable-background:accumulate" id="rect9624" width="201" height="201" x="48" y="46" rx="11.664" ry="11.664"/></clipPath><linearGradient id="linearGradient9658" x1="137.114" x2="137.114" y1="107.112" y2="200.925" gradientUnits="userSpaceOnUse" xlink:href="#linearGradient9652"/><linearGradient id="linearGradient9673" x1="159" x2="159" y1="51" y2="247" gradientUnits="userSpaceOnUse" xlink:href="#linearGradient9937"/><radialGradient id="radialGradient9691" cx="148.5" cy="146.5" r="100.5" fx="148.5" fy="146.5" gradientTransform="matrix(3.079602,-3.3731343,0.7385091,0.6742435,-417.01248,548.63377)" gradientUnits="userSpaceOnUse" xlink:href="#linearGradient9685"/><radialGradient id="radialGradient9741" cx="172" cy="50.5" r="89" fx="172" fy="50.5" gradientTransform="matrix(1.1011236,-0.1573034,1.0805227e-2,7.563659e-2,-17.938922,73.436532)" gradientUnits="userSpaceOnUse" xlink:href="#linearGradient9735"/><radialGradient id="radialGradient9831" cx="148.5" cy="146.5" r="100.5" fx="148.5" fy="146.5" gradientTransform="matrix(2.9988193,-3.2846518,0.7191368,0.6565571,-402.13457,538.04154)" gradientUnits="userSpaceOnUse" xlink:href="#linearGradient9685"/><linearGradient id="linearGradient9833" x1="137.114" x2="137.114" y1="107.112" y2="200.925" gradientUnits="userSpaceOnUse" xlink:href="#linearGradient9652"/><radialGradient id="radialGradient9835" cx="172" cy="50.5" r="89" fx="172" fy="50.5" gradientTransform="matrix(1.1011236,-0.1573034,1.0805227e-2,7.563659e-2,-17.938922,73.436532)" gradientUnits="userSpaceOnUse" xlink:href="#linearGradient9735"/><linearGradient id="linearGradient9847" x1="157.73" x2="157.73" y1="66.342" y2="253.597" gradientTransform="matrix(0.9726416,0,0,1,6.7076831,0)" gradientUnits="userSpaceOnUse" xlink:href="#linearGradient9841"/><radialGradient id="radialGradient9851" cx="171.377" cy="29.048" r="100.488" fx="171.377" fy="29.048" gradientTransform="matrix(0.7087126,0,-5.8109915e-8,0.3275976,49.078079,44.366462)" gradientUnits="userSpaceOnUse" xlink:href="#linearGradient9841"/><radialGradient id="radialGradient9893" cx="148.5" cy="146.5" r="100.5" fx="148.5" fy="146.5" gradientTransform="matrix(3.1288426,-3.3007322,0.7503172,0.6597713,-421.76777,541.62748)" gradientUnits="userSpaceOnUse" xlink:href="#linearGradient9685"/><linearGradient id="linearGradient9895" x1="157.73" x2="157.73" y1="66.342" y2="253.597" gradientTransform="matrix(0.9535652,0,0,0.9806015,11.164058,5.6986789)" gradientUnits="userSpaceOnUse" xlink:href="#linearGradient9841"/><radialGradient id="radialGradient9897" cx="171.377" cy="29.048" r="100.488" fx="171.377" fy="29.048" gradientTransform="matrix(0.6908126,0,-5.6642228e-8,0.3212427,52.717443,49.204501)" gradientUnits="userSpaceOnUse" xlink:href="#linearGradient9841"/><linearGradient id="linearGradient9923" x1="140.153" x2="148.5" y1="58.001" y2="247" gradientUnits="userSpaceOnUse" xlink:href="#linearGradient9929"/><linearGradient id="linearGradient10003" x1="157.73" x2="157.73" y1="66.342" y2="253.597" gradientTransform="matrix(0.9444214,0,0,0.9713561,11.651438,12.469555)" gradientUnits="userSpaceOnUse" xlink:href="#linearGradient9841"/><radialGradient id="radialGradient10005" cx="171.377" cy="29.048" r="100.488" fx="171.377" fy="29.048" gradientTransform="matrix(0.6884512,0,-5.6448608e-8,0.3182139,52.749141,55.565196)" gradientUnits="userSpaceOnUse" xlink:href="#linearGradient9841"/><linearGradient id="linearGradient10043" x1="157.73" x2="157.73" y1="66.342" y2="253.597" gradientTransform="matrix(0.9146495,0,0,0.9406728,16.072289,17.069498)" gradientUnits="userSpaceOnUse" xlink:href="#linearGradient9841"/><radialGradient id="radialGradient10045" cx="171.377" cy="29.048" r="100.488" fx="171.377" fy="29.048" gradientTransform="matrix(0.6775988,0,-5.555878e-8,0.3081622,52.894818,58.803823)" gradientUnits="userSpaceOnUse" xlink:href="#linearGradient9841"/><linearGradient id="linearGradient10120" x1="148.5" x2="159.5" y1="146.5" y2="169.5" gradientUnits="userSpaceOnUse" xlink:href="#linearGradient10114"/><linearGradient id="linearGradient10132" x1="153.313" x2="169.127" y1="141.343" y2="166.096" gradientUnits="userSpaceOnUse" xlink:href="#linearGradient10126"/><linearGradient id="linearGradient5365" x1="148.5" x2="159.5" y1="146.5" y2="169.5" gradientUnits="userSpaceOnUse" xlink:href="#linearGradient10114"/><linearGradient id="linearGradient5370" x1="148.5" x2="159.5" y1="146.5" y2="169.5" gradientUnits="userSpaceOnUse" xlink:href="#linearGradient10114"/><linearGradient id="linearGradient5378" x1="148.5" x2="159.5" y1="146.5" y2="169.5" gradientTransform="matrix(0.9014052,0,0,0.9014052,15.927714,18.453665)" gradientUnits="userSpaceOnUse" xlink:href="#linearGradient10114"/><linearGradient id="linearGradient6152" x1="148.5" x2="159.5" y1="146.5" y2="169.5" gradientTransform="matrix(0.9419973,0,0,0.9419973,11.565557,15.350795)" gradientUnits="userSpaceOnUse" xlink:href="#linearGradient10114"/><linearGradient id="linearGradient6156" x1="148.5" x2="159.5" y1="146.5" y2="169.5" gradientTransform="matrix(0.9706716,0,0,0.9706716,6.4105035,16.614503)" gradientUnits="userSpaceOnUse" xlink:href="#linearGradient10114"/><linearGradient id="linearGradient6160" x1="148.5" x2="159.5" y1="146.5" y2="169.5" gradientTransform="matrix(6.4673577e-2,0,0,6.4673577e-2,301.39597,207.52532)" gradientUnits="userSpaceOnUse" xlink:href="#linearGradient10114"/><linearGradient id="linearGradient7985"><stop id="stop7987" offset="0" style="stop-color:#80a6d8;stop-opacity:1"/><stop style="stop-color:#42699a;stop-opacity:1" id="stop7991" offset=".292"/><stop id="stop7989" offset="1" style="stop-color:#99b8e1;stop-opacity:1"/></linearGradient><linearGradient id="linearGradient7675"><stop style="stop-color:#fff;stop-opacity:1" id="stop7677" offset="0"/><stop style="stop-color:#72cf98;stop-opacity:.56862748" id="stop7679" offset="1"/></linearGradient><radialGradient id="radialGradient7659" cx="320.25" cy="89.313" r="16.75" fx="320.25" fy="89.313" gradientTransform="matrix(1,0,0,0.2201493,0,69.65042)" gradientUnits="userSpaceOnUse" xlink:href="#linearGradient7615"/><linearGradient id="linearGradient7615"><stop style="stop-color:#000;stop-opacity:1" id="stop7617" offset="0"/><stop style="stop-color:#000;stop-opacity:0" id="stop7619" offset="1"/></linearGradient><filter id="filter7651" width="1.174" height="1.792" x="-.087" y="-.396" color-interpolation-filters="sRGB"><feGaussianBlur id="feGaussianBlur7653" stdDeviation="1.217"/></filter><radialGradient id="radialGradient7661" cx="320.25" cy="89.313" r="16.75" fx="320.25" fy="89.313" gradientTransform="matrix(1,0,0,0.2201493,0,69.65042)" gradientUnits="userSpaceOnUse" xlink:href="#linearGradient7615"/><radialGradient id="radialGradient7823" cx="320.25" cy="89.313" r="16.75" fx="320.25" fy="89.313" gradientTransform="matrix(1,0,0,0.2201493,0,69.65042)" gradientUnits="userSpaceOnUse" xlink:href="#linearGradient7615"/><filter id="filter7917" width="1.25" height="2.135" x="-.125" y="-.568" color-interpolation-filters="sRGB"><feGaussianBlur id="feGaussianBlur7919" stdDeviation="1.745"/></filter><linearGradient id="linearGradient3388"><stop id="stop3390" offset="0" style="stop-color:#80a6d8;stop-opacity:1"/><stop style="stop-color:#42699a;stop-opacity:1" id="stop3392" offset=".292"/><stop id="stop3394" offset="1" style="stop-color:#99b8e1;stop-opacity:1"/></linearGradient><filter id="filter7817" color-interpolation-filters="sRGB"><feGaussianBlur id="feGaussianBlur7819" stdDeviation=".738"/></filter><filter id="filter7743" color-interpolation-filters="sRGB"><feGaussianBlur id="feGaussianBlur7745" stdDeviation=".295"/></filter><linearGradient id="linearGradient7681" x1="-868.685" x2="-865.214" y1="-181.719" y2="-150.962" gradientUnits="userSpaceOnUse" xlink:href="#linearGradient7675"/><radialGradient id="radialGradient8037" cx="320.25" cy="89.313" r="16.75" fx="320.25" fy="89.313" gradientTransform="matrix(1,0,0,0.2201493,0,69.65042)" gradientUnits="userSpaceOnUse" xlink:href="#linearGradient7615"/><radialGradient id="radialGradient8039" cx="320.25" cy="89.313" r="16.75" fx="320.25" fy="89.313" gradientTransform="matrix(1,0,0,0.2201493,0,69.65042)" gradientUnits="userSpaceOnUse" xlink:href="#linearGradient7615"/><radialGradient id="radialGradient8041" cx="320.25" cy="89.313" r="16.75" fx="320.25" fy="89.313" gradientTransform="matrix(1,0,0,0.2201493,0,69.65042)" gradientUnits="userSpaceOnUse" xlink:href="#linearGradient7615"/><linearGradient id="linearGradient3437"><stop id="stop3439" offset="0" style="stop-color:#80a6d8;stop-opacity:1"/><stop style="stop-color:#42699a;stop-opacity:1" id="stop3441" offset=".292"/><stop id="stop3443" offset="1" style="stop-color:#99b8e1;stop-opacity:1"/></linearGradient><linearGradient id="linearGradient8045" x1="-868.685" x2="-865.214" y1="-181.719" y2="-150.962" gradientUnits="userSpaceOnUse" xlink:href="#linearGradient7675"/><radialGradient id="radialGradient8082" cx="320.25" cy="89.313" r="16.75" fx="320.25" fy="89.313" gradientTransform="matrix(1,0,0,0.2201493,0,69.65042)" gradientUnits="userSpaceOnUse" xlink:href="#linearGradient7615"/><radialGradient id="radialGradient8084" cx="320.25" cy="89.313" r="16.75" fx="320.25" fy="89.313" gradientTransform="matrix(1,0,0,0.2201493,0,69.65042)" gradientUnits="userSpaceOnUse" xlink:href="#linearGradient7615"/><radialGradient id="radialGradient8086" cx="320.25" cy="89.313" r="16.75" fx="320.25" fy="89.313" gradientTransform="matrix(1,0,0,0.2201493,0,69.65042)" gradientUnits="userSpaceOnUse" xlink:href="#linearGradient7615"/><linearGradient id="linearGradient3490"><stop id="stop3492" offset="0" style="stop-color:#80a6d8;stop-opacity:1"/><stop style="stop-color:#42699a;stop-opacity:1" id="stop3494" offset=".292"/><stop id="stop3496" offset="1" style="stop-color:#99b8e1;stop-opacity:1"/></linearGradient><linearGradient id="linearGradient8090" x1="-868.685" x2="-865.214" y1="-181.719" y2="-150.962" gradientUnits="userSpaceOnUse" xlink:href="#linearGradient7675"/><radialGradient id="radialGradient3885" cx="320.25" cy="89.313" r="16.75" fx="320.25" fy="89.313" gradientTransform="matrix(1,0,0,0.2201493,0,69.65042)" gradientUnits="userSpaceOnUse" xlink:href="#linearGradient7615"/><radialGradient id="radialGradient3887" cx="320.25" cy="89.313" r="16.75" fx="320.25" fy="89.313" gradientTransform="matrix(1,0,0,0.2201493,0,69.65042)" gradientUnits="userSpaceOnUse" xlink:href="#linearGradient7615"/><radialGradient id="radialGradient3889" cx="320.25" cy="89.313" r="16.75" fx="320.25" fy="89.313" gradientTransform="matrix(1,0,0,0.2201493,0,69.65042)" gradientUnits="userSpaceOnUse" xlink:href="#linearGradient7615"/><linearGradient id="linearGradient3891" x1="2128.552" x2="2128.552" y1="15026.778" y2="14844.775" gradientTransform="matrix(-0.1666172,0,0,0.1651167,-514.04206,-2630.4125)" gradientUnits="userSpaceOnUse" xlink:href="#linearGradient7985"/><clipPath id="clipPath4739" clipPathUnits="userSpaceOnUse"><path style="opacity:.36633666;color:#000;fill:#000;fill-opacity:1;fill-rule:nonzero;stroke:none;stroke-width:1;marker:none;visibility:visible;display:inline;overflow:visible;enable-background:accumulate" id="path4741" d="m 150,108.25 c 1.90119,3.07481 5.3808,11.9537 4.5,20.375 l -4.5,43.875 26,12 31,-19 -1,-39 -26,-52.5 41.5,-17 23,46 5,59 -28,47.5 -55,14 -54.5,-33 0,-56 40,-37.5 38,11 12.5,29.5 -1.5,29 -22.5,14 -21,-6 1.5,-11.5 11.5,0 14,-14 -8,-14 -3.875,-6.9375 C 173,123 172.0625,113.375 170.5625,108.9375 c 0,0 -21.21931,-1.74976 -20.5625,-0.6875 z"/></clipPath><linearGradient id="linearGradient4749" x1="110.023" x2="107.227" y1="72.794" y2="191.089" gradientUnits="userSpaceOnUse" xlink:href="#linearGradient4743"/><linearGradient id="linearGradient4761" x1="203.979" x2="224.979" y1="102.682" y2="180.766" gradientUnits="userSpaceOnUse" xlink:href="#linearGradient4755"/><clipPath id="clipPath4781" clipPathUnits="userSpaceOnUse"><path style="fill:none;stroke:#000;stroke-width:.22715054;stroke-linecap:butt;stroke-linejoin:miter;stroke-miterlimit:4;stroke-opacity:1;stroke-dasharray:none" id="path4783" d="m -853.11996,-186.35737 c -2.80368,1.15129 -11.7943,4.90029 -12.01846,4.99385 -2.51535,-2.05419 -5.78691,-3.65023 -9.17539,-3.83077 -8.21946,-0.51689 -15.77953,6.78247 -15.80308,14.88 -0.36084,7.29019 2.96645,14.03269 5.97231,20.47384 2.51471,-1.04915 11.65868,-4.86045 11.88923,-4.95692 2.46871,2.06304 5.63043,3.58328 8.92616,3.82154 8.0878,0.67864 15.6045,-6.30832 16.01538,-14.21538 0.58707,-7.39645 -2.82264,-14.23867 -5.68615,-20.85231 -0.0417,-0.10318 -0.0784,-0.21066 -0.12,-0.31385 z"/></clipPath><filter id="filter4793"><feGaussianBlur id="feGaussianBlur4795" stdDeviation=".397"/></filter><linearGradient id="linearGradient4803" x1="-878.575" x2="-878.575" y1="-150.024" y2="-180.024" gradientUnits="userSpaceOnUse" xlink:href="#linearGradient4797"/><radialGradient id="radialGradient4825" cx="-868.684" cy="-168.078" r="21.144" fx="-868.684" fy="-168.078" gradientTransform="matrix(0.98867657,0.15006211,-0.2148648,1.4156258,-45.950554,200.21417)" gradientUnits="userSpaceOnUse" xlink:href="#linearGradient4819"/><filter id="filter4837"><feGaussianBlur id="feGaussianBlur4839" stdDeviation=".185"/></filter><filter id="filter4851"><feGaussianBlur id="feGaussianBlur4853" stdDeviation="2.247"/></filter><filter id="filter4873" width="2.678" height="1.303" x="-.839" y="-.151"><feGaussianBlur id="feGaussianBlur4875" stdDeviation=".961"/></filter><filter id="filter4895" width="1.114" height="2.371" x="-.057" y="-.686"><feGaussianBlur id="feGaussianBlur4897" stdDeviation=".805"/></filter><radialGradient id="radialGradient4899" cx="-868.684" cy="-168.078" r="21.144" fx="-868.684" fy="-168.078" gradientTransform="matrix(1.4452643,0.23063641,-0.22563901,1.4139485,348.86898,269.92586)" gradientUnits="userSpaceOnUse" xlink:href="#linearGradient4819"/><radialGradient id="radialGradient4916" cx="131.916" cy="136.873" r="60.286" fx="131.916" fy="136.873" gradientTransform="matrix(0.25006408,-0.41846279,2.0475524,1.2235719,-197.77455,11.557088)" gradientUnits="userSpaceOnUse" xlink:href="#linearGradient4910"/><filter id="filter4873-4" width="2.678" height="1.303" x="-.839" y="-.151" color-interpolation-filters="sRGB"><feGaussianBlur id="feGaussianBlur4875-3" stdDeviation=".961"/></filter><clipPath id="clipPath4948" clipPathUnits="userSpaceOnUse"><path id="path4950" d="m 150.75,109.3125 c -0.25,5.1875 1.1875,10.9375 2.875,14.6875 2.91614,-2.45833 0.21381,-11.72917 0.9375,-16.8125 -1.41489,0.62854 -2.23825,1.81516 -3.8125,2.125 z" style="opacity:.43564357;color:#000;fill:#000;fill-opacity:1;fill-rule:nonzero;stroke:none;stroke-width:3;marker:none;visibility:visible;display:inline;overflow:visible;enable-background:accumulate"/></clipPath><radialGradient id="radialGradient4956" cx="166.315" cy="148.08" r="60.286" fx="166.315" fy="148.08" gradientTransform="matrix(-0.39417076,-0.28683195,1.2098846,-1.6626499,1.8649499,389.23964)" gradientUnits="userSpaceOnUse" xlink:href="#linearGradient4910"/><radialGradient id="radialGradient4968" cx="-868.317" cy="-162.001" r="19.946" fx="-868.317" fy="-162.001" gradientTransform="matrix(-2.146818,-1.5039189,0.76993858,-1.1720346,-2604.0101,-1669.5905)" gradientUnits="userSpaceOnUse" xlink:href="#linearGradient4962"/><filter id="filter5041" width="1.132" height="2.6" x="-.066" y="-.8"><feGaussianBlur id="feGaussianBlur5043" stdDeviation=".939"/></filter><filter id="filter5041-5" width="1.132" height="2.6" x="-.066" y="-.8" color-interpolation-filters="sRGB"><feGaussianBlur id="feGaussianBlur5043-2" stdDeviation=".939"/></filter><linearGradient id="linearGradient7985-1"><stop id="stop7987-9" offset="0" style="stop-color:#80a6d8;stop-opacity:1"/><stop style="stop-color:#42699a;stop-opacity:1" id="stop7991-5" offset=".292"/><stop id="stop7989-9" offset="1" style="stop-color:#99b8e1;stop-opacity:1"/></linearGradient><linearGradient id="linearGradient5073-2"><stop style="stop-color:#3b6aa3;stop-opacity:1" id="stop5075-3" offset="0"/><stop style="stop-color:#244164;stop-opacity:1" id="stop5077-5" offset="1"/></linearGradient><linearGradient id="linearGradient5103" x1="2128.552" x2="2128.552" y1="15026.778" y2="14844.775" gradientTransform="matrix(-0.1666172,0,0,0.1651167,376.7018,-2443.4551)" gradientUnits="userSpaceOnUse" xlink:href="#linearGradient7985-1"/><linearGradient id="linearGradient5105" x1="-851.994" x2="-852.522" y1="-181.974" y2="-150.224" gradientTransform="translate(890.74386,186.95737)" gradientUnits="userSpaceOnUse" xlink:href="#linearGradient5073-2"/><linearGradient id="linearGradient7985-9"><stop id="stop7987-8" offset="0" style="stop-color:#80a6d8;stop-opacity:1"/><stop style="stop-color:#42699a;stop-opacity:1" id="stop7991-0" offset=".292"/><stop id="stop7989-8" offset="1" style="stop-color:#99b8e1;stop-opacity:1"/></linearGradient><linearGradient id="linearGradient5073-1"><stop style="stop-color:#3b6aa3;stop-opacity:1" id="stop5075-7" offset="0"/><stop style="stop-color:#244164;stop-opacity:1" id="stop5077-4" offset="1"/></linearGradient><linearGradient id="linearGradient5103-8" x1="2128.552" x2="2128.552" y1="15026.778" y2="14844.775" gradientTransform="matrix(-0.1666172,0,0,0.1651167,376.7018,-2443.4551)" gradientUnits="userSpaceOnUse" xlink:href="#linearGradient7985-9"/><linearGradient id="linearGradient5105-7" x1="-851.994" x2="-852.522" y1="-181.974" y2="-150.224" gradientTransform="translate(890.74386,186.95737)" gradientUnits="userSpaceOnUse" xlink:href="#linearGradient5073-1"/><linearGradient id="linearGradient7673-6" x1="2128.552" x2="2058.708" y1="15026.778" y2="14871.254" gradientTransform="matrix(-0.1666172,0,0,0.1651167,-514.04206,-2630.4125)" gradientUnits="userSpaceOnUse" xlink:href="#linearGradient7985-5"/><linearGradient id="linearGradient7985-5"><stop id="stop7987-81" offset="0" style="stop-color:#80a6d8;stop-opacity:1"/><stop style="stop-color:#42699a;stop-opacity:1" id="stop7991-01" offset=".292"/><stop id="stop7989-86" offset="1" style="stop-color:#99b8e1;stop-opacity:1"/></linearGradient><linearGradient id="linearGradient5079-4" x1="-848.558" x2="-863.327" y1="-163.673" y2="-141.269" gradientUnits="userSpaceOnUse" xlink:href="#linearGradient5073-13"/><linearGradient id="linearGradient5073-13"><stop style="stop-color:#3b6aa3;stop-opacity:1" id="stop5075-1" offset="0"/><stop style="stop-color:#244164;stop-opacity:1" id="stop5077-3" offset="1"/></linearGradient><linearGradient id="linearGradient5103-6" x1="2128.552" x2="2128.552" y1="15026.778" y2="14844.775" gradientTransform="matrix(-0.1666172,0,0,0.1651167,376.7018,-2443.4551)" gradientUnits="userSpaceOnUse" xlink:href="#linearGradient7985-5"/><linearGradient id="linearGradient5105-6" x1="-851.994" x2="-852.522" y1="-181.974" y2="-150.224" gradientTransform="translate(890.74386,186.95737)" gradientUnits="userSpaceOnUse" xlink:href="#linearGradient5073-13"/><linearGradient id="linearGradient7673-6-2" x1="2128.552" x2="2128.552" y1="15026.778" y2="14844.775" gradientTransform="matrix(-0.1666172,0,0,0.1651167,-514.04206,-2630.4125)" gradientUnits="userSpaceOnUse" xlink:href="#linearGradient7985-5-5"/><linearGradient id="linearGradient7985-5-5"><stop id="stop7987-81-8" offset="0" style="stop-color:#80a6d8;stop-opacity:1"/><stop style="stop-color:#42699a;stop-opacity:1" id="stop7991-01-1" offset=".292"/><stop id="stop7989-86-0" offset="1" style="stop-color:#99b8e1;stop-opacity:1"/></linearGradient><linearGradient id="linearGradient5079-4-8" x1="-851.994" x2="-852.522" y1="-181.974" y2="-150.224" gradientUnits="userSpaceOnUse" xlink:href="#linearGradient5073-13-3"/><linearGradient id="linearGradient5073-13-3"><stop style="stop-color:#3b6aa3;stop-opacity:1" id="stop5075-1-9" offset="0"/><stop style="stop-color:#244164;stop-opacity:1" id="stop5077-3-6" offset="1"/></linearGradient><linearGradient id="linearGradient5219" x1="2128.552" x2="2128.552" y1="15026.778" y2="14844.775" gradientTransform="matrix(-0.05806649,0,0,0.0557237,131.51605,-824.22479)" gradientUnits="userSpaceOnUse" xlink:href="#linearGradient7985-5-5"/><linearGradient id="linearGradient5221" x1="-851.994" x2="-852.522" y1="-181.974" y2="-150.224" gradientTransform="matrix(0.34850239,0,0,0.33748073,310.66094,63.488744)" gradientUnits="userSpaceOnUse" xlink:href="#linearGradient5073-13-3"/><linearGradient id="linearGradient7673-6-9" x1="2128.552" x2="2128.552" y1="15026.778" y2="14844.775" gradientTransform="matrix(-0.1666172,0,0,0.1651167,-514.04206,-2630.4125)" gradientUnits="userSpaceOnUse" xlink:href="#linearGradient7985-5-2"/><linearGradient id="linearGradient7985-5-2"><stop id="stop7987-81-2" offset="0" style="stop-color:#80a6d8;stop-opacity:1"/><stop style="stop-color:#42699a;stop-opacity:1" id="stop7991-01-13" offset=".292"/><stop id="stop7989-86-7" offset="1" style="stop-color:#99b8e1;stop-opacity:1"/></linearGradient><linearGradient id="linearGradient5079-4-2" x1="-851.994" x2="-852.522" y1="-181.974" y2="-150.224" gradientUnits="userSpaceOnUse" xlink:href="#linearGradient5073-13-9"/><linearGradient id="linearGradient5073-13-9"><stop style="stop-color:#3b6aa3;stop-opacity:1" id="stop5075-1-4" offset="0"/><stop style="stop-color:#244164;stop-opacity:1" id="stop5077-3-7" offset="1"/></linearGradient><linearGradient id="linearGradient5219-0" x1="2128.552" x2="2128.552" y1="15026.778" y2="14844.775" gradientTransform="matrix(-0.05806649,0,0,0.0557237,131.51605,-824.22479)" gradientUnits="userSpaceOnUse" xlink:href="#linearGradient7985-5-2"/><linearGradient id="linearGradient5221-6" x1="-851.994" x2="-852.522" y1="-181.974" y2="-150.224" gradientTransform="matrix(0.34850239,0,0,0.33748073,310.66094,63.488744)" gradientUnits="userSpaceOnUse" xlink:href="#linearGradient5073-13-9"/><linearGradient id="linearGradient7673-6-91" x1="2128.552" x2="2128.552" y1="15026.778" y2="14844.775" gradientTransform="matrix(-0.1666172,0,0,0.1651167,-514.04206,-2630.4125)" gradientUnits="userSpaceOnUse" xlink:href="#linearGradient7985-5-6"/><linearGradient id="linearGradient7985-5-6"><stop id="stop7987-81-6" offset="0" style="stop-color:#80a6d8;stop-opacity:1"/><stop style="stop-color:#42699a;stop-opacity:1" id="stop7991-01-5" offset=".292"/><stop id="stop7989-86-5" offset="1" style="stop-color:#99b8e1;stop-opacity:1"/></linearGradient><linearGradient id="linearGradient5079-4-0" x1="-851.994" x2="-852.522" y1="-181.974" y2="-150.224" gradientUnits="userSpaceOnUse" xlink:href="#linearGradient5073-13-2"/><linearGradient id="linearGradient5073-13-2"><stop style="stop-color:#3b6aa3;stop-opacity:1" id="stop5075-1-7" offset="0"/><stop style="stop-color:#244164;stop-opacity:1" id="stop5077-3-71" offset="1"/></linearGradient><linearGradient id="linearGradient5219-3" x1="2128.552" x2="2128.552" y1="15026.778" y2="14844.775" gradientTransform="matrix(-0.05806649,0,0,0.0557237,131.51605,-824.22479)" gradientUnits="userSpaceOnUse" xlink:href="#linearGradient7985-5-6"/><linearGradient id="linearGradient5221-60" x1="-851.994" x2="-852.522" y1="-181.974" y2="-150.224" gradientTransform="matrix(0.34850239,0,0,0.33748073,310.66094,63.488744)" gradientUnits="userSpaceOnUse" xlink:href="#linearGradient5073-13-2"/><filter id="filter5329"><feGaussianBlur id="feGaussianBlur5331" stdDeviation=".623"/></filter></defs><metadata id="metadata4"/><g style="display:none" id="layer3"><rect id="rect6282" width="256" height="256" x="20" y="20" style="fill:#d3d7cf;fill-opacity:1;fill-rule:nonzero;stroke:none;stroke-width:2;marker:none;visibility:visible;display:inline;overflow:visible;enable-background:accumulate"/><rect style="fill:#d3d7cf;fill-opacity:1;fill-rule:nonzero;stroke:none;stroke-width:2;marker:none;visibility:visible;display:inline;overflow:visible;enable-background:accumulate" id="rect6284" width="48" height="48" x="296.063" y="39.996"/><rect id="rect6592" width="32" height="32" x="303" y="115.996" style="fill:#d3d7cf;fill-opacity:1;fill-rule:nonzero;stroke:none;stroke-width:2;marker:none;visibility:visible;display:inline;overflow:visible;enable-background:accumulate"/><rect style="fill:#d3d7cf;fill-opacity:1;fill-rule:nonzero;stroke:none;stroke-width:2;marker:none;visibility:visible;display:inline;overflow:visible;enable-background:accumulate" id="rect6749" width="22" height="22" x="303" y="167.059"/><rect id="rect6833" width="16" height="16" x="303" y="209" style="fill:#d3d7cf;fill-opacity:1;fill-rule:nonzero;stroke:none;stroke-width:2;marker:none;visibility:visible;display:inline;overflow:visible;enable-background:accumulate"/><rect id="rect5028" width="24" height="24" x="302" y="166" style="fill:#d3d7cf;fill-opacity:1;fill-rule:nonzero;stroke:none;stroke-width:2;marker:none;visibility:visible;display:inline;overflow:visible;enable-background:accumulate"/><text style="font-size:20px;font-style:normal;font-variant:normal;font-weight:400;font-stretch:normal;text-align:start;line-height:125%;writing-mode:lr-tb;text-anchor:start;fill:#000;fill-opacity:1;stroke:none;display:inline;enable-background:new;font-family:Trebuchet MS;-inkscape-font-specification:Trebuchet MS" id="context" x="21" y="-19" xml:space="preserve"><tspan id="tspan16843" x="21" y="-19">apps</tspan></text><text style="font-size:20px;font-style:normal;font-variant:normal;font-weight:400;font-stretch:normal;text-align:start;line-height:125%;writing-mode:lr-tb;text-anchor:start;fill:#000;fill-opacity:1;stroke:none;display:inline;enable-background:new;font-family:Trebuchet MS;-inkscape-font-specification:Trebuchet MS" id="icon-name" x="159" y="-19" xml:space="preserve"><tspan id="tspan16847" x="159" y="-19">monodevelop</tspan></text></g><g style="display:inline" id="layer1"><g style="display:inline;enable-background:new" id="g7921" transform="translate(1.187504,-9.796118)"><g style="opacity:.23214285" id="g7655" transform="matrix(1.0798685,0,0,1,-26.202886,2.5)"><path id="path7623" d="M 337,89.3125 C 337,91.34905 329.50077,93 320.25,93 c -9.25077,0 -16.75,-1.65095 -16.75,-3.6875 0,-2.03655 7.49923,-3.6875 16.75,-3.6875 9.25077,0 16.75,1.65095 16.75,3.6875 z" transform="matrix(1.3081204,0,0,1.3081204,-98.675563,-27.519004)" style="color:#000;fill:url(#radialGradient7659);fill-opacity:1;fill-rule:nonzero;stroke:none;stroke-width:1;marker:none;visibility:visible;display:inline;overflow:visible;filter:url(#filter7651);enable-background:accumulate"/><path style="opacity:.75595236;color:#000;fill:url(#radialGradient7661);fill-opacity:1;fill-rule:nonzero;stroke:none;stroke-width:1;marker:none;visibility:visible;display:inline;overflow:visible;enable-background:accumulate" id="path7613" d="M 337,89.3125 C 337,91.34905 329.50077,93 320.25,93 c -9.25077,0 -16.75,-1.65095 -16.75,-3.6875 0,-2.03655 7.49923,-3.6875 16.75,-3.6875 9.25077,0 16.75,1.65095 16.75,3.6875 z" transform="matrix(0.6439186,0,0,0.7199367,122.71668,25.013154)"/><path id="path7821" d="M 337,89.3125 C 337,91.34905 329.50077,93 320.25,93 c -9.25077,0 -16.75,-1.65095 -16.75,-3.6875 0,-2.03655 7.49923,-3.6875 16.75,-3.6875 9.25077,0 16.75,1.65095 16.75,3.6875 z" transform="matrix(0.4013667,0,0,0.4487503,179.32654,49.733493)" style="opacity:.75595236;color:#000;fill:url(#radialGradient7823);fill-opacity:1;fill-rule:nonzero;stroke:none;stroke-width:1;marker:none;visibility:visible;display:inline;overflow:visible;filter:url(#filter7917);enable-background:accumulate"/></g><g id="g6722" transform="translate(1187.524,240.64776)"><path style="color:#000;fill:url(#linearGradient7673-6-91);fill-opacity:1;fill-rule:evenodd;stroke:url(#linearGradient5079-4-0);stroke-width:1;stroke-linecap:butt;stroke-linejoin:miter;stroke-miterlimit:4;stroke-opacity:1;stroke-dasharray:none;stroke-dashoffset:0;marker:none;visibility:visible;display:inline;overflow:visible;enable-background:accumulate" id="path3493" d="m -853.11996,-186.35737 c -2.80368,1.15129 -11.7943,4.90029 -12.01846,4.99385 -2.51535,-2.05419 -5.78691,-3.65023 -9.17539,-3.83077 -8.21946,-0.51689 -15.77953,6.78247 -15.80308,14.88 -0.36084,7.29019 2.96645,14.03269 5.97231,20.47384 2.51471,-1.04915 11.65868,-4.86045 11.88923,-4.95692 2.46871,2.06304 5.63043,3.58328 8.92616,3.82154 8.0878,0.67864 15.6045,-6.30832 16.01538,-14.21538 0.58707,-7.39645 -2.82264,-14.23867 -5.68615,-20.85231 -0.0417,-0.10318 -0.0784,-0.21066 -0.12,-0.31385 z"/><path id="path7767" d="m -875.375,-181.59375 c -4.91183,5.6e-4 -11.1165,4.69263 -11.0625,11.9375 0.0523,7.01229 2.38252,10.80007 4.15625,15.09375 l 5.25,-2.1875 c -1.2055,-2.46943 -2.75521,-4.93394 -3.3125,-6.15625 -1.56018,-3.42248 -2.13026,-4.95391 -2,-7.5625 0.12595,-2.522 0.96662,-4.07569 2.5,-5.5625 1.53341,-1.48668 3.65452,-2.22554 6.1875,-1.875 5.36448,0.7432 7.09071,4.80333 7.21875,6.78125 0.10537,1.62681 -1.06609,5.63327 -5.1875,5.4375 -2.85712,-0.13595 -4.46309,-1.71971 -4.65625,-4.40625 -0.14229,-1.98 1.77358,-3.97856 4.875,-2.96875 0.49918,0.16244 0.53298,-0.7328 -0.0313,-1.1875 -1.45256,-1.17058 -7.207,-0.72308 -7.1875,3.875 0.018,4.26106 3.42652,7.1059 6.71875,7.125 6.895,0.0406 8.24899,-5.40232 8,-9.15625 -0.27589,-4.15969 -5.52191,-9.18819 -11.46875,-9.1875 z" transform="translate(0,1)" xlink:href="#path3497" style="opacity:.26785715;fill:#000;fill-opacity:1;fill-rule:evenodd;stroke:none;filter:url(#filter7817)"/><path style="fill:#eeeeec;fill-opacity:1;fill-rule:evenodd;stroke:none" id="path3497" d="m -882.26964,-154.56487 c -1.77373,-4.29368 -4.12525,-8.07759 -4.17752,-15.08988 -0.054,-7.24487 6.16073,-11.9354 11.07256,-11.93596 5.94684,-6.9e-4 11.1791,5.02127 11.45499,9.18096 0.24899,3.75393 -1.08684,9.21345 -7.98184,9.17287 -3.29223,-0.0191 -6.71314,-2.88314 -6.73117,-7.1442 -0.0195,-4.59808 5.74064,-5.04665 7.1932,-3.87607 0.56423,0.4547 0.54698,1.35449 0.0478,1.19205 -3.10142,-1.00981 -5.01744,0.98038 -4.87515,2.96038 0.19316,2.68654 1.78703,4.28491 4.64415,4.42086 4.12141,0.19577 5.27521,-3.81249 5.16984,-5.4393 -0.12804,-1.97792 -1.85258,-6.046 -7.21706,-6.7892 -2.53298,-0.35054 -4.63224,0.40814 -6.16565,1.89482 -1.53338,1.48681 -2.39546,3.02425 -2.52141,5.54625 -0.13026,2.60859 0.43926,4.13919 1.99944,7.56167 0.55729,1.22231 2.11394,3.68839 3.31944,6.15782 l -5.2316,2.18693 z"/><path id="path3520" d="m -854.9661,-180.31037 c 1.77375,4.29397 4.12525,8.07773 4.17753,15.09017 0.054,7.24487 -6.16075,11.9354 -11.07256,11.93567 -5.94685,10e-4 -11.17911,-5.02113 -11.45499,-9.1804 -0.24898,-3.75434 1.08683,-9.214 7.98185,-9.17315 3.29223,0.0191 6.71314,2.88315 6.73117,7.14407 0.0195,4.59794 -5.74065,5.04678 -7.19321,3.87607 -0.56422,-0.4547 -0.547,-1.35435 -0.0478,-1.19205 3.10141,1.00994 5.01741,-0.98052 4.87512,-2.96039 -0.19315,-2.68653 -1.78701,-4.28462 -4.64413,-4.42057 -4.1214,-0.19577 -5.27521,3.81263 -5.16985,5.43916 0.12804,1.97791 1.85257,6.04627 7.21708,6.78891 2.53297,0.35069 4.63223,-0.40799 6.16562,-1.89467 1.53341,-1.48695 2.3955,-3.02439 2.52144,-5.54597 0.13026,-2.60873 -0.43928,-4.13919 -1.99946,-7.56168 -0.55728,-1.22272 -2.11395,-3.68825 -3.31942,-6.15796 l 5.23158,-2.18721 z" style="opacity:.77380952;fill:#33649d;fill-opacity:1;fill-rule:evenodd;stroke:none;filter:url(#filter7743)"/><path style="fill:#a9c4e3;fill-opacity:1;fill-rule:evenodd;stroke:none" id="path3495" d="m -855.12143,-181.59071 c 1.77375,4.29397 4.12525,8.07773 4.17753,15.09017 0.054,7.24487 -6.16075,11.9354 -11.07256,11.93567 -5.94685,0.001 -11.17911,-5.02113 -11.45499,-9.1804 -0.24898,-3.75434 1.08683,-9.214 7.98185,-9.17315 3.29223,0.0191 6.71314,2.88315 6.73117,7.14407 0.0195,4.59794 -5.74065,5.04678 -7.19321,3.87607 -0.56422,-0.4547 -0.547,-1.35435 -0.0478,-1.19205 3.10141,1.00994 5.01741,-0.98052 4.87512,-2.96039 -0.19315,-2.68653 -1.78701,-4.28462 -4.64413,-4.42057 -4.1214,-0.19577 -5.27521,3.81263 -5.16985,5.43916 0.12804,1.97791 1.85257,6.04627 7.21708,6.78891 2.53297,0.35069 4.63223,-0.40799 6.16562,-1.89467 1.53341,-1.48695 2.3955,-3.02439 2.52144,-5.54597 0.13026,-2.60873 -0.43928,-4.13919 -1.99946,-7.56168 -0.55728,-1.22272 -2.11395,-3.68825 -3.31942,-6.15796 l 5.23158,-2.18721 z"/><path style="fill:#eeeeec;fill-opacity:1;fill-rule:evenodd;stroke:none" id="path3515" d="m -875.38304,-181.606 c -4.91183,5.6e-4 -11.11651,4.69263 -11.0625,11.9375 0.0523,7.01229 2.41377,10.80007 4.1875,15.09375 l 5.21875,-2.1875 c -0.46597,-0.95453 -0.97584,-1.86811 -1.46875,-2.75 l -1.15625,0 0,-2.09375 c -0.28405,-0.51168 -0.53107,-0.96939 -0.6875,-1.3125 -1.56018,-3.42248 -2.13026,-4.95391 -2,-7.5625 0.12595,-2.522 0.99787,-4.04444 2.53125,-5.53125 1.53341,-1.48668 3.62327,-2.25679 6.15625,-1.90625 2.53685,0.35146 4.25006,1.45286 5.375,2.71875 l 1.0625,0 0,1.5625 c 0.48367,0.93376 0.73811,1.83365 0.78125,2.5 0.0468,0.72276 -0.18116,1.91463 -0.78125,3 l 0,3.71875 c 2.85022,-1.80436 3.48945,-5.33225 3.3125,-8 -0.27589,-4.15969 -5.52191,-9.18819 -11.46875,-9.1875 z"/><path id="path7671" d="m -853.84375,-184.625 c -3.50912,1.44753 -10.63822,4.40905 -10.78125,4.46875 a 1.3300854,1.3300854 0 0 1 -1.34375,-0.1875 c -2.33455,-1.90654 -5.38328,-3.37018 -8.40625,-3.53125 a 1.3300854,1.3300854 0 0 1 -0.0313,0 c -7.38622,-0.46449 -14.35385,6.29145 -14.375,13.5625 a 1.3300854,1.3300854 0 0 1 0,0.0625 c -0.31884,6.4417 2.5025,12.60126 5.34375,18.6875 3.33516,-1.39164 10.50798,-4.39363 10.6875,-4.46875 a 1.3300854,1.3300854 0 0 1 1.34375,0.1875 c 2.29296,1.91617 5.21162,3.34962 8.15625,3.5625 a 1.3300854,1.3300854 0 0 1 0.0313,0 c 7.26094,0.60926 14.19323,-5.86236 14.5625,-12.96875 a 1.3300854,1.3300854 0 0 1 0.0313,-0.0313 c 0.52557,-6.62157 -2.43912,-12.97947 -5.21875,-19.34375 z" xlink:href="#path3493" style="opacity:.4107143;fill:none;stroke:url(#linearGradient7681);stroke-width:1.20000005;stroke-linecap:butt;stroke-linejoin:miter;stroke-miterlimit:4;stroke-opacity:1;stroke-dasharray:none"/></g><path style="opacity:.24257424;color:#000;fill:#000;fill-opacity:1;fill-rule:nonzero;stroke:none;stroke-width:3;marker:none;visibility:visible;display:inline;overflow:visible;filter:url(#filter5041);enable-background:accumulate" id="path4877-1" d="m 311.6151,92.025821 c -0.28377,-0.106469 -3.33245,-0.508606 -5.0834,-0.593373 -1.75095,-0.08477 -4.23617,0.635759 -3.33245,0.974828 0.90371,0.339072 7.17324,0.381456 8.35937,0.296689 1.18612,-0.08477 12.82146,0.932445 16.09743,1.017214 3.27597,0.08477 9.26308,-0.593376 9.37605,-1.313903 0.11296,-0.720525 -5.64822,-1.610587 -9.82791,-1.483435 -4.17968,0.127152 -15.53397,1.122663 -15.58909,1.10198 z" transform="matrix(0.86157624,0,0,0.86157624,42.840436,12.880404)"/></g><g style="display:inline;enable-background:new" id="g8011" transform="matrix(0.626108,0,0,0.626108,118.88024,86.334774)"><g id="g8013" transform="matrix(1.0798685,0,0,1,-26.202886,2.5)" style="opacity:.23214285"><path style="color:#000;fill:url(#radialGradient8037);fill-opacity:1;fill-rule:nonzero;stroke:none;stroke-width:1;marker:none;visibility:visible;display:inline;overflow:visible;filter:url(#filter7651);enable-background:accumulate" id="path8015" d="M 337,89.3125 C 337,91.34905 329.50077,93 320.25,93 c -9.25077,0 -16.75,-1.65095 -16.75,-3.6875 0,-2.03655 7.49923,-3.6875 16.75,-3.6875 9.25077,0 16.75,1.65095 16.75,3.6875 z" transform="matrix(1.3081204,0,0,1.3081204,-98.675563,-27.519004)"/><path id="path8017" d="M 337,89.3125 C 337,91.34905 329.50077,93 320.25,93 c -9.25077,0 -16.75,-1.65095 -16.75,-3.6875 0,-2.03655 7.49923,-3.6875 16.75,-3.6875 9.25077,0 16.75,1.65095 16.75,3.6875 z" transform="matrix(0.6439186,0,0,0.7199367,122.71668,25.013154)" style="opacity:.75595236;color:#000;fill:url(#radialGradient8039);fill-opacity:1;fill-rule:nonzero;stroke:none;stroke-width:1;marker:none;visibility:visible;display:inline;overflow:visible;enable-background:accumulate"/><path style="opacity:.75595236;color:#000;fill:url(#radialGradient8041);fill-opacity:1;fill-rule:nonzero;stroke:none;stroke-width:1;marker:none;visibility:visible;display:inline;overflow:visible;filter:url(#filter7917);enable-background:accumulate" id="path8019" d="M 337,89.3125 C 337,91.34905 329.50077,93 320.25,93 c -9.25077,0 -16.75,-1.65095 -16.75,-3.6875 0,-2.03655 7.49923,-3.6875 16.75,-3.6875 9.25077,0 16.75,1.65095 16.75,3.6875 z" transform="matrix(0.4013667,0,0,0.4487503,179.32654,49.733493)"/></g><g id="g8021" transform="matrix(1,0,0,1.0073462,1188.2743,241.25584)"><path id="path8023" d="m -853.11996,-186.35737 c -2.80368,1.15129 -11.7943,4.90029 -12.01846,4.99385 -2.51535,-2.05419 -5.78691,-3.65023 -9.17539,-3.83077 -8.21946,-0.51689 -15.77953,6.78247 -15.80308,14.88 -0.36084,7.29019 2.96645,14.03269 5.97231,20.47384 2.51471,-1.04915 11.65868,-4.86045 11.88923,-4.95692 2.46871,2.06304 5.63043,3.58328 8.92616,3.82154 8.0878,0.67864 15.6045,-6.30832 16.01538,-14.21538 0.58707,-7.39645 -2.82264,-14.23867 -5.68615,-20.85231 -0.0417,-0.10318 -0.0784,-0.21066 -0.12,-0.31385 z" style="color:#000;fill:url(#linearGradient7673-6-9);fill-opacity:1;fill-rule:evenodd;stroke:url(#linearGradient5079-4-2);stroke-width:1.5913341;stroke-linecap:butt;stroke-linejoin:miter;stroke-miterlimit:4;stroke-opacity:1;stroke-dasharray:none;stroke-dashoffset:0;marker:none;visibility:visible;display:inline;overflow:visible;enable-background:accumulate"/><g id="g8047" transform="matrix(0.888026,0,0,0.888026,-97.262819,-18.749557)"><path id="path8025" d="m -875.375,-181.59375 c -4.91183,5.6e-4 -11.1165,4.69263 -11.0625,11.9375 0.0523,7.01229 2.38252,10.80007 4.15625,15.09375 l 5.25,-2.1875 c -1.2055,-2.46943 -2.75521,-4.93394 -3.3125,-6.15625 -1.56018,-3.42248 -2.13026,-4.95391 -2,-7.5625 0.12595,-2.522 0.96662,-4.07569 2.5,-5.5625 1.53341,-1.48668 3.65452,-2.22554 6.1875,-1.875 5.36448,0.7432 7.09071,4.80333 7.21875,6.78125 0.10537,1.62681 -1.06609,5.63327 -5.1875,5.4375 -2.85712,-0.13595 -4.46309,-1.71971 -4.65625,-4.40625 -0.14229,-1.98 1.77358,-3.97856 4.875,-2.96875 0.49918,0.16244 0.53298,-0.7328 -0.0313,-1.1875 -1.45256,-1.17058 -7.207,-0.72308 -7.1875,3.875 0.018,4.26106 3.42652,7.1059 6.71875,7.125 6.895,0.0406 8.24899,-5.40232 8,-9.15625 -0.27589,-4.15969 -5.52191,-9.18819 -11.46875,-9.1875 z" transform="translate(0,1)" xlink:href="#path3497" style="opacity:.26785715;fill:#000;fill-opacity:1;fill-rule:evenodd;stroke:none;filter:url(#filter7817)"/><path style="fill:#eeeeec;fill-opacity:1;fill-rule:evenodd;stroke:none" id="path8027" d="m -882.26964,-154.56487 c -1.77373,-4.29368 -4.12525,-8.07759 -4.17752,-15.08988 -0.054,-7.24487 6.16073,-11.9354 11.07256,-11.93596 5.94684,-6.9e-4 11.1791,5.02127 11.45499,9.18096 0.24899,3.75393 -1.08684,9.21345 -7.98184,9.17287 -3.29223,-0.0191 -6.71314,-2.88314 -6.73117,-7.1442 -0.0195,-4.59808 5.74064,-5.04665 7.1932,-3.87607 0.56423,0.4547 0.54698,1.35449 0.0478,1.19205 -3.10142,-1.00981 -5.01744,0.98038 -4.87515,2.96038 0.19316,2.68654 1.78703,4.28491 4.64415,4.42086 4.12141,0.19577 5.27521,-3.81249 5.16984,-5.4393 -0.12804,-1.97792 -1.85258,-6.046 -7.21706,-6.7892 -2.53298,-0.35054 -4.63224,0.40814 -6.16565,1.89482 -1.53338,1.48681 -2.39546,3.02425 -2.52141,5.54625 -0.13026,2.60859 0.43926,4.13919 1.99944,7.56167 0.55729,1.22231 2.11394,3.68839 3.31944,6.15782 l -5.2316,2.18693 z"/><path id="path8029" d="m -854.9661,-180.31037 c 1.77375,4.29397 4.12525,8.07773 4.17753,15.09017 0.054,7.24487 -6.16075,11.9354 -11.07256,11.93567 -5.94685,10e-4 -11.17911,-5.02113 -11.45499,-9.1804 -0.24898,-3.75434 1.08683,-9.214 7.98185,-9.17315 3.29223,0.0191 6.71314,2.88315 6.73117,7.14407 0.0195,4.59794 -5.74065,5.04678 -7.19321,3.87607 -0.56422,-0.4547 -0.547,-1.35435 -0.0478,-1.19205 3.10141,1.00994 5.01741,-0.98052 4.87512,-2.96039 -0.19315,-2.68653 -1.78701,-4.28462 -4.64413,-4.42057 -4.1214,-0.19577 -5.27521,3.81263 -5.16985,5.43916 0.12804,1.97791 1.85257,6.04627 7.21708,6.78891 2.53297,0.35069 4.63223,-0.40799 6.16562,-1.89467 1.53341,-1.48695 2.3955,-3.02439 2.52144,-5.54597 0.13026,-2.60873 -0.43928,-4.13919 -1.99946,-7.56168 -0.55728,-1.22272 -2.11395,-3.68825 -3.31942,-6.15796 l 5.23158,-2.18721 z" style="opacity:.77380952;fill:#33649d;fill-opacity:1;fill-rule:evenodd;stroke:none;filter:url(#filter7743)"/><path style="fill:#a9c4e3;fill-opacity:1;fill-rule:evenodd;stroke:none" id="path8031" d="m -855.12143,-181.59071 c 1.77375,4.29397 4.12525,8.07773 4.17753,15.09017 0.054,7.24487 -6.16075,11.9354 -11.07256,11.93567 -5.94685,0.001 -11.17911,-5.02113 -11.45499,-9.1804 -0.24898,-3.75434 1.08683,-9.214 7.98185,-9.17315 3.29223,0.0191 6.71314,2.88315 6.73117,7.14407 0.0195,4.59794 -5.74065,5.04678 -7.19321,3.87607 -0.56422,-0.4547 -0.547,-1.35435 -0.0478,-1.19205 3.10141,1.00994 5.01741,-0.98052 4.87512,-2.96039 -0.19315,-2.68653 -1.78701,-4.28462 -4.64413,-4.42057 -4.1214,-0.19577 -5.27521,3.81263 -5.16985,5.43916 0.12804,1.97791 1.85257,6.04627 7.21708,6.78891 2.53297,0.35069 4.63223,-0.40799 6.16562,-1.89467 1.53341,-1.48695 2.3955,-3.02439 2.52144,-5.54597 0.13026,-2.60873 -0.43928,-4.13919 -1.99946,-7.56168 -0.55728,-1.22272 -2.11395,-3.68825 -3.31942,-6.15796 l 5.23158,-2.18721 z"/><path style="fill:#eeeeec;fill-opacity:1;fill-rule:evenodd;stroke:none" id="path8033" d="m -875.38304,-181.606 c -4.91183,5.6e-4 -11.11651,4.69263 -11.0625,11.9375 0.0523,7.01229 2.41377,10.80007 4.1875,15.09375 l 5.21875,-2.1875 c -0.46597,-0.95453 -0.97584,-1.86811 -1.46875,-2.75 l -1.15625,0 0,-2.09375 c -0.28405,-0.51168 -0.53107,-0.96939 -0.6875,-1.3125 -1.56018,-3.42248 -2.13026,-4.95391 -2,-7.5625 0.12595,-2.522 0.99787,-4.04444 2.53125,-5.53125 1.53341,-1.48668 3.62327,-2.25679 6.15625,-1.90625 2.53685,0.35146 4.25006,1.45286 5.375,2.71875 l 1.0625,0 0,1.5625 c 0.48367,0.93376 0.73811,1.83365 0.78125,2.5 0.0468,0.72276 -0.18116,1.91463 -0.78125,3 l 0,3.71875 c 2.85022,-1.80436 3.48945,-5.33225 3.3125,-8 -0.27589,-4.15969 -5.52191,-9.18819 -11.46875,-9.1875 z"/></g><path style="opacity:.55940594;fill:none;stroke:url(#linearGradient8045);stroke-width:1.90960120999999994;stroke-linecap:butt;stroke-linejoin:miter;stroke-miterlimit:4;stroke-opacity:1;stroke-dasharray:none" id="path8035" d="m -854.0625,-184.125 c -3.63143,1.49922 -10.28347,4.26125 -10.40625,4.3125 a 1.6905729,1.6905729 0 0 1 -1.71875,-0.25 c -2.28555,-1.86652 -5.29484,-3.28171 -8.21875,-3.4375 -7.16038,-0.45029 -14.01076,6.14045 -14.03125,13.1875 a 1.6905729,1.6905729 0 0 1 0,0.0937 c -0.30737,6.20986 2.40625,12.18529 5.1875,18.15625 3.47426,-1.44972 10.17729,-4.24285 10.34375,-4.3125 a 1.6905729,1.6905729 0 0 1 1.75,0.25 c 2.24533,1.87636 5.08802,3.26275 7.9375,3.46875 a 1.6905729,1.6905729 0 0 1 0.0313,0 c 7.03683,0.59045 13.8295,-5.73561 14.1875,-12.625 a 1.6905729,1.6905729 0 0 1 0,-0.0313 c 0.50605,-6.37568 -2.33138,-12.56682 -5.0625,-18.8125 z" xlink:href="#path3493"/></g><path style="opacity:.24257424;color:#000;fill:#000;fill-opacity:1;fill-rule:nonzero;stroke:none;stroke-width:3;marker:none;visibility:visible;display:inline;overflow:visible;filter:url(#filter5041-5);enable-background:accumulate" id="path4877-1-5" d="m 311.6151,92.025821 c -0.28377,-0.106469 -3.33245,-0.508606 -5.0834,-0.593373 -1.75095,-0.08477 -4.23617,0.635759 -3.33245,0.974828 0.90371,0.339072 7.17324,0.381456 8.35937,0.296689 1.18612,-0.08477 12.82146,0.932445 16.09743,1.017214 3.27597,0.08477 9.26308,-0.593376 9.37605,-1.313903 0.11296,-0.720525 -5.64822,-1.610587 -9.82791,-1.483435 -4.17968,0.127152 -15.53397,1.122663 -15.58909,1.10198 z" transform="matrix(0.77636379,0,0,0.77636379,71.372284,21.026123)"/></g><g style="display:inline;enable-background:new" id="g8054" transform="matrix(0.46389722,0,0,0.46389722,165.61637,143.99144)"><g style="opacity:.23214285" id="g8056" transform="matrix(1.0798685,0,0,1,-26.202886,2.5)"><path id="path8058" d="M 337,89.3125 C 337,91.34905 329.50077,93 320.25,93 c -9.25077,0 -16.75,-1.65095 -16.75,-3.6875 0,-2.03655 7.49923,-3.6875 16.75,-3.6875 9.25077,0 16.75,1.65095 16.75,3.6875 z" transform="matrix(1.3081204,0,0,1.3081204,-98.675563,-27.519004)" style="color:#000;fill:url(#radialGradient8082);fill-opacity:1;fill-rule:nonzero;stroke:none;stroke-width:1;marker:none;visibility:visible;display:inline;overflow:visible;filter:url(#filter7651);enable-background:accumulate"/><path style="opacity:.75595236;color:#000;fill:url(#radialGradient8084);fill-opacity:1;fill-rule:nonzero;stroke:none;stroke-width:1;marker:none;visibility:visible;display:inline;overflow:visible;enable-background:accumulate" id="path8060" d="M 337,89.3125 C 337,91.34905 329.50077,93 320.25,93 c -9.25077,0 -16.75,-1.65095 -16.75,-3.6875 0,-2.03655 7.49923,-3.6875 16.75,-3.6875 9.25077,0 16.75,1.65095 16.75,3.6875 z" transform="matrix(0.6439186,0,0,0.7199367,122.71668,25.013154)"/><path id="path8062" d="M 337,89.3125 C 337,91.34905 329.50077,93 320.25,93 c -9.25077,0 -16.75,-1.65095 -16.75,-3.6875 0,-2.03655 7.49923,-3.6875 16.75,-3.6875 9.25077,0 16.75,1.65095 16.75,3.6875 z" transform="matrix(0.4013667,0,0,0.4487503,179.32654,49.733493)" style="opacity:.75595236;color:#000;fill:url(#radialGradient8086);fill-opacity:1;fill-rule:nonzero;stroke:none;stroke-width:1;marker:none;visibility:visible;display:inline;overflow:visible;filter:url(#filter7917);enable-background:accumulate"/></g><g id="g8064" transform="matrix(1,0,0,1.0073462,1187.524,242.02383)"><path style="color:#000;fill:url(#linearGradient7673-6-2);fill-opacity:1;fill-rule:evenodd;stroke:url(#linearGradient5079-4-8);stroke-width:2.14777541;stroke-linecap:butt;stroke-linejoin:miter;stroke-miterlimit:4;stroke-opacity:1;stroke-dasharray:none;stroke-dashoffset:0;marker:none;visibility:visible;display:inline;overflow:visible;enable-background:accumulate" id="path8066" d="m -853.11996,-186.35737 c -2.80368,1.15129 -11.7943,4.90029 -12.01846,4.99385 -2.51535,-2.05419 -5.78691,-3.65023 -9.17539,-3.83077 -8.21946,-0.51689 -15.77953,6.78247 -15.80308,14.88 -0.36084,7.29019 2.96645,14.03269 5.97231,20.47384 2.51471,-1.04915 11.65868,-4.86045 11.88923,-4.95692 2.46871,2.06304 5.63043,3.58328 8.92616,3.82154 8.0878,0.67864 15.6045,-6.30832 16.01538,-14.21538 0.58707,-7.39645 -2.82264,-14.23867 -5.68615,-20.85231 -0.0417,-0.10318 -0.0784,-0.21066 -0.12,-0.31385 z"/><g id="g8068" transform="matrix(0.97233051,0,0,0.91756027,-23.94132,-13.865404)"><path style="opacity:.26785715;fill:#000;fill-opacity:1;fill-rule:evenodd;stroke:none;filter:url(#filter7817)" id="path8070" d="m -875.375,-181.59375 c -4.91183,5.6e-4 -11.1165,4.69263 -11.0625,11.9375 0.0523,7.01229 2.38252,10.80007 4.15625,15.09375 l 5.25,-2.1875 c -1.2055,-2.46943 -2.75521,-4.93394 -3.3125,-6.15625 -1.56018,-3.42248 -2.13026,-4.95391 -2,-7.5625 0.12595,-2.522 0.96662,-4.07569 2.5,-5.5625 1.53341,-1.48668 3.65452,-2.22554 6.1875,-1.875 5.36448,0.7432 7.09071,4.80333 7.21875,6.78125 0.10537,1.62681 -1.06609,5.63327 -5.1875,5.4375 -2.85712,-0.13595 -4.46309,-1.71971 -4.65625,-4.40625 -0.14229,-1.98 1.77358,-3.97856 4.875,-2.96875 0.49918,0.16244 0.53298,-0.7328 -0.0313,-1.1875 -1.45256,-1.17058 -7.207,-0.72308 -7.1875,3.875 0.018,4.26106 3.42652,7.1059 6.71875,7.125 6.895,0.0406 8.24899,-5.40232 8,-9.15625 -0.27589,-4.15969 -5.52191,-9.18819 -11.46875,-9.1875 z" transform="translate(0,1)" xlink:href="#path3497"/><path id="path8072" d="m -882.26964,-154.56487 c -1.77373,-4.29368 -4.12525,-8.07759 -4.17752,-15.08988 -0.054,-7.24487 6.16073,-11.9354 11.07256,-11.93596 5.94684,-6.9e-4 11.1791,5.02127 11.45499,9.18096 0.24899,3.75393 -1.08684,9.21345 -7.98184,9.17287 -3.29223,-0.0191 -6.71314,-2.88314 -6.73117,-7.1442 -0.0195,-4.59808 5.74064,-5.04665 7.1932,-3.87607 0.56423,0.4547 0.54698,1.35449 0.0478,1.19205 -3.10142,-1.00981 -5.01744,0.98038 -4.87515,2.96038 0.19316,2.68654 1.78703,4.28491 4.64415,4.42086 4.12141,0.19577 5.27521,-3.81249 5.16984,-5.4393 -0.12804,-1.97792 -1.85258,-6.046 -7.21706,-6.7892 -2.53298,-0.35054 -4.63224,0.40814 -6.16565,1.89482 -1.53338,1.48681 -2.39546,3.02425 -2.52141,5.54625 -0.13026,2.60859 0.43926,4.13919 1.99944,7.56167 0.55729,1.22231 2.11394,3.68839 3.31944,6.15782 l -5.2316,2.18693 z" style="fill:#eeeeec;fill-opacity:1;fill-rule:evenodd;stroke:none"/><path style="opacity:.77380952;fill:#33649d;fill-opacity:1;fill-rule:evenodd;stroke:none;filter:url(#filter7743)" id="path8074" d="m -854.9661,-180.31037 c 1.77375,4.29397 4.12525,8.07773 4.17753,15.09017 0.054,7.24487 -6.16075,11.9354 -11.07256,11.93567 -5.94685,10e-4 -11.17911,-5.02113 -11.45499,-9.1804 -0.24898,-3.75434 1.08683,-9.214 7.98185,-9.17315 3.29223,0.0191 6.71314,2.88315 6.73117,7.14407 0.0195,4.59794 -5.74065,5.04678 -7.19321,3.87607 -0.56422,-0.4547 -0.547,-1.35435 -0.0478,-1.19205 3.10141,1.00994 5.01741,-0.98052 4.87512,-2.96039 -0.19315,-2.68653 -1.78701,-4.28462 -4.64413,-4.42057 -4.1214,-0.19577 -5.27521,3.81263 -5.16985,5.43916 0.12804,1.97791 1.85257,6.04627 7.21708,6.78891 2.53297,0.35069 4.63223,-0.40799 6.16562,-1.89467 1.53341,-1.48695 2.3955,-3.02439 2.52144,-5.54597 0.13026,-2.60873 -0.43928,-4.13919 -1.99946,-7.56168 -0.55728,-1.22272 -2.11395,-3.68825 -3.31942,-6.15796 l 5.23158,-2.18721 z"/><path id="path8076" d="m -855.12143,-181.59071 c 1.77375,4.29397 4.12525,8.07773 4.17753,15.09017 0.054,7.24487 -6.16075,11.9354 -11.07256,11.93567 -5.94685,0.001 -11.17911,-5.02113 -11.45499,-9.1804 -0.24898,-3.75434 1.08683,-9.214 7.98185,-9.17315 3.29223,0.0191 6.71314,2.88315 6.73117,7.14407 0.0195,4.59794 -5.74065,5.04678 -7.19321,3.87607 -0.56422,-0.4547 -0.547,-1.35435 -0.0478,-1.19205 3.10141,1.00994 5.01741,-0.98052 4.87512,-2.96039 -0.19315,-2.68653 -1.78701,-4.28462 -4.64413,-4.42057 -4.1214,-0.19577 -5.27521,3.81263 -5.16985,5.43916 0.12804,1.97791 1.85257,6.04627 7.21708,6.78891 2.53297,0.35069 4.63223,-0.40799 6.16562,-1.89467 1.53341,-1.48695 2.3955,-3.02439 2.52144,-5.54597 0.13026,-2.60873 -0.43928,-4.13919 -1.99946,-7.56168 -0.55728,-1.22272 -2.11395,-3.68825 -3.31942,-6.15796 l 5.23158,-2.18721 z" style="fill:#a9c4e3;fill-opacity:1;fill-rule:evenodd;stroke:none"/><path id="path8078" d="m -875.38304,-181.606 c -4.91183,5.6e-4 -11.11651,4.69263 -11.0625,11.9375 0.0523,7.01229 2.41377,10.80007 4.1875,15.09375 l 5.21875,-2.1875 c -0.46597,-0.95453 -0.97584,-1.86811 -1.46875,-2.75 l -1.15625,0 0,-2.09375 c -0.28405,-0.51168 -0.53107,-0.96939 -0.6875,-1.3125 -1.56018,-3.42248 -2.13026,-4.95391 -2,-7.5625 0.12595,-2.522 0.99787,-4.04444 2.53125,-5.53125 1.53341,-1.48668 3.62327,-2.25679 6.15625,-1.90625 2.53685,0.35146 4.25006,1.45286 5.375,2.71875 l 1.0625,0 0,1.5625 c 0.48367,0.93376 0.73811,1.83365 0.78125,2.5 0.0468,0.72276 -0.18116,1.91463 -0.78125,3 l 0,3.71875 c 2.85022,-1.80436 3.48945,-5.33225 3.3125,-8 -0.27589,-4.15969 -5.52191,-9.18819 -11.46875,-9.1875 z" style="fill:#eeeeec;fill-opacity:1;fill-rule:evenodd;stroke:none"/></g><path id="path8080" d="m -854.59375,-182.875 c -3.76235,1.55549 -9.42473,3.90609 -9.5,3.9375 a 2.6467679,2.6467679 0 0 1 -2.71875,-0.375 c -2.15558,-1.76038 -4.9951,-3.07696 -7.65625,-3.21875 -6.56137,-0.41262 -12.98123,5.76586 -13,12.21875 a 2.6467679,2.6467679 0 0 1 0,0.125 c -0.2786,5.62864 2.10797,11.21353 4.71875,16.875 3.65821,-1.52654 9.33392,-3.88108 9.46875,-3.9375 a 2.6467679,2.6467679 0 0 1 2.71875,0.40625 c 2.11898,1.77078 4.80918,3.06225 7.40625,3.25 a 2.6467679,2.6467679 0 0 1 0.0313,0 c 6.4424,0.54058 12.82816,-5.40495 13.15625,-11.71875 a 2.6467679,2.6467679 0 0 1 0.0313,-0.0937 c 0.45864,-5.77842 -2.06288,-11.52364 -4.65625,-17.46875 z" xlink:href="#path3493" style="opacity:.7029703;fill:none;stroke:url(#linearGradient8090);stroke-width:2.61592244999999979;stroke-linecap:butt;stroke-linejoin:miter;stroke-miterlimit:4;stroke-opacity:1;stroke-dasharray:none"/></g></g><g style="display:inline;enable-background:new" id="g8094" transform="matrix(0.30181192,-0.1742512,0.16750981,0.29013549,202.40066,251.28269)"><g id="g8104" transform="matrix(1,0,0,1.0073462,1187.524,242.02383)"><path id="path8106" d="m -847.03493,-177.57653 c -3.03408,-1.5e-4 -12.78553,0.0521 -13.02869,0.0535 -1.53323,-2.85273 -3.94166,-6.30988 -7.00324,-7.76264 -7.39608,-3.59691 -17.19287,0.27896 -20.33297,7.75249 -3.14085,6.59951 -2.66281,13.72219 -2.36573,20.81482 2.72772,-0.0151 12.64487,-0.0668 12.89505,-0.0684 1.48673,2.84321 3.82286,5.81824 6.7765,7.28913 7.21213,3.69642 16.84854,0.0928 20.2732,-7.05778 3.39082,-6.61184 2.87502,-13.48756 2.7759,-20.68555 10e-4,-0.11116 0.009,-0.22441 0.01,-0.33555 l -2e-5,-2e-5 z" style="color:#000;fill:url(#linearGradient7673-6);fill-opacity:1;fill-rule:evenodd;stroke:url(#linearGradient5079-4);stroke-width:2.91589999000000022;stroke-linecap:butt;stroke-linejoin:miter;stroke-miterlimit:4;stroke-opacity:1;stroke-dasharray:none;stroke-dashoffset:0;marker:none;visibility:visible;display:inline;overflow:visible;enable-background:accumulate"/><g id="g8108" transform="matrix(0.90170896,0.40162054,-0.35540458,0.85091672,-144.89542,324.76682)"><path style="fill:#eeeeec;fill-opacity:1;fill-rule:evenodd;stroke:none" id="path8112" d="m -882.26964,-154.56487 c -1.77373,-4.29368 -4.12525,-8.07759 -4.17752,-15.08988 -0.054,-7.24487 6.16073,-11.9354 11.07256,-11.93596 5.94684,-6.9e-4 10.6221,5.11114 11.45499,9.18096 1.00682,4.91974 -0.57894,11.25897 -7.47394,11.21839 -3.29223,-0.0191 -6.94325,-3.97156 -6.96128,-8.23262 -0.0195,-4.59808 6.14835,-5.02144 7.60091,-3.85086 0.56423,0.4547 0.9563,2.14069 0.45712,1.97825 -3.10142,-1.00981 -4.65741,1.13691 -4.51512,3.11691 0.19316,2.68654 0.88455,2.75209 3.74167,2.88804 4.12141,0.19577 4.72284,-4.20471 4.61747,-5.83152 -0.12804,-1.97792 -1.85258,-6.046 -7.21706,-6.7892 -2.53298,-0.35054 -4.63224,0.40814 -6.16565,1.89482 -1.53338,1.48681 -2.39546,3.02425 -2.52141,5.54625 -0.13026,2.60859 0.43926,4.13919 1.99944,7.56167 0.55729,1.22231 2.11394,3.68839 3.31944,6.15782 l -5.2316,2.18693 -2e-5,0 z"/><path style="fill:#eeeeec;fill-opacity:1;fill-rule:evenodd;stroke:none" id="path8118" d="m -885.80611,-167.79388 c 0.0523,7.01229 1.77434,8.92545 3.54807,13.21913 l 5.21875,-2.1875 c -1.80993,-4.27202 -3.52623,-7.72255 -4.46943,-12.31641 0.1215,-6.35 8.96207,-10.71209 13.27417,-4.84469 0.48367,0.93376 1.50585,2.01539 1.54899,2.68174 0.0468,0.72276 0.55046,2.00462 -0.0497,3.08999 l 0.32547,4.54453 c 2.85022,-1.80436 2.67242,-6.14366 2.49547,-8.81141 -0.27589,-4.15969 -5.46271,-9.5426 -11.40955,-9.54191 -5.04091,0.27293 -9.41005,6.92821 -10.48224,14.16653 z"/><path id="path4970" d="m -861.80468,-154.82262 c 4.91183,-5.6e-4 10.57405,-6.06891 10.52005,-13.31378 -0.0523,-7.01229 -1.87132,-9.42379 -3.64504,-13.71747 l -5.21876,2.18751 c 1.80994,4.27201 3.52623,7.72254 4.46943,12.3164 -0.1215,6.35 -6.31195,10.87596 -10.62405,5.00855 -0.48367,-0.93376 -1.42522,-3.57694 -1.46836,-4.24329 -0.0468,-0.72276 1.45354,-1.20936 1.06895,-3.02698 0.71923,-1.63594 -0.30678,-2.11956 -0.77765,-2.91642 -2.85022,1.80436 -5.97027,5.85023 -5.79332,8.51798 0.27589,4.15969 5.52191,9.1882 11.46875,9.1875 z" style="color:#000;fill:#c9daed;fill-opacity:1;fill-rule:evenodd;stroke:none;marker:none;visibility:visible;display:inline;overflow:visible;enable-background:accumulate"/><path style="color:#000;fill:#a9c4e3;fill-opacity:1;fill-rule:evenodd;stroke:none;stroke-width:1;marker:none;visibility:visible;display:inline;overflow:visible;enable-background:accumulate" id="path4993" d="m 313.2244,215.96512 -0.40625,1.09375 c 0,0 0.69544,0.40107 0.525,1.11146 -0.0859,0.35812 -1.12744,0.67557 -1.12744,0.67557 l 0.92726,0.57785 c 0,0 1.64223,-0.0913 1.71597,-1.86491 0.0289,-0.69451 -1.63454,-1.59372 -1.63454,-1.59372 z" transform="matrix(2.6830687,-1.2663701,1.1572429,2.9360801,-1954.328,-411.55995)"/></g><path style="opacity:.6980198;fill:none;stroke:url(#radialGradient4968);stroke-width:2.91589999000000022;stroke-linecap:butt;stroke-linejoin:miter;stroke-miterlimit:4;stroke-opacity:1;stroke-dasharray:none" id="path4958" d="m -872.96875,-183.71875 c -4.83158,-0.0618 -9.92021,2.95756 -11.75,7.3125 a 2.9294213,2.9294213 0 0 1 -0.0313,0.125 c -2.3621,4.9632 -2.31845,10.60638 -2.09375,16.625 3.98695,-0.0197 9.8498,-0.0619 9.9375,-0.0625 a 2.9294213,2.9294213 0 0 1 2.625,1.59375 c 1.28946,2.46595 3.4006,4.95452 5.5,6 a 2.9294213,2.9294213 0 0 1 0.0313,0.0313 c 5.58029,2.86005 13.61617,-0.15416 16.28125,-5.71875 a 2.9294213,2.9294213 0 0 1 0.0625,-0.0937 c 2.58545,-5.04143 2.50928,-10.56358 2.40625,-16.71875 -4.09672,0.008 -10.00571,0.0311 -10.03125,0.0313 a 2.9294213,2.9294213 0 0 1 -2.625,-1.5625 c -1.39396,-2.59361 -3.67796,-5.53003 -5.65625,-6.46875 a 2.9294213,2.9294213 0 0 1 -0.0313,-0.0313 c -1.44078,-0.70069 -3.02999,-1.0421 -4.625,-1.0625 z" xlink:href="#path8106"/></g></g><path style="color:#000;fill:none;stroke:none;stroke-width:1;marker:none;visibility:visible;display:inline;overflow:visible;enable-background:accumulate" id="path4673" d="m -75,-87.5 c 0,7.666667 0,15.333333 0,23 40.916666,-1.25 113.666666,0.125 164.1875,-2.1875 C 139.70833,-69 168,-75 168,-75 c 8.20422,0.837763 4.79473,-7.851767 -3.01608,-7.012376 0,0 -158.822614,-4.825083 -239.98392,-5.487624 z"/><g id="g9395"><g style="display:inline;enable-background:new" id="g3859" transform="matrix(5.2828404,0,0,5.2828404,-1539.7153,-242.88711)"><g style="opacity:.23214285" id="g3861" transform="matrix(1.0798685,0,0,1,-26.202886,2.5)"><path id="path3863" d="M 337,89.3125 C 337,91.34905 329.50077,93 320.25,93 c -9.25077,0 -16.75,-1.65095 -16.75,-3.6875 0,-2.03655 7.49923,-3.6875 16.75,-3.6875 9.25077,0 16.75,1.65095 16.75,3.6875 z" transform="matrix(1.3081204,0,0,1.3081204,-98.675563,-27.519004)" style="color:#000;fill:url(#radialGradient3885);fill-opacity:1;fill-rule:nonzero;stroke:none;stroke-width:1;marker:none;visibility:visible;display:inline;overflow:visible;filter:url(#filter7651);enable-background:accumulate"/><path style="opacity:.75595236;color:#000;fill:url(#radialGradient3887);fill-opacity:1;fill-rule:nonzero;stroke:none;stroke-width:1;marker:none;visibility:visible;display:inline;overflow:visible;enable-background:accumulate" id="path3865" d="M 337,89.3125 C 337,91.34905 329.50077,93 320.25,93 c -9.25077,0 -16.75,-1.65095 -16.75,-3.6875 0,-2.03655 7.49923,-3.6875 16.75,-3.6875 9.25077,0 16.75,1.65095 16.75,3.6875 z" transform="matrix(0.6439186,0,0,0.7199367,122.71668,25.013154)"/><path id="path3867" d="M 337,89.3125 C 337,91.34905 329.50077,93 320.25,93 c -9.25077,0 -16.75,-1.65095 -16.75,-3.6875 0,-2.03655 7.49923,-3.6875 16.75,-3.6875 9.25077,0 16.75,1.65095 16.75,3.6875 z" transform="matrix(0.4013667,0,0,0.4487503,179.32654,49.733493)" style="opacity:.75595236;color:#000;fill:url(#radialGradient3889);fill-opacity:1;fill-rule:nonzero;stroke:none;stroke-width:1;marker:none;visibility:visible;display:inline;overflow:visible;filter:url(#filter7917);enable-background:accumulate"/></g><g style="stroke:none" id="g3869" transform="translate(1187.524,240.64776)"><path style="fill:url(#linearGradient3891);fill-opacity:1;fill-rule:evenodd;stroke:url(#linearGradient4803);stroke-width:.56787634;stroke-linecap:butt;stroke-linejoin:miter;stroke-miterlimit:4;stroke-opacity:1;stroke-dasharray:none;filter:url(#filter4793)" id="path3871" d="m -853.11996,-186.35737 c -2.80368,1.15129 -11.7943,4.90029 -12.01846,4.99385 -2.51535,-2.05419 -5.78691,-3.65023 -9.17539,-3.83077 -8.21946,-0.51689 -15.77953,6.78247 -15.80308,14.88 -0.36084,7.29019 2.96645,14.03269 5.97231,20.47384 2.51471,-1.04915 11.65868,-4.86045 11.88923,-4.95692 2.46871,2.06304 5.63043,3.58328 8.92616,3.82154 8.0878,0.67864 15.6045,-6.30832 16.01538,-14.21538 0.58707,-7.39645 -2.82264,-14.23867 -5.68615,-20.85231 -0.0417,-0.10318 -0.0784,-0.21066 -0.12,-0.31385 z" clip-path="url(#clipPath4781)"/><path id="path4817" d="m -853.5,-185.40625 c -3.24683,1.33718 -11.16449,4.61268 -11.34375,4.6875 a 0.70562737,0.70562737 0 0 1 -0.71875,-0.125 c -2.41944,-1.97586 -5.58668,-3.45479 -8.78125,-3.625 -7.77741,-0.48909 -15.04023,6.49718 -15.0625,14.15625 a 0.70562737,0.70562737 0 0 1 0,0.0313 c -0.3385,6.83877 2.66535,13.26729 5.59375,19.53125 3.00192,-1.25252 11.07812,-4.63375 11.28125,-4.71875 a 0.70562737,0.70562737 0 0 1 0.71875,0.125 c 2.37547,1.98512 5.42178,3.43146 8.53125,3.65625 a 0.70562737,0.70562737 0 0 1 0,0.0313 c 7.64914,0.64183 14.86119,-6.0802 15.25,-13.5625 a 0.70562737,0.70562737 0 0 1 0,-0.0313 c 0.55749,-7.02378 -2.63015,-13.62964 -5.46875,-20.15625 z" style="fill:none;stroke:url(#radialGradient4899);stroke-width:.22715054;stroke-linecap:butt;stroke-linejoin:miter;stroke-miterlimit:4;stroke-opacity:1;stroke-dasharray:none"/><path style="fill:none;stroke:url(#radialGradient4825);stroke-width:.56787634;stroke-linecap:butt;stroke-linejoin:miter;stroke-miterlimit:4;stroke-opacity:1;stroke-dasharray:none;filter:url(#filter4837)" id="path4827" d="m -853.5,-185.40625 c -3.24683,1.33718 -11.16449,4.61268 -11.34375,4.6875 a 0.70562737,0.70562737 0 0 1 -0.71875,-0.125 c -2.41944,-1.97586 -5.58668,-3.45479 -8.78125,-3.625 -7.77741,-0.48909 -15.04023,6.49718 -15.0625,14.15625 a 0.70562737,0.70562737 0 0 1 0,0.0313 c -0.3385,6.83877 2.66535,13.26729 5.59375,19.53125 3.00192,-1.25252 11.07812,-4.63375 11.28125,-4.71875 a 0.70562737,0.70562737 0 0 1 0.71875,0.125 c 2.37547,1.98512 5.42178,3.43146 8.53125,3.65625 a 0.70562737,0.70562737 0 0 1 0,0.0313 c 7.64914,0.64183 14.86119,-6.0802 15.25,-13.5625 a 0.70562737,0.70562737 0 0 1 0,-0.0313 c 0.55749,-7.02378 -2.63015,-13.62964 -5.46875,-20.15625 z"/></g><path id="path4877" d="m 311.6151,92.025821 c -0.28377,-0.106469 -3.33245,-0.508606 -5.0834,-0.593373 -1.75095,-0.08477 -4.23617,0.635759 -3.33245,0.974828 0.90371,0.339072 7.17324,0.381456 8.35937,0.296689 1.18612,-0.08477 12.82146,0.932445 16.09743,1.017214 3.27597,0.08477 9.26308,-0.593376 9.37605,-1.313903 0.11296,-0.720525 -5.64822,-1.610587 -9.82791,-1.483435 -4.17968,0.127152 -15.53397,1.122663 -15.58909,1.10198 z" transform="matrix(0.92688014,0,0,0.92688014,23.399855,6.7504247)" style="opacity:.1039604;color:#000;fill:#000;fill-opacity:1;fill-rule:nonzero;stroke:none;stroke-width:3;marker:none;visibility:visible;display:inline;overflow:visible;filter:url(#filter4895);enable-background:accumulate"/></g><path style="opacity:.80693066;color:#000;fill:#294e7b;fill-opacity:1;fill-rule:nonzero;stroke:none;stroke-width:1;marker:none;visibility:visible;display:inline;overflow:visible;filter:url(#filter4851);enable-background:accumulate" id="path4841" d="m 75.170084,213.55399 c 6.886611,-3.36933 13.773221,-6.73865 20.659832,-10.10798 -4.826745,-9.37758 -9.708797,-20.32997 -14.082402,-32.53861 -1.860813,-5.29621 -3.635809,-10.72014 -5.033932,-16.22486 -1.398123,-5.50472 -2.417988,-11.09008 -2.705091,-16.70834 -0.234201,-5.16 0.0226,-10.42391 0.989226,-15.43991 0.966626,-5.01599 2.643957,-9.78221 5.254421,-13.909 2.520249,-4.22502 6.051176,-8.00124 10.1933,-11.022272 4.142124,-3.021031 8.892874,-5.285416 13.816792,-6.500745 4.9435,-1.252142 10.2305,-1.470411 15.38994,-0.759018 5.15945,0.711393 10.18876,2.351708 14.64968,4.795407 6.49092,3.583628 12.00861,8.830368 15.46232,14.863478 1.81665,3.15487 3.14839,6.58207 3.9397,10.04488 0.79132,3.46281 1.04203,6.96065 0.72047,10.29813 -0.30678,3.24758 -1.08695,6.39821 -2.28991,9.2298 -0.55325,1.30229 -1.19587,2.53802 -1.92348,3.69068 -2.45822,3.91148 -5.87747,7.10616 -9.62599,8.98654 -2.23888,1.16656 -4.70766,1.91433 -7.20528,2.28401 -2.49762,0.36967 -5.02445,0.36113 -7.43024,0.0132 -2.72479,-0.3862 -5.36087,-1.23987 -7.78845,-2.40724 -2.42757,-1.16736 -4.64701,-2.64883 -6.58411,-4.32426 0,0 0,-10e-6 0,-10e-6 -2.30059,-2.04335 -4.23929,-4.36448 -5.68575,-6.76994 -1.44646,-2.40547 -2.40221,-4.89655 -2.84195,-7.34842 -0.55652,-2.9333 -0.47217,-5.8211 0.13389,-8.36399 0.72154,-3.04083 2.14913,-5.6639 3.84871,-7.62732 1.50345,-1.7524 3.25033,-3.03687 4.90817,-3.94308 1.65784,-0.90621 3.23323,-1.43955 4.57168,-1.75581 1.56384,-0.37143 2.81433,-0.45966 3.65121,-0.49199 0.83688,-0.0323 1.2671,-0.0105 1.2671,-0.0105 1.48468,0.34667 2.67892,0.66934 3.67759,0.87642 0.99866,0.20708 1.80206,0.30243 2.44895,0.2538 1.2938,-0.0973 1.99129,-0.80195 1.85571,-2.004 -0.0678,-0.60103 -0.35342,-1.31829 -0.90378,-2.07472 -0.55036,-0.75643 -1.36764,-1.55157 -2.46891,-2.26114 -1.10127,-0.70958 -2.48852,-1.33173 -4.11734,-1.71216 -1.62883,-0.38043 -3.50077,-0.516 -5.48324,-0.26002 0,0 -0.24966,0.0118 -0.73883,0.0558 0,0 0,0 0,0 -0.97281,0.0905 -2.9063,0.28669 -5.5511,1.13697 -1.32239,0.42514 -2.81877,1.02084 -4.41585,1.88313 -1.59707,0.86229 -3.29595,1.99195 -4.97514,3.48865 -2.920499,2.63169 -5.690076,6.29043 -7.405191,10.9846 -1.394809,3.82658 -2.106995,8.22473 -1.736466,12.87385 0.344598,3.8837 1.355706,7.84702 3.091211,11.67116 1.735506,3.82413 4.19644,7.50953 7.342256,10.75207 1e-5,1e-5 1e-5,1e-5 2e-5,2e-5 2.59684,2.73285 5.65278,5.20972 9.12723,7.26063 3.47444,2.05091 7.3675,3.6758 11.59732,4.67594 3.83727,0.89952 7.89261,1.24242 12.00946,0.93525 4.11685,-0.30716 8.2951,-1.26446 12.33703,-2.9627 6.81526,-2.92718 12.8646,-7.80026 17.28258,-14.1127 4.19137,-6.00022 6.9193,-13.05179 7.89639,-20.46674 1.39709,-10.6878 -0.64128,-21.89071 -5.94719,-31.71061 -5.12097,-9.447007 -12.94044,-17.406591 -22.38486,-22.851823 -13.17097,-7.627221 -29.25572,-10.279071 -44.549382,-6.816118 -7.658856,1.763599 -14.896221,5.043565 -21.256305,9.556955 -6.360085,4.51339 -11.840954,10.259032 -16.029455,16.929282 -3.962395,6.537444 -6.617844,13.526894 -8.182047,20.582714 -1.564202,7.05582 -2.037898,14.17662 -1.645669,21.01549 0.382485,7.20948 1.492797,14.08326 2.998213,20.59973 1.505416,6.51647 3.404872,12.67563 5.413485,18.46736 4.362471,12.81815 9.321311,24.65488 14.453454,35.28004 z"/><path id="path4859" d="m 75.170084,213.55399 c 6.886611,-3.36933 13.773221,-6.73865 20.659832,-10.10798 -4.826745,-9.37758 -9.708797,-20.32997 -14.082402,-32.53861 -1.860813,-5.29621 -3.635809,-10.72014 -5.033932,-16.22486 -1.398123,-5.50472 -2.417988,-11.09008 -2.705091,-16.70834 -0.234201,-5.16 0.0226,-10.42391 0.989226,-15.43991 0.966626,-5.01599 2.643957,-9.78221 5.254421,-13.909 2.520249,-4.22502 6.051176,-8.00124 10.1933,-11.022272 4.142124,-3.021031 8.892874,-5.285416 13.816792,-6.500745 4.9435,-1.252142 10.2305,-1.470411 15.38994,-0.759018 5.15945,0.711393 10.18876,2.351708 14.64968,4.795407 6.49092,3.583628 12.00861,8.830368 15.46232,14.863478 1.81665,3.15487 3.14839,6.58207 3.9397,10.04488 0.79132,3.46281 1.04203,6.96065 0.72047,10.29813 -0.30678,3.24758 -1.08695,6.39821 -2.28991,9.2298 -0.55325,1.30229 -1.19587,2.53802 -1.92348,3.69068 -2.45822,3.91148 -5.87747,7.10616 -9.62599,8.98654 -2.23888,1.16656 -4.70766,1.91433 -7.20528,2.28401 -2.49762,0.36967 -5.02445,0.36113 -7.43024,0.0132 -2.72479,-0.3862 -5.36087,-1.23987 -7.78845,-2.40724 -2.42757,-1.16736 -4.64701,-2.64883 -6.58411,-4.32426 0,0 0,-10e-6 0,-10e-6 -2.30059,-2.04335 -4.23929,-4.36448 -5.68575,-6.76994 -1.44646,-2.40547 -2.40221,-4.89655 -2.84195,-7.34842 -0.55652,-2.9333 -0.47217,-5.8211 0.13389,-8.36399 0.72154,-3.04083 2.14913,-5.6639 3.84871,-7.62732 1.50345,-1.7524 3.25033,-3.03687 4.90817,-3.94308 1.65784,-0.90621 3.23323,-1.43955 4.57168,-1.75581 1.56384,-0.37143 2.81433,-0.45966 3.65121,-0.49199 0.83688,-0.0323 1.2671,-0.0105 1.2671,-0.0105 1.48468,0.34667 2.67892,0.66934 3.67759,0.87642 0.99866,0.20708 1.80206,0.30243 2.44895,0.2538 1.2938,-0.0973 1.99129,-0.80195 1.85571,-2.004 -0.0678,-0.60103 -0.35342,-1.31829 -0.90378,-2.07472 -0.55036,-0.75643 -1.36764,-1.55157 -2.46891,-2.26114 -1.10127,-0.70958 -2.48852,-1.33173 -4.11734,-1.71216 -1.62883,-0.38043 -3.50077,-0.516 -5.48324,-0.26002 0,0 -0.24966,0.0118 -0.73883,0.0558 0,0 0,0 0,0 -0.97281,0.0905 -2.9063,0.28669 -5.5511,1.13697 -1.32239,0.42514 -2.81877,1.02084 -4.41585,1.88313 -1.59707,0.86229 -3.29595,1.99195 -4.97514,3.48865 -2.920499,2.63169 -5.690076,6.29043 -7.405191,10.9846 -1.394809,3.82658 -2.106995,8.22473 -1.736466,12.87385 0.344598,3.8837 1.355706,7.84702 3.091211,11.67116 1.735506,3.82413 4.19644,7.50953 7.342256,10.75207 1e-5,1e-5 1e-5,1e-5 2e-5,2e-5 2.59684,2.73285 5.65278,5.20972 9.12723,7.26063 3.47444,2.05091 7.3675,3.6758 11.59732,4.67594 3.83727,0.89952 7.89261,1.24242 12.00946,0.93525 4.11685,-0.30716 8.2951,-1.26446 12.33703,-2.9627 6.81526,-2.92718 12.8646,-7.80026 17.28258,-14.1127 4.19137,-6.00022 6.9193,-13.05179 7.89639,-20.46674 1.39709,-10.6878 -0.64128,-21.89071 -5.94719,-31.71061 -5.12097,-9.447007 -12.94044,-17.406591 -22.38486,-22.851823 -13.17097,-7.627221 -29.25572,-10.279071 -44.549382,-6.816118 -7.658856,1.763599 -14.896221,5.043565 -21.256305,9.556955 -6.360085,4.51339 -11.840954,10.259032 -16.029455,16.929282 -3.962395,6.537444 -6.617844,13.526894 -8.182047,20.582714 -1.564202,7.05582 -2.037898,14.17662 -1.645669,21.01549 0.382485,7.20948 1.492797,14.08326 2.998213,20.59973 1.505416,6.51647 3.404872,12.67563 5.413485,18.46736 4.362471,12.81815 9.321311,24.65488 14.453454,35.28004 z" transform="matrix(-1,0,0,-1,290.40156,283.1786)" style="opacity:.80693066;color:#000;fill:#294e7b;fill-opacity:1;fill-rule:nonzero;stroke:none;stroke-width:1;marker:none;visibility:visible;display:inline;overflow:visible;filter:url(#filter4851);enable-background:accumulate"/><path id="path3895" d="m 75.170084,211.55399 c 6.886611,-3.36933 13.773221,-6.73865 20.659832,-10.10798 -4.826745,-9.37758 -9.708797,-20.32997 -14.082402,-32.53861 -1.860813,-5.29621 -3.635809,-10.72014 -5.033932,-16.22486 -1.398123,-5.50472 -2.417988,-11.09008 -2.705091,-16.70834 -0.234201,-5.16 0.0226,-10.42391 0.989226,-15.43991 0.966626,-5.01599 2.643957,-9.78221 5.254421,-13.909 2.520249,-4.22502 6.051176,-8.001242 10.1933,-11.022272 4.142124,-3.021031 8.892874,-5.285416 13.816792,-6.500745 4.9435,-1.252142 10.2305,-1.470411 15.38994,-0.759018 5.15945,0.711393 10.18876,2.351708 14.64968,4.795407 6.49092,3.583628 12.00861,8.830368 15.46232,14.863478 1.81665,3.15487 3.14839,6.58207 3.9397,10.04488 0.79132,3.46281 1.04203,6.96065 0.72047,10.29813 -0.30678,3.24758 -1.08695,6.39821 -2.28991,9.2298 -0.55325,1.30229 -1.19587,2.53802 -1.92348,3.69068 -2.45822,3.91148 -5.87747,7.10616 -9.62599,8.98654 -2.23888,1.16656 -4.70766,1.91433 -7.20528,2.28401 -2.49762,0.36967 -5.02445,0.36113 -7.43024,0.0132 -2.72479,-0.3862 -5.36087,-1.23987 -7.78845,-2.40724 -2.42757,-1.16736 -4.64701,-2.64883 -6.58411,-4.32426 0,0 0,-10e-6 0,-10e-6 -2.30059,-2.04335 -4.23929,-4.36448 -5.68575,-6.76994 -1.44646,-2.40547 -2.40221,-4.89655 -2.84195,-7.34842 -0.55652,-2.9333 -0.47217,-5.8211 0.13389,-8.36399 0.72154,-3.04083 2.14913,-5.6639 3.84871,-7.62732 1.50345,-1.7524 3.25033,-3.03687 4.90817,-3.94308 1.65784,-0.90621 3.23323,-1.43955 4.57168,-1.75581 1.56384,-0.37143 2.81433,-0.45966 3.65121,-0.49199 0.83688,-0.0323 1.2671,-0.0105 1.2671,-0.0105 1.48468,0.34667 2.67892,0.66934 3.67759,0.87642 0.99866,0.20708 1.80206,0.30243 2.44895,0.2538 1.2938,-0.0973 1.99129,-0.80195 1.85571,-2.004 -0.0678,-0.60103 -0.35342,-1.31829 -0.90378,-2.07472 -0.55036,-0.75643 -1.36764,-1.55157 -2.46891,-2.26114 -1.10127,-0.70958 -2.48852,-1.33173 -4.11734,-1.71216 -1.62883,-0.38043 -3.50077,-0.516 -5.48324,-0.26002 0,0 -0.24966,0.0118 -0.73883,0.0558 0,0 0,0 0,0 -0.97281,0.0905 -2.9063,0.28669 -5.5511,1.13697 -1.32239,0.42514 -2.81877,1.02084 -4.41585,1.88313 -1.59707,0.86229 -3.29595,1.99195 -4.97514,3.48865 -2.920499,2.63169 -5.690076,6.29043 -7.405191,10.9846 -1.394809,3.82658 -2.106995,8.22473 -1.736466,12.87385 0.344598,3.8837 1.355706,7.84702 3.091211,11.67116 1.735506,3.82413 4.19644,7.50953 7.342256,10.75207 1e-5,1e-5 1e-5,1e-5 2e-5,2e-5 2.59684,2.73285 5.65278,5.20972 9.12723,7.26063 3.47444,2.05091 7.3675,3.6758 11.59732,4.67594 3.83727,0.89952 7.89261,1.24242 12.00946,0.93525 4.11685,-0.30716 8.2951,-1.26446 12.33703,-2.9627 6.81526,-2.92718 12.8646,-7.80026 17.28258,-14.1127 4.19137,-6.00022 6.9193,-13.05179 7.89639,-20.46674 1.39709,-10.6878 -0.64128,-21.89071 -5.94719,-31.710609 -5.12097,-9.447008 -12.94044,-17.406592 -22.38486,-22.851824 -13.17097,-7.627221 -29.25572,-10.279071 -44.549382,-6.816118 -7.658856,1.763599 -14.896221,5.043565 -21.256305,9.556955 -6.360085,4.51339 -11.840954,10.259032 -16.029455,16.929282 -3.962395,6.537444 -6.617844,13.526894 -8.182047,20.582714 -1.564202,7.05582 -2.037898,14.17662 -1.645669,21.01549 0.382485,7.20948 1.492797,14.08326 2.998213,20.59973 1.505416,6.51647 3.404872,12.67563 5.413485,18.46736 4.362471,12.81815 9.321311,24.65488 14.453454,35.28004 z" style="color:#000;fill:url(#linearGradient4749);fill-opacity:1;fill-rule:nonzero;stroke:none;stroke-width:1;marker:none;visibility:visible;display:inline;overflow:visible;enable-background:accumulate"/><path id="path4906" d="m 111,69.15625 c -3.77058,0.116297 -7.52175,0.593312 -11.25,1.4375 -7.463699,1.71866 -14.515573,4.910458 -20.71875,9.3125 -6.204376,4.402892 -11.54417,9.969967 -15.625,16.46875 -3.870954,6.38657 -6.468115,13.21496 -8,20.125 -1.531298,6.9074 -1.978806,13.91119 -1.59375,20.625 0.377024,7.10654 1.478842,13.89441 2.96875,20.34375 1.490086,6.45011 3.347434,12.55623 5.34375,18.3125 a 1.4952431,1.4952431 0 0 1 0,0.0313 c 4.162882,12.2317 8.869487,23.48732 13.75,33.71875 L 93.84375,200.75 c -4.640916,-9.14255 -9.300717,-19.62172 -13.5,-31.34375 -1.8681,-5.31695 -3.647785,-10.7737 -5.0625,-16.34375 -1.414358,-5.56864 -2.487396,-11.28088 -2.78125,-17.03125 -0.238627,-5.25751 0.03757,-10.62483 1.03125,-15.78125 0.991296,-5.144 2.716325,-10.09245 5.4375,-14.40625 0.0074,-0.0125 0.02379,-0.0188 0.03125,-0.0313 2.631556,-4.39916 6.278426,-8.31294 10.5625,-11.4375 4.286231,-3.126135 9.196548,-5.451835 14.3125,-6.71875 0.01,-0.0025 0.0213,0.0025 0.0313,0 5.14315,-1.298181 10.64297,-1.515578 15.96875,-0.78125 5.33445,0.735522 10.52463,2.400291 15.15625,4.9375 6.72022,3.710225 12.42406,9.13628 16.03125,15.4375 l -0.0313,0 c 1.89039,3.28293 3.32999,6.85298 4.15625,10.46875 0.82221,3.59799 1.08365,7.2499 0.75,10.75 -9.7e-4,0.0103 9.8e-4,0.0209 0,0.0313 -0.32342,3.38986 -1.17646,6.68794 -2.4375,9.65625 -0.57021,1.34222 -1.22533,2.67355 -2,3.90625 -0.007,0.0118 -0.0238,0.0194 -0.0313,0.0313 -2.58638,4.10107 -6.18897,7.45323 -10.1875,9.46875 -0.0121,0.006 -0.0191,0.025 -0.0313,0.0313 -2.39932,1.24429 -5.02605,2.01695 -7.65625,2.40625 -2.63884,0.39057 -5.3182,0.40102 -7.875,0.0313 -2.89524,-0.41036 -5.6675,-1.30441 -8.21875,-2.53125 -2.55651,-1.22937 -4.87409,-2.80485 -6.90625,-4.5625 a 1.4952431,1.4952431 0 0 1 -0.0313,0 c -2.41023,-2.14073 -4.40864,-4.55125 -5.9375,-7.09375 -1.52816,-2.54134 -2.55408,-5.2363 -3.03125,-7.875 -0.002,-0.01 0.002,-0.0217 0,-0.0313 -0.58793,-3.12203 -0.53113,-6.18452 0.125,-8.9375 0.77891,-3.2826 2.32725,-6.10097 4.1875,-8.25 1.63592,-1.9068 3.50993,-3.32718 5.3125,-4.3125 1.79131,-0.97917 3.49097,-1.56445 4.9375,-1.90625 1.70073,-0.40394 3.08103,-0.46691 3.9375,-0.5 0.85851,-0.0331 1.34375,-0.0313 1.34375,-0.0313 a 1.4952431,1.4952431 0 0 1 0.34375,0.0313 c 1.51405,0.35353 2.69945,0.68308 3.625,0.875 0.9245,0.1917 1.61878,0.24976 2.03125,0.21875 0.39898,-0.03 0.51501,-0.10977 0.5,-0.0937 -0.015,0.016 0.001,0.04 -0.0313,-0.25 -0.0295,-0.26166 -0.18863,-0.74399 -0.625,-1.34375 -0.42531,-0.58456 -1.09968,-1.25463 -2.0625,-1.875 -0.96692,-0.62301 -2.17149,-1.16052 -3.625,-1.5 -1.46817,-0.34291 -3.18279,-0.51186 -4.96875,-0.28125 a 1.4952431,1.4952431 0 0 1 -0.0937,0.0313 c 0,0 -0.23957,0.0194 -0.71875,0.0625 -0.93494,0.087 -2.67269,0.28526 -5.1875,1.09375 -1.25766,0.40433 -2.68909,0.94098 -4.1875,1.75 -1.51375,0.8173 -3.10679,1.87232 -4.6875,3.28125 -2.755743,2.48323 -5.3767,5.93212 -7,10.375 -1.323225,3.63019 -1.977841,7.82282 -1.625,12.25 0.32967,3.71546 1.302757,7.48528 2.96875,11.15625 1.664872,3.66849 4.00794,7.22748 7.03125,10.34375 a 1.4952431,1.4952431 0 0 1 0.0313,0 c 2.507,2.6383 5.43412,5.05549 8.78125,7.03125 3.3479,1.97621 7.10656,3.50381 11.1875,4.46875 3.69265,0.86562 7.56975,1.20183 11.53125,0.90625 3.96802,-0.29606 7.99273,-1.18134 11.875,-2.8125 6.55571,-2.8157 12.39803,-7.50957 16.65625,-13.59375 4.0514,-5.79984 6.71037,-12.63443 7.65625,-19.8125 1.35519,-10.36727 -0.65589,-21.26892 -5.8125,-30.8125 C 160.04627,90.303858 152.42652,82.527538 143.21875,77.21875 133.58623,71.640624 122.31216,68.807345 111,69.15625 z" style="color:#000;fill:none;stroke:url(#radialGradient4916);stroke-width:2;stroke-miterlimit:4;stroke-opacity:1;stroke-dasharray:none;marker:none;visibility:visible;display:inline;overflow:visible;enable-background:accumulate"/><path id="path4861" d="m 135.8125,151.34466 2.75,15 c -0.33386,-5.08333 -1.66119,-10.16667 -0.9375,-15.25 l -1.8125,0.25 z" style="opacity:.43564357;color:#000;fill:#000;fill-opacity:1;fill-rule:nonzero;stroke:none;stroke-width:3;marker:none;visibility:visible;display:inline;overflow:visible;filter:url(#filter4873);enable-background:accumulate"/><path style="color:#000;fill:url(#linearGradient4761);fill-opacity:1;fill-rule:nonzero;stroke:none;stroke-width:1;marker:none;visibility:visible;display:inline;overflow:visible;enable-background:accumulate" id="path4706" d="m 215.73148,66.612405 c -6.88661,3.369328 -13.77323,6.738656 -20.65984,10.107984 4.82675,9.377583 9.7088,20.329971 14.08241,32.538611 1.86081,5.29621 3.63581,10.72014 5.03393,16.22486 1.39812,5.50472 2.41799,11.09008 2.70509,16.70834 0.2342,5.16 -0.0226,10.42391 -0.98923,15.43991 -0.96662,5.01599 -2.64395,9.78221 -5.25442,13.909 -2.52025,4.22502 -6.05117,8.00124 -10.1933,11.02227 -4.14212,3.02103 -8.89287,5.28542 -13.81679,6.50075 -4.9435,1.25214 -10.2305,1.47041 -15.38994,0.75902 -5.15945,-0.7114 -10.18876,-2.35171 -14.64968,-4.79541 -6.49092,-3.58363 -12.00861,-8.83037 -15.46232,-14.86348 -1.81665,-3.15487 -3.14839,-6.58207 -3.9397,-10.04488 -0.79132,-3.46281 -1.04203,-6.96065 -0.72047,-10.29813 0.30678,-3.24758 1.08695,-6.39821 2.28991,-9.2298 0.55325,-1.30229 1.19587,-2.53802 1.92348,-3.69068 2.45822,-3.91148 5.87747,-7.10616 9.62599,-8.98654 2.23888,-1.16656 4.70766,-1.91433 7.20528,-2.28401 2.49762,-0.36967 5.02445,-0.36113 7.43024,-0.0132 2.72479,0.3862 5.36087,1.23987 7.78845,2.40724 2.42757,1.16736 4.64701,2.64883 6.58411,4.32426 0,0 0,1e-5 0,1e-5 2.30059,2.04335 4.23929,4.36448 5.68575,6.76994 1.44646,2.40547 2.40221,4.89655 2.84195,7.34842 0.55652,2.9333 0.47217,5.8211 -0.13389,8.36399 -0.72154,3.04083 -2.14913,5.6639 -3.84871,7.62732 -1.50345,1.7524 -3.25033,3.03687 -4.90817,3.94308 -1.65784,0.90621 -3.23323,1.43955 -4.57168,1.75581 -1.56384,0.37143 -2.81433,0.45966 -3.65121,0.49199 -0.83688,0.0323 -1.2671,0.0105 -1.2671,0.0105 -1.48468,-0.34667 -2.67892,-0.66934 -3.67759,-0.87642 -0.99866,-0.20708 -1.80206,-0.30243 -2.44895,-0.2538 -1.2938,0.0973 -1.99129,0.80195 -1.85571,2.004 0.0678,0.60103 0.35342,1.31829 0.90378,2.07472 0.55036,0.75643 1.36764,1.55157 2.46891,2.26114 1.10127,0.70958 2.48852,1.33173 4.11734,1.71216 1.62883,0.38043 3.50077,0.516 5.48324,0.26002 0,0 0.24966,-0.0118 0.73883,-0.0558 0,0 0,0 0,0 0.97281,-0.0905 2.9063,-0.28669 5.5511,-1.13697 1.32239,-0.42514 2.81877,-1.02084 4.41585,-1.88313 1.59707,-0.86229 3.29595,-1.99195 4.97514,-3.48865 2.9205,-2.63169 5.69008,-6.29043 7.40519,-10.9846 1.39481,-3.82658 2.107,-8.22473 1.73647,-12.87385 -0.3446,-3.8837 -1.35571,-7.84702 -3.09121,-11.67116 -1.73551,-3.82413 -4.19644,-7.50953 -7.34226,-10.75207 -1e-5,-1e-5 -1e-5,-1e-5 -2e-5,-2e-5 -2.59684,-2.73285 -5.65278,-5.20972 -9.12723,-7.26063 -3.47444,-2.05091 -7.3675,-3.6758 -11.59732,-4.67594 -3.83727,-0.89952 -7.89261,-1.24242 -12.00946,-0.93525 -4.11685,0.30716 -8.2951,1.26446 -12.33703,2.9627 -6.81526,2.92718 -12.8646,7.80026 -17.28258,14.1127 -4.19137,6.00022 -6.9193,13.05179 -7.89639,20.46674 -1.39709,10.6878 0.64128,21.89071 5.94719,31.71061 5.12097,9.44701 12.94044,17.40659 22.38486,22.85182 13.17097,7.62722 29.25572,10.27907 44.54938,6.81612 7.65886,-1.7636 14.89622,-5.04356 21.25631,-9.55695 6.36008,-4.51339 11.84095,-10.25904 16.02945,-16.92929 3.9624,-6.53744 6.61785,-13.52689 8.18205,-20.58271 1.5642,-7.05582 2.0379,-14.17662 1.64567,-21.01549 -0.38249,-7.20948 -1.4928,-14.08326 -2.99822,-20.59973 -1.50541,-6.51647 -3.40487,-12.67563 -5.41348,-18.46735 -4.36247,-12.818159 -9.32131,-24.654896 -14.45345,-35.280055 z" clip-path="url(#clipPath4739)"/><path style="opacity:.53960416;color:#000;fill:none;stroke:url(#radialGradient4956);stroke-width:2;stroke-miterlimit:4;stroke-opacity:1;stroke-dasharray:none;marker:none;visibility:visible;display:inline;overflow:visible;filter:url(#filter5329);enable-background:accumulate" id="path4954" d="m 111.03125,69.90625 c -3.72401,0.114861 -7.44399,0.572757 -11.125,1.40625 -7.366848,1.696359 -14.343441,4.840717 -20.46875,9.1875 -6.120173,4.343138 -11.380586,9.845607 -15.40625,16.25 -0.0049,0.0081 0.0049,0.02312 0,0.03125 -3.817427,6.30475 -6.392356,13.04612 -7.90625,19.875 -1.514969,6.83374 -1.975247,13.78576 -1.59375,20.4375 0.374313,7.05545 1.486538,13.80272 2.96875,20.21875 1.482478,6.41718 3.353537,12.51132 5.34375,18.25 4.068082,11.95315 8.645078,22.95873 13.40625,33 l 16.625,-8.15625 c -4.548095,-9.02123 -9.105418,-19.26789 -13.21875,-30.75 a 2.2372916,2.2372916 0 0 1 -0.03125,0 C 77.753284,164.32901 75.98545,158.85247 74.5625,153.25 73.140085,147.64964 72.078454,141.90968 71.78125,136.09375 A 2.2372916,2.2372916 0 0 1 71.75,136.0625 c -0.240823,-5.30591 0.05539,-10.74265 1.0625,-15.96875 1.004891,-5.21455 2.748856,-10.21439 5.53125,-14.625 0.0074,-0.0124 0.02381,-0.0188 0.03125,-0.0313 2.687561,-4.49309 6.389385,-8.475865 10.75,-11.65625 4.358861,-3.179106 9.349898,-5.55149 14.5625,-6.84375 0.01,-0.0025 0.0213,0.0025 0.0313,0 5.24645,-1.324352 10.83653,-1.558919 16.25,-0.8125 5.42129,0.747496 10.68992,2.447635 15.40625,5.03125 a 2.2372916,2.2372916 0 0 1 0.0313,0 c 6.83402,3.773052 12.59789,9.28448 16.28125,15.71875 1.92698,3.34648 3.37514,6.99581 4.21875,10.6875 0.84115,3.68087 1.09637,7.40498 0.75,11 -0.32845,3.47696 -1.17315,6.82534 -2.46875,9.875 -0.58682,1.3813 -1.24976,2.74373 -2.0625,4.03125 -2.65691,4.22763 -6.35156,7.65934 -10.5,9.75 -0.0121,0.006 -0.0191,0.0249 -0.0313,0.0313 -2.48366,1.28824 -5.20359,2.09997 -7.90625,2.5 -2.70892,0.40094 -5.43075,0.41186 -8.0625,0.0313 -2.97983,-0.42235 -5.82488,-1.3374 -8.4375,-2.59375 -2.6205,-1.26014 -5.01441,-2.88904 -7.09375,-4.6875 a 2.2372916,2.2372916 0 0 1 -0.0313,0 c -2.46464,-2.18905 -4.49274,-4.67075 -6.0625,-7.28125 -1.57701,-2.62258 -2.63262,-5.37962 -3.125,-8.125 -0.61319,-3.232 -0.55929,-6.41015 0.125,-9.28125 0.80738,-3.40259 2.40376,-6.32135 4.34375,-8.5625 1.70166,-1.98343 3.65686,-3.44417 5.53125,-4.46875 1.84768,-1.00998 3.59878,-1.61362 5.09375,-1.96875 0.0133,-0.003 0.018,0.003 0.0313,0 1.75066,-0.41179 3.20281,-0.49804 4.0625,-0.53125 0.86924,-0.0336 1.375,-0.0313 1.375,-0.0313 a 2.2372916,2.2372916 0 0 1 0.5,0.0625 c 1.52863,0.35693 2.73574,0.69061 3.625,0.875 0.66162,0.13719 1.02188,0.14302 1.375,0.15625 -0.075,-0.1688 -0.0696,-0.2208 -0.25,-0.46875 -0.36325,-0.49926 -0.98088,-1.1114 -1.875,-1.6875 -0.90024,-0.58005 -2.00849,-1.08709 -3.375,-1.40625 -1.38843,-0.32428 -3.03031,-0.46801 -4.71875,-0.25 a 2.2372916,2.2372916 0 0 1 -0.125,0 c 0,0 -0.25359,0.0238 -0.6875,0.0625 -0.0196,0.002 -0.0108,-0.002 -0.0313,0 -0.91979,0.0859 -2.59543,0.27941 -5.03125,1.0625 -1.22554,0.394 -2.61305,0.93617 -4.0625,1.71875 -1.4724,0.79498 -2.99941,1.79088 -4.53125,3.15625 -2.673979,2.40955 -5.234766,5.80683 -6.8125,10.125 -1.2877,3.53273 -1.937812,7.58921 -1.59375,11.90625 0.322261,3.63196 1.274753,7.31129 2.90625,10.90625 1.629818,3.59125 3.94373,7.0714 6.90625,10.125 a 2.2372916,2.2372916 0 0 1 0.0313,0.0313 c 2.46241,2.59138 5.34105,4.93654 8.625,6.875 3.2851,1.93914 6.9617,3.45878 10.96875,4.40625 3.62088,0.8488 7.45935,1.19608 11.34375,0.90625 3.89416,-0.29055 7.82196,-1.18338 11.625,-2.78125 6.42691,-2.76038 12.13356,-7.37285 16.3125,-13.34375 3.98194,-5.7004 6.60087,-12.40824 7.53125,-19.46875 1.3344,-10.20821 -0.63623,-20.96855 -5.71875,-30.375 -4.91749,-9.071643 -12.44093,-16.727676 -21.53125,-21.96875 -9.51058,-5.507511 -20.63983,-8.313352 -31.8125,-7.96875 z" transform="matrix(-1,0,0,-1,291.18664,278.15874)"/><path id="path4861-6" d="m 150.8125,108.875 c -0.4375,5.625 1.4375,11.6875 3.125,15.4375 -1.33386,-4.20833 -2.28619,-10.79167 -1.5625,-15.875 l -1.5625,0.4375 z" clip-path="url(#clipPath4948)" transform="matrix(-1,0,0,-1,305.375,235.625)" style="opacity:.43564357;color:#000;fill:#000;fill-opacity:1;fill-rule:nonzero;stroke:none;stroke-width:3;marker:none;visibility:visible;display:inline;overflow:visible;filter:url(#filter4873-4);enable-background:accumulate"/></g></g></svg>