<svg xmlns="http://www.w3.org/2000/svg" xmlns:svg="http://www.w3.org/2000/svg" xmlns:xlink="http://www.w3.org/1999/xlink" id="svg11300" width="680" height="560" version="1.0" viewBox="0 0 680 560" style="display:inline;enable-background:new"><title id="title5817">Polari Icon</title><defs id="defs3"><linearGradient id="linearGradient5048"><stop style="stop-color:#a1c35f;stop-opacity:1" id="stop5044" offset="0"/><stop style="stop-color:#b9d388;stop-opacity:1" id="stop5046" offset="1"/></linearGradient><linearGradient id="linearGradient5003"><stop style="stop-color:#fff;stop-opacity:1" id="stop4999" offset="0"/><stop style="stop-color:#fff;stop-opacity:0" id="stop5001" offset="1"/></linearGradient><linearGradient id="linearGradient4862"><stop id="stop4858" offset="0" style="stop-color:#91c231;stop-opacity:1"/><stop id="stop4860" offset="1" style="stop-color:#c0e084;stop-opacity:1"/></linearGradient><linearGradient id="linearGradient4850"><stop id="stop4846" offset="0" style="stop-color:#50ad96;stop-opacity:1"/><stop id="stop4848" offset="1" style="stop-color:#58857c;stop-opacity:1"/></linearGradient><linearGradient id="linearGradient3953"><stop style="stop-color:#61a025;stop-opacity:1" id="stop3955" offset="0"/><stop style="stop-color:#aada7c;stop-opacity:1" id="stop3957" offset="1"/></linearGradient><linearGradient id="linearGradient4011"><stop style="stop-color:#fff;stop-opacity:1" id="stop4013" offset="0"/><stop style="stop-color:#fff;stop-opacity:0" id="stop4015" offset="1"/></linearGradient><linearGradient id="linearGradient7107"><stop style="stop-color:#a2c569;stop-opacity:1" id="stop7109" offset="0"/><stop style="stop-color:#71ad38;stop-opacity:1" id="stop7111" offset="1"/></linearGradient><linearGradient id="linearGradient7113-3-6" x1="318" x2="318" y1="175" y2="190" gradientUnits="userSpaceOnUse" xlink:href="#linearGradient7107"/><clipPath id="clipPath6194" clipPathUnits="userSpaceOnUse"><path style="display:inline;overflow:visible;visibility:visible;fill:url(#radialGradient6198);fill-opacity:1;fill-rule:nonzero;stroke:none;stroke-width:.54060954;marker:none;enable-background:accumulate" id="path6196" d="m 308,175 c -2,0 -2,2 -2,2 l 9e-5,8.03224 C 306.00011,187.00005 308,187 308,187 h 2 l -2,4 5,-4 h 8 c 2.00381,0 2,-2 2,-2 v -8 c 0,-2 -1.99936,-2 -1.99936,-2 z" clip-path="none"/></clipPath><linearGradient id="linearGradient3806"><stop style="stop-color:#f0f7e1;stop-opacity:1" id="stop3808" offset="0"/><stop style="stop-color:#dbeeb8;stop-opacity:1" id="stop3810" offset="1"/></linearGradient><linearGradient id="linearGradient7244-9" x1="326.418" x2="326.418" y1="178.378" y2="193.764" gradientUnits="userSpaceOnUse" xlink:href="#linearGradient7238-1"/><linearGradient id="linearGradient7238-1"><stop style="stop-color:#67c7af;stop-opacity:1" id="stop7240-09" offset="0"/><stop style="stop-color:#4b9f8d;stop-opacity:1" id="stop7242-5" offset="1"/></linearGradient><clipPath id="clipPath6202" clipPathUnits="userSpaceOnUse"><path id="path6204" d="m 324,178 c 2,0 2,2 2,2 v 8 c 0,2 -2,2 -2,2 h -2 l 1.49992,4.30241 L 319,190 h -8 c -2,0 -2,-2 -2,-2 v -8 c 0,-2 1.99946,-2 1.99946,-2 z" clip-path="none" style="display:inline;overflow:visible;visibility:visible;fill:url(#radialGradient6206);fill-opacity:1;fill-rule:nonzero;stroke:none;stroke-width:.54060954;marker:none;enable-background:accumulate"/></clipPath><radialGradient id="radialGradient6180" cx="184.217" cy="-16.622" r="72" fx="184.217" fy="-16.622" gradientTransform="matrix(-0.58550351,0,0,0.17131612,689.94829,-50.11419)" gradientUnits="userSpaceOnUse" xlink:href="#linearGradient4093"/><linearGradient id="linearGradient4093"><stop id="stop4095" offset="0" style="stop-color:#d9f5ed;stop-opacity:1"/><stop id="stop4097" offset="1" style="stop-color:#b0ead9;stop-opacity:1"/></linearGradient><linearGradient id="linearGradient7113-3" x1="319" x2="319" y1="128" y2="150" gradientUnits="userSpaceOnUse" xlink:href="#linearGradient7107"/><radialGradient id="radialGradient6148" cx="185.223" cy="-18.735" r="72" fx="185.223" fy="-18.735" gradientTransform="matrix(-0.52777772,9.5956394e-8,-4.0402692e-8,-0.22222221,679.75649,-117.16327)" gradientUnits="userSpaceOnUse" xlink:href="#linearGradient3806"/><linearGradient id="linearGradient7244-3" x1="336.052" x2="336.052" y1="131.532" y2="155.931" gradientUnits="userSpaceOnUse" xlink:href="#linearGradient7238-1"/><radialGradient id="radialGradient6159" cx="184.653" cy="-17.83" r="72" fx="184.653" fy="-17.83" gradientTransform="matrix(0.44444452,-3.9042906e-8,-1.8301356e-8,-0.2083333,504.93181,-111.71452)" gradientUnits="userSpaceOnUse" xlink:href="#linearGradient4093"/><linearGradient id="linearGradient7113-3-7" x1="314" x2="314" y1="213" y2="222" gradientUnits="userSpaceOnUse" xlink:href="#linearGradient7107"/><clipPath id="clipPath4587" clipPathUnits="userSpaceOnUse"><path id="path4589" d="m 306,213 c -1.95655,0 -1.95626,1.95626 -1.95626,1.95626 L 304,221 c -0.0142,1.95621 2,2 2,2 h 1 l -1,3 3,-3 h 7 c 1.95626,0 2,-2 2,-2 v -6 c 0,-1.95626 -2,-2 -2,-2 z" clip-path="none" style="display:inline;overflow:visible;visibility:visible;fill:url(#radialGradient4591);fill-opacity:1;fill-rule:nonzero;stroke:none;stroke-width:.54060954;marker:none;enable-background:accumulate"/></clipPath><linearGradient id="linearGradient7244-0" x1="320.054" x2="320.054" y1="216.208" y2="228.167" gradientUnits="userSpaceOnUse" xlink:href="#linearGradient7238-1"/><clipPath id="clipPath4597" clipPathUnits="userSpaceOnUse"><path style="display:inline;overflow:visible;visibility:visible;fill:url(#radialGradient4601);fill-opacity:1;fill-rule:nonzero;stroke:none;stroke-width:.54060954;marker:none;enable-background:accumulate" id="path4599" d="m 318,215 c 1.95655,0 2,2 2,2 v 6 c 0,1.95626 -2,2 -2,2 h -1 l 1,3 -3,-3 h -7 c -1.95625,0 -2,-2 -2,-2 v -6 c 0,-2.00203 2,-2 2,-2 z" clip-path="none"/></clipPath><radialGradient id="radialGradient4579" cx="185.65" cy="-15.301" r="72" fx="185.65" fy="-15.301" gradientTransform="matrix(-0.46838568,0,0,0.13661249,663.9557,-5.90972)" gradientUnits="userSpaceOnUse" xlink:href="#linearGradient4093"/><radialGradient id="radialGradient5153" cx="234.333" cy="-170.417" r="186" fx="234.333" fy="-170.417" gradientTransform="matrix(-3.0967742,1.028092e-7,-5.018534e-8,-1.2903226,981.67739,-399.89325)" gradientUnits="userSpaceOnUse" xlink:href="#linearGradient3806"/><radialGradient id="radialGradient5165" cx="224" cy="-158.295" r="186" fx="224" fy="-158.295" gradientTransform="matrix(3.0967742,-2.7978847e-7,-9.9803659e-8,-1.2043011,-357.67746,-290.63532)" gradientUnits="userSpaceOnUse" xlink:href="#linearGradient4093"/><linearGradient id="linearGradient5181" x1="240" x2="240" y1="-164" y2="140" gradientUnits="userSpaceOnUse" xlink:href="#linearGradient7107"/><linearGradient id="linearGradient7113-0" x1="323" x2="323" y1="67.5" y2="100" gradientUnits="userSpaceOnUse" xlink:href="#linearGradient7107"/><radialGradient id="radialGradient6282-1" cx="183.116" cy="-11.009" r="72" fx="183.116" fy="-11.009" gradientTransform="matrix(-0.43055561,-3.3727483e-8,3.1971799e-8,-0.34722222,668.84176,-193.82252)" gradientUnits="userSpaceOnUse" xlink:href="#linearGradient3806"/><radialGradient id="radialGradient4563-9" cx="130.092" cy="64.289" r="61.548" fx="130.092" fy="64.289" gradientTransform="matrix(0.19467894,0,0,-0.07655998,569.69623,-178.44522)" gradientUnits="userSpaceOnUse" xlink:href="#linearGradient4011"/><linearGradient id="linearGradient7244-2" x1="348.5" x2="348.5" y1="75.333" y2="100.004" gradientUnits="userSpaceOnUse" xlink:href="#linearGradient7238-1"/><radialGradient id="radialGradient6291-9" cx="184.621" cy="-18.096" r="72" fx="184.621" fy="-18.096" gradientTransform="matrix(-0.76388909,1.4198492e-7,5.4212412e-8,0.29166667,737.03013,-177.72205)" gradientUnits="userSpaceOnUse" xlink:href="#linearGradient4093"/><linearGradient id="linearGradient5282" x1="240" x2="240" y1="-164" y2="140" gradientUnits="userSpaceOnUse" xlink:href="#linearGradient4850"/><radialGradient id="radialGradient5413" cx="130.092" cy="64.289" r="61.548" fx="130.092" fy="64.289" gradientTransform="matrix(0,1.2044277,-1.2695229,0,517.26081,-213.4351)" gradientUnits="userSpaceOnUse" xlink:href="#linearGradient4011"/><clipPath id="clipPath5431" clipPathUnits="userSpaceOnUse"><path style="display:inline;opacity:1;fill:#fff;fill-opacity:1;stroke:none;stroke-width:1;stroke-linecap:round;stroke-linejoin:round;stroke-miterlimit:4;stroke-dasharray:none;stroke-opacity:1;enable-background:new" id="path5433" d="m 456,-116 c 24.376,0 44,19.624 44,44 v 184 c 0,24.376 -19.624,44 -44,44 H 421.33398 L 448,236 368,156 H 172 c -24.376,0 -44,-19.624 -44,-44 V -72 c 0,-24.376 19.624,-44 44,-44 z"/></clipPath><clipPath id="clipPath5553" clipPathUnits="userSpaceOnUse"><path id="path5555" d="M 224.46679,-114.7207 217.1621,-78 h -29.80078 l -4.42187,21.72461 h 29.80078 l -5,25.37891 h -29.60742 l -4.42188,21.7246 h 29.60742 L 195.6289,29.2793 h 22.68555 l 7.6914,-38.45118 h 25.95313 l -7.68945,38.45118 h 22.68554 l 7.69141,-38.45118 h 29.79883 l 4.42187,-21.7246 h -29.79883 l 4.99805,-25.37891 h 29.80078 L 318.28906,-78 h -29.80079 l 7.30665,-36.7207 h -22.6875 L 265.80273,-78 h -25.95508 l 7.30664,-36.7207 z m 10.13672,57.44531 h 26.77734 1.21485 l -5.39258,27.37891 h -27.99219 z" style="font-style:italic;font-variant:normal;font-weight:700;font-stretch:normal;font-size:96.12817383px;line-height:125%;font-family:Cantarell;-inkscape-font-specification:'Cantarell Bold Italic';letter-spacing:0;word-spacing:0;display:inline;fill:#ad7fa8;fill-opacity:1;stroke:none;stroke-width:1;enable-background:new"/></clipPath><clipPath id="clipPath5634" clipPathUnits="userSpaceOnUse"><path id="path5636" d="M 104,80 C 79.624,80 60,99.624 60,124 v 184 c 0,24.376 19.624,44 44,44 h 34.66602 L 112,432 192,352 h 196 c 24.376,0 44,-19.624 44,-44 V 124 C 432,99.624 412.376,80 388,80 Z" style="display:inline;opacity:1;fill:#3465a4;fill-opacity:1;stroke:none;stroke-width:1;stroke-linecap:round;stroke-linejoin:round;stroke-miterlimit:4;stroke-dasharray:none;stroke-opacity:1;enable-background:new"/></clipPath><clipPath id="clipPath5663" clipPathUnits="userSpaceOnUse"><path id="path5665" d="m 312,66 c -5,0 -5,5 -5,5 V 87.89403 C 307,93.02922 312,93 312,93 h 3 l -3,7 8,-7 h 18 c 5,0 5,-5 5,-5 V 71 c 0,-5.13519 -5,-5 -5,-5 z" clip-path="none" style="display:inline;overflow:visible;visibility:visible;fill:#ce5c00;fill-opacity:1;fill-rule:nonzero;stroke:none;stroke-width:.54060954;marker:none;enable-background:accumulate"/></clipPath><clipPath id="clipPath5668" clipPathUnits="userSpaceOnUse"><path style="display:inline;overflow:visible;visibility:visible;fill:#f57900;fill-opacity:1;fill-rule:nonzero;stroke:none;stroke-width:.54060954;marker:none;enable-background:accumulate" id="path5670" d="m 344,70 c 5.13594,0 5,5 5,5 V 90.9179 C 349,96.05309 344,96 344,96 h -3 l 3,7 -8,-7 h -18 c -5.13518,0 -5,-5 -5,-5 V 75 c 0,-5.13519 5,-5 5,-5 z" clip-path="none"/></clipPath><clipPath id="clipPath5679" clipPathUnits="userSpaceOnUse"><path id="path5681" d="m 309,126 c -4,0 -4,4 -4,4 v 12 c 0,4 4,4 4,4 h 2 l -2,6 6,-6 h 13 c 4,0 4,-4 4,-4 v -12 c 0,-4 -4,-4 -4,-4 z" clip-path="none" style="display:inline;overflow:visible;visibility:visible;fill:#f57900;fill-opacity:1;fill-rule:nonzero;stroke:none;stroke-width:.54060954;marker:none;enable-background:accumulate"/></clipPath><clipPath id="clipPath5684" clipPathUnits="userSpaceOnUse"><path style="display:inline;overflow:visible;visibility:visible;fill:#ce5c00;fill-opacity:1;fill-rule:nonzero;stroke:none;stroke-width:.54060954;marker:none;enable-background:accumulate" id="path5686" d="m 331,130 c 4.00033,0 4,4 4,4 v 12 c 0,4 -4,4 -4,4 h -2 l 2,5 -6,-5 h -12 c -3.66795,0 -4,-4 -4,-4 v -12 c 0,-4 4,-4 4,-4 z" clip-path="none"/></clipPath><linearGradient id="linearGradient5710" x1="240" x2="240" y1="384" y2="334" gradientTransform="translate(0,-258)" gradientUnits="userSpaceOnUse" xlink:href="#linearGradient4011"/><linearGradient id="linearGradient5714" x1="240" x2="240" y1="384" y2="334.06" gradientTransform="matrix(-1,0,0,1,560,-202.05959)" gradientUnits="userSpaceOnUse" xlink:href="#linearGradient4011"/><filter style="color-interpolation-filters:sRGB" id="filter5732" width="1.046" height="1.162" x="-.023" y="-.081"><feGaussianBlur id="feGaussianBlur5734" stdDeviation="3.435"/></filter><filter style="color-interpolation-filters:sRGB" id="filter5736" width="1.046" height="1.162" x="-.023" y="-.081"><feGaussianBlur id="feGaussianBlur5738" stdDeviation="3.435"/></filter><radialGradient id="radialGradient5861" cx="130.092" cy="64.289" r="61.548" fx="130.092" fy="64.289" gradientTransform="matrix(0,1.2044277,-1.2695229,0,153.26081,-213.4351)" gradientUnits="userSpaceOnUse" xlink:href="#linearGradient4011"/><radialGradient id="radialGradient5867" cx="130.092" cy="64.289" r="61.548" fx="130.092" fy="64.289" gradientTransform="matrix(0,1.2044277,-1.2695229,0,583.26081,-163.4351)" gradientUnits="userSpaceOnUse" xlink:href="#linearGradient4011"/><filter style="color-interpolation-filters:sRGB" id="filter5883" width="3.535" height="1.049" x="-1.267" y="-.025"><feGaussianBlur id="feGaussianBlur5885" stdDeviation="1.635"/></filter><filter style="color-interpolation-filters:sRGB" id="filter5887" width="3.535" height="1.049" x="-1.267" y="-.025"><feGaussianBlur id="feGaussianBlur5889" stdDeviation="1.635"/></filter><filter style="color-interpolation-filters:sRGB" id="filter5891" width="3.535" height="1.049" x="-1.267" y="-.025"><feGaussianBlur id="feGaussianBlur5893" stdDeviation="1.635"/></filter><clipPath id="clipPath4669" clipPathUnits="userSpaceOnUse"><path style="display:inline;opacity:1;fill:#f57900;fill-opacity:1;stroke:none;stroke-width:1;stroke-linecap:round;stroke-linejoin:round;stroke-miterlimit:4;stroke-dasharray:none;stroke-opacity:1;enable-background:new" id="path4671" d="m 104,-188 c -24.376,0 -44,19.624 -44,44 V 48 c 0,24.376 19.624,44 44,44 h 34.66602 L 112,172 192,92 h 196 c 24.376,0 44,-19.624 44,-44 v -192 c 0,-24.376 -19.624,-44 -44,-44 z"/></clipPath><filter style="color-interpolation-filters:sRGB" id="filter4680" width="1.118" height="1.122" x="-.059" y="-.061"><feGaussianBlur id="feGaussianBlur4682" stdDeviation="9.15"/></filter><filter style="color-interpolation-filters:sRGB" id="filter4686" width="1.024" height="1.024" x="-.012" y="-.012"><feGaussianBlur id="feGaussianBlur4688" stdDeviation="1.83"/></filter><filter style="color-interpolation-filters:sRGB" id="filter4694" width="1.118" height="1.122" x="-.059" y="-.061"><feGaussianBlur id="feGaussianBlur4696" stdDeviation="9.15"/></filter><filter style="color-interpolation-filters:sRGB" id="filter4700" width="1.024" height="1.024" x="-.012" y="-.012"><feGaussianBlur id="feGaussianBlur4702" stdDeviation="1.83"/></filter><clipPath id="clipPath4733" clipPathUnits="userSpaceOnUse"><path style="display:inline;opacity:1;fill:#f57900;fill-opacity:1;stroke:none;stroke-width:1;stroke-linecap:round;stroke-linejoin:round;stroke-miterlimit:4;stroke-dasharray:none;stroke-opacity:1;enable-background:new" id="path4735" d="m 104,-180 c -24.376,0 -44,19.624 -44,44 V 48 c 0,24.376 19.624,44 44,44 h 34.66602 L 112,172 192,92 h 196 c 24.376,0 44,-19.624 44,-44 v -184 c 0,-24.376 -19.624,-44 -44,-44 z"/></clipPath><filter style="color-interpolation-filters:sRGB" id="filter4838" width="1.012" height="1.012" x="-.006" y="-.006"><feGaussianBlur id="feGaussianBlur4840" stdDeviation=".915"/></filter><filter style="color-interpolation-filters:sRGB" id="filter4842" width="1.012" height="1.012" x="-.006" y="-.006"><feGaussianBlur id="feGaussianBlur4844" stdDeviation=".905"/></filter><linearGradient id="linearGradient5005" x1="590" x2="590" y1="-188" y2="-166" gradientUnits="userSpaceOnUse" xlink:href="#linearGradient5003"/><linearGradient id="linearGradient5009" x1="590" x2="590" y1="-188" y2="-166" gradientTransform="translate(5.9220194,6.0546018)" gradientUnits="userSpaceOnUse" xlink:href="#linearGradient5003"/><linearGradient id="linearGradient5032" x1="580" x2="580" y1="-57" y2="-47" gradientUnits="userSpaceOnUse" xlink:href="#linearGradient3806"/><linearGradient id="linearGradient5034" x1="577" x2="577" y1="-10" y2="-2" gradientUnits="userSpaceOnUse" xlink:href="#linearGradient3806"/><linearGradient id="linearGradient5050" x1="316" x2="316" y1="75.279" y2="-164.721" gradientUnits="userSpaceOnUse" xlink:href="#linearGradient5048"/></defs><metadata id="metadata4"/><g id="layer1" transform="translate(0,260)" style="display:inline"><g id="layer7" style="display:none"><rect id="rect6284" width="48" height="48" x="568" y="-196" style="display:inline;overflow:visible;visibility:visible;fill:#eeeeec;fill-opacity:1;fill-rule:nonzero;stroke:none;stroke-width:2;marker:none;enable-background:accumulate"/><rect style="display:inline;overflow:visible;visibility:visible;fill:#eeeeec;fill-opacity:1;fill-rule:nonzero;stroke:none;stroke-width:2;marker:none;enable-background:accumulate" id="rect6592" width="32" height="32" x="568" y="-116"/><rect id="rect6749" width="22" height="22" x="569" y="-58.941" style="display:inline;overflow:visible;visibility:visible;fill:#eeeeec;fill-opacity:1;fill-rule:nonzero;stroke:none;stroke-width:2;marker:none;enable-background:accumulate"/><rect style="display:inline;overflow:visible;visibility:visible;fill:#eeeeec;fill-opacity:1;fill-rule:nonzero;stroke:none;stroke-width:2;marker:none;enable-background:accumulate" id="rect6833" width="16" height="16" x="568" y="-12"/><rect style="display:inline;overflow:visible;visibility:visible;fill:#eeeeec;fill-opacity:1;fill-rule:nonzero;stroke:none;stroke-width:2;marker:none;enable-background:accumulate" id="rect8104" width="24" height="24" x="568" y="-60"/><text style="font-style:normal;font-variant:normal;font-weight:400;font-stretch:normal;font-size:18.30133247px;line-height:125%;font-family:Cantarell;-inkscape-font-specification:'Cantarell, Normal';text-align:start;writing-mode:lr-tb;text-anchor:start;display:inline;fill:#000;fill-opacity:1;stroke:none;enable-background:new" id="context" x="31.856" y="-303.7" xml:space="preserve"><tspan id="tspan2716" x="31.856" y="-303.7">apps</tspan></text><text id="text3021" x="31.265" y="-277.901" xml:space="preserve" style="font-style:normal;font-variant:normal;font-weight:700;font-stretch:normal;font-size:18.30133247px;line-height:125%;font-family:Cantarell;-inkscape-font-specification:'Cantarell, Bold';text-align:start;writing-mode:lr-tb;text-anchor:start;display:inline;fill:#000;fill-opacity:1;stroke:none;enable-background:new"><tspan id="tspan3023" x="31.265" y="-277.901">org.gnome.Polari</tspan></text><rect style="display:inline;overflow:visible;visibility:visible;fill:#eeeeec;fill-opacity:1;fill-rule:nonzero;stroke:none;stroke-width:2;marker:none;enable-background:accumulate" id="rect13805" width="512" height="512" x="24" y="-236"/><path id="path13807" d="m 24,-236 v 512 h 511.875 v -512 h -36 V 240 H 60 v -476 z" style="display:inline;overflow:visible;visibility:visible;opacity:.4;fill:#729fcf;fill-opacity:1;fill-rule:nonzero;stroke:none;stroke-width:2;marker:none;enable-background:accumulate"/></g><g id="layer8" style="display:inline"><path id="path6231" d="m 588,-52.98991 c 2,0 2,2 2,2 v 8 c 0,2 -2,2 -2,2 h -2 l 1.49992,4.30241 L 583,-40.98991 h -8 c -2,0 -2,-2 -2,-2 v -8 c 0,-2 1.99946,-2 1.99946,-2 z" clip-path="none" style="display:inline;overflow:visible;visibility:visible;opacity:.15;fill:#000;fill-opacity:1;fill-rule:nonzero;stroke:none;stroke-width:.54060954;marker:none;enable-background:accumulate"/><path id="path6132" d="m 595,-109 c 4.00033,0 4,4 4,4 v 12 c 0,4 -4,4 -4,4 h -2 l 2,5 -6,-5 h -12 c -3.66795,0 -4,-4 -4,-4 v -12 c 0,-4 4,-4 4,-4 z" clip-path="none" style="display:inline;overflow:visible;visibility:visible;opacity:.15;fill:#000;fill-opacity:1;fill-rule:nonzero;stroke:none;stroke-width:.54060954;marker:none;enable-background:accumulate"/><path id="path4575" d="m 582,-9 c 1.95655,0 2,2 2,2 v 6 c 0,1.95626 -2,2 -2,2 h -1 l 1,3 -3,-3 h -7 c -1.95625,0 -2,-2 -2,-2 v -6 c 0,-2.00203 2,-2 2,-2 z" clip-path="none" style="display:inline;overflow:visible;visibility:visible;fill:url(#radialGradient4579);fill-opacity:1;fill-rule:nonzero;stroke:none;stroke-width:.54060954;marker:none;enable-background:accumulate"/><path style="color:#000;display:inline;overflow:visible;visibility:visible;fill:none;stroke:url(#linearGradient7244-0);stroke-width:2;stroke-linecap:butt;stroke-linejoin:miter;stroke-miterlimit:4;stroke-dasharray:none;stroke-dashoffset:0;stroke-opacity:1;marker:none;enable-background:accumulate" id="path4593" d="m 318,215 c 1.95655,0 2,2 2,2 v 6 c 0,1.95626 -2,2 -2,2 h -1 l 1,3 -3,-3 h -7 c -1.95625,0 -2,-2 -2,-2 v -6 c 0,-2.00203 2,-2 2,-2 z" clip-path="url(#clipPath4597)" transform="translate(264,-224)"/><path style="display:inline;overflow:visible;visibility:visible;fill:url(#linearGradient5034);fill-opacity:1;fill-rule:nonzero;stroke:none;stroke-width:.54060954;marker:none;enable-background:accumulate" id="path4577" d="m 570,-11 c -1.95655,0 -1.95626,1.95626 -1.95626,1.95626 L 568.00004,-3 c -0.0142,1.95621 2,2 2,2 h 1 l -1,3 3,-3 h 7 c 1.95626,0 2,-2 2,-2 v -6 c 0,-1.95626 -2,-2 -2,-2 z" clip-path="none"/><path id="path4583" d="m 306,213 c -1.95655,0 -1.95626,1.95626 -1.95626,1.95626 L 304,221 c -0.0142,1.95621 2,2 2,2 h 1 l -1,3 3,-3 h 7 c 1.95626,0 2,-2 2,-2 v -6 c 0,-1.95626 -2,-2 -2,-2 z" clip-path="url(#clipPath4587)" transform="translate(264,-224)" style="color:#000;display:inline;overflow:visible;visibility:visible;fill:none;stroke:url(#linearGradient7113-3-7);stroke-width:2;stroke-linecap:butt;stroke-linejoin:miter;stroke-miterlimit:4;stroke-dasharray:none;stroke-dashoffset:0;stroke-opacity:1;marker:none;enable-background:accumulate"/><path id="path6060" d="m 574,-8 -0.1875,1 H 572.5 v 1 h 1.09375 l -0.1875,1 H 572 v 1 h 1.1875 L 573,-3 h 1 l 0.1875,-1 h 1 L 575,-3 h 1 l 0.1875,-1 H 577.5 v -1 h -1.09375 l 0.1875,-1 H 578 v -1 h -1.1875 L 577,-8 h -1 l -0.1875,1 h -1 L 575,-8 Z m 0.59375,2 h 1 l -0.1875,1 h -1 z" style="display:inline;fill:#fff;fill-opacity:1;stroke:none;enable-background:new"/><path style="display:inline;fill:#a1c35f;fill-opacity:1;stroke:none;enable-background:new" id="path4607" d="m 574,-9 -0.1875,1 H 572.5 v 1 h 1.09375 l -0.1875,1 H 572 v 1 h 1.1875 L 573,-4 h 1 l 0.1875,-1 h 1 L 575,-4 h 1 l 0.1875,-1 H 577.5 v -1 h -1.09375 l 0.1875,-1 H 578 v -1 h -1.1875 L 577,-9 h -1 l -0.1875,1 h -1 L 575,-9 Z m 0.59375,2 h 1 l -0.1875,1 h -1 z"/><path style="display:inline;overflow:visible;visibility:visible;fill:url(#radialGradient6159);fill-opacity:1;fill-rule:nonzero;stroke:none;stroke-width:.54060954;marker:none;enable-background:accumulate" id="path6062" d="m 577,-109.5 c 0,0 -0.90051,-0.003 -1.78125,0.4375 -0.88074,0.44037 -1.71875,1.22917 -1.71875,3.0625 v 11.96875 0.0312 c 0.003,0.0283 0.085,0.86822 0.5625,1.75 0.48523,0.89608 1.28528,1.75 2.9375,1.75 h 12 0.1875 l 0.125,0.125 4.5,3.75 -1.28125,-3.1875 -0.28125,-0.6875 h 0.75 2 c 0,0 0.90051,0.003 1.78125,-0.4375 C 597.66199,-91.37787 598.5,-92.16667 598.5,-94 v -12 c 0,0 0.003,-0.90052 -0.4375,-1.78125 C 597.62217,-108.66198 596.83351,-109.5 595,-109.5 Z" clip-path="none"/><path id="path6080" d="m 331,130 c 4.00033,0 4,4 4,4 v 12 c 0,4 -4,4 -4,4 h -2 l 2,5 -6,-5 h -12 c -3.66795,0 -4,-4 -4,-4 v -12 c 0,-4 4,-4 4,-4 z" clip-path="url(#clipPath5684)" transform="translate(264,-240)" style="color:#000;display:inline;overflow:visible;visibility:visible;fill:none;stroke:url(#linearGradient7244-3);stroke-width:2;stroke-linecap:butt;stroke-linejoin:miter;stroke-miterlimit:4;stroke-dasharray:none;stroke-dashoffset:0;stroke-opacity:1;marker:none;enable-background:accumulate"/><path style="color:#000;display:inline;overflow:visible;visibility:visible;opacity:.2;fill:none;stroke:#fff;stroke-width:1.05624592;stroke-linecap:butt;stroke-linejoin:miter;stroke-miterlimit:4;stroke-dashoffset:0;stroke-opacity:1;marker:none;enable-background:accumulate" id="rect7325-4" d="m 576.51596,-108.29202 h 18.82162 c 1.08083,0 1.95096,0.86624 1.95096,1.94222 v 12.80261 c 0,1.07599 -0.87037,1.96519 -1.95096,1.94222 h -4.77643 l 0.97547,2.06361 -1.94191,-2.06361 h -13.07875 c -1.08082,0 -1.95095,-0.86623 -1.95095,-1.94222 v -12.80261 c 0,-1.07598 0.87013,-1.94222 1.95095,-1.94222 z"/><path style="color:#000;display:inline;overflow:visible;visibility:visible;opacity:.15510206;fill:#000;fill-opacity:1;fill-rule:nonzero;stroke:none;stroke-width:.54060954;marker:none;enable-background:accumulate" id="path6134" d="m 573,-114 c -4,0 -4,4 -4,4 v 12 c 0,4 4,4 4,4 h 2 l -2,6 6,-6 h 13 c 4,0 4,-4 4,-4 v -12 c 0,-4 -4,-4 -4,-4 z" clip-path="none"/><path style="display:inline;overflow:visible;visibility:visible;fill:url(#radialGradient6148);fill-opacity:1;fill-rule:nonzero;stroke:none;stroke-width:.54060954;marker:none;enable-background:accumulate" id="path6066" d="m 573,-114.5 c -1.83333,0 -2.62213,0.83801 -3.0625,1.71875 C 569.497,-111.90051 569.5,-111 569.5,-111 v 12 c 0,1.83333 0.83801,2.62213 1.71875,3.0625 C 572.09949,-95.497 573,-95.5 573,-95.5 h 2 0.6875 l -0.21875,0.65625 -1.34375,4.03125 4.53125,-4.53125 0.125,-0.15625 H 579 592 c 1.83333,0 2.62213,-0.83801 3.0625,-1.71875 C 595.503,-98.09949 595.5,-99 595.5,-99 v -12 c 0,-1.83333 -0.83801,-2.62213 -1.71875,-3.0625 C 592.90051,-114.503 592,-114.5 592,-114.5 Z" clip-path="none"/><path style="color:#000;display:inline;overflow:visible;visibility:visible;fill:none;stroke:url(#linearGradient7113-3);stroke-width:2;stroke-linecap:butt;stroke-linejoin:miter;stroke-miterlimit:4;stroke-dasharray:none;stroke-dashoffset:0;stroke-opacity:1;marker:none;enable-background:accumulate" id="path6104" d="m 309,126 c -4,0 -4,4 -4,4 v 12 c 0,4 4,4 4,4 h 2 l -2,6 6,-6 h 13 c 4,0 4,-4 4,-4 v -12 c 0,-4 -4,-4 -4,-4 z" clip-path="url(#clipPath5679)" transform="translate(264,-241)"/><path style="display:inline;overflow:visible;visibility:visible;fill:url(#radialGradient6180);fill-opacity:1;fill-rule:nonzero;stroke:none;stroke-width:.54060954;marker:none;enable-background:accumulate" id="path6164" d="m 588,-53.9895 c 2,0 2,2 2,2 v 8 c 0,2 -2,2 -2,2 h -2 l 1.49992,4.30241 L 583,-41.9895 h -8 c -2,0 -2,-2 -2,-2 v -8 c 0,-2 1.99946,-2 1.99946,-2 z" clip-path="none"/><path style="display:inline;overflow:visible;visibility:visible;opacity:.2;fill:none;stroke:#fff;stroke-width:4;stroke-miterlimit:4;stroke-dasharray:none;stroke-opacity:1;marker:none;enable-background:accumulate" id="path6208" d="m 324,178 c 2,0 2,2 2,2 v 8 c 0,2 -2,2 -2,2 h -2 l 1.49992,4.30241 L 319,190 h -8 c -2,0 -2,-2 -2,-2 v -8 c 0,-2 1.99946,-2 1.99946,-2 z" clip-path="url(#clipPath6202)" transform="translate(264,-231.9895)"/><path id="path6188" d="m 324,178 c 2,0 2,2 2,2 v 8 c 0,2 -2,2 -2,2 h -2 l 1.49992,4.30241 L 319,190 h -8 c -2,0 -2,-2 -2,-2 v -8 c 0,-2 1.99946,-2 1.99946,-2 z" clip-path="url(#clipPath6202)" transform="translate(264,-231.9895)" style="color:#000;display:inline;overflow:visible;visibility:visible;fill:none;stroke:url(#linearGradient7244-9);stroke-width:2;stroke-linecap:butt;stroke-linejoin:miter;stroke-miterlimit:4;stroke-dasharray:none;stroke-dashoffset:0;stroke-opacity:1;marker:none;enable-background:accumulate"/><path style="display:inline;overflow:visible;visibility:visible;opacity:.2;fill:#000;fill-opacity:1;fill-rule:nonzero;stroke:none;stroke-width:.54060954;marker:none;enable-background:accumulate" id="path6233" d="m 572,-56.98991 c -2,0 -2,2 -2,2 l 9e-5,8.03224 c 2e-5,1.96781 1.99991,1.96776 1.99991,1.96776 h 2 l -2,4 5,-4 h 8 c 2.00381,0 2,-2 2,-2 v -8 c 0,-2 -1.99936,-2 -1.99936,-2 z" clip-path="none"/><path id="path6170" d="m 572,-57.9895 c -2,0 -2,2 -2,2 l 9e-5,8.03224 c 2e-5,1.96781 1.99991,1.96776 1.99991,1.96776 h 2 l -2,4 5,-4 h 8 c 2.00381,0 2,-2 2,-2 v -8 c 0,-2 -1.99936,-2 -1.99936,-2 z" clip-path="none" style="display:inline;overflow:visible;visibility:visible;fill:url(#linearGradient5032);fill-opacity:1;fill-rule:nonzero;stroke:none;stroke-width:.54060954;marker:none;enable-background:accumulate"/><path id="path6210" d="m 308,175 c -2,0 -2,2 -2,2 l 9e-5,8.03224 C 306.00011,187.00005 308,187 308,187 h 2 l -2,4 5,-4 h 8 c 2.00381,0 2,-2 2,-2 v -8 c 0,-2 -1.99936,-2 -1.99936,-2 z" clip-path="url(#clipPath6194)" transform="translate(264,-232.9895)" style="display:inline;overflow:visible;visibility:visible;opacity:.2;fill:none;stroke:#fff;stroke-width:4;stroke-miterlimit:4;stroke-dasharray:none;stroke-opacity:1;marker:none;enable-background:accumulate"/><path style="color:#000;display:inline;overflow:visible;visibility:visible;fill:none;stroke:url(#linearGradient7113-3-6);stroke-width:2;stroke-linecap:butt;stroke-linejoin:miter;stroke-miterlimit:4;stroke-dasharray:none;stroke-dashoffset:0;stroke-opacity:1;marker:none;enable-background:accumulate" id="path6190" d="m 308,175 c -2,0 -2,2 -2,2 l 9e-5,8.03224 C 306.00011,187.00005 308,187 308,187 h 2 l -2,4 5,-4 h 8 c 2.00381,0 2,-2 2,-2 v -8 c 0,-2 -1.99936,-2 -1.99936,-2 z" clip-path="url(#clipPath6194)" transform="translate(264,-232.9895)"/><path style="display:inline;fill:#fff;fill-opacity:1;stroke:none;enable-background:new" id="path6261" d="m 580,-109 -0.375,2 H 577 v 2 h 2.1875 l -0.375,2 H 576 v 2 h 2.375 L 578,-99 h 2 l 0.375,-2 h 2 L 582,-99 h 2 l 0.375,-2 H 587 v -2 h -2.1875 l 0.375,-2 H 588 v -2 h -2.375 l 0.375,-2 h -2 l -0.375,2 h -2 l 0.375,-2 z m 1.1875,4 h 2 l -0.375,2 h -2 z"/><path id="path6257" d="m 580,-110 -0.375,2 H 577 v 2 h 2.1875 l -0.375,2 H 576 v 2 h 2.375 l -0.375,2 h 2 l 0.375,-2 h 2 l -0.375,2 h 2 l 0.375,-2 H 587 v -2 h -2.1875 l 0.375,-2 H 588 v -2 h -2.375 l 0.375,-2 h -2 l -0.375,2 h -2 l 0.375,-2 z m 1.1875,4 h 2 l -0.375,2 h -2 z" style="display:inline;fill:#a1c35f;fill-opacity:1;stroke:none;enable-background:new"/><path style="display:inline;fill:#fff;fill-opacity:1;stroke:none;enable-background:new" id="path34359" d="m 578.08839,-53.96177 -0.1875,1 h -1.3125 v 1 h 1.09375 l -0.1875,1 h -1.40625 v 1 h 1.1875 l -0.40847,1.97227 h 1 l 0.40847,-1.97227 h 1 l -0.40847,1.97227 h 1 l 0.40847,-1.97227 h 1.3125 v -1 h -1.09375 l 0.1875,-1 h 1.40625 v -1 h -1.1875 l 0.1875,-1 h -1 l -0.1875,1 h -1 l 0.1875,-1 z m 0.59375,2 h 1 l -0.1875,1 h -1 z"/><path id="path34355" d="m 578.08839,-54.96177 -0.1875,1 h -1.3125 v 1 h 1.09375 l -0.1875,1 h -1.40625 v 1 h 1.1875 l -0.40847,1.97227 h 1 l 0.40847,-1.97227 h 1 l -0.40847,1.97227 h 1 l 0.40847,-1.97227 h 1.3125 v -1 h -1.09375 l 0.1875,-1 h 1.40625 v -1 h -1.1875 l 0.1875,-1 h -1 l -0.1875,1 h -1 l 0.1875,-1 z m 0.59375,2 h 1 l -0.1875,1 h -1 z" style="display:inline;fill:#a1c35f;fill-opacity:1;stroke:none;enable-background:new"/><path id="path6272" d="m 607.99552,-182.99983 c 5.13594,0 5,5 5,5 v 14.9179 c 0,5.13519 -5,5.0821 -5,5.0821 h -3 l 3,7 -8,-7 h -18 c -5.13518,0 -5,-5 -5,-5 v -15 c 0,-5.13519 5,-5 5,-5 z" clip-path="none" style="display:inline;overflow:visible;visibility:visible;opacity:.17551018;fill:#000;fill-opacity:1;fill-rule:nonzero;stroke:none;stroke-width:.54060954;marker:none;enable-background:accumulate"/><path style="display:inline;overflow:visible;visibility:visible;fill:url(#radialGradient6291-9);fill-opacity:1;fill-rule:nonzero;stroke:none;stroke-width:.54060954;marker:none;enable-background:accumulate" id="path4213-8" d="m 581.99552,-184.49983 c 0,0 -1.15572,-0.0163 -2.28125,0.53125 -1.12553,0.54755 -2.21875,1.56344 -2.21875,3.96875 v 16 c 0,0 -0.0163,1.15572 0.53125,2.28125 0.54755,1.12553 1.56344,2.21875 3.96875,2.21875 h 18 0.1875 l 0.15625,0.125 6.3125,5.53125 -2.125,-4.96875 -0.28125,-0.6875 h 0.75 3 c 0,0 1.1533,0.005 2.28125,-0.5625 1.12795,-0.56725 2.21875,-1.62594 2.21875,-4.03125 v -15.90625 c 0,0 0.0162,-1.15575 -0.53125,-2.28125 -0.54745,-1.1255 -1.56304,-2.21875 -3.96875,-2.21875 z" clip-path="none"/><path style="color:#000;display:inline;overflow:visible;visibility:visible;opacity:.4;fill:none;stroke:url(#linearGradient5009);stroke-width:1.05624592;stroke-linecap:butt;stroke-linejoin:miter;stroke-miterlimit:4;stroke-dashoffset:0;stroke-opacity:1;marker:none;enable-background:accumulate" id="path5007" d="m 608.561,-183.41711 h -27.28689 c -1.56695,0 -2.82843,1.26148 -2.82843,2.82843 v 18.2869 c 0,1.56695 1.26148,2.82843 2.82843,2.82843 h 6.02769 l -1.41421,3.0052 3.71231,-3.0052 h 18.9611 c 1.56694,0 2.82842,-1.26148 2.82842,-2.82843 v -18.2869 c 0,-1.56695 -1.26148,-2.82843 -2.82842,-2.82843 z"/><path id="path6237-7" d="m 344,70 c 5.13594,0 5,5 5,5 V 90.917901 C 349,96.053086 344,96 344,96 h -3 l 3,7 -8,-7 h -18 c -5.13518,0 -5,-5 -5,-5 V 75 c 0,-5.135188 5,-5 5,-5 z" clip-path="url(#clipPath5668)" transform="translate(263.99552,-254.99983)" style="display:inline;overflow:visible;visibility:visible;fill:none;stroke:url(#linearGradient7244-2);stroke-width:2;stroke-miterlimit:4;stroke-dasharray:none;stroke-opacity:1;marker:none;enable-background:accumulate"/><path style="display:inline;overflow:visible;visibility:visible;opacity:.15510206;fill:#000;fill-opacity:1;fill-rule:nonzero;stroke:none;stroke-width:.54060954;marker:none;enable-background:accumulate" id="path6274-6" d="m 575.99552,-188.99983 c -5,0 -5,5 -5,5 v 15.89403 c 0,5.13519 5,5.10597 5,5.10597 h 3 l -3,7 8,-7 h 18 c 5,0 5,-5 5,-5 v -16 c 0,-5.13519 -5,-5 -5,-5 z" clip-path="none"/><path style="color:#000;font-style:normal;font-variant:normal;font-weight:400;font-stretch:normal;font-size:medium;line-height:normal;font-family:Sans;-inkscape-font-specification:Sans;text-indent:0;text-align:start;text-decoration:none;text-decoration-line:none;letter-spacing:normal;word-spacing:normal;text-transform:none;writing-mode:lr-tb;direction:ltr;baseline-shift:baseline;text-anchor:start;display:inline;overflow:visible;visibility:visible;fill:url(#radialGradient4563-9);fill-opacity:1;stroke:none;stroke-width:2;marker:none;enable-background:accumulate" id="path4219-1" d="m 608.0743,-184.00911 v 0.42793 h -25.67593 v -0.42793 z"/><path style="display:inline;overflow:visible;visibility:visible;fill:url(#radialGradient6282-1);fill-opacity:1;fill-rule:nonzero;stroke:none;stroke-width:.54060954;marker:none;enable-background:accumulate" id="path4225-2" d="m 575.99552,-190.49983 c -2.33333,0 -3.37213,1.08801 -3.9375,2.21875 -0.5655,1.13074 -0.5625,2.28125 -0.5625,2.28125 v 16.90625 c 0,2.40531 1.0901,3.45826 2.21875,4.03125 1.12865,0.57299 2.28125,0.5625 2.28125,0.5625 h 3 0.75 l -0.28125,0.6875 -2.125,4.96875 6.3125,-5.53125 0.15625,-0.125 h 0.1875 18 c 2.33333,0 3.37213,-1.08801 3.9375,-2.21875 0.5655,-1.13074 0.5625,-2.28125 0.5625,-2.28125 v -17 c 0,-2.40531 -1.09322,-3.4212 -2.21875,-3.96875 -1.12553,-0.54755 -2.28125,-0.53125 -2.28125,-0.53125 z" clip-path="none"/><path style="display:inline;overflow:visible;visibility:visible;fill:none;stroke:url(#linearGradient7113-0);stroke-width:2;stroke-miterlimit:4;stroke-dasharray:none;stroke-opacity:1;marker:none;enable-background:accumulate" id="path6239-3" d="m 312,66 c -5,0 -5,5 -5,5 V 87.894034 C 307,93.029219 312,93 312,93 h 3 l -3,7 8,-7 h 18 c 5,0 5,-5 5,-5 V 71 c 0,-5.135187 -5,-5 -5,-5 z" clip-path="url(#clipPath5663)" transform="translate(263.99552,-256.99983)"/><path style="display:inline;fill:#fff;fill-opacity:1;stroke:none;enable-background:new" id="path6261-2-9" d="m 586.99552,-181.99983 -0.375,2 h -2.625 v 2 h 2.1875 l -0.375,2 h -2.8125 v 2 h 2.375 l -0.375,2 h 2 l 0.375,-2 h 2 l -0.375,2 h 2 l 0.375,-2 h 2.625 v -2 h -2.1875 l 0.375,-2 h 2.8125 v -2 h -2.375 l 0.375,-2 h -2 l -0.375,2 h -2 l 0.375,-2 z m 1.1875,4 h 2 l -0.375,2 h -2 z"/><path id="path6257-0-4" d="m 586.99552,-182.99983 -0.375,2 h -2.625 v 2 h 2.1875 l -0.375,2 h -2.8125 v 2 h 2.375 l -0.375,2 h 2 l 0.375,-2 h 2 l -0.375,2 h 2 l 0.375,-2 h 2.625 v -2 h -2.1875 l 0.375,-2 h 2.8125 v -2 h -2.375 l 0.375,-2 h -2 l -0.375,2 h -2 l 0.375,-2 z m 1.1875,4 h 2 l -0.375,2 h -2 z" style="display:inline;fill:#a1c35f;fill-opacity:1;stroke:none;enable-background:new"/><path id="path5672" d="m 602.63898,-189.47171 h -27.28689 c -1.56695,0 -2.82843,1.26148 -2.82843,2.82843 v 18.2869 c 0,1.56695 1.26148,2.82843 2.82843,2.82843 h 6.02769 l -1.41421,3.0052 3.71231,-3.0052 h 18.9611 c 1.56694,0 2.82842,-1.26148 2.82842,-2.82843 v -18.2869 c 0,-1.56695 -1.26148,-2.82843 -2.82842,-2.82843 z" style="color:#000;display:inline;overflow:visible;visibility:visible;opacity:.4;fill:none;stroke:url(#linearGradient5005);stroke-width:1.05624592;stroke-linecap:butt;stroke-linejoin:miter;stroke-miterlimit:4;stroke-dashoffset:0;stroke-opacity:1;marker:none;enable-background:accumulate"/><path id="path5688" d="m 592.27297,-113.46615 h -19.79389 c -1.08083,0 -1.95096,0.86624 -1.95096,1.94222 v 12.979398 c 0,1.07599 0.87037,1.96519 1.95096,1.94222 h 4.77643 l -0.97547,2.06361 1.94191,-2.06361 h 14.05102 c 1.08082,0 1.95095,-0.86623 1.95095,-1.94222 v -12.979398 c 0,-1.07598 -0.87013,-1.94222 -1.95095,-1.94222 z" style="color:#000;display:inline;overflow:visible;visibility:visible;opacity:.2;fill:none;stroke:#fff;stroke-width:1.05624592;stroke-linecap:butt;stroke-linejoin:miter;stroke-miterlimit:4;stroke-dashoffset:0;stroke-opacity:1;marker:none;enable-background:accumulate"/><rect style="opacity:.3;fill:none;fill-opacity:1;stroke:#fff;stroke-width:.99999994;stroke-linecap:round;stroke-linejoin:round;stroke-miterlimit:4;stroke-dasharray:none;stroke-opacity:1" id="rect4997" width="11" height="7" x="569.5" y="-9.5"/><path style="fill:none;fill-rule:evenodd;stroke:#fff;stroke-width:1px;stroke-linecap:round;stroke-linejoin:miter;stroke-opacity:1;opacity:.2" id="path5011" d="m 580.95581,-164.51386 -1.43218,2.91919"/><path id="path5013" d="m 601.25846,-159.76256 3.64189,3.27274" style="opacity:.2;fill:none;fill-rule:evenodd;stroke:#fff;stroke-width:1px;stroke-linecap:round;stroke-linejoin:miter;stroke-opacity:1"/><path id="path5015" d="m 602.50712,-165.5 h -27" style="opacity:.2;fill:none;fill-rule:evenodd;stroke:#fff;stroke-width:1px;stroke-linecap:round;stroke-linejoin:miter;stroke-opacity:1"/></g><g id="layer9" style="display:inline"><g id="g4980"><path id="path4704" d="m 456,-122 c 24.376,0 44,19.624 44,44 v 184 c 0,24.376 -19.624,44 -44,44 H 421.33398 L 448,230 368,150 H 172 c -24.376,0 -44,-19.624 -44,-44 V -78 c 0,-24.376 19.624,-44 44,-44 z" style="display:inline;opacity:.3;fill:#000;fill-opacity:1;stroke:none;stroke-width:1;stroke-linecap:round;stroke-linejoin:round;stroke-miterlimit:4;stroke-dasharray:none;stroke-opacity:1;filter:url(#filter4700);enable-background:new"/><path style="display:inline;opacity:.1;fill:#000;fill-opacity:1;stroke:none;stroke-width:1;stroke-linecap:round;stroke-linejoin:round;stroke-miterlimit:4;stroke-dasharray:none;stroke-opacity:1;filter:url(#filter4700);enable-background:new" id="path4698" d="m 456,-124 c 24.376,0 44,19.624 44,44 v 184 c 0,24.376 -19.624,44 -44,44 H 421.33398 L 448,228 368,148 H 172 c -24.376,0 -44,-19.624 -44,-44 V -80 c 0,-24.376 19.624,-44 44,-44 z"/><path id="path4692" d="m 456,-120 c 24.376,0 44,19.624 44,44 v 184 c 0,24.376 -19.624,44 -44,44 H 421.33398 L 448,232 368,152 H 172 c -24.376,0 -44,-19.624 -44,-44 V -76 c 0,-24.376 19.624,-44 44,-44 z" style="display:inline;opacity:.2;fill:#000;fill-opacity:1;stroke:none;stroke-width:1;stroke-linecap:round;stroke-linejoin:round;stroke-miterlimit:4;stroke-dasharray:none;stroke-opacity:1;filter:url(#filter4694);enable-background:new"/><path style="display:inline;opacity:1;fill:url(#radialGradient5165);fill-opacity:1;stroke:none;stroke-width:1;stroke-linecap:round;stroke-linejoin:round;stroke-miterlimit:4;stroke-dasharray:none;stroke-opacity:1;enable-background:new" id="path5163" d="m 456,-124 c 24.376,0 44,19.624 44,44 v 184 c 0,24.376 -19.624,44 -44,44 H 421.33398 L 448,228 368,148 H 172 c -24.376,0 -44,-19.624 -44,-44 V -80 c 0,-24.376 19.624,-44 44,-44 z"/><path style="color:#000;font-style:normal;font-variant:normal;font-weight:400;font-stretch:normal;font-size:medium;line-height:normal;font-family:Sans;-inkscape-font-specification:Sans;text-indent:0;text-align:start;text-decoration:none;text-decoration-line:none;letter-spacing:normal;word-spacing:normal;text-transform:none;writing-mode:lr-tb;direction:ltr;baseline-shift:baseline;text-anchor:start;display:inline;overflow:visible;visibility:visible;opacity:.4;fill:url(#radialGradient5867);fill-opacity:1;stroke:none;stroke-width:1.61232674;marker:none;filter:url(#filter5891);enable-background:accumulate" id="path5863" d="m 493,74 h 3.096 V -76.85024 H 493 Z"/><path style="display:inline;opacity:.5;fill:url(#linearGradient5714);fill-opacity:1;stroke:none;stroke-width:1;stroke-linecap:round;stroke-linejoin:round;stroke-miterlimit:4;stroke-dasharray:none;stroke-opacity:1;filter:url(#filter5736);enable-background:new" id="path5712" d="m 492,98.32322 v 7.61719 c 0,20.08238 -15.91762,36 -36,36 h -34.66602 c -5.45993,6.2e-4 -7.31535,5.3492 -5.58984,10.5293 l 19.95117,57.85351 -64.03906,-66.03906 C 370.15616,142.78387 370.12159,141.94082 368,141.94041 H 172 c -20.08238,0 -36,-15.91762 -36,-36 v -7.61719 c 0,20.08238 15.91762,36 36,36 h 284 c 20.08238,0 36,-15.91762 36,-36 z"/><path id="path5280" d="m 104,-180 c -24.376,0 -44,19.624 -44,44 V 48 c 0,24.376 19.624,44 44,44 h 34.66602 L 112,172 192,92 h 196 c 24.376,0 44,-19.624 44,-44 v -184 c 0,-24.376 -19.624,-44 -44,-44 z" clip-path="url(#clipPath4733)" transform="matrix(-1,0,0,1,560,56)" style="display:inline;opacity:1;fill:none;fill-opacity:1;stroke:url(#linearGradient5282);stroke-width:1;stroke-linecap:round;stroke-linejoin:round;stroke-miterlimit:4;stroke-dasharray:none;stroke-opacity:1;filter:url(#filter4842);enable-background:new"/></g><g id="g5030"><path style="display:inline;opacity:.3;fill:#111;fill-opacity:1;stroke:none;stroke-width:1;stroke-linecap:round;stroke-linejoin:round;stroke-miterlimit:4;stroke-dasharray:none;stroke-opacity:1;filter:url(#filter4686);enable-background:new" id="path4706" d="m 104,-186 c -24.376,0 -44,19.624 -44,44 V 50 c 0,24.376 19.624,44 44,44 h 34.66602 L 112,174 192,94 h 196 c 24.376,0 44,-19.624 44,-44 v -192 c 0,-24.376 -19.624,-44 -44,-44 z"/><path style="display:inline;opacity:.2;fill:#111;fill-opacity:1;stroke:none;stroke-width:1;stroke-linecap:round;stroke-linejoin:round;stroke-miterlimit:4;stroke-dasharray:none;stroke-opacity:1;filter:url(#filter4680);enable-background:new" id="path4678" d="m 104,-184 c -24.376,0 -44,19.624 -44,44 V 52 c 0,24.376 19.624,44 44,44 h 34.66602 L 112,176 192,96 h 196 c 24.376,0 44,-19.624 44,-44 v -192 c 0,-24.376 -19.624,-44 -44,-44 z"/><path id="path4684" d="m 104,-188 c -24.376,0 -44,19.624 -44,44 V 48 c 0,24.376 19.624,44 44,44 h 34.66602 L 112,172 192,92 h 196 c 24.376,0 44,-19.624 44,-44 v -192 c 0,-24.376 -19.624,-44 -44,-44 z" style="display:inline;opacity:.1;fill:#111;fill-opacity:1;stroke:none;stroke-width:1;stroke-linecap:round;stroke-linejoin:round;stroke-miterlimit:4;stroke-dasharray:none;stroke-opacity:1;filter:url(#filter4686);enable-background:new"/><path id="rect5135" d="m 104,-188 c -24.376,0 -44,19.624 -44,44 V 48 c 0,24.376 19.624,44 44,44 h 34.66602 L 112,172 192,92 h 196 c 24.376,0 44,-19.624 44,-44 v -192 c 0,-24.376 -19.624,-44 -44,-44 z" style="display:inline;opacity:1;fill:url(#radialGradient5153);fill-opacity:1;stroke:none;stroke-width:1;stroke-linecap:round;stroke-linejoin:round;stroke-miterlimit:4;stroke-dasharray:none;stroke-opacity:1;enable-background:new"/><path id="path5411" d="m 427,23.999998 h 3.096 V -134.85024 H 427 Z" style="color:#000;font-style:normal;font-variant:normal;font-weight:400;font-stretch:normal;font-size:medium;line-height:normal;font-family:Sans;-inkscape-font-specification:Sans;text-indent:0;text-align:start;text-decoration:none;text-decoration-line:none;letter-spacing:normal;word-spacing:normal;text-transform:none;writing-mode:lr-tb;direction:ltr;baseline-shift:baseline;text-anchor:start;display:inline;overflow:visible;visibility:visible;opacity:.5;fill:url(#radialGradient5413);fill-opacity:1;stroke:none;stroke-width:1.61232674;marker:none;filter:url(#filter5887);enable-background:accumulate"/><path id="path5692" d="M 68,42.38281 V 50 c 0,20.08238 15.917622,36 36,36 h 34.66602 c 5.45993,6.21e-4 3.31535,5.349201 1.58984,10.5293 l -19.95117,59.85351 66.03906,-68.03906 C 187.84384,86.84346 189.87841,86.000408 192,86 h 196 c 20.08238,0 36,-15.91762 36,-36 v -7.61719 c 0,20.08238 -15.91762,36 -36,36 H 104 c -20.082378,0 -36,-15.91762 -36,-36 z" style="display:inline;opacity:.5;fill:url(#linearGradient5710);fill-opacity:1;stroke:none;stroke-width:1;stroke-linecap:round;stroke-linejoin:round;stroke-miterlimit:4;stroke-dasharray:none;stroke-opacity:1;filter:url(#filter5732);enable-background:new"/><path style="color:#000;font-style:normal;font-variant:normal;font-weight:400;font-stretch:normal;font-size:medium;line-height:normal;font-family:Sans;-inkscape-font-specification:Sans;text-indent:0;text-align:start;text-decoration:none;text-decoration-line:none;letter-spacing:normal;word-spacing:normal;text-transform:none;writing-mode:lr-tb;direction:ltr;baseline-shift:baseline;text-anchor:start;display:inline;overflow:visible;visibility:visible;opacity:.5;fill:url(#radialGradient5861);fill-opacity:1;stroke:none;stroke-width:1.61232674;marker:none;filter:url(#filter5883);enable-background:accumulate" id="path5859" d="m 63,23.999998 h 3.096 V -134.85024 H 63 Z"/><path style="display:inline;opacity:1;fill:none;fill-opacity:1;stroke:url(#linearGradient5181);stroke-width:1;stroke-linecap:round;stroke-linejoin:round;stroke-miterlimit:4;stroke-dasharray:none;stroke-opacity:1;filter:url(#filter4838);enable-background:new" id="path5167" d="m 104,-188 c -24.376,0 -44,19.624 -44,44 V 48 c 0,24.376 19.624,44 44,44 h 34.66602 L 112,172 192,92 h 196 c 24.376,0 44,-19.624 44,-44 v -192 c 0,-24.376 -19.624,-44 -44,-44 z" clip-path="url(#clipPath4669)"/><g style="opacity:.5;fill:#fff;fill-opacity:1" id="g4921" transform="translate(4.000005,2.7207)"><path id="path4919" d="m 216.46679,-116.7207 -7.30469,36.014894 h -29.80078 l -4.42187,21.72461 h 29.80078 l -5,26.615046 h -29.60742 l -4.42188,21.7246 h 29.60742 L 187.6289,27.2793 h 22.68555 l 7.6914,-37.92085 h 25.95313 l -7.68945,37.92085 h 22.68554 l 7.69141,-37.92085 h 29.79883 l 4.42187,-21.7246 h -29.79883 l 4.99805,-26.615046 h 29.80078 l 4.42188,-21.72461 h -29.80079 l 7.30665,-36.014894 h -22.6875 l -7.30469,36.014894 h -25.95508 l 7.30664,-36.014894 z m 10.13672,56.739504 h 26.77734 1.21485 l -5.39258,28.615046 h -27.99219 z" style="font-style:italic;font-variant:normal;font-weight:700;font-stretch:normal;font-size:96.12817383px;line-height:125%;font-family:Cantarell;-inkscape-font-specification:'Cantarell Bold Italic';letter-spacing:0;word-spacing:0;display:inline;fill:#fff;fill-opacity:1;stroke:none;stroke-width:1;enable-background:new"/></g><g id="g4711" transform="translate(4.000005,0.7207)"><path style="font-style:italic;font-variant:normal;font-weight:700;font-stretch:normal;font-size:96.12817383px;line-height:125%;font-family:Cantarell;-inkscape-font-specification:'Cantarell Bold Italic';letter-spacing:0;word-spacing:0;display:inline;fill:url(#linearGradient5050);fill-opacity:1;stroke:none;stroke-width:1;enable-background:new" id="path5520" d="m 216.46679,-116.7207 -7.30469,36.014894 h -29.80078 l -4.42187,21.72461 h 29.80078 l -5,26.615046 h -29.60742 l -4.42188,21.7246 h 29.60742 L 187.6289,27.2793 h 22.68555 l 7.6914,-37.92085 h 25.95313 l -7.68945,37.92085 h 22.68554 l 7.69141,-37.92085 h 29.79883 l 4.42187,-21.7246 h -29.79883 l 4.99805,-26.615046 h 29.80078 l 4.42188,-21.72461 h -29.80079 l 7.30665,-36.014894 h -22.6875 l -7.30469,36.014894 h -25.95508 l 7.30664,-36.014894 z m 10.13672,56.739504 h 26.77734 1.21485 l -5.39258,28.615046 h -27.99219 z"/></g><path id="path4923" d="m 220.4668,-116 -7.30469,36.01562 h -29.80078 l -4.42188,21.72461 h 0.40625 l 4.01563,-19.72461 h 29.80078 L 220.4668,-114 h 22.28125 l 0.40625,-2 z m 48.64062,0 -7.30469,36.01562 h -25.54882 l -0.40625,2 h 25.95507 L 269.10742,-114 h 22.28125 l 0.40625,-2 z m 15.78711,36.01562 -0.40625,2 h 29.39453 l 0.40625,-2 z m -26.67578,22.72461 -5.01563,26.61524 h -27.61523 l -0.37695,2 h 27.99218 l 5.39258,-28.61524 z m -49.85352,1 -4.625,24.61524 h -29.60742 l -4.42187,21.72461 h 0.40625 l 4.01562,-19.72461 h 29.60742 l 5,-26.61524 z m 67.07813,24.61524 -0.375,2 h 29.39258 l 0.40625,-2 z M 198.91211,-7.91992 191.62891,28 h 0.40625 l 7.2832,-35.91992 z m 48.64062,0 L 240.26953,28 h 0.40625 l 7.2832,-35.91992 z" style="font-style:italic;font-variant:normal;font-weight:700;font-stretch:normal;font-size:96.12817383px;line-height:125%;font-family:Cantarell;-inkscape-font-specification:'Cantarell Bold Italic';letter-spacing:0;word-spacing:0;display:inline;opacity:.1;fill:#000;fill-opacity:1;stroke:none;stroke-width:1;enable-background:new"/></g></g></g></svg>