<svg xmlns="http://www.w3.org/2000/svg" xmlns:svg="http://www.w3.org/2000/svg" xmlns:xlink="http://www.w3.org/1999/xlink" id="svg11300" width="400" height="300" version="1.0" style="enable-background:new"><title id="title3916">taboo</title><defs id="defs3"><linearGradient id="linearGradient6499"><stop style="stop-color:#fff;stop-opacity:1" id="stop6501" offset="0"/><stop style="stop-color:#fff;stop-opacity:0" id="stop6503" offset="1"/></linearGradient><linearGradient id="linearGradient6457"><stop style="stop-color:#fff;stop-opacity:1" id="stop6459" offset="0"/><stop style="stop-color:#fff;stop-opacity:0" id="stop6461" offset="1"/></linearGradient><linearGradient id="linearGradient6355"><stop style="stop-color:#a14800;stop-opacity:1" id="stop6357" offset="0"/><stop style="stop-color:#ce5c00;stop-opacity:1" id="stop6359" offset="1"/></linearGradient><linearGradient id="linearGradient6215"><stop style="stop-color:#f57900;stop-opacity:1" id="stop6217" offset="0"/><stop id="stop6231" offset=".898" style="stop-color:#d86a00;stop-opacity:1"/><stop style="stop-color:#ff932a;stop-opacity:1" id="stop6219" offset="1"/></linearGradient><linearGradient id="linearGradient6203"><stop style="stop-color:#fff;stop-opacity:1" id="stop6205" offset="0"/><stop style="stop-color:#fff;stop-opacity:0" id="stop6207" offset="1"/></linearGradient><linearGradient id="linearGradient6193"><stop style="stop-color:#000;stop-opacity:1" id="stop6195" offset="0"/><stop style="stop-color:#000;stop-opacity:0" id="stop6197" offset="1"/></linearGradient><linearGradient id="linearGradient6636"><stop style="stop-color:#0c1d35;stop-opacity:1" id="stop6638" offset="0"/><stop style="stop-color:#739fdf;stop-opacity:1" id="stop6640" offset="1"/></linearGradient><linearGradient id="linearGradient6466"><stop style="stop-color:#fff;stop-opacity:1" id="stop6468" offset="0"/><stop style="stop-color:#fff;stop-opacity:0" id="stop6470" offset="1"/></linearGradient><linearGradient id="linearGradient6386"><stop style="stop-color:#fff;stop-opacity:1" id="stop6388" offset="0"/><stop style="stop-color:#fff;stop-opacity:0" id="stop6390" offset="1"/></linearGradient><linearGradient id="linearGradient6342"><stop style="stop-color:#fff;stop-opacity:1" id="stop6344" offset="0"/><stop style="stop-color:#fff;stop-opacity:0" id="stop6346" offset="1"/></linearGradient><linearGradient id="linearGradient6332"><stop style="stop-color:#000;stop-opacity:1" id="stop6334" offset="0"/><stop style="stop-color:#a7a7a7;stop-opacity:1" id="stop6336" offset="1"/></linearGradient><linearGradient id="linearGradient10126"><stop style="stop-color:#fff;stop-opacity:1" id="stop10128" offset="0"/><stop style="stop-color:#dbdbdb;stop-opacity:1" id="stop10130" offset="1"/></linearGradient><linearGradient id="linearGradient10114"><stop style="stop-color:#fff;stop-opacity:1" id="stop10116" offset="0"/><stop style="stop-color:#d2d2d2;stop-opacity:1" id="stop10118" offset="1"/></linearGradient><linearGradient id="linearGradient9937"><stop style="stop-color:#286fca;stop-opacity:1" id="stop9939" offset="0"/><stop id="stop9941" offset=".9" style="stop-color:#0f4489;stop-opacity:1"/><stop style="stop-color:#4673aa;stop-opacity:1" id="stop9943" offset="1"/></linearGradient><linearGradient id="linearGradient9929"><stop id="stop9931" offset="0" style="stop-color:#fff;stop-opacity:1"/><stop style="stop-color:#fff;stop-opacity:0" id="stop9933" offset=".716"/><stop id="stop9935" offset="1" style="stop-color:#fff;stop-opacity:1"/></linearGradient><linearGradient id="linearGradient9841"><stop style="stop-color:#fff;stop-opacity:1" id="stop9843" offset="0"/><stop style="stop-color:#fff;stop-opacity:0" id="stop9845" offset="1"/></linearGradient><linearGradient id="linearGradient9735"><stop style="stop-color:#fff;stop-opacity:1" id="stop9737" offset="0"/><stop style="stop-color:#fff;stop-opacity:0" id="stop9739" offset="1"/></linearGradient><linearGradient id="linearGradient9685"><stop style="stop-color:#fff;stop-opacity:1" id="stop9687" offset="0"/><stop style="stop-color:#fff;stop-opacity:0" id="stop9689" offset="1"/></linearGradient><linearGradient id="linearGradient9652"><stop style="stop-color:#fff;stop-opacity:1" id="stop9654" offset="0"/><stop id="stop9927" offset=".5" style="stop-color:#fff;stop-opacity:.49803922"/><stop style="stop-color:#fff;stop-opacity:0" id="stop9656" offset="1"/></linearGradient><linearGradient id="linearGradient6013" x1="170.343" x2="88.373" y1="238" y2="1.312" gradientUnits="userSpaceOnUse" xlink:href="#linearGradient10053"/><linearGradient id="linearGradient10053"><stop id="stop10055" offset="0" style="stop-color:#f6f6f5;stop-opacity:1"/><stop style="stop-color:#e7e7e7;stop-opacity:1" id="stop5355" offset=".194"/><stop id="stop10057" offset="1" style="stop-color:#eeeeec;stop-opacity:1"/></linearGradient><linearGradient id="linearGradient8000" x1="87.615" x2="86.881" y1="48.854" y2="87.291" gradientUnits="userSpaceOnUse" xlink:href="#linearGradient7994"/><linearGradient id="linearGradient7994"><stop id="stop7996" offset="0" style="stop-color:#fff;stop-opacity:1"/><stop id="stop7998" offset="1" style="stop-color:#e2e2e2;stop-opacity:1"/></linearGradient><linearGradient id="linearGradient7995" x1="87.615" x2="86.881" y1="48.854" y2="87.291" gradientUnits="userSpaceOnUse" xlink:href="#linearGradient7994"/><linearGradient id="linearGradient9074" x1="-5.469" x2="-5.469" y1="10" y2="8.499" gradientUnits="userSpaceOnUse" xlink:href="#linearGradient7113"/><radialGradient id="radialGradient8866" cx="84.465" cy="21.439" r="21.467" fx="84.465" fy="21.439" gradientTransform="matrix(1.4952909,3.3756719e-7,-7.8683009e-8,0.348535,-40.256004,13.967011)" gradientUnits="userSpaceOnUse" xlink:href="#linearGradient8699"/><linearGradient id="linearGradient7113"><stop style="stop-color:#fce94f;stop-opacity:1" id="stop7115" offset="0"/><stop style="stop-color:#fce94f;stop-opacity:0" id="stop9244" offset="1"/></linearGradient><linearGradient id="linearGradient7919" x1="30.313" x2="30.313" y1="27.313" y2="24.688" gradientUnits="userSpaceOnUse" xlink:href="#linearGradient7422"/><radialGradient id="radialGradient7089" cx="105.195" cy="-.366" r="29.403" fx="105.195" fy="-.366" gradientTransform="matrix(3.5399381,0,0,3.5071625,-267.18906,1.188699)" gradientUnits="userSpaceOnUse" xlink:href="#linearGradient6248"/><linearGradient id="linearGradient6874" x1="44" x2="44" y1="180.5" y2="242.518" gradientTransform="matrix(0.2513792,0,0,0.2513792,-123.36165,103.51744)" gradientUnits="userSpaceOnUse" xlink:href="#linearGradient6858"/><linearGradient id="linearGradient7422"><stop style="stop-color:#edd400;stop-opacity:1" id="stop7424" offset="0"/><stop style="stop-color:#edd400;stop-opacity:0" id="stop7426" offset="1"/></linearGradient><linearGradient id="linearGradient8868" gradientUnits="userSpaceOnUse"><stop style="stop-color:#c0cdf9;stop-opacity:1" id="stop8870" offset="0"/><stop style="stop-color:#07092d;stop-opacity:.28804347" id="stop8872" offset="1"/></linearGradient><linearGradient id="linearGradient6248"><stop id="stop6250" offset="0" style="stop-color:#fff;stop-opacity:1"/><stop id="stop6252" offset="1" style="stop-color:#fff;stop-opacity:0"/></linearGradient><linearGradient id="linearGradient6858"><stop id="stop6860" offset="0" style="stop-color:#000;stop-opacity:1"/><stop style="stop-color:#fff;stop-opacity:1" id="stop6868" offset=".218"/><stop style="stop-color:#fff;stop-opacity:1" id="stop6866" offset=".766"/><stop id="stop6862" offset="1" style="stop-color:#000;stop-opacity:1"/></linearGradient><linearGradient id="linearGradient8699"><stop id="stop8701" offset="0" style="stop-color:#e0e0e0;stop-opacity:1"/><stop id="stop8703" offset="1" style="stop-color:#000;stop-opacity:1"/></linearGradient><clipPath id="clipPath9622" clipPathUnits="userSpaceOnUse"><rect style="opacity:1;fill:none;fill-opacity:1;fill-rule:nonzero;stroke:#000;stroke-width:2;stroke-linecap:butt;stroke-linejoin:miter;marker:none;marker-start:none;marker-mid:none;marker-end:none;stroke-miterlimit:4;stroke-dasharray:none;stroke-dashoffset:0;stroke-opacity:1;visibility:visible;display:inline;overflow:visible;enable-background:accumulate" id="rect9624" width="201" height="201" x="48" y="46" rx="11.664" ry="11.664"/></clipPath><linearGradient id="linearGradient9658" x1="137.114" x2="137.114" y1="107.112" y2="200.925" gradientUnits="userSpaceOnUse" xlink:href="#linearGradient9652"/><linearGradient id="linearGradient9673" x1="159" x2="159" y1="51" y2="247" gradientUnits="userSpaceOnUse" xlink:href="#linearGradient9937"/><radialGradient id="radialGradient9691" cx="148.5" cy="146.5" r="100.5" fx="148.5" fy="146.5" gradientTransform="matrix(3.079602,-3.3731343,0.7385091,0.6742435,-417.01248,548.63377)" gradientUnits="userSpaceOnUse" xlink:href="#linearGradient9685"/><radialGradient id="radialGradient9831" cx="148.5" cy="146.5" r="100.5" fx="148.5" fy="146.5" gradientTransform="matrix(2.9988193,-3.2846518,0.7191368,0.6565571,-402.13457,538.04154)" gradientUnits="userSpaceOnUse" xlink:href="#linearGradient9685"/><linearGradient id="linearGradient9833" x1="137.114" x2="137.114" y1="107.112" y2="200.925" gradientUnits="userSpaceOnUse" xlink:href="#linearGradient9652"/><radialGradient id="radialGradient9835" cx="172" cy="50.5" r="89" fx="172" fy="50.5" gradientTransform="matrix(1.1011236,-0.1573034,1.0805227e-2,7.563659e-2,-17.938922,73.436532)" gradientUnits="userSpaceOnUse" xlink:href="#linearGradient9735"/><radialGradient id="radialGradient9893" cx="148.5" cy="146.5" r="100.5" fx="148.5" fy="146.5" gradientTransform="matrix(3.1288426,-3.3007322,0.7503172,0.6597713,-421.76777,541.62748)" gradientUnits="userSpaceOnUse" xlink:href="#linearGradient9685"/><linearGradient id="linearGradient9895" x1="157.73" x2="157.73" y1="66.342" y2="253.597" gradientTransform="matrix(0.9535652,0,0,0.9806015,11.164058,5.6986789)" gradientUnits="userSpaceOnUse" xlink:href="#linearGradient9841"/><radialGradient id="radialGradient9897" cx="171.377" cy="29.048" r="100.488" fx="171.377" fy="29.048" gradientTransform="matrix(0.6908126,0,-5.6642228e-8,0.3212427,52.717443,49.204501)" gradientUnits="userSpaceOnUse" xlink:href="#linearGradient9841"/><linearGradient id="linearGradient9923" x1="140.153" x2="148.5" y1="58.001" y2="247" gradientUnits="userSpaceOnUse" xlink:href="#linearGradient9929"/><linearGradient id="linearGradient10003" x1="157.73" x2="157.73" y1="66.342" y2="253.597" gradientTransform="matrix(0.9444214,0,0,0.9713561,11.651438,12.469555)" gradientUnits="userSpaceOnUse" xlink:href="#linearGradient9841"/><radialGradient id="radialGradient10005" cx="171.377" cy="29.048" r="100.488" fx="171.377" fy="29.048" gradientTransform="matrix(0.6884512,0,-5.6448608e-8,0.3182139,52.749141,55.565196)" gradientUnits="userSpaceOnUse" xlink:href="#linearGradient9841"/><linearGradient id="linearGradient10043" x1="157.73" x2="157.73" y1="66.342" y2="253.597" gradientTransform="matrix(0.9146495,0,0,0.9406728,16.072289,17.069498)" gradientUnits="userSpaceOnUse" xlink:href="#linearGradient9841"/><radialGradient id="radialGradient10045" cx="171.377" cy="29.048" r="100.488" fx="171.377" fy="29.048" gradientTransform="matrix(0.6775988,0,-5.555878e-8,0.3081622,52.894818,58.803823)" gradientUnits="userSpaceOnUse" xlink:href="#linearGradient9841"/><linearGradient id="linearGradient10120" x1="148.5" x2="159.5" y1="146.5" y2="169.5" gradientUnits="userSpaceOnUse" xlink:href="#linearGradient10114"/><linearGradient id="linearGradient10132" x1="153.313" x2="169.127" y1="141.343" y2="166.096" gradientUnits="userSpaceOnUse" xlink:href="#linearGradient10126"/><linearGradient id="linearGradient5365" x1="148.5" x2="159.5" y1="146.5" y2="169.5" gradientUnits="userSpaceOnUse" xlink:href="#linearGradient10114"/><linearGradient id="linearGradient6152" x1="148.5" x2="159.5" y1="146.5" y2="169.5" gradientTransform="matrix(0.9419973,0,0,0.9419973,11.565557,15.350795)" gradientUnits="userSpaceOnUse" xlink:href="#linearGradient10114"/><linearGradient id="linearGradient6156" x1="148.5" x2="159.5" y1="146.5" y2="169.5" gradientTransform="matrix(0.9706716,0,0,0.9706716,6.4105035,16.614503)" gradientUnits="userSpaceOnUse" xlink:href="#linearGradient10114"/><linearGradient id="linearGradient6160" x1="148.5" x2="159.5" y1="146.5" y2="169.5" gradientTransform="matrix(6.4673577e-2,0,0,6.4673577e-2,301.39597,207.52532)" gradientUnits="userSpaceOnUse" xlink:href="#linearGradient10114"/><clipPath id="clipPath6172" clipPathUnits="userSpaceOnUse"><path style="fill:none;fill-opacity:1;fill-rule:nonzero;stroke:#000;stroke-width:2;stroke-linecap:butt;stroke-linejoin:miter;marker:none;marker-start:none;marker-mid:none;marker-end:none;stroke-miterlimit:4;stroke-dashoffset:0;stroke-opacity:1;visibility:visible;display:inline;overflow:visible;enable-background:accumulate" id="path6174" d="M 59.65625,46 C 53.194281,46 48,51.194281 48,57.65625 L 48,235.34375 C 48,241.80572 53.194281,247 59.65625,247 L 83,247 L 83,267 L 146.5,247 L 237.34375,247 C 243.80572,247 249,241.80572 249,235.34375 L 249,57.65625 C 249,51.194281 243.80572,46 237.34375,46 L 59.65625,46 z" xlink:href="#rect9606"/></clipPath><clipPath id="clipPath6292" clipPathUnits="userSpaceOnUse"><path style="fill:none;fill-opacity:1;fill-rule:evenodd;stroke:#204a87;stroke-width:2;stroke-linecap:butt;stroke-linejoin:miter;stroke-miterlimit:4;stroke-dasharray:none;stroke-opacity:1" id="path6294" d="M 116.25,81.25 C 108.2909,81.364645 100.3125,86.064051 100.3125,94.96875 L 100.5625,162 C 100.5625,185.58293 121.23424,208.15624 146.96875,208.15625 L 183.5,208.15625 C 199.07383,208.15625 198.87375,176.96875 183.5,176.96875 L 148.6875,176.96875 C 140.019,176.96875 132.65626,170.26298 132.65625,161 L 132.65625,145.0625 L 182,145.0625 C 199.66043,145.0625 200.16237,113.625 182,113.625 L 132.15625,113.625 L 132.15625,94.96875 C 132.15625,85.605474 124.2091,81.135355 116.25,81.25 z" xlink:href="#path6248"/></clipPath><linearGradient id="linearGradient6338" x1="148.5" x2="148.5" y1="254" y2="71" gradientUnits="userSpaceOnUse" xlink:href="#linearGradient6332"/><linearGradient id="linearGradient6456" x1="148.5" x2="148.5" y1="254" y2="71" gradientUnits="userSpaceOnUse" xlink:href="#linearGradient6332"/><radialGradient id="radialGradient6586" cx="146.953" cy="135.234" r="98.306" fx="146.953" fy="135.234" gradientTransform="matrix(18.446112,2.1123766e-6,-2.2887697e-7,1.9503356,-2563.7607,-169.0767)" gradientUnits="userSpaceOnUse" xlink:href="#linearGradient6466"/><radialGradient id="radialGradient6632" cx="149.338" cy="78.241" r="90.5" fx="149.338" fy="78.241" gradientTransform="matrix(2.0179371,0,0,1.5722133,-142.22869,-70.910149)" gradientUnits="userSpaceOnUse" xlink:href="#linearGradient6342"/><radialGradient id="radialGradient6634" cx="126.5" cy="65.41" r="91" fx="126.5" fy="65.41" gradientTransform="matrix(1.2531337,-0.8170463,0.1683626,0.258354,-38.926152,199.28634)" gradientUnits="userSpaceOnUse" xlink:href="#linearGradient6386"/><linearGradient id="linearGradient6642" x1="154.313" x2="154.873" y1="100.202" y2="208.156" gradientUnits="userSpaceOnUse" xlink:href="#linearGradient6636"/><clipPath id="clipPath6181" clipPathUnits="userSpaceOnUse"><path id="path6183" d="M 61.34375,51 C 56.172859,51 52,55.172861 52,60.34375 L 52,88.34375 L 52,235.65625 C 52,240.82714 56.172861,245 61.34375,245 L 163.65625,245 L 236.65625,245 C 241.82714,245 246,240.82714 246,235.65625 L 246,88.34375 C 246,83.172859 241.82714,79 236.65625,79 L 173,79 L 173,75.71875 C 173,58.921507 168.27933,51 149.28125,51 L 61.34375,51 z" xlink:href="#rect5394" style="fill:none;fill-opacity:1;fill-rule:nonzero;stroke:#000;stroke-width:2;stroke-linecap:butt;stroke-linejoin:round;marker:none;marker-start:none;marker-mid:none;marker-end:none;stroke-miterlimit:4;stroke-dasharray:none;stroke-dashoffset:0;stroke-opacity:1;visibility:visible;display:inline;overflow:visible;enable-background:accumulate"/></clipPath><filter id="filter6189"><feGaussianBlur id="feGaussianBlur6191" stdDeviation="1.94"/></filter><linearGradient id="linearGradient6199" x1="140" x2="140" y1="201.404" y2="13.404" gradientUnits="userSpaceOnUse" xlink:href="#linearGradient6193"/><radialGradient id="radialGradient6209" cx="129.709" cy="51.993" r="96" fx="129.709" fy="51.993" gradientTransform="matrix(2.1770833,0,0,1,-175.38542,0)" gradientUnits="userSpaceOnUse" xlink:href="#linearGradient6203"/><radialGradient id="radialGradient6213" cx="152.215" cy="244" r="96" fx="152.215" fy="244" gradientTransform="matrix(0.8440071,0,0,0.3876779,27.529192,149.40659)" gradientUnits="userSpaceOnUse" xlink:href="#linearGradient6203"/><linearGradient id="linearGradient6221" x1="149" x2="149" y1="59" y2="250.067" gradientUnits="userSpaceOnUse" xlink:href="#linearGradient6215"/><filter id="filter6275" width="1.082" height="1.958" x="-.041" y="-.479"><feGaussianBlur id="feGaussianBlur6277" stdDeviation="3.392"/></filter><filter id="filter6305" width="1.145" height="2.694" x="-.073" y="-.847"><feGaussianBlur id="feGaussianBlur6307" stdDeviation="6.001"/></filter><linearGradient id="linearGradient6347" x1="149" x2="149" y1="59" y2="245.067" gradientTransform="matrix(1.0037828,0,0,1.0037826,0.8573465,-1.494469)" gradientUnits="userSpaceOnUse" xlink:href="#linearGradient6215"/><linearGradient id="linearGradient6349" x1="140" x2="140" y1="201.404" y2="13.404" gradientUnits="userSpaceOnUse" xlink:href="#linearGradient6193"/><radialGradient id="radialGradient6351" cx="129.709" cy="51.993" r="96" fx="129.709" fy="51.993" gradientTransform="matrix(2.1770833,0,0,1,-175.38542,0)" gradientUnits="userSpaceOnUse" xlink:href="#linearGradient6203"/><radialGradient id="radialGradient6353" cx="152.215" cy="244" r="96" fx="152.215" fy="244" gradientTransform="matrix(0.8440071,0,0,0.3876779,27.529192,149.40659)" gradientUnits="userSpaceOnUse" xlink:href="#linearGradient6203"/><linearGradient id="linearGradient6361" x1="129.904" x2="134.013" y1="209.471" y2="62.184" gradientTransform="matrix(1.0037828,0,0,1.0037826,0.8573465,-1.494469)" gradientUnits="userSpaceOnUse" xlink:href="#linearGradient6355"/><linearGradient id="linearGradient6384" x1="149" x2="149" y1="59" y2="245.067" gradientTransform="matrix(0.9976383,0,0,0.9968534,-1.3617225,-1.1410793)" gradientUnits="userSpaceOnUse" xlink:href="#linearGradient6215"/><linearGradient id="linearGradient6387" x1="129.904" x2="134.013" y1="209.471" y2="62.184" gradientTransform="matrix(0.9976383,0,0,0.9968534,-1.3617225,-1.1410793)" gradientUnits="userSpaceOnUse" xlink:href="#linearGradient6355"/><radialGradient id="radialGradient6389" cx="129.709" cy="51.993" r="96" fx="129.709" fy="51.993" gradientTransform="matrix(2.0537916,0,0,0.9428412,-158.72858,13.896138)" gradientUnits="userSpaceOnUse" xlink:href="#linearGradient6203"/><radialGradient id="radialGradient6391" cx="152.215" cy="244" r="96" fx="152.215" fy="244" gradientTransform="matrix(0.8440071,0,0,0.3876779,27.529192,149.40659)" gradientUnits="userSpaceOnUse" xlink:href="#linearGradient6203"/><linearGradient id="linearGradient6413" x1="149" x2="149" y1="59" y2="245.067" gradientTransform="matrix(0.9976383,0,0,0.9968534,-1.361722,-1.1410793)" gradientUnits="userSpaceOnUse" xlink:href="#linearGradient6215"/><linearGradient id="linearGradient6415" x1="129.904" x2="134.013" y1="209.471" y2="62.184" gradientTransform="matrix(0.9976383,0,0,0.9968534,-1.361722,-1.1410793)" gradientUnits="userSpaceOnUse" xlink:href="#linearGradient6355"/><radialGradient id="radialGradient6417" cx="129.709" cy="51.993" r="96" fx="129.709" fy="51.993" gradientTransform="matrix(1.9829229,0,0,0.9103063,-145.07668,21.802112)" gradientUnits="userSpaceOnUse" xlink:href="#linearGradient6203"/><radialGradient id="radialGradient6419" cx="152.215" cy="244" r="96" fx="152.215" fy="244" gradientTransform="matrix(0.8440071,0,0,0.3876779,27.529192,149.40659)" gradientUnits="userSpaceOnUse" xlink:href="#linearGradient6203"/><linearGradient id="linearGradient6441" x1="149" x2="149" y1="59" y2="245.067" gradientTransform="matrix(0.9878217,0,0,0.9498292,0.8715795,1.3386712)" gradientUnits="userSpaceOnUse" xlink:href="#linearGradient6215"/><linearGradient id="linearGradient6443" x1="129.904" x2="134.013" y1="209.471" y2="62.184" gradientTransform="matrix(0.9878217,0,0,0.9498292,0.8715795,1.3386712)" gradientUnits="userSpaceOnUse" xlink:href="#linearGradient6355"/><radialGradient id="radialGradient6445" cx="129.709" cy="51.993" r="96" fx="129.709" fy="51.993" gradientTransform="matrix(1.8939284,0,0,0.8051832,-131.14256,27.307113)" gradientUnits="userSpaceOnUse" xlink:href="#linearGradient6203"/><radialGradient id="radialGradient6447" cx="152.215" cy="244" r="96" fx="152.215" fy="244" gradientTransform="matrix(0.8440071,0,0,0.3876779,27.529192,149.40659)" gradientUnits="userSpaceOnUse" xlink:href="#linearGradient6203"/><radialGradient id="radialGradient6465" cx="153" cy="53" r="95" fx="153" fy="53" gradientTransform="matrix(1.4105373,0,0,1.1166914,-62.812101,-6.1846444)" gradientUnits="userSpaceOnUse" xlink:href="#linearGradient6457"/><filter id="filter6493"><feGaussianBlur id="feGaussianBlur6495" stdDeviation=".981"/></filter><radialGradient id="radialGradient6505" cx="119.125" cy="52.688" r="27.625" fx="119.125" fy="52.688" gradientTransform="matrix(1.7365084,-1.1160834,0.713992,0.3683579,-132.95644,166.23308)" gradientUnits="userSpaceOnUse" xlink:href="#linearGradient6499"/><filter id="filter6519" width="1.051" height="1.589" x="-.025" y="-.295"><feGaussianBlur id="feGaussianBlur6521" stdDeviation="2.087"/></filter></defs><metadata id="metadata4"/><g style="display:none" id="layer3"><rect id="rect6282" width="256" height="256" x="20" y="20" style="fill:#d3d7cf;fill-opacity:1;fill-rule:nonzero;stroke:none;stroke-width:2;marker:none;visibility:visible;display:inline;overflow:visible;enable-background:accumulate"/><rect style="fill:#d3d7cf;fill-opacity:1;fill-rule:nonzero;stroke:none;stroke-width:2;marker:none;visibility:visible;display:inline;overflow:visible;enable-background:accumulate" id="rect6284" width="48" height="48" x="296.063" y="39.996"/><rect id="rect6592" width="32" height="32" x="303" y="115.996" style="fill:#d3d7cf;fill-opacity:1;fill-rule:nonzero;stroke:none;stroke-width:2;marker:none;visibility:visible;display:inline;overflow:visible;enable-background:accumulate"/><rect style="fill:#d3d7cf;fill-opacity:1;fill-rule:nonzero;stroke:none;stroke-width:2;marker:none;visibility:visible;display:inline;overflow:visible;enable-background:accumulate" id="rect6749" width="22" height="22" x="303" y="167.059"/><rect id="rect6833" width="16" height="16" x="303" y="209" style="fill:#d3d7cf;fill-opacity:1;fill-rule:nonzero;stroke:none;stroke-width:2;marker:none;visibility:visible;display:inline;overflow:visible;enable-background:accumulate"/><rect id="rect5028" width="24" height="24" x="302" y="166" style="fill:#d3d7cf;fill-opacity:1;fill-rule:nonzero;stroke:none;stroke-width:2;marker:none;visibility:visible;display:inline;overflow:visible;enable-background:accumulate"/><text style="font-size:20px;font-style:normal;font-variant:normal;font-weight:400;font-stretch:normal;text-align:start;line-height:125%;writing-mode:lr-tb;text-anchor:start;fill:#000;fill-opacity:1;stroke:none;display:inline;enable-background:new;font-family:Trebuchet MS;-inkscape-font-specification:Trebuchet MS" id="context" x="21" y="-19" xml:space="preserve"><tspan id="tspan16843" x="21" y="-19">apps</tspan></text><text style="font-size:20px;font-style:normal;font-variant:normal;font-weight:400;font-stretch:normal;text-align:start;line-height:125%;writing-mode:lr-tb;text-anchor:start;fill:#000;fill-opacity:1;stroke:none;display:inline;enable-background:new;font-family:Trebuchet MS;-inkscape-font-specification:Trebuchet MS" id="icon-name" x="159" y="-19" xml:space="preserve"><tspan id="tspan16847" x="159" y="-19">taboo</tspan></text></g><g style="display:inline" id="layer1"><g id="g6313"><g id="g6309" transform="translate(0,-2)"><rect id="rect6279" width="198" height="17" x="50" y="233" rx="9.334" ry="9.334" transform="matrix(1.1414141,0,0,1,-21.070707,0)" style="opacity:.35643562;fill:#000;fill-opacity:1;fill-rule:nonzero;stroke:none;stroke-width:2;marker:none;visibility:visible;display:inline;overflow:visible;filter:url(#filter6305);enable-background:accumulate"/><rect style="opacity:.70297032;fill:#000;fill-opacity:1;fill-rule:nonzero;stroke:none;stroke-width:2;marker:none;visibility:visible;display:inline;overflow:visible;filter:url(#filter6519);enable-background:accumulate" id="rect6233" width="198" height="17" x="50" y="233" rx="9.334" ry="12.206" transform="matrix(1,0,0,0.7647059,0,58.823529)"/></g><path id="rect5394" d="M 61.34375,51 C 56.172859,51 52,55.172861 52,60.34375 l 0,28 0,147.3125 C 52,240.82714 56.172861,245 61.34375,245 l 102.3125,0 73,0 C 241.82714,245 246,240.82714 246,235.65625 l 0,-147.3125 C 246,83.172859 241.82714,79 236.65625,79 L 173,79 173,75.707711 C 173,58.910467 168.29037,51 149.29229,51 l -87.94854,0 z" style="fill:url(#linearGradient6221);fill-opacity:1;fill-rule:nonzero;stroke:none;stroke-width:1;marker:none;visibility:visible;display:inline;overflow:visible;enable-background:accumulate"/><path style="opacity:.6831683;fill:url(#radialGradient6465);fill-opacity:1;fill-rule:nonzero;stroke:none;stroke-width:2;marker:none;visibility:visible;display:inline;overflow:visible;enable-background:accumulate" id="path6455" d="M 61.34375,53 C 57.248847,53 54,56.248849 54,60.34375 l 0,28 0,147.3125 C 54,239.75115 57.248849,243 61.34375,243 l 102.3125,0 73,0 C 240.75115,243 244,239.75115 244,235.65625 l 0,-147.3125 C 244,84.248846 240.75115,81 236.65625,81 L 173,81 a 2.0002,2.0002 0 0 1 -2,-2 l 0,-3.28125 C 171,67.507487 169.79187,61.86619 166.75,58.375 163.70813,54.88381 158.50231,53 149.28125,53 l -87.9375,0 z" transform="matrix(1.0000688,0,0,0.9869109,0.4897551,2.1871923)" xlink:href="#rect5394"/><path style="font-size:96.75057983px;font-style:normal;font-variant:normal;font-weight:700;font-stretch:normal;text-indent:0;text-align:start;text-decoration:none;line-height:80.00000119%;letter-spacing:normal;word-spacing:normal;text-transform:none;direction:ltr;block-progression:tb;writing-mode:lr-tb;text-anchor:start;opacity:.40594058;fill:#000;fill-opacity:1;fill-rule:nonzero;stroke:none;stroke-width:1;marker:none;visibility:visible;display:inline;overflow:visible;filter:url(#filter6493);enable-background:accumulate;font-family:Bauhaus;-inkscape-font-specification:Bauhaus Bold" id="path6467" d="m 167.46875,96.25 0,46.0625 c 0,15.09307 12.98018,22.84375 26.71875,22.84375 14.99632,0 25.8125,-10.65568 25.8125,-24.78125 0,-16.15733 -12.74394,-24.5625 -25.03125,-24.5625 -3.67652,0 -6.11125,0.57574 -7.5625,1.15625 l 0,14.3125 c 1.161,-0.67725 3.11373,-1.34375 6.5,-1.34375 5.99853,0 10.625,4.33922 10.625,10.53125 0,6.19203 -4.62647,10.5625 -10.625,10.5625 -7.35304,0 -10.9375,-5.24372 -10.9375,-12.5 l 0,-42.28125 -15.5,0 z m -91.75,9.09375 0,41.8125 c 0,8.90104 5.633941,16.8125 17.4375,16.8125 l 8.6875,0 0,-14.3125 c -1.06426,0.0967 -2.216995,0.1875 -3.28125,0.1875 -5.99853,-0.1935 -7.9375,-1.14447 -7.9375,-6.5625 l 0,-12.59375 11.03125,0 0,-14.125 -10.9375,0 0,-11.21875 -15,0 z m 57.09375,10.46875 c -14.99632,0 -25.84375,10.62443 -25.84375,24.75 0,16.15733 12.7877,24.59375 22.65625,24.59375 4.35378,0 7.62873,-0.68699 10.53125,-2.71875 l 0,-12.78125 c -1.74151,0.67726 -4.34148,1.375 -7.4375,1.375 -5.03102,0 -10.25,-3.68422 -10.25,-10.84375 0,-5.90178 5.01348,-10.25 10.625,-10.25 7.06279,0 10.9375,4.05446 10.9375,12.375 l 0,21.65625 15.46875,0 0,-25.34375 c 0,-14.89958 -12.07817,-22.8125 -26.6875,-22.8125 z m -33.875,55.21875 c -12.964565,0 -24.28125,11.11118 -24.28125,24.65625 0,13.54506 11.316685,24.6875 24.28125,24.6875 12.96457,0 24.28125,-11.14244 24.28125,-24.6875 0,-13.54507 -11.31668,-24.65625 -24.28125,-24.65625 z m 53.875,0 c -12.96457,0 -24.28125,11.11118 -24.28125,24.65625 0,13.54506 11.31668,24.6875 24.28125,24.6875 12.96456,0 24.28125,-11.14244 24.28125,-24.6875 0,-13.54507 -11.31669,-24.65625 -24.28125,-24.65625 z m -53.875,14.6875 c 5.41803,0 9.40625,4.55072 9.40625,9.96875 0,5.41802 -3.98822,9.96875 -9.40625,9.96875 -5.418027,0 -9.375,-4.55073 -9.375,-9.96875 0,-5.41803 3.956973,-9.96875 9.375,-9.96875 z m 53.875,0 c 5.41802,0 9.375,4.55072 9.375,9.96875 0,5.41802 -3.95698,9.96875 -9.375,9.96875 -5.41803,0 -9.40625,-4.55073 -9.40625,-9.96875 0,-5.41803 3.98822,-9.96875 9.40625,-9.96875 z" transform="translate(0,1.5)" xlink:href="#text5401"/><path style="font-size:96.75057983px;font-style:normal;font-variant:normal;font-weight:700;font-stretch:normal;text-indent:0;text-align:start;text-decoration:none;line-height:80.00000119%;letter-spacing:normal;word-spacing:normal;text-transform:none;direction:ltr;block-progression:tb;writing-mode:lr-tb;text-anchor:start;fill:#eeeeec;fill-opacity:1;fill-rule:nonzero;stroke:none;stroke-width:1;marker:none;visibility:visible;display:inline;overflow:visible;enable-background:accumulate;font-family:Bauhaus;-inkscape-font-specification:Bauhaus Bold" id="text5401" d="m 90.724742,116.57297 0,-11.22306 -14.99634,0 0,41.79625 c 0,8.90104 5.611545,16.8346 17.415104,16.8346 l 8.707554,0 0,-14.31909 c -1.06426,0.0968 -2.225266,0.1935 -3.289521,0.1935 -5.99853,-0.1935 -7.933548,-1.16101 -7.933548,-6.57904 l 0,-12.57757 11.029569,0 0,-14.12559 -10.932818,0 m 68.788148,47.40779 0,-25.34865 c 0,-14.89958 -12.09383,-22.83314 -26.70316,-22.83314 -14.99632,0 -25.8324,10.64258 -25.8324,24.76815 0,16.15733 12.77108,24.57465 22.63963,24.57465 4.35378,0 7.6433,-0.67726 10.54582,-2.70902 l 0,-12.77108 c -1.74151,0.67726 -4.35378,1.35451 -7.4498,1.35451 -5.03102,0 -10.25556,-3.67653 -10.25556,-10.83606 0,-5.90178 5.03104,-10.25557 10.64256,-10.25557 7.06279,0 10.93282,4.06354 10.93282,12.38408 l 0,21.67213 15.48009,0 m 7.9653,-67.725407 0,46.053277 c 0,15.09307 12.96459,22.83314 26.70316,22.83314 14.99632,0 25.8324,-10.64258 25.8324,-24.76815 0,-16.15733 -12.77109,-24.57465 -25.0584,-24.57465 -3.67652,0 -6.09529,0.5805 -7.54654,1.16101 l 0,14.31908 c 1.161,-0.67725 3.09602,-1.35451 6.48229,-1.35451 5.99853,0 10.64256,4.35379 10.64256,10.54582 0,6.19203 -4.64403,10.54581 -10.64256,10.54581 -7.35304,0 -10.93282,-5.22454 -10.93282,-12.48082 l 0,-42.280007 -15.48009,0 M 89.563735,195.69272 c 0,-5.41803 3.966779,-9.96531 9.384806,-9.96531 5.418029,0 9.384809,4.54728 9.384809,9.96531 0,5.41802 -3.96678,9.9653 -9.384809,9.9653 -5.418027,0 -9.384806,-4.54728 -9.384806,-9.9653 m -14.899589,0 c 0,13.54506 11.31983,24.67139 24.284395,24.67139 12.964569,0 24.284399,-11.12633 24.284399,-24.67139 0,-13.54507 -11.31983,-24.6714 -24.284399,-24.6714 -12.964565,0 -24.284395,11.12633 -24.284395,24.6714 m 68.754894,0 c 0,-5.41803 3.96678,-9.96531 9.38481,-9.96531 5.41802,0 9.3848,4.54728 9.3848,9.96531 0,5.41802 -3.96678,9.9653 -9.3848,9.9653 -5.41803,0 -9.38481,-4.54728 -9.38481,-9.9653 m -14.89959,0 c 0,13.54506 11.31983,24.67139 24.2844,24.67139 12.96456,0 24.28439,-11.12633 24.28439,-24.67139 0,-13.54507 -11.31983,-24.6714 -24.28439,-24.6714 -12.96457,0 -24.2844,11.12633 -24.2844,24.6714"/><path id="path6177" d="M 61.34375,51 C 56.172859,51 52,55.172861 52,60.34375 l 0,28 0,147.3125 C 52,240.82714 56.172861,245 61.34375,245 l 102.3125,0 73,0 C 241.82714,245 246,240.82714 246,235.65625 l 0,-147.3125 C 246,83.172859 241.82714,79 236.65625,79 L 173,79 173,75.71875 C 173,58.921506 168.27933,51 149.28125,51 l -87.9375,0 z" clip-path="url(#clipPath6181)" xlink:href="#rect5394" style="fill:none;stroke:url(#linearGradient6199);stroke-width:2;stroke-linecap:butt;stroke-linejoin:round;stroke-miterlimit:4;stroke-opacity:1;stroke-dasharray:none;stroke-dashoffset:0;marker:none;visibility:visible;display:inline;overflow:visible;filter:url(#filter6189);enable-background:accumulate"/><path id="path6201" d="M 61.34375,53 C 57.248847,53 54,56.248849 54,60.34375 l 0,28 0,147.3125 C 54,239.75115 57.248849,243 61.34375,243 l 102.3125,0 73,0 C 240.75115,243 244,239.75115 244,235.65625 l 0,-147.3125 C 244,84.248846 240.75115,81 236.65625,81 L 173,81 a 2.0002,2.0002 0 0 1 -2,-2 l 0,-3.28125 C 171,67.507487 169.79187,61.86619 166.75,58.375 163.70813,54.88381 158.50231,53 149.28125,53 l -87.9375,0 z" transform="matrix(1.0000688,0,0,0.9869109,-0.01024488,3.1871923)" xlink:href="#rect5394" style="opacity:.6831683;fill:none;stroke:url(#radialGradient6209);stroke-width:2;stroke-linecap:butt;stroke-linejoin:round;stroke-miterlimit:4;stroke-opacity:1;stroke-dasharray:none;stroke-dashoffset:0;marker:none;visibility:visible;display:inline;overflow:visible;enable-background:accumulate"/><path style="opacity:.46534651;fill:none;stroke:url(#radialGradient6213);stroke-width:2;stroke-linecap:butt;stroke-linejoin:round;stroke-miterlimit:4;stroke-opacity:1;stroke-dasharray:none;stroke-dashoffset:0;marker:none;visibility:visible;display:inline;overflow:visible;enable-background:accumulate" id="path6211" d="M 61.34375,57 C 59.400822,57 58,58.400824 58,60.34375 l 0,28 0,147.3125 C 58,237.59918 59.400824,239 61.34375,239 l 102.3125,0 73,0 C 238.59918,239 240,237.59918 240,235.65625 l 0,-147.3125 C 240,86.400821 238.59918,85 236.65625,85 L 173,85 a 6.0006,6.0006 0 0 1 -6,-6 l 0,-3.28125 C 167,67.882205 165.76576,63.313507 163.75,61 c -2.01576,-2.313507 -5.80364,-4 -14.46875,-4 l -87.9375,0 z" transform="translate(0,3)" xlink:href="#rect5394"/><rect style="opacity:.6039604;fill:url(#radialGradient6505);fill-opacity:1;fill-rule:nonzero;stroke:none;stroke-width:1;marker:none;visibility:visible;display:inline;overflow:visible;enable-background:accumulate" id="rect6497" width="81.059" height="3.375" x="70.994" y="51"/><text style="font-size:96.75057983px;font-style:normal;font-variant:normal;font-weight:700;font-stretch:normal;text-indent:0;text-align:start;text-decoration:none;line-height:80.00000119%;letter-spacing:normal;word-spacing:normal;text-transform:none;direction:ltr;block-progression:tb;writing-mode:lr-tb;text-anchor:start;fill:#eeeeec;fill-opacity:1;fill-rule:nonzero;stroke:none;stroke-width:1;marker:none;visibility:visible;display:inline;overflow:visible;enable-background:accumulate;font-family:Bauhaus;-inkscape-font-specification:Bauhaus Bold" id="text5383" x="72.052" y="-130.019" xml:space="preserve"><tspan id="tspan5385" x="72.052" y="-130.019">tab</tspan><tspan id="tspan5387" x="72.052" y="-52.619" dy="-22.178">oo</tspan></text></g><g id="g6325" transform="matrix(0.2053818,0,0,0.2053818,288.60627,32.295449)"><g id="g6327" transform="translate(0,-2)" style="opacity:.77722772"><rect style="opacity:.35643562;fill:#000;fill-opacity:1;fill-rule:nonzero;stroke:none;stroke-width:2;marker:none;visibility:visible;display:inline;overflow:visible;filter:url(#filter6305);enable-background:accumulate" id="rect6329" width="198" height="17" x="50" y="233" rx="9.334" ry="9.334" transform="matrix(1.1414141,0,0,1,-21.070707,0)"/><rect id="rect6331" width="198" height="17" x="50" y="233" rx="9.334" ry="9.334" style="opacity:.70297032;fill:#000;fill-opacity:1;fill-rule:nonzero;stroke:none;stroke-width:2;marker:none;visibility:visible;display:inline;overflow:visible;filter:url(#filter6275);enable-background:accumulate"/></g><path style="fill:url(#linearGradient6347);fill-opacity:1;fill-rule:nonzero;stroke:url(#linearGradient6361);stroke-width:4.89435816;stroke-linecap:butt;stroke-linejoin:round;stroke-miterlimit:4;stroke-opacity:1;stroke-dasharray:none;stroke-dashoffset:0;marker:none;visibility:visible;display:inline;overflow:visible;enable-background:accumulate" id="path6333" d="m 62.433144,49.69845 c -5.190452,0 -9.379096,4.188647 -9.379096,9.379095 l 0,28.105917 0,147.869738 c 0,5.19046 4.188646,9.3791 9.379096,9.3791 l 102.699526,0 73.27613,0 c 5.19045,0 9.3791,-4.18864 9.3791,-9.3791 l 0,-146.655953 c 0,-5.19045 -4.18865,-9.379095 -9.3791,-9.379095 l -63.89704,0 0,-3.304742 c 0,-16.860785 -4.72744,-26.01496 -23.79739,-26.01496 l -88.281226,0 z"/><path style="font-size:96.75057983000000661px;font-style:normal;font-variant:normal;font-weight:700;font-stretch:normal;text-indent:0;text-align:start;text-decoration:none;line-height:80.00000119000000609%;letter-spacing:normal;word-spacing:normal;text-transform:none;direction:ltr;block-progression:tb;writing-mode:lr-tb;text-anchor:start;fill:#000;fill-opacity:1;fill-rule:nonzero;stroke:none;stroke-width:1;marker:none;visibility:visible;display:inline;overflow:visible;enable-background:accumulate;font-family:Bauhaus;-inkscape-font-specification:Bauhaus Bold;opacity:.3" id="text6335-4" d="m 89.768689,121.35574 0,-11.22307 -14.9964,0 0,41.79624 c 0,8.90106 5.6116,16.83461 17.4151,16.83461 l 8.707601,0 0,-14.31909 c -1.064301,0.0968 -2.225301,0.1935 -3.289501,0.1935 -5.9986,-0.1935 -7.9336,-1.16101 -7.9336,-6.57903 l 0,-12.57757 11.029601,0 0,-14.12559 -10.932801,0 m 68.788101,47.40778 0,-25.34865 c 0,-14.89957 -12.0938,-22.83313 -26.7031,-22.83313 -14.9964,0 -25.8324,10.64257 -25.8324,24.76814 0,16.15733 12.771,24.57465 22.6396,24.57465 4.3538,0 7.6433,-0.67726 10.5458,-2.70901 l 0,-12.77109 c -1.7415,0.67726 -4.3538,1.35452 -7.4498,1.35452 -5.031,0 -10.2556,-3.67653 -10.2556,-10.83607 0,-5.90178 5.0311,-10.25556 10.6426,-10.25556 7.0628,0 10.9328,4.06353 10.9328,12.38407 l 0,21.67213 15.4801,0 m 7.9653,-67.7254 0,46.05327 c 0,15.09308 12.9646,22.83314 26.7032,22.83314 14.9963,0 25.8324,-10.64258 25.8324,-24.76815 0,-16.15733 -12.7711,-24.57464 -25.0584,-24.57464 -3.6765,0 -6.0953,0.5805 -7.5466,1.161 l 0,14.31909 c 1.161,-0.67725 3.0961,-1.35451 6.4823,-1.35451 5.9986,0 10.6426,4.35378 10.6426,10.54581 0,6.19203 -4.644,10.54582 -10.6426,10.54582 -7.353,0 -10.9328,-5.22454 -10.9328,-12.48083 l 0,-42.28 -15.4801,0 m -77.914401,99.43735 c 0,-5.41803 3.9667,-9.9653 9.3848,-9.9653 5.418001,0 9.384801,4.54727 9.384801,9.9653 0,5.41804 -3.9668,9.96531 -9.384801,9.96531 -5.4181,0 -9.3848,-4.54727 -9.3848,-9.96531 m -14.8996,0 c 0,13.54508 11.3198,24.67141 24.2844,24.67141 12.964501,0 24.284401,-11.12633 24.284401,-24.67141 0,-13.54507 -11.3199,-24.67139 -24.284401,-24.67139 -12.9646,0 -24.2844,11.12632 -24.2844,24.67139 m 68.754901,0 c 0,-5.41803 3.9667,-9.9653 9.3848,-9.9653 5.418,0 9.3848,4.54727 9.3848,9.9653 0,5.41804 -3.9668,9.96531 -9.3848,9.96531 -5.4181,0 -9.3848,-4.54727 -9.3848,-9.96531 m -14.8996,0 c 0,13.54508 11.3198,24.67141 24.2844,24.67141 12.9645,0 24.2844,-11.12633 24.2844,-24.67141 0,-13.54507 -11.3199,-24.67139 -24.2844,-24.67139 -12.9646,0 -24.2844,11.12632 -24.2844,24.67139"/><path style="font-size:96.75057983px;font-style:normal;font-variant:normal;font-weight:700;font-stretch:normal;text-indent:0;text-align:start;text-decoration:none;line-height:80.00000119%;letter-spacing:normal;word-spacing:normal;text-transform:none;direction:ltr;block-progression:tb;writing-mode:lr-tb;text-anchor:start;fill:#eeeeec;fill-opacity:1;fill-rule:nonzero;stroke:none;stroke-width:1;marker:none;visibility:visible;display:inline;overflow:visible;enable-background:accumulate;font-family:Bauhaus;-inkscape-font-specification:Bauhaus Bold" id="text6335" d="m 89.768702,116.48677 0,-11.22307 -14.99634,0 0,41.79625 c 0,8.90105 5.611546,16.8346 17.415105,16.8346 l 8.707553,0 0,-14.31908 c -1.064256,0.0968 -2.225265,0.1935 -3.289521,0.1935 -5.99853,-0.1935 -7.933547,-1.16101 -7.933547,-6.57904 l 0,-12.57757 11.029568,0 0,-14.12559 -10.932818,0 m 68.788148,47.40778 0,-25.34865 c 0,-14.89957 -12.09383,-22.83313 -26.70316,-22.83313 -14.99632,0 -25.8324,10.64257 -25.8324,24.76814 0,16.15733 12.77109,24.57465 22.63963,24.57465 4.35378,0 7.6433,-0.67725 10.54582,-2.70901 l 0,-12.77108 c -1.74151,0.67725 -4.35378,1.35451 -7.4498,1.35451 -5.03102,0 -10.25556,-3.67653 -10.25556,-10.83607 0,-5.90178 5.03104,-10.25556 10.64257,-10.25556 7.06278,0 10.93281,4.06353 10.93281,12.38407 l 0,21.67213 15.48009,0 m 7.9653,-67.725401 0,46.053271 c 0,15.09308 12.96459,22.83314 26.70316,22.83314 14.99632,0 25.8324,-10.64258 25.8324,-24.76815 0,-16.15733 -12.77109,-24.57464 -25.0584,-24.57464 -3.67652,0 -6.09529,0.5805 -7.54654,1.161 l 0,14.31909 c 1.161,-0.67725 3.09602,-1.35451 6.48229,-1.35451 5.99853,0 10.64256,4.35378 10.64256,10.54581 0,6.19203 -4.64403,10.54582 -10.64256,10.54582 -7.35304,0 -10.93282,-5.22454 -10.93282,-12.48083 l 0,-42.280001 -15.48009,0 M 88.607695,195.60651 c 0,-5.41803 3.96678,-9.96531 9.384807,-9.96531 5.418028,0 9.384808,4.54728 9.384808,9.96531 0,5.41803 -3.96678,9.96531 -9.384808,9.96531 -5.418027,0 -9.384807,-4.54728 -9.384807,-9.96531 m -14.899589,0 c 0,13.54507 11.319831,24.6714 24.284396,24.6714 12.964568,0 24.284398,-11.12633 24.284398,-24.6714 0,-13.54507 -11.31983,-24.6714 -24.284398,-24.6714 -12.964565,0 -24.284396,11.12633 -24.284396,24.6714 m 68.754894,0 c 0,-5.41803 3.96678,-9.96531 9.38481,-9.96531 5.41802,0 9.3848,4.54728 9.3848,9.96531 0,5.41803 -3.96678,9.96531 -9.3848,9.96531 -5.41803,0 -9.38481,-4.54728 -9.38481,-9.96531 m -14.89959,0 c 0,13.54507 11.31983,24.6714 24.2844,24.6714 12.96456,0 24.28439,-11.12633 24.28439,-24.6714 0,-13.54507 -11.31983,-24.6714 -24.28439,-24.6714 -12.96457,0 -24.2844,11.12633 -24.2844,24.6714"/><path style="opacity:.6831683;fill:none;stroke:url(#radialGradient6351);stroke-width:5.01955032;stroke-linecap:butt;stroke-linejoin:round;stroke-miterlimit:4;stroke-opacity:1;stroke-dashoffset:0;marker:none;visibility:visible;display:inline;overflow:visible;enable-background:accumulate" id="path6343" d="M 61.34375,53 C 57.248847,53 54,56.248849 54,60.34375 l 0,28 0,147.3125 C 54,239.75115 57.248849,243 61.34375,243 l 102.3125,0 73,0 C 240.75115,243 244,239.75115 244,235.65625 l 0,-145.10786 c 0,-4.094904 -3.24885,-7.34375 -7.34375,-7.34375 l -66.15625,0 c -1.10452,-1.1e-4 -1.99989,-0.895476 -2,-2 l 0,-3.28125 C 168.79249,61.280735 163.33381,53.731445 146.78125,53 l -85.4375,0 z" transform="matrix(0.9737961,0,0,0.9662254,5.3253507,8.2137777)"/><path id="path6345" d="M 61.34375,57 C 59.400822,57 58,58.400824 58,60.34375 l 0,28 0,147.3125 C 58,237.59918 59.400824,239 61.34375,239 l 102.3125,0 73,0 C 238.59918,239 240,237.59918 240,235.65625 l 0,-147.3125 C 240,86.400821 238.59918,85 236.65625,85 L 173,85 a 6.0006,6.0006 0 0 1 -6,-6 l 0,-3.28125 C 167,67.882205 165.76576,63.313507 163.75,61 c -2.01576,-2.313507 -5.80364,-4 -14.46875,-4 l -87.9375,0 z" transform="matrix(1,0,0,0.9866813,0,3.7591635)" xlink:href="#rect5394" style="opacity:.46534651;fill:none;stroke:url(#radialGradient6353);stroke-width:4.90173197;stroke-linecap:butt;stroke-linejoin:round;stroke-miterlimit:4;stroke-opacity:1;stroke-dasharray:none;stroke-dashoffset:0;marker:none;visibility:visible;display:inline;overflow:visible;enable-background:accumulate"/></g><g id="g6364" transform="matrix(0.1394778,0,0,0.1394778,298.45682,110.59201)"><g style="opacity:.77722772" id="g6366" transform="translate(0,-2)"><rect id="rect6368" width="198" height="17" x="50" y="233" rx="13.744" ry="13.744" transform="matrix(1.1414141,0,0,1,-21.070707,0)" style="opacity:.35643562;fill:#000;fill-opacity:1;fill-rule:nonzero;stroke:none;stroke-width:2;marker:none;visibility:visible;display:inline;overflow:visible;filter:url(#filter6305);enable-background:accumulate"/><rect style="opacity:.70297032;fill:#000;fill-opacity:1;fill-rule:nonzero;stroke:none;stroke-width:2;marker:none;visibility:visible;display:inline;overflow:visible;filter:url(#filter6275);enable-background:accumulate" id="rect6370" width="198" height="17" x="50" y="233" rx="13.744" ry="13.744"/></g><path id="path6372" d="m 59.837153,49.69845 c -5.15868,0 -9.32169,4.159732 -9.32169,9.31435 l 0,27.911899 0,146.848981 c 0,5.15463 4.16301,9.31435 9.32169,9.31435 l 102.070867,0 72.82758,0 c 5.15867,0 9.32169,-4.15972 9.32169,-9.31435 l 0,-145.643575 c 0,-5.15462 -4.16302,-9.31435 -9.32169,-9.31435 l -63.5059,0 0,-3.281929 c 0,-16.744393 -4.6985,-25.835376 -23.65172,-25.835376 l -87.740827,0 z" style="fill:url(#linearGradient6384);fill-opacity:1;fill-rule:nonzero;stroke:url(#linearGradient6387);stroke-width:7.2069664;stroke-linecap:butt;stroke-linejoin:round;stroke-miterlimit:4;stroke-opacity:1;stroke-dasharray:none;stroke-dashoffset:0;marker:none;visibility:visible;display:inline;overflow:visible;enable-background:accumulate"/><path style="font-size:92.31910705999999323px;font-style:normal;font-variant:normal;font-weight:700;font-stretch:normal;text-indent:0;text-align:start;text-decoration:none;line-height:80.00000119000000609%;letter-spacing:normal;word-spacing:normal;text-transform:none;direction:ltr;block-progression:tb;writing-mode:lr-tb;text-anchor:start;fill:#000;fill-opacity:1;fill-rule:nonzero;stroke:none;stroke-width:1;marker:none;visibility:visible;display:inline;overflow:visible;enable-background:accumulate;font-family:Bauhaus;-inkscape-font-specification:Bauhaus Bold;opacity:.3" id="text6374-4" d="m 89.989829,122.35981 0,-10.70901 -14.3094,0 0,39.88185 c 0,8.49335 5.3545,16.06353 16.6174,16.06353 l 8.308701,0 0,-13.66323 c -1.015501,0.0923 -2.123301,0.18464 -3.138801,0.18464 -5.7238,-0.18464 -7.5702,-1.10784 -7.5702,-6.2777 l 0,-12.00149 10.524401,0 0,-13.47859 -10.432101,0 m 65.637501,45.23637 0,-24.18761 c 0,-14.21713 -11.5399,-21.78731 -25.4801,-21.78731 -14.3094,0 -24.6492,10.15512 -24.6492,23.63369 0,15.41728 12.1861,23.44906 21.6027,23.44906 4.1543,0 7.2932,-0.64624 10.0628,-2.58494 l 0,-12.18612 c -1.6618,0.64623 -4.1544,1.29247 -7.1086,1.29247 -4.8006,0 -9.7858,-3.50814 -9.7858,-10.33974 0,-5.63146 4.8006,-9.78583 10.1551,-9.78583 6.7392,0 10.432,3.87741 10.432,11.81685 l 0,20.67948 14.7711,0 m 7.6004,-57.45378 0,36.7743 c 0,14.40176 12.3708,21.78731 25.4801,21.78731 14.3095,0 24.6492,-10.15512 24.6492,-23.6337 0,-15.41727 -12.1861,-23.44905 -23.9106,-23.44905 -3.5082,0 -5.8161,0.55393 -7.2009,1.10783 l 0,13.66323 c 1.1078,-0.64623 2.9542,-1.29247 6.1854,-1.29247 5.7237,0 10.1551,4.15437 10.1551,10.06278 0,5.90842 -4.4314,10.06279 -10.1551,10.06279 -7.0163,0 -10.4321,-4.98524 -10.4321,-11.90917 l 0,-33.17385 -14.7711,0 m -74.345701,87.71323 c 0,-5.16987 3.7851,-9.50887 8.955,-9.50887 5.169801,0 8.954901,4.339 8.954901,9.50887 0,5.16986 -3.7851,9.50888 -8.954901,9.50888 -5.1699,0 -8.955,-4.33902 -8.955,-9.50888 m -14.2171,0 c 0,12.92466 10.8013,23.54137 23.1721,23.54137 12.370701,0 23.172101,-10.61671 23.172101,-23.54137 0,-12.92466 -10.8014,-23.54137 -23.172101,-23.54137 -12.3708,0 -23.1721,10.61671 -23.1721,23.54137 m 65.605701,0 c 0,-5.16987 3.7851,-9.50887 8.9549,-9.50887 5.1699,0 8.955,4.339 8.955,9.50887 0,5.16986 -3.7851,9.50888 -8.955,9.50888 -5.1698,0 -8.9549,-4.33902 -8.9549,-9.50888 m -14.2172,0 c 0,12.92466 10.8014,23.54137 23.1721,23.54137 12.3708,0 23.1721,-10.61671 23.1721,-23.54137 0,-12.92466 -10.8013,-23.54137 -23.1721,-23.54137 -12.3707,0 -23.1721,10.61671 -23.1721,23.54137"/><path style="font-size:92.31910706px;font-style:normal;font-variant:normal;font-weight:700;font-stretch:normal;text-indent:0;text-align:start;text-decoration:none;line-height:80.00000119%;letter-spacing:normal;word-spacing:normal;text-transform:none;direction:ltr;block-progression:tb;writing-mode:lr-tb;text-anchor:start;fill:#eeeeec;fill-opacity:1;fill-rule:nonzero;stroke:none;stroke-width:1;marker:none;visibility:visible;display:inline;overflow:visible;enable-background:accumulate;font-family:Bauhaus;-inkscape-font-specification:Bauhaus Bold" id="text6374" d="m 89.989867,115.19024 0,-10.70901 -14.309462,0 0,39.88185 c 0,8.49335 5.35452,16.06353 16.61744,16.06353 l 8.308715,0 0,-13.66323 c -1.015505,0.0923 -2.123336,0.18464 -3.138845,0.18464 -5.723779,-0.18464 -7.570167,-1.10784 -7.570167,-6.2777 l 0,-12.00149 10.524382,0 0,-13.47859 -10.432063,0 m 65.637443,45.23637 0,-24.18761 c 0,-14.21713 -11.5399,-21.78731 -25.48007,-21.78731 -14.30945,0 -24.64921,10.15512 -24.64921,23.63369 0,15.41728 12.18614,23.44906 21.60268,23.44906 4.15435,0 7.29321,-0.64624 10.06278,-2.58494 l 0,-12.18612 c -1.66174,0.64623 -4.15436,1.29247 -7.10857,1.29247 -4.80059,0 -9.78583,-3.50814 -9.78583,-10.33974 0,-5.63146 4.8006,-9.78583 10.1551,-9.78583 6.73929,0 10.43206,3.87741 10.43206,11.81685 l 0,20.67948 14.77106,0 m 7.60046,-57.45378 0,36.7743 c 0,14.40176 12.37077,21.78731 25.48007,21.78731 14.30945,0 24.64921,-10.15512 24.64921,-23.6337 0,-15.41727 -12.18614,-23.44905 -23.91065,-23.44905 -3.50812,0 -5.81611,0.55392 -7.20089,1.10783 l 0,13.66323 c 1.10783,-0.64623 2.95421,-1.29247 6.18538,-1.29247 5.72378,0 10.1551,4.15437 10.1551,10.06278 0,5.90842 -4.43132,10.06279 -10.1551,10.06279 -7.01625,0 -10.43206,-4.98524 -10.43206,-11.90917 l 0,-33.17385 -14.77106,0 m -74.345732,87.71323 c 0,-5.16987 3.785088,-9.50887 8.954953,-9.50887 5.169869,0 8.954949,4.339 8.954949,9.50887 0,5.16986 -3.78508,9.50887 -8.954949,9.50887 -5.169865,0 -8.954953,-4.33901 -8.954953,-9.50887 m -14.217143,0 c 0,12.92466 10.801348,23.54137 23.172096,23.54137 12.370749,0 23.172099,-10.61671 23.172099,-23.54137 0,-12.92466 -10.80135,-23.54137 -23.172099,-23.54137 -12.370748,0 -23.172096,10.61671 -23.172096,23.54137 m 65.605705,0 c 0,-5.16987 3.78509,-9.50887 8.95496,-9.50887 5.16986,0 8.95495,4.339 8.95495,9.50887 0,5.16986 -3.78509,9.50887 -8.95495,9.50887 -5.16987,0 -8.95496,-4.33901 -8.95496,-9.50887 m -14.21714,0 c 0,12.92466 10.80135,23.54137 23.1721,23.54137 12.37074,0 23.17209,-10.61671 23.17209,-23.54137 0,-12.92466 -10.80135,-23.54137 -23.17209,-23.54137 -12.37075,0 -23.1721,10.61671 -23.1721,23.54137"/><path id="path6380" d="m 64.59424,63.866722 c -3.863002,0 -6.927862,3.063148 -6.927862,6.92399 l 0,26.399553 0,138.892295 c 0,3.86084 3.064862,6.92399 6.927862,6.92399 l 96.51838,0 68.86589,0 c 3.863,0 6.92787,-3.06315 6.92787,-6.92399 l 0,-136.813669 c 0,-3.860845 -3.06487,-6.92399 -6.92787,-6.92399 l -62.40971,0 c -1.04197,-1.04e-4 -1.88664,-0.844292 -1.88674,-1.885683 l 0,-3.093697 C 165.95799,71.67414 160.80844,64.556358 145.19327,63.866722 l -80.59903,0 z" style="opacity:.6831683;fill:none;stroke:url(#radialGradient6389);stroke-width:7.1695981;stroke-linecap:butt;stroke-linejoin:round;stroke-miterlimit:4;stroke-opacity:1;stroke-dashoffset:0;marker:none;visibility:visible;display:inline;overflow:visible;enable-background:accumulate"/><path style="opacity:.46534651;fill:none;stroke:url(#radialGradient6391);stroke-width:7.37356281;stroke-linecap:butt;stroke-linejoin:round;stroke-miterlimit:4;stroke-opacity:1;stroke-dasharray:none;stroke-dashoffset:0;marker:none;visibility:visible;display:inline;overflow:visible;enable-background:accumulate" id="path6382" d="M 61.34375,57 C 59.400822,57 58,58.400824 58,60.34375 l 0,28 0,147.3125 C 58,237.59918 59.400824,239 61.34375,239 l 102.3125,0 73,0 C 238.59918,239 240,237.59918 240,235.65625 l 0,-147.3125 C 240,86.400821 238.59918,85 236.65625,85 L 173,85 a 6.0006,6.0006 0 0 1 -6,-6 l 0,-3.28125 C 167,67.882205 165.76576,63.313507 163.75,61 c -2.01576,-2.313507 -5.80364,-4 -14.46875,-4 l -87.9375,0 z" transform="matrix(1,0,0,0.9454418,9.8581997,0.11834123)" xlink:href="#rect5394"/></g><g id="g6393" transform="matrix(0.1085043,0,0,0.1085043,297.57186,161.9985)"><g id="g6395" transform="translate(0,-2)" style="opacity:.77722772"><rect style="opacity:.35643562;fill:#000;fill-opacity:1;fill-rule:nonzero;stroke:none;stroke-width:2;marker:none;visibility:visible;display:inline;overflow:visible;filter:url(#filter6305);enable-background:accumulate" id="rect6397" width="198" height="17" x="50" y="233" rx="17.667" ry="17.667" transform="matrix(1.1414141,0,0,1,-21.070707,0)"/><rect id="rect6399" width="198" height="17" x="50" y="233" rx="17.667" ry="17.667" style="opacity:.70297032;fill:#000;fill-opacity:1;fill-rule:nonzero;stroke:none;stroke-width:2;marker:none;visibility:visible;display:inline;overflow:visible;filter:url(#filter6275);enable-background:accumulate"/></g><path style="fill:url(#linearGradient6413);fill-opacity:1;fill-rule:nonzero;stroke:url(#linearGradient6415);stroke-width:9.26425457;stroke-linecap:butt;stroke-linejoin:round;stroke-miterlimit:4;stroke-opacity:1;stroke-dasharray:none;stroke-dashoffset:0;marker:none;visibility:visible;display:inline;overflow:visible;enable-background:accumulate" id="path6401" d="m 63.869248,51.426492 c -5.158679,0 -9.321683,4.159732 -9.321683,9.31435 l 0,26.183857 0,148.001011 c 0,5.15463 4.163006,9.31435 9.321683,9.31435 l 98.038772,0 68.21947,0 c 5.15867,0 9.32169,-4.15972 9.32169,-9.31435 l 0,-146.795605 c 0,-5.15462 -4.16302,-9.31435 -9.32169,-9.31435 l -73.87415,0 0,-3.281929 c 0,-16.744393 -4.6985,-24.107334 -23.65172,-24.107334 l -68.732372,0 z"/><path style="font-size:92.31910706px;font-style:normal;font-variant:normal;font-weight:700;font-stretch:normal;text-indent:0;text-align:start;text-decoration:none;line-height:80.00000119%;letter-spacing:normal;word-spacing:normal;text-transform:none;direction:ltr;block-progression:tb;writing-mode:lr-tb;text-anchor:start;opacity:.3;fill:#000;fill-opacity:1;fill-rule:nonzero;stroke:none;stroke-width:1;marker:none;visibility:visible;display:inline;overflow:visible;enable-background:accumulate;font-family:Bauhaus;-inkscape-font-specification:Bauhaus Bold" id="text6403-7" d="m 89.989875,131.57601 0,-10.709 -14.3095,0 0,39.8819 c 0,8.4933 5.3545,16.0635 16.6175,16.0635 l 8.308705,0 0,-13.6632 c -1.015505,0.092 -2.123405,0.1846 -3.138905,0.1846 -5.7238,-0.1846 -7.5701,-1.1078 -7.5701,-6.2777 l 0,-12.0015 10.524305,0 0,-13.4786 -10.432005,0 m 65.637405,45.2364 0,-24.1876 c 0,-14.2171 -11.5399,-21.7873 -25.4801,-21.7873 -14.3094,0 -24.6492,10.1551 -24.6492,23.6337 0,15.4173 12.1862,23.449 21.6027,23.449 4.1544,0 7.2932,-0.6462 10.0628,-2.5849 l 0,-12.1861 c -1.6617,0.6462 -4.1544,1.2925 -7.1086,1.2925 -4.8006,0 -9.7858,-3.5082 -9.7858,-10.3398 0,-5.6314 4.8006,-9.7858 10.1551,-9.7858 6.7393,0 10.4321,3.8774 10.4321,11.8168 l 0,20.6795 14.771,0 m 7.6005,-64.6234 0,43.9439 c 0,14.4018 12.3707,21.7873 25.48,21.7873 14.3095,0 24.6493,-10.1551 24.6493,-23.6337 0,-15.4172 -12.1862,-23.449 -23.9107,-23.449 -3.5081,0 -5.8161,0.5539 -7.2009,1.1078 l 0,13.6633 c 1.1078,-0.6463 2.9542,-1.2925 6.1854,-1.2925 5.7238,0 10.1551,4.1544 10.1551,10.0628 0,5.9084 -4.4313,10.0628 -10.1551,10.0628 -7.0163,0 -10.4321,-4.9853 -10.4321,-11.9092 l 0,-40.3435 -14.771,0 m -74.345805,94.8829 c 0,-5.1699 3.7851,-9.5089 8.955,-9.5089 5.169905,0 8.954905,4.339 8.954905,9.5089 0,5.1698 -3.785,9.5088 -8.954905,9.5088 -5.1699,0 -8.955,-4.339 -8.955,-9.5088 m -14.2171,0 c 0,12.9246 10.8013,23.5413 23.1721,23.5413 12.370705,0 23.172105,-10.6167 23.172105,-23.5413 0,-12.9247 -10.8014,-23.5414 -23.172105,-23.5414 -12.3708,0 -23.1721,10.6167 -23.1721,23.5414 m 65.605705,0 c 0,-5.1699 3.7851,-9.5089 8.955,-9.5089 5.1698,0 8.9549,4.339 8.9549,9.5089 0,5.1698 -3.7851,9.5088 -8.9549,9.5088 -5.1699,0 -8.955,-4.339 -8.955,-9.5088 m -14.2171,0 c 0,12.9246 10.8013,23.5413 23.1721,23.5413 12.3707,0 23.1721,-10.6167 23.1721,-23.5413 0,-12.9247 -10.8014,-23.5414 -23.1721,-23.5414 -12.3708,0 -23.1721,10.6167 -23.1721,23.5414"/><path style="font-size:92.31910706px;font-style:normal;font-variant:normal;font-weight:700;font-stretch:normal;text-indent:0;text-align:start;text-decoration:none;line-height:80.00000119%;letter-spacing:normal;word-spacing:normal;text-transform:none;direction:ltr;block-progression:tb;writing-mode:lr-tb;text-anchor:start;fill:#eeeeec;fill-opacity:1;fill-rule:nonzero;stroke:none;stroke-width:1;marker:none;visibility:visible;display:inline;overflow:visible;enable-background:accumulate;font-family:Bauhaus;-inkscape-font-specification:Bauhaus Bold" id="text6403" d="m 89.989867,122.35984 0,-10.70901 -14.309462,0 0,39.88185 c 0,8.49335 5.35452,16.06353 16.61744,16.06353 l 8.308715,0 0,-13.66323 c -1.015505,0.0923 -2.123336,0.18464 -3.138845,0.18464 -5.723779,-0.18464 -7.570167,-1.10784 -7.570167,-6.2777 l 0,-12.00149 10.524382,0 0,-13.47859 -10.432063,0 m 65.637443,45.23637 0,-24.18761 c 0,-14.21713 -11.5399,-21.78731 -25.48007,-21.78731 -14.30945,0 -24.64921,10.15512 -24.64921,23.63369 0,15.41728 12.18614,23.44906 21.60268,23.44906 4.15435,0 7.29321,-0.64624 10.06278,-2.58494 l 0,-12.18612 c -1.66174,0.64623 -4.15436,1.29247 -7.10857,1.29247 -4.80059,0 -9.78583,-3.50814 -9.78583,-10.33974 0,-5.63146 4.8006,-9.78583 10.1551,-9.78583 6.73929,0 10.43206,3.87741 10.43206,11.81685 l 0,20.67948 14.77106,0 m 7.60046,-64.62338 0,43.9439 c 0,14.40176 12.37077,21.78731 25.48007,21.78731 14.30945,0 24.64921,-10.15512 24.64921,-23.6337 0,-15.41727 -12.18614,-23.44905 -23.91065,-23.44905 -3.50812,0 -5.81611,0.55392 -7.20089,1.10783 l 0,13.66323 c 1.10783,-0.64623 2.95421,-1.29247 6.18538,-1.29247 5.72378,0 10.1551,4.15437 10.1551,10.06278 0,5.90842 -4.43132,10.06279 -10.1551,10.06279 -7.01625,0 -10.43206,-4.98524 -10.43206,-11.90917 l 0,-40.34345 -14.77106,0 m -74.345732,94.88283 c 0,-5.16987 3.785088,-9.50887 8.954953,-9.50887 5.169869,0 8.954949,4.339 8.954949,9.50887 0,5.16986 -3.78508,9.50887 -8.954949,9.50887 -5.169865,0 -8.954953,-4.33901 -8.954953,-9.50887 m -14.217143,0 c 0,12.92466 10.801348,23.54137 23.172096,23.54137 12.370749,0 23.172099,-10.61671 23.172099,-23.54137 0,-12.92466 -10.80135,-23.54137 -23.172099,-23.54137 -12.370748,0 -23.172096,10.61671 -23.172096,23.54137 m 65.605705,0 c 0,-5.16987 3.78509,-9.50887 8.95496,-9.50887 5.16986,0 8.95495,4.339 8.95495,9.50887 0,5.16986 -3.78509,9.50887 -8.95495,9.50887 -5.16987,0 -8.95496,-4.33901 -8.95496,-9.50887 m -14.21714,0 c 0,12.92466 10.80135,23.54137 23.1721,23.54137 12.37074,0 23.17209,-10.61671 23.17209,-23.54137 0,-12.92466 -10.80135,-23.54137 -23.17209,-23.54137 -12.37075,0 -23.1721,10.61671 -23.1721,23.54137"/><path style="opacity:.6831683;fill:none;stroke:url(#radialGradient6417);stroke-width:9.21621895;stroke-linecap:butt;stroke-linejoin:round;stroke-miterlimit:4;stroke-opacity:1;stroke-dashoffset:0;marker:none;visibility:visible;display:inline;overflow:visible;enable-background:accumulate" id="path6409" d="m 70.5401,69.472332 c -3.729704,0 -6.688807,3.533461 -6.688807,7.261076 l 0,25.488572 0,134.0995 c 0,3.72761 2.959105,6.68506 6.688807,6.68506 l 93.18789,0 59.0014,0 c 3.7297,0 7.26483,-2.95745 7.26483,-6.68506 l 0,-144.908912 c 0,-3.72762 0.64097,-3.660987 -3.08873,-3.660987 l -77.68061,0 c -1.00602,-1.01e-4 -1.82154,-0.815158 -1.82164,-1.820613 l 0,-2.986942 c 0,-10.034656 -2.30915,-13.471694 -12.58161,-13.471694 l -64.28153,0 z"/><path id="path6411" d="M 61.34375,57 C 59.400822,57 58,58.400824 58,60.34375 l 0,28 0,147.3125 C 58,237.59918 59.400824,239 61.34375,239 l 102.3125,0 73,0 C 238.59918,239 240,237.59918 240,235.65625 l 0,-147.3125 C 240,86.400821 238.59918,85 236.65625,85 L 173,85 a 6.0006,6.0006 0 0 1 -6,-6 l 0,-3.28125 C 167,67.882205 165.76576,63.313507 163.75,61 c -2.01576,-2.313507 -5.80364,-4 -14.46875,-4 l -87.9375,0 z" transform="matrix(0.8872895,0,0,0.8385842,16.79386,34.605931)" xlink:href="#rect5394" style="opacity:.46534651;fill:none;stroke:url(#radialGradient6419);stroke-width:10.68431759;stroke-linecap:butt;stroke-linejoin:round;stroke-miterlimit:4;stroke-opacity:1;stroke-dasharray:none;stroke-dashoffset:0;marker:none;visibility:visible;display:inline;overflow:visible;enable-background:accumulate"/></g><g id="g6421" transform="matrix(0.08190194,0,0,0.08190194,298.8972,205.2386)"><path id="path6429" d="m 65.460688,51.426493 c -5.107919,0 -9.229959,3.963507 -9.229959,8.874968 l 0,24.948697 0,141.019422 c 0,4.91147 4.122042,8.87496 9.229959,8.87496 l 97.074082,0 67.54821,0 c 5.10791,0 9.22996,-3.96349 9.22996,-8.87496 l 0,-139.870878 c 0,-4.911464 -4.12205,-8.874968 -9.22996,-8.874968 l -76.96278,0 0,-3.127112 c 0,-15.954517 -4.65227,-22.970129 -23.41899,-22.970129 l -64.240522,0 z" style="fill:url(#linearGradient6441);fill-opacity:1;fill-rule:nonzero;stroke:url(#linearGradient6443);stroke-width:12.27335358;stroke-linecap:butt;stroke-linejoin:round;stroke-miterlimit:4;stroke-opacity:1;stroke-dasharray:none;stroke-dashoffset:0;marker:none;visibility:visible;display:inline;overflow:visible;enable-background:accumulate"/><path id="path6437" d="m 74.797244,75.577188 c -3.562313,0 -6.388611,3.125414 -6.388611,6.422559 l 0,16.440265 0,118.613548 c 0,3.29714 2.8263,5.91307 6.388611,5.91307 l 89.005576,0 56.35339,0 c 3.56231,0 6.93878,-2.61593 6.93878,-5.91307 l 0,-125.122247 c 0,-3.297151 0.6122,-3.238212 -2.95011,-3.238212 l -80.29913,0 c -0.96087,-9e-5 -1.73979,-0.721023 -1.73988,-1.610367 l 0,-2.642008 c 0,-8.875843 -2.20552,-8.863538 -12.01694,-8.863538 l -55.291686,0 z" style="opacity:.6831683;fill:none;stroke:url(#radialGradient6445);stroke-width:12.20971489;stroke-linecap:butt;stroke-linejoin:round;stroke-miterlimit:4;stroke-opacity:1;stroke-dashoffset:0;marker:none;visibility:visible;display:inline;overflow:visible;enable-background:accumulate"/><path style="opacity:.46534651;fill:none;stroke:url(#radialGradient6447);stroke-width:15.43504143;stroke-linecap:butt;stroke-linejoin:round;stroke-miterlimit:4;stroke-opacity:1;stroke-dasharray:none;stroke-dashoffset:0;marker:none;visibility:visible;display:inline;overflow:visible;enable-background:accumulate" id="path6439" d="M 61.34375,57 C 59.400822,57 58,58.400824 58,60.34375 l 0,28 0,147.3125 C 58,237.59918 59.400824,239 61.34375,239 l 102.3125,0 73,0 C 238.59918,239 240,237.59918 240,235.65625 l 0,-147.3125 C 240,86.400821 238.59918,85 236.65625,85 L 173,85 a 6.0006,6.0006 0 0 1 -6,-6 l 0,-3.28125 C 167,67.882205 165.76576,63.313507 163.75,61 c -2.01576,-2.313507 -5.80364,-4 -14.46875,-4 l -87.9375,0 z" transform="matrix(0.8872895,0,0,0.705229,16.79386,55.180012)" xlink:href="#rect5394"/><path style="font-size:88.85193633999999463px;font-style:normal;font-variant:normal;font-weight:700;font-stretch:normal;text-indent:0;text-align:start;text-decoration:none;line-height:80.00000119000000609%;letter-spacing:normal;word-spacing:normal;text-transform:none;direction:ltr;block-progression:tb;writing-mode:lr-tb;text-anchor:start;fill:#000;fill-opacity:1;fill-rule:nonzero;stroke:none;stroke-width:1;marker:none;visibility:visible;display:inline;overflow:visible;enable-background:accumulate;font-family:Bauhaus;-inkscape-font-specification:Bauhaus Bold;opacity:.2" id="text6449-1" d="m 99.336507,126.96063 0,-10.3068 -13.7721,0 0,38.3841 c 0,8.1742 5.1533,15.4602 15.993203,15.4602 l 7.9968,0 0,-13.1502 c -0.9768,0.086 -2.0437,0.1783 -3.0209,0.1783 -5.5089,-0.1783 -7.285903,-1.0659 -7.285903,-6.042 l 0,-11.5507 10.129003,0 0,-12.9724 -10.040103,0 m 63.172203,43.5374 0,-23.2791 c 0,-13.6832 -11.1064,-20.9691 -24.5231,-20.9691 -13.7721,0 -23.7235,9.7737 -23.7235,22.7461 0,14.8382 11.7285,22.5683 20.7913,22.5683 3.9985,0 7.0194,-0.6215 9.6849,-2.4879 l 0,-11.7284 c -1.5992,0.6215 -3.9983,1.244 -6.8416,1.244 -4.6203,0 -9.4182,-3.3764 -9.4182,-9.9515 0,-5.4199 4.6203,-9.4183 9.7736,-9.4183 6.4862,0 10.0403,3.7318 10.0403,11.3731 l 0,19.9028 14.2163,0 m 7.3151,-62.1963 0,42.2935 c 0,13.8609 11.9062,20.969 24.5231,20.969 13.772,0 23.7235,-9.7736 23.7235,-22.746 0,-14.8383 -11.7285,-22.5684 -23.0127,-22.5684 -3.3764,0 -5.5976,0.5335 -6.9304,1.0659 l 0,13.15 c 1.0659,-0.6215 2.8432,-1.244 5.9531,-1.244 5.5087,0 9.7736,3.9985 9.7736,9.6849 0,5.6866 -4.2649,9.6849 -9.7736,9.6849 -6.7527,0 -10.0403,-4.7979 -10.0403,-11.4619 l 0,-38.8283 -14.2163,0 m -71.553603,91.3194 c 0,-4.9757 3.642903,-9.1517 8.618603,-9.1517 4.9757,0 8.6187,4.176 8.6187,9.1517 0,4.9757 -3.643,9.1518 -8.6187,9.1518 -4.9757,0 -8.618603,-4.1761 -8.618603,-9.1518 m -13.6832,0 c 0,12.4392 10.3957,22.6572 22.301803,22.6572 11.9062,0 22.3019,-10.218 22.3019,-22.6572 0,-12.4393 -10.3957,-22.6572 -22.3019,-22.6572 -11.906103,0 -22.301803,10.2179 -22.301803,22.6572 m 63.141803,0 c 0,-4.9757 3.6429,-9.1517 8.6186,-9.1517 4.9757,0 8.6186,4.176 8.6186,9.1517 0,4.9757 -3.6429,9.1518 -8.6186,9.1518 -4.9757,0 -8.6186,-4.1761 -8.6186,-9.1518 m -13.6832,0 c 0,12.4392 10.3956,22.6572 22.3018,22.6572 11.9062,0 22.3018,-10.218 22.3018,-22.6572 0,-12.4393 -10.3956,-22.6572 -22.3018,-22.6572 -11.9062,0 -22.3018,10.2179 -22.3018,22.6572"/><path style="font-size:88.85193634px;font-style:normal;font-variant:normal;font-weight:700;font-stretch:normal;text-indent:0;text-align:start;text-decoration:none;line-height:80.00000119%;letter-spacing:normal;word-spacing:normal;text-transform:none;direction:ltr;block-progression:tb;writing-mode:lr-tb;text-anchor:start;fill:#eeeeec;fill-opacity:1;fill-rule:nonzero;stroke:none;stroke-width:1;marker:none;visibility:visible;display:inline;overflow:visible;enable-background:accumulate;font-family:Bauhaus;-inkscape-font-specification:Bauhaus Bold" id="text6449" d="m 99.336412,114.75085 0,-10.30682 -13.77205,0 0,38.38403 c 0,8.17437 5.153423,15.46024 15.993348,15.46024 l 7.99667,0 0,-13.15009 c -0.97737,0.0889 -2.04359,0.17771 -3.02096,0.17771 -5.50882,-0.17771 -7.28586,-1.06623 -7.28586,-6.04193 l 0,-11.55076 10.12912,0 0,-12.97238 -10.040268,0 m 63.172338,43.53745 0,-23.27921 c 0,-13.68318 -11.10651,-20.96905 -24.52313,-20.96905 -13.77204,0 -23.72347,9.77372 -23.72347,22.74609 0,14.83826 11.72846,22.56839 20.79135,22.56839 3.99833,0 7.01931,-0.62196 9.68486,-2.48785 l 0,-11.72846 c -1.59933,0.62197 -3.99834,1.24393 -6.8416,1.24393 -4.62029,0 -9.4183,-3.37638 -9.4183,-9.95142 0,-5.41996 4.6203,-9.4183 9.77371,-9.4183 6.48619,0 10.04027,3.73179 10.04027,11.37305 l 0,19.90283 14.21631,0 m 7.31501,-62.196356 0,42.293526 c 0,13.86088 11.90617,20.96905 24.52314,20.96905 13.77203,0 23.72346,-9.77372 23.72346,-22.74609 0,-14.83826 -11.72846,-22.56839 -23.01265,-22.56839 -3.37637,0 -5.59767,0.53311 -6.93045,1.06622 l 0,13.15009 c 1.06622,-0.62197 2.84327,-1.24393 5.95308,-1.24393 5.50881,0 9.77371,3.99834 9.77371,9.68486 0,5.68652 -4.2649,9.68486 -9.77371,9.68486 -6.75274,0 -10.04027,-4.79801 -10.04027,-11.4619 l 0,-38.828296 -14.21631,0 M 98.270189,187.41132 c 0,-4.97571 3.642931,-9.15175 8.618641,-9.15175 4.9757,0 8.61863,4.17604 8.61863,9.15175 0,4.9757 -3.64293,9.15174 -8.61863,9.15174 -4.97571,0 -8.618641,-4.17604 -8.618641,-9.15174 m -13.683198,0 c 0,12.43925 10.395688,22.65724 22.301839,22.65724 11.90614,0 22.30183,-10.21799 22.30183,-22.65724 0,-12.43926 -10.39569,-22.65725 -22.30183,-22.65725 -11.906151,0 -22.301839,10.21799 -22.301839,22.65725 m 63.141799,0 c 0,-4.97571 3.64293,-9.15175 8.61864,-9.15175 4.9757,0 8.61863,4.17604 8.61863,9.15175 0,4.9757 -3.64293,9.15174 -8.61863,9.15174 -4.97571,0 -8.61864,-4.17604 -8.61864,-9.15174 m -13.6832,0 c 0,12.43925 10.39569,22.65724 22.30184,22.65724 11.90614,0 22.30183,-10.21799 22.30183,-22.65724 0,-12.43926 -10.39569,-22.65725 -22.30183,-22.65725 -11.90615,0 -22.30184,10.21799 -22.30184,22.65725"/></g></g></svg>