<svg xmlns="http://www.w3.org/2000/svg" xmlns:svg="http://www.w3.org/2000/svg" id="svg7384" width="16" height="16" version="1.1"><metadata id="metadata90"/><title id="title9167">Gnome Symbolic Icon Theme</title><defs id="defs7386"><filter id="filter12578-8" color-interpolation-filters="sRGB"><feGaussianBlur id="feGaussianBlur12580-4" stdDeviation=".015"/></filter><filter id="filter12586-1" color-interpolation-filters="sRGB"><feGaussianBlur id="feGaussianBlur12588-8" stdDeviation=".02"/></filter></defs><g id="layer10" transform="translate(-55,20)"><path id="path12374" d="m 114,478 a 5,5 0 1 1 -10,0 5,5 0 1 1 10,0 z" transform="matrix(0.8,0,0,0.79375062,-24.2,-388.44404)" style="fill:#bebebe;fill-opacity:1;stroke:none"/><path id="path12620" d="m 62.8125,-19.9375 c -1.10783,0.003 -2.22028,0.21514 -3.21875,0.6875 -3.9939,1.88945 -5.70194,6.66235 -3.8125,10.65625 0.0909,0.19209 0.2087,0.38113 0.3125,0.5625 -1.18546,-3.34405 0.34876,-7.10631 3.625,-8.65625 1.47061,-0.69572 3.0585,-0.83482 4.53125,-0.5 l 1.09375,-2.46875 c -0.55026,-0.12019 -1.1231,-0.21721 -1.71875,-0.25 -0.21357,-0.0199 -0.41159,-0.0272 -0.625,-0.0312 -0.0639,-0.001 -0.12368,-1.9e-4 -0.1875,0 z m 4.65625,0.96875 -1.1875,2.59375 c 0.95696,0.56922 1.79787,1.37485 2.40625,2.375 L 71,-15 c -0.40354,-1.6574 -1.70003,-3.08691 -3.53125,-3.96875 z" style="fill:#bebebe;fill-opacity:1;stroke:none"/><path id="path12636" d="m 65,-12 0,-4 -2,3 z" style="fill:#bebebe;fill-opacity:1;stroke:none"/></g></svg>