<svg xmlns="http://www.w3.org/2000/svg" xmlns:svg="http://www.w3.org/2000/svg" id="svg7384" width="16" height="16" version="1.1"><metadata id="metadata90"/><title id="title9167">Gnome Symbolic Icon Theme</title><defs id="defs7386"><filter id="filter12578-8" color-interpolation-filters="sRGB"><feGaussianBlur id="feGaussianBlur12580-4" stdDeviation=".015"/></filter><filter id="filter12586-1" color-interpolation-filters="sRGB"><feGaussianBlur id="feGaussianBlur12588-8" stdDeviation=".02"/></filter></defs><g id="layer10" transform="translate(-75,40)"><path id="path28491" d="M 75.53125,-40 C 75.24212,-40 75,-39.75788 75,-39.46875 l 0,14.9375 C 75,-24.23275 75.23264,-24 75.53125,-24 l 14.9375,0 C 90.76735,-24 91,-24.23265 91,-24.53125 l 0,-9.9375 C 91,-34.75785 90.75788,-35 90.46875,-35 L 78,-35 l 0,8.5 c 0,0.277 -0.223,0.5 -0.5,0.5 -0.277,0 -0.5,-0.223 -0.5,-0.5 l 0,-9 c 0,-0.277 0.223,-0.5 0.5,-0.5 l 2.96875,0 8.53125,0 0,-1.40625 C 89,-37.73345 88.73334,-38 88.40625,-38 L 81,-38 81,-39.46875 C 81,-39.7579 80.75788,-40 80.46875,-40 z M 79,-33 l 11,0 0,6 -11,0 z" style="fill:#bebebe;fill-opacity:1;stroke:none;display:inline"/><rect id="rect5201-2" width="3" height="4" x="82" y="-32" style="opacity:.3;fill:#bebebe;fill-opacity:1;stroke:none"/><rect id="rect5203-1" width="1" height="1" x="81" y="-31" style="opacity:.3;fill:#bebebe;fill-opacity:1;stroke:none"/><rect id="rect5205-2" width="1" height="1" x="81" y="-29" style="opacity:.3;fill:#bebebe;fill-opacity:1;stroke:none"/><rect id="rect5211-0" width="1" height="4" x="88" y="-32" style="fill:#bebebe;fill-opacity:1;stroke:none"/><rect id="rect5213-2" width="1" height="1" x="87" y="-30" style="fill:#bebebe;fill-opacity:1;stroke:none"/><rect id="rect5217-9" width="1" height="1" x="87" y="-32" style="fill:#bebebe;fill-opacity:1;stroke:none"/><rect id="rect5219-6" width="1" height="1" x="80" y="-30" style="opacity:.3;fill:#bebebe;fill-opacity:1;stroke:none"/><rect id="rect5221-0" width="1" height="1" x="80" y="-32" style="opacity:.3;fill:#bebebe;fill-opacity:1;stroke:none"/><rect id="rect5223-8" width="1" height="1" x="86" y="28" transform="scale(1,-1)" style="fill:#bebebe;fill-opacity:1;stroke:none"/><rect id="rect5225-7" width="1" height="1" x="86" y="30" transform="scale(1,-1)" style="fill:#bebebe;fill-opacity:1;stroke:none"/><rect id="rect5227-6" width="1" height="1" x="85" y="31" transform="scale(1,-1)" style="fill:#bebebe;fill-opacity:1;stroke:none"/><rect id="rect5229-4" width="1" height="1" x="85" y="29" transform="scale(1,-1)" style="fill:#bebebe;fill-opacity:1;stroke:none"/></g></svg>