<svg xmlns="http://www.w3.org/2000/svg" xmlns:svg="http://www.w3.org/2000/svg" id="svg7384" width="16" height="16" version="1.1"><metadata id="metadata90"/><title id="title9167">Gnome Symbolic Icon Theme</title><defs id="defs7386"><filter id="filter12578-8" color-interpolation-filters="sRGB"><feGaussianBlur id="feGaussianBlur12580-4" stdDeviation=".015"/></filter><filter id="filter12586-1" color-interpolation-filters="sRGB"><feGaussianBlur id="feGaussianBlur12588-8" stdDeviation=".02"/></filter></defs><g id="layer10" transform="translate(-135,40)"><g id="g29114" transform="translate(120,0)"><path id="path29116" d="M 135.53125,-40 C 135.24212,-40 135,-39.75788 135,-39.46875 l 0,14.9375 c 0,0.2985 0.23264,0.53125 0.53125,0.53125 l 14.9375,0 C 150.76735,-24 151,-24.23265 151,-24.53125 l 0,-9.9375 C 151,-34.75785 150.75788,-35 150.46875,-35 L 138,-35 l 0,8.5 c 0,0.277 -0.223,0.5 -0.5,0.5 -0.277,0 -0.5,-0.223 -0.5,-0.5 l 0,-9 c 0,-0.277 0.223,-0.5 0.5,-0.5 l 2.96875,0 8.53125,0 0,-1.40625 C 149,-37.73345 148.73334,-38 148.40625,-38 L 141,-38 l 0,-1.46875 C 141,-39.7579 140.75788,-40 140.46875,-40 z M 145,-34 c 0.5,0 1,0.166667 1,0.5 l 0,1.5 2,0 0,2 -1.5,-0.0625 c -0.66609,-0.02775 -0.66609,1.972246 0,2 L 148,-28 l 0,2 -6,0 0,-2 -1.4375,0 c -0.66667,0 -0.66667,-2 0,-2 l 1.4375,0 0,-2 2,0 0,-1.5 c 0,-0.333333 0.5,-0.5 1,-0.5 z" transform="translate(-120,0)" style="fill:#bebebe;fill-opacity:1;stroke:none;display:inline"/></g></g></svg>