<svg xmlns="http://www.w3.org/2000/svg" xmlns:svg="http://www.w3.org/2000/svg" id="svg7384" width="16" height="16" version="1.1"><metadata id="metadata90"/><title id="title9167">Gnome Symbolic Icon Theme</title><defs id="defs7386"><filter id="filter12578-8" color-interpolation-filters="sRGB"><feGaussianBlur id="feGaussianBlur12580-4" stdDeviation=".015"/></filter><filter id="filter12586-1" color-interpolation-filters="sRGB"><feGaussianBlur id="feGaussianBlur12588-8" stdDeviation=".02"/></filter></defs><g id="layer10" transform="translate(-55,40)"><path id="path14416" d="M 55.53125,-40 C 55.24212,-40 55,-39.75785 55,-39.46875 l 0,14.9375 C 55,-24.23275 55.23264,-24 55.53125,-24 l 14.9375,0 C 70.76735,-24 71,-24.23265 71,-24.53125 l 0,-9.9375 C 71,-34.75775 70.75788,-35 70.46875,-35 L 58,-35 l 0,8.5 c 0,0.277 -0.223,0.5 -0.5,0.5 -0.277,0 -0.5,-0.223 -0.5,-0.5 l 0,-9 c 0,-0.277 0.223,-0.5 0.5,-0.5 l 2.96875,0 8.53125,0 0,-1.40625 C 69,-37.73335 68.73334,-38 68.40625,-38 L 61,-38 61,-39.46875 C 61,-39.75785 60.75788,-40 60.46875,-40 z M 62,-34 l 3.90625,0.03125 0.0625,0 c 0.551829,0.04493 1.099741,0.271151 1.46875,0.625 C 67.806506,-32.989919 68,-32.518643 68,-32 l 0,5 0,2 -0.75,0 -5.25,0 c -3,0 -3,-6 0,-6 l 2,0 2,0 -0.03125,-0.25 c -3.77e-4,-0.02141 8.77e-4,-0.04249 0,-0.0625 -0.01157,-0.26362 -0.132627,-0.4174 -0.21875,-0.5 C 65.6574,-31.90126 65.534995,-31.9818 65.3125,-32 L 62,-32 z m 1,5 c -0.554,0 -1,0.446 -1,1 0,0.554 0.446,1 1,1 l 3,0 0,-2 z" style="fill:#bebebe;fill-opacity:1;stroke:none;display:inline"/></g></svg>