<svg xmlns="http://www.w3.org/2000/svg" xmlns:svg="http://www.w3.org/2000/svg" id="svg7384" width="16" height="16" version="1.1"><metadata id="metadata90"/><title id="title9167">Gnome Symbolic Icon Theme</title><defs id="defs7386"><filter id="filter12578-8" color-interpolation-filters="sRGB"><feGaussianBlur id="feGaussianBlur12580-4" stdDeviation=".015"/></filter><filter id="filter12586-1" color-interpolation-filters="sRGB"><feGaussianBlur id="feGaussianBlur12588-8" stdDeviation=".02"/></filter></defs><g id="layer10" transform="translate(-35,40)"><g id="g7144" transform="translate(20,0)"><g id="g7146" transform="translate(-192.9998,-1036)" style="display:inline"><path id="path7149" d="M 35.53125,-40 C 35.24212,-40 35,-39.75788 35,-39.46875 l 0,14.9375 C 35,-24.23275 35.23264,-24 35.53125,-24 l 14.9375,0 C 50.76735,-24 51,-24.23265 51,-24.53125 l 0,-9.9375 C 51,-34.75785 50.75788,-35 50.46875,-35 L 38,-35 l 0,8.5 c 0,0.277 -0.223,0.5 -0.5,0.5 -0.277,0 -0.5,-0.223 -0.5,-0.5 l 0,-9 c 0,-0.277 0.223,-0.5 0.5,-0.5 l 2.96875,0 8.53125,0 0,-1.40625 C 49,-37.73345 48.733264,-38.007036 48.40625,-38 L 41,-38 41,-39.46875 C 41,-39.7579 40.75788,-40 40.46875,-40 z M 41,-34 l 0,0.5625 C 41,-33.192664 41.216234,-33 41.46875,-33 l 0.0625,0 C 41.783766,-33 42,-33.192664 42,-33.4375 L 42,-34 l 1,0 0,0.5625 C 43,-33.192664 43.216234,-33 43.46875,-33 l 0.0625,0 C 43.783766,-33 44,-33.192664 44,-33.4375 L 44,-34 l 1,0 0,0.5625 C 45,-33.192664 45.216234,-33 45.46875,-33 l 0.0625,0 C 45.783766,-33 46,-33.192664 46,-33.4375 L 46,-34 l 1,0 0,0.5625 C 47,-33.192664 47.216234,-33 47.46875,-33 l 0.0625,0 C 47.783766,-33 48,-33.192664 48,-33.4375 L 48,-34 c 0.554,0 1.021427,0.446415 1,1 l 0,3 -9,0 0,-3 c 0,-0.554 0.446,-1 1,-1 z m -1,5 9,0 -1,2 -2,0 0,2 -3,0 0,-2 -2,0 z" transform="translate(172.9998,1036)" style="fill:#bebebe;fill-opacity:1;stroke:none;display:inline"/></g></g></g></svg>