<svg xmlns="http://www.w3.org/2000/svg" xmlns:svg="http://www.w3.org/2000/svg" id="svg7384" width="16" height="16" version="1.1"><metadata id="metadata90"/><title id="title9167">Gnome Symbolic Icon Theme</title><defs id="defs7386"><filter id="filter12578-8" color-interpolation-filters="sRGB"><feGaussianBlur id="feGaussianBlur12580-4" stdDeviation=".015"/></filter><filter id="filter12586-1" color-interpolation-filters="sRGB"><feGaussianBlur id="feGaussianBlur12588-8" stdDeviation=".02"/></filter></defs><g id="layer10" transform="translate(-115,40)"><g id="g29076" transform="translate(100,0)"><path id="path29078" d="M 115.53125,-40 C 115.24212,-40 115,-39.75788 115,-39.46875 l 0,14.9375 c 0,0.2985 0.23264,0.53125 0.53125,0.53125 l 14.9375,0 C 130.76735,-24 131,-24.23265 131,-24.53125 l 0,-9.9375 C 131,-34.75785 130.75788,-35 130.46875,-35 L 118,-35 l 0,8.5 c 0,0.277 -0.223,0.5 -0.5,0.5 -0.277,0 -0.5,-0.223 -0.5,-0.5 l 0,-9 c 0,-0.277 0.223,-0.5 0.5,-0.5 l 2.96875,0 8.53125,0 0,-1.40625 C 129,-37.73345 128.73334,-38 128.40625,-38 L 121,-38 l 0,-1.46875 C 121,-39.7579 120.75788,-40 120.46875,-40 z m 4.46875,6 6,4 -6.04419,4.088388 L 120,-27.558058 123.55806,-30 120,-32.486136 z m 5,7 5,0 0,1 -5,0 z" transform="translate(-100,0)" style="fill:#bebebe;fill-opacity:1;stroke:none;display:inline"/></g></g></svg>