<svg xmlns="http://www.w3.org/2000/svg" xmlns:svg="http://www.w3.org/2000/svg" id="svg7384" width="16" height="16" version="1.1"><metadata id="metadata90"/><title id="title9167">Gnome Symbolic Icon Theme</title><defs id="defs7386"><filter id="filter12578-8" color-interpolation-filters="sRGB"><feGaussianBlur id="feGaussianBlur12580-4" stdDeviation=".015"/></filter><filter id="filter12586-1" color-interpolation-filters="sRGB"><feGaussianBlur id="feGaussianBlur12588-8" stdDeviation=".02"/></filter></defs><g id="layer10" transform="translate(-95.0625,40.03125)"><path id="path28949" d="m 95.59375,-40.03125 c -0.28913,0 -0.53125,0.24212 -0.53125,0.53125 l 0,14.9375 c 0,0.2985 0.23264,0.53125 0.53125,0.53125 l 14.9375,0 c 0.2986,0 0.53125,-0.23265 0.53125,-0.53125 l 0,-9.9375 c 0,-0.2891 -0.24212,-0.53125 -0.53125,-0.53125 l -12.46875,0 0,8.5 c 0,0.277 -0.223,0.5 -0.5,0.5 -0.277,0 -0.5,-0.223 -0.5,-0.5 l 0,-9 c 0,-0.277 0.223,-0.5 0.5,-0.5 l 2.96875,0 8.53125,0 0,-1.40625 c 0,-0.3272 -0.26666,-0.59375 -0.59375,-0.59375 l -7.40625,0 0,-1.46875 c 0,-0.28915 -0.24212,-0.53125 -0.53125,-0.53125 z m 3.46875,7 11,0 0,6 -11,0 z" style="fill:#bebebe;fill-opacity:1;stroke:none;display:inline"/><rect id="rect28998" width="1" height="1" x="106" y="-29" style="fill:#bebebe;fill-opacity:1;stroke:none"/><rect id="rect29000" width="1" height="1" x="104" y="-31" style="fill:#bebebe;fill-opacity:1;stroke:none"/><rect id="rect29002" width="1" height="1" x="107" y="-30" style="fill:#bebebe;fill-opacity:1;stroke:none"/><rect id="rect29004" width="1" height="1" x="105" y="-30" style="fill:#bebebe;fill-opacity:1;stroke:none"/><rect id="rect29006" width="1" height="1" x="106" y="-32" style="fill:#bebebe;fill-opacity:1;stroke:none"/><rect id="rect29008" width="1" height="1" x="108" y="-31" style="fill:#bebebe;fill-opacity:1;stroke:none"/><rect id="rect29010" width="1" height="1" x="103" y="-32" style="fill:#bebebe;fill-opacity:1;stroke:none"/><rect id="rect29012" width="1" height="1" x="100" y="-32" style="fill:#bebebe;fill-opacity:1;stroke:none"/><rect id="rect29014" width="1" height="1" x="100" y="-29" style="fill:#bebebe;fill-opacity:1;stroke:none"/><rect id="rect29016" width="1" height="1" x="102" y="-31" style="fill:#bebebe;fill-opacity:1;stroke:none"/><rect id="rect29018" width="1" height="1" x="101" y="-30" style="fill:#bebebe;fill-opacity:1;stroke:none"/><rect id="rect29020" width="1" height="1" x="109" y="-32" style="fill:#bebebe;fill-opacity:1;stroke:none"/></g></svg>