<svg xmlns="http://www.w3.org/2000/svg" xmlns:svg="http://www.w3.org/2000/svg" id="svg7384" width="16" height="16" version="1.1"><metadata id="metadata90"/><title id="title9167">Gnome Symbolic Icon Theme</title><defs id="defs7386"><filter id="filter12578-8" color-interpolation-filters="sRGB"><feGaussianBlur id="feGaussianBlur12580-4" stdDeviation=".015"/></filter><filter id="filter12586-1" color-interpolation-filters="sRGB"><feGaussianBlur id="feGaussianBlur12588-8" stdDeviation=".02"/></filter></defs><g id="layer10" transform="translate(-75,0)"><g id="g13767" transform="translate(-146.0002,-543)"><path id="path13662" d="m -8.96875,336.03125 -1,0.96875 1.96875,0 0,4 -2,0 0,-3.96875 -0.03125,0.0313 -0.96875,1 0,2.9375 -2,0 0,-0.96875 -1.25,1.21875 c -0.67324,0.66066 -2.12527,0.25063 -3.25,-0.90625 -0.186021,-0.19134 -0.327162,-0.39208 -0.46875,-0.59375 0.196996,1.28601 0.873033,2.25 1.6875,2.25 l 3.53125,0 2.5625,-0.0313 5.625,0.0313 c 0.29085,9.5e-4 0.53125,-0.40877 0.53125,-0.90625 l 0,-4.1875 c 0,-0.49747 -0.2404,-0.875 -0.53125,-0.875 l -4.40625,0 z M -7,337 l 2,0 0,4 -2,0 0,-4 z" transform="translate(241.0002,217)" style="color:#000;fill:#bfbfbf;fill-opacity:.29803922;stroke:none;stroke-width:.30681819;marker:none;visibility:visible;display:inline;overflow:visible;enable-background:accumulate"/><path id="path13641" d="m 222.90645,544.03125 c -0.49747,0 -0.875,0.2404 -0.875,0.53125 l 0,11.71875 c 0,0.9695 1.31047,1.75 2.96875,1.75 1.65823,0 3,-0.7805 3,-1.75 l 0,-3.53125 -0.0312,-2.5625 0.0312,-5.625 c 9.5e-4,-0.29085 -0.40877,-0.53125 -0.90625,-0.53125 l -4.1875,0 z m 0.0937,0.96875 4,0 0,2 -4,0 0,-2 z m 0,3 4,0 0,2 -4,0 0,-2 z m 0,3 4,0 0,2 -4,0 0,-2 z m 2,4 c 0.55229,0 1,0.44771 1,1 0,0.55229 -0.44771,1 -1,1 -0.55229,0 -1,-0.44771 -1,-1 0,-0.55229 0.44771,-1 1,-1 z" style="color:#000;fill:#bebebe;fill-opacity:1;stroke:none;stroke-width:.30681819;marker:none;visibility:visible;display:inline;overflow:visible;enable-background:accumulate"/><path id="path13710" d="m -9.96875,329 c -0.073333,0.0131 -0.137007,0.0442 -0.1875,0.0937 l -2.875,2.8125 0,1.28125 0,0.0313 1.15625,-1.09375 2.71875,2.78125 -1.40625,1.375 -2.46875,-2.5625 0.03125,1.4375 1.75,1.8125 -1.375,1.34375 -0.375,-0.375 0,1.34375 c 0,0.9695 -1.34177,1.75 -3,1.75 -0.265175,0 -0.506549,-0.025 -0.75,-0.0625 0.95467,0.64707 1.97062,0.80074 2.5,0.28125 l 2.46875,-2.40625 1.75,-1.78125 3.9375,-3.8125 c 0.20262,-0.19753 0.08739,-0.62168 -0.25,-0.96875 l -2.84375,-2.9375 C -9.4405725,329.0835 -9.7487525,328.96066 -9.96875,329 z m 0.1875,1.0625 2.6875,2.8125 -1.375,1.34375 -2.71875,-2.78125 1.40625,-1.375 z" transform="translate(241.0002,217)" style="color:#000;fill:#bebebe;fill-opacity:1;stroke:none;stroke-width:.30681819;marker:none;visibility:visible;display:inline;overflow:visible;enable-background:accumulate"/></g></g></svg>