<svg xmlns="http://www.w3.org/2000/svg" xmlns:svg="http://www.w3.org/2000/svg" id="svg7384" width="16" height="16" version="1.1"><metadata id="metadata90"/><title id="title9167">Gnome Symbolic Icon Theme</title><defs id="defs7386"><filter id="filter12578-8" color-interpolation-filters="sRGB"><feGaussianBlur id="feGaussianBlur12580-4" stdDeviation=".015"/></filter><filter id="filter12586-1" color-interpolation-filters="sRGB"><feGaussianBlur id="feGaussianBlur12588-8" stdDeviation=".02"/></filter></defs><g id="layer10" transform="translate(-135,0)"><path id="rect28732-9" d="m 143,4 0,1 7,0 0,1 -7,0 0,7 -5,0 0,3 13,0 0,-12 -8,0 z" style="fill:#bebebe;fill-opacity:1;stroke:none"/><path id="rect15227" d="m 135,0 0,12 7,0 0,-12 -7,0 z m 1,1 5,0 0,1 -5,0 0,-1 z m 0.5625,2 0.875,0 C 137.74912,3 138,3.250875 138,3.5625 l 0,0.875 C 138,4.749125 137.74912,5 137.4375,5 l -0.875,0 C 136.25088,5 136,4.749125 136,4.4375 l 0,-0.875 C 136,3.250875 136.25088,3 136.5625,3 z m 3,0 0.875,0 C 140.74912,3 141,3.250875 141,3.5625 l 0,0.875 C 141,4.749125 140.74912,5 140.4375,5 l -0.875,0 C 139.25088,5 139,4.749125 139,4.4375 l 0,-0.875 C 139,3.250875 139.25088,3 139.5625,3 z m -3,3 0.875,0 C 137.74912,6 138,6.250875 138,6.5625 l 0,0.875 C 138,7.749125 137.74912,8 137.4375,8 l -0.875,0 C 136.25088,8 136,7.749125 136,7.4375 l 0,-0.875 C 136,6.250875 136.25088,6 136.5625,6 z m 3,0 0.875,0 C 140.74912,6 141,6.250875 141,6.5625 l 0,0.875 C 141,7.749125 140.74912,8 140.4375,8 l -0.875,0 C 139.25088,8 139,7.749125 139,7.4375 l 0,-0.875 C 139,6.250875 139.25088,6 139.5625,6 z m -3,3 0.875,0 C 137.74912,9 138,9.250875 138,9.5625 l 0,0.875 C 138,10.749125 137.74912,11 137.4375,11 l -0.875,0 C 136.25088,11 136,10.749125 136,10.4375 l 0,-0.875 C 136,9.250875 136.25088,9 136.5625,9 z m 3,0 0.875,0 C 140.74912,9 141,9.250875 141,9.5625 l 0,0.875 C 141,10.749125 140.74912,11 140.4375,11 l -0.875,0 C 139.25088,11 139,10.749125 139,10.4375 l 0,-0.875 C 139,9.250875 139.25088,9 139.5625,9 z" style="fill:#bebebe;fill-opacity:1;stroke:none"/></g></svg>