<svg xmlns="http://www.w3.org/2000/svg" xmlns:svg="http://www.w3.org/2000/svg" id="svg7384" width="16" height="16" version="1.1"><metadata id="metadata90"/><title id="title9167">Gnome Symbolic Icon Theme</title><defs id="defs7386"><filter id="filter12578-8" color-interpolation-filters="sRGB"><feGaussianBlur id="feGaussianBlur12580-4" stdDeviation=".015"/></filter><filter id="filter12586-1" color-interpolation-filters="sRGB"><feGaussianBlur id="feGaussianBlur12588-8" stdDeviation=".02"/></filter></defs><g id="layer10" transform="translate(-15,40)"><path id="rect3845" d="M 15.53125,-40 C 15.24212,-40 15,-39.75788 15,-39.46875 l 0,14.93755 C 15,-24.2327 15.23264,-24 15.53125,-24 l 14.9375,0 C 30.76735,-24 31,-24.2326 31,-24.5312 l 0,-9.9376 C 31,-34.7579 30.75788,-35 30.46875,-35 L 18,-35 l 0,8.5 c 0,0.277 -0.223,0.5 -0.5,0.5 -0.277,0 -0.5,-0.223 -0.5,-0.5 l 0,-9 c 0,-0.277 0.223,-0.5 0.5,-0.5 l 2.96875,0 8.53125,0 0,-1.4062 C 29,-37.7334 28.73334,-38 28.40625,-38 L 21,-38 21,-39.46875 C 21,-39.7579 20.75788,-40 20.46875,-40 z" style="fill:#bebebe;fill-opacity:1;stroke:none;display:inline"/></g></svg>