<svg xmlns="http://www.w3.org/2000/svg" xmlns:svg="http://www.w3.org/2000/svg" id="svg7384" width="16" height="16" version="1.1"><metadata id="metadata90"/><title id="title9167">Gnome Symbolic Icon Theme</title><defs id="defs7386"><filter id="filter12578-8" color-interpolation-filters="sRGB"><feGaussianBlur id="feGaussianBlur12580-4" stdDeviation=".015"/></filter><filter id="filter12586-1" color-interpolation-filters="sRGB"><feGaussianBlur id="feGaussianBlur12588-8" stdDeviation=".02"/></filter></defs><g id="layer10" transform="translate(-115,20)"><path id="rect22435" d="m 121,-16 c -1.108,0 -2,0.892 -2,2 l 0,5 c 0,1.108 0.892,2 2,2 l 5,0 c 1.108,0 2,-0.892 2,-2 l 0,-5 c 0,-1.108 -0.892,-2 -2,-2 z" style="fill:#bebebe;fill-opacity:1;stroke:none"/><rect id="rect22439" width="1" height="2" x="-121" y="17" rx="2" ry="0" transform="scale(-1,-1)" style="fill:#bebebe;fill-opacity:1;stroke:none"/><rect id="rect22441" width="1" height="2" x="-123" y="17" rx="2" ry="0" transform="scale(-1,-1)" style="fill:#bebebe;fill-opacity:1;stroke:none"/><rect id="rect22443" width="1" height="2" x="-125" y="17" rx="2" ry="0" transform="scale(-1,-1)" style="fill:#bebebe;fill-opacity:1;stroke:none"/><rect id="rect22445" width="1" height="2" x="-127" y="17" rx="2" ry="0" transform="scale(-1,-1)" style="fill:#bebebe;fill-opacity:1;stroke:none"/><rect id="rect22461" width="1" height="2" x="-121" y="4" rx="2" ry="0" transform="scale(-1,-1)" style="fill:#bebebe;fill-opacity:1;stroke:none"/><rect id="rect22463" width="1" height="2" x="-123" y="4" rx="2" ry="0" transform="scale(-1,-1)" style="fill:#bebebe;fill-opacity:1;stroke:none"/><rect id="rect22465" width="1" height="2" x="-125" y="4" rx="2" ry="0" transform="scale(-1,-1)" style="fill:#bebebe;fill-opacity:1;stroke:none"/><rect id="rect22467" width="1" height="2" x="-127" y="4" rx="2" ry="0" transform="scale(-1,-1)" style="fill:#bebebe;fill-opacity:1;stroke:none"/><rect id="rect22469" width="2" height="1" x="116" y="-15" rx="2" ry="0" style="fill:#bebebe;fill-opacity:1;stroke:none"/><rect id="rect22471" width="2" height="1" x="116" y="-13" rx="2" ry="0" style="fill:#bebebe;fill-opacity:1;stroke:none"/><rect id="rect22473" width="2" height="1" x="116" y="-11" rx="2" ry="0" style="fill:#bebebe;fill-opacity:1;stroke:none"/><rect id="rect22475" width="2" height="1" x="116" y="-9" rx="2" ry="0" style="fill:#bebebe;fill-opacity:1;stroke:none"/><rect id="rect22477" width="2" height="1" x="129" y="-15" rx="2" ry="0" style="fill:#bebebe;fill-opacity:1;stroke:none"/><rect id="rect22479" width="2" height="1" x="129" y="-13" rx="2" ry="0" style="fill:#bebebe;fill-opacity:1;stroke:none"/><rect id="rect22481" width="2" height="1" x="129" y="-11" rx="2" ry="0" style="fill:#bebebe;fill-opacity:1;stroke:none"/><rect id="rect22483" width="2" height="1" x="129" y="-9" rx="2" ry="0" style="fill:#bebebe;fill-opacity:1;stroke:none"/></g></svg>