<svg xmlns="http://www.w3.org/2000/svg" xmlns:svg="http://www.w3.org/2000/svg" id="svg7384" width="16" height="16" version="1.1"><metadata id="metadata90"/><title id="title9167">Gnome Symbolic Icon Theme</title><defs id="defs7386"><filter id="filter12578-8" color-interpolation-filters="sRGB"><feGaussianBlur id="feGaussianBlur12580-4" stdDeviation=".015"/></filter><filter id="filter12586-1" color-interpolation-filters="sRGB"><feGaussianBlur id="feGaussianBlur12588-8" stdDeviation=".02"/></filter></defs><g id="layer10" transform="translate(-54.999966,0)"><g id="g13905" transform="translate(-186.0002,-543)" style="display:inline"><g id="g13899"><rect id="rect13775" width="16" height="16" x="241" y="543" ry="0" style="opacity:0;color:#bebebe;fill:#000;stroke:none;stroke-width:1.78100002;marker:none;visibility:visible;display:inline;overflow:visible;enable-background:new"/><path id="path13779" d="m 252.52662,544 c 0,0 -1.32308,2.78343 -2.45085,5 l -0.47633,1 0,1 -0.59924,1 1,0 0.76701,-1 0.79899,-0.42188 0.12292,-0.57812 2.85795,-6 z" style="font-size:medium;font-style:normal;font-variant:normal;font-weight:400;font-stretch:normal;text-indent:0;text-align:start;text-decoration:none;line-height:normal;letter-spacing:normal;word-spacing:normal;text-transform:none;direction:ltr;block-progression:tb;writing-mode:lr-tb;text-anchor:start;baseline-shift:baseline;color:#000;fill:#bebebe;fill-opacity:1;stroke:none;stroke-width:2;marker:none;visibility:visible;display:inline;overflow:visible;enable-background:new;font-family:Sans;-inkscape-font-specification:Sans"/><path id="rect7357-4" d="m 242.22671,551.02655 c -0.66548,-9.9e-4 -1.20392,0.55433 -1.20715,1.2506 0.013,0.53918 0.0125,1.16093 0.007,1.71296 l 1.98956,0 -4e-5,-2.95789 -0.79042,-0.005 z m 1.78413,0.006 0,2.95789 1.98956,-2.5e-4 c 0.0102,-0.55419 0.0417,-1.15277 0.0464,-1.68577 9.9e-4,-0.69624 -0.52983,-1.25951 -1.19536,-1.26294 l -0.84056,-0.009 z m -2.98435,3.9436 c -0.009,0.6024 -0.0261,0.82689 -0.0263,1.3814 -0.006,1.45673 1.10867,2.63526 2.50111,2.64244 1.39242,0.007 2.51892,-1.15985 2.52578,-2.61662 -0.0253,-0.60595 -0.0329,-0.83265 -0.0267,-1.40722 z" style="fill:#bebebe;fill-opacity:1;stroke:none"/><path id="path13869" d="m 3,329 -1,4 1.40625,0 c 0.1360873,6.7e-4 -0.015815,0 1.0625,0 L 5,331 l 3,0 1,-2 z m 11,0 -1.75,3.5625 L 13,337 l -7,0 0,2 10,0 z" transform="translate(241.0002,217)" style="fill:#bebebe;fill-opacity:1;stroke:none"/></g></g></g></svg>