<svg xmlns="http://www.w3.org/2000/svg" xmlns:svg="http://www.w3.org/2000/svg" id="svg7384" width="16" height="16" version="1.1"><metadata id="metadata90"/><title id="title9167">Gnome Symbolic Icon Theme</title><defs id="defs7386"><filter id="filter12578-8" color-interpolation-filters="sRGB"><feGaussianBlur id="feGaussianBlur12580-4" stdDeviation=".015"/></filter><filter id="filter12586-1" color-interpolation-filters="sRGB"><feGaussianBlur id="feGaussianBlur12588-8" stdDeviation=".02"/></filter></defs><g id="layer10" transform="translate(-35,-20)"><g id="g15674" transform="translate(20,0)"><g id="g15676" transform="translate(0,60)"><path id="path15678" d="M 35.53125,20 C 35.24212,20 35,20.24212 35,20.53125 l 0,14.9375 C 35,35.76725 35.23264,36 35.53125,36 l 14.9375,0 C 50.76735,36 51,35.76735 51,35.46875 l 0,-9.9375 C 51,25.24215 50.75788,25 50.46875,25 L 38,25 38,33.5 C 38,33.777 37.777,34 37.5,34 37.223,34 37,33.777 37,33.5 l 0,-9 C 37,24.223 37.223,24 37.5,24 L 40.46875,24 49,24 49,22.59375 C 49,22.26655 48.73334,22 48.40625,22 L 41,22 41,20.53125 C 41,20.2421 40.75788,20 40.46875,20 z m 6.53125,6 1.5,1.21875 c 0.627744,-0.184403 1.247257,-0.184403 1.875,0 L 46.9375,26 49,28.09375 47.78125,29.5625 c 0.182958,0.632699 0.182958,1.304801 0,1.9375 L 49,32.96875 l -2.0625,2.09375 -1.5,-1.21875 c -0.627744,0.184403 -1.247257,0.184402 -1.875,0 l -1.5,1.21875 L 40,32.96875 41.21875,31.5 c -0.182958,-0.632699 -0.182958,-1.304801 0,-1.9375 L 40,28.09375 z" transform="translate(-20,-60)" style="fill:#bebebe;fill-opacity:1;stroke:none;display:inline"/></g></g><path id="path15832" d="m 46,30.734375 a 1.5,1.265625 0 1 1 -3,0 1.5,1.265625 0 1 1 3,0 z" transform="matrix(1,0,0,1.1851852,0,-5.9259264)" style="fill:#bebebe;fill-opacity:1;stroke:none"/></g></svg>