<svg xmlns="http://www.w3.org/2000/svg" xmlns:svg="http://www.w3.org/2000/svg" id="svg7384" width="16" height="16" version="1.1"><metadata id="metadata90"/><title id="title9167">Gnome Symbolic Icon Theme</title><defs id="defs7386"><filter id="filter12578-8" color-interpolation-filters="sRGB"><feGaussianBlur id="feGaussianBlur12580-4" stdDeviation=".015"/></filter><filter id="filter12586-1" color-interpolation-filters="sRGB"><feGaussianBlur id="feGaussianBlur12588-8" stdDeviation=".02"/></filter></defs><g id="layer10" transform="translate(5,40)"><path id="rect28283-2" d="M -3.8125,-38 C -4.46695,-38 -5,-37.47791 -5,-36.8125 l 0,7.625 C -5,-28.52209 -4.46695,-28 -3.8125,-28 l 7.5625,0 5.9375,0 c 0.633474,0 1.279835,-0.365187 1.3125,-1 l 0,0 -0.0625,-4 0.0625,-4 0,0 c -0.03266,-0.634813 -0.679026,-1 -1.3125,-1 L 3.75,-38 z m 1,1 5.8125,0 5.65625,0 C 9.3107,-37 10,-36.66541 10,-36 l 0,6 c 0,0.66541 -0.6893,1 -1.34375,1 L 3,-29 -2.8125,-29 C -3.46695,-29 -4,-29.52209 -4,-30.1875 l 0,-5.625 C -4,-36.47791 -3.46695,-37 -2.8125,-37 z" style="fill:#bebebe;fill-opacity:1;stroke:none"/><rect id="rect28290-7" width="10" height="2" x="-2" y="-27" rx="1.196" ry="1.196" style="fill:#bebebe;fill-opacity:1;stroke:none"/><rect id="rect67589" width="2" height="6" x="-2" y="-36" rx="1.196" ry="0" style="opacity:.3;fill:#bebebe;fill-opacity:1;stroke:none"/><rect id="rect67591" width="2" height="6" x="2" y="-36" rx="1.196" ry="0" style="opacity:.3;fill:#bebebe;fill-opacity:1;stroke:none"/><rect id="rect67593" width="2" height="6" x="6" y="-36" rx="1.196" ry="0" style="opacity:.3;fill:#bebebe;fill-opacity:1;stroke:none"/></g></svg>