<svg xmlns="http://www.w3.org/2000/svg" xmlns:svg="http://www.w3.org/2000/svg" id="svg7384" width="16" height="16" version="1.1"><metadata id="metadata90"/><title id="title9167">Gnome Symbolic Icon Theme</title><defs id="defs7386"><filter id="filter12578-8" color-interpolation-filters="sRGB"><feGaussianBlur id="feGaussianBlur12580-4" stdDeviation=".015"/></filter><filter id="filter12586-1" color-interpolation-filters="sRGB"><feGaussianBlur id="feGaussianBlur12588-8" stdDeviation=".02"/></filter></defs><g id="layer10" transform="translate(-15,-20)"><g id="g15572" transform="translate(0,60)"><path id="path15574" d="M 15.53125,20 C 15.24212,20 15,20.24212 15,20.53125 l 0,14.9375 C 15,35.76725 15.23264,36 15.53125,36 l 14.9375,0 C 30.76735,36 31,35.76735 31,35.46875 l 0,-9.9375 C 31,25.24215 30.75788,25 30.46875,25 L 18,25 18,33.5 C 18,33.777 17.777,34 17.5,34 17.223,34 17,33.777 17,33.5 l 0,-9 C 17,24.223 17.223,24 17.5,24 L 20.46875,24 29,24 29,22.59375 C 29,22.26655 28.73334,22 28.40625,22 L 21,22 21,20.53125 C 21,20.2421 20.75788,20 20.46875,20 z M 22,28 c 1.40625,0 1,-1 1,-1 0,0 5.609862,-0.855056 6,4 0,0 -1.254644,-1 -2,-1 -2,0 -2,1 -2,1 l 0,4 -2,0 0,-4 c 0,0 0,-1 -1,-1 -1.548232,0 -2,1 -2,1 l 0,-4 c 0,0 0.47504,1 2,1 z" transform="translate(0,-60)" style="fill:#bebebe;fill-opacity:1;stroke:none;display:inline"/></g></g></svg>