<svg xmlns="http://www.w3.org/2000/svg" xmlns:svg="http://www.w3.org/2000/svg" id="svg7384" width="16" height="16" version="1.1"><metadata id="metadata90"/><title id="title9167">Gnome Symbolic Icon Theme</title><defs id="defs7386"><filter id="filter12578-8" color-interpolation-filters="sRGB"><feGaussianBlur id="feGaussianBlur12580-4" stdDeviation=".015"/></filter><filter id="filter12586-1" color-interpolation-filters="sRGB"><feGaussianBlur id="feGaussianBlur12588-8" stdDeviation=".02"/></filter></defs><g id="layer10" transform="translate(-35.04513,19.93072)"><g id="g14498"><path id="path8587" d="m 43.059524,-18.992857 c -2.202823,0 -3.992858,1.790033 -3.992858,3.992857 0,2.202825 1.790035,3.992858 3.992858,3.992858 2.202822,0 3.992857,-1.790033 3.992857,-3.992858 0,-2.202824 -1.790035,-3.992857 -3.992857,-3.992857 z m 0,1.052381 C 44.685876,-17.940476 46,-16.626352 46,-15 c 0,1.626353 -1.314124,2.940477 -2.940476,2.940477 -1.626353,0 -2.940477,-1.314124 -2.940477,-2.940477 0,-1.626352 1.314124,-2.940476 2.940477,-2.940476 z" style="font-size:medium;font-style:normal;font-variant:normal;font-weight:400;font-stretch:normal;text-indent:0;text-align:start;text-decoration:none;line-height:normal;letter-spacing:normal;word-spacing:normal;text-transform:none;direction:ltr;block-progression:tb;writing-mode:lr-tb;text-anchor:start;baseline-shift:baseline;color:#000;fill:#bebebe;fill-opacity:1;stroke:none;stroke-width:2.15384626;marker:none;visibility:visible;display:inline;overflow:visible;enable-background:new;font-family:Sans;-inkscape-font-specification:Sans"/><path id="path8591" d="m 39.045327,-11.923578 c -2.202823,0 -3.992858,1.790033 -3.992858,3.9928574 0,2.2028242 1.790035,3.9928576 3.992858,3.9928576 2.202822,0 3.992857,-1.7900334 3.992857,-3.9928576 0,-2.2028244 -1.790035,-3.9928574 -3.992857,-3.9928574 z m 0,1.052381 c 1.626352,0 2.940476,1.3141241 2.940476,2.9404764 0,1.6263522 -1.314124,2.9404765 -2.940476,2.9404765 -1.626353,0 -2.940477,-1.3141243 -2.940477,-2.9404765 0,-1.6263523 1.314124,-2.9404764 2.940477,-2.9404764 z" style="font-size:medium;font-style:normal;font-variant:normal;font-weight:400;font-stretch:normal;text-indent:0;text-align:start;text-decoration:none;line-height:normal;letter-spacing:normal;word-spacing:normal;text-transform:none;direction:ltr;block-progression:tb;writing-mode:lr-tb;text-anchor:start;baseline-shift:baseline;color:#000;fill:#bebebe;fill-opacity:1;fill-rule:nonzero;stroke:none;stroke-width:2.15384626;marker:none;visibility:visible;display:inline;overflow:visible;enable-background:new;font-family:Sans;-inkscape-font-specification:Sans"/><path id="path8593" d="m 47.044477,-11.923578 c -2.202823,0 -3.992858,1.790033 -3.992858,3.9928574 0,2.2028242 1.790035,3.9928576 3.992858,3.9928576 2.202822,0 3.992857,-1.7900334 3.992857,-3.9928576 0,-2.2028244 -1.790035,-3.9928574 -3.992857,-3.9928574 z m 0,1.052381 c 1.626352,0 2.940476,1.3141241 2.940476,2.9404764 0,1.6263522 -1.314124,2.9404765 -2.940476,2.9404765 -1.626353,0 -2.940477,-1.3141243 -2.940477,-2.9404765 0,-1.6263523 1.314124,-2.9404764 2.940477,-2.9404764 z" style="font-size:medium;font-style:normal;font-variant:normal;font-weight:400;font-stretch:normal;text-indent:0;text-align:start;text-decoration:none;line-height:normal;letter-spacing:normal;word-spacing:normal;text-transform:none;direction:ltr;block-progression:tb;writing-mode:lr-tb;text-anchor:start;baseline-shift:baseline;color:#000;fill:#bebebe;fill-opacity:1;fill-rule:nonzero;stroke:none;stroke-width:2.15384626;marker:none;visibility:visible;display:inline;overflow:visible;enable-background:new;font-family:Sans;-inkscape-font-specification:Sans"/><path id="path14494" d="m 41.454134,-7.5554948 a 2.2980971,2.4748738 0 1 1 -4.596195,0 2.2980971,2.4748738 0 1 1 4.596195,0 z" transform="matrix(0.87028524,0,0,0.80812198,4.9230797,-1.8942386)" style="opacity:.3;fill:#bebebe;fill-opacity:1;stroke:none"/><path id="path14496" d="m 49.54167,-7.5 a 2.7708344,2.5 0 1 1 -5.541669,0 2.7708344,2.5 0 1 1 5.541669,0 z" transform="matrix(0.72180426,0,0,0.8,13.240611,-2)" style="fill:#bebebe;fill-opacity:1;stroke:none"/></g></g></svg>