<svg xmlns="http://www.w3.org/2000/svg" xmlns:svg="http://www.w3.org/2000/svg" id="svg7384" width="16" height="16" version="1.1"><metadata id="metadata90"/><title id="title9167">Gnome Symbolic Icon Theme</title><defs id="defs7386"><filter id="filter12578-8" color-interpolation-filters="sRGB"><feGaussianBlur id="feGaussianBlur12580-4" stdDeviation=".015"/></filter><filter id="filter12586-1" color-interpolation-filters="sRGB"><feGaussianBlur id="feGaussianBlur12588-8" stdDeviation=".02"/></filter></defs><g id="layer10" transform="translate(5,0)"><path id="path22763" d="M -0.03125,0.59375 C -2.0210789,1.406758 -3.5669784,3.0094542 -4.375,5 l 2.90625,0.78125 c 0.48983518,-0.9531908 1.28860519,-1.7349381 2.25,-2.21875 l -0.8125,-2.96875 z m 6.0625,0 -0.8125,2.96875 c 0.9613948,0.4838119 1.7601648,1.2655592 2.25,2.21875 L 10.375,5 C 9.5669784,3.0094542 8.0210789,1.406758 6.03125,0.59375 z m -7.5,9.625 L -4.375,11 c 0.8080216,1.990546 2.3539211,3.593242 4.34375,4.40625 l 0.8125,-2.96875 c -0.96139481,-0.483812 -1.76016482,-1.265559 -2.25,-2.21875 z m 8.90625,0 c -0.4838119,0.961395 -1.2655592,1.760165 -2.21875,2.25 L 6,15.375 c 1.9905458,-0.808022 3.593242,-2.353921 4.40625,-4.34375 L 7.4375,10.21875 z" style="fill:#bebebe;fill-opacity:1;stroke:none"/><path id="path22768" d="m 3,0 c -4.418278,0 -8,3.5817219 -8,8 0,4.418278 3.581722,8 8,8 4.418278,0 8,-3.581722 8,-8 C 11,3.5817219 7.418278,0 3,0 z M 3,3 C 5.761424,3 8,5.2385763 8,8 8,10.761424 5.761424,13 3,13 0.238576,13 -2,10.761424 -2,8 -2,5.2385763 0.238576,3 3,3 z" style="opacity:.3;fill:#bebebe;fill-opacity:1;stroke:none"/></g></svg>