<svg xmlns="http://www.w3.org/2000/svg" xmlns:svg="http://www.w3.org/2000/svg" id="svg7384" width="16" height="16" version="1.1"><metadata id="metadata90"/><title id="title9167">Gnome Symbolic Icon Theme</title><defs id="defs7386"><filter id="filter12578-8" color-interpolation-filters="sRGB"><feGaussianBlur id="feGaussianBlur12580-4" stdDeviation=".015"/></filter><filter id="filter12586-1" color-interpolation-filters="sRGB"><feGaussianBlur id="feGaussianBlur12588-8" stdDeviation=".02"/></filter></defs><g id="layer10" transform="translate(-35,0)"><path id="path14776" d="M 47.375,3.96875 47,5 l 0,6 c 0.69331,0.67628 2.26338,0.74529 3,0 L 50,5 49.625,3.96875 C 49.349925,4.2879305 48.954417,4.5 48.5,4.5 48.045583,4.5 47.650075,4.2879305 47.375,3.96875 z M 47,12 l 0,2 c 0.69333,0.67626 2.26339,0.74529 3,0 l 0,-2 -0.125,0.15625 C 49.12083,12.83745 47.67173,12.65522 47,12 z" style="fill:#bebebe;fill-opacity:1;fill-rule:evenodd;stroke:none;display:inline"/><path id="path14862" d="m 48.5625,1 c 0,0 0,0 0.84375,2 -0.35159,0.56097 -1.38368,0.53637 -1.75,0 C 48.5625,1 48.5625,1 48.5625,1 z" style="fill:#bebebe;fill-opacity:1;stroke:none;display:inline"/><path id="path35543-6-4-8" d="M 43,1 C 42.77935,1 42.55919,1.01135 42.34375,1.03125 L 41.9375,3.125 C 41.60304,3.1983 41.27445,3.30089 40.96875,3.4375 L 39.4375,1.96875 C 39.04887,2.19886 38.71055,2.48283 38.375,2.78125 L 39.28125,4.6875 C 39.05883,4.93649 38.857,5.21 38.6875,5.5 L 36.59375,5.21875 C 36.41603,5.62752 36.28503,6.05512 36.1875,6.5 l 1.84375,1 C 38.01415,7.66809 38,7.8274 38,8 c 0,0.1726 0.01425,0.33191 0.03125,0.5 l -1.84375,1 c 0.0975,0.44488 0.22853,0.87248 0.40625,1.28125 L 38.6875,10.5 c 0.1695,0.29 0.37133,0.56351 0.59375,0.8125 L 38.375,13.21875 c 0.33555,0.29842 0.67387,0.58239 1.0625,0.8125 l 1.53125,-1.46875 c 0.3057,0.13661 0.63429,0.23916 0.96875,0.3125 l 0.40625,2.09375 C 42.55919,14.98875 42.77935,15 43,15 c 0.22065,0 0.44081,-0.01135 0.65625,-0.03125 L 44.0625,12.875 c 0.33446,-0.0733 0.66305,-0.17589 0.96875,-0.3125 L 46,13.5 46,8 c 0,1.65685 -1.34315,3 -3,3 -1.65685,0 -3,-1.34315 -3,-3 0,-1.65685 1.34315,-3 3,-3 1.65685,0 3,1.34315 3,3 L 46,2.5 45.03125,3.4375 C 44.72555,3.30089 44.39696,3.19834 44.0625,3.125 L 43.65625,1.03125 C 43.44081,1.01125 43.22065,1 43,1 z" style="color:#000;fill:#bebebe;fill-opacity:1;fill-rule:nonzero;stroke:none;marker:none;visibility:visible;display:inline;overflow:visible;enable-background:accumulate"/></g></svg>