<svg xmlns="http://www.w3.org/2000/svg" xmlns:svg="http://www.w3.org/2000/svg" id="svg7384" width="16" height="16" version="1.1"><metadata id="metadata90"/><title id="title9167">Gnome Symbolic Icon Theme</title><defs id="defs7386"><filter id="filter12578-8" color-interpolation-filters="sRGB"><feGaussianBlur id="feGaussianBlur12580-4" stdDeviation=".015"/></filter><filter id="filter12586-1" color-interpolation-filters="sRGB"><feGaussianBlur id="feGaussianBlur12588-8" stdDeviation=".02"/></filter></defs><g id="layer10" transform="translate(-15,20)"><path id="path3908-63" d="m 26.619111,-19.881678 c 0.389664,-0.101474 0.790724,-0.110768 1.17065,-0.08086 l -1.359697,2.305898 c -0.279422,0.473856 -0.122751,1.070712 0.353774,1.34773 l 0.874307,0.508248 c 0.476518,0.276998 1.07741,0.120517 1.356831,-0.353339 l 1.359698,-2.305898 c 0.21223,0.314297 0.400344,0.666111 0.501942,1.053167 0.486289,1.852561 -0.631432,3.748078 -2.496498,4.233768 -0.389665,0.101475 -0.790726,0.110769 -1.170647,0.08088 l -0.802126,1.114608 -3.409723,-0.02252 c 0,0 1.518597,-2.57735 1.62694,-2.594723 -0.212228,-0.314298 -0.400341,-0.666111 -0.501941,-1.053168 -0.48629,-1.852561 0.631426,-3.748097 2.49649,-4.233787 z" style="font-size:medium;font-style:normal;font-variant:normal;font-weight:400;font-stretch:normal;text-indent:0;text-align:start;text-decoration:none;line-height:normal;letter-spacing:normal;word-spacing:normal;text-transform:none;direction:ltr;block-progression:tb;writing-mode:lr-tb;text-anchor:start;color:#000;fill:#bebebe;fill-opacity:1;fill-rule:nonzero;stroke:none;stroke-width:3;marker:none;visibility:visible;display:inline;overflow:visible;enable-background:accumulate;font-family:Sans;-inkscape-font-specification:Sans"/><path id="rect28823" d="m 15,-12 0,8 16,0 0,-8 z m 4,1 2,0 0,2 4,0 0,-2 2,0 0,2 3,0 0,1 -3,0 0,1.96875 -2,0 L 25,-8 l -4,0 0,1.96875 -2,0 L 19,-8 16,-8 16,-8.984375 19,-9 z" style="fill:#bebebe;fill-opacity:1;stroke:none"/></g></svg>