<svg xmlns="http://www.w3.org/2000/svg" xmlns:svg="http://www.w3.org/2000/svg" id="svg7384" width="16" height="16" version="1.1"><metadata id="metadata90"/><title id="title9167">Gnome Symbolic Icon Theme</title><defs id="defs7386"><filter id="filter12578-8" color-interpolation-filters="sRGB"><feGaussianBlur id="feGaussianBlur12580-4" stdDeviation=".015"/></filter><filter id="filter12586-1" color-interpolation-filters="sRGB"><feGaussianBlur id="feGaussianBlur12588-8" stdDeviation=".02"/></filter></defs><g id="layer10" transform="translate(-75,-20)"><g id="g7536" transform="translate(20,0)"><g id="g7539" transform="translate(40,60)"><path id="path7541" d="M 75.53125,20 C 75.24212,20 75,20.24212 75,20.53125 l 0,14.9375 C 75,35.76725 75.23264,36 75.53125,36 l 14.9375,0 C 90.76735,36 91,35.76735 91,35.46875 l 0,-9.9375 C 91,25.24215 90.75788,25 90.46875,25 L 78,25 78,33.5 C 78,33.777 77.777,34 77.5,34 77.223,34 77,33.777 77,33.5 l 0,-9 C 77,24.223 77.223,24 77.5,24 L 80.46875,24 89,24 89,22.59375 C 89,22.26655 88.73334,22 88.40625,22 L 81,22 81,20.53125 C 81,20.2421 80.75788,20 80.46875,20 l -4.9375,0 z M 83,26 l 1,0 0,2 -1,0 0,-2 z m 2,0 1,0 0,2 -1,0 0,-2 z m -5,3 2,0 0,1 -2,0 0,-1 z m 4,0 1,0 c 0.554,0 1,0.446 1,1 l 0,1 c 0,0.554 -0.446,1 -1,1 l -1,0 c -0.554,0 -1,-0.446 -1,-1 l 0,-1 c 0,-0.554 0.446,-1 1,-1 z m 3,0 2,0 0,1 -2,0 0,-1 z m -7,2 2,0 0,1 -2,0 0,-1 z m 7,0 2,0 0,1 -2,0 0,-1 z m -4,2 1,0 0,2 -1,0 0,-2 z m 2,0 1,0 0,2 -1,0 0,-2 z" transform="translate(-60,-60)" style="fill:#bebebe;fill-opacity:1;stroke:none;display:inline"/></g></g></g></svg>