<svg xmlns="http://www.w3.org/2000/svg" xmlns:svg="http://www.w3.org/2000/svg" id="svg7384" width="16" height="16" version="1.1"><metadata id="metadata90"/><title id="title9167">Gnome Symbolic Icon Theme</title><defs id="defs7386"><filter id="filter12578-8" color-interpolation-filters="sRGB"><feGaussianBlur id="feGaussianBlur12580-4" stdDeviation=".015"/></filter><filter id="filter12586-1" color-interpolation-filters="sRGB"><feGaussianBlur id="feGaussianBlur12588-8" stdDeviation=".02"/></filter></defs><g id="layer10" transform="translate(-115,-20)"><g id="g7649" transform="translate(100,60)"><path id="path7651" d="M 115.53125,20 C 115.24212,20 115,20.24212 115,20.53125 l 0,14.9375 C 115,35.76725 115.23264,36 115.53125,36 l 14.9375,0 C 130.76735,36 131,35.76735 131,35.46875 l 0,-9.9375 C 131,25.24215 130.75788,25 130.46875,25 L 118,25 l 0,8.5 c 0,0.277 -0.223,0.5 -0.5,0.5 -0.277,0 -0.5,-0.223 -0.5,-0.5 l 0,-9 c 0,-0.277 0.223,-0.5 0.5,-0.5 l 2.96875,0 8.53125,0 0,-1.40625 C 129,22.26655 128.73334,22 128.40625,22 L 121,22 121,20.53125 C 121,20.2421 120.75788,20 120.46875,20 l -4.9375,0 z M 121,26 c 1.10457,0 2,0.895431 2,2 0,1.104569 -0.89543,2 -2,2 -1.10457,0 -2,-0.895431 -2,-2 0,-1.104569 0.89543,-2 2,-2 z m 7,0 c 1.10457,0 2,0.895431 2,2 0,1.104569 -0.89543,2 -2,2 -1.10457,0 -2,-0.895431 -2,-2 0,-1.104569 0.89543,-2 2,-2 z m -3.53125,4 c 1.10457,0 2,0.895431 2,2 0,1.104569 -0.89543,2 -2,2 -1.10457,0 -2,-0.895431 -2,-2 0,-1.104569 0.89543,-2 2,-2 z" transform="translate(-100,-60)" style="fill:#bebebe;fill-opacity:1;stroke:none;display:inline"/></g><path id="path7664" d="m 122,28 a 1,1 0 1 1 -2,0 1,1 0 1 1 2,0 z" style="fill:#bebebe;fill-opacity:1;stroke:none"/><path id="path7666" d="m 129,28 a 1,1 0 1 1 -2,0 1,1 0 1 1 2,0 z" style="opacity:.3;fill:#bebebe;fill-opacity:1;stroke:none"/></g></svg>