<svg xmlns="http://www.w3.org/2000/svg" xmlns:svg="http://www.w3.org/2000/svg" id="svg7384" width="16" height="16" version="1.1"><metadata id="metadata90"/><title id="title9167">Gnome Symbolic Icon Theme</title><g id="layer1" transform="translate(-180,39.999998)"><g id="layer1-2" transform="translate(180.0125,-40)"><path id="rect6086-1" d="m 0.94203714,0.01250085 c -0.519375,0 -0.9375,0.418125 -0.9375,0.9375 l 0,13.08335815 0,0.872891 c 0,0.605937 0.487812,1.09375 1.09374996,1.09375 l 0.8125,0 c 0.605938,0 1.09375,-0.487813 1.09375,-1.09375 l 0,-0.90625 9.9829619,0 0,0.90625 c 0,0.605937 0.487812,1.09375 1.09375,1.09375 l 0.8125,0 c 0.605938,0 1.09375,-0.487813 1.09375,-1.09375 l 0,-13.95624915 c 0,-0.519375 -0.418125,-0.9375 -0.9375,-0.9375 z m 1.17834706,0.99766735 11.7954618,0 c 0.605938,0 1.09375,0.4878125 1.09375,1.09375 l 0,5.8023318 C 15.009596,8.5121875 14.521784,9 13.915846,9 L 2.1203842,9 c -0.605938,0 -1.09375,-0.4878125 -1.09375,-1.09375 l 0,-5.8023318 c 0,-0.6059375 0.487812,-1.09375 1.09375,-1.09375 z M 2.5063769,10 c 0.828427,0 1.5,0.671573 1.5,1.5 0,0.828427 -0.671573,1.5 -1.5,1.5 -0.828427,0 -1.5,-0.671573 -1.5,-1.5 0,-0.828427 0.671573,-1.5 1.5,-1.5 z m 11.0288381,0 c 0.828427,0 1.5,0.671573 1.5,1.5 0,0.828427 -0.671573,1.5 -1.5,1.5 -0.828427,0 -1.5,-0.671573 -1.5,-1.5 0,-0.828427 0.671573,-1.5 1.5,-1.5 z" style="color:#000;fill:#bebebe;fill-opacity:1;fill-rule:nonzero;stroke:none;stroke-width:1.93522692;marker:none;visibility:visible;display:inline;overflow:visible;enable-background:accumulate"/></g></g></svg>