<svg xmlns="http://www.w3.org/2000/svg" xmlns:svg="http://www.w3.org/2000/svg" id="svg7384" width="16" height="16" version="1.1"><metadata id="metadata90"/><title id="title9167">Gnome Symbolic Icon Theme</title><g id="layer1" transform="translate(-200,39.999998)"><g id="layer1-85" transform="matrix(0.99723786,0,0,0.99723786,200,-40.973717)"><path id="rect8273" d="M 3.03125,3.03125 C 2.46812,3.03125 2.09307,3.50712 2,4.0625 L 1.15625,8 1.03125,8 C 0.46812,8 0,8.46813 0,9.03125 l 0,3.9375 C 0,13.53187 0.46812,14 1.03125,14 L 2,14 2,15 c 0,0.554 0.446,1 1,1 0.554,0 1,-0.446 1,-1 l 0,-1 8,0 0,1 c 0,0.554 0.446,1 1,1 0.554,0 1,-0.446 1,-1 l 0,-1 0.96875,0 C 15.53187,14 16,13.53187 16,12.96875 l 0,-3.9375 C 16,8.46813 15.53187,8 14.96875,8 L 14.8125,8 13.9375,4.0625 C 13.8416,3.5076 13.46937,3.03125 12.90625,3.03125 z m 0.97476,1 7.94757,0 c 0.48425,0 0.79253,0.33383 0.875,0.75 l 0.46875,2.43019 c 0.0825,0.41617 -0.39075,0.75 -0.875,0.75 l -0.125,0 -8.63507,0 -0.15625,0 c -0.48426,0 -0.95504,-0.33347 -0.875,-0.75 l 0.5,-2.43019 c 0.08,-0.41653 0.39074,-0.75 0.875,-0.75 z M 3,10 c 0.55228,0 1,0.44771 1,1 0,0.55228 -0.44772,1 -1,1 -0.55229,0 -1,-0.44772 -1,-1 0,-0.55229 0.44771,-1 1,-1 z m 10,0 c 0.55228,0 1,0.44771 1,1 0,0.55228 -0.44772,1 -1,1 -0.55229,0 -1,-0.44772 -1,-1 0,-0.55229 0.44771,-1 1,-1 z" style="color:#000;fill:#bebebe;fill-opacity:1;fill-rule:nonzero;stroke:none;stroke-width:1.94058704;marker:none;visibility:visible;display:inline;overflow:visible;enable-background:accumulate"/></g></g></svg>