<svg xmlns="http://www.w3.org/2000/svg" xmlns:svg="http://www.w3.org/2000/svg" id="svg7384" width="16.031" height="16" version="1.1"><metadata id="metadata90"/><title id="title9167">Gnome Symbolic Icon Theme</title><g id="layer9" transform="translate(-62.96895,-215)" style="display:inline"><path id="path35770-4-9" d="m 67.3752,215.02148 c -0.30945,0 -0.55232,0.0903 -0.75,0.28125 l -3.65625,3.71875 3.65625,3.71875 c 0.19768,0.19095 0.44055,0.28125 0.75,0.28125 l 1,0 0,-1 c 0,-0.25689 -0.12983,-0.52846 -0.3125,-0.71875 L 66.75997,220 l 5.11523,0 c 0.84027,0 1.5,0.65973 1.5,1.5 l 2,0 c 0,-1.92115 -1.57885,-3.5 -3.5,-3.5 l -5.07227,0 1.25977,-1.25977 c 0.18267,-0.19029 0.3125,-0.46186 0.3125,-0.71875 l 0,-1 -1,0 z" style="font-size:medium;font-style:normal;font-variant:normal;font-weight:400;font-stretch:normal;text-indent:0;text-align:start;text-decoration:none;line-height:normal;letter-spacing:normal;word-spacing:normal;text-transform:none;direction:ltr;block-progression:tb;writing-mode:lr-tb;text-anchor:start;baseline-shift:baseline;color:#000;color-interpolation:sRGB;color-interpolation-filters:linearRGB;fill:#bebebe;fill-opacity:1;stroke:none;stroke-width:2;paint-order:normal;marker:none;visibility:visible;display:inline;overflow:visible;isolation:auto;mix-blend-mode:normal;enable-background:accumulate;clip-rule:nonzero;color-rendering:auto;image-rendering:auto;shape-rendering:auto;text-rendering:auto;font-family:sans-serif;-inkscape-font-specification:sans-serif"/><path id="path3799" d="m 69.37715,215 a 1.0044897,1.0044897 0 0 1 0.002,0.0215 l 0,0.97852 5.62109,0 0,1 -3.08594,0 c 1.53294,0.0136 2.89255,0.80554 3.69727,2 l 3.38863,0 0,-2 -2,0 c 0,0 0,-2 -2,-2 l -5.62305,0 z m 6.72266,5 c 0.16989,0.47226 0.2793,0.97217 0.2793,1.5 a 1.0044897,1.0044897 0 0 1 -0.37891,0.7832 l 0,6.7168 -9,0 0,-5.00977 c -0.39305,-0.0708 -0.78471,-0.24958 -1.07227,-0.52734 a 1.0044897,1.0044897 0 0 1 -0.0195,-0.0176 l -0.90823,-0.92383 0,6.47852 c 0,2 2,2 2,2 l 9,0 c 2,0 2,-2 2,-2 l 0,-9 -1.90039,0 z m -7.09961,1.00391 0,0.0762 c 0.18629,0.27547 0.37891,0.54831 0.37891,0.9414 l 0,1 a 1.0044897,1.0044897 0 0 1 -0.37891,0.78321 l 0,3.19531 1,0 0,-5.99609 -1,0 z m 2,0 0,5.99609 1,0 0,-5.97656 c -0.0406,-0.008 -0.0784,-0.0195 -0.125,-0.0195 l -0.875,0 z m 2,1.42578 0,4.57031 1,0 0,-4.49609 -0.625,0 a 1.0044897,1.0044897 0 0 1 -0.375,-0.0742 z" style="fill:#bebebe;fill-opacity:1;stroke:none"/></g></svg>