<svg xmlns="http://www.w3.org/2000/svg" xmlns:svg="http://www.w3.org/2000/svg" id="svg7384" width="16" height="16" version="1.1"><metadata id="metadata90"/><title id="title9167">Gnome Symbolic Icon Theme</title><g id="layer9" transform="translate(-143,-175)" style="display:inline"><path id="path7920" d="m 147.03145,176 0,4 -3,0 c -0.54534,0 -0.96875,0.42341 -0.96875,0.96875 0,0.54535 0.42341,1 0.96875,1 l 3,0 0,2.0625 -3,0 c -0.54534,0 -0.96875,0.42341 -0.96875,0.96875 0,0.54535 0.42341,1 0.96875,1 l 3,0 0,4 1,-0.0937 c 3.67508,-0.34454 5.76683,-4.02303 5.9375,-6.875 0.23648,-0.0665 0.53042,0.0111 0.6875,0.1875 l 0,0.0312 c 0.16445,0.15757 0.37436,0.41118 0.625,0.65625 0.25064,0.24507 0.60354,0.47879 1.0625,0.53125 0.4719,0.04 0.88833,-0.15809 1.15625,-0.46875 0.26137,-0.30307 0.3995,-0.70745 0.375,-1.125 -2.3e-4,-0.011 3.9e-4,-0.0204 0,-0.0312 -0.0363,-1.00877 -0.73453,-1.69168 -1.21875,-2.21875 -0.32738,-0.35889 -0.51919,-0.79134 -0.40625,-1.125 0.0978,-0.28616 0.46274,-0.49156 0.8125,-0.46875 l 0.0312,0 0.0312,0 c 0.57283,-0.0201 0.70488,0.003 1.3125,0 l 0,-1 c -0.56205,0.003 -0.73654,-0.0187 -1.3125,0 -0.0137,4.5e-4 -0.0172,-5e-4 -0.0312,0 -0.74361,-0.0366 -1.51171,0.36762 -1.78125,1.15625 -0.28648,0.84634 0.1721,1.62849 0.625,2.125 0.50634,0.55116 0.92597,1.0521 0.9375,1.59375 l 0.0312,0 c 0.0101,0.12705 -0.0578,0.32333 -0.15625,0.4375 -0.0985,0.11417 -0.19795,0.16596 -0.3125,0.15625 -0.16676,-0.0191 -0.2944,-0.11077 -0.46875,-0.28125 -0.16979,-0.16602 -0.35398,-0.39175 -0.59375,-0.625 -0.007,-0.007 -0.0247,0.007 -0.0312,0 -0.36526,-0.39563 -0.90243,-0.60685 -1.40625,-0.5625 -0.44674,-3.11853 -2.91199,-5.469 -5.90625,-5.90625 l -1,-0.0937 z m 1,2.09375 c 2.04247,0.42745 3.70504,2.1191 3.96875,4.3125 0.31355,2.60795 -1.39127,5.02493 -3.96875,5.53125 l 0,-9.84375 z" style="font-size:medium;font-style:normal;font-variant:normal;font-weight:400;font-stretch:normal;text-indent:0;text-align:start;text-decoration:none;line-height:normal;letter-spacing:normal;word-spacing:normal;text-transform:none;direction:ltr;block-progression:tb;writing-mode:lr-tb;text-anchor:start;baseline-shift:baseline;color:#000;fill:#bebebe;fill-opacity:1;stroke:none;stroke-width:2;marker:none;visibility:visible;display:inline;overflow:visible;enable-background:accumulate;font-family:Sans;-inkscape-font-specification:Sans"/></g></svg>