<svg xmlns="http://www.w3.org/2000/svg" xmlns:svg="http://www.w3.org/2000/svg" id="svg7384" width="16" height="16" version="1.1"><metadata id="metadata90"/><title id="title9167">Gnome Symbolic Icon Theme</title><g id="layer9" transform="translate(-103.0004,-175)" style="display:inline"><path id="path11643-3-1" d="m 108,178 0,2 6,0 c 0.42816,0 1,0.61414 1,1 l 0,1 -5,0 c -0.91927,0 -1.7356,0.38006 -2.25,0.96484 -0.5144,0.58479 -0.74272,1.3243 -0.73633,2.04493 0.006,0.72062 0.24549,1.4488 0.75781,2.02734 C 108.28381,187.61565 109.09172,188 110,188 l 7,0 0,-7 c 0,-1.63434 -1.3198,-3 -3,-3 l -6,0 z m 2,6 5,0 0,2 -5,0 c -0.39787,0 -0.57863,-0.11565 -0.73047,-0.28711 -0.15184,-0.17146 -0.25338,-0.44328 -0.25586,-0.72266 -0.002,-0.27937 0.093,-0.53986 0.23828,-0.70507 C 109.39728,184.11994 109.57764,184 110,184 Z" style="font-size:medium;font-style:normal;font-variant:normal;font-weight:400;font-stretch:normal;text-indent:0;text-align:start;text-decoration:none;line-height:normal;letter-spacing:normal;word-spacing:normal;text-transform:none;direction:ltr;block-progression:tb;writing-mode:lr-tb;text-anchor:start;baseline-shift:baseline;color:#000;color-interpolation:sRGB;color-interpolation-filters:linearRGB;fill:#bebebe;fill-opacity:1;stroke:none;stroke-width:2;paint-order:normal;marker:none;visibility:visible;display:inline;overflow:visible;isolation:auto;mix-blend-mode:normal;enable-background:accumulate;clip-rule:nonzero;color-rendering:auto;image-rendering:auto;shape-rendering:auto;text-rendering:auto;font-family:sans-serif;-inkscape-font-specification:sans-serif"/><path id="path11643-3-1-2" d="m 107,178 0,2 5,0 c 0.42816,0 1,0.61414 1,1 l 0,1 -5,0 c -0.91927,0 -1.7356,0.38006 -2.25,0.96484 -0.5144,0.58479 -0.74272,1.3243 -0.73633,2.04493 0.006,0.72062 0.24549,1.4488 0.75781,2.02734 C 106.28381,187.61565 107.09172,188 108,188 l 7,0 0,-7 c 0,-1.63434 -1.3198,-3 -3,-3 l -5,0 z m 1,6 5,0 0,2 -5,0 c -0.39787,0 -0.57863,-0.11565 -0.73047,-0.28711 -0.15184,-0.17146 -0.25338,-0.44328 -0.25586,-0.72266 -0.002,-0.27937 0.093,-0.53986 0.23828,-0.70507 C 107.39728,184.11994 107.57764,184 108,184 Z" style="font-size:medium;font-style:normal;font-variant:normal;font-weight:400;font-stretch:normal;text-indent:0;text-align:start;text-decoration:none;line-height:normal;letter-spacing:normal;word-spacing:normal;text-transform:none;direction:ltr;block-progression:tb;writing-mode:lr-tb;text-anchor:start;baseline-shift:baseline;color:#000;color-interpolation:sRGB;color-interpolation-filters:linearRGB;fill:#bebebe;fill-opacity:1;stroke:none;stroke-width:2;paint-order:normal;marker:none;visibility:visible;display:inline;overflow:visible;isolation:auto;mix-blend-mode:normal;enable-background:accumulate;clip-rule:nonzero;color-rendering:auto;image-rendering:auto;shape-rendering:auto;text-rendering:auto;font-family:sans-serif;-inkscape-font-specification:sans-serif"/></g></svg>