<svg xmlns="http://www.w3.org/2000/svg" xmlns:svg="http://www.w3.org/2000/svg" id="svg7384" width="16" height="16" version="1.1"><metadata id="metadata90"/><title id="title9167">Gnome Symbolic Icon Theme</title><g id="layer9" transform="translate(-163,-175)" style="display:inline"><path id="path4250" d="m 170.0002,175.90625 -1,0.0937 c -2.99426,0.43725 -5.45951,2.78772 -5.90625,5.90625 l -0.0312,1.03125 c 0.17067,2.85197 2.26242,6.53046 5.9375,6.875 l 1,0.0937 0,-4 1,0 0,4 1,-0.0937 c 3.67508,-0.34454 5.76683,-4.02303 5.9375,-6.875 l -0.0312,-1.03125 c -0.44674,-3.11853 -2.91199,-5.469 -5.90625,-5.90625 l -1,-0.0937 0,4 -1,0 0,-4 z m -1,2.09375 0,9.84375 c -2.57748,-0.50632 -4.2823,-2.9233 -3.96875,-5.53125 0.26371,-2.1934 1.92628,-3.88505 3.96875,-4.3125 z m 3,0 c 2.04247,0.42745 3.70504,2.1191 3.96875,4.3125 0.31355,2.60795 -1.39127,5.02493 -3.96875,5.53125 l 0,-9.84375 z m -2,3.875 1,0 0,2.0625 -1,0 0,-2.0625 z" style="font-size:medium;font-style:normal;font-variant:normal;font-weight:400;font-stretch:normal;text-indent:0;text-align:start;text-decoration:none;line-height:normal;letter-spacing:normal;word-spacing:normal;text-transform:none;direction:ltr;block-progression:tb;writing-mode:lr-tb;text-anchor:start;baseline-shift:baseline;color:#000;fill:#bebebe;fill-opacity:1;stroke:none;stroke-width:2;marker:none;visibility:visible;display:inline;overflow:visible;enable-background:accumulate;font-family:Sans;-inkscape-font-specification:Sans"/></g></svg>