<svg xmlns="http://www.w3.org/2000/svg" xmlns:svg="http://www.w3.org/2000/svg" id="svg7384" width="16" height="16" version="1.1"><metadata id="metadata90"/><title id="title9167">Gnome Symbolic Icon Theme</title><g id="layer9" transform="translate(-123.0002,-175)" style="display:inline"><path id="path10839-9" d="m 127.0002,179 1,0 c 0.0104,-1.2e-4 0.0208,-4.6e-4 0.0312,0 0.25495,0.0112 0.50987,0.12858 0.6875,0.3125 l 2.28125,2.28125 2.3125,-2.28125 c 0.26562,-0.2305 0.44667,-0.3055 0.6875,-0.3125 l 1,0 0,1 c 0,0.28647 -0.0343,0.55065 -0.25,0.75 l -2.28125,2.28125 2.25,2.25 c 0.18819,0.18817 0.28124,0.45345 0.28125,0.71875 l 0,1 -1,0 c -0.2653,-1e-5 -0.53059,-0.0931 -0.71875,-0.28125 l -2.28125,-2.28125 -2.28125,2.28125 C 128.53079,186.90694 128.26549,187 128.0002,187 l -1,0 0,-1 c 0,-0.26529 0.0931,-0.53058 0.28125,-0.71875 l 2.28125,-2.25 -2.28125,-2.28125 c -0.21074,-0.19463 -0.30316,-0.46925 -0.28125,-0.75 l 0,-1 z" style="font-size:medium;font-style:normal;font-variant:normal;font-weight:400;font-stretch:normal;text-indent:0;text-align:start;text-decoration:none;line-height:normal;letter-spacing:normal;word-spacing:normal;text-transform:none;direction:ltr;block-progression:tb;writing-mode:lr-tb;text-anchor:start;color:#bebebe;fill:#bebebe;fill-opacity:1;fill-rule:nonzero;stroke:none;stroke-width:1.78124988;marker:none;visibility:visible;display:inline;overflow:visible;enable-background:new;font-family:Andale Mono;-inkscape-font-specification:Andale Mono"/></g></svg>