<svg xmlns="http://www.w3.org/2000/svg" xmlns:svg="http://www.w3.org/2000/svg" id="svg7384" width="16" height="16" version="1.1"><metadata id="metadata90"/><title id="title9167">Gnome Symbolic Icon Theme</title><g id="layer9" transform="translate(-43.0004,-215)" style="display:inline"><path id="path7299" d="m 46.117188,217.05859 0,1 2.263671,0 c 0.810408,0 1.147074,0.10866 1.306641,0.29297 0.06226,0.0719 0.06543,0.45844 0.111328,0.63086 l -1.798828,0 c -0.625763,0 -1.158742,0.25437 -1.5,0.64063 -0.341258,0.38626 -0.5,0.88141 -0.5,1.36914 0,0.48772 0.158742,0.98288 0.5,1.36914 C 46.841258,222.74759 47.374237,223 48,223 l 2.970703,0 0,-3.03125 c 0,-1.01665 -0.06949,-1.74264 -0.527344,-2.27148 -0.45785,-0.52885 -1.165798,-0.63868 -2.0625,-0.63868 l -2.263671,0 z M 48,219.98242 l 1.970703,0 0,2.01758 L 48,222 c -0.374237,0 -0.591258,-0.12111 -0.75,-0.30078 -0.158742,-0.17968 -0.25,-0.44018 -0.25,-0.70703 0,-0.26685 0.09126,-0.52736 0.25,-0.70703 0.158742,-0.17968 0.375763,-0.30274 0.75,-0.30274 z" style="font-size:medium;font-style:normal;font-variant:normal;font-weight:400;font-stretch:normal;text-indent:0;text-align:start;text-decoration:none;line-height:normal;letter-spacing:normal;word-spacing:normal;text-transform:none;direction:ltr;block-progression:tb;writing-mode:lr-tb;text-anchor:start;baseline-shift:baseline;color:#000;color-interpolation:sRGB;color-interpolation-filters:linearRGB;fill:#bebebe;fill-opacity:1;stroke:none;stroke-width:1;paint-order:normal;marker:none;visibility:visible;display:inline;overflow:visible;isolation:auto;mix-blend-mode:normal;enable-background:accumulate;clip-rule:nonzero;color-rendering:auto;image-rendering:auto;shape-rendering:auto;text-rendering:auto;font-family:sans-serif;-inkscape-font-specification:sans-serif"/><path id="path7301" d="m 50.982422,223 0,7.03125 3.03125,0 c 1.696929,0 2.970782,-1.17763 2.986328,-2.51953 0.01555,-1.3419 -1.264253,-2.54297 -2.986328,-2.54297 l -1.03125,0 0,-1.96875 -2,0 z m 2,3.96875 1.03125,0 c 0.961185,0 0.988522,0.33018 0.986328,0.51953 -0.0022,0.18935 -0.07096,0.54297 -0.986328,0.54297 l -1.03125,0 0,-1.0625 z" style="font-size:medium;font-style:normal;font-variant:normal;font-weight:400;font-stretch:normal;text-indent:0;text-align:start;text-decoration:none;line-height:normal;letter-spacing:normal;word-spacing:normal;text-transform:none;direction:ltr;block-progression:tb;writing-mode:lr-tb;text-anchor:start;baseline-shift:baseline;color:#000;color-interpolation:sRGB;color-interpolation-filters:linearRGB;fill:#bebebe;fill-opacity:1;stroke:none;stroke-width:2;paint-order:normal;marker:none;visibility:visible;display:inline;overflow:visible;isolation:auto;mix-blend-mode:normal;enable-background:accumulate;clip-rule:nonzero;color-rendering:auto;image-rendering:auto;shape-rendering:auto;text-rendering:auto;font-family:sans-serif;-inkscape-font-specification:sans-serif"/></g></svg>