<svg xmlns="http://www.w3.org/2000/svg" xmlns:svg="http://www.w3.org/2000/svg" id="svg7384" width="16" height="16" version="1.1"><metadata id="metadata90"/><title id="title9167">Gnome Symbolic Icon Theme</title><g id="layer9" transform="translate(-83.02908,-195.02581)" style="display:inline"><path id="path2273-6-2" d="m 88.03089,205.02581 6.99819,-7 c 1,0 2,1 2,2 l -7,7 -2,0 z" style="fill:#bebebe;fill-opacity:1;fill-rule:evenodd;stroke:none"/><path id="path4113-1-6-3" d="m 96.02908,197.02581 c 1,0 2,1 2,2 l 1,-1 c 0,-1 -0.75185,-2 -2,-2 z" style="fill:#bebebe;fill-opacity:1;fill-rule:nonzero;stroke:none;stroke-width:1;marker:none;visibility:visible;display:inline;overflow:visible;enable-background:new"/><path id="path6682-6" d="m 84.12283,195.02581 c -0.56869,5e-5 -1.0937,0.50285 -1.09375,1.0625 l 0,12.84375 0,0.25 0,0.78125 c 5e-5,0.55965 0.52506,1.06245 1.09375,1.0625 l 4.34375,0 1.125,0 5.34375,0 c 0.55754,-5e-5 1.07398,-0.48468 1.09375,-1.03125 3.9e-4,-0.0109 0,-0.0204 0,-0.0312 l 0,-6.93755 -2,2 0,4 -9,0 0,-12 5,0 2,2 1.53125,-1.53125 -2.1875,-2.125 c -0.20046,-0.20837 -0.48969,-0.3416 -0.78125,-0.34375 z" style="font-size:medium;font-style:normal;font-variant:normal;font-weight:400;font-stretch:normal;text-indent:0;text-align:start;text-decoration:none;line-height:normal;letter-spacing:normal;word-spacing:normal;text-transform:none;direction:ltr;block-progression:tb;writing-mode:lr-tb;text-anchor:start;baseline-shift:baseline;color:#000;fill:#bebebe;fill-opacity:1;stroke:none;stroke-width:2;marker:none;visibility:visible;display:inline;overflow:visible;enable-background:accumulate;font-family:Sans;-inkscape-font-specification:Sans"/></g></svg>