<svg xmlns="http://www.w3.org/2000/svg" xmlns:svg="http://www.w3.org/2000/svg" id="svg7384" width="16.001" height="16" version="1.1"><metadata id="metadata90"/><title id="title9167">Gnome Symbolic Icon Theme</title><g id="layer9" transform="translate(-63.000043,-175)" style="display:inline"><path id="path15526" d="m 69.812895,180 c -0.478082,0.0912 -0.821076,0.51337 -0.8125,1 l 0,9 c 5.5e-5,0.55226 0.447738,0.99994 1,1 l 8,0 c 0.552262,-6e-5 0.999945,-0.44774 1,-1 l 0,-5.4375 c 0.0062,-0.26756 -0.0951,-0.52645 -0.28125,-0.71875 l -3.5625,-3.5625 C 74.964346,180.0951 74.70546,179.9938 74.437895,180 l -4.4375,0 c -0.03122,-0.001 -0.06248,-0.001 -0.0937,0 -0.03122,-0.001 -0.06248,-0.001 -0.0937,0 z m 1.1875,2 3,0 0,3 3,0 0,4 -6,0 z" style="font-size:medium;font-style:normal;font-variant:normal;font-weight:400;font-stretch:normal;text-indent:0;text-align:start;text-decoration:none;line-height:normal;letter-spacing:normal;word-spacing:normal;text-transform:none;direction:ltr;block-progression:tb;writing-mode:lr-tb;text-anchor:start;baseline-shift:baseline;color:#000;fill:#bebebe;fill-opacity:1;stroke:none;stroke-width:1.99999988;marker:none;visibility:visible;display:inline;overflow:visible;enable-background:accumulate;font-family:Sans;-inkscape-font-specification:Sans"/><path id="path15528" d="m 63.8127,176 c -0.47808,0.0912 -0.82108,0.51337 -0.8125,1 l 0,9 c 6e-5,0.55226 0.44774,0.99994 1,1 l 3,0 0,-2 -2,0 0,-7 2,0 1,0 2.875,0 -1.71875,-1.71875 C 68.96415,176.0951 68.70526,175.9938 68.4377,176 l -4.4375,0 c -0.0312,-0.001 -0.0625,-0.001 -0.0937,0 -0.0312,-0.001 -0.0625,-0.001 -0.0937,0 z" style="font-size:medium;font-style:normal;font-variant:normal;font-weight:400;font-stretch:normal;text-indent:0;text-align:start;text-decoration:none;line-height:normal;letter-spacing:normal;word-spacing:normal;text-transform:none;direction:ltr;block-progression:tb;writing-mode:lr-tb;text-anchor:start;baseline-shift:baseline;color:#000;fill:#bebebe;fill-opacity:1;stroke:none;stroke-width:1.99999988;marker:none;visibility:visible;display:inline;overflow:visible;enable-background:accumulate;font-family:Sans;-inkscape-font-specification:Sans"/></g></svg>