<svg xmlns="http://www.w3.org/2000/svg" xmlns:svg="http://www.w3.org/2000/svg" id="svg7384" width="16" height="16" version="1.1"><metadata id="metadata90"/><title id="title9167">Gnome Symbolic Icon Theme</title><g id="layer9" transform="translate(-163,-195)" style="display:inline"><path id="path8587" d="m 171,196 c -2.20282,0 -4,1.79718 -4,4 0,2.20282 1.79718,4 4,4 2.20282,0 4,-1.79718 4,-4 0,-2.20282 -1.79718,-4 -4,-4 z m 0,1.06641 c 1.62635,0 2.9336,1.30724 2.93359,2.93359 1e-5,1.62635 -1.30724,2.93359 -2.93359,2.93359 -1.62635,1e-5 -2.9336,-1.30724 -2.93359,-2.93359 -1e-5,-1.62635 1.30724,-2.9336 2.93359,-2.93359 z" style="font-size:medium;font-style:normal;font-variant:normal;font-weight:400;font-stretch:normal;text-indent:0;text-align:start;text-decoration:none;line-height:normal;letter-spacing:normal;word-spacing:normal;text-transform:none;direction:ltr;block-progression:tb;writing-mode:lr-tb;text-anchor:start;baseline-shift:baseline;color:#000;color-interpolation:sRGB;color-interpolation-filters:linearRGB;fill:#bebebe;fill-opacity:1;stroke:none;stroke-width:1.06666684;paint-order:normal;marker:none;visibility:visible;display:inline;overflow:visible;isolation:auto;mix-blend-mode:normal;enable-background:new;clip-rule:nonzero;color-rendering:auto;image-rendering:auto;shape-rendering:auto;text-rendering:auto;font-family:sans-serif;-inkscape-font-specification:sans-serif"/><path id="path8591" d="m 167,203 c -2.20282,0 -4,1.79718 -4,4 0,2.20282 1.79718,4 4,4 2.20282,0 4,-1.79718 4,-4 0,-2.20282 -1.79718,-4 -4,-4 z m 0,1.06641 c 1.62635,0 2.93359,1.30724 2.93359,2.93359 0,1.62635 -1.30724,2.93359 -2.93359,2.93359 -1.62635,0 -2.93359,-1.30724 -2.93359,-2.93359 0,-1.62635 1.30724,-2.93359 2.93359,-2.93359 z" style="font-size:medium;font-style:normal;font-variant:normal;font-weight:400;font-stretch:normal;text-indent:0;text-align:start;text-decoration:none;line-height:normal;letter-spacing:normal;word-spacing:normal;text-transform:none;direction:ltr;block-progression:tb;writing-mode:lr-tb;text-anchor:start;baseline-shift:baseline;color:#000;color-interpolation:sRGB;color-interpolation-filters:linearRGB;fill:#bebebe;fill-opacity:1;stroke:none;stroke-width:1.06666684;paint-order:normal;marker:none;visibility:visible;display:inline;overflow:visible;isolation:auto;mix-blend-mode:normal;enable-background:new;clip-rule:nonzero;color-rendering:auto;image-rendering:auto;shape-rendering:auto;text-rendering:auto;font-family:sans-serif;-inkscape-font-specification:sans-serif"/><path id="path8593" d="m 178.9985,206.99999 a 3.9991466,3.9991466 0 0 1 -3.99915,3.99915 3.9991466,3.9991466 0 0 1 -3.99915,-3.99915 3.9991466,3.9991466 0 0 1 3.99915,-3.99914 3.9991466,3.9991466 0 0 1 3.99915,3.99914 z" style="color:#000;fill:#bebebe;fill-opacity:1;stroke:none;stroke-width:2.15384626;marker:none;visibility:visible;display:inline;overflow:visible;enable-background:new"/><path id="path8595" d="M 170.46686,207 A 3.4666671,3.4666671 0 0 1 167.0002,210.46667 3.4666671,3.4666671 0 0 1 163.53353,207 3.4666671,3.4666671 0 0 1 167.0002,203.53333 3.4666671,3.4666671 0 0 1 170.46686,207 Z" style="color:#000;fill:#bebebe;fill-opacity:.36403509;stroke:none;stroke-width:2.15384626;marker:none;visibility:visible;display:inline;overflow:visible;enable-background:new"/></g></svg>