<svg xmlns="http://www.w3.org/2000/svg" xmlns:svg="http://www.w3.org/2000/svg" xmlns:xlink="http://www.w3.org/1999/xlink" id="svg44811" width="96" height="96" version="1.1" viewBox="0 0 96 96"><defs id="defs44813"><pattern id="pattern7979" patternTransform="matrix(0.09413556,-0.00877498,0.00877498,0.09413556,69.70434,960.46834)" xlink:href="#avatarpattern"/><pattern id="avatarpattern" width="1347.305" height="900" patternTransform="translate(1534.6946,1118.3622)" patternUnits="userSpaceOnUse"><image id="avatar" width="1347.305" height="900" x="0" y="0" xlink:href="photo2.jpg"/></pattern></defs><metadata id="metadata44816"/><g id="layer1" transform="translate(0,-956.3622)"><g id="g35884" transform="matrix(1.1201908,0,0,1.1201908,-123.9493,718.86791)" style="fill:none;stroke:#fff;stroke-width:.89270507;stroke-miterlimit:4;stroke-opacity:1;stroke-dasharray:none"><circle style="color:#000;fill:none;stroke:#d3d7cf;stroke-width:.44635254;stroke-miterlimit:4;stroke-opacity:1;stroke-dasharray:none;marker:none;visibility:visible;display:inline;overflow:visible;enable-background:new" id="path35890" cx="153.5" cy="254.862" r="41.511" d="m 195.0108,254.8622 a 41.510784,41.510784 0 0 1 -41.51078,41.51078 41.510784,41.510784 0 0 1 -41.51079,-41.51078 41.510784,41.510784 0 0 1 41.51079,-41.51079 41.510784,41.510784 0 0 1 41.51078,41.51079 z"/></g><circle id="path35892" cx="137.183" cy="996.268" r="41.905" d="m 179.08776,996.26819 a 41.904942,41.904942 0 0 1 -41.90494,41.90491 41.904942,41.904942 0 0 1 -41.904946,-41.90491 41.904942,41.904942 0 0 1 41.904946,-41.90494 41.904942,41.904942 0 0 1 41.90494,41.90494 z" transform="matrix(0.99604777,0.08881911,-0.08881911,0.99604777,0,0)" style="color:#000;display:inline;overflow:visible;visibility:visible;fill:url(#pattern7979);fill-opacity:1;fill-rule:nonzero;stroke:none;stroke-width:1;marker:none;enable-background:new"/><g style="fill:none;stroke:#fff;stroke-width:1.7509799;stroke-miterlimit:4;stroke-opacity:1;stroke-dasharray:none" id="g47321" transform="matrix(1.1422176,0,0,1.1422176,-127.33042,713.25412)"><circle id="circle47323" cx="153.5" cy="254.862" r="41.5" d="m 195,254.86218 a 41.5,41.5 0 0 1 -41.5,41.5 41.5,41.5 0 0 1 -41.5,-41.5 41.5,41.5 0 0 1 41.5,-41.5 41.5,41.5 0 0 1 41.5,41.5 z" transform="matrix(0.92725992,0,0,0.92725992,11.165606,18.538702)" style="color:#000;fill:none;stroke:#eeeeec;stroke-width:1.88833773;stroke-miterlimit:4;stroke-opacity:1;stroke-dasharray:none;marker:none;visibility:visible;display:inline;overflow:visible;enable-background:new"/></g></g></svg>