<svg xmlns="http://www.w3.org/2000/svg" width="16" height="16" viewBox="0 0 16 16"><g><path fill="#4d4d4d" d="M70.813-175a1 1 0 0 0-.813 1v13a1 1 0 0 0 1 1h10a1 1 0 0 0 1-1v-9.438a1 1 0 0 0-.281-.718l-3.563-3.563a1 1 0 0 0-.719-.281H71a1 1 0 0 0-.094 0 1 1 0 0 0-.094 0zM72-173h5v3h3v8h-8zm1 5v1h1v-1zm2 0v1h3v-1zm-1 2v1h1v-1zm2 0v1h3v-1zm-3 2v1h1v-1zm2 0v1h3v-1z" color="#000" font-family="Sans" font-weight="400" overflow="visible" transform="translate(-68 176)" style="line-height:normal;-inkscape-font-specification:Sans;text-indent:0;text-align:start;text-decoration-line:none;text-transform:none;marker:none"/></g></svg>