<svg xmlns="http://www.w3.org/2000/svg" xmlns:svg="http://www.w3.org/2000/svg" id="svg7384" width="16" height="16" version="1.1"><metadata id="metadata90"/><title id="title9167">Gnome Symbolic Icon Theme</title><g id="layer9" transform="translate(-121.0002,-177)" style="display:inline"><g id="g84908"><path id="rect82180" d="m 122.0002,178 0,14 14,0 0,-14 -14,0 z m 1,1 12,0 0,12 -12,0 0,-12 z" style="fill:#bebebe;fill-opacity:1;stroke:none"/><rect id="rect82185" width="3" height="10" x="124" y="180" style="fill:#bebebe;fill-opacity:1;stroke:none"/><rect id="rect82187" width="1" height="1" x="128" y="181" style="fill:#bebebe;fill-opacity:1;stroke:none"/><rect id="rect82189" width="1" height="1" x="127" y="180" style="fill:#bebebe;fill-opacity:1;stroke:none"/><rect id="rect82191" width="1" height="1" x="128" y="183" style="fill:#bebebe;fill-opacity:1;stroke:none"/><rect id="rect82193" width="1" height="1" x="127" y="182" style="fill:#bebebe;fill-opacity:1;stroke:none"/><rect id="rect82195" width="1" height="1" x="128" y="185" style="fill:#bebebe;fill-opacity:1;stroke:none"/><rect id="rect82197" width="1" height="1" x="127" y="184" style="fill:#bebebe;fill-opacity:1;stroke:none"/><rect id="rect82199" width="1" height="1" x="128" y="187" style="fill:#bebebe;fill-opacity:1;stroke:none"/><rect id="rect82201" width="1" height="1" x="127" y="186" style="fill:#bebebe;fill-opacity:1;stroke:none"/><rect id="rect82203" width="1" height="1" x="128" y="189" style="fill:#bebebe;fill-opacity:1;stroke:none"/><rect id="rect82205" width="1" height="1" x="127" y="188" style="fill:#bebebe;fill-opacity:1;stroke:none"/><rect id="rect82207" width="1" height="1" x="130" y="180" style="opacity:.3;fill:#bebebe;fill-opacity:1;stroke:none"/><rect id="rect82209" width="1" height="1" x="130" y="182" style="opacity:.3;fill:#bebebe;fill-opacity:1;stroke:none"/><rect id="rect82211" width="1" height="1" x="130" y="184" style="opacity:.3;fill:#bebebe;fill-opacity:1;stroke:none"/><rect id="rect82213" width="1" height="1" x="130" y="186" style="opacity:.3;fill:#bebebe;fill-opacity:1;stroke:none"/><rect id="rect82215" width="1" height="1" x="130" y="188" style="opacity:.3;fill:#bebebe;fill-opacity:1;stroke:none"/><rect id="rect84896" width="1" height="1" x="131" y="181" style="opacity:.3;fill:#bebebe;fill-opacity:1;stroke:none"/><rect id="rect84898" width="1" height="1" x="131" y="183" style="opacity:.3;fill:#bebebe;fill-opacity:1;stroke:none"/><rect id="rect84900" width="1" height="1" x="131" y="185" style="opacity:.3;fill:#bebebe;fill-opacity:1;stroke:none"/><rect id="rect84902" width="1" height="1" x="131" y="187" style="opacity:.3;fill:#bebebe;fill-opacity:1;stroke:none"/><rect id="rect84904" width="1" height="1" x="131" y="189" style="opacity:.3;fill:#bebebe;fill-opacity:1;stroke:none"/><rect id="rect84906" width="1" height="10" x="129" y="180" rx="2" ry="0" style="opacity:.3;fill:#bebebe;fill-opacity:1;stroke:none"/></g></g></svg>