<svg xmlns="http://www.w3.org/2000/svg" xmlns:svg="http://www.w3.org/2000/svg" id="svg7384" width="16" height="16" version="1.1"><metadata id="metadata90"/><title id="title9167">Gnome Symbolic Icon Theme</title><g id="layer9" transform="translate(-41.000198,-197)" style="display:inline"><rect id="rect74714" width="16" height="15.982" x="41" y="197.018" style="fill:none;stroke:none"/><path id="path74740" d="m 49.0221,197 -3.0219,3.0148 6,1e-5 z" style="fill:#bebebe;fill-opacity:1;stroke:none"/><path id="rect74742" d="m 48.03145,199.03125 0,8.96875 0,2.96875 1.96875,0 0,-2.96875 0,-8.96875 -1.96875,0 z" style="fill:#bebebe;fill-opacity:1;stroke:none"/><path id="path74756" d="m 49.0221,213 -3.0219,-2.99657 6,-1e-5 z" style="fill:#bebebe;fill-opacity:1;stroke:none"/><path id="path74760" d="m 41.0002,204.98724 2.99999,3.01846 10e-6,-5.99317 z" style="fill:#bebebe;fill-opacity:1;stroke:none"/><path id="rect74762" d="m 43.03145,204 0,2 c 3.98964,0.007 7.97922,0.0322 11.96875,0 l 0,-2 c -3.9883,0.10306 -7.97827,0.014 -11.96875,0 z" style="fill:#bebebe;fill-opacity:1;stroke:none"/><path id="path74764" d="m 57.0002,204.98724 -2.99999,3.01846 -1e-5,-5.99317 z" style="fill:#bebebe;fill-opacity:1;stroke:none"/></g></svg>