<svg xmlns="http://www.w3.org/2000/svg" xmlns:svg="http://www.w3.org/2000/svg" id="svg7384" width="16" height="16" version="1.1"><metadata id="metadata90"/><title id="title9167">Gnome Symbolic Icon Theme</title><g id="layer9" transform="translate(-41.000198,-217)" style="display:inline"><rect id="rect74853" width="1" height="1" x="41" y="220" style="fill:#bebebe;fill-opacity:1;stroke:none"/><rect id="rect74855" width="1" height="1" x="53" y="220" style="fill:#bebebe;fill-opacity:1;stroke:none"/><rect id="rect74857" width="1" height="1" x="55" y="220" style="fill:#bebebe;fill-opacity:1;stroke:none"/><rect id="rect74859" width="1" height="1" x="41" y="222" style="fill:#bebebe;fill-opacity:1;stroke:none"/><rect id="rect74861" width="1" height="1" x="51" y="220" style="fill:#bebebe;fill-opacity:1;stroke:none"/><rect id="rect74863" width="1" height="1" x="43" y="220" style="fill:#bebebe;fill-opacity:1;stroke:none"/><rect id="rect74865" width="1" height="1" x="45" y="220" style="fill:#bebebe;fill-opacity:1;stroke:none"/><rect id="rect74867" width="1" height="1" x="47" y="220" style="fill:#bebebe;fill-opacity:1;stroke:none"/><rect id="rect74869" width="1" height="1" x="49" y="220" style="fill:#bebebe;fill-opacity:1;stroke:none"/><rect id="rect74871" width="1" height="1" x="41" y="224" style="fill:#bebebe;fill-opacity:1;stroke:none"/><rect id="rect74873" width="1" height="1" x="41" y="226" style="fill:#bebebe;fill-opacity:1;stroke:none"/><rect id="rect74875" width="1" height="1" x="43" y="230" style="fill:#bebebe;fill-opacity:1;stroke:none"/><rect id="rect74877" width="1" height="1" x="45" y="230" style="fill:#bebebe;fill-opacity:1;stroke:none"/><rect id="rect74879" width="1" height="1" x="47" y="230" style="fill:#bebebe;fill-opacity:1;stroke:none"/><rect id="rect74881" width="1" height="1" x="49" y="230" style="fill:#bebebe;fill-opacity:1;stroke:none"/><rect id="rect74883" width="1" height="1" x="51" y="230" style="fill:#bebebe;fill-opacity:1;stroke:none"/><rect id="rect74885" width="1" height="1" x="53" y="230" style="fill:#bebebe;fill-opacity:1;stroke:none"/><rect id="rect74887" width="1" height="1" x="55" y="230" style="fill:#bebebe;fill-opacity:1;stroke:none"/><rect id="rect74889" width="1" height="1" x="55" y="228" style="fill:#bebebe;fill-opacity:1;stroke:none"/><rect id="rect74891" width="1" height="1" x="55" y="226" style="fill:#bebebe;fill-opacity:1;stroke:none"/><rect id="rect74893" width="1" height="1" x="55" y="224" style="fill:#bebebe;fill-opacity:1;stroke:none"/><rect id="rect74895" width="1" height="1" x="55" y="222" style="fill:#bebebe;fill-opacity:1;stroke:none"/><rect id="rect74897" width="9" height="5" x="44" y="223" style="fill:#bebebe;fill-opacity:1;stroke:none"/><rect id="rect74899" width="1" height="1" x="41" y="228" style="fill:#bebebe;fill-opacity:1;stroke:none"/><rect id="rect74901" width="1" height="1" x="41" y="230" style="fill:#bebebe;fill-opacity:1;stroke:none"/></g></svg>