<svg xmlns="http://www.w3.org/2000/svg" xmlns:svg="http://www.w3.org/2000/svg" id="svg7384" width="16" height="15.976" version="1.1"><metadata id="metadata90"/><title id="title9167">Gnome Symbolic Icon Theme</title><defs id="defs7386"><filter id="filter12578-8" color-interpolation-filters="sRGB"><feGaussianBlur id="feGaussianBlur12580-4" stdDeviation=".015"/></filter><filter id="filter12586-1" color-interpolation-filters="sRGB"><feGaussianBlur id="feGaussianBlur12588-8" stdDeviation=".02"/></filter></defs><g id="layer9" transform="translate(-101.0002,-237)" style="display:inline"><rect id="rect5580" width="16" height="15.976" x="101" y="237" rx=".75" ry="0" style="fill:none;stroke:none"/><path id="path5582" d="m 101.0002,246 0,2 5,0 -1.66667,-2 -3.33333,0 z m 5,2 5,0 0,-2 -3.33333,0 -1.66667,2 z" style="fill:#bebebe;fill-opacity:1;stroke:none"/><path id="path5584" d="m 102.66687,245.06898 c 0,0 2.66666,0 2.66666,-4.65518 0.66667,-0.93105 1.33334,0 1.33334,0 0,4.65518 2.66666,4.65518 2.66666,4.65518 l 0,0.93102 -6.66666,0 z" style="fill:#bebebe;fill-opacity:1;stroke:none"/><path id="path5586" d="m -148,24 a 3.5,2 0 1 1 -7,0 3.5,2 0 1 1 7,0 z" transform="matrix(0.57142782,0,0,1,192.57151,217)" style="fill:#bebebe;fill-opacity:1;stroke:none"/><path id="path5659" d="m 111.0002,243 -1,2 2,0 0,4 -2,0 -1,0 -1,0 -2,3 11,0 -3,-9 z" style="fill:#bebebe;fill-opacity:1;stroke:none"/></g></svg>