<svg xmlns="http://www.w3.org/2000/svg" xmlns:svg="http://www.w3.org/2000/svg" id="svg7384" width="16" height="16" version="1.1"><metadata id="metadata90"/><title id="title9167">Gnome Symbolic Icon Theme</title><defs id="defs7386"><filter id="filter12578" color-interpolation-filters="sRGB"><feGaussianBlur id="feGaussianBlur12580" stdDeviation=".015"/></filter><filter id="filter12586" color-interpolation-filters="sRGB"><feGaussianBlur id="feGaussianBlur12588" stdDeviation=".02"/></filter></defs><g id="layer9" transform="translate(-121.0002,-197)" style="display:inline"><rect id="rect4716" width="4" height="2" x="121" y="211" rx=".47" ry=".514" style="fill:#bebebe;fill-opacity:1;stroke:none"/><path id="rect4718" d="m 127.83353,197 c -0.46166,0 -0.83333,0.38229 -0.83333,0.85714 l 0,3.42857 0,0.85715 c 0,0.47485 0.37167,0.85714 0.83333,0.85714 l 5.83334,0 2.5,0 c 0.46166,0 0.83333,-0.38229 0.83333,-0.85714 l 0,-3.42857 0,-0.85715 c 0,-0.47485 -0.37167,-0.85714 -0.83333,-0.85714 l -5.83334,0 -2.5,0 z" style="fill:#bebebe;fill-opacity:1;stroke:none"/><path id="path10525" d="m 127.0002,205 2,2 -3,3 1,1 1,-1 2,-2 2,2 0,-5 -3,0 z" style="fill:#bebebe;fill-opacity:1;stroke:none"/></g></svg>