<svg xmlns="http://www.w3.org/2000/svg" xmlns:svg="http://www.w3.org/2000/svg" id="svg7384" width="16" height="16" version="1.1"><metadata id="metadata90"/><title id="title9167">Gnome Symbolic Icon Theme</title><defs id="defs7386"><filter id="filter12578-8" color-interpolation-filters="sRGB"><feGaussianBlur id="feGaussianBlur12580-4" stdDeviation=".015"/></filter><filter id="filter12586-1" color-interpolation-filters="sRGB"><feGaussianBlur id="feGaussianBlur12588-8" stdDeviation=".02"/></filter></defs><g id="layer9" transform="translate(-41.0002,-257)" style="display:inline"><path id="path4672" d="m 50.1252,257.5 c -0.49024,-0.004 -1.0163,0.0296 -1.53125,0.0937 -4.11962,0.5134 -7.28695,3.11335 -7.09375,5.8125 0.1932,2.69915 3.66163,4.45088 7.78125,3.9375 4.11962,-0.5134 7.3182,-3.11334 7.125,-5.8125 C 56.2374,259.1695 53.55686,257.53212 50.1252,257.5 z m -0.1875,1.5 c 1.37941,0.0113 2.59622,0.31205 3.5,0.8125 0.90379,0.50045 1.49455,1.20061 1.5625,2.03125 0.15532,1.89861 -2.40686,3.73262 -5.71875,4.09375 -3.31189,0.36113 -6.12593,-0.88264 -6.28125,-2.78125 -0.15532,-1.89861 2.40686,-3.73262 5.71875,-4.09375 0.41399,-0.0451 0.82463,-0.0657 1.21875,-0.0625 z" style="fill:#bebebe;fill-opacity:1;stroke:none"/><path id="path4660" d="m 45.0002,264 c -1.10457,0 -2,0.89543 -2,2 0,1.10457 0.89543,2 2,2 1.10457,0 2,-0.89543 2,-2 0,-1.10457 -0.89543,-2 -2,-2 z m 0,1 c 0.55228,0 1,0.44772 1,1 0,0.55228 -0.44772,1 -1,1 -0.55228,0 -1,-0.44772 -1,-1 0,-0.55228 0.44772,-1 1,-1 z" style="fill:#bebebe;fill-opacity:1;stroke:none"/><path id="path4664" d="m 45.0002,267 c 0,0 4.40625,3 0,6 l 2.03125,0 c 3.65625,-2.54511 -0.01563,-6 -0.01563,-6 z" style="fill:#bebebe;fill-opacity:1;stroke:none"/></g></svg>