<svg xmlns="http://www.w3.org/2000/svg" xmlns:svg="http://www.w3.org/2000/svg" id="svg7384" width="16" height="16" version="1.1"><metadata id="metadata90"/><title id="title9167">Gnome Symbolic Icon Theme</title><defs id="defs7386"><filter id="filter12578-8" color-interpolation-filters="sRGB"><feGaussianBlur id="feGaussianBlur12580-4" stdDeviation=".015"/></filter><filter id="filter12586-1" color-interpolation-filters="sRGB"><feGaussianBlur id="feGaussianBlur12588-8" stdDeviation=".02"/></filter></defs><g id="layer9" transform="translate(-101.0002,-217)" style="display:inline"><path id="rect4875" d="m 104.93945,220 c -0.90867,0.38331 -1.20523,1.21717 -0.68062,1.88108 l 3.78781,5.03784 -1.49639,1.63837 1.21173,1.44271 1.37957,-1.71892 1.3528,1.71892 1.20063,-1.38155 -1.45852,-1.69953 3.78781,-5.03784 c 0.52462,-0.66391 0.22804,-1.49777 -0.68063,-1.88108 l -4.20209,5.53514 L 104.93945,220 z" style="fill:#bebebe;fill-opacity:1;stroke:none"/><path id="path12605" d="m 113.0002,227 c -1.65685,0 -3,1.34315 -3,3 0,1.65685 1.34315,3 3,3 1.65685,0 3,-1.34315 3,-3 0,-1.65685 -1.34315,-3 -3,-3 z m 0,2 c 0.55228,0 1,0.44771 1,1 0,0.55228 -0.44772,1 -1,1 -0.55228,0 -1,-0.44772 -1,-1 0,-0.55229 0.44772,-1 1,-1 z" style="fill:#bebebe;fill-opacity:1;stroke:none"/><path id="path12608" d="m 105.0002,227 c -1.65685,0 -3,1.34315 -3,3 0,1.65685 1.34315,3 3,3 1.65685,0 3,-1.34315 3,-3 0,-1.65685 -1.34315,-3 -3,-3 z m 0,2 c 0.55228,0 1,0.44771 1,1 0,0.55228 -0.44772,1 -1,1 -0.55228,0 -1,-0.44772 -1,-1 0,-0.55229 0.44772,-1 1,-1 z" style="fill:#bebebe;fill-opacity:1;stroke:none"/><rect id="rect12610" width="1" height="1" x="108" y="222" style="fill:#bebebe;fill-opacity:1;stroke:none"/><rect id="rect12612" width="1" height="1" x="108" y="220" style="fill:#bebebe;fill-opacity:1;stroke:none"/><rect id="rect12614" width="1" height="1" x="108" y="218" style="fill:#bebebe;fill-opacity:1;stroke:none"/><rect id="rect12616" width="1" height="1" x="110" y="218" style="fill:#bebebe;fill-opacity:1;stroke:none"/><rect id="rect12618" width="1" height="1" x="112" y="218" style="fill:#bebebe;fill-opacity:1;stroke:none"/><rect id="rect12620" width="1" height="1" x="114" y="218" style="fill:#bebebe;fill-opacity:1;stroke:none"/><rect id="rect12622" width="1" height="1" x="116" y="218" style="fill:#bebebe;fill-opacity:1;stroke:none"/></g></svg>