<svg xmlns="http://www.w3.org/2000/svg" xmlns:svg="http://www.w3.org/2000/svg" id="svg7384" width="16" height="16" version="1.1"><metadata id="metadata90"/><title id="title9167">Gnome Symbolic Icon Theme</title><defs id="defs7386"><filter id="filter12578-8" color-interpolation-filters="sRGB"><feGaussianBlur id="feGaussianBlur12580-4" stdDeviation=".015"/></filter><filter id="filter12586-1" color-interpolation-filters="sRGB"><feGaussianBlur id="feGaussianBlur12588-8" stdDeviation=".02"/></filter></defs><g id="layer9" transform="translate(-61.0002,-257)" style="display:inline"><path id="path4710" d="m -166,48 a 6,4 0 1 1 -12,0 6,4 0 1 1 12,0 z" transform="matrix(0.83333356,0,0,0.75,212.33357,229)" style="fill:#bebebe;fill-opacity:1;stroke:none"/><path id="path4760" d="m 69.0002,259 c -0.33893,0 -0.67129,0.0314 -1,0.0625 l 0,1 c 0.33033,-0.0367 0.6554,-0.0625 1,-0.0625 z m 1,0.0625 0,1 c 0.34825,0.0357 0.67022,0.11681 1,0.1875 l 0,-1.03125 c -0.3282,-0.0635 -0.65694,-0.12401 -1,-0.15625 z m -3,0.125 c -0.34262,0.0663 -0.67761,0.15236 -1,0.25 l 0,1.0625 c 0.32247,-0.10972 0.6537,-0.20469 1,-0.28125 z m 5,0.28125 0,1.03125 c 0.35597,0.1208 0.67996,0.2776 1,0.4375 l 0,-1.125 c -0.31848,-0.13664 -0.6556,-0.2399 -1,-0.34375 z m -7,0.34375 c -0.35696,0.15527 -0.68046,0.33808 -1,0.53125 l 0,1.1875 c 0.30947,-0.22709 0.63617,-0.44271 1,-0.625 z m 9,0.5 0,1.21875 c 0.37827,0.27542 0.71787,0.57561 1,0.90625 l 0,-1.40625 c -0.30538,-0.25789 -0.63855,-0.50472 -1,-0.71875 z m 1,7.25 c -0.28218,0.33443 -0.62081,0.66046 -1,0.9375 l 0,1.1875 c 0.35999,-0.21607 0.6951,-0.4599 1,-0.71875 z m -11,0.9375 0,1.15625 c 0.3196,0.19311 0.6429,0.37601 1,0.53125 l 0,-1.0625 c -0.36558,-0.18305 -0.68997,-0.39602 -1,-0.625 z m 9,0.59375 c -0.31199,0.15631 -0.65518,0.28716 -1,0.40625 l 0,1.0625 c 0.34848,-0.10669 0.67723,-0.2346 1,-0.375 z m -7,0.4375 0,1.03125 c 0.3255,0.099 0.65476,0.18349 1,0.25 l 0,-1 c -0.35191,-0.0744 -0.67387,-0.16968 -1,-0.28125 z m 5,0.25 c -0.32714,0.0709 -0.65646,0.1187 -1,0.15625 l 0,1 c 0.34283,-0.0389 0.66861,-0.0906 1,-0.15625 z m -3,0.15625 0,1 c 0.32906,0.0309 0.65976,0.0625 1,0.0625 l 0,-1 c -0.34065,0 -0.67236,-0.0289 -1,-0.0625 z" style="fill:#bebebe;fill-opacity:1;stroke:none"/></g></svg>