<svg xmlns="http://www.w3.org/2000/svg" xmlns:svg="http://www.w3.org/2000/svg" id="svg7384" width="16" height="16" version="1.1"><metadata id="metadata90"/><title id="title9167">Gnome Symbolic Icon Theme</title><defs id="defs7386"><filter id="filter12578-8" color-interpolation-filters="sRGB"><feGaussianBlur id="feGaussianBlur12580-4" stdDeviation=".015"/></filter><filter id="filter12586-1" color-interpolation-filters="sRGB"><feGaussianBlur id="feGaussianBlur12588-8" stdDeviation=".02"/></filter></defs><g id="layer9" transform="translate(-101.0002,-277)" style="display:inline"><path id="rect5105" d="m 102.0002,278 0,14 14,0 0,-14 -14,0 z m 1,1 12,0 0,12 -12,0 0,-12 z" style="fill:#bebebe;fill-opacity:1;stroke:none"/><path id="path5110" d="m 115.3752,280.25 c -1.06231,3.6239 -2.06472,5.50117 -2.8125,6.21875 -0.37389,0.35879 -0.64608,0.42526 -0.90625,0.40625 -0.26017,-0.019 -0.56339,-0.18179 -0.90625,-0.46875 -0.68571,-0.57392 -1.40041,-1.61838 -2.15625,-2.5 -0.37792,-0.44081 -0.77679,-0.84532 -1.21875,-1.125 -0.44196,-0.27968 -0.99199,-0.42975 -1.53125,-0.25 -0.85644,0.28548 -1.43624,1.02134 -1.875,1.875 -0.43876,0.85366 -0.75584,1.84283 -0.96875,2.8125 -0.42582,1.93933 -0.5,3.75 -0.5,3.75 l 1,0.0625 c 0,0 0.0654,-1.75669 0.46875,-3.59375 0.20168,-0.91853 0.4997,-1.86356 0.875,-2.59375 0.3753,-0.73019 0.8273,-1.21326 1.3125,-1.375 0.21074,-0.0702 0.39876,-0.0265 0.6875,0.15625 0.28874,0.18272 0.61826,0.52868 0.96875,0.9375 0.70098,0.81763 1.44854,1.9019 2.3125,2.625 0.43198,0.36155 0.90537,0.64634 1.46875,0.6875 0.56338,0.0412 1.14087,-0.19294 1.65625,-0.6875 0.9265,-0.88908 1.80004,-2.64541 2.75,-5.65625 l 0,-1.09375 -0.625,-0.1875 z" style="font-size:medium;font-style:normal;font-variant:normal;font-weight:400;font-stretch:normal;text-indent:0;text-align:start;text-decoration:none;line-height:normal;letter-spacing:normal;word-spacing:normal;text-transform:none;direction:ltr;block-progression:tb;writing-mode:lr-tb;text-anchor:start;baseline-shift:baseline;color:#000;fill:#bebebe;fill-opacity:1;stroke:none;stroke-width:1;marker:none;visibility:visible;display:inline;overflow:visible;enable-background:accumulate;font-family:Sans;-inkscape-font-specification:Sans"/></g></svg>