<svg xmlns="http://www.w3.org/2000/svg" xmlns:svg="http://www.w3.org/2000/svg" id="svg7384" width="16" height="16" version="1.1"><metadata id="metadata90"/><title id="title9167">Gnome Symbolic Icon Theme</title><defs id="defs7386"><filter id="filter12578-8" color-interpolation-filters="sRGB"><feGaussianBlur id="feGaussianBlur12580-4" stdDeviation=".015"/></filter><filter id="filter12586-1" color-interpolation-filters="sRGB"><feGaussianBlur id="feGaussianBlur12588-8" stdDeviation=".02"/></filter></defs><g id="layer9" transform="translate(-181.0002,-277)" style="display:inline"><rect id="rect5249" width="2" height="2" x="-186" y="283" transform="scale(-1,1)" style="fill:#bebebe;fill-opacity:1;stroke:none"/><rect id="rect5265" width="3" height="3" x="184" y="280" style="opacity:.3;fill:#bebebe;fill-opacity:1;stroke:none"/><path id="rect5267" d="m 182.0002,278 0,14 14,0 0,-14 -14,0 z m 1,1 12,0 0,12 -12,0 0,-12 z" style="fill:#bebebe;fill-opacity:1;stroke:none"/><rect id="rect5286" width="3" height="3" x="-283" y="-194" transform="matrix(0,-1,-1,0,0,0)" style="fill:#bebebe;fill-opacity:1;stroke:none"/><rect id="rect5353" width="2" height="2" x="280" y="-189" transform="matrix(0,1,-1,0,0,0)" style="fill:#bebebe;fill-opacity:1;stroke:none"/><rect id="rect5355" width="2" height="3" x="192" y="285" style="fill:#bebebe;fill-opacity:1;stroke:none"/><rect id="rect5373" width="2" height="2" x="283" y="-191" transform="matrix(0,1,-1,0,0,0)" style="fill:#bebebe;fill-opacity:1;stroke:none"/><rect id="rect5375" width="2" height="2" x="-290" y="-194" transform="matrix(0,-1,-1,0,0,0)" style="opacity:.3;fill:#bebebe;fill-opacity:1;stroke:none"/><rect id="rect5377" width="3" height="3" x="-288" y="-190.001" transform="matrix(3.3046512e-6,-1,-1,0,0,0)" style="opacity:.3;fill:#bebebe;fill-opacity:1;stroke:none"/><rect id="rect5379" width="2" height="3" x="-285" y="-189" transform="matrix(0,-1,-1,0,0,0)" style="opacity:.3;fill:#bebebe;fill-opacity:1;stroke:none"/><rect id="rect5382" width="2" height="2" x="288" y="-192" transform="matrix(0,1,-1,0,0,0)" style="fill:#bebebe;fill-opacity:1;stroke:none"/><rect id="rect5384" width="3" height="3" x="184" y="287" style="fill:#bebebe;fill-opacity:1;stroke:none"/></g></svg>