<svg xmlns="http://www.w3.org/2000/svg" xmlns:svg="http://www.w3.org/2000/svg" id="svg7384" width="16" height="16.05" version="1.1"><metadata id="metadata90"/><title id="title9167">Gnome Symbolic Icon Theme</title><defs id="defs7386"><filter id="filter12578-8" color-interpolation-filters="sRGB"><feGaussianBlur id="feGaussianBlur12580-4" stdDeviation=".015"/></filter><filter id="filter12586-1" color-interpolation-filters="sRGB"><feGaussianBlur id="feGaussianBlur12588-8" stdDeviation=".02"/></filter></defs><g id="layer9" transform="translate(-181.0002,-237)" style="display:inline"><rect id="rect29813" width="1" height="1" x="185" y="237" rx="0" ry=".5" style="fill:#bebebe;fill-opacity:1;stroke:none"/><rect id="rect29815" width="1" height="1" x="187" y="237" rx=".088" ry="0" style="fill:#bebebe;fill-opacity:1;stroke:none"/><rect id="rect29817" width="1" height="1" x="189" y="237" rx=".088" ry="0" style="fill:#bebebe;fill-opacity:1;stroke:none"/><rect id="rect29819" width="1" height="1" x="191" y="237" rx=".088" ry="0" style="fill:#bebebe;fill-opacity:1;stroke:none"/><rect id="rect29821" width="1" height="1" x="193" y="237" rx=".088" ry="0" style="fill:#bebebe;fill-opacity:1;stroke:none"/><rect id="rect29823" width="1" height="1" x="193" y="239" rx=".088" ry="0" style="fill:#bebebe;fill-opacity:1;stroke:none"/><rect id="rect29825" width="1" height="1" x="193" y="-242" rx=".088" ry="0" transform="scale(1,-1)" style="fill:#bebebe;fill-opacity:1;stroke:none"/><rect id="rect29827" width="1" height="1" x="193" y="-244" rx=".088" ry="0" transform="scale(1,-1)" style="fill:#bebebe;fill-opacity:1;stroke:none"/><rect id="rect29829" width="1" height="1" x="193" y="-246" rx=".088" ry="0" transform="scale(1,-1)" style="fill:#bebebe;fill-opacity:1;stroke:none"/><rect id="rect29831" width="1" height="1" x="183" y="-242" rx=".088" ry="0" transform="scale(1,-1)" style="fill:#bebebe;fill-opacity:1;stroke:none"/><rect id="rect29833" width="1" height="1" x="183" y="-240" rx=".088" ry="0" transform="scale(1,-1)" style="fill:#bebebe;fill-opacity:1;stroke:none"/><rect id="rect29835" width="1" height="1" x="183" y="-238" rx=".088" ry="0" transform="scale(1,-1)" style="fill:#bebebe;fill-opacity:1;stroke:none"/><path id="path29837" d="m -51,23.5 a 1.5,1.5 0 1 1 -3,0 1.5,1.5 0 1 1 3,0 z" transform="matrix(1.6666672,0,0,1.6666672,276.00023,202.33332)" style="fill:#bebebe;fill-opacity:1;stroke:none"/><path id="path29839" d="m 192.5002,248 c -1.37479,0 -2.5,1.13646 -2.5,2.525 0,1.38854 1.12521,2.525 2.5,2.525 1.37479,0 2.5,-1.13646 2.5,-2.525 0,-1.38854 -1.12521,-2.525 -2.5,-2.525 z m 0,1.01 c 0.83436,0 1.5,0.6723 1.5,1.515 0,0.8427 -0.66564,1.515 -1.5,1.515 -0.83436,0 -1.5,-0.6723 -1.5,-1.515 0,-0.8427 0.66564,-1.515 1.5,-1.515 z" style="font-size:medium;font-style:normal;font-variant:normal;font-weight:400;font-stretch:normal;text-indent:0;text-align:start;text-decoration:none;line-height:normal;letter-spacing:normal;word-spacing:normal;text-transform:none;direction:ltr;block-progression:tb;writing-mode:lr-tb;text-anchor:start;baseline-shift:baseline;color:#000;fill:#bebebe;fill-opacity:1;stroke:none;stroke-width:1;marker:none;visibility:visible;display:inline;overflow:visible;enable-background:accumulate;font-family:Sans;-inkscape-font-specification:Sans"/><path id="path29841" d="m -54,32 a 2,2 0 1 1 -4,0 2,2 0 1 1 4,0 z" transform="matrix(1.25,0,0,1.25,255.5002,210.5)" style="opacity:.3;fill:#bebebe;fill-opacity:1;stroke:none"/><rect id="rect29843" width="1" height="1" x="183" y="-244" rx=".088" ry="0" transform="scale(1,-1)" style="fill:#bebebe;fill-opacity:1;stroke:none"/><rect id="rect29845" width="1" height="1" x="183" y="-246" rx=".088" ry="0" transform="scale(1,-1)" style="fill:#bebebe;fill-opacity:1;stroke:none"/><rect id="rect29847" width="1" height="1" x="185" y="-246" rx=".088" ry="0" transform="scale(1,-1)" style="fill:#bebebe;fill-opacity:1;stroke:none"/><rect id="rect29849" width="1" height="1" x="187" y="-246" rx=".088" ry="0" transform="scale(1,-1)" style="fill:#bebebe;fill-opacity:1;stroke:none"/><rect id="rect29851" width="1" height="1" x="189" y="-246" rx=".088" ry="0" transform="scale(1,-1)" style="fill:#bebebe;fill-opacity:1;stroke:none"/><rect id="rect29853" width="1" height="1" x="191" y="-246" rx=".088" ry="0" transform="scale(1,-1)" style="fill:#bebebe;fill-opacity:1;stroke:none"/></g></svg>