<svg xmlns="http://www.w3.org/2000/svg" xmlns:svg="http://www.w3.org/2000/svg" id="svg7384" width="16" height="16" version="1.1"><metadata id="metadata90"/><title id="title9167">Gnome Symbolic Icon Theme</title><defs id="defs7386"><filter id="filter12578" color-interpolation-filters="sRGB"><feGaussianBlur id="feGaussianBlur12580" stdDeviation=".015"/></filter><filter id="filter12586" color-interpolation-filters="sRGB"><feGaussianBlur id="feGaussianBlur12588" stdDeviation=".02"/></filter></defs><g id="layer9" transform="translate(-61.000198,-177.02174)" style="display:inline"><g id="g9272" transform="matrix(0.8746234,0,0,0.89178327,86.926967,167.56161)" style="fill:#bebebe;fill-opacity:1;stroke:none"><path id="path9274" d="m -28.5,27.5711 c 3.111145,0.0011 2.79359,-3.323359 4.304166,-4.248979 1.750479,-1.072622 3.284496,0.256475 3.590759,1.350292 0.386445,1.380184 -0.337829,2.508685 -1.300323,3.118949 -1.846361,1.170674 -6.300039,0.898712 -6.594602,-0.220262 z" style="fill:#bebebe;fill-opacity:1;stroke:none"/></g><path id="path9264" d="m 76.416523,178.35668 c 0.308363,-0.6658 -0.16372,-0.92113 -0.732422,-0.35668 -3.998739,3.96884 -4.683901,4 -8.423828,9.14967 1.00355,0.0377 1.86506,0.68644 2.3125,1.62279 4.427427,-4.77246 4.92644,-7.33336 6.84375,-10.41578 z" style="fill:#bebebe;fill-opacity:1;stroke:none"/><rect id="rect63349" width="16" height="15.978" x="61" y="177.022" rx="1" ry="0" style="fill:none;stroke:none"/></g></svg>