<svg xmlns="http://www.w3.org/2000/svg" xmlns:svg="http://www.w3.org/2000/svg" id="svg7384" width="16.031" height="16" version="1.1"><metadata id="metadata90"/><title id="title9167">Gnome Symbolic Icon Theme</title><defs id="defs7386"><filter id="filter12578-8" color-interpolation-filters="sRGB"><feGaussianBlur id="feGaussianBlur12580-4" stdDeviation=".015"/></filter><filter id="filter12586-1" color-interpolation-filters="sRGB"><feGaussianBlur id="feGaussianBlur12588-8" stdDeviation=".02"/></filter></defs><g id="layer9" transform="translate(-80.984565,-217)" style="display:inline"><path id="path3908" d="m -174,-39.984375 a 2.015625,2.015625 0 1 1 -4.03125,0 2.015625,2.015625 0 1 1 4.03125,0 z" transform="matrix(0.99612528,0,0,0.99612528,258.326,260.83727)" style="color:#000;fill:#bebebe;fill-opacity:1;stroke:none;stroke-width:.99999976;marker:none;visibility:visible;display:inline;overflow:visible;enable-background:new"/><path id="path3910" d="m -174,-39.984375 a 2.015625,2.015625 0 1 1 -4.03125,0 2.015625,2.015625 0 1 1 4.03125,0 z" transform="matrix(0.98062141,0,0,0.98062141,255.56582,270.1861)" style="color:#000;fill:#bebebe;fill-opacity:1;fill-rule:nonzero;stroke:none;stroke-width:.99999976;marker:none;visibility:visible;display:inline;overflow:visible;enable-background:new"/><path id="path3912" d="m -174,-39.984375 a 2.015625,2.015625 0 1 1 -4.03125,0 2.015625,2.015625 0 1 1 4.03125,0 z" transform="matrix(0.96899291,0,0,0.96899291,265.62057,267.7602)" style="color:#000;fill:#bebebe;fill-opacity:1;fill-rule:nonzero;stroke:none;stroke-width:.99999976;marker:none;visibility:visible;display:inline;overflow:visible;enable-background:new"/><path id="path3914" d="m -174,-39.984375 a 2.015625,2.015625 0 1 1 -4.03125,0 2.015625,2.015625 0 1 1 4.03125,0 z" transform="matrix(0.96124033,0,0,0.96124033,263.27163,257.37209)" style="color:#000;fill:#bebebe;fill-opacity:1;fill-rule:nonzero;stroke:none;stroke-width:.99999976;marker:none;visibility:visible;display:inline;overflow:visible;enable-background:new"/><path id="rect3916" d="m 94.65625,218.125 -0.78125,0.125 -11,2 -0.625,0.125 0,0.625 0,10 0,1.59375 1.21875,-1.03125 5.625,-4.6875 5.5625,2.78125 1.21875,0.625 -0.125,-1.34375 -1,-10 -0.09375,-0.8125 z m -1.3125,1.78125 0.78125,7.8125 -4.78125,-2.375 -0.4375,-0.21875 -0.375,0.3125 -4.78125,4 0,-7.8125 9.59375,-1.71875 z" style="font-size:medium;font-style:normal;font-variant:normal;font-weight:400;font-stretch:normal;text-indent:0;text-align:start;text-decoration:none;line-height:normal;letter-spacing:normal;word-spacing:normal;text-transform:none;direction:ltr;block-progression:tb;writing-mode:lr-tb;text-anchor:start;baseline-shift:baseline;color:#000;fill:#bebebe;fill-opacity:1;stroke:none;stroke-width:1.5;marker:none;visibility:visible;display:inline;overflow:visible;enable-background:new;font-family:Sans;-inkscape-font-specification:Sans"/><path id="path38587" d="m -174,-39.984375 a 2.015625,2.015625 0 1 1 -4.03125,0 2.015625,2.015625 0 1 1 4.03125,0 z" transform="matrix(1.0116267,0,0,1.0116267,267.10136,266.50395)" style="color:#000;fill:#bebebe;fill-opacity:1;stroke:none;stroke-width:.99999976;marker:none;visibility:visible;display:inline;overflow:visible;enable-background:new"/></g></svg>