<svg xmlns="http://www.w3.org/2000/svg" xmlns:svg="http://www.w3.org/2000/svg" id="svg7384" width="16" height="16.031" version="1.1"><metadata id="metadata90"/><title id="title9167">Gnome Symbolic Icon Theme</title><defs id="defs7386"><filter id="filter12578-8" color-interpolation-filters="sRGB"><feGaussianBlur id="feGaussianBlur12580-4" stdDeviation=".015"/></filter><filter id="filter12586-1" color-interpolation-filters="sRGB"><feGaussianBlur id="feGaussianBlur12588-8" stdDeviation=".02"/></filter></defs><g id="layer9" transform="translate(-141.0002,-196.99995)" style="display:inline"><path id="path18623" d="m 144.0002,197 0,5 c 0.98484,-0.005 2.11512,0.018 3,0 l 2,0 -1.8125,-1.8125 0,-0.0313 c 0.3708,-0.72884 1.25531,-1.28125 2.375,-1.28125 1.49292,0 2.5625,1.00464 2.5625,2.0625 -0.0891,0.54181 0.38841,1.10428 0.9375,1.10428 0.54909,0 1.02661,-0.56247 0.9375,-1.10428 0,-2.25584 -2.06442,-3.9375 -4.4375,-3.9375 -1.53989,0 -2.94977,0.69891 -3.75,1.8125 z" style="fill:#bebebe;fill-opacity:1;stroke:none"/><path id="rect10846" d="m 144.78145,208 a 0.95009499,0.95009499 0 0 0 -0.78125,1.09375 c 0,2.25584 2.06442,3.9375 4.4375,3.9375 1.53988,0 2.94977,-0.69891 3.75,-1.8125 l 1.8125,1.8125 0,-5 -1.75,0 -0.0937,0 a 0.95009499,0.95009499 0 0 0 -0.46875,0 l -0.6875,0 -2,0 1.8125,1.8125 c -0.004,0.009 0.004,0.0226 0,0.0313 -0.3708,0.72884 -1.25531,1.28125 -2.375,1.28125 -1.49292,0 -2.5625,-1.00464 -2.5625,-2.0625 A 0.95009499,0.95009499 0 0 0 144.78145,208 z" style="fill:#bebebe;fill-opacity:1;stroke:none"/><rect id="rect18625" width="4" height="2" x="147" y="204" rx=".47" ry=".514" style="fill:#bebebe;fill-opacity:1;stroke:none"/></g></svg>