<svg xmlns="http://www.w3.org/2000/svg" xmlns:svg="http://www.w3.org/2000/svg" id="svg7384" width="16" height="16" version="1.1"><metadata id="metadata90"/><title id="title9167">Gnome Symbolic Icon Theme</title><defs id="defs7386"><filter id="filter12578-8" color-interpolation-filters="sRGB"><feGaussianBlur id="feGaussianBlur12580-4" stdDeviation=".015"/></filter><filter id="filter12586-1" color-interpolation-filters="sRGB"><feGaussianBlur id="feGaussianBlur12588-8" stdDeviation=".02"/></filter></defs><g id="layer9" transform="translate(-61.0002,-237)" style="display:inline"><rect id="rect3094" width="13.952" height="1" x="62" y="247" rx=".623" ry=".5" style="color:#000;fill:#bebebe;fill-opacity:1;fill-rule:nonzero;stroke:none;stroke-width:.99999928;marker:none;visibility:visible;display:block;overflow:visible"/><path id="path1348" d="M 73.239011,243.54894 70.526194,242 l -0.77509,0.77447 1.55018,1.93618 0.775091,4.64683 L 73.0002,251 l 0,2 1,-1 0.0139,-3.80423 z" style="color:#000;fill:#bebebe;fill-opacity:1;fill-rule:nonzero;stroke:none;stroke-width:.99999994;marker:none;visibility:visible;display:block;overflow:visible"/><path id="path3226" d="M 64.763968,243.54894 67.437156,242 l 0.763766,0.77447 -1.527534,1.93618 -0.763768,4.64683 L 65.0002,251 l 0,2 -1,-1 0,-3.80423 z" style="color:#000;fill:#bebebe;fill-opacity:1;fill-rule:nonzero;stroke:none;stroke-width:.99999994;marker:none;visibility:visible;display:block;overflow:visible"/><rect id="rect3078" width="2" height="1.996" x="68" y="237.004" rx=".75" ry=".6" style="color:#000;fill:#bebebe;fill-opacity:1;fill-rule:nonzero;stroke:none;stroke-width:1;marker:none;visibility:visible;display:block;overflow:visible"/><rect id="rect1344" width="2" height="3" x="68" y="246" rx="1.056" ry="1.106" style="color:#000;fill:#bebebe;fill-opacity:1;fill-rule:nonzero;stroke:none;stroke-width:.73919463;marker:none;visibility:visible;display:block;overflow:visible"/><path id="path5483" d="m 69.0002,238 c -1.65685,0 -3,1.34315 -3,3 0,1.65685 1.34315,3 3,3 1.65685,0 3,-1.34315 3,-3 0,-1.65685 -1.34315,-3 -3,-3 z m 0,1.46875 c 0.84518,0 1.53125,0.68607 1.53125,1.53125 0,0.84518 -0.68607,1.53125 -1.53125,1.53125 -0.84518,0 -1.53125,-0.68607 -1.53125,-1.53125 0,-0.84518 0.68607,-1.53125 1.53125,-1.53125 z" style="fill:#bebebe;fill-opacity:1;stroke:none"/></g></svg>