<svg xmlns="http://www.w3.org/2000/svg" xmlns:svg="http://www.w3.org/2000/svg" id="svg7384" width="16" height="16" version="1.1"><metadata id="metadata90"/><title id="title9167">Gnome Symbolic Icon Theme</title><defs id="defs7386"><filter id="filter12578-8" color-interpolation-filters="sRGB"><feGaussianBlur id="feGaussianBlur12580-4" stdDeviation=".015"/></filter><filter id="filter12586-1" color-interpolation-filters="sRGB"><feGaussianBlur id="feGaussianBlur12588-8" stdDeviation=".02"/></filter></defs><g id="layer9" transform="translate(-141.0002,-277)" style="display:inline"><path id="path5194" d="m 144.0002,277 3,4 3,-4 z" style="fill:#bebebe;fill-opacity:1;stroke:none"/><path id="path5196" d="m 144.0002,293 3,-4 3,4 z" style="fill:#bebebe;fill-opacity:1;stroke:none"/><path id="rect5198" d="m 142.0002,282 0,6 14,0 0,-6 z m 1,1 12,0 0,4 -12,0 c 0,-1.2 0,-0.2 0,-4 z" style="fill:#bebebe;fill-opacity:1;stroke:none"/><rect id="rect5201" width="3" height="4" x="147" y="283" style="opacity:.3;fill:#bebebe;fill-opacity:1;stroke:none"/><rect id="rect5203" width="1" height="1" x="146" y="284" style="opacity:.3;fill:#bebebe;fill-opacity:1;stroke:none"/><rect id="rect5205" width="1" height="1" x="146" y="286" style="opacity:.3;fill:#bebebe;fill-opacity:1;stroke:none"/><rect id="rect5211" width="2" height="4" x="153" y="283" style="fill:#bebebe;fill-opacity:1;stroke:none"/><rect id="rect5213" width="1" height="1" x="152" y="285" style="fill:#bebebe;fill-opacity:1;stroke:none"/><rect id="rect5217" width="1" height="1" x="152" y="283" style="fill:#bebebe;fill-opacity:1;stroke:none"/><rect id="rect5219" width="1" height="1" x="145" y="285" style="opacity:.3;fill:#bebebe;fill-opacity:1;stroke:none"/><rect id="rect5221" width="1" height="1" x="145" y="283" style="opacity:.3;fill:#bebebe;fill-opacity:1;stroke:none"/><rect id="rect5223" width="1" height="1" x="151" y="-287" transform="scale(1,-1)" style="fill:#bebebe;fill-opacity:1;stroke:none"/><rect id="rect5225" width="1" height="1" x="151" y="-285" transform="scale(1,-1)" style="fill:#bebebe;fill-opacity:1;stroke:none"/><rect id="rect5227" width="1" height="1" x="150" y="-284" transform="scale(1,-1)" style="fill:#bebebe;fill-opacity:1;stroke:none"/><rect id="rect5229" width="1" height="1" x="150" y="-286" transform="scale(1,-1)" style="fill:#bebebe;fill-opacity:1;stroke:none"/></g></svg>