<svg xmlns="http://www.w3.org/2000/svg" xmlns:svg="http://www.w3.org/2000/svg" id="svg7384" width="16" height="16" version="1.1"><metadata id="metadata90"/><title id="title9167">Gnome Symbolic Icon Theme</title><defs id="defs7386"><filter id="filter12578-8" color-interpolation-filters="sRGB"><feGaussianBlur id="feGaussianBlur12580-4" stdDeviation=".015"/></filter><filter id="filter12586-1" color-interpolation-filters="sRGB"><feGaussianBlur id="feGaussianBlur12588-8" stdDeviation=".02"/></filter></defs><g id="layer9" transform="translate(-141.0002,-177)" style="display:inline"><path id="rect18654" d="m 149.0002,180.15625 -2.46875,1.8125 c 0.009,-0.0122 -0.0298,-0.0176 -0.28125,0.0312 -4,0.77746 -4.25,1.65728 -4.25,3 l 0,5 c 0,0.554 0.446,1 1,1 0.554,0 1,-0.446 1,-1 l 0,-6.1875 1.28125,1.875 1.0625,1.5625 2.78125,4.15625 c 0.38364,0.5682 1.0736,0.76981 1.53125,0.4375 L 155.6252,188.25 c 0.45762,-0.33233 0.50866,-1.05678 0.125,-1.625 l -2.75,-4.0625 0,1.4375 c 0,1.10457 -0.89543,2 -2,2 -1.10457,0 -2,-0.89543 -2,-2 l 0,-3.84375 z" style="fill:#bebebe;fill-opacity:1;stroke:none;display:inline"/><rect id="rect18680" width="1.997" height="8" x="150.003" y="177" rx="1" ry="1" style="fill:#bebebe;fill-opacity:1;stroke:none"/></g></svg>