<svg xmlns="http://www.w3.org/2000/svg" xmlns:svg="http://www.w3.org/2000/svg" id="svg7384" width="16" height="16" version="1.1"><metadata id="metadata90"/><title id="title9167">Gnome Symbolic Icon Theme</title><defs id="defs7386"><filter id="filter12578-8" color-interpolation-filters="sRGB"><feGaussianBlur id="feGaussianBlur12580-4" stdDeviation=".015"/></filter><filter id="filter12586-1" color-interpolation-filters="sRGB"><feGaussianBlur id="feGaussianBlur12588-8" stdDeviation=".02"/></filter></defs><g id="layer9" transform="translate(-161.0002,-237)" style="display:inline"><path id="path20580-1" d="m 52,342.5 a 2.5,2.5 0 1 1 -5,0 2.5,2.5 0 1 1 5,0 z" transform="translate(118.0002,-98)" style="color:#bebebe;fill:#bebebe;fill-opacity:1;fill-rule:nonzero;stroke:none;stroke-width:2;marker:none;visibility:visible;display:inline;overflow:visible;enable-background:accumulate"/><path id="path78052" d="m 165.0002,247 c -1,0 -2,0 -2,1 0,0.92264 0,3 0,3 l 2,0 7,0 0,-2 0,-1 c 0,-1 -1,-1 -2,-1 l 0,1 -5,0 z" style="fill:#bebebe;fill-opacity:1;stroke:none"/><path id="rect16664" d="m 165.0002,237 0,2 10,0 0,7 2,0 0,-9 -12,0 z" style="opacity:.3;fill:#bebebe;fill-opacity:1;stroke:none"/><rect id="rect16666" width="1" height="1" x="161" y="240" style="fill:#bebebe;fill-opacity:1;stroke:none"/><rect id="rect16668" width="1" height="1" x="163" y="240" style="fill:#bebebe;fill-opacity:1;stroke:none"/><rect id="rect16670" width="1" height="1" x="165" y="240" style="fill:#bebebe;fill-opacity:1;stroke:none"/><rect id="rect16672" width="1" height="1" x="167" y="240" style="fill:#bebebe;fill-opacity:1;stroke:none"/><rect id="rect16674" width="1" height="1" x="169" y="240" style="fill:#bebebe;fill-opacity:1;stroke:none"/><rect id="rect16676" width="1" height="1" x="171" y="240" style="fill:#bebebe;fill-opacity:1;stroke:none"/><rect id="rect16678" width="1" height="1" x="173" y="240" style="fill:#bebebe;fill-opacity:1;stroke:none"/><rect id="rect16682" width="1" height="1" x="173" y="242" style="fill:#bebebe;fill-opacity:1;stroke:none"/><rect id="rect16684" width="1" height="1" x="173" y="244" style="fill:#bebebe;fill-opacity:1;stroke:none"/><rect id="rect16686" width="1" height="1" x="173" y="246" style="fill:#bebebe;fill-opacity:1;stroke:none"/><rect id="rect16688" width="1" height="1" x="173" y="248" style="fill:#bebebe;fill-opacity:1;stroke:none"/><rect id="rect16690" width="1" height="1" x="173" y="250" style="fill:#bebebe;fill-opacity:1;stroke:none"/><rect id="rect16692" width="1" height="1" x="171" y="252" style="fill:#bebebe;fill-opacity:1;stroke:none"/><rect id="rect16694" width="1" height="1" x="169" y="252" style="fill:#bebebe;fill-opacity:1;stroke:none"/><rect id="rect16696" width="1" height="1" x="173" y="252" style="fill:#bebebe;fill-opacity:1;stroke:none"/><rect id="rect16700" width="1" height="1" x="161" y="242" style="fill:#bebebe;fill-opacity:1;stroke:none"/><rect id="rect16702" width="1" height="1" x="161" y="244" style="fill:#bebebe;fill-opacity:1;stroke:none"/><rect id="rect16704" width="1" height="1" x="161" y="246" style="fill:#bebebe;fill-opacity:1;stroke:none"/><rect id="rect16706" width="1" height="1" x="161" y="248" style="fill:#bebebe;fill-opacity:1;stroke:none"/><rect id="rect16708" width="1" height="1" x="161" y="250" style="fill:#bebebe;fill-opacity:1;stroke:none"/><rect id="rect16710" width="1" height="1" x="161" y="252" style="fill:#bebebe;fill-opacity:1;stroke:none"/><rect id="rect16712" width="1" height="1" x="163" y="252" style="fill:#bebebe;fill-opacity:1;stroke:none"/><rect id="rect16714" width="1" height="1" x="165" y="252" style="fill:#bebebe;fill-opacity:1;stroke:none"/><rect id="rect16716" width="1" height="1" x="167" y="252" style="fill:#bebebe;fill-opacity:1;stroke:none"/></g></svg>