<svg xmlns="http://www.w3.org/2000/svg" xmlns:svg="http://www.w3.org/2000/svg" id="svg7384" width="16" height="16" version="1.1"><metadata id="metadata90"/><title id="title9167">Gnome Symbolic Icon Theme</title><defs id="defs7386"><filter id="filter12578-8" color-interpolation-filters="sRGB"><feGaussianBlur id="feGaussianBlur12580-4" stdDeviation=".015"/></filter><filter id="filter12586-1" color-interpolation-filters="sRGB"><feGaussianBlur id="feGaussianBlur12588-8" stdDeviation=".02"/></filter></defs><g id="layer9" transform="translate(-161.0002,-277)" style="display:inline"><path id="rect5204" d="m 162.0002,278 0,14 14,0 0,-14 -14,0 z m 1,1 12,0 0,12 -12,0 0,-12 z" style="fill:#bebebe;fill-opacity:1;stroke:none"/><path id="path5209" d="m 164.0002,282 1,-1 0,5 1,-2 1,2 0,-4 1,0 0,1 1,1 0,1 1,1 1,-1 0,-2 1,1 0,0 0,-4 1,1 0,2 1,1 0,4 -10,0 z" style="fill:#bebebe;fill-opacity:1;stroke:none"/><rect id="rect5216" width="10" height="1" x="164" y="289" style="fill:#bebebe;fill-opacity:1;stroke:none"/></g></svg>