<svg xmlns="http://www.w3.org/2000/svg" xmlns:svg="http://www.w3.org/2000/svg" id="svg7384" width="16" height="16" version="1.1"><metadata id="metadata90"/><title id="title9167">Gnome Symbolic Icon Theme</title><defs id="defs7386"><filter id="filter12578-8" color-interpolation-filters="sRGB"><feGaussianBlur id="feGaussianBlur12580-4" stdDeviation=".015"/></filter><filter id="filter12586-1" color-interpolation-filters="sRGB"><feGaussianBlur id="feGaussianBlur12588-8" stdDeviation=".02"/></filter></defs><g id="layer9" transform="translate(-61.0002,-217)" style="display:inline"><path id="path4066" d="m 72.15645,218 c -0.07885,0.0161 -0.1595,0.0696 -0.21875,0.125 l -4.28125,4 4.03125,4.34375 4.15625,-3.875 c 0.23699,-0.22144 0.17839,-0.68283 -0.125,-1.03125 L 72.9377,218.34375 C 72.71016,218.08243 72.39301,217.95166 72.15645,218 z" style="fill:#bebebe;fill-opacity:1;stroke:none"/><path id="rect34152" d="m 66.5002,223.21875 -2.34375,2.1875 c -0.23699,0.22144 -0.20964,0.68283 0.09375,1.03125 l 2.8125,3.21875 c 0.30339,0.34842 0.73176,0.44019 0.96875,0.21875 l 2.46875,-2.3125 -4,-4.34375 z" style="fill:#bebebe;fill-opacity:1;stroke:none"/><path id="rect34161" d="m 69.7002,231 c -0.3878,0 -0.7,0.223 -0.7,0.5 0,0.277 0.3122,0.5 0.7,0.5 l 1.4,0 4.2,0 0.7,0 0,-0.5 0,-0.5 -0.7,0 -4.2,0 -1.4,0 z" style="fill:#bebebe;fill-opacity:1;stroke:none"/><path id="path34166" d="m 64.3002,231 c 0.3878,0 0.7,0.223 0.7,0.5 0,0.277 -0.3122,0.5 -0.7,0.5 -2.1,0 -2,0 -2.3,0 l 0,-0.5 0,-0.5 c 0,0 0.2,0 2.3,0 z" style="fill:#bebebe;fill-opacity:1;stroke:none"/></g></svg>