<svg xmlns="http://www.w3.org/2000/svg" xmlns:svg="http://www.w3.org/2000/svg" id="svg7384" width="16" height="16" version="1.1"><metadata id="metadata90"/><title id="title9167">Gnome Symbolic Icon Theme</title><defs id="defs7386"><filter id="filter12578-8" color-interpolation-filters="sRGB"><feGaussianBlur id="feGaussianBlur12580-4" stdDeviation=".015"/></filter><filter id="filter12586-1" color-interpolation-filters="sRGB"><feGaussianBlur id="feGaussianBlur12588-8" stdDeviation=".02"/></filter></defs><g id="layer9" transform="translate(-141.0002,-237)" style="display:inline"><rect id="rect10503" width="9.944" height="1" x="147.056" y="242" style="fill:#bebebe;fill-opacity:1;stroke:none"/><rect id="rect10505" width="9.944" height=".976" x="146.999" y="251" style="fill:#bebebe;fill-opacity:1;stroke:none"/><rect id="rect10507" width="1" height="10" x="147" y="242" style="fill:#bebebe;fill-opacity:1;stroke:none"/><rect id="rect10509" width="1" height="9.895" x="156" y="242.105" style="fill:#bebebe;fill-opacity:1;stroke:none"/><rect id="rect10511" width="9.944" height="1" x="142" y="238" style="fill:#bebebe;fill-opacity:1;stroke:none"/><rect id="rect10513" width="9.944" height=".976" x="141.999" y="247" style="fill:#bebebe;fill-opacity:1;stroke:none"/><rect id="rect10515" width="1" height="10" x="142" y="238" style="fill:#bebebe;fill-opacity:1;stroke:none"/><rect id="rect10517" width="1" height="10" x="151" y="238" style="fill:#bebebe;fill-opacity:1;stroke:none"/><path id="path10519" d="m 142.0002,239 5,4 1,-1 -5,-4 z" style="fill:#bebebe;fill-opacity:1;stroke:none"/><path id="path10521" d="m 151.0002,239 5,4 1,-1 -5,-4 z" style="fill:#bebebe;fill-opacity:1;stroke:none"/><path id="path10523" d="m 142.0002,248 5,4 1,-1 -5,-4 z" style="fill:#bebebe;fill-opacity:1;stroke:none"/><path id="path10526" d="m 151.0002,248 5,4 1,-1 -5,-4 z" style="fill:#bebebe;fill-opacity:1;stroke:none"/></g></svg>