<svg xmlns="http://www.w3.org/2000/svg" xmlns:svg="http://www.w3.org/2000/svg" id="svg7384" width="16" height="16" version="1.1"><metadata id="metadata90"/><title id="title9167">Gnome Symbolic Icon Theme</title><defs id="defs7386"><filter id="filter12578" color-interpolation-filters="sRGB"><feGaussianBlur id="feGaussianBlur12580" stdDeviation=".015"/></filter><filter id="filter12586" color-interpolation-filters="sRGB"><feGaussianBlur id="feGaussianBlur12588" stdDeviation=".02"/></filter></defs><g id="layer9" transform="translate(-101.0002,-177)" style="display:inline"><path id="path82005" d="m 109.0002,193 0,-2 5,0 0,2 0,0 z" style="fill:#bebebe;fill-opacity:1;stroke:none"/><path id="path10153" d="m 110.0002,178 0,2 c 0,0 -2,2 -2,6 1,1.64645 1,2.46404 1,3 l 0,1 5,0 0,-1 c 0,-0.51386 0,-1.41985 1,-3 0,-4 -2,-6 -2,-6 l 0,-2 -1,0 0,4.96875 c 0.61839,0.20534 1.0625,0.78143 1.0625,1.46875 0,0.85863 -0.70387,1.5625 -1.5625,1.5625 -0.85863,0 -1.5625,-0.70387 -1.5625,-1.5625 0,-0.68059 0.45353,-1.25813 1.0625,-1.46875 l 0,-4.96875 -1,0 z" style="fill:#bebebe;fill-opacity:1;stroke:none"/><path id="path82013" d="m -134,-31 a 3,3 0 1 1 -6,0 3,3 0 1 1 6,0 z" transform="matrix(0.55535907,0,0,0.56082815,180.61831,201.86931)" style="fill:#bebebe;fill-opacity:1;stroke:none"/><rect id="rect82017" width="1" height="10.729" x="104" y="180" style="fill:#bebebe;fill-opacity:1;stroke:none"/><rect id="rect82019" width="3" height="3" x="103" y="177" style="fill:#bebebe;fill-opacity:1;stroke:none"/><rect id="rect82023" width="3" height="3" x="103" y="-193" transform="scale(1,-1)" style="fill:#bebebe;fill-opacity:1;stroke:none"/></g></svg>