<svg xmlns="http://www.w3.org/2000/svg" xmlns:svg="http://www.w3.org/2000/svg" id="svg7384" width="16" height="16" version="1.1"><metadata id="metadata90"/><title id="title9167">Gnome Symbolic Icon Theme</title><defs id="defs7386"><filter id="filter12578-8" color-interpolation-filters="sRGB"><feGaussianBlur id="feGaussianBlur12580-4" stdDeviation=".015"/></filter><filter id="filter12586-1" color-interpolation-filters="sRGB"><feGaussianBlur id="feGaussianBlur12588-8" stdDeviation=".02"/></filter></defs><g id="layer9" transform="translate(-141.0002,-217)" style="display:inline"><g id="g12900" transform="matrix(0.13687821,0,0,-0.13687821,68.843525,244.68735)" style="fill:#bebebe;fill-opacity:1"><path id="path12902" d="m 591.02643,194.97151 c -15.23997,-1e-5 -27.83544,-5.51449 -38.09985,-14.61154 -5.04435,-4.47065 -5.53963,-12.57301 0,-14.61153 l 0,0 0,0 c -2.55481,-2.36345 -3.22875,-5.93593 -1.47905,-9.4527 l 1.47905,-2.16889 c 1.94332,-2.00411 5.00063,-2.76163 5.00063,-2.76163 l 0,0 c -2.5548,-2.84775 -2.24637,-7.12882 0.71438,-9.58881 l 1.19062,-1.14153 c 2.96074,-2.46 7.44639,-2.16284 10.0012,0.68492 0,0 -0.50323,-0.5819 0,0 l -25.47925,-28.30984 c -8.39074,-7.503 5.62719,-19.245454 14.0493,-10.27373 l 34.05171,36.07221 6.19122,6.39254 c 8.24578,8.63789 24.74698,-11.25858 7.61992,-15.98136 0,0 -7.07916,-0.51711 -14.52551,-0.22831 -5.88688,0.22831 -10.4278,-16.39785 9.28683,-14.38322 29.71831,-0.40817 35.71853,29.22306 35.71857,43.60629 -4e-5,29.45136 -22.85992,36.75712 -45.71977,36.75713 z" style="fill:#bebebe;fill-opacity:1;fill-rule:nonzero;stroke:none"/></g></g></svg>