<svg xmlns="http://www.w3.org/2000/svg" xmlns:svg="http://www.w3.org/2000/svg" id="svg7384" width="16" height="15.976" version="1.1"><metadata id="metadata90"/><title id="title9167">Gnome Symbolic Icon Theme</title><defs id="defs7386"><filter id="filter12578-8" color-interpolation-filters="sRGB"><feGaussianBlur id="feGaussianBlur12580-4" stdDeviation=".015"/></filter><filter id="filter12586-1" color-interpolation-filters="sRGB"><feGaussianBlur id="feGaussianBlur12588-8" stdDeviation=".02"/></filter></defs><g id="layer9" transform="translate(-81.000198,-237)" style="display:inline"><rect id="rect5537" width="16" height="15.976" x="81" y="237" rx=".75" ry="0" style="fill:none;stroke:none"/><path id="rect5543" d="m 83.0002,248 0,3 6,0 -2,-3 -4,0 z m 6,3 6,0 0,-3 -4,0 -2,3 z" style="fill:#bebebe;fill-opacity:1;stroke:none"/><path id="rect5545" d="m 84.000198,247.22414 c 0,0 4.000002,0 4.000002,-3.87931 1,-0.77586 2,0 2,0 0,3.87931 3.999998,3.87931 3.999998,3.87931 l 0,0.77586 -10,0 z" style="fill:#bebebe;fill-opacity:1;stroke:none"/><path id="path5547" d="m -148,24 a 3.5,2 0 1 1 -7,0 3.5,2 0 1 1 7,0 z" transform="matrix(0.57142911,0,0,1,175.57171,218)" style="fill:#bebebe;fill-opacity:1;stroke:none"/></g></svg>