<svg xmlns="http://www.w3.org/2000/svg" xmlns:svg="http://www.w3.org/2000/svg" id="svg7384" width="16" height="16" version="1.1"><metadata id="metadata90"/><title id="title9167">Gnome Symbolic Icon Theme</title><g id="layer9" transform="translate(-41.0002,-177)" style="display:inline"><path id="path2948" d="m 56.219002,178.49071 c 0,0 -4.254629,1.9177 -6.106401,3.30652 l -2.453226,1.83992 -1.140149,1.82565 c -0.435505,0.15097 -0.519026,0.93046 -0.519026,1.15497 0,0.28359 0.234102,0.51848 0.518472,0.51848 0.225133,0 0.961416,-0.0445 1.087372,-0.4059 l 1.768251,0.16972 0.474377,-0.34414 0.431021,0.51707 1.159563,-0.8993 -0.422147,-0.50839 L 52.0002,185 c 1.934572,-1.30922 4.785442,-5.84932 4.785442,-5.84932 0.326599,-0.37991 -0.09485,-0.90453 -0.56664,-0.65997 z" style="fill:#bebebe;fill-opacity:1;stroke:none;display:inline"/><path id="path4595" d="m 55.5625,186.25 c 0,0 -0.348057,0.84375 -1.28125,0.84375 -0.446845,0 -0.854854,0.25458 -1.03125,0.5625 -0.176396,0.30792 -0.208543,0.592 -0.25,0.84375 -0.04146,0.25175 -0.09375,0.47733 -0.125,0.53125 -0.03125,0.0539 0.06513,0.0128 -0.09375,0 -0.01636,-0.001 -0.15152,-0.0827 -0.25,-0.28125 -0.04924,-0.0993 -0.0789,-0.21584 -0.09375,-0.28125 0.02231,-0.0628 0.05907,-0.12933 0.0625,-0.1875 0.0083,-0.14058 -0.02701,-0.25016 -0.0625,-0.34375 -0.07098,-0.18718 -0.182802,-0.31567 -0.28125,-0.4375 C 51.959353,187.25634 51.75,187.0625 51.75,187.0625 l -0.65625,0.75 c 0,0 0.156067,0.15759 0.28125,0.3125 0.05537,0.0685 0.113375,0.13372 0.125,0.15625 0.0015,0.003 -4.38e-4,0.0301 0,0.0312 0.0025,0.0428 -0.06355,0.1251 -0.0625,0.15625 0.0029,0.0847 0.01386,0.14216 0.03125,0.21875 0.03478,0.15319 0.06947,0.32499 0.15625,0.5 0.17357,0.35002 0.485502,0.7972 1.0625,0.84375 0.434475,0.0351 0.88635,-0.19603 1.0625,-0.5 0.17615,-0.30397 0.177682,-0.59436 0.21875,-0.84375 0.04107,-0.24939 0.113903,-0.45733 0.15625,-0.53125 0.04235,-0.0739 -0.01295,-0.0625 0.15625,-0.0625 1.531007,0 2.1875,-1.40625 2.1875,-1.40625 L 55.5625,186.25 z" style="font-size:medium;font-style:normal;font-variant:normal;font-weight:400;font-stretch:normal;text-indent:0;text-align:start;text-decoration:none;line-height:normal;letter-spacing:normal;word-spacing:normal;text-transform:none;direction:ltr;block-progression:tb;writing-mode:lr-tb;text-anchor:start;baseline-shift:baseline;color:#000;fill:#bebebe;fill-opacity:1;stroke:none;stroke-width:1px;marker:none;visibility:visible;display:inline;overflow:visible;enable-background:accumulate;font-family:Sans;-inkscape-font-specification:Sans"/><rect id="rect3269" width="1" height="1" x="45" y="187" style="opacity:.5;color:#000;fill:#bebebe;fill-opacity:1;fill-rule:evenodd;stroke:none;stroke-width:1;marker:none;visibility:visible;display:inline;overflow:visible;enable-background:new"/><rect id="rect3271" width="1" height="1" x="44" y="188" style="opacity:.4;color:#000;fill:#bebebe;fill-opacity:1;fill-rule:evenodd;stroke:none;stroke-width:1;marker:none;visibility:visible;display:inline;overflow:visible;enable-background:new"/><rect id="rect3273" width="1" height="1" x="45" y="189" style="opacity:.3;color:#000;fill:#bebebe;fill-opacity:1;fill-rule:evenodd;stroke:none;stroke-width:1;marker:none;visibility:visible;display:inline;overflow:visible;enable-background:new"/><rect id="rect3275" width="1" height="1" x="44" y="190" style="opacity:.1;color:#000;fill:#bebebe;fill-opacity:1;fill-rule:evenodd;stroke:none;stroke-width:1;marker:none;visibility:visible;display:inline;overflow:visible;enable-background:new"/><rect id="rect3277" width="1" height="1" x="43" y="189" style="opacity:.28395063;color:#000;fill:#bebebe;fill-opacity:1;fill-rule:evenodd;stroke:none;stroke-width:1;marker:none;visibility:visible;display:inline;overflow:visible;enable-background:new"/><rect id="rect4084" width="1" height="1" x="42" y="190" style="opacity:.23868312;color:#000;fill:#bebebe;fill-opacity:1;fill-rule:evenodd;stroke:none;stroke-width:1;marker:none;visibility:visible;display:inline;overflow:visible;enable-background:new"/><rect id="rect4086" width="1" height="1" x="41" y="189" style="opacity:.05;color:#000;fill:#bebebe;fill-opacity:1;fill-rule:evenodd;stroke:none;stroke-width:1;marker:none;visibility:visible;display:inline;overflow:visible;enable-background:new"/><rect id="rect4088" width="1" height="1" x="42" y="188" style="opacity:.05;color:#000;fill:#bebebe;fill-opacity:1;fill-rule:evenodd;stroke:none;stroke-width:1;marker:none;visibility:visible;display:inline;overflow:visible;enable-background:new"/><rect id="rect4090" width="1" height="1" x="43" y="191" style="opacity:.05;color:#000;fill:#bebebe;fill-opacity:1;fill-rule:evenodd;stroke:none;stroke-width:1;marker:none;visibility:visible;display:inline;overflow:visible;enable-background:new"/><rect id="rect4092" width="1" height="1" x="41" y="191" style="opacity:.05;color:#000;fill:#bebebe;fill-opacity:1;fill-rule:evenodd;stroke:none;stroke-width:1;marker:none;visibility:visible;display:inline;overflow:visible;enable-background:new"/><rect id="rect4094" width="1" height="1" x="42" y="192" style="opacity:.05;color:#000;fill:#bebebe;fill-opacity:1;fill-rule:evenodd;stroke:none;stroke-width:1;marker:none;visibility:visible;display:inline;overflow:visible;enable-background:new"/><rect id="rect4096" width="1" height="1" x="44" y="192" style="opacity:.05;color:#000;fill:#bebebe;fill-opacity:1;fill-rule:evenodd;stroke:none;stroke-width:1;marker:none;visibility:visible;display:inline;overflow:visible;enable-background:new"/></g></svg>