<svg xmlns="http://www.w3.org/2000/svg" xmlns:svg="http://www.w3.org/2000/svg" id="svg7384" width="16" height="16" version="1.1"><metadata id="metadata90"/><title id="title9167">Gnome Symbolic Icon Theme</title><defs id="defs7386"><filter id="filter12578-8" color-interpolation-filters="sRGB"><feGaussianBlur id="feGaussianBlur12580-4" stdDeviation=".015"/></filter><filter id="filter12586-1" color-interpolation-filters="sRGB"><feGaussianBlur id="feGaussianBlur12588-8" stdDeviation=".02"/></filter></defs><g id="layer9" transform="translate(-41.000198,-297)" style="display:inline"><rect id="rect5422" width="14" height="1" x="42" y="307" style="fill:#bebebe;fill-opacity:1;stroke:none"/><path id="path5424" d="m 44.0002,309 -2,3 4,0 z" style="fill:#bebebe;fill-opacity:1;stroke:none"/><path id="path5424-6" d="m 54.0002,309 -2,3 4,0 z" style="fill:#bebebe;fill-opacity:1;stroke:none;display:inline"/><path id="rect5444" d="m 42.0002,297 0,8 14,0 0,-8 -14,0 z m 1,1 12,0 0,6 -12,0 0,-6 z" style="fill:#bebebe;fill-opacity:1;stroke:none"/><path id="path5449" d="m 43.0002,304 0.625,-0.53125 0.375,-0.46875 1,0 0,0 1,-1 1,0 1,1 1,0 0.46875,1 0.90625,0 0.625,-1 1,-1 0,-1 0,0 0,0 0,0 1,1 1,1 0,0 1,0.40625 0,0.59375 z" style="fill:#bebebe;fill-opacity:1;stroke:none"/></g></svg>