<svg xmlns="http://www.w3.org/2000/svg" xmlns:svg="http://www.w3.org/2000/svg" id="svg7384" width="16.063" height="16" version="1.1"><metadata id="metadata90"/><title id="title9167">Gnome Symbolic Icon Theme</title><defs id="defs7386"><filter id="filter12578-8" color-interpolation-filters="sRGB"><feGaussianBlur id="feGaussianBlur12580-4" stdDeviation=".015"/></filter><filter id="filter12586-1" color-interpolation-filters="sRGB"><feGaussianBlur id="feGaussianBlur12588-8" stdDeviation=".02"/></filter></defs><g id="layer9" transform="translate(-160.95683,-177)" style="display:inline"><path id="rect18742" d="m 170.0002,184 c -0.554,0 -1,0.25455 -1,0.5625 l 0,0.875 c 0,0.30795 0.446,0.5625 1,0.5625 l -2,0 c -0.55161,0 -1.1024,0.53053 -0.96875,1.15625 l 0.96875,4.6875 c 0.13364,0.62572 0.44842,1.15625 1,1.15625 l 6,0 c 0.5516,0 0.86637,-0.53053 1,-1.15625 l 1,-4.6875 c 0.13364,-0.62572 -0.4484,-1.15625 -1,-1.15625 l -2,0 c 0.554,0 1,-0.25455 1,-0.5625 l 0,-0.875 c 0,-0.30795 -0.446,-0.5625 -1,-0.5625 l -4,0 z" style="fill:#bebebe;fill-opacity:1;stroke:none"/><path id="path23470" d="m 168.0002,177 c 0,0 -1.29469,0.17681 -2.66667,1 -3.33333,2 -4.33333,5.47931 -4.33333,7 -0.34375,4.09375 1.46875,5 1.46875,5 0.0937,2 0.53125,3 0.53125,3 1,-1 1,-1 1,-1 0,0 -1,-2.5 1,-3 -0.5,-5 -0.10417,-9 3,-12 z" style="fill:#bebebe;fill-opacity:1;stroke:none"/></g></svg>