<svg xmlns="http://www.w3.org/2000/svg" xmlns:svg="http://www.w3.org/2000/svg" xmlns:xlink="http://www.w3.org/1999/xlink" id="svg2" width="407.294" height="407.294" version="1.1"><defs id="defs4"><linearGradient id="linearGradient6163"><stop style="stop-color:#fff;stop-opacity:1" id="stop6165" offset="0"/><stop style="stop-color:#fff;stop-opacity:0" id="stop6167" offset="1"/></linearGradient><linearGradient id="linearGradient6078"><stop style="stop-color:#edd400;stop-opacity:1" id="stop6080" offset="0"/><stop style="stop-color:#edd400;stop-opacity:0" id="stop6082" offset="1"/></linearGradient><linearGradient id="linearGradient6064"><stop style="stop-color:#624601;stop-opacity:1" id="stop6066" offset="0"/><stop id="stop6072" offset=".501" style="stop-color:#ac8301;stop-opacity:1"/><stop style="stop-color:#ebc000;stop-opacity:1" id="stop6068" offset="1"/></linearGradient><linearGradient id="linearGradient6056"><stop style="stop-color:#fdf295;stop-opacity:1" id="stop6058" offset="0"/><stop style="stop-color:#fdf295;stop-opacity:0" id="stop6060" offset="1"/></linearGradient><linearGradient id="linearGradient5898"><stop style="stop-color:#ffe470;stop-opacity:1" id="stop5900" offset="0"/><stop style="stop-color:#fce94f;stop-opacity:.56902355" id="stop5902" offset="1"/></linearGradient><linearGradient id="linearGradient5888"><stop style="stop-color:#fef9cc;stop-opacity:1" id="stop5890" offset="0"/><stop style="stop-color:#fef9cc;stop-opacity:0" id="stop5892" offset="1"/></linearGradient><linearGradient id="linearGradient5706"><stop style="stop-color:#8f5902;stop-opacity:1" id="stop5708" offset="0"/><stop style="stop-color:#c4a000;stop-opacity:1" id="stop5710" offset="1"/></linearGradient><linearGradient id="linearGradient5694"><stop id="stop5696" offset="0" style="stop-color:#c4a000;stop-opacity:1"/><stop id="stop5698" offset="1" style="stop-color:#dfbd00;stop-opacity:1"/></linearGradient><linearGradient id="linearGradient5668"><stop style="stop-color:#fef9cc;stop-opacity:1" id="stop5670" offset="0"/><stop style="stop-color:#fce94f;stop-opacity:0" id="stop5672" offset="1"/></linearGradient><linearGradient id="linearGradient5616"><stop style="stop-color:#c48b00;stop-opacity:1" id="stop5618" offset="0"/><stop style="stop-color:#c48b00;stop-opacity:0" id="stop5620" offset="1"/></linearGradient><linearGradient id="linearGradient5436"><stop style="stop-color:#fff;stop-opacity:1" id="stop5438" offset="0"/><stop style="stop-color:#fff;stop-opacity:0" id="stop5440" offset="1"/></linearGradient><linearGradient id="linearGradient5406"><stop style="stop-color:#fff;stop-opacity:0" id="stop5408" offset="0"/><stop style="stop-color:#fff;stop-opacity:1" id="stop5410" offset="1"/></linearGradient><linearGradient id="linearGradient5270"><stop style="stop-color:#ffe613;stop-opacity:1" id="stop5272" offset="0"/><stop id="stop5278" offset=".734" style="stop-color:#f9e00d;stop-opacity:1"/><stop style="stop-color:#edd400;stop-opacity:1" id="stop5274" offset="1"/></linearGradient><linearGradient id="linearGradient5264"><stop id="stop5266" offset="0" style="stop-color:#edd400;stop-opacity:1"/><stop id="stop5268" offset="1" style="stop-color:#d3bd00;stop-opacity:1"/></linearGradient><linearGradient id="linearGradient4987"><stop style="stop-color:#000;stop-opacity:1" id="stop4989" offset="0"/><stop style="stop-color:#000;stop-opacity:0" id="stop4991" offset="1"/></linearGradient><linearGradient id="linearGradient4825"><stop id="stop4827" offset="0" style="stop-color:#fcea58;stop-opacity:1"/><stop id="stop4829" offset="1" style="stop-color:#fce94f;stop-opacity:.71043772"/></linearGradient><linearGradient id="linearGradient4703"><stop style="stop-color:#edd400;stop-opacity:1" id="stop4705" offset="0"/><stop style="stop-color:#d1bb00;stop-opacity:1" id="stop4707" offset="1"/></linearGradient><linearGradient id="linearGradient4403"><stop style="stop-color:#fce94f;stop-opacity:1" id="stop4405" offset="0"/><stop style="stop-color:#edd400;stop-opacity:1" id="stop4407" offset="1"/></linearGradient><linearGradient id="linearGradient4250"><stop style="stop-color:#c4a000;stop-opacity:1" id="stop4252" offset="0"/><stop style="stop-color:#6a5700;stop-opacity:1" id="stop4254" offset="1"/></linearGradient><linearGradient id="linearGradient4210"><stop style="stop-color:#fef5af;stop-opacity:1" id="stop4212" offset="0"/><stop id="stop5448" offset=".313" style="stop-color:#fdf089;stop-opacity:.61568627"/><stop id="stop5444" offset=".686" style="stop-color:#f9e00f;stop-opacity:.46464646"/><stop style="stop-color:#fce94f;stop-opacity:0" id="stop4214" offset="1"/></linearGradient><linearGradient id="linearGradient4120"><stop style="stop-color:#ffe50f;stop-opacity:1" id="stop4122" offset="0"/><stop id="stop4128" offset=".8" style="stop-color:#edd400;stop-opacity:.91372549"/><stop style="stop-color:#edd400;stop-opacity:0" id="stop4124" offset="1"/></linearGradient><linearGradient id="linearGradient4104"><stop style="stop-color:#fce94f;stop-opacity:1" id="stop4106" offset="0"/><stop style="stop-color:#fce94f;stop-opacity:0" id="stop4108" offset="1"/></linearGradient><linearGradient id="linearGradient4054"><stop style="stop-color:#fdf5b5;stop-opacity:1" id="stop4056" offset="0"/><stop style="stop-color:#fdee75;stop-opacity:0" id="stop4058" offset="1"/></linearGradient><linearGradient id="linearGradient4018"><stop style="stop-color:#fce94f;stop-opacity:1" id="stop4020" offset="0"/><stop style="stop-color:#fce94f;stop-opacity:0" id="stop4022" offset="1"/></linearGradient><linearGradient id="linearGradient3974"><stop style="stop-color:#edd400;stop-opacity:1" id="stop3976" offset="0"/><stop style="stop-color:#edd400;stop-opacity:0" id="stop3978" offset="1"/></linearGradient><filter id="filter3807" width="1.372" height="1.703" x="-.186" y="-.351" color-interpolation-filters="sRGB"><feGaussianBlur id="feGaussianBlur3809" stdDeviation="16.839"/></filter><clipPath id="clipPath3813" clipPathUnits="userSpaceOnUse"><path id="path3815" d="m 165,494.86218 c -12.57958,1.35035 -22.40255,4.99788 -27,13 44.75488,13.2112 78.0652,41.85665 113.5,71 45.62376,37.52327 103.00157,28.95132 141.5,-13 12.11819,-13.20506 16.9705,-32.64418 14,-50 -7.46569,-43.62001 -42.39105,-50.93496 -82,-50.5 -41.6538,0.45741 -60.31992,7.45083 -89,37 -23.65628,5.81446 -49.4041,4.6477 -71,-7.5 z" style="fill:#dab200;fill-opacity:1;stroke:none"/></clipPath><filter id="filter3906" width="1.639" height="1.251" x="-.32" y="-.125" color-interpolation-filters="sRGB"><feGaussianBlur id="feGaussianBlur3908" stdDeviation="2.166"/></filter><filter id="filter3968" width="1.173" height="1.553" x="-.087" y="-.276" color-interpolation-filters="sRGB"><feGaussianBlur id="feGaussianBlur3970" stdDeviation="2.818"/></filter><linearGradient id="linearGradient3980" x1="172.534" x2="266.226" y1="498.874" y2="557.211" gradientTransform="translate(-3,-2)" gradientUnits="userSpaceOnUse" xlink:href="#linearGradient3974"/><filter id="filter4010" color-interpolation-filters="sRGB"><feGaussianBlur id="feGaussianBlur4012" stdDeviation="1.84"/></filter><linearGradient id="linearGradient4024" x1="222.032" x2="214.96" y1="522.032" y2="541.478" gradientTransform="translate(-1,1)" gradientUnits="userSpaceOnUse" xlink:href="#linearGradient4018"/><filter id="filter4050" color-interpolation-filters="sRGB"><feGaussianBlur id="feGaussianBlur4052" stdDeviation="2.02"/></filter><linearGradient id="linearGradient4060" x1="201.172" x2="197.99" y1="511.426" y2="535.821" gradientTransform="translate(0,-1)" gradientUnits="userSpaceOnUse" xlink:href="#linearGradient4054"/><linearGradient id="linearGradient4110" x1="236.075" x2="248.364" y1="517.585" y2="545.406" gradientUnits="userSpaceOnUse" xlink:href="#linearGradient4104"/><radialGradient id="radialGradient4126" cx="317.013" cy="533.049" r="134.337" fx="317.013" fy="533.049" gradientTransform="matrix(0.66146784,0,0,0.51127176,107.31894,260.99423)" gradientUnits="userSpaceOnUse" xlink:href="#linearGradient4120"/><clipPath id="clipPath4176" clipPathUnits="userSpaceOnUse"><path id="path4178" d="m 165,494.86218 c -12.57958,1.35035 -22.40255,4.99788 -27,13 44.75488,13.2112 78.0652,41.85665 113.5,71 45.62376,37.52327 103.00157,28.95132 141.5,-13 12.11819,-13.20506 16.9705,-32.64418 14,-50 -7.46569,-43.62001 -42.39105,-50.93496 -82,-50.5 -41.6538,0.45741 -60.31992,7.45083 -89,37 -23.65628,5.81446 -49.4041,4.6477 -71,-7.5 z" style="fill:#dab200;fill-opacity:1;stroke:none"/></clipPath><filter id="filter4204" color-interpolation-filters="sRGB"><feGaussianBlur id="feGaussianBlur4206" stdDeviation="3.191"/></filter><linearGradient id="linearGradient4216" x1="317.5" x2="317.5" y1="437.773" y2="618.791" gradientUnits="userSpaceOnUse" xlink:href="#linearGradient4210"/><filter id="filter4246" width="1.169" height="1.222" x="-.085" y="-.111" color-interpolation-filters="sRGB"><feGaussianBlur id="feGaussianBlur4248" stdDeviation="5.259"/></filter><linearGradient id="linearGradient4256" x1="154.149" x2="151.674" y1="504.708" y2="497.107" gradientUnits="userSpaceOnUse" xlink:href="#linearGradient4250"/><filter id="filter4375" width="1.441" height="1.588" x="-.22" y="-.294" color-interpolation-filters="sRGB"><feGaussianBlur id="feGaussianBlur4377" stdDeviation="8.983"/></filter><clipPath id="clipPath4381" clipPathUnits="userSpaceOnUse"><path id="path4383" d="m 386.5,480.36218 c -33.10652,26.83855 -98.20456,23.4559 -127,0 23.4745,-13.95087 36.91074,-29.67417 47.5,-51 l 39,-3 c 5.81906,25.70492 21.69631,39.47753 40.5,54 z" style="fill:#c4a000;fill-opacity:1;stroke:none"/></clipPath><filter id="filter4393" width="1.21" height="1.28" x="-.105" y="-.14" color-interpolation-filters="sRGB"><feGaussianBlur id="feGaussianBlur4395" stdDeviation="4.516"/></filter><clipPath id="clipPath4419" clipPathUnits="userSpaceOnUse"><path id="path4421" d="m 386.5,480.36218 c -33.10652,26.83855 -98.20456,23.4559 -127,0 23.4745,-13.95087 36.91074,-29.67417 47.5,-51 l 39,-3 c 5.81906,25.70492 21.69631,39.47753 40.5,54 z" style="fill:#c4a000;fill-opacity:1;stroke:none"/></clipPath><clipPath id="clipPath4479" clipPathUnits="userSpaceOnUse"><path id="path4481" d="m 386.5,480.36218 c -33.10652,26.83855 -98.20456,23.4559 -127,0 23.4745,-13.95087 36.91074,-29.67417 47.5,-51 l 39,-3 c 5.81906,25.70492 21.69631,39.47753 40.5,54 z" style="fill:#c4a000;fill-opacity:1;stroke:none"/></clipPath><filter id="filter4699" width="1.204" height="1.849" x="-.102" y="-.425" color-interpolation-filters="sRGB"><feGaussianBlur id="feGaussianBlur4701" stdDeviation="4.418"/></filter><linearGradient id="linearGradient4709" x1="327" x2="327" y1="502.362" y2="456.362" gradientTransform="translate(1.4142136,0)" gradientUnits="userSpaceOnUse" xlink:href="#linearGradient5264"/><linearGradient id="linearGradient4711" x1="320.964" x2="323" y1="475.285" y2="497.97" gradientUnits="userSpaceOnUse" xlink:href="#linearGradient4825"/><clipPath id="clipPath4979" clipPathUnits="userSpaceOnUse"><path id="path4981" d="m 387.9142,480.36218 c -33.10652,26.83855 -98.20456,23.4559 -127,0 23.4745,-13.95087 36.91074,-29.67417 47.5,-51 l 39,-3 c 5.81906,25.70492 21.69631,39.47753 40.5,54 z" style="fill:url(#linearGradient4983);fill-opacity:1;stroke:none"/></clipPath><linearGradient id="linearGradient4983" x1="327" x2="327" y1="502.362" y2="456.362" gradientTransform="translate(1.4142136,0)" gradientUnits="userSpaceOnUse" xlink:href="#linearGradient4703"/><radialGradient id="radialGradient4993" cx="318.5" cy="634.862" r="52.5" fx="318.5" fy="634.862" gradientTransform="matrix(1,0,0,0.21904762,0,495.79713)" gradientUnits="userSpaceOnUse" xlink:href="#linearGradient4987"/><filter id="filter5103" width="1.155" height="1.707" x="-.077" y="-.353" color-interpolation-filters="sRGB"><feGaussianBlur id="feGaussianBlur5105" stdDeviation="3.386"/></filter><radialGradient id="radialGradient5109" cx="318.5" cy="634.862" r="52.5" fx="318.5" fy="634.862" gradientTransform="matrix(1,0,0,0.21904762,0,495.79713)" gradientUnits="userSpaceOnUse" xlink:href="#linearGradient4987"/><filter id="filter5130" width="1.209" height="1.956" x="-.105" y="-.478" color-interpolation-filters="sRGB"><feGaussianBlur id="feGaussianBlur5132" stdDeviation="4.579"/></filter><filter id="filter5252" width="1.483" height="1.275" x="-.241" y="-.138" color-interpolation-filters="sRGB"><feGaussianBlur id="feGaussianBlur5254" stdDeviation="2.867"/></filter><filter id="filter5256" width="1.427" height="1.243" x="-.214" y="-.122" color-interpolation-filters="sRGB"><feGaussianBlur id="feGaussianBlur5258" stdDeviation="2.536"/></filter><filter id="filter5260" width="1.483" height="1.275" x="-.241" y="-.138" color-interpolation-filters="sRGB"><feGaussianBlur id="feGaussianBlur5262" stdDeviation="2.867"/></filter><radialGradient id="radialGradient5276" cx="327.505" cy="414.802" r="21.778" fx="327.505" fy="414.802" gradientTransform="matrix(1,0,0,1.3290842,0,-136.50461)" gradientUnits="userSpaceOnUse" xlink:href="#linearGradient5270"/><clipPath id="clipPath5296" clipPathUnits="userSpaceOnUse"><path id="path5298" d="m 387.9142,480.36218 c -33.10652,26.83855 -98.20456,23.4559 -127,0 23.4745,-13.95087 36.91074,-29.67417 47.5,-51 l 39,-3 c 5.81906,25.70492 21.69631,39.47753 40.5,54 z" style="fill:url(#linearGradient5300);fill-opacity:1;stroke:none"/></clipPath><linearGradient id="linearGradient5300" x1="327" x2="327" y1="502.362" y2="456.362" gradientTransform="translate(1.4142136,0)" gradientUnits="userSpaceOnUse" xlink:href="#linearGradient5264"/><filter id="filter5330" width="1.142" height="1.296" x="-.071" y="-.148" color-interpolation-filters="sRGB"><feGaussianBlur id="feGaussianBlur5332" stdDeviation="4.78"/></filter><linearGradient id="linearGradient5340" x1="341" x2="341" y1="475.362" y2="425.335" gradientUnits="userSpaceOnUse" xlink:href="#linearGradient5694"/><linearGradient id="linearGradient5442" x1="246" x2="253" y1="546.862" y2="518.862" gradientUnits="userSpaceOnUse" xlink:href="#linearGradient5436"/><filter id="filter5478" width="1.127" height="1.249" x="-.063" y="-.124" color-interpolation-filters="sRGB"><feGaussianBlur id="feGaussianBlur5480" stdDeviation="4.519"/></filter><filter id="filter5510" width="1.143" height="1.291" x="-.072" y="-.146" color-interpolation-filters="sRGB"><feGaussianBlur id="feGaussianBlur5512" stdDeviation="3.4"/></filter><linearGradient id="linearGradient5514" x1="318.493" x2="317.567" y1="567.04" y2="482.475" gradientUnits="userSpaceOnUse" xlink:href="#linearGradient5406"/><clipPath id="clipPath5556" clipPathUnits="userSpaceOnUse"><path style="fill:#dab200;fill-opacity:1;stroke:none" id="path5558" d="m 165,494.86218 c -12.57958,1.35035 -22.40255,4.99788 -27,13 44.75488,13.2112 78.0652,41.85665 113.5,71 45.62376,37.52327 103.00157,28.95132 141.5,-13 12.11819,-13.20506 16.9705,-32.64418 14,-50 -7.46569,-43.62001 -42.39105,-50.93496 -82,-50.5 -41.6538,0.45741 -60.31992,7.45083 -89,37 -23.65628,5.81446 -49.4041,4.6477 -71,-7.5 z"/></clipPath><linearGradient id="linearGradient5622" x1="306.79" x2="312.748" y1="602.767" y2="532.614" gradientUnits="userSpaceOnUse" xlink:href="#linearGradient5616"/><filter id="filter5634" color-interpolation-filters="sRGB"><feGaussianBlur id="feGaussianBlur5636" stdDeviation="1.435"/></filter><radialGradient id="radialGradient5674" cx="327.505" cy="441.024" r="21.778" fx="327.505" fy="441.024" gradientTransform="matrix(1.5050867,0,0,1.1211213,-165.4182,-53.417469)" gradientUnits="userSpaceOnUse" xlink:href="#linearGradient5668"/><linearGradient id="linearGradient5678" x1="320.964" x2="323" y1="475.285" y2="497.97" gradientUnits="userSpaceOnUse" xlink:href="#linearGradient4825"/><clipPath id="clipPath5688" clipPathUnits="userSpaceOnUse"><path style="fill:url(#linearGradient5692);fill-opacity:1;stroke:none" id="path5690" d="m 387.9142,480.36218 c -33.10652,26.83855 -98.20456,23.4559 -127,0 23.4745,-13.95087 36.91074,-29.67417 47.5,-51 l 39,-3 c 5.81906,25.70492 21.69631,39.47753 40.5,54 z"/></clipPath><linearGradient id="linearGradient5692" x1="327" x2="327" y1="502.362" y2="456.362" gradientTransform="translate(1.4142136,0)" gradientUnits="userSpaceOnUse" xlink:href="#linearGradient5264"/><radialGradient id="radialGradient5712" cx="328.774" cy="427.882" r="25.417" fx="328.774" fy="427.882" gradientTransform="matrix(0.80525459,-1.7546121e-7,1.2781805e-7,0.58660297,64.027188,182.49644)" gradientUnits="userSpaceOnUse" xlink:href="#linearGradient5706"/><filter id="filter5834" width="1.259" height="1.318" x="-.129" y="-.159" color-interpolation-filters="sRGB"><feGaussianBlur id="feGaussianBlur5836" stdDeviation="2.139"/></filter><filter id="filter5884" width="1.14" height="1.839" x="-.07" y="-.42" color-interpolation-filters="sRGB"><feGaussianBlur id="feGaussianBlur5886" stdDeviation="3.352"/></filter><linearGradient id="linearGradient5894" x1="328.5" x2="328.854" y1="494.362" y2="472.438" gradientTransform="translate(0,-1)" gradientUnits="userSpaceOnUse" xlink:href="#linearGradient5888"/><linearGradient id="linearGradient5896" x1="324.5" x2="323" y1="433.566" y2="497.97" gradientUnits="userSpaceOnUse" xlink:href="#linearGradient5898"/><filter id="filter5980" width="1.083" height="1.325" x="-.041" y="-.162" color-interpolation-filters="sRGB"><feGaussianBlur id="feGaussianBlur5982" stdDeviation="2.226"/></filter><clipPath id="clipPath5986" clipPathUnits="userSpaceOnUse"><path id="path5988" d="m 165,494.86218 c -12.57958,1.35035 -22.40255,4.99788 -27,13 44.75488,13.2112 78.0652,41.85665 113.5,71 45.62376,37.52327 103.00157,28.95132 141.5,-13 12.11819,-13.20506 16.9705,-32.64418 14,-50 -7.46569,-43.62001 -42.39105,-50.93496 -82,-50.5 -41.6538,0.45741 -60.31992,7.45083 -89,37 -23.65628,5.81446 -49.4041,4.6477 -71,-7.5 z" style="fill:#dab200;fill-opacity:1;stroke:none"/></clipPath><filter id="filter6048" width="1.679" height="1.223" x="-.34" y="-.112" color-interpolation-filters="sRGB"><feGaussianBlur id="feGaussianBlur6050" stdDeviation="3.167"/></filter><linearGradient id="linearGradient6062" x1="302.226" x2="314.671" y1="487.259" y2="525.259" gradientUnits="userSpaceOnUse" xlink:href="#linearGradient6056"/><linearGradient id="linearGradient6070" x1="317.577" x2="316.784" y1="588.157" y2="634.462" gradientUnits="userSpaceOnUse" xlink:href="#linearGradient6064"/><linearGradient id="linearGradient6084" x1="326.33" x2="326.33" y1="635.876" y2="601.58" gradientUnits="userSpaceOnUse" xlink:href="#linearGradient6078"/><filter id="filter6122" width="1.218" height="1.268" x="-.109" y="-.134" color-interpolation-filters="sRGB"><feGaussianBlur id="feGaussianBlur6124" stdDeviation="2.697"/></filter><radialGradient id="radialGradient6128" cx="327.505" cy="441.024" r="21.778" fx="327.505" fy="441.024" gradientTransform="matrix(1.5050867,0,0,1.1211213,-165.4182,-53.417469)" gradientUnits="userSpaceOnUse" xlink:href="#linearGradient5668"/><linearGradient id="linearGradient6173" x1="245.81" x2="223.85" y1="147.658" y2="123.854" gradientUnits="userSpaceOnUse" xlink:href="#linearGradient6163"/><filter id="filter6191"><feGaussianBlur id="feGaussianBlur6193" stdDeviation="1.079"/></filter><filter id="filter6207"><feGaussianBlur id="feGaussianBlur6209" stdDeviation=".76"/></filter><filter id="filter8307"><feGaussianBlur id="feGaussianBlur8309" stdDeviation=".829"/></filter><linearGradient id="linearGradient8339" x1="321.966" x2="316.224" y1="510.24" y2="532.684" gradientUnits="userSpaceOnUse" xlink:href="#linearGradient6056"/><filter id="filter8373" width="1.235" height="1.119" x="-.117" y="-.059"><feGaussianBlur id="feGaussianBlur8375" stdDeviation="1.684"/></filter></defs><metadata id="metadata7"/><g id="layer1" transform="translate(-108.13708,-322.62799)"><rect style="fill:#fff;fill-opacity:0;stroke:none" id="rect6126" width="407.294" height="407.294" x="108.137" y="322.628"/><path style="opacity:.59615383;fill:url(#radialGradient5109);fill-opacity:1;stroke:none;filter:url(#filter5130)" id="path5107" d="m 371,634.86218 c 0,6.35128 -23.50505,11.5 -52.5,11.5 -28.99495,0 -52.5,-5.14872 -52.5,-11.5 0,-6.35127 23.50505,-11.5 52.5,-11.5 28.99495,0 52.5,5.14873 52.5,11.5 z" transform="matrix(1.2881984,0,0,1.4587967,-90.291197,-285.27269)"/><path id="path4985" d="m 371,634.86218 c 0,6.35128 -23.50505,11.5 -52.5,11.5 -28.99495,0 -52.5,-5.14872 -52.5,-11.5 0,-6.35127 23.50505,-11.5 52.5,-11.5 28.99495,0 52.5,5.14873 52.5,11.5 z" transform="matrix(2.5252485,0,0,2.2432932,-485.29165,-780.31987)" style="opacity:.21474358;fill:url(#radialGradient4993);fill-opacity:1;stroke:none;filter:url(#filter5103)"/><path style="fill:#c4a000;fill-opacity:1;stroke:none" id="path2997" d="m 371,634.86218 c 0,6.35128 -23.50505,11.5 -52.5,11.5 -28.99495,0 -52.5,-5.14872 -52.5,-11.5 0,-6.35127 23.50505,-11.5 52.5,-11.5 28.99495,0 52.5,5.14873 52.5,11.5 z" transform="matrix(0.8952381,0,0,1,36.866667,3)"/><path style="fill:url(#linearGradient6070);fill-opacity:1;stroke:none" id="path2993" d="m 365.5,588.36218 c -19.59633,17.35073 -24.60518,20.59944 -17,44 -16.33333,6.79715 -35.16667,4.2873 -51.5,0.5 18.42669,-27.7869 -4.66986,-29.08723 -29,-42.5 z"/><path style="fill:#c4a000;fill-opacity:1;stroke:none" id="path2995" d="m 386.5,574.36218 c 33.39947,-17.19065 60.54295,-29.55856 80.5,-60 14.62759,-22.31216 2.43942,-47.75993 -11,-55 -23.62903,-12.7294 -61.03983,-17.80974 -60.5,13.5 0.18589,10.78144 8.17438,16.26267 15.78138,15.31273 7.21986,-0.9016 14.74938,-8.13007 11.21862,-13.81273 -3.2105,-5.16722 -2.51016,-9.66626 -0.43406,-14.31868 6.9819,-1.46197 22.83713,4.62883 27.93406,8.31868 12.54593,9.08245 18.87186,24.05608 5,45 -16.11942,24.33732 -42.54368,31.38637 -65.5,45 l -5,9.5 z"/><path style="fill:#dab200;fill-opacity:1;stroke:none" id="path2987" d="m 165,494.86218 c -12.57958,1.35035 -22.40255,4.99788 -27,13 44.75488,13.2112 78.0652,41.85665 113.5,71 45.62376,37.52327 103.00157,28.95132 141.5,-13 12.11819,-13.20506 16.9705,-32.64418 14,-50 -7.46569,-43.62001 -42.39105,-50.93496 -82,-50.5 -41.6538,0.45741 -60.31992,7.45083 -89,37 -23.65628,5.81446 -49.4041,4.6477 -71,-7.5 z"/><path style="opacity:.64102568;fill:url(#linearGradient4024);fill-opacity:1;stroke:none;filter:url(#filter4050)" id="path4016" d="m 234.82011,508.18285 -2.47487,19.44544 2.82843,21.92031 15.9099,18.73833 -31.81981,-21.56676 -43.13351,-29.34493 -30.99994,-10.43459 18.97913,-9.01085 21.9203,9.19239 34.64824,5.65686 z"/><path style="fill:url(#radialGradient4126);fill-opacity:1;stroke:none;filter:url(#filter3807)" id="path3769" d="m 310.1875,476.53125 c -25.12485,1.32622 -49.3633,13.36185 -65.5,32.53125 -19.465,11.66701 -43.64228,7.94394 -64.80214,3.93327 -1.87999,-0.48427 5.75391,3.14771 7.45839,4.47298 33.0035,19.22393 60.45746,47.05 92.96875,66.90625 40.78903,18.47871 95.62902,-0.33703 113.65625,-41.6875 9.54196,-23.73776 -3.1412,-55.3459 -28.75938,-62.07158 -17.6259,-5.65024 -36.70141,-3.80092 -55.02187,-4.08467 z" clip-path="url(#clipPath3813)"/><path style="fill:url(#linearGradient4060);fill-opacity:1;stroke:none;filter:url(#filter3968)" id="path3910" d="m 237.74264,507.95317 c -34.82957,4.88322 -45.46762,0.84026 -76.57107,-11.88388 l -6.5,10 c 33.63646,17.48278 43.0982,17.62264 79.76777,16.32842 z"/><path style="fill:#fff;fill-opacity:1;stroke:none;filter:url(#filter6191)" id="path6175" d="m 266.13708,481.92151 c -12.93975,4.00705 -21.07553,15.22004 -30.5,24.5 -30.66576,4.42685 -42.32213,3.30703 -74,-9.5 l -4,2 c 34.86998,14.41142 49.47032,16.00601 79.5,12 8.79927,-13.05677 19.13235,-24.22386 33.5,-28 z"/><path style="fill:url(#linearGradient4216);fill-opacity:1;stroke:none;filter:url(#filter4246)" id="path4208" d="m 372,479.36218 c -38.6096,17.38212 -60.38309,17.63037 -97,0 -57.77734,38.69159 -46.00445,78.43519 2.5,108 34.09411,8.86023 44.12063,6.25604 77,-0.5 52.06651,-21.61026 52.37542,-89.71434 17.5,-107.5 z"/><path style="opacity:.30448716;fill:url(#linearGradient5514);fill-opacity:1;stroke:none;filter:url(#filter5478)" id="path5404" d="m 402.33335,540.0486 c -52.16226,27.30554 -116.27158,25.73974 -170.30613,1.37868 -2.74606,-37.95972 15.43753,-44.79476 43.26955,-67.17514 l 100.76272,-1.41422 c 24.43852,24.34131 28.05189,34.90984 26.27386,67.21068 z"/><path style="fill:#fdf295;fill-opacity:1;stroke:none;filter:url(#filter6048)" id="path5990" d="m 384.72675,484.20188 c 22.1629,25.18021 17.99219,47.93764 12.37437,65.76093 l -4.96016,6.35356 c 9.83493,-24.34097 5.69599,-52.97681 -12.31371,-69.70027 z"/><path style="fill:url(#linearGradient6173);fill-opacity:1;stroke:none;filter:url(#filter8307)" id="path6161" d="m 252.18107,124.80436 a 40.049034,18.866846 0 1 1 -80.09807,0 40.049034,18.866846 0 1 1 80.09807,0 z" transform="matrix(-1.2479501,-0.76564646,1.7588863,-2.0984722,343.40116,955.64819)"/><path style="fill:#a76803;fill-opacity:1;stroke:none;filter:url(#filter5980)" id="path4717" d="m 388.91421,481.36218 c -33.10652,26.83855 -100.20456,23.4559 -129,0 16.84537,-10.85728 47.5,-11 47.5,-11 l 39,-3 c 0,0 25.55247,-2.5554 42.5,14 z" clip-path="url(#clipPath5986)"/><path id="path6052" d="m 302.72675,484.20188 c 31.23278,22.42285 22.67934,43.93764 17.06152,61.76093 l -4.96016,6.35356 c 9.83493,-24.34097 8.64675,-49.3659 -17.00086,-65.70027 z" transform="matrix(-1,0,-0.1717881,1,648.77155,1.5)" style="fill:url(#linearGradient8339);fill-opacity:1;stroke:none;opacity:.78243593;filter:url(#filter8373)"/><path style="fill:url(#linearGradient4709);fill-opacity:1;stroke:none" id="path2989" d="m 387.9142,480.36218 c -33.10652,26.83855 -98.20456,23.4559 -127,0 23.4745,-13.95087 36.91074,-29.67417 47.5,-51 l 39,-3 c 5.81906,25.70492 21.69631,39.47753 40.5,54 z"/><path style="fill:url(#linearGradient5340);fill-opacity:1;stroke:none;filter:url(#filter5330)" id="path5288" d="m 311.5,427.36218 -12,23 -13.5,16.5 -27.5,18.5 -13,-8.5 56,-68 60,2 45.5,63 -15,12.5 -17.5,-12.5 -16,-14.5 -12,-22.5 -4,-18 -33,1 z" clip-path="url(#clipPath5296)"/><path style="fill:url(#linearGradient3980);fill-opacity:1;stroke:none;filter:url(#filter4010)" id="path3972" d="m 246.96224,567.7618 c -22.59242,-18.68405 -67.93576,-50.77895 -93.33809,-60.10407 l 1.76777,-4.5962 c 27.6776,10.65916 73.06544,42.28544 95.10586,60.45763 z"/><path style="opacity:.33012821;fill:url(#linearGradient5442);fill-opacity:1;stroke:none;filter:url(#filter5510)" id="path5434" d="M 235.99574,538.63078 C 214.0728,531.46232 182.85633,517.45641 156.5,504.36218 l 6,-7.5 c 35.41488,23.93212 55.44041,13.93397 75.5,9.5 z"/><path id="path5178" d="m 387.5,537.86218 c -4.08356,11 -8.56252,22 -18.00807,33 -1.28872,-11 -5.32103,-22 -10.49193,-33 l 14.5,-17 z" transform="matrix(-0.85517069,0,0,0.91457019,585.50628,47.497159)" style="opacity:.23999999;fill:#000;fill-opacity:1;stroke:none;filter:url(#filter5260)"/><path style="opacity:.46153846;fill:#836b00;fill-opacity:1;stroke:none;filter:url(#filter4204)" id="path4172" d="m 147,506.86218 c 29.09276,9.47756 49.9303,25.3355 75,42.25 57.12042,55.26457 119.73534,65.10261 175.25,4.25 8.29651,-22.8257 8.41496,-37.4625 2.75,-60.5 l 12.75,1.5 19.75,64.5 -30.25,32.75 -64.75,20.25 -53.25,5.75 -97.25,-71 -55.25,-32 2.5,-6.5 z" clip-path="url(#clipPath4176)"/><path style="fill:url(#linearGradient4256);fill-opacity:1;stroke:none" id="path3767" d="m 165.46299,494.80849 c -10.13741,12.48968 -11.75451,10.09607 -27.57717,13.08147 10.00964,-10.68147 13.60062,-9.94388 27.57717,-13.08147 z"/><path style="fill:url(#linearGradient5896);fill-opacity:1;stroke:none;filter:url(#filter4393)" id="path4277" d="m 306.23382,423.17241 c -0.88691,28.04507 -25.80914,49.29968 -42.79632,65.35884 29.05828,23.15263 93.01651,15.1883 119.5,0.6875 -20.98902,-15.61787 -36.48305,-39.46145 -36.1875,-65.6875 z" clip-path="url(#clipPath4419)" transform="translate(1.4142136,0)"/><path id="path5664" d="m 358.19622,451.34551 c -9.23437,18.54347 -50.19627,18.42721 -59.5984,1.7894 -3.97046,-7.02606 -5.2437,-13.74978 -2.12851,-19.98159 10.23353,-20.47168 47.65835,-22.04195 59.06626,-4.17526 4.54253,7.11435 6.59794,14.46102 2.66065,22.36745 z" clip-path="url(#clipPath5688)" transform="translate(-2,5)" style="opacity:.26602562;fill:url(#radialGradient6128);fill-opacity:1;stroke:none"/><path style="fill:#fff;fill-opacity:1;stroke:none;filter:url(#filter6207)" id="path6149" d="m 309.49094,431.22955 c -3.97631,9.18949 -10.44637,19.53472 -18.41765,28.41161 -8.49373,9.45867 -17.64405,16.32201 -26.68769,21.75928 l 2.51162,1.57475 c 6.80163,-3.38878 17.08957,-11.15885 26.60653,-21.95277 8.68162,-9.84649 15.8005,-21.5255 18.47248,-29.37865 z"/><path id="path4831" d="m 347.89652,432.03715 c 0.22852,22.33675 -41.48281,20.78473 -39.59798,2.12132 9.41632,-24.25729 26.68988,-22.86709 39.59798,-2.12132 z" clip-path="url(#clipPath4979)" style="opacity:.79487179;fill:url(#radialGradient5712);fill-opacity:1;stroke:none;filter:url(#filter5834)"/><path style="fill:url(#radialGradient5276);fill-opacity:1;stroke:none" id="path2991" d="m 347.89652,427.03715 c -6.13544,21.9832 -33.35108,21.84539 -39.59798,2.12132 -2.63803,-8.32935 -3.48399,-16.30029 -1.41421,-23.68808 6.79929,-24.26907 31.66485,-26.13062 39.24442,-4.94975 3.01812,8.43403 4.38376,17.14347 1.76777,26.51651 z"/><path id="path5150" d="m 335.5,547.86218 -14.5,33 -14,-33 14.5,-17 z" style="opacity:.23999999;fill:#000;fill-opacity:1;stroke:none;filter:url(#filter5256)"/><path style="fill:#c00;stroke:none" id="path5138" d="m 335.5,547.86218 -14.5,25 -14,-25 14.5,-25 z"/><path style="opacity:.23999999;fill:#000;fill-opacity:1;stroke:none;filter:url(#filter5252)" id="path5176" d="m 387.5,537.86218 c -4.08356,11 -8.56252,22 -18.00807,33 -1.28872,-11 -5.32103,-22 -10.49193,-33 l 14.5,-17 z" transform="matrix(0.85517069,0,0,0.91457019,55.121357,46.497159)"/><path id="path5140" d="M 387.5,538.86218 373.32688,561.03199 364,538.86218 375.51275,516.69237 z" style="fill:#c00;stroke:none"/><path style="fill:#c00;stroke:none" id="path5142" d="M 253,538.86218 267.17312,561.03199 276.5,538.86218 264.98725,516.69237 z"/><path id="path5144" d="m 321,548.86218 -14,-1 14.5,-25 z" style="fill:#ef2929;stroke:none"/><path id="path5146" d="m 253,538.86218 8.5,0 3.48725,-22.16981 z" style="fill:#ef2929;stroke:none"/><path style="fill:#ef2929;stroke:none" id="path5148" d="m 379.5,538.86218 -15.5,0 11.51275,-22.16981 z"/><path style="opacity:.65705124000000004;fill:url(#linearGradient5622);fill-opacity:1;stroke:none;filter:url(#filter5634)" id="path5516" d="M 407,540.36218 C 350.698,583.57675 300.55825,581.01066 245.33816,559.89564 230.44032,542.58139 187.72068,521.59219 173,514.36218 l 31.5,53 c 66.59013,45.67841 163.74162,80.51524 210.5,-4.5 z" clip-path="url(#clipPath5556)"/><path style="opacity:.98999999;fill:#fff;fill-opacity:1;stroke:none" id="path5704" d="m 334,397.61218 c 0,3.17564 -2.57436,5.75 -5.75,5.75 -3.17564,0 -5.75,-2.57436 -5.75,-5.75 0,-3.17563 2.57436,-5.75 5.75,-5.75 3.17564,0 5.75,2.57437 5.75,5.75 z" transform="matrix(1.4020822,0.6154122,-0.83917514,0.99348329,200.29225,-201.15538)"/><path style="opacity:.5;fill:url(#linearGradient5894);fill-opacity:1;stroke:none;filter:url(#filter5884)" id="path5838" d="m 381.13056,479.89858 c -40.06468,21.9097 -74.86272,18.76975 -114.90486,0 L 283.529,466.0095 c 28.43072,16.10097 61.0909,16.9321 84.12668,1.41421 z"/><path id="path6074" d="m 352.5,588.36218 c -16.38066,13.42796 -17.17876,28.53698 -10,46 -6.08028,2.90806 -29.23774,3.22664 -38.5,0.5 14.43182,-29.78433 -5.11971,-36.31216 -19,-44.5 z" style="fill:url(#linearGradient6084);fill-opacity:1;stroke:none;filter:url(#filter6122)"/></g></svg>