<svg xmlns="http://www.w3.org/2000/svg" xmlns:svg="http://www.w3.org/2000/svg" xmlns:xlink="http://www.w3.org/1999/xlink" id="svg11300" width="400" height="300" version="1.0" style="display:inline;enable-background:new"><title id="title4872">Firewall</title><defs id="defs3"><linearGradient id="linearGradient6175-0" x1="105.15" x2="105.15" y1="42.163" y2="15.315" gradientTransform="matrix(-4.3791823,0,0,-4.3336058,534.62265,224.79019)" gradientUnits="userSpaceOnUse" xlink:href="#linearGradient6455-90"/><linearGradient id="linearGradient6455-90"><stop style="stop-color:#fdb245;stop-opacity:1" id="stop6457-4" offset="0"/><stop style="stop-color:#f57900;stop-opacity:1" id="stop6459-1" offset="1"/></linearGradient><linearGradient id="linearGradient7137"><stop style="stop-color:#fdb245;stop-opacity:1" id="stop7139" offset="0"/><stop style="stop-color:#f57900;stop-opacity:1" id="stop7141" offset="1"/></linearGradient><linearGradient id="linearGradient7012" x1="102.511" x2="102.511" y1="12.026" y2="37.231" gradientUnits="userSpaceOnUse" xlink:href="#linearGradient8955"/><linearGradient id="linearGradient8955"><stop style="stop-color:#729fcf;stop-opacity:1" id="stop8957" offset="0"/><stop style="stop-color:#3465a4;stop-opacity:1" id="stop8959" offset="1"/></linearGradient><linearGradient id="linearGradient27491" x1="167.361" x2="171.361" y1="242.918" y2="171.918" gradientUnits="userSpaceOnUse" xlink:href="#linearGradient27322"/><linearGradient id="linearGradient27322"><stop style="stop-color:#000;stop-opacity:1" id="stop27324" offset="0"/><stop style="stop-color:#000;stop-opacity:.25757575" id="stop27326" offset="1"/></linearGradient><linearGradient id="linearGradient7736" x1="145.921" x2="145.921" y1="174.268" y2="52.579" gradientTransform="translate(-340,0)" gradientUnits="userSpaceOnUse" xlink:href="#linearGradient27322"/><filter id="filter7742"><feGaussianBlur id="feGaussianBlur7744" stdDeviation="2.943"/></filter><mask id="mask7764" maskUnits="userSpaceOnUse"><path style="color:#000;fill:#fff;fill-opacity:1;fill-rule:nonzero;stroke:none;stroke-width:1;marker:none;visibility:visible;display:inline;overflow:visible;enable-background:accumulate" id="path7766" d="M -292.38981,52 C -297.16785,52 -301,55.832156 -301,60.610189 l 0,42.427021 0,108.43846 0,7.48713 c 0,28.2826 22.7546,51.0372 51.03721,51.0372 l 10.48196,0 105.44359,0 42.42705,0 C -86.83214,270 -83,266.16784 -83,261.38981 l 0,-42.42701 0,-113.42988 0,-2.49571 C -83,74.754607 -105.75462,52 -134.03724,52 l -15.47335,0 -100.4522,0 -42.42702,0 z"/></mask><filter id="filter7786"><feGaussianBlur id="feGaussianBlur7788" stdDeviation="3.815"/></filter><linearGradient id="linearGradient6175" x1="105.15" x2="105.15" y1="42.163" y2="15.315" gradientTransform="matrix(-4.3791823,0,0,-4.3336058,534.62267,224.79019)" gradientUnits="userSpaceOnUse" xlink:href="#linearGradient6455"/><linearGradient id="linearGradient6455"><stop style="stop-color:#fdb245;stop-opacity:1" id="stop6457" offset="0"/><stop style="stop-color:#f57900;stop-opacity:1" id="stop6459" offset="1"/></linearGradient><linearGradient id="linearGradient6194" x1="108.46" x2="108.46" y1="16.108" y2="55.454" gradientTransform="matrix(0.884646,0,0,0.875439,-58.4557,1.98455)" gradientUnits="userSpaceOnUse" xlink:href="#linearGradient6455"/><linearGradient id="linearGradient7805"><stop style="stop-color:#fdb245;stop-opacity:1" id="stop7807" offset="0"/><stop style="stop-color:#f57900;stop-opacity:1" id="stop7809" offset="1"/></linearGradient><linearGradient id="linearGradient7854" x1="130.748" x2="130.748" y1="152.62" y2="246.701" gradientUnits="userSpaceOnUse" xlink:href="#linearGradient6455"/><linearGradient id="linearGradient7856" x1="218.863" x2="218.863" y1="152.61" y2="247.915" gradientUnits="userSpaceOnUse" xlink:href="#linearGradient6455"/><radialGradient id="radialGradient27631" cx="147" cy="87.5" r="84.188" fx="147" fy="87.5" gradientTransform="matrix(0.94520574,-0.03989579,0.00207918,0.04925975,7.8728274,82.953522)" gradientUnits="userSpaceOnUse" xlink:href="#linearGradient27625"/><linearGradient id="linearGradient27625"><stop style="stop-color:#eeeeec;stop-opacity:1" id="stop27627" offset="0"/><stop style="stop-color:#eeeeec;stop-opacity:0" id="stop27629" offset="1"/></linearGradient><radialGradient id="radialGradient7329" cx="147" cy="87.5" r="84.188" fx="147" fy="87.5" gradientTransform="matrix(0.57059951,-0.03899344,0.00125516,0.04814562,4.4920456,56.570417)" gradientUnits="userSpaceOnUse" xlink:href="#linearGradient27625"/><radialGradient id="radialGradient7329-7" cx="147" cy="87.5" r="84.188" fx="147" fy="87.5" gradientTransform="matrix(1.1118041,-0.04692767,0.00244565,0.05794209,-29.649198,57.07843)" gradientUnits="userSpaceOnUse" xlink:href="#linearGradient27625-6"/><linearGradient id="linearGradient27625-6"><stop style="stop-color:#eeeeec;stop-opacity:1" id="stop27627-7" offset="0"/><stop style="stop-color:#eeeeec;stop-opacity:0" id="stop27629-3" offset="1"/></linearGradient><radialGradient id="radialGradient7890" cx="147" cy="87.5" r="84.188" fx="147" fy="87.5" gradientTransform="matrix(0.44139842,-0.03944721,9.7094837e-4,0.04870589,148.75093,266.42821)" gradientUnits="userSpaceOnUse" xlink:href="#linearGradient27625-6"/><linearGradient id="linearGradient6501" x1="30.738" x2="30.738" y1="13.826" y2="54.581" gradientTransform="matrix(0.875487,0,0,0.875514,2.9144,2.12278)" gradientUnits="userSpaceOnUse" xlink:href="#linearGradient8955-4"/><linearGradient id="linearGradient8955-4"><stop style="stop-color:#729fcf;stop-opacity:1" id="stop8957-9" offset="0"/><stop style="stop-color:#3465a4;stop-opacity:1" id="stop8959-3" offset="1"/></linearGradient><linearGradient id="linearGradient7943" x1="156.558" x2="156.558" y1="72.439" y2="250.251" gradientUnits="userSpaceOnUse" xlink:href="#linearGradient8955"/><linearGradient id="linearGradient6495" x1="302.857" x2="302.857" y1="366.648" y2="609.505" gradientTransform="matrix(3.19282,0,0,1.96971,-2079.34,-872.885)" gradientUnits="userSpaceOnUse" xlink:href="#linearGradient5048"/><linearGradient id="linearGradient5048"><stop style="stop-color:#000;stop-opacity:0" id="stop5050" offset="0"/><stop style="stop-color:#000;stop-opacity:1" id="stop5056" offset=".5"/><stop style="stop-color:#000;stop-opacity:0" id="stop5052" offset="1"/></linearGradient><radialGradient id="radialGradient6497" cx="605.714" cy="486.648" r="117.143" fx="605.714" fy="486.648" gradientTransform="matrix(2.25152,0,0,1.96971,-1511.42,-872.885)" gradientUnits="userSpaceOnUse" xlink:href="#linearGradient5060"/><linearGradient id="linearGradient5060"><stop style="stop-color:#000;stop-opacity:1" id="stop5062" offset="0"/><stop style="stop-color:#000;stop-opacity:0" id="stop5064" offset="1"/></linearGradient><radialGradient id="radialGradient6499" cx="605.714" cy="486.648" r="117.143" fx="605.714" fy="486.648" gradientTransform="matrix(-2.25152,0,0,1.96971,-339.3,-872.026)" gradientUnits="userSpaceOnUse" xlink:href="#linearGradient5060"/><linearGradient id="linearGradient7965"><stop style="stop-color:#000;stop-opacity:1" id="stop7967" offset="0"/><stop style="stop-color:#000;stop-opacity:0" id="stop7969" offset="1"/></linearGradient><radialGradient id="radialGradient7975" cx="605.714" cy="486.648" r="117.143" fx="605.714" fy="486.648" gradientTransform="matrix(-2.25152,0,0,1.96971,-339.3,-872.026)" gradientUnits="userSpaceOnUse" xlink:href="#linearGradient5060"/><linearGradient id="linearGradient7943-9" x1="156.558" x2="156.558" y1="124.465" y2="250.251" gradientUnits="userSpaceOnUse" xlink:href="#linearGradient8955-7"/><linearGradient id="linearGradient8955-7"><stop style="stop-color:#729fcf;stop-opacity:1" id="stop8957-0" offset="0"/><stop style="stop-color:#3465a4;stop-opacity:1" id="stop8959-7" offset="1"/></linearGradient><linearGradient id="linearGradient7943-3" x1="156.558" x2="156.558" y1="124.465" y2="250.251" gradientUnits="userSpaceOnUse" xlink:href="#linearGradient8955-3"/><linearGradient id="linearGradient8955-3"><stop style="stop-color:#729fcf;stop-opacity:1" id="stop8957-2" offset="0"/><stop style="stop-color:#3465a4;stop-opacity:1" id="stop8959-1" offset="1"/></linearGradient><radialGradient id="radialGradient7890-9" cx="147" cy="87.5" r="84.188" fx="147" fy="87.5" gradientTransform="matrix(0.44139842,-0.03944721,9.7094837e-4,0.04870589,148.75093,266.42821)" gradientUnits="userSpaceOnUse" xlink:href="#linearGradient27625-6-5"/><linearGradient id="linearGradient27625-6-5"><stop style="stop-color:#eeeeec;stop-opacity:1" id="stop27627-7-0" offset="0"/><stop style="stop-color:#eeeeec;stop-opacity:0" id="stop27629-3-0" offset="1"/></linearGradient><radialGradient id="radialGradient8147-5" cx="147" cy="87.5" r="84.188" fx="147" fy="87.5" gradientTransform="matrix(0.44139842,-0.03944721,9.7094837e-4,0.04870589,161.90403,-249.45177)" gradientUnits="userSpaceOnUse" xlink:href="#linearGradient27625-6-5-6"/><linearGradient id="linearGradient27625-6-5-6"><stop style="stop-color:#eeeeec;stop-opacity:1" id="stop27627-7-0-1" offset="0"/><stop style="stop-color:#eeeeec;stop-opacity:0" id="stop27629-3-0-2" offset="1"/></linearGradient><radialGradient id="radialGradient7329-0" cx="147" cy="87.5" r="84.188" fx="147" fy="87.5" gradientTransform="matrix(0.57059951,-0.03899344,0.00125516,0.04814562,4.4920456,56.570417)" gradientUnits="userSpaceOnUse" xlink:href="#linearGradient27625-3"/><linearGradient id="linearGradient27625-3"><stop style="stop-color:#eeeeec;stop-opacity:1" id="stop27627-4" offset="0"/><stop style="stop-color:#eeeeec;stop-opacity:0" id="stop27629-8" offset="1"/></linearGradient><linearGradient id="linearGradient7943-33" x1="156.558" x2="156.558" y1="124.465" y2="250.251" gradientUnits="userSpaceOnUse" xlink:href="#linearGradient8955-8"/><linearGradient id="linearGradient8955-8"><stop style="stop-color:#729fcf;stop-opacity:1" id="stop8957-92" offset="0"/><stop style="stop-color:#3465a4;stop-opacity:1" id="stop8959-31" offset="1"/></linearGradient><filter id="filter8366"><feGaussianBlur id="feGaussianBlur8368" stdDeviation="3.815"/></filter><linearGradient id="linearGradient7856-5" x1="218.863" x2="218.863" y1="152.61" y2="247.915" gradientUnits="userSpaceOnUse" xlink:href="#linearGradient6455-8"/><linearGradient id="linearGradient6455-8"><stop style="stop-color:#fdb245;stop-opacity:1" id="stop6457-7" offset="0"/><stop style="stop-color:#f57900;stop-opacity:1" id="stop6459-9" offset="1"/></linearGradient></defs><metadata id="metadata4"/><g style="display:inline" id="layer1"><g id="layer2" style="display:none"><rect style="fill:#eeeeec;fill-opacity:1;fill-rule:nonzero;stroke:none;stroke-width:2;marker:none;visibility:visible;display:inline;overflow:visible;enable-background:accumulate" id="rect6284" width="48" height="48" x="296.063" y="52"/><rect id="rect6592" width="32" height="32" x="303" y="128" style="fill:#eeeeec;fill-opacity:1;fill-rule:nonzero;stroke:none;stroke-width:2;marker:none;visibility:visible;display:inline;overflow:visible;enable-background:accumulate"/><rect id="rect5028" width="24" height="24" x="302" y="178" style="fill:#fff;fill-opacity:1;fill-rule:nonzero;stroke:none;stroke-width:2;marker:none;visibility:visible;display:inline;overflow:visible;enable-background:accumulate"/><rect id="rect6833" width="16" height="16" x="303" y="221" style="fill:#eeeeec;fill-opacity:1;fill-rule:nonzero;stroke:none;stroke-width:2;marker:none;visibility:visible;display:inline;overflow:visible;enable-background:accumulate"/><rect style="fill:#eeeeec;fill-opacity:1;fill-rule:nonzero;stroke:none;stroke-width:2;marker:none;visibility:visible;display:inline;overflow:visible;enable-background:accumulate" id="rect6749" width="22" height="22" x="303" y="179"/><text id="context" x="31.871" y="18.86" xml:space="preserve" style="font-size:18px;font-style:normal;font-variant:normal;font-weight:400;font-stretch:normal;fill:#000;fill-opacity:1;stroke:none;display:inline;enable-background:new;font-family:DejaVu Sans;-inkscape-font-specification:DejaVu Sans"><tspan id="tspan2716" x="31.871" y="18.86" style="font-style:normal;font-variant:normal;font-weight:400;font-stretch:normal;font-family:DejaVu Sans;-inkscape-font-specification:DejaVu Sans">context</tspan></text><text id="icon-name" x="302.871" y="18.86" xml:space="preserve" style="font-size:18px;font-style:normal;font-variant:normal;font-weight:700;font-stretch:normal;text-align:start;line-height:125%;writing-mode:lr-tb;text-anchor:start;fill:#000;fill-opacity:1;stroke:none;display:inline;enable-background:new;font-family:DejaVu Sans;-inkscape-font-specification:DejaVu Sans Bold"><tspan id="tspan3023" x="302.871" y="18.86" style="font-size:18px;font-style:normal;font-variant:normal;font-weight:700;font-stretch:normal;font-family:DejaVu Sans;-inkscape-font-specification:DejaVu Sans Bold">name</tspan></text><rect id="rect6282" width="256" height="256" x="20" y="32" style="fill:#eeeeec;fill-opacity:1;fill-rule:nonzero;stroke:none;stroke-width:2;marker:none;visibility:visible;display:inline;overflow:visible;enable-background:accumulate"/><path id="path125377" d="m 20,32 0,256 256,0 0,-256 -18,0 0,238 -220,0 0,-238 z" style="opacity:.4510002;fill:#3465a4;fill-opacity:1;fill-rule:nonzero;stroke:none;stroke-width:2;marker:none;visibility:visible;display:inline;overflow:visible;enable-background:accumulate"/></g><g id="layer5" style="display:inline"><path style="color:#000;fill:#000;fill-opacity:1;fill-rule:nonzero;stroke:none;stroke-width:1;marker:none;visibility:visible;display:inline;overflow:visible;enable-background:accumulate;filter:url(#filter8366);opacity:.23" id="rect6514-0" d="M 47.61019,52 C 42.83215,52 39,55.832156 39,60.610189 l 0,42.427021 0,108.43846 0,7.48713 C 39,247.2454 61.7546,270 90.03721,270 l 10.48196,0 105.44359,0 42.42705,0 C 253.16786,270 257,266.16784 257,261.38981 l 0,-42.42701 0,-113.42988 0,-2.49571 C 257,74.754607 234.24538,52 205.96276,52 l -15.47335,0 -100.4522,0 -42.42702,0 z"/><path style="opacity:.35;fill:none;stroke:#fff;stroke-width:1;stroke-linecap:butt;stroke-linejoin:miter;stroke-miterlimit:4;stroke-opacity:1;stroke-dasharray:none;stroke-dashoffset:0;marker:none;visibility:visible;display:inline;overflow:visible;enable-background:accumulate" id="path5171-2" d="m 711.96875,228 c -1.90789,1e-5 -3.49694,0.75848 -4.46875,1.71875 l 0,1.78125 9,0 0,-1.75 c -0.96562,-0.98703 -2.59089,-1.75 -4.53125,-1.75 z" transform="translate(-7.8685593e-7,2.029528e-6)"/><path style="opacity:.21499999;color:#000;fill:#000;fill-opacity:1;fill-rule:nonzero;stroke:none;stroke-width:1;marker:none;visibility:visible;display:inline;overflow:visible;filter:url(#filter7786);enable-background:accumulate" id="rect6514-2" d="M 27.61019,52 C 22.83215,52 19,55.832156 19,60.610189 l 0,42.427021 0,108.43846 0,7.48713 C 19,247.2454 41.7546,270 70.03721,270 l 10.48196,0 105.44359,0 42.42705,0 C 233.16786,270 237,266.16784 237,261.38981 l 0,-42.42701 0,-113.42988 0,-2.49571 C 237,74.754607 214.24538,52 185.96276,52 l -15.47335,0 -100.4522,0 -42.42702,0 z" transform="matrix(1,0,0,0.97672568,20,8.9971648)"/><path style="color:#000;fill:url(#linearGradient7943);fill-opacity:1;fill-rule:nonzero;stroke:none;stroke-width:1;marker:none;visibility:visible;display:inline;overflow:visible;enable-background:accumulate" id="rect6514" d="M 47.61019,52 C 42.83215,52 39,55.832156 39,60.610189 l 0,42.427021 0,108.43846 0,7.48713 C 39,247.2454 61.7546,270 90.03721,270 l 10.48196,0 105.44359,0 42.42705,0 C 253.16786,270 257,266.16784 257,261.38981 l 0,-42.42701 0,-113.42988 0,-2.49571 C 257,74.754607 234.24538,52 205.96276,52 l -15.47335,0 -100.4522,0 -42.42702,0 z"/><path style="color:#000;fill:url(#linearGradient7856);fill-opacity:1;fill-rule:evenodd;stroke:none;stroke-width:.20201167px;marker:none;visibility:visible;display:inline;overflow:visible" id="path6190-2" d="m 174.33806,84.125237 c -20.68569,0.303928 -41.24941,8.749551 -57.76374,29.379843 -16.89432,21.10496 -4.85816,50.75697 9.93398,59.25474 11.96063,5.54257 22.45162,-3.63174 24.0051,-9.50827 -4.2895,1.9687 -18.12429,2.12068 -20.65129,-6.26641 -2.65294,-19.48724 10.20115,-33.36231 28.37514,-35.34666 30.69234,-3.35117 54.64555,27.08016 57.09983,55.77191 C 218.79845,217.87545 187.10182,258.4222 150,270 l 98.37892,0 c 4.79754,0 8.62109,-3.85828 8.62109,-8.60617 l 0,-137.43149 c -6.78437,-7.69732 -14.57476,-14.76059 -23.57027,-20.74848 -17.50215,-11.650357 -38.406,-19.392533 -59.09168,-19.088598 z"/><path style="color:#000;fill:url(#linearGradient7854);fill-opacity:1;fill-rule:evenodd;stroke:none;stroke-width:.20201167px;marker:none;visibility:visible;display:inline;overflow:visible" id="path6167-51" d="m 121.66193,237.74036 c 20.68565,-0.30394 41.24936,-8.74954 57.76376,-29.37984 16.89432,-21.10496 4.85808,-50.75697 -9.93398,-59.25474 -11.9607,-5.54258 -22.45168,3.63175 -24.00515,9.50828 4.28951,-1.9687 18.17686,-2.90848 20.70385,5.47861 2.65292,19.48724 -10.25372,34.1501 -28.42767,36.13444 -30.69234,3.35118 -54.64552,-27.08014 -57.0998,-55.7719 C 77.20157,103.99015 108.62835,63.577801 145.73015,52 L 47.66291,52 C 42.7436,52 39,55.860043 39,60.485281 l 0,137.417989 c 6.78435,7.69731 14.57474,14.7606 23.57026,20.74848 17.50219,11.65037 38.40603,19.39254 59.09167,19.08861 z"/><path style="opacity:.66000001;color:#000;fill:none;stroke:url(#linearGradient7736);stroke-width:3;stroke-miterlimit:4;stroke-opacity:1;stroke-dasharray:none;marker:none;visibility:visible;display:inline;overflow:visible;filter:url(#filter7742);enable-background:accumulate" id="rect6514-7" d="M -292.38981,52 C -297.16785,52 -301,55.832156 -301,60.610189 l 0,42.427021 0,108.43846 0,7.48713 c 0,28.2826 22.7546,51.0372 51.03721,51.0372 l 10.48196,0 105.44359,0 42.42705,0 C -86.83214,270 -83,266.16784 -83,261.38981 l 0,-42.42701 0,-113.42988 0,-2.49571 C -83,74.754607 -105.75462,52 -134.03724,52 l -15.47335,0 -100.4522,0 -42.42702,0 z" mask="url(#mask7764)" transform="translate(340,0)"/><rect id="rect27623" width="95.985" height="1.955" x="40.488" y="54.074" rx="1" ry="1" style="opacity:.58399999;color:#000;fill:url(#radialGradient7329);fill-opacity:1;fill-rule:nonzero;stroke:none;stroke-width:.99999994;marker:none;visibility:visible;display:inline;overflow:visible;enable-background:accumulate"/><rect id="rect27623-5" width="74.251" height="1.978" x="176.596" y="263.902" rx="1" ry="1" style="opacity:.58399999;color:#000;fill:url(#radialGradient7890);fill-opacity:1;fill-rule:nonzero;stroke:none;stroke-width:.99999994;marker:none;visibility:visible;display:inline;overflow:visible;enable-background:accumulate"/></g></g></svg>