<svg xmlns="http://www.w3.org/2000/svg" xmlns:svg="http://www.w3.org/2000/svg" xmlns:xlink="http://www.w3.org/1999/xlink" id="svg11300" width="400" height="300" version="1.0" style="display:inline;enable-background:new"><title id="title10372">Available Software Updates</title><defs id="defs3"><linearGradient id="linearGradient6968"><stop id="stop6970" offset="0" style="stop-color:#729fcf;stop-opacity:1"/><stop id="stop6972" offset="1" style="stop-color:#3465a4;stop-opacity:1"/></linearGradient><linearGradient id="linearGradient6928"><stop id="stop6930" offset="0" style="stop-color:#729fcf;stop-opacity:1"/><stop id="stop6932" offset="1" style="stop-color:#3465a4;stop-opacity:1"/></linearGradient><linearGradient id="linearGradient11275"><stop style="stop-color:#729fcf;stop-opacity:1" id="stop11277" offset="0"/><stop style="stop-color:#73d216;stop-opacity:0" id="stop11279" offset="1"/></linearGradient><linearGradient id="linearGradient11225"><stop style="stop-color:#fff;stop-opacity:1" id="stop11227" offset="0"/><stop style="stop-color:#fff;stop-opacity:0" id="stop11229" offset="1"/></linearGradient><linearGradient id="linearGradient3511"><stop style="stop-color:#274d03;stop-opacity:1" id="stop3513" offset="0"/><stop style="stop-color:#274d03;stop-opacity:0" id="stop3515" offset="1"/></linearGradient><linearGradient id="linearGradient3499"><stop style="stop-color:#fff;stop-opacity:1" id="stop3501" offset="0"/><stop style="stop-color:#fff;stop-opacity:0" id="stop3503" offset="1"/></linearGradient><linearGradient id="linearGradient3476"><stop style="stop-color:#fff;stop-opacity:1" id="stop3478" offset="0"/><stop style="stop-color:#fff;stop-opacity:0" id="stop3480" offset="1"/></linearGradient><linearGradient id="linearGradient3448"><stop style="stop-color:#fff;stop-opacity:1" id="stop3450" offset="0"/><stop style="stop-color:#fff;stop-opacity:0" id="stop3452" offset="1"/></linearGradient><linearGradient id="linearGradient3435"><stop style="stop-color:#729fcf;stop-opacity:1" id="stop3437" offset="0"/><stop style="stop-color:#3465a4;stop-opacity:1" id="stop3439" offset="1"/></linearGradient><linearGradient id="linearGradient3285"><stop style="stop-color:#fff;stop-opacity:1" id="stop3287" offset="0"/><stop style="stop-color:#fff;stop-opacity:0" id="stop3289" offset="1"/></linearGradient><linearGradient id="linearGradient3275"><stop style="stop-color:#729fcf;stop-opacity:1" id="stop3277" offset="0"/><stop style="stop-color:#3465a4;stop-opacity:1" id="stop3279" offset="1"/></linearGradient><linearGradient id="linearGradient3371"><stop style="stop-color:#729fcf;stop-opacity:1" id="stop3373" offset="0"/><stop style="stop-color:#3465a4;stop-opacity:1" id="stop3375" offset="1"/></linearGradient><linearGradient id="linearGradient3239"><stop style="stop-color:#fff;stop-opacity:1" id="stop3241" offset="0"/><stop style="stop-color:#fff;stop-opacity:0" id="stop3243" offset="1"/></linearGradient><linearGradient id="linearGradient3245" x1="307" x2="308.856" y1="220.5" y2="236.131" gradientTransform="matrix(1.000063,0,0,1,-1.96201e-2,0)" gradientUnits="userSpaceOnUse" xlink:href="#linearGradient3239"/><radialGradient id="radialGradient3377" cx="311.5" cy="233.857" r="7.5" fx="311.5" fy="233.857" gradientTransform="matrix(1.7142858,0,0,1.0666667,-223.00004,-15.133349)" gradientUnits="userSpaceOnUse" xlink:href="#linearGradient6928"/><radialGradient id="radialGradient3392" cx="311.5" cy="233.274" r="7.5" fx="311.5" fy="233.274" gradientTransform="matrix(1.9666668,0,0,1.4933334,-298.61674,-151.98671)" gradientUnits="userSpaceOnUse" xlink:href="#linearGradient3371"/><linearGradient id="linearGradient3455" x1="307" x2="308.856" y1="220.5" y2="236.131" gradientTransform="matrix(1.4616305,0,0,1.4556199,-140.56714,-143.4642)" gradientUnits="userSpaceOnUse" xlink:href="#linearGradient3239"/><filter id="filter3471" width="1.126" height="3.52" x="-.063" y="-1.26"><feGaussianBlur id="feGaussianBlur3473" stdDeviation=".525"/></filter><radialGradient id="radialGradient3281" cx="320" cy="90.562" r="21" fx="320" fy="90.562" gradientTransform="matrix(1.1905357,0,0,1,-60.971428,0)" gradientUnits="userSpaceOnUse" xlink:href="#linearGradient3275"/><linearGradient id="linearGradient3291" x1="320" x2="320" y1="52" y2="115.538" gradientUnits="userSpaceOnUse" xlink:href="#linearGradient3285"/><filter id="filter3295" width="1.063" height="2.32" x="-.031" y="-.66"><feGaussianBlur id="feGaussianBlur3297" stdDeviation=".55"/></filter><filter id="filter3301" width="1.119" height="3.492" x="-.059" y="-1.246"><feGaussianBlur id="feGaussianBlur3303" stdDeviation="1.038"/></filter><radialGradient id="radialGradient3329" cx="320" cy="90.578" r="21" fx="320" fy="90.578" gradientTransform="matrix(1.2366638,0,0,1,-75.732429,60)" gradientUnits="userSpaceOnUse" xlink:href="#linearGradient6968"/><linearGradient id="linearGradient3331" x1="320" x2="320" y1="52" y2="115.538" gradientTransform="matrix(0.9787784,0,0,0.9787783,6.7909233,61.527957)" gradientUnits="userSpaceOnUse" xlink:href="#linearGradient3285"/><clipPath id="clipPath3423" clipPathUnits="userSpaceOnUse"><rect style="opacity:1;fill:#999;fill-opacity:1;fill-rule:evenodd;stroke:none;stroke-width:12;stroke-linecap:round;stroke-linejoin:round;marker:none;marker-start:none;marker-mid:none;marker-end:none;stroke-miterlimit:4;stroke-dasharray:none;stroke-dashoffset:0;stroke-opacity:1;visibility:visible;display:inline;overflow:visible;enable-background:new" id="rect3425" width="224" height="224" x="36" y="364" rx="5.938" ry="5.938"/></clipPath><filter id="filter3431"><feGaussianBlur id="feGaussianBlur3433" stdDeviation="2.26"/></filter><radialGradient id="radialGradient3441" cx="148" cy="543.258" r="112" fx="148" fy="543.258" gradientTransform="matrix(1.59089,0,0,1.34089,-87.451726,-145.44918)" gradientUnits="userSpaceOnUse" xlink:href="#linearGradient3435"/><filter id="filter3456" width="1.025" height="1.868" x="-.012" y="-.434"><feGaussianBlur id="feGaussianBlur3458" stdDeviation="1.111"/></filter><radialGradient id="radialGradient3461" cx="148" cy="53" r="108" fx="148" fy="53" gradientTransform="matrix(1.6687487,0,0,0.2364047,-98.974807,356.54282)" gradientUnits="userSpaceOnUse" xlink:href="#linearGradient3448"/><filter id="filter3485" width="1.173" height="1.392" x="-.086" y="-.196"><feGaussianBlur id="feGaussianBlur3487" stdDeviation="7.819"/></filter><linearGradient id="linearGradient3489" x1="61.5" x2="61.5" y1="280.026" y2="198.133" gradientTransform="translate(40,322)" gradientUnits="userSpaceOnUse" xlink:href="#linearGradient3476"/><radialGradient id="radialGradient3495" cx="148" cy="53" r="108" fx="148" fy="53" gradientTransform="matrix(1.6687487,0,0,0.2364047,-98.974807,356.54282)" gradientUnits="userSpaceOnUse" xlink:href="#linearGradient3448"/><radialGradient id="radialGradient3505" cx="148" cy="476" r="109" fx="148" fy="476" gradientTransform="matrix(2.437931,0.1422017,-0.05352297,0.9176063,-187.3369,18.173633)" gradientUnits="userSpaceOnUse" xlink:href="#linearGradient3499"/><filter id="filter3507"><feGaussianBlur id="feGaussianBlur3509" stdDeviation="1.11"/></filter><linearGradient id="linearGradient3517" x1="137" x2="137" y1="542.401" y2="-87.094" gradientUnits="userSpaceOnUse" xlink:href="#linearGradient3511"/><filter id="filter3521" width="1.063" height="2.428" x="-.031" y="-.714"><feGaussianBlur id="feGaussianBlur3523" stdDeviation="2.975"/></filter><filter id="filter3531" width="1.125" height="3.856" x="-.063" y="-1.428"><feGaussianBlur id="feGaussianBlur3533" stdDeviation="5.95"/></filter><radialGradient id="radialGradient11231" cx="69.01" cy="41.97" r="108.5" fx="69.01" fy="41.97" gradientTransform="matrix(2.1337521,-0.1382488,0.06120856,0.9447015,-60.35655,119.84958)" gradientUnits="userSpaceOnUse" xlink:href="#linearGradient11225"/><radialGradient id="radialGradient11281" cx="36" cy="351" r="112" fx="36" fy="351" gradientTransform="matrix(2.7881314,-1.5982143e-7,7.4211595e-8,1.2946429,-64.372756,-103.41963)" gradientUnits="userSpaceOnUse" xlink:href="#linearGradient11275"/><radialGradient id="radialGradient11285" cx="69.01" cy="41.97" r="108.5" fx="69.01" fy="41.97" gradientTransform="matrix(0.3963208,-2.5678182e-2,1.1368811e-2,0.1754678,281.30008,65.716739)" gradientUnits="userSpaceOnUse" xlink:href="#linearGradient11225"/><radialGradient id="radialGradient11289" cx="69.01" cy="41.97" r="108.5" fx="69.01" fy="41.97" gradientTransform="matrix(0.2774246,-1.7974727e-2,7.9581677e-3,0.1228275,291.91006,136.60172)" gradientUnits="userSpaceOnUse" xlink:href="#linearGradient11225"/><radialGradient id="radialGradient11293" cx="69.01" cy="41.97" r="108.5" fx="69.01" fy="41.97" gradientTransform="matrix(0.1981604,-1.2839091e-2,5.6844055e-3,8.77339e-2,294.65004,183.85837)" gradientUnits="userSpaceOnUse" xlink:href="#linearGradient11225"/><radialGradient id="radialGradient11297" cx="69.01" cy="41.97" r="108.5" fx="69.01" fy="41.97" gradientTransform="matrix(0.1387123,-8.9873637e-3,3.9790838e-3,6.141373e-2,297.45503,224.80086)" gradientUnits="userSpaceOnUse" xlink:href="#linearGradient11225"/></defs><metadata id="metadata4"/><g id="layer1" style="display:inline"><g id="layer6" style="display:none"><rect id="rect6284" width="48" height="48" x="296.063" y="49.996" style="fill:#eeeeec;fill-opacity:1;fill-rule:nonzero;stroke:none;stroke-width:2;marker:none;visibility:visible;display:inline;overflow:visible;enable-background:accumulate"/><rect style="fill:#eeeeec;fill-opacity:1;fill-rule:nonzero;stroke:none;stroke-width:2;marker:none;visibility:visible;display:inline;overflow:visible;enable-background:accumulate" id="rect6592" width="32" height="32" x="303" y="125.996"/><rect id="rect6749" width="22" height="22" x="303" y="177.059" style="fill:#eeeeec;fill-opacity:1;fill-rule:nonzero;stroke:none;stroke-width:2;marker:none;visibility:visible;display:inline;overflow:visible;enable-background:accumulate"/><rect style="fill:#eeeeec;fill-opacity:1;fill-rule:nonzero;stroke:none;stroke-width:2;marker:none;visibility:visible;display:inline;overflow:visible;enable-background:accumulate" id="rect6833" width="16" height="16" x="303" y="219"/><rect style="fill:#eeeeec;fill-opacity:1;fill-rule:nonzero;stroke:none;stroke-width:2;marker:none;visibility:visible;display:inline;overflow:visible;enable-background:accumulate" id="rect8104" width="24" height="24" x="302" y="176"/><rect style="fill:#eeeeec;fill-opacity:1;fill-rule:nonzero;stroke:none;stroke-width:2;marker:none;visibility:visible;display:inline;overflow:visible;enable-background:accumulate" id="rect6282" width="256" height="256" x="20" y="32"/><text style="font-size:18.30070686px;font-style:normal;font-weight:400;fill:#000;fill-opacity:1;stroke:none;display:inline;enable-background:new;font-family:Bitstream Vera Sans" id="context" x="20.971" y="21.514" xml:space="preserve"><tspan id="tspan2716" x="20.971" y="21.514">actions</tspan></text><text id="text3021" x="153.971" y="21.514" xml:space="preserve" style="font-size:18.30070686px;font-style:normal;font-variant:normal;font-weight:700;font-stretch:normal;text-align:start;line-height:125%;writing-mode:lr-tb;text-anchor:start;fill:#000;fill-opacity:1;stroke:none;display:inline;enable-background:new;font-family:Droid Sans;-inkscape-font-specification:Droid Sans Bold"><tspan id="tspan3023" x="153.971" y="21.514">system-log-out</tspan></text><path style="fill:none;fill-rule:evenodd;stroke:#000;stroke-width:2;stroke-linecap:round;stroke-linejoin:round;stroke-miterlimit:4;stroke-dasharray:none;stroke-opacity:1;display:inline;enable-background:new" id="path3212" d="M 411.5,70.5 L 414.5,66 L 423.5,66 L 427.5,71 L 432.5,71"/><path style="fill:none;fill-rule:evenodd;stroke:#000;stroke-width:3;stroke-linecap:round;stroke-linejoin:round;stroke-miterlimit:4;stroke-dasharray:none;stroke-opacity:1;display:inline;enable-background:new" id="path3214" d="M 404,81.5 L 416.5,81.5 L 417,73 L 420.5,66.5"/><path style="fill:none;fill-rule:evenodd;stroke:#000;stroke-width:3;stroke-linecap:round;stroke-linejoin:miter;stroke-miterlimit:4;stroke-dasharray:none;stroke-opacity:1;display:inline;enable-background:new" id="path3216" d="M 427,88 L 420,74 L 423.5,67.5"/></g><g id="layer2" style="display:inline"><rect style="opacity:1;fill:url(#radialGradient3377);fill-opacity:1;fill-rule:evenodd;stroke:#204a87;stroke-width:.99999994000000003;stroke-linecap:round;stroke-linejoin:miter;marker:none;marker-start:none;marker-mid:none;marker-end:none;stroke-miterlimit:4;stroke-dasharray:none;stroke-dashoffset:0;stroke-opacity:1;visibility:visible;display:inline;overflow:visible;enable-background:new" id="rect2465" width="15" height="15" x="303.5" y="219.5" rx=".875" ry=".875"/><rect style="opacity:.2;fill:none;fill-opacity:1;fill-rule:evenodd;stroke:url(#linearGradient3245);stroke-width:.99999994;stroke-linecap:round;stroke-linejoin:miter;marker:none;marker-start:none;marker-mid:none;marker-end:none;stroke-miterlimit:4;stroke-dasharray:none;stroke-dashoffset:0;stroke-opacity:1;visibility:visible;display:inline;overflow:visible;enable-background:new" id="rect2467" width="13" height="13" x="304.5" y="220.5" rx=".063" ry=".063"/><rect style="opacity:1;fill:#000;fill-opacity:1;fill-rule:evenodd;stroke:none;stroke-width:2;stroke-linecap:square;stroke-linejoin:round;marker:none;marker-start:none;marker-mid:none;marker-end:none;stroke-miterlimit:4;stroke-dasharray:none;stroke-dashoffset:0;stroke-opacity:1;visibility:visible;display:inline;overflow:visible;filter:url(#filter3471);enable-background:new" id="rect3457" width="20" height="1" x="304" y="197" rx=".091" ry=".091" transform="matrix(1.0618718,0,0,1,-19.427759,0)"/><rect style="opacity:1;fill:url(#radialGradient3392);fill-opacity:1;fill-rule:evenodd;stroke:#204a87;stroke-width:1;stroke-linecap:round;stroke-linejoin:miter;marker:none;marker-start:none;marker-mid:none;marker-end:none;stroke-miterlimit:4;stroke-dasharray:none;stroke-dashoffset:0;stroke-opacity:1;visibility:visible;display:inline;overflow:visible;enable-background:new" id="rect3390" width="21" height="21" x="303.5" y="176.5" rx="1.225" ry="1.225"/><rect style="opacity:.2;fill:none;fill-opacity:1;fill-rule:evenodd;stroke:url(#linearGradient3455);stroke-width:1;stroke-linecap:round;stroke-linejoin:miter;marker:none;marker-start:none;marker-mid:none;marker-end:none;stroke-miterlimit:4;stroke-dasharray:none;stroke-dashoffset:0;stroke-opacity:1;visibility:visible;display:inline;overflow:visible;enable-background:new" id="rect3453" width="19" height="18.923" x="304.5" y="177.5" rx=".091" ry=".091"/><g id="g3333"><rect id="rect3299" width="42" height="2" x="299" y="91" rx="1" ry="1" transform="matrix(0.9761905,0,0,1.109375,7.6190476,-9.953125)" style="opacity:.5;fill:#000;fill-opacity:1;fill-rule:evenodd;stroke:none;stroke-width:1;stroke-linecap:round;stroke-linejoin:round;marker:none;marker-start:none;marker-mid:none;marker-end:none;stroke-miterlimit:4;stroke-dasharray:none;stroke-dashoffset:0;stroke-opacity:1;visibility:visible;display:inline;overflow:visible;filter:url(#filter3301);enable-background:new"/><rect id="rect3293" width="42" height="2" x="299" y="91" rx="1" ry="1" transform="matrix(0.9761905,0,0,1.109375,7.6190476,-9.953125)" style="opacity:.5;fill:#000;fill-opacity:1;fill-rule:evenodd;stroke:none;stroke-width:1;stroke-linecap:round;stroke-linejoin:round;marker:none;marker-start:none;marker-mid:none;marker-end:none;stroke-miterlimit:4;stroke-dasharray:none;stroke-dashoffset:0;stroke-opacity:1;visibility:visible;display:inline;overflow:visible;filter:url(#filter3295);enable-background:new"/></g><rect style="opacity:1;fill:url(#radialGradient3281);fill-opacity:1;fill-rule:evenodd;stroke:#204a87;stroke-width:1;stroke-linecap:round;stroke-linejoin:round;marker:none;marker-start:none;marker-mid:none;marker-end:none;stroke-miterlimit:4;stroke-dasharray:none;stroke-dashoffset:0;stroke-opacity:1;visibility:visible;display:inline;overflow:visible;enable-background:new" id="rect3273" width="41" height="41" x="299.5" y="51.5" rx="2.061" ry="2.061"/><rect style="opacity:.2;fill:none;fill-opacity:1;fill-rule:evenodd;stroke:url(#linearGradient3291);stroke-width:1;stroke-linecap:round;stroke-linejoin:round;marker:none;marker-start:none;marker-mid:none;marker-end:none;stroke-miterlimit:4;stroke-dasharray:none;stroke-dashoffset:0;stroke-opacity:1;visibility:visible;display:inline;overflow:visible;enable-background:new" id="rect3283" width="39" height="39" x="300.5" y="52.5" rx="1.063" ry="1.063"/><g style="display:inline;enable-background:new" id="g3337" transform="matrix(0.7317071,0,0,0.7746479,84.853714,84.007042)"><rect id="rect3339" width="42" height="2" x="299" y="91" rx="1" ry="1" transform="matrix(0.9761905,0,0,1.109375,7.6190476,-9.953125)" style="opacity:.5;fill:#000;fill-opacity:1;fill-rule:evenodd;stroke:none;stroke-width:1;stroke-linecap:round;stroke-linejoin:round;marker:none;marker-start:none;marker-mid:none;marker-end:none;stroke-miterlimit:4;stroke-dasharray:none;stroke-dashoffset:0;stroke-opacity:1;visibility:visible;display:inline;overflow:visible;filter:url(#filter3301);enable-background:new"/><rect id="rect3341" width="42" height="2" x="299" y="91" rx="1" ry="1" transform="matrix(0.9761905,0,0,1.109375,7.6190476,-9.953125)" style="opacity:.5;fill:#000;fill-opacity:1;fill-rule:evenodd;stroke:none;stroke-width:1;stroke-linecap:round;stroke-linejoin:round;marker:none;marker-start:none;marker-mid:none;marker-end:none;stroke-miterlimit:4;stroke-dasharray:none;stroke-dashoffset:0;stroke-opacity:1;visibility:visible;display:inline;overflow:visible;filter:url(#filter3295);enable-background:new"/></g><g id="g3324" transform="matrix(0.7073158,0,0,0.7072924,92.658923,47.636917)"><rect id="rect3314" width="41" height="41" x="299.5" y="111.5" rx="2.061" ry="2.061" style="opacity:1;fill:url(#radialGradient3329);fill-opacity:1;fill-rule:evenodd;stroke:#204a87;stroke-width:1.41381931000000005;stroke-linecap:round;stroke-linejoin:round;marker:none;marker-start:none;marker-mid:none;marker-end:none;stroke-miterlimit:4;stroke-dasharray:none;stroke-dashoffset:0;stroke-opacity:1;visibility:visible;display:inline;overflow:visible;enable-background:new"/><rect id="rect3318" width="38.172" height="38.172" x="300.914" y="112.914" rx="1.04" ry="1.04" style="opacity:.2;fill:none;fill-opacity:1;fill-rule:evenodd;stroke:url(#linearGradient3331);stroke-width:1.41381931;stroke-linecap:round;stroke-linejoin:round;marker:none;marker-start:none;marker-mid:none;marker-end:none;stroke-miterlimit:4;stroke-dasharray:none;stroke-dashoffset:0;stroke-opacity:1;visibility:visible;display:inline;overflow:visible;enable-background:new"/></g><path style="opacity:.3;fill:url(#radialGradient11289);fill-opacity:1;fill-rule:evenodd;stroke:none;stroke-width:12;stroke-linecap:round;stroke-linejoin:round;marker:none;marker-start:none;marker-mid:none;marker-end:none;stroke-miterlimit:4;stroke-dasharray:none;stroke-dashoffset:0;stroke-opacity:1;visibility:visible;display:inline;overflow:visible;enable-background:new" id="path11287" d="M 305.31452,127 C 305.13246,127 305,127.13247 305,127.31452 L 305,142.73209 L 333,140.17115 L 333,127.31452 C 333,127.13246 332.86754,127 332.68548,127 L 305.31452,127 z"/><path style="opacity:.3;fill:url(#radialGradient11293);fill-opacity:1;fill-rule:evenodd;stroke:none;stroke-width:12;stroke-linecap:round;stroke-linejoin:round;marker:none;marker-start:none;marker-mid:none;marker-end:none;stroke-miterlimit:4;stroke-dasharray:none;stroke-dashoffset:0;stroke-opacity:1;visibility:visible;display:inline;overflow:visible;enable-background:new" id="path11291" d="M 304.22465,177 C 304.09461,177 304,177.09462 304,177.22466 L 304,188.23721 L 324,186.40796 L 324,177.22466 C 324,177.09462 323.90539,177 323.77535,177 L 304.22465,177 z"/><path style="opacity:.4;fill:url(#radialGradient11297);fill-opacity:1;fill-rule:evenodd;stroke:none;stroke-width:12;stroke-linecap:round;stroke-linejoin:round;marker:none;marker-start:none;marker-mid:none;marker-end:none;stroke-miterlimit:4;stroke-dasharray:none;stroke-dashoffset:0;stroke-opacity:1;visibility:visible;display:inline;overflow:visible;enable-background:new" id="path11295" d="M 304.15726,220 C 304.06623,220 304,220.06624 304,220.15726 L 304,227.86605 L 318,226.58557 L 318,220.15726 C 318,220.06624 317.93377,220 317.84274,220 L 304.15726,220 z"/><path style="opacity:.3;fill:url(#radialGradient11285);fill-opacity:1;fill-rule:evenodd;stroke:none;stroke-width:12;stroke-linecap:round;stroke-linejoin:round;marker:none;marker-start:none;marker-mid:none;marker-end:none;stroke-miterlimit:4;stroke-dasharray:none;stroke-dashoffset:0;stroke-opacity:1;visibility:visible;display:inline;overflow:visible;enable-background:new" id="path11283" d="M 300.44931,52 C 300.18923,52 300,52.189231 300,52.449309 L 300,74.47441 L 340,70.815912 L 340,52.449309 C 340,52.189229 339.81077,52 339.55069,52 L 300.44931,52 z"/></g><g id="layer3" style="display:inline;opacity:1"><rect style="opacity:.7;fill:#000;fill-opacity:1;fill-rule:evenodd;stroke:none;stroke-width:2;marker:none;visibility:visible;display:inline;overflow:visible;filter:url(#filter3531);enable-background:new" id="rect3525" width="228" height="10" x="34" y="260" rx="6.053" ry="5" transform="matrix(0.9912281,0,0,0.787868,1.2982456,55.275649)"/><rect style="opacity:.7;fill:#000;fill-opacity:1;fill-rule:evenodd;stroke:none;stroke-width:2;marker:none;visibility:visible;display:inline;overflow:visible;filter:url(#filter3521);enable-background:new" id="rect3519" width="228" height="10" x="34" y="260" rx="6.053" ry="5" transform="matrix(0.9912281,0,0,0.787868,1.2982456,55.275649)"/><g id="g3417" clip-path="url(#clipPath3423)" transform="translate(0,-322)"><rect id="rect3413" width="224" height="224" x="36" y="364" rx="5.938" ry="5.938" style="fill:url(#radialGradient3441);fill-opacity:1;fill-rule:evenodd;stroke:none;stroke-width:12;marker:none;visibility:visible;display:inline;overflow:visible;enable-background:new"/><rect id="rect11273" width="224" height="224" x="36" y="364" rx="5.938" ry="5.938" style="opacity:.5;fill:url(#radialGradient11281);fill-opacity:1;fill-rule:evenodd;stroke:none;stroke-width:12;marker:none;visibility:visible;display:inline;overflow:visible;enable-background:new"/><rect id="rect3497" width="216" height="224" x="40" y="364" rx="5.725" ry="5.938" transform="matrix(1.0092593,0,0,1,-1.3703703,0)" style="opacity:.4;fill:none;stroke:url(#radialGradient3505);stroke-width:1.99080455;stroke-linecap:round;stroke-linejoin:round;stroke-miterlimit:4;stroke-opacity:1;stroke-dasharray:none;stroke-dashoffset:0;marker:none;visibility:visible;display:inline;overflow:visible;filter:url(#filter3507);enable-background:new"/><path style="opacity:.3;fill:url(#linearGradient3489);fill-opacity:1;fill-rule:evenodd;stroke:none;stroke-width:12;marker:none;visibility:visible;display:inline;overflow:visible;filter:url(#filter3485);enable-background:new" id="rect3463" d="m 79.5,490.75 0,90 c 0,3.18658 2.563418,5.75 5.75,5.75 l 205.5,0 c 3.18658,0 5.75,-2.56342 5.75,-5.75 l 0,-90 c 0,3.18658 -2.56342,5.75 -5.75,5.75 l -205.5,0 c -3.186582,0 -5.75,-2.56342 -5.75,-5.75 z"/><path style="opacity:.5;fill:url(#radialGradient3461);fill-opacity:1;fill-rule:evenodd;stroke:none;stroke-width:12;marker:none;visibility:visible;display:inline;overflow:visible;filter:url(#filter3456);enable-background:new" id="rect3411" d="M 45.725446,366 C 42.553549,366 40,367.14072 40,368.56139 l 0,3.58314 c 0,-1.42067 2.553549,-2.56139 5.725446,-2.56139 l 204.549104,0 c 3.17191,0 5.72545,1.14072 5.72545,2.56139 l 0,-3.58314 C 256,367.14072 253.44646,366 250.27455,366 l -204.549104,0 z" transform="matrix(1,0,0,0.7558804,0,92.34776)"/><rect id="rect3415" width="224" height="224" x="36" y="364" rx="5.938" ry="5.938" style="fill:none;stroke:url(#linearGradient3517);stroke-width:2;stroke-linecap:round;stroke-linejoin:round;stroke-miterlimit:4;stroke-opacity:1;stroke-dasharray:none;stroke-dashoffset:0;marker:none;visibility:visible;display:inline;overflow:visible;filter:url(#filter3431);enable-background:new"/><path style="opacity:.7;fill:url(#radialGradient3495);fill-opacity:1;fill-rule:evenodd;stroke:none;stroke-width:12;marker:none;visibility:visible;display:inline;overflow:visible;filter:url(#filter3456);enable-background:new" id="path3493" d="M 45.725446,366 C 42.553549,366 40,367.14072 40,368.56139 l 0,3.58314 c 0,-1.42067 2.553549,-2.56139 5.725446,-2.56139 l 204.549104,0 c 3.17191,0 5.72545,1.14072 5.72545,2.56139 l 0,-3.58314 C 256,367.14072 253.44646,366 250.27455,366 l -204.549104,0 z" transform="matrix(1,0,0,-1,0,952.14453)"/></g><path style="fill:none;stroke:#fff;stroke-width:20.5625;stroke-linejoin:miter;stroke-miterlimit:4;stroke-opacity:1;stroke-dasharray:none;display:inline;enable-background:new" id="rect6940-5-3-5-5" d="m 194.26562,153.17187 20.5625,0 0,45.31636 c 0,6.2218 -4.82864,11.23052 -10.82641,11.23052 l -34.8939,0 c -5.99803,0 -10.82656,-5.00872 -10.82656,-11.23052 l 0,-85.49204 c 0,-6.2216 4.82853,-11.23057 10.82656,-11.23057 l 34.8939,0 c 5.99777,0 10.82641,5.00897 10.82641,11.23057 l 0,9.13875"/><path style="fill:none;stroke:#fff;stroke-width:20.5625;stroke-linecap:butt;stroke-linejoin:round;stroke-miterlimit:4;stroke-opacity:1;stroke-dasharray:none;display:inline;enable-background:new" id="path6938-8-1-3-7" d="m 70.28125,101.76562 51.40625,0 -25.3876,49.60384 c 17.09521,0 25.3876,2.6667 25.3876,13.39879 l 0,31.55181 c 0,10.11835 -7.99038,13.39869 -12.69375,13.39869 l -38.7125,0"/><path style="opacity:.3;fill:url(#radialGradient11231);fill-opacity:1;fill-rule:evenodd;stroke:none;stroke-width:12;marker:none;visibility:visible;display:inline;overflow:visible;enable-background:new" id="path11218" d="m 42.741004,46 c -1.40023,0 -2.419034,1.018803 -2.419034,2.419034 l 0,118.580966 215.35606,-19.69697 0,-98.883996 C 255.67803,47.018793 254.65924,46 253.259,46 L 42.741004,46 z"/><path style="fill:none;stroke:#fff;stroke-width:2;stroke-linecap:butt;stroke-linejoin:round;stroke-miterlimit:4;stroke-opacity:1;stroke-dasharray:none" id="path6938" d="m 305,223 4,0 -2,4 c 1.34674,0 2,0.19903 2,1 l 0,2 c 0,0.75517 -0.62947,1 -1,1 l -3,0"/><path style="fill:none;stroke:#fff;stroke-width:2;stroke-linejoin:miter;stroke-miterlimit:4;stroke-opacity:1" id="rect6940" d="m 314,227 2,0 0,3.1471 c 0,0.47251 -0.38039,0.8529 -0.8529,0.8529 l -2.2942,0 C 312.38039,231 312,230.61961 312,230.1471 l 0,-6.2942 C 312,223.38039 312.38039,223 312.8529,223 l 2.2942,0 c 0.47251,0 0.8529,0.38039 0.8529,0.8529 l 0,1.21588"/><path style="fill:none;stroke:#fff;stroke-width:2;stroke-linecap:butt;stroke-linejoin:round;stroke-miterlimit:4;stroke-opacity:1;stroke-dasharray:none;display:inline;enable-background:new" id="path6938-8" d="m 307,181.99279 5,0 -2.36365,4.8149 c 1.5916,0 2.36365,0.2373 2.36365,1.19231 l 0,2.80769 C 312,191.70809 311.25607,192 310.81818,192 L 307,192"/><path style="fill:none;stroke:#fff;stroke-width:2;stroke-linejoin:miter;stroke-miterlimit:4;stroke-opacity:1;display:inline;enable-background:new" id="rect6940-5" d="m 318,187 2,0 0,3.98308 C 320,191.54646 319.55045,192 318.99203,192 L 316,192 c -0.55842,0 -1.00798,-0.45354 -1.00798,-1.01692 l 0,-7.97337 c 0,-0.56337 0.44956,-1.01692 1.00798,-1.01692 l 2.99203,0 c 0.55842,0 1.00797,0.45355 1.00797,1.01692 L 320,184"/><path style="fill:none;stroke:#fff;stroke-width:3;stroke-linecap:butt;stroke-linejoin:round;stroke-miterlimit:4;stroke-opacity:1;stroke-dasharray:none;display:inline;enable-background:new" id="path6938-8-1" d="m 309,135.47918 6.5,0 -3.1812,5.98299 c 2.14212,0 3.1812,0.32165 3.1812,1.6161 l 0,3.80564 c 0,1.22043 -1.00124,1.61609 -1.59059,1.61609 L 309,148.5"/><path style="fill:none;stroke:#fff;stroke-width:3;stroke-linejoin:miter;stroke-miterlimit:4;stroke-opacity:1;stroke-dasharray:none;display:inline;enable-background:new" id="rect6940-5-3" d="m 325,141.49327 2.5,0 0,5.62837 c 0,0.76362 -0.60505,1.37836 -1.35661,1.37836 l -4.28782,0 c -0.75158,0 -1.35663,-0.61474 -1.35663,-1.37836 l 0,-10.26409 c 0,-0.7636 0.60505,-1.37837 1.35663,-1.37837 l 4.28782,0 c 0.75156,0 1.35661,0.61477 1.35661,1.37837 l 0,1.12163"/><path style="fill:none;stroke:#fff;stroke-width:4;stroke-linecap:butt;stroke-linejoin:round;stroke-miterlimit:4;stroke-opacity:1;stroke-dasharray:none;display:inline;enable-background:new" id="path6938-8-1-3" d="m 305,62 10,0 -4.93862,9.649377 c 3.32551,0 4.93862,0.518758 4.93862,2.60645 l 0,6.137744 c 0,1.968311 -1.55436,2.606432 -2.4693,2.606432 l -7.5307,0"/><path style="fill:none;stroke:#fff;stroke-width:3.99999976;stroke-linejoin:miter;stroke-miterlimit:4;stroke-opacity:1;stroke-dasharray:none;display:inline;enable-background:new" id="rect6940-5-3-5" d="m 329,72 4,0 0,8.815344 C 333,82.025657 332.06069,83 330.89395,83 l -6.78787,0 C 322.93929,83 322,82.025657 322,80.815344 L 322,64.18467 C 322,62.97439 322.93929,62 324.10608,62 l 6.78787,0 C 332.06069,62 333,62.97439 333,64.18467 l 0,1.777748"/></g></g></svg>