<svg xmlns="http://www.w3.org/2000/svg" xmlns:svg="http://www.w3.org/2000/svg" id="svg2" width="256" height="256" version="1.1"><defs id="defs4"><clipPath id="clipPath6193" clipPathUnits="userSpaceOnUse"><path id="path6195" d="m 1600,2252.8 5020,0 0,3650 -5020,0 0,-3650 z"/></clipPath><linearGradient id="linearGradient6181" x1="0" x2="1" y1="0" y2="0" gradientTransform="matrix(-3.593e-5,822,822,3.593e-5,411,0)" gradientUnits="userSpaceOnUse" spreadMethod="pad"><stop id="stop6183" offset="0" style="stop-opacity:1;stop-color:#c01e25"/><stop id="stop6185" offset="1" style="stop-opacity:1;stop-color:#e62426"/></linearGradient><clipPath id="clipPath6177" clipPathUnits="userSpaceOnUse"><path id="path6179" d="M 8220,0 0,0 l 0,8220 8220,0 0,-8220 m -6620,5902.8 0,-3650 5020,0 0,3650 -5020,0"/></clipPath></defs><metadata id="metadata7"/><g id="layer1" transform="translate(0,-796.36218)"><g id="g7288" transform="translate(551.5,989.9982)"><g id="g7299" transform="matrix(0.89344262,0,0,0.89344262,-396.25,-32.797277)"><path id="path7297" d="m 623,153 c 0,73.45387 -59.54613,133 -133,133 -73.45387,0 -133,-59.54613 -133,-133 0,-73.453872 59.54613,-133 133,-133 73.45387,0 133,59.546128 133,133 z" transform="matrix(0.9172932,0,0,0.9172932,-479.97369,-175.98184)" style="color:#000;fill:#e22a26;fill-opacity:1;fill-rule:nonzero;stroke:none;stroke-width:1;marker:none;visibility:visible;display:inline;overflow:visible;enable-background:accumulate"/><g id="g7271" transform="matrix(2.4651519,0,0,2.4651519,-152.67447,-132)"><g id="Layer_2"><g id="g7276"><path style="fill:#fff" id="path7278" d="m 61.397,15.688 c -0.672,-2.514 -3.253,-4.007 -5.767,-3.336 -2.515,0.671 -4.008,3.253 -3.336,5.767 0.67,2.514 3.252,4.007 5.767,3.335 2.512,-0.67 4.006,-3.252 3.336,-5.766 l 0,0 z M 73.37,40.919 c -2.304,0.615 -4.668,-0.753 -5.283,-3.056 -0.615,-2.302 0.753,-4.667 3.057,-5.282 2.303,-0.615 4.668,0.753 5.282,3.056 0.614,2.303 -0.754,4.667 -3.056,5.282 l 0,0 z M 69.122,25.008 c -6.485,1.731 -10.339,8.392 -8.607,14.876 0.002,0.004 5.346,20.04 5.346,20.04 l 7.504,-2.004 -2.427,-9.091 c 1.452,0.159 2.957,0.061 4.454,-0.339 6.484,-1.73 10.337,-8.392 8.605,-14.876 C 82.266,27.13 75.606,23.277 69.122,25.008 l 0,0 z M 29.873,52.532 c -2.303,0.615 -4.668,-0.752 -5.283,-3.056 -0.614,-2.303 0.753,-4.667 3.056,-5.282 2.303,-0.615 4.667,0.754 5.282,3.057 0.616,2.302 -0.752,4.667 -3.055,5.281 l 0,0 z M 25.625,36.623 c -1.497,0.4 -2.851,1.064 -4.031,1.926 l -2.427,-9.09 -7.504,2.004 c 0,0 5.354,20.033 5.355,20.036 1.731,6.484 8.392,10.339 14.876,8.607 C 38.378,58.375 42.231,51.713 40.5,45.229 38.769,38.745 32.109,34.891 25.625,36.623 l 0,0 z m 28.703,16.993 7.504,-2.004 -6.021,-22.547 -7.504,2.004 6.021,22.547 0,0 z m -9.516,2.54 7.504,-2.004 -8.36,-31.312 -7.504,2.004 8.36,31.312 0,0 z"/></g></g></g></g></g></g></svg>