<svg xmlns="http://www.w3.org/2000/svg" xmlns:svg="http://www.w3.org/2000/svg" id="svg7384" width="16" height="16" version="1.1"><metadata id="metadata90"/><title id="title9167">Gnome Symbolic Icon Theme</title><g id="layer9" transform="translate(-81.0002,-177)" style="display:inline"><path id="path10973" d="m 92.34395,177.40625 -0.6875,0.71875 2.4375,2.40625 0,2.5625 0,0.21875 0.15625,0.125 0.78125,0.78125 -0.0312,4.30806 c 0,0.96245 -0.30794,1.50525 -0.9949,1.50525 -0.61105,0 -1.00515,-0.47973 -1.00515,-1.47963 l 0.004,-2.08368 C 93.0042,185.56488 92.43077,185 91.44979,185 l -1.01167,0 0,1 0.98042,0 c 0.32421,0 0.58566,0.25268 0.58566,0.46875 l 0,2.08368 c 0,1.66609 0.9908,2.46306 1.996,2.46306 1.28725,0 2,-0.80578 2.00042,-2.46306 l 0.0625,-7.27118 0,-0.21875 -0.15625,-0.15625 z" style="font-size:medium;font-style:normal;font-variant:normal;font-weight:400;font-stretch:normal;text-indent:0;text-align:start;text-decoration:none;line-height:normal;letter-spacing:normal;word-spacing:normal;text-transform:none;direction:ltr;block-progression:tb;writing-mode:lr-tb;text-anchor:start;baseline-shift:baseline;color:#000;fill:#bebebe;fill-opacity:1;stroke:none;stroke-width:1px;marker:none;visibility:visible;display:inline;overflow:visible;enable-background:accumulate;font-family:Sans;-inkscape-font-specification:Sans"/><path id="rect10960" d="m 84.0002,178 c -1.108,0 -2,0.892 -2,2 l 0,11 c -0.554,0 -1,0.446 -1,1 l 11,0 c 0,-0.554 -0.446,-1 -1,-1 l 0,-11 c 0,-1.108 -0.892,-2 -2,-2 z m 0,1 5,0 c 0.554,0 1,0.446 1,1 l 0,2 c 0,0.554 -0.446,1 -1,1 l -5,0 c -0.554,0 -1,-0.446 -1,-1 l 0,-2 c 0,-0.554 0.446,-1 1,-1 z" style="color:#000;fill:#bebebe;fill-opacity:1;fill-rule:nonzero;stroke:none;stroke-width:.5;marker:none;visibility:visible;display:inline;overflow:visible;enable-background:accumulate"/></g></svg>