<svg xmlns="http://www.w3.org/2000/svg" xmlns:svg="http://www.w3.org/2000/svg" id="svg7384" width="16" height="16" version="1.1"><metadata id="metadata90"/><title id="title9167">Gnome Symbolic Icon Theme</title><g id="layer9" transform="translate(-41.0002,-177)" style="display:inline"><path id="rect10016" d="m 44.0002,178 c -1.108,0 -2,0.892 -2,2 l 0,10 c 0,1.108 0.892,2 2,2 l 10,0 c 1.108,0 2,-0.892 2,-2 l 0,-10 c 0,-1.108 -0.892,-2 -2,-2 z m 2,2 3.22244,0 c 2.37665,0 3.77756,1.19761 3.77756,3.4375 0,2.0602 -1.11795,3.5625 -3,3.5625 l -2,0 0,3 -2,0 z m 2,2 0,3 1.32519,0 c 1.15778,0 1.67481,-0.58747 1.67481,-1.46875 C 51.0002,182.88147 50.76049,182 49.37809,182 z" style="color:#000;fill:#bebebe;fill-opacity:1;fill-rule:nonzero;stroke:none;stroke-width:.5;marker:none;visibility:visible;display:inline;overflow:visible;enable-background:accumulate"/></g></svg>