<svg xmlns="http://www.w3.org/2000/svg" xmlns:svg="http://www.w3.org/2000/svg" id="svg7384" width="16" height="16" version="1.1"><metadata id="metadata90"/><title id="title9167">Gnome Symbolic Icon Theme</title><g id="layer9" transform="translate(-141.0002,-177)" style="display:inline"><path id="rect11069" d="m 149.0002,178 c -2.20914,0 -4,1.79086 -4,4 l 0,10 8,0 0,-10 c 0,-2.20914 -1.79086,-4 -4,-4 z m -3,4 6,0 0,1 -6,0 0,-1 z m 0,3 0.3125,0 5.1875,0 0.5,0 0,1 0,3 -6,0 0,-0.4375 0,-2.5625 0,-0.3125 0,-0.6875 z m 2.1875,1 0.8125,0.4375 0.75,-0.4375 -1.5625,0 z m 2.8125,0.46875 -2,1.09375 -2,-1.03125 0,1.46875 4,0 0,-1.53125 z" style="color:#000;fill:#bebebe;fill-opacity:1;fill-rule:nonzero;stroke:none;stroke-width:0;marker:none;visibility:visible;display:inline;overflow:visible;enable-background:accumulate"/></g></svg>