<svg xmlns="http://www.w3.org/2000/svg" xmlns:svg="http://www.w3.org/2000/svg" id="svg7384" width="16" height="16" version="1.1"><metadata id="metadata90"/><title id="title9167">Gnome Symbolic Icon Theme</title><g id="layer9" transform="translate(-61.0002,-177)" style="display:inline"><path id="path10893" d="m 75.0002,178 0,13 c 0,0.61872 -0.32972,1 -1,1 -0.58189,0 -1,-0.40338 -1,-1 l 0,-4.60746 C 68.91461,182.79145 72.03644,178 75.0002,178 z" style="color:#000;fill:#bebebe;fill-opacity:1;fill-rule:nonzero;stroke:none;stroke-width:.5;marker:none;visibility:visible;display:inline;overflow:visible;enable-background:accumulate"/><path id="path10895" d="m 62.0002,182 c 0,0.83333 0.40155,1.56113 0.9375,2.09375 0.52898,0.52569 1.23978,0.89669 2.0625,0.90625 l 0,6 c -0.007,0.52831 0.47163,1.01424 1,1.01424 0.52837,0 1.00747,-0.48593 1,-1.01424 l 0,-6 0.0312,0 c 0.8287,0 1.53642,-0.37492 2.0625,-0.90625 0.52613,-0.53133 0.9063,-1.26042 0.9063,-2.09375 0,-0.68259 -0.63368,-4 -2,-4 l 0,1 c -2.2e-4,0.0103 -1.5e-4,0.0209 0,0.0312 l 0,2.96875 c 0,0.16667 -0.12724,0.43758 -0.34375,0.65625 C 67.43994,182.87492 67.17312,183 67.03145,183 l -0.0312,0 -0.51563,-5 -0.99999,0 -0.48438,5 C 64.81758,182.98982 64.5535,182.86443 64.344,182.65625 64.1252,182.43886 64.0002,182.16667 64.0002,182 l 0,-2.96875 c 2.6e-4,-0.0106 1.4e-4,-0.0207 0,-0.0312 l 0,-1 c -1.62314,0 -2,3.40464 -2,4 z" style="font-size:medium;font-style:normal;font-variant:normal;font-weight:400;font-stretch:normal;text-indent:0;text-align:start;text-decoration:none;line-height:normal;letter-spacing:normal;word-spacing:normal;text-transform:none;direction:ltr;block-progression:tb;writing-mode:lr-tb;text-anchor:start;baseline-shift:baseline;color:#000;fill:#bebebe;fill-opacity:1;fill-rule:nonzero;stroke:none;stroke-width:.5;marker:none;visibility:visible;display:inline;overflow:visible;enable-background:accumulate;font-family:Sans;-inkscape-font-specification:Sans"/></g></svg>