<svg xmlns="http://www.w3.org/2000/svg" xmlns:svg="http://www.w3.org/2000/svg" id="svg7384" width="16" height="16" version="1.1"><metadata id="metadata90"/><title id="title9167">Gnome Symbolic Icon Theme</title><g id="layer9" transform="translate(-161.0002,-177)" style="display:inline"><path id="path13435" d="m 164.03145,186.41984 c -0.01,0.0935 -0.0312,0.17982 -0.0312,0.2754 0,1.82516 1.79086,3.30476 4,3.30476 2.20914,0 4,-1.4796 4,-3.30476 0,-0.0722 -0.0257,-0.13556 -0.0312,-0.20655 L 168.0002,189 z" style="color:#000;fill:#bebebe;fill-opacity:1;stroke:none;stroke-width:.9499824px;marker:none;visibility:visible;display:inline;overflow:visible;enable-background:accumulate"/><path id="path13439" d="m 167.96895,179.96875 -6.46875,3.5 6.5,4.09375 6.625,-4.03125 -6.65625,-3.5625 z M 168.0002,183 c 0.55229,0 1,0.22386 1,0.5 0,0.27614 -0.44771,0.5 -1,0.5 -0.55229,0 -1,-0.22386 -1,-0.5 0,-0.27614 0.44771,-0.5 1,-0.5 z" style="fill:#bebebe;fill-opacity:1;stroke:none"/><path id="path13444" d="m 169.375,183.03125 0,1 4.625,0 0,3.96875 0,0.0312 c 0.0308,0.69753 0.45308,1.19088 0.8125,1.53125 0.35942,0.34037 0.71875,0.5625 0.71875,0.5625 L 176,189.25 c 0,0 -0.23913,-0.15921 -0.5,-0.40625 -0.25384,-0.24039 -0.47639,-0.54847 -0.5,-0.84375 -6.5e-4,-0.008 3.6e-4,-0.0231 0,-0.0312 l 0,-4.4375 0,-0.5 -0.5,0 -5.125,0 z" style="font-size:medium;font-style:normal;font-variant:normal;font-weight:400;font-stretch:normal;text-indent:0;text-align:start;text-decoration:none;line-height:normal;letter-spacing:normal;word-spacing:normal;text-transform:none;direction:ltr;block-progression:tb;writing-mode:lr-tb;text-anchor:start;baseline-shift:baseline;color:#000;fill:#bebebe;fill-opacity:1;stroke:none;stroke-width:1px;marker:none;visibility:visible;display:inline;overflow:visible;enable-background:accumulate;font-family:Sans;-inkscape-font-specification:Sans"/><path id="path13446" d="m -45,-31.5 a 1.5,1.5 0 1 1 -3,0 1.5,1.5 0 1 1 3,0 z" transform="matrix(0.66854633,0,0,0.66854633,206.09042,208.06203)" style="color:#000;fill:#bebebe;fill-opacity:1;fill-rule:nonzero;stroke:none;stroke-width:1px;marker:none;visibility:visible;display:inline;overflow:visible;enable-background:accumulate"/></g></svg>