<svg xmlns="http://www.w3.org/2000/svg" xmlns:svg="http://www.w3.org/2000/svg" id="svg7384" width="16" height="16" version="1.1"><metadata id="metadata90"/><title id="title9167">Gnome Symbolic Icon Theme</title><g id="layer9" transform="translate(-141.0002,-157)" style="display:inline"><path id="path13375" d="m 144.03145,165.41984 c -0.01,0.0935 -0.0312,0.17982 -0.0312,0.2754 0,1.82516 1.79086,3.30476 4,3.30476 2.20914,0 4,-1.4796 4,-3.30476 0,-0.0722 -0.0257,-0.13556 -0.0312,-0.20655 L 148.0002,168 z" style="color:#000;fill:#bebebe;fill-opacity:1;stroke:none;stroke-width:.9499824px;marker:none;visibility:visible;display:inline;overflow:visible;enable-background:accumulate"/><path id="path13358" d="m 148.0002,159 -6.53125,3.5 6.53125,4.03125 2.8125,-1.78125 c -0.0757,-0.75754 -1.03051,-1.53053 -2.09375,-1.90625 -0.18096,0.0905 -0.44261,0.15625 -0.71875,0.15625 -0.55228,0 -1,-0.22386 -1,-0.5 0,-0.27614 0.44772,-0.5 1,-0.5 0.55228,0 1,0.22386 1,0.5 0,0.0815 -0.0559,0.15078 -0.125,0.21875 1.19957,0.14151 2.33396,0.5419 2.90625,1.5 0.35619,0.59632 0.60579,1.23179 1.0625,1.75 -0.39478,1.02689 0.71238,1.88783 1.59375,1.40625 l 0,0.0312 c 0.78667,0.6015 0.7547,1.62461 0.21875,2.5 l 2.34375,0 c -0.2316,-1.36741 -0.59314,-2.78463 -1.84375,-3.46875 0.0858,-0.98413 -0.57538,-1.45188 -1.40625,-1.3125 -0.36185,-0.31821 -0.58982,-1.12349 -0.875,-1.5 l 1.75,-1.09375 L 148.0002,159 z" style="color:#bebebe;fill:#bebebe;fill-opacity:1;fill-rule:nonzero;stroke:none;stroke-width:2;marker:none;visibility:visible;display:inline;overflow:visible;enable-background:accumulate"/></g></svg>