<svg xmlns="http://www.w3.org/2000/svg" xmlns:svg="http://www.w3.org/2000/svg" id="svg7384" width="16" height="16" version="1.1"><metadata id="metadata90"/><title id="title9167">Gnome Symbolic Icon Theme</title><g id="layer9" transform="translate(-161.0002,-157)" style="display:inline"><path id="path21200" d="m 52,342.5 a 2.5,2.5 0 1 1 -5,0 2.5,2.5 0 1 1 5,0 z" transform="matrix(1.1867402,0,0,1.1867402,110.20956,-243.42537)" style="color:#bebebe;fill:#bebebe;fill-opacity:1;fill-rule:nonzero;stroke:none;stroke-width:2;marker:none;visibility:visible;display:inline;overflow:visible;enable-background:accumulate"/><path id="path21202" d="m 170.98634,167 -4,0 0,-1 c -2.26063,0.0761 -3,1.98067 -3,3.46568 l 0,2.53432 10,0 0,-2.53432 c 0,-1.4951 -0.4752,-3.42163 -3,-3.46568 z" style="color:#bebebe;fill:#bebebe;fill-opacity:1;fill-rule:nonzero;stroke:none;stroke-width:2;marker:none;visibility:visible;display:inline;overflow:visible;enable-background:accumulate"/><path id="path13308" d="m 169.01107,163.12289 -5.3013,-3.05661 5.25354,-3.0566 5.44458,3.0566 z" style="color:#bebebe;fill:#bebebe;fill-opacity:1;fill-rule:nonzero;stroke:none;stroke-width:2;marker:none;visibility:visible;display:inline;overflow:visible;enable-background:accumulate"/><path id="path13327" d="m 172,159.46875 c 0,1.63888 0.58437,2.92647 1.65625,3.90625 l 0.6875,-0.75 C 173.44679,161.80512 173,160.88895 173,159.46875 l -1,0 z" style="font-size:medium;font-style:normal;font-variant:normal;font-weight:400;font-stretch:normal;text-indent:0;text-align:start;text-decoration:none;line-height:normal;letter-spacing:normal;word-spacing:normal;text-transform:none;direction:ltr;block-progression:tb;writing-mode:lr-tb;text-anchor:start;baseline-shift:baseline;color:#000;fill:#bebebe;fill-opacity:1;stroke:none;stroke-width:1px;marker:none;visibility:visible;display:inline;overflow:visible;enable-background:accumulate;font-family:Sans;-inkscape-font-specification:Sans"/><path id="path13329" d="m -66,-32 a 1,1 0 1 1 -2,0 1,1 0 1 1 2,0 z" transform="translate(241.0002,195)" style="color:#bebebe;fill:#bebebe;fill-opacity:1;fill-rule:nonzero;stroke:none;stroke-width:2;marker:none;visibility:visible;display:inline;overflow:visible;enable-background:accumulate"/><path id="path13331" d="m 174.75,163 -0.375,0.9375 c 0.0455,0.0183 0.26244,0.17951 0.40625,0.40625 0.14381,0.22674 0.22756,0.51879 0.21875,0.625 l 1,0.0625 c 0.0381,-0.45949 -0.15091,-0.86543 -0.375,-1.21875 -0.22409,-0.35332 -0.48264,-0.6543 -0.875,-0.8125 z" style="font-size:medium;font-style:normal;font-variant:normal;font-weight:400;font-stretch:normal;text-indent:0;text-align:start;text-decoration:none;line-height:normal;letter-spacing:normal;word-spacing:normal;text-transform:none;direction:ltr;block-progression:tb;writing-mode:lr-tb;text-anchor:start;baseline-shift:baseline;color:#000;fill:#bebebe;fill-opacity:1;stroke:none;stroke-width:1px;marker:none;visibility:visible;display:inline;overflow:visible;enable-background:accumulate;font-family:Sans;-inkscape-font-specification:Sans"/></g></svg>