<svg xmlns="http://www.w3.org/2000/svg" xmlns:svg="http://www.w3.org/2000/svg" xmlns:xlink="http://www.w3.org/1999/xlink" id="svg7384" width="16" height="16" version="1.1"><metadata id="metadata90"/><title id="title9167">Gnome Symbolic Icon Theme</title><defs id="defs7386"><linearGradient id="linearGradient5408"><stop style="stop-color:#bebebe;stop-opacity:1" id="stop5410" offset="0"/><stop style="stop-color:#bebebe;stop-opacity:0" id="stop5412" offset="1"/></linearGradient><clipPath id="clipPath6279-6-1-4-5" clipPathUnits="userSpaceOnUse"><rect style="color:#bebebe;fill:#bebebe;fill-opacity:1;fill-rule:nonzero;stroke:none;stroke-width:2;marker:none;visibility:visible;display:inline;overflow:visible" id="rect6281-3-0-3-5" width="3.825" height="6.375" x="26.85" y="220.75"/></clipPath><clipPath id="clipPath6265-33-6-5-1-3" clipPathUnits="userSpaceOnUse"><rect style="color:#bebebe;fill:#bebebe;fill-opacity:1;fill-rule:nonzero;stroke:none;stroke-width:2;marker:none;visibility:visible;display:inline;overflow:visible" id="rect6267-6-9-1-4-8" width="2.898" height="5.216" x="26.966" y="221.33"/></clipPath><clipPath id="clipPath6259-6-8-2-1-6-6" clipPathUnits="userSpaceOnUse"><rect style="color:#bebebe;fill:#bebebe;fill-opacity:1;stroke:none;stroke-width:2;marker:none;visibility:visible;display:inline;overflow:visible" id="rect6261-4-9-2-0-9-0" width="1.876" height="4.873" x="26.999" y="221.502"/></clipPath><clipPath id="clipPath6279-2-3" clipPathUnits="userSpaceOnUse"><rect style="color:#bebebe;fill:#bebebe;fill-opacity:1;fill-rule:nonzero;stroke:none;stroke-width:2;marker:none;visibility:visible;display:inline;overflow:visible" id="rect6281-5-3" width="3.825" height="6.375" x="26.85" y="220.75"/></clipPath><clipPath id="clipPath6265-3-5-6" clipPathUnits="userSpaceOnUse"><rect style="color:#bebebe;fill:#bebebe;fill-opacity:1;fill-rule:nonzero;stroke:none;stroke-width:2;marker:none;visibility:visible;display:inline;overflow:visible" id="rect6267-1-8-1" width="2.898" height="5.216" x="26.966" y="221.33"/></clipPath><clipPath id="clipPath6259-8-8-8" clipPathUnits="userSpaceOnUse"><rect style="color:#bebebe;fill:#bebebe;fill-opacity:1;stroke:none;stroke-width:2;marker:none;visibility:visible;display:inline;overflow:visible" id="rect6261-6-0-7" width="1.876" height="4.873" x="26.999" y="221.502"/></clipPath><clipPath id="clipPath3157-7-0" clipPathUnits="userSpaceOnUse"><rect id="rect3159-5-5" width="1.739" height="5.216" x="28.125" y="221.33" style="color:#bebebe;fill:#bebebe;fill-opacity:1;fill-rule:nonzero;stroke:none;stroke-width:2;marker:none;visibility:visible;display:inline;overflow:visible"/></clipPath><clipPath id="clipPath6279-6-1" clipPathUnits="userSpaceOnUse"><rect style="color:#bebebe;fill:#bebebe;fill-opacity:1;fill-rule:nonzero;stroke:none;stroke-width:2;marker:none;visibility:visible;display:inline;overflow:visible" id="rect6281-3-1" width="3.825" height="6.375" x="26.85" y="220.75"/></clipPath><clipPath id="clipPath6265-33-6-4-0" clipPathUnits="userSpaceOnUse"><rect style="color:#bebebe;fill:#bebebe;fill-opacity:1;fill-rule:nonzero;stroke:none;stroke-width:2;marker:none;visibility:visible;display:inline;overflow:visible" id="rect6267-6-9-19-3" width="2.898" height="5.216" x="26.966" y="221.33"/></clipPath><clipPath id="clipPath6259-6-8-2-8-0" clipPathUnits="userSpaceOnUse"><rect style="color:#bebebe;fill:#bebebe;fill-opacity:1;stroke:none;stroke-width:2;marker:none;visibility:visible;display:inline;overflow:visible" id="rect6261-4-9-2-7-0" width="1.876" height="4.873" x="26.999" y="221.502"/></clipPath><clipPath id="clipPath6265-33-4" clipPathUnits="userSpaceOnUse"><rect style="color:#bebebe;fill:#bebebe;fill-opacity:1;fill-rule:nonzero;stroke:none;stroke-width:2;marker:none;visibility:visible;display:inline;overflow:visible" id="rect6267-6-5" width="2.898" height="5.216" x="26.966" y="221.33"/></clipPath><clipPath id="clipPath6259-6-8-25-4" clipPathUnits="userSpaceOnUse"><rect style="color:#bebebe;fill:#bebebe;fill-opacity:1;stroke:none;stroke-width:2;marker:none;visibility:visible;display:inline;overflow:visible" id="rect6261-4-9-24-2" width="1.876" height="4.873" x="26.999" y="221.502"/></clipPath><clipPath id="clipPath6259-6-4" clipPathUnits="userSpaceOnUse"><rect style="color:#bebebe;fill:#bebebe;fill-opacity:1;stroke:none;stroke-width:2;marker:none;visibility:visible;display:inline;overflow:visible" id="rect6261-4-9" width="1.876" height="4.873" x="26.999" y="221.502"/></clipPath><clipPath id="clipPath6279-7-9" clipPathUnits="userSpaceOnUse"><rect style="color:#bebebe;fill:#bebebe;fill-opacity:1;fill-rule:nonzero;stroke:none;stroke-width:2;marker:none;visibility:visible;display:inline;overflow:visible" id="rect6281-1-9" width="3.825" height="6.375" x="26.85" y="220.75"/></clipPath><clipPath id="clipPath6265-3-4" clipPathUnits="userSpaceOnUse"><rect style="color:#bebebe;fill:#bebebe;fill-opacity:1;fill-rule:nonzero;stroke:none;stroke-width:2;marker:none;visibility:visible;display:inline;overflow:visible" id="rect6267-1-9" width="2.898" height="5.216" x="26.966" y="221.33"/></clipPath><clipPath id="clipPath6259-8-81" clipPathUnits="userSpaceOnUse"><rect style="color:#bebebe;fill:#bebebe;fill-opacity:1;stroke:none;stroke-width:2;marker:none;visibility:visible;display:inline;overflow:visible" id="rect6261-6-6" width="1.876" height="4.873" x="26.999" y="221.502"/></clipPath><clipPath id="clipPath6279-3" clipPathUnits="userSpaceOnUse"><rect style="color:#bebebe;fill:#bebebe;fill-opacity:1;fill-rule:nonzero;stroke:none;stroke-width:2;marker:none;visibility:visible;display:inline;overflow:visible" id="rect6281-9" width="3.825" height="6.375" x="26.85" y="220.75"/></clipPath><clipPath id="clipPath6265-334" clipPathUnits="userSpaceOnUse"><rect style="color:#bebebe;fill:#bebebe;fill-opacity:1;fill-rule:nonzero;stroke:none;stroke-width:2;marker:none;visibility:visible;display:inline;overflow:visible" id="rect6267-61" width="2.898" height="5.216" x="26.966" y="221.33"/></clipPath><clipPath id="clipPath6259-5" clipPathUnits="userSpaceOnUse"><rect style="color:#bebebe;fill:#bebebe;fill-opacity:1;stroke:none;stroke-width:2;marker:none;visibility:visible;display:inline;overflow:visible" id="rect6261-61" width="1.876" height="4.873" x="26.999" y="221.502"/></clipPath><clipPath id="clipPath6810-7" clipPathUnits="userSpaceOnUse"><rect id="rect6812-2" width="14" height="11" x="21" y="281" style="color:#bebebe;fill:none;stroke:#fff;stroke-width:2;stroke-linecap:round;stroke-linejoin:round;stroke-miterlimit:4;stroke-opacity:1;stroke-dasharray:none;stroke-dashoffset:0;marker:none;visibility:visible;display:inline;overflow:visible"/></clipPath><clipPath id="clipPath3668" clipPathUnits="userSpaceOnUse"><rect id="rect3670" width="1.876" height="3.373" x="26.999" y="221.502" style="color:#bebebe;fill:#bebebe;fill-opacity:1;stroke:none;stroke-width:2;marker:none;visibility:visible;display:inline;overflow:visible"/></clipPath><clipPath id="clipPath3697" clipPathUnits="userSpaceOnUse"><path style="color:#bebebe;fill:#bebebe;fill-opacity:1;fill-rule:nonzero;stroke:none;stroke-width:2;marker:none;visibility:visible;display:inline;overflow:visible" id="path3699" d="m 26.965789,221.32959 0,5.21591 0.579546,0 0,-1.15909 2.318182,0 0,-4.05682 -2.897728,0 z"/></clipPath><clipPath id="clipPath6810-7-87" clipPathUnits="userSpaceOnUse"><rect id="rect6812-2-4" width="14" height="11" x="21" y="281" style="color:#bebebe;fill:none;stroke:#fff;stroke-width:2;stroke-linecap:round;stroke-linejoin:round;stroke-miterlimit:4;stroke-opacity:1;stroke-dasharray:none;stroke-dashoffset:0;marker:none;visibility:visible;display:inline;overflow:visible"/></clipPath><radialGradient id="radialGradient5414" cx="-196.786" cy="-28.513" r="1.607" fx="-196.786" fy="-28.513" gradientTransform="matrix(2.9445462,0,0,2.8235465,602.73629,270.04529)" gradientUnits="userSpaceOnUse" xlink:href="#linearGradient5408"/><radialGradient id="radialGradient5414-2" cx="-196.786" cy="-28.513" r="1.607" fx="-196.786" fy="-28.513" gradientTransform="matrix(2.9445462,0,0,2.8235465,602.73629,270.04529)" gradientUnits="userSpaceOnUse" xlink:href="#linearGradient5408-4"/><linearGradient id="linearGradient5408-4"><stop style="stop-color:#bebebe;stop-opacity:1" id="stop5410-7" offset="0"/><stop style="stop-color:#bebebe;stop-opacity:0" id="stop5412-9" offset="1"/></linearGradient><linearGradient id="linearGradient12924-8" x1="123.63" x2="123.63" y1="734.62" y2="688.364" gradientTransform="matrix(0.27693843,0,0,0.27547268,49.732831,91.494538)" gradientUnits="userSpaceOnUse" xlink:href="#linearGradient6240-4"/><linearGradient id="linearGradient6240-4"><stop style="stop-color:#8fe8fc;stop-opacity:1" id="stop6242-9" offset="0"/><stop style="stop-color:#05b7df;stop-opacity:1" id="stop6244-27" offset="1"/></linearGradient><linearGradient id="linearGradient13012-1" x1="80.125" x2="80.125" y1="294.466" y2="279.9" gradientUnits="userSpaceOnUse" xlink:href="#linearGradient13006-5"/><linearGradient id="linearGradient13006-5"><stop style="stop-color:#204a87;stop-opacity:1" id="stop13008-5" offset="0"/><stop style="stop-color:#4e84d5;stop-opacity:1" id="stop13010-0" offset="1"/></linearGradient></defs><g id="layer9" transform="translate(-241.0002,-217)" style="display:inline"><g style="display:inline" id="g3922" transform="translate(21.0002,-0.999999)"><rect style="color:#bebebe;fill:none;stroke:none;stroke-width:1;marker:none;visibility:visible;display:inline;overflow:visible" id="rect2941" width="16" height="16" x="-194" y="20" transform="matrix(0,-1,1,0,0,0)"/><path style="color:#000;fill:#babdb6;fill-opacity:1;fill-rule:nonzero;stroke:none;stroke-width:.5;marker:none;visibility:visible;display:inline;overflow:visible;enable-background:new" id="rect14063" d="M 22.116732,178 C 20.946094,178 20,178.94979 20,180.125 l 0,11.75 c 0,1.17521 0.946094,2.125 2.116732,2.125 l 6.910506,0 0,-6 -0.99611,0 0,-2 0.99611,0 0,-1.0625 c 0,-1.84445 1.374066,-2.88912 3.175096,-2.9375 l 1.77432,0 0,2 -1.089494,0 c -0.625856,0 -0.902724,0.22291 -0.902724,0.90625 l 0,1.09375 1.712062,0 -0.217898,2 -1.494164,0 0,6 1.898832,0 C 35.053906,194 36,193.05021 36,191.875 l 0,-11.75 C 36,178.94979 35.053906,178 33.883268,178 z"/></g><g id="g14574" transform="translate(41.0002,-0.999999)" style="display:inline"><rect id="rect14576" width="16" height="16" x="-194" y="20" transform="matrix(0,-1,1,0,0,0)" style="color:#bebebe;fill:none;stroke:none;stroke-width:1;marker:none;visibility:visible;display:inline;overflow:visible"/><path style="color:#000;fill:#babdb6;fill-opacity:1;fill-rule:evenodd;stroke:none;stroke-width:1;marker:none;visibility:visible;display:inline;overflow:visible;enable-background:new" id="path6578" d="m 23.974183,180.38342 c 0,-1.82744 3.0247,-1.92155 3.0247,0 l 0,2.67169 4.40338,0 c 2.22739,0 2.03098,2.95871 0,2.95871 l -4.40123,0 0,1.56315 c 0,0.95048 0.90162,1.51376 1.7911,1.51376 l 2.76207,0 c 1.84999,0 1.96193,2.90927 0,2.90927 l -2.93933,0 c -2.64064,0 -4.61537,-1.46856 -4.61537,-4.22524 z"/></g><g id="g14648" transform="translate(61.0002,-0.999999)" style="display:inline"><rect id="rect14650" width="16" height="16" x="-194" y="20" transform="matrix(0,-1,1,0,0,0)" style="color:#bebebe;fill:none;stroke:none;stroke-width:1;marker:none;visibility:visible;display:inline;overflow:visible"/><path style="color:#000;fill:#babdb6;fill-opacity:1;fill-rule:nonzero;stroke:none;stroke-width:.5;marker:none;visibility:visible;display:inline;overflow:visible;enable-background:new" id="path14652" d="m -157.875,-40 c -1.17064,0 -2.125,0.94979 -2.125,2.125 l 0,11.75 c 0,1.17521 0.95436,2.125 2.125,2.125 l 11.75,0 c 1.17064,0 2.125,-0.94979 2.125,-2.125 l 0,-11.75 c 0,-1.17521 -0.95436,-2.125 -2.125,-2.125 z m 0.59375,4 c 0.44271,-0.0037 1.10825,0.016 1.9375,0.03125 1.15235,-0.0304 2.08497,-0.02915 2.84375,0.03125 l -0.0625,0.40625 -1.6875,0.1875 c 0.53394,0.8555 1.34138,2.06438 2.4375,3.5625 1.43347,-1.19274 2.19079,-2.087015 2.21875,-2.422985 l -1.46875,-0.25 -0.0937,-0.53125 2.4375,0 2.3125,0.03125 -0.34375,0.5 -1.3125,0.3125 c -0.1966,0.0606 -0.76003,0.596745 -1.6875,1.422985 -0.98382,0.85568 -1.12477,1.390223 -1.20895,1.665403 l -0.0625,0.78125 -0.0312,0.4375 0.125,1.15625 1.39645,0.05335 -0.0754,0.660041 -2.84375,0 -2.53125,0.03125 0.13794,-0.628791 0.8125,-0.03125 c 0.42182,-0.0304 0.66599,-0.06414 0.75,-0.15625 0.0564,-0.0606 0.0937,-0.45185 0.0937,-1.09375 l 0,-0.375 -0.0312,-0.8125 c -0.0564,-0.18307 -0.50387,-0.8382 -1.375,-2 -0.89951,-1.19219 -1.49997,-1.91143 -1.78125,-2.15625 l -1.625,-0.25 0,-0.5 c 0.0422,-0.03025 0.27604,-0.05875 0.71875,-0.0625 z m 10.57414,2.640816 -0.22882,3.496478 -1.05779,-0.12343 0.009,-2.90874 z m -0.74556,4.147366 c 0.37349,0 0.65625,0.31253 0.65625,0.71875 0,0.40622 -0.28276,0.75 -0.65625,0.75 -0.37349,0 -0.6875,-0.34378 -0.6875,-0.75 0,-0.40622 0.31401,-0.71875 0.6875,-0.71875 z" transform="translate(180,218)"/></g><rect id="rect14682" width="16" height="16" x="-193" y="101" transform="matrix(0,-1,1,0,0,0)" style="color:#bebebe;fill:none;stroke:none;stroke-width:1;marker:none;visibility:visible;display:inline;overflow:visible"/><g style="display:inline" id="g14746" transform="translate(81.0002,-0.999999)"><rect style="color:#bebebe;fill:none;stroke:none;stroke-width:1;marker:none;visibility:visible;display:inline;overflow:visible" id="rect14748" width="16" height="16" x="-194" y="20" transform="matrix(0,-1,1,0,0,0)"/><path style="color:#000;fill:#babdb6;fill-opacity:1;fill-rule:nonzero;stroke:none;stroke-width:.5;marker:none;visibility:visible;display:inline;overflow:visible;enable-background:new" id="path14750" d="M -134.96875,-39.992188 -136.75,-40 c -1.25558,0.65413 -1.44341,2.28631 -1.03125,3.78125 0.54477,1.97578 1.6335,3.36168 3.09375,2.90625 2.03691,-0.63544 2.09652,-2.298926 1.46875,-4.25 -0.33202,-1.031919 -0.94785,-1.863357 -1.75,-2.429688 z m 4.96875,3.08594 c 0,0.87973 -0.35797,1.63064 -0.75,2.21875 l 0,0.03125 -0.0937,0.0625 c 0,0 -0.25477,0.29919 -0.5625,0.59375 -0.30732,0.29461 -0.78125,0.6875 -0.78125,0.6875 -0.38566,0.28984 -0.59375,0.67301 -0.59375,1.09375 0,0.42217 0.26827,0.80375 0.65625,1.09375 0,0 0.78679,0.48207 1.21875,0.84375 0.43176,0.3619 0.9375,0.84375 0.9375,0.84375 0.58482,0.54987 0.96875,1.42615 0.96875,2.40625 0,0.8441 -0.26766,1.60954 -0.71875,2.15625 l -0.6875,0.875 4.28125,0 c 1.17064,0 2.125,-0.94979 2.125,-2.125 l 0,-11.75 c 0,-1.17521 -0.95436,-2.125 -2.125,-2.125 -0.57387,-0.0075 -1.8215,0.0017 -1.8215,0.0017 l -0.0155,0.985649 -2.56598,0.287789 c 0.37545,0.652051 0.5183,1.302866 0.52798,1.818612 z m -10,2.4375 0,5.625 c 1.73643,-1.162618 4.84375,-1.1875 4.84375,-1.1875 0,0 0.0135,-0.01865 0,-0.03125 -1.24578,-0.957621 -0.71875,-2.0625 -0.71875,-2.0625 -1.92621,0.164095 -2.8067,-0.554868 -4.125,-2.34375 z m 5.0625,5.53125 c -1.73056,0.09741 -3.95733,0.813692 -4,2.53125 0,1.02737 0.66882,1.9586 1.625,2.375 0,0 0.0344,0.02205 0.0625,0.03125 l 0.0312,0 4.53125,0 c 0,0 0.0106,-0.0447 0.0312,-0.0625 2.45123,-2.16941 0.60019,-3.4272 -1.5,-4.84375 -0.0379,-0.0252 -0.0937,-0.03125 -0.0937,-0.03125 -0.21899,-0.01041 -0.44028,-0.01392 -0.6875,0 z" transform="translate(160,218)"/></g><g style="display:inline" id="g6264" transform="translate(121.0002,-0.999999)"><rect style="color:#bebebe;fill:none;stroke:none;stroke-width:1;marker:none;visibility:visible;display:inline;overflow:visible" id="rect6266" width="16" height="16" x="-194" y="20" transform="matrix(0,-1,1,0,0,0)"/><path id="path6351" d="m 28,182 3,-3 5,3 -3,3 z" style="color:#000;fill:#babdb6;fill-opacity:1;fill-rule:evenodd;stroke:none;stroke-width:1;marker:none;visibility:visible;display:inline;overflow:visible;enable-background:new"/><path id="path6353" d="m 36,188 -5,4 -3,-4 5,-3 z" style="color:#000;fill:#babdb6;fill-opacity:1;fill-rule:evenodd;stroke:none;stroke-width:1;marker:none;visibility:visible;display:inline;overflow:visible;enable-background:new"/><use id="use6355" width="16" height="16" x="0" y="0" transform="matrix(-1,0,0,1,56,0)" xlink:href="#path6351"/><use id="use6357" width="16" height="16" x="0" y="0" transform="matrix(-1,0,0,1,56,0)" xlink:href="#path6353"/><path style="opacity:.12000002;color:#000;fill:#babdb6;fill-opacity:1;fill-rule:evenodd;stroke:none;stroke-width:1;marker:none;visibility:visible;display:inline;overflow:visible;enable-background:new" id="path6359" d="m -92,-30 0,6 5,-4 z" transform="translate(120,218)"/><path id="path8722" d="m 28,188 0,6 -5,-4 z" style="opacity:.47999998;color:#000;fill:#babdb6;fill-opacity:1;fill-rule:evenodd;stroke:none;stroke-width:1;marker:none;visibility:visible;display:inline;overflow:visible;enable-background:new"/><path id="path8728" d="m -92,-36 0,6 5,-3 z" transform="translate(120,218)" style="opacity:.12000002;color:#000;fill:#babdb6;fill-opacity:1;fill-rule:evenodd;stroke:none;stroke-width:1;marker:none;visibility:visible;display:inline;overflow:visible;enable-background:new"/></g><path style="color:#000;fill:#babdb6;fill-opacity:1;fill-rule:nonzero;stroke:none;stroke-width:2;marker:none;visibility:visible;display:inline;overflow:visible;enable-background:accumulate" id="rect3087" d="m 123.15645,177 c -1.19437,0 -2.15625,0.96188 -2.15625,2.15625 l 0,11.6875 c 0,1.19437 0.96188,2.15625 2.15625,2.15625 l 11.6875,0 c 1.19437,0 2.15625,-0.96188 2.15625,-2.15625 l 0,-11.6875 c 0,-1.19437 -0.96188,-2.15625 -2.15625,-2.15625 l -11.6875,0 z m 5.1875,3 c 0.86425,0 1.58858,0.6565 1.78125,1.53125 0.2127,-0.0776 0.45072,-0.125 0.6875,-0.125 1.14036,0 2.07346,0.96336 2.125,2.1875 0.17647,0.0903 0.32291,0.20656 0.46875,0.34375 0.49746,0.30037 0.85118,0.8434 0.96875,1.46875 0.12182,-0.0442 0.27074,-0.0625 0.40625,-0.0625 0.67528,0 1.21875,0.57802 1.21875,1.3125 0,0.73448 -0.54347,1.34375 -1.21875,1.34375 -0.42205,0 -0.81152,-0.24 -1.03125,-0.59375 -0.35286,0.34861 -0.79762,0.59375 -1.3125,0.59375 -0.0598,0 -0.12904,-0.0263 -0.1875,-0.0313 -0.0804,0.01 -0.13592,0.0313 -0.21875,0.0313 -0.54258,0 -1.03075,-0.22975 -1.40625,-0.59375 -0.45482,0.37064 -1.0458,0.59375 -1.65625,0.59375 -0.64532,0 -1.22006,-0.24639 -1.6875,-0.65625 -0.20825,0.3969 -0.6174,0.65625 -1.0625,0.65625 -0.12464,0 -0.23068,-0.0237 -0.34375,-0.0625 -0.037,-0.008 -0.0584,-0.0188 -0.0937,-0.0313 -0.17287,-0.0614 -0.32052,-0.16704 -0.4375,-0.3125 -0.34343,0.26119 -0.76898,0.40625 -1.21875,0.40625 -1.17342,0 -2.125,-1.02718 -2.125,-2.3125 0,-1.25067 0.90166,-2.28965 2.03125,-2.34375 0.18832,-0.43717 0.49246,-0.79478 0.875,-1.03125 -0.006,-0.051 -0.0313,-0.0724 -0.0313,-0.125 0,-0.31079 0.11489,-0.58797 0.28125,-0.8125 0.0364,-0.0491 0.0825,-0.11325 0.125,-0.15625 0.0395,-0.0432 0.079,-0.0899 0.125,-0.125 0.0457,-0.0336 0.10641,-0.0359 0.15625,-0.0625 0.008,-0.004 0.0229,-0.0273 0.0313,-0.0313 0.0586,-0.0296 0.12429,-0.0433 0.1875,-0.0625 0.10302,-0.0312 0.20032,-0.0625 0.3125,-0.0625 0.15041,0 0.27351,0.0388 0.40625,0.0937 0.30511,-0.53592 0.85789,-0.9014 1.46875,-0.9375 0.0419,-0.009 0.0821,0.005 0.125,0 0.0792,-0.0107 0.16796,-0.0313 0.25,-0.0313 z"/><g id="g6904"><path id="rect3087-5" d="M -77.84375 -40 C -79.03812 -40 -80 -39.03812 -80 -37.84375 L -80 -26.15625 C -80 -24.96188 -79.03812 -24 -77.84375 -24 L -66.15625 -24 C -64.96188 -24 -64 -24.96188 -64 -26.15625 L -64 -37.84375 C -64 -39.03812 -64.96188 -40 -66.15625 -40 L -77.84375 -40 z M -75.5 -35 C -74.119289 -35 -73 -33.880711 -73 -32.5 C -73 -31.119289 -74.119289 -30 -75.5 -30 C -76.880711 -30 -78 -31.119289 -78 -32.5 C -78 -33.880711 -76.880711 -35 -75.5 -35 z M -68.5 -35 C -67.119289 -35 -66 -33.880711 -66 -32.5 C -66 -31.119289 -67.119289 -30 -68.5 -30 C -69.880711 -30 -71 -31.119289 -71 -32.5 C -71 -33.880711 -69.880711 -35 -68.5 -35 z" transform="translate(241.0002,217)" style="opacity:1;color:#000;fill:#babdb6;fill-opacity:1;fill-rule:nonzero;stroke:none;stroke-width:2;marker:none;visibility:visible;display:inline;overflow:visible;enable-background:accumulate"/><path id="path6134" d="m -72.75,-32.234375 a 2.5625,2.359375 0 1 1 -5.125,0 2.5625,2.359375 0 1 1 5.125,0 z" transform="matrix(0.97560976,0,0,1.0596026,238.97581,218.65563)" style="color:#000;fill:#babdb6;fill-opacity:1;fill-rule:nonzero;stroke:none;stroke-width:4;marker:none;visibility:visible;display:inline;overflow:visible;enable-background:accumulate;opacity:.5"/></g></g><text style="font-size:40px;font-style:normal;font-variant:normal;font-weight:400;font-stretch:normal;text-align:start;line-height:125%;letter-spacing:0;word-spacing:0;writing-mode:lr-tb;text-anchor:start;fill:#eeeeec;fill-opacity:1;stroke:none;font-family:Cantarell;-inkscape-font-specification:Cantarell" id="text4574" x="-199" y="-128" xml:space="preserve"><tspan id="tspan4576" x="-199" y="-128">Web Accounts</tspan></text></svg>